<?xml version="1.0" encoding="iso-8859-1"?>
<!-- Generator: Adobe Illustrator 19.0.0, SVG Export Plug-In . SVG Version: 6.00 Build 0)  -->
<svg version="1.1" id="Capa_1" xmlns="http://www.w3.org/2000/svg" xmlns:xlink="http://www.w3.org/1999/xlink" x="0px" y="0px"
	 viewBox="0 0 512 512" style="enable-background:new 0 0 512 512;" xml:space="preserve">
<circle style="fill:#5D9CEC;" cx="443.78" cy="52.1" r="31.984"/>
<g style="opacity:0.3;">
	<path style="fill:#FFFFFF;" d="M419.795,52.098c0-16.293,12.229-29.595,27.986-31.583c-1.328-0.164-2.624-0.402-3.998-0.402
		c-17.664,0-31.984,14.321-31.984,31.985s14.32,31.985,31.984,31.985c1.374,0,2.67-0.238,3.998-0.402
		C432.023,81.693,419.795,68.391,419.795,52.098z"/>
</g>
<g style="opacity:0.2;">
	<path d="M467.771,52.098c0,16.292-12.229,29.595-27.986,31.583c1.327,0.164,2.639,0.402,3.998,0.402
		c17.663,0,31.984-14.321,31.984-31.985s-14.321-31.985-31.984-31.985c-1.359,0-2.671,0.238-3.998,0.402
		C455.543,22.503,467.771,35.805,467.771,52.098z"/>
</g>
<path style="fill:#AC92EC;" d="M467.771,436.078c0,4.411-3.592,7.996-7.996,7.996c-4.42,0-7.996-3.585-7.996-7.996
	c0-4.412,3.576-7.997,7.996-7.997C464.18,428.081,467.771,431.666,467.771,436.078z"/>
<path style="fill:#656D78;" d="M483.764,383.782H451.78c8.824,0,15.992-7.152,15.992-15.992c0-8.824-7.168-15.992-15.992-15.992
	h-31.984c8.823,0,15.992-7.153,15.992-15.992c0-8.824-7.169-15.993-15.992-15.993h-47.978c8.824,0,15.993-7.152,15.993-15.992
	c0-8.823-7.169-15.992-15.993-15.992h87.958c8.824,0,15.992-7.152,15.992-15.992c0-8.828-7.168-15.988-15.992-15.988h-39.98
	c8.823,0,15.992-7.16,15.992-15.992s-7.169-15.992-15.992-15.992h-15.992c8.823,0,15.992-7.161,15.992-15.992
	c0-8.832-7.169-15.993-15.992-15.993h79.961c8.824,0,15.992-7.161,15.992-15.992s-7.168-15.993-15.992-15.993h-31.984
	c8.824,0,15.992-7.16,15.992-15.992s-7.168-15.992-15.992-15.992h-31.984c8.823,0,15.992-7.161,15.992-15.992
	c0-8.832-7.169-15.992-15.992-15.992h-23.988c8.823,0,15.992-7.161,15.992-15.992c0-8.832-7.169-15.993-15.992-15.993H155.91
	c-8.824,0-15.992,7.161-15.992,15.993c0,8.831,7.168,15.992,15.992,15.992H99.937c-8.824,0-15.992,7.16-15.992,15.992
	s7.168,15.992,15.992,15.992H83.944c-8.824,0-15.992,7.161-15.992,15.992c0,8.832,7.168,15.992,15.992,15.992h47.977
	c-8.823,0-15.992,7.161-15.992,15.993s7.169,15.992,15.992,15.992H43.964c-8.824,0-15.993,7.161-15.993,15.993
	c0,8.831,7.168,15.992,15.993,15.992h39.98c-8.824,0-15.992,7.16-15.992,15.992s7.168,15.992,15.992,15.992h-39.98
	c-8.824,0-15.993,7.16-15.993,15.988c0,8.84,7.168,15.992,15.993,15.992H27.971c-8.824,0-15.992,7.169-15.992,15.992
	c0,8.84,7.168,15.992,15.992,15.992h39.981c-8.824,0-15.992,7.169-15.992,15.993c0,8.839,7.168,15.992,15.992,15.992H51.96
	c-8.824,0-15.993,7.168-15.993,15.992c0,8.84,7.168,15.992,15.993,15.992h79.961c-8.823,0-15.992,7.169-15.992,15.992
	c0,8.84,7.169,15.993,15.992,15.993H99.937c-8.824,0-15.992,7.168-15.992,15.992c0,8.839,7.168,15.992,15.992,15.992h271.881
	c8.824,0,15.993-7.153,15.993-15.992c0-8.824-7.169-15.992-15.993-15.992h111.946c8.824,0,15.992-7.153,15.992-15.993
	C499.756,390.951,492.588,383.782,483.764,383.782z"/>
<path style="fill:#4FC1E9;" d="M403.803,255.848c0,81.699-66.234,147.925-147.934,147.925c-81.695,0-147.929-66.226-147.929-147.925
	s66.234-147.929,147.929-147.929C337.568,107.919,403.803,174.148,403.803,255.848z"/>
<g style="opacity:0.3;">
	<path style="fill:#FFFFFF;" d="M139.925,255.848c0-76.291,57.769-139.054,131.94-147.031c-5.263-0.566-10.584-0.898-15.996-0.898
		c-81.695,0-147.929,66.229-147.929,147.929s66.234,147.925,147.929,147.925c5.412,0,10.733-0.327,15.996-0.89
		C197.694,394.902,139.925,332.135,139.925,255.848z"/>
</g>
<g style="opacity:0.2;">
	<path d="M371.817,255.848c0,76.287-57.769,139.055-131.94,147.035c5.256,0.562,10.581,0.89,15.992,0.89
		c81.699,0,147.934-66.226,147.934-147.925s-66.234-147.929-147.934-147.929c-5.411,0-10.736,0.332-15.992,0.898
		C314.049,116.793,371.817,179.557,371.817,255.848z"/>
</g>
<path style="fill:#4A89DC;" d="M451.779,52.098c0,4.419-5.373,7.996-11.994,7.996c-6.638,0-11.994-3.577-11.994-7.996
	c0-4.42,5.356-7.997,11.994-7.997C446.406,44.102,451.779,47.678,451.779,52.098z"/>
<g>
	<path style="fill:#3A3847;" d="M500.006,287.984c-2.218,0-4.045-1.788-4.045-3.998s1.749-3.998,3.951-3.998h0.094
		c2.202,0,3.998,1.788,3.998,3.998S502.208,287.984,500.006,287.984z"/>
	<path style="fill:#3A3847;" d="M116.187,8.119c-2.21,0-4.037-1.788-4.037-3.998s1.749-3.998,3.951-3.998h0.086
		c2.202,0,3.998,1.788,3.998,3.998S118.389,8.119,116.187,8.119z"/>
	<path style="fill:#3A3847;" d="M212.141,48.1c-2.21,0-4.037-1.788-4.037-3.998c0-2.209,1.749-3.998,3.951-3.998h0.086
		c2.202,0,3.998,1.789,3.998,3.998C216.139,46.312,214.343,48.1,212.141,48.1z"/>
	<path style="fill:#3A3847;" d="M92.198,112.069c-2.21,0-4.037-1.788-4.037-3.998s1.749-3.998,3.951-3.998h0.086
		c2.202,0,3.998,1.788,3.998,3.998S94.4,112.069,92.198,112.069z"/>
	<path style="fill:#3A3847;" d="M508.002,144.054c-2.218,0-4.045-1.788-4.045-3.998s1.75-3.998,3.951-3.998h0.094
		c2.202,0,3.998,1.788,3.998,3.998S510.204,144.054,508.002,144.054z"/>
	<path style="fill:#3A3847;" d="M428.041,168.042c-2.218,0-4.045-1.788-4.045-3.998c0-2.209,1.749-3.998,3.951-3.998h0.094
		c2.201,0,3.998,1.789,3.998,3.998C432.039,166.254,430.242,168.042,428.041,168.042z"/>
	<path style="fill:#3A3847;" d="M428.041,367.946c-2.218,0-4.045-1.788-4.045-3.998s1.749-3.998,3.951-3.998h0.094
		c2.201,0,3.998,1.788,3.998,3.998S430.242,367.946,428.041,367.946z"/>
	<path style="fill:#3A3847;" d="M108.19,415.923c-2.21,0-4.037-1.788-4.037-3.998s1.749-3.998,3.951-3.998h0.086
		c2.202,0,3.998,1.788,3.998,3.998S110.393,415.923,108.19,415.923z"/>
	<path style="fill:#3A3847;" d="M4.24,359.95c-2.21,0-4.037-1.788-4.037-3.998s1.749-3.998,3.951-3.998H4.24
		c2.202,0,3.998,1.788,3.998,3.998S6.442,359.95,4.24,359.95z"/>
	<path style="fill:#3A3847;" d="M36.225,256c-2.21,0-4.037-1.788-4.037-3.998s1.749-3.998,3.951-3.998h0.086
		c2.202,0,3.998,1.788,3.998,3.998S38.427,256,36.225,256z"/>
	<path style="fill:#3A3847;" d="M324.091,455.904c-2.218,0-4.045-1.789-4.045-3.998c0-2.21,1.749-3.998,3.951-3.998h0.094
		c2.202,0,3.998,1.788,3.998,3.998C328.089,454.115,326.293,455.904,324.091,455.904z"/>
	<path style="fill:#3A3847;" d="M11.995,136.058c-2.21,0-3.999-1.788-3.999-3.998v-31.984c0-2.21,1.789-3.998,3.999-3.998
		c2.209,0,3.998,1.788,3.998,3.998v31.984C15.993,134.27,14.204,136.058,11.995,136.058z"/>
	<path style="fill:#3A3847;" d="M19.991,120.065H3.998c-2.209,0-3.998-1.788-3.998-3.998s1.789-3.998,3.998-3.998h15.993
		c2.209,0,3.998,1.788,3.998,3.998S22.2,120.065,19.991,120.065z"/>
	<path style="fill:#3A3847;" d="M59.972,511.877c-2.21,0-3.998-1.788-3.998-3.998v-31.984c0-2.21,1.788-3.998,3.998-3.998
		s3.998,1.788,3.998,3.998v31.984C63.97,510.089,62.182,511.877,59.972,511.877z"/>
	<path style="fill:#3A3847;" d="M67.968,495.885H51.976c-2.21,0-3.998-1.788-3.998-3.998s1.788-3.998,3.998-3.998h15.992
		c2.21,0,3.998,1.788,3.998,3.998S70.178,495.885,67.968,495.885z"/>
	<path style="fill:#3A3847;" d="M183.443,389.014c-0.664,0-1.343-0.163-1.96-0.515C133.663,361.598,103.95,310.825,103.95,256
		c0-76.459,57.121-141.268,132.874-150.748c2.132-0.262,4.193,1.273,4.466,3.471c0.273,2.19-1.281,4.189-3.467,4.462
		c-71.762,8.98-125.877,70.381-125.877,142.814c0,51.943,28.15,100.046,73.457,125.533c1.921,1.078,2.608,3.514,1.522,5.443
		C186.192,388.28,184.833,389.014,183.443,389.014z"/>
	<path style="fill:#3A3847;" d="M255.877,407.927c-14.477,0-28.814-2.038-42.612-6.06c-2.124-0.609-3.342-2.826-2.725-4.95
		c0.624-2.124,2.803-3.343,4.958-2.718c13.072,3.803,26.659,5.731,40.379,5.731c79.364,0,143.928-64.562,143.928-143.931
		c0-74.21-55.599-135.774-129.313-143.201c-2.202-0.223-3.811-2.183-3.576-4.38c0.219-2.202,2.327-3.737,4.373-3.577
		c77.821,7.844,136.513,72.824,136.513,151.158C407.801,339.772,339.646,407.927,255.877,407.927z"/>
	<path style="fill:#3A3847;" d="M209.954,503.389c-0.96,0-1.749-0.148-2.382-0.273c-29.345-5.747-11.112-155.597,8.309-254.924
		C235.293,148.864,274.864,3.11,304.162,8.889c4.951,0.968,20.007,3.908,14.041,94.192c-0.156,2.21-2.03,3.858-4.264,3.725
		c-2.202-0.148-3.873-2.05-3.717-4.256c4.357-65.855-3.062-84.928-7.591-85.814c-9.792-1.987-45.599,62.579-78.911,232.985
		c-33.312,170.402-24.074,243.695-14.618,245.538c4.74,0.938,18.608-14.056,39.341-76.65c0.695-2.093,2.952-3.232,5.052-2.538
		c2.093,0.695,3.233,2.96,2.538,5.053C231.202,496.096,216.568,503.389,209.954,503.389z"/>
	<path style="fill:#3A3847;" d="M459.791,448.08c-0.641,0-1.281-0.055-1.937-0.156c-6.528-1.062-10.979-7.239-9.917-13.76
		c1.062-6.48,7.152-11.002,13.759-9.933c3.171,0.523,5.95,2.241,7.824,4.85c1.874,2.601,2.608,5.771,2.093,8.933
		C470.676,443.84,465.694,448.08,459.791,448.08z M460.275,432.126c-2.53,0-4.139,1.398-4.451,3.319
		c-0.359,2.171,1.14,4.232,3.311,4.576l0.656,0.062c1.968,0,3.607-1.414,3.936-3.358c0.172-1.062-0.078-2.116-0.703-2.983
		c-0.624-0.866-1.546-1.437-2.607-1.608C460.369,432.126,460.322,432.126,460.275,432.126z"/>
	<path style="fill:#3A3847;" d="M404.724,479.729c-1.78,0-3.404-1.203-3.873-3.006c-0.547-2.141,0.749-4.326,2.89-4.865
		c36.201-9.223,46.462-31.664,46.571-31.898c0.874-2,3.232-2.937,5.247-2.062c2.015,0.883,2.951,3.218,2.077,5.24
		c-0.453,1.07-11.666,26.214-51.929,36.467C405.38,479.689,405.052,479.729,404.724,479.729z"/>
	<path style="fill:#3A3847;" d="M443.783,88.081c-19.834,0-35.982-16.141-35.982-35.983s16.148-35.983,35.982-35.983
		c19.85,0,35.982,16.141,35.982,35.983C479.766,71.94,463.633,88.081,443.783,88.081z M443.783,24.111
		c-15.43,0-27.986,12.557-27.986,27.987s12.557,27.986,27.986,27.986s27.986-12.556,27.986-27.986S459.213,24.111,443.783,24.111z"
		/>
	<path style="fill:#3A3847;" d="M427.791,40.104h-11.713c-2.203,0-3.998-1.788-3.998-3.998s1.795-3.998,3.998-3.998h11.713
		c2.218,0,3.998,1.788,3.998,3.998S430.009,40.104,427.791,40.104z"/>
	<path style="fill:#3A3847;" d="M471.457,72.088h-11.682c-2.202,0-3.998-1.788-3.998-3.998s1.796-3.998,3.998-3.998h11.682
		c2.218,0,3.998,1.788,3.998,3.998S473.675,72.088,471.457,72.088z"/>
	<path style="fill:#3A3847;" d="M439.785,64.092c-8.965,0-15.992-5.267-15.992-11.994s7.027-11.995,15.992-11.995
		s15.992,5.268,15.992,11.995S448.75,64.092,439.785,64.092z M439.785,48.1c-4.873,0-7.996,2.366-7.996,3.999
		c0,1.632,3.123,3.998,7.996,3.998c4.889,0,7.996-2.366,7.996-3.998C447.781,50.466,444.674,48.1,439.785,48.1z"/>
</g>
<g>
</g>
<g>
</g>
<g>
</g>
<g>
</g>
<g>
</g>
<g>
</g>
<g>
</g>
<g>
</g>
<g>
</g>
<g>
</g>
<g>
</g>
<g>
</g>
<g>
</g>
<g>
</g>
<g>
</g>
</svg>
