<svg height="512pt" viewBox="-112 0 512 512.00001" width="512pt" xmlns="http://www.w3.org/2000/svg"><path d="m260.820312 81.898438h-30.566406v21.640624h30.566406c5.976563 0 10.820313-4.84375 10.820313-10.820312s-4.84375-10.820312-10.820313-10.820312zm0 0" fill="#cecdba"/><path d="m27.304688 81.898438h30.566406v21.640624h-30.566406c-5.976563 0-10.820313-4.84375-10.820313-10.820312s4.84375-10.820312 10.820313-10.820312zm0 0" fill="#cecdba"/><path d="m288.125 371.195312v130.503907c0 5.6875-4.613281 10.300781-10.304688 10.300781h-267.515624c-5.691407 0-10.30078175-4.613281-10.30078175-10.300781v-130.503907c0-51.808593 41.98828175-93.796874 93.78515575-93.796874h100.546876c51.796874 0 93.789062 41.988281 93.789062 93.796874zm0 0" fill="#5c73bc"/><path d="m.00390625 468.730469h288.12109375v15.453125h-288.12109375zm0 0" fill="#4159a5"/><path d="m52.378906 363.066406v148.933594h-15.453125v-148.933594c0-4.265625 3.460938-7.726562 7.722657-7.726562 4.265624 0 7.730468 3.460937 7.730468 7.726562zm0 0" fill="#4159a5"/><path d="m288.125 371.195312v130.503907c0 5.6875-4.613281 10.300781-10.304688 10.300781h-42.070312v-140.804688c0-51.808593-41.992188-93.796874-93.800781-93.796874h52.386719c51.796874 0 93.789062 41.988281 93.789062 93.796874zm0 0" fill="#4159a5"/><path d="m288.125 406.066406v95.632813c0 5.6875-4.613281 10.300781-10.304688 10.300781h-42.070312v-105.933594zm0 0" fill="#92c927"/><path d="m235.75 439.546875h52.371094v15.453125h-52.371094zm0 0" fill="#7aa50f"/><path d="m272.753906 464.269531c-4.265625 0-7.726562-3.460937-7.726562-7.726562v-18.542969c0-4.269531 3.460937-7.726562 7.726562-7.726562 4.269532 0 7.726563 3.457031 7.726563 7.726562v18.542969c0 4.265625-3.457031 7.726562-7.726563 7.726562zm0 0" fill="#7aa50f"/><path d="m251.121094 464.269531c-4.265625 0-7.726563-3.460937-7.726563-7.726562v-18.542969c0-4.269531 3.460938-7.726562 7.726563-7.726562s7.726562 3.457031 7.726562 7.726562v18.542969c0 4.265625-3.460937 7.726562-7.726562 7.726562zm0 0" fill="#7aa50f"/><path d="m235.75 406.0625h52.375v12.59375h-52.375zm0 0" fill="#7aa50f"/><path d="m52.378906 406.066406v105.933594h-42.074218c-5.691407 0-10.30078175-4.613281-10.30078175-10.300781v-95.632813zm0 0" fill="#b1de54"/><path d="m36.925781 406.066406h15.453125v105.933594h-15.453125zm0 0" fill="#92c927"/><path d="m0 406.0625h52.378906v12.59375h-52.378906zm0 0" fill="#92c927"/><path d="m190.792969 277.398438v16.398437c0 21.519531-17.453125 38.972656-38.972657 38.972656h-15.515624c-21.519532 0-38.972657-17.453125-38.972657-38.972656v-16.398437h24.199219v-49.894532h45.0625v49.894532zm0 0" fill="#92c927"/><path d="m166.59375 227.503906v37.902344c-7.304688 1.957031-14.847656 2.964844-22.53125 2.964844s-15.226562-1.007813-22.53125-2.964844v-37.902344zm0 0" fill="#7aa50f"/><path d="m279.746094 153.855469c0 16.519531-13.394532 29.910156-29.914063 29.910156s-29.910156-13.390625-29.910156-29.910156 13.390625-29.914063 29.910156-29.914063 29.914063 13.394532 29.914063 29.914063zm0 0" fill="#92c927"/><path d="m68.203125 153.855469c0 16.519531-13.390625 29.910156-29.910156 29.910156s-29.910157-13.390625-29.910157-29.910156 13.390626-29.914063 29.910157-29.914063 29.910156 13.394532 29.910156 29.914063zm0 0" fill="#92c927"/><path d="m236.121094 37.746094v101.730468c0 64.367188 0 116.542969-92.058594 116.542969-92.054688 0-92.054688-52.179687-92.054688-116.542969v-101.730468zm0 0" fill="#b1de54"/><path d="m144.0625 212.234375c-13.503906 0-25.179688-11.449219-27.765625-27.21875-.691406-4.210937 2.164063-8.183594 6.375-8.875s8.183594 2.164063 8.875 6.375c1.351563 8.265625 6.617187 14.265625 12.515625 14.265625s11.164062-6 12.519531-14.265625c.691407-4.210937 4.664063-7.066406 8.875-6.375 4.210938.691406 7.0625 4.664063 6.371094 8.875-2.585937 15.769531-14.261719 27.21875-27.765625 27.21875zm0 0" fill="#5a5a52"/><path d="m102.1875 159.539062c-4.265625 0-7.726562-3.457031-7.726562-7.726562v-.953125c0-4.269531 3.460937-7.726563 7.726562-7.726563s7.726562 3.457032 7.726562 7.726563v.953125c0 4.265625-3.460937 7.726562-7.726562 7.726562zm0 0" fill="#5a5a52"/><path d="m185.9375 159.539062c-4.265625 0-7.722656-3.457031-7.722656-7.726562v-.953125c0-4.269531 3.457031-7.726563 7.722656-7.726563 4.269531 0 7.726562 3.457032 7.726562 7.726563v.953125c0 4.265625-3.457031 7.726562-7.726562 7.726562zm0 0" fill="#5a5a52"/><path d="m255.394531 35.644531v13.535157c0 5.4375-4.410156 9.839843-9.835937 9.839843h-202.988282c-5.429687 0-9.839843-4.402343-9.839843-9.839843v-13.535157c0-19.6875 15.96875-35.644531 35.65625-35.644531h151.351562c19.6875 0 35.65625 15.957031 35.65625 35.644531zm0 0" fill="#6c6c65"/><path d="m189.636719 37.746094v21.273437h-15.453125v-21.273437c0-4.265625 3.460937-7.726563 7.726562-7.726563s7.726563 3.460938 7.726563 7.726563zm0 0" fill="#5a5a52"/><path d="m211.28125 48.386719v10.632812h-15.453125v-10.632812c0-4.273438 3.453125-7.726563 7.726563-7.726563 4.265624 0 7.726562 3.453125 7.726562 7.726563zm0 0" fill="#5a5a52"/><g fill="#7aa50f"><path d="m52.007812 89.933594h184.113282v15.453125h-184.113282zm0 0"/><path d="m77.171875 119.15625c-4.269531 0-7.726563-3.457031-7.726563-7.726562v-27.542969c0-4.269531 3.457032-7.726563 7.726563-7.726563 4.265625 0 7.722656 3.457032 7.722656 7.726563v27.542969c0 4.269531-3.457031 7.726562-7.722656 7.726562zm0 0"/><path d="m110.617188 119.15625c-4.269532 0-7.726563-3.457031-7.726563-7.726562v-27.542969c0-4.269531 3.457031-7.726563 7.726563-7.726563 4.265624 0 7.726562 3.457032 7.726562 7.726563v27.542969c0 4.269531-3.460938 7.726562-7.726562 7.726562zm0 0"/><path d="m144.0625 119.15625c-4.265625 0-7.726562-3.457031-7.726562-7.726562v-27.542969c0-4.269531 3.460937-7.726563 7.726562-7.726563s7.726562 3.457032 7.726562 7.726563v27.542969c0 4.269531-3.460937 7.726562-7.726562 7.726562zm0 0"/><path d="m177.511719 119.15625c-4.269531 0-7.726563-3.457031-7.726563-7.726562v-27.542969c0-4.269531 3.457032-7.726563 7.726563-7.726563 4.265625 0 7.722656 3.457032 7.722656 7.726563v27.542969c0 4.269531-3.457031 7.726562-7.722656 7.726562zm0 0"/><path d="m210.957031 119.15625c-4.269531 0-7.726562-3.457031-7.726562-7.726562v-27.542969c0-4.269531 3.457031-7.726563 7.726562-7.726563 4.265625 0 7.726563 3.457032 7.726563 7.726563v27.542969c0 4.269531-3.460938 7.726562-7.726563 7.726562zm0 0"/></g><path d="m85.34375 495.472656c-4.269531 0-7.726562-3.457031-7.726562-7.726562v-22.574219c0-4.269531 3.457031-7.726563 7.726562-7.726563 4.265625 0 7.726562 3.457032 7.726562 7.726563v22.574219c0 4.269531-3.460937 7.726562-7.726562 7.726562zm0 0" fill="#4159a5"/><path d="m114.703125 495.472656c-4.265625 0-7.726563-3.457031-7.726563-7.726562v-22.574219c0-4.269531 3.460938-7.726563 7.726563-7.726563s7.726563 3.457032 7.726563 7.726563v22.574219c0 4.269531-3.460938 7.726562-7.726563 7.726562zm0 0" fill="#4159a5"/><path d="m144.0625 495.472656c-4.265625 0-7.726562-3.457031-7.726562-7.726562v-22.574219c0-4.269531 3.460937-7.726563 7.726562-7.726563s7.726562 3.457032 7.726562 7.726563v22.574219c0 4.269531-3.460937 7.726562-7.726562 7.726562zm0 0" fill="#4159a5"/><path d="m173.421875 495.472656c-4.265625 0-7.726563-3.457031-7.726563-7.726562v-22.574219c0-4.269531 3.460938-7.726563 7.726563-7.726563 4.269531 0 7.726563 3.457032 7.726563 7.726563v22.574219c0 4.269531-3.457032 7.726562-7.726563 7.726562zm0 0" fill="#4159a5"/><path d="m202.78125 495.472656c-4.265625 0-7.722656-3.457031-7.722656-7.726562v-22.574219c0-4.269531 3.457031-7.726563 7.722656-7.726563 4.269531 0 7.726562 3.457032 7.726562 7.726563v22.574219c.003907 4.269531-3.457031 7.726562-7.726562 7.726562zm0 0" fill="#4159a5"/></svg>