<svg height="512pt" viewBox="-34 0 512 512.001" width="512pt" xmlns="http://www.w3.org/2000/svg"><path d="m422.875 371.316406c-.011719.011719-.011719.011719-.019531.023438 6.097656 5.417968 9.660156 11.867187 9.660156 18.800781 0 19.210937-27.246094 34.789063-60.851563 34.789063-32.234374 0-58.585937-14.320313-60.707031-32.441407-2.464843-2.316406-9.789062-11.992187-11.242187-13.441406-19.714844-19.707031-7.746094-63.648437 26.734375-98.125 34.480469-34.480469 78.417969-46.453125 98.125-26.734375 9.160156 9.148438 11.476562 23.527344 7.871093 39.753906-1.050781 4.757813-2.605468 9.683594-4.65625 14.679688.011719 0 .011719.011718.011719.011718 6.242188 3.121094 10.992188 7.589844 13.636719 13.402344 5.039062 11 1.609375 24.578125-7.972656 37.53125-2.957032 4.003906-6.511719 7.960938-10.589844 11.75zm0 0" fill="#b0e8ff"/><path d="m432.445312 293.941406c-1.050781 4.757813-2.605468 9.683594-4.65625 14.679688-9.1875-3.367188-21.851562-3.945313-35.921874-1.214844-4.203126.8125-8.253907-1.925781-9.066407-6.109375-.8125-4.191406 1.925781-8.25 6.109375-9.066406 16.617188-3.222657 31.6875-2.472657 43.535156 1.710937zm0 0" fill="#81caef"/><path d="m433.464844 359.5625c-2.957032 4.007812-6.511719 7.964844-10.589844 11.753906-7.492188-4.367187-17.523438-7.601562-28.691406-8.847656-4.242188-.472656-7.292969-4.296875-6.820313-8.539062.472657-4.234376 4.285157-7.292969 8.53125-6.820313 14.988281 1.667969 27.90625 6.128906 37.570313 12.453125zm0 0" fill="#81caef"/><path d="m144.035156 379.046875c-1.453125 1.449219-8.777344 11.125-11.238281 13.441406-2.125 18.121094-28.476563 32.441407-60.710937 32.441407-33.601563 0-60.851563-15.578126-60.851563-34.789063 0-6.933594 3.5625-13.382813 9.664063-18.800781-.03125-.03125-.054688-.054688-.082032-.082032-4-3.730468-7.492187-7.605468-10.417968-11.539062-9.660157-12.988281-13.144532-26.640625-8.085938-37.683594 2.648438-5.808594 7.40625-10.28125 13.648438-13.414062-.027344-.070313-.058594-.152344-.089844-.226563-2.050782-5.039062-3.609375-9.992187-4.636719-14.792969-3.492187-16.082031-1.15625-30.328124 7.941406-39.414062 19.707031-19.71875 63.644531-7.746094 98.125 26.734375 34.480469 34.476563 46.453125 78.417969 26.734375 98.125zm0 0" fill="#b0e8ff"/><path d="m64.792969 299.402344c-.8125 4.191406-4.859375 6.933594-9.066407 6.109375-13.382812-2.597657-28.289062-1.070313-39.855468 2.882812-2.050782-5.039062-3.609375-9.992187-4.636719-14.792969 12.351563-5.511718 28.949219-6.851562 47.4375-3.253906 4.195313.8125 6.9375 4.871094 6.121094 9.054688zm0 0" fill="#81caef"/><path d="m54.667969 358.90625c-14 1.554688-26.210938 6.25-33.851563 12.351562-4-3.730468-7.492187-7.605468-10.417968-11.539062 9.941406-8.304688 24.808593-14.195312 42.558593-16.171875 4.234375-.464844 8.054688 2.585937 8.53125 6.828125.472657 4.234375-2.578125 8.054688-6.820312 8.53125zm0 0" fill="#81caef"/><path d="m221.875 102.875c-4.265625 0-7.726562-3.460938-7.726562-7.726562v-73.039063c0-4.269531 3.460937-7.726563 7.726562-7.726563 4.269531 0 7.726562 3.457032 7.726562 7.726563v73.039063c0 4.265624-3.457031 7.726562-7.726562 7.726562zm0 0" fill="#81caef"/><path d="m315.988281 212.273438v-29.195313c0-51.976563-42.136719-94.113281-94.113281-94.113281s-94.113281 42.136718-94.113281 94.113281v29.195313c0 32.671874-9.804688 64.351562-26.761719 92.28125-3.683594 6.066406-5.804688 13.183593-5.804688 20.796874 0 22.175782 17.976563 40.15625 40.15625 40.15625h173.046876c22.175781 0 40.152343-17.976562 40.152343-40.15625 0-7.613281-2.117187-14.730468-5.800781-20.796874-16.957031-27.933594-26.761719-59.609376-26.761719-92.28125zm0 0" fill="#ffd02f"/><path d="m348.558594 325.351562c0 22.179688-17.980469 40.15625-40.15625 40.15625h-173.050782c-11.097656 0-21.128906-4.492187-28.394531-11.765624-7.269531-7.261719-11.761719-17.304688-11.761719-28.390626 0-6.355468 1.472657-12.363281 4.109376-17.699218 1.957031 3.964844 4.550781 7.570312 7.652343 10.660156 7.261719 7.273438 17.296875 11.765625 28.394531 11.765625h173.046876c15.8125 0 29.496093-9.136719 36.046874-22.425781 1.050782 2.144531 1.925782 4.386718 2.585938 6.714844 1 3.496093 1.527344 7.171874 1.527344 10.984374zm0 0" fill="#fa0"/><path d="m333.589844 402.8125v98.886719c0 5.6875-4.613282 10.300781-10.304688 10.300781h-202.820312c-5.691406 0-10.300782-4.613281-10.300782-10.300781v-98.886719c0-40.167969 32.5625-72.734375 72.730469-72.734375h77.964844c40.167969 0 72.730469 32.566406 72.730469 72.734375zm0 0" fill="#f5f6e3"/><path d="m333.585938 402.808594v98.890625c0 5.691406-4.613282 10.300781-10.304688 10.300781h-30.3125v-109.183594c0-40.171875-32.5625-72.734375-72.726562-72.734375h40.613281c40.167969 0 72.730469 32.558594 72.730469 72.726563zm0 0" fill="#e0e0d1"/><path d="m158.507812 397.898438v114.101562h-15.453124v-114.101562c0-4.265626 3.453124-7.726563 7.726562-7.726563 4.265625 0 7.726562 3.460937 7.726562 7.726563zm0 0" fill="#e0e0d1"/><path d="m220.242188 432.183594c-4.265626 0-7.726563-3.460938-7.726563-7.726563v-51.4375c0-4.265625 3.460937-7.726562 7.726563-7.726562 4.269531 0 7.726562 3.460937 7.726562 7.726562v51.4375c0 4.265625-3.457031 7.726563-7.726562 7.726563zm0 0" fill="#ffcfa1"/><path d="m258.105469 330.078125v12.726563c0 16.6875-13.523438 30.214843-30.214844 30.214843h-12.03125c-16.691406 0-30.214844-13.527343-30.214844-30.214843v-12.726563h10.773438v-38.679687h50.914062v38.679687zm0 0" fill="#ffcfa1"/><path d="m247.332031 291.398438v27.730468c-7.902343 3.832032-16.484375 5.925782-25.457031 5.925782s-17.554688-2.089844-25.457031-5.925782v-27.730468zm0 0" fill="#ffb685"/><path d="m320.523438 237.246094c0 12.011718-9.738282 21.746094-21.746094 21.746094-12.011719 0-21.75-9.734376-21.75-21.746094 0-12.007813 9.738281-21.746094 21.75-21.746094 12.007812 0 21.746094 9.738281 21.746094 21.746094zm0 0" fill="#ffcfa1"/><path d="m166.722656 237.246094c0 12.011718-9.738281 21.746094-21.746094 21.746094-12.011718 0-21.75-9.734376-21.75-21.746094 0-12.007813 9.738282-21.746094 21.75-21.746094 12.007813 0 21.746094 9.738281 21.746094 21.746094zm0 0" fill="#ffcfa1"/><path d="m293.257812 192.367188v30.78125c0 2.96875-.113281 5.917968-.335937 8.816406-3.5 45.765625-33.972656 81.539062-71.046875 81.539062s-67.546875-35.773437-71.046875-81.539062c-.222656-2.898438-.335937-5.847656-.335937-8.816406v-30.78125c0-26.578126 21.535156-48.113282 48.105468-48.113282h46.554688c26.570312 0 48.105468 21.535156 48.105468 48.113282zm0 0" fill="#ffdec2"/><path d="m221.875 281.289062c-11.324219 0-21.101562-9.484374-23.242188-22.558593-.691406-4.210938 2.164063-8.183594 6.375-8.875 4.214844-.691407 8.183594 2.164062 8.875 6.375.894532 5.480469 4.332032 9.609375 7.992188 9.609375s7.097656-4.128906 7.996094-9.609375c.6875-4.210938 4.667968-7.0625 8.871094-6.375 4.210937.691406 7.066406 4.664062 6.375 8.875-2.140626 13.074219-11.917969 22.558593-23.242188 22.558593zm0 0" fill="#ff8294"/><path d="m189.402344 240.429688c-4.265625 0-7.726563-3.457032-7.726563-7.726563v-.738281c0-4.269532 3.460938-7.726563 7.726563-7.726563 4.269531 0 7.726562 3.457031 7.726562 7.726563v.738281c0 4.269531-3.457031 7.726563-7.726562 7.726563zm0 0" fill="#006df0"/><path d="m254.347656 240.429688c-4.269531 0-7.726562-3.457032-7.726562-7.726563v-.738281c0-4.269532 3.460937-7.726563 7.726562-7.726563s7.726563 3.457031 7.726563 7.726563v.738281c0 4.269531-3.460938 7.726563-7.726563 7.726563zm0 0" fill="#006df0"/><path d="m218.355469 119.972656v26.011719c0 25.996094-21.074219 47.074219-47.074219 47.074219h-29.886719v-26.011719c0-26 21.074219-47.074219 47.070313-47.074219zm0 0" fill="#ffd02f"/><path d="m218.355469 119.972656v26.011719c0 25.996094 21.078125 47.074219 47.074219 47.074219h36.625v-26.011719c0-26-21.074219-47.074219-47.070313-47.074219zm0 0" fill="#ffd02f"/><path d="m221.875 70.964844c-20.328125 0-39.609375-2.613282-54.289062-7.359375-24.382813-7.882813-29.5-19.644531-29.5-28.121094 0-8.480469 5.117187-20.242187 29.5-28.125 14.679687-4.746094 33.960937-7.359375 54.289062-7.359375s39.609375 2.613281 54.292969 7.359375c24.378906 7.882813 29.496093 19.644531 29.496093 28.125 0 8.476563-5.117187 20.238281-29.496093 28.121094-14.683594 4.746093-33.964844 7.359375-54.292969 7.359375zm-57.164062-35.480469c6.851562 4.457031 26.734374 10.667969 57.164062 10.667969 30.433594 0 50.3125-6.210938 57.164062-10.667969-6.851562-4.460937-26.730468-10.667969-57.164062-10.667969-30.429688 0-50.3125 6.207032-57.164062 10.667969zm0 0" fill="#ffd02f"/><path d="m191.835938 252.632812c0 3.902344-3.164063 7.066407-7.066407 7.066407-3.90625 0-7.070312-3.164063-7.070312-7.066407 0-3.90625 3.164062-7.070312 7.070312-7.070312 3.902344 0 7.066407 3.164062 7.066407 7.070312zm0 0" fill="#ff8294"/><path d="m266.054688 252.632812c0 3.902344-3.167969 7.066407-7.070313 7.066407-3.90625 0-7.070313-3.164063-7.070313-7.066407 0-3.90625 3.164063-7.070312 7.070313-7.070312 3.902344 0 7.070313 3.164062 7.070313 7.070312zm0 0" fill="#ff8294"/><g fill="#ffd02f"><path d="m86.992188 89.523438c-.003907 0-.007813 0-.015626 0-4.265624-.011719-7.71875-3.476563-7.707031-7.746094l.011719-5.476563c.007812-4.261719 3.464844-7.707031 7.722656-7.707031h.019532c4.265624.007812 7.71875 3.476562 7.707031 7.742188l-.011719 5.476562c-.007812 4.261719-3.464844 7.710938-7.726562 7.710938zm0 0"/><path d="m86.910156 125.679688c-.007812 0-.011718 0-.015625 0-4.269531-.007813-7.71875-3.476563-7.710937-7.742188l.011718-5.476562c.007813-4.261719 3.46875-7.710938 7.726563-7.710938h.015625c4.269531.011719 7.71875 3.476562 7.710938 7.742188l-.011719 5.480468c-.011719 4.257813-3.46875 7.707032-7.726563 7.707032zm0 0"/><path d="m107.773438 104.910156c-.003907 0-.011719 0-.015626 0l-5.476562-.011718c-4.269531-.011719-7.71875-3.476563-7.710938-7.746094.011719-4.261719 3.46875-7.707032 7.726563-7.707032h.019531l5.476563.011719c4.269531.011719 7.71875 3.480469 7.707031 7.746094-.007812 4.261719-3.464844 7.707031-7.726562 7.707031zm0 0"/><path d="m71.617188 104.828125c-.007813 0-.011719 0-.019532 0l-5.476562-.015625c-4.265625-.007812-7.71875-3.476562-7.707032-7.742188.007813-4.261718 3.46875-7.710937 7.726563-7.710937h.015625l5.476562.015625c4.269532.007812 7.71875 3.476562 7.710938 7.742188-.011719 4.261718-3.46875 7.710937-7.726562 7.710937zm0 0"/><path d="m364.007812 154.800781c-.007812 0-.011718 0-.015624 0-4.269532-.011719-7.71875-3.476562-7.710938-7.742187l.011719-5.476563c.007812-4.261719 3.46875-7.710937 7.726562-7.710937h.015625c4.269532.011718 7.71875 3.476562 7.710938 7.742187l-.011719 5.480469c-.007813 4.257812-3.46875 7.707031-7.726563 7.707031zm0 0"/><path d="m363.921875 190.957031c-.003906 0-.011719 0-.015625 0-4.269531-.007812-7.71875-3.476562-7.710938-7.742187l.015626-5.480469c.007812-4.257813 3.464843-7.707031 7.726562-7.707031h.015625c4.269531.011718 7.71875 3.480468 7.707031 7.746094l-.011718 5.476562c-.011719 4.261719-3.464844 7.707031-7.726563 7.707031zm0 0"/><path d="m384.789062 170.1875c-.007812 0-.011718 0-.019531 0l-5.476562-.011719c-4.265625-.011719-7.71875-3.476562-7.707031-7.742187.007812-4.261719 3.46875-7.710938 7.726562-7.710938h.015625l5.480469.011719c4.265625.011719 7.714844 3.480469 7.707031 7.746094-.011719 4.261719-3.46875 7.707031-7.726563 7.707031zm0 0"/><path d="m348.628906 170.105469c-.003906 0-.007812 0-.015625 0l-5.476562-.011719c-4.269531-.011719-7.71875-3.476562-7.710938-7.746094.011719-4.257812 3.46875-7.707031 7.726563-7.707031h.019531l5.476563.011719c4.265624.011718 7.71875 3.476562 7.707031 7.746094-.007813 4.257812-3.464844 7.707031-7.726563 7.707031zm0 0"/></g></svg>