<svg height="512pt" viewBox="-117 0 512 512" width="512pt" xmlns="http://www.w3.org/2000/svg"><path d="m223.25 146.257812v22.578126c0 8.199218 6.644531 14.84375 14.84375 14.84375 15.332031 0 27.757812-12.425782 27.757812-27.757813v-35.996094c0-3.21875-2.609374-5.824219-5.824218-5.824219h-4.621094c-17.761719 0-32.15625 14.394532-32.15625 32.15625zm0 0" fill="#bc6c35"/><path d="m53.839844 146.257812v22.578126c0 8.199218-6.648438 14.84375-14.84375 14.84375-15.332032 0-27.757813-12.425782-27.757813-27.757813v-35.996094c0-3.21875 2.605469-5.824219 5.820313-5.824219h4.625c17.757812 0 32.15625 14.394532 32.15625 32.15625zm0 0" fill="#bc6c35"/><path d="m277.082031 376.570312v125.128907c0 5.6875-4.609375 10.300781-10.300781 10.300781h-256.472656c-5.691406 0-10.30468775-4.613281-10.30468775-10.300781v-125.117188c0-49.820312 40.38281275-90.203125 90.19140575-90.203125h96.695313c49.8125 0 90.191406 40.382813 90.191406 90.191406zm0 0" fill="#81caef"/><path d="m50.371094 370.492188v141.507812h-15.453125v-141.507812c0-4.261719 3.460937-7.722657 7.726562-7.722657s7.726563 3.460938 7.726563 7.722657zm0 0" fill="#64b0e0"/><path d="m226.71875 486.429688v25.570312h-176.703125v-23.964844l5.199219-6.261718c2.179687-2.617188 5.925781-3.25 8.847656-1.515626l14.492188 8.660157c2.804687 1.671875 6.402343 1.15625 8.609374-1.25l18.03125-19.554688c2.527344-2.734375 6.757813-2.984375 9.582032-.554687l20.128906 17.34375c3.449219 2.972656 8.777344 1.84375 10.738281-2.265625l10.414063-21.90625c2.148437-4.519531 8.242187-5.320313 11.480468-1.507813l26.917969 31.632813c2.746094 3.230469 7.730469 3.242187 10.492188.023437l8.054687-9.402344c3.011719-3.519531 8.570313-3.121093 11.058594.78125zm0 0" fill="#fc9854"/><path d="m277.085938 376.589844v125.109375c0 5.6875-4.613282 10.300781-10.304688 10.300781h-40.0625v-135.410156c0-49.824219-40.382812-90.203125-90.207031-90.203125h50.371093c49.816407 0 90.203126 40.382812 90.203126 90.203125zm0 0" fill="#64b0e0"/><path d="m277.082031 410.125v91.574219c0 5.6875-4.609375 10.300781-10.300781 10.300781h-40.0625v-101.875zm0 0" fill="#fc9854"/><path d="m226.71875 410.121094h50.367188v12.109375h-50.367188zm0 0" fill="#f47e2f"/><path d="m50.371094 410.125v101.875h-40.0625c-5.691406 0-10.30468775-4.613281-10.30468775-10.300781v-91.574219zm0 0" fill="#ffb685"/><path d="m34.917969 410.125h15.453125v101.875h-15.453125zm0 0" fill="#fc9854"/><path d="m0 410.121094h50.371094v12.109375h-50.371094zm0 0" fill="#fc9854"/><path d="m226.71875 410.125h15.453125v101.875h-15.453125zm0 0" fill="#f47e2f"/><path d="m183.484375 286.386719v15.769531c0 20.695312-16.785156 37.480469-37.480469 37.480469h-14.917968c-20.699219 0-37.480469-16.785157-37.480469-37.480469v-15.769531h23.273437v-47.980469h43.332032v47.980469zm0 0" fill="#ffb685"/><path d="m160.210938 238.40625v36.445312c-7.023438 1.882813-14.277344 2.855469-21.667969 2.855469s-14.640625-.972656-21.664063-2.855469v-36.445312zm0 0" fill="#fc9854"/><path d="m227.074219 55.917969v97.839843c0 61.886719-39.640625 112.066407-88.53125 112.066407s-88.527344-50.179688-88.527344-112.066407v-40.820312c0-31.492188 25.527344-57.019531 57.019531-57.019531zm0 0" fill="#ffb685"/><path d="m40.25 131.132812c-4.257812 0-7.710938-3.453124-7.710938-7.714843v-42.519531c0-29.324219 23.769532-53.09375 53.09375-53.09375h31.835938v26.109374c0 42.644532-34.570312 77.21875-77.21875 77.21875zm0 0" fill="#d88850"/><path d="m69.96875 67.03125c-1.324219 0-2.664062-.339844-3.886719-1.054688-3.6875-2.152343-4.933593-6.882812-2.78125-10.566406 9.058594-15.53125 26.695313-17.148437 27.441407-17.210937 4.25-.363281 7.984374 2.816406 8.332031 7.066406.351562 4.234375-2.785157 7.953125-7.011719 8.328125-.320312.035156-10.527344 1.21875-15.414062 9.601562-1.4375 2.460938-4.023438 3.835938-6.679688 3.835938zm0 0" fill="#bc6c35"/><path d="m98.273438 173.339844c-4.269532 0-7.726563-3.457032-7.726563-7.726563v-.917969c0-4.265624 3.457031-7.726562 7.726563-7.726562 4.265624 0 7.722656 3.460938 7.722656 7.726562v.917969c0 4.265625-3.457032 7.726563-7.722656 7.726563zm0 0" fill="#64b0e0"/><path d="m178.816406 173.339844c-4.265625 0-7.726562-3.457032-7.726562-7.726563v-.917969c0-4.265624 3.460937-7.726562 7.726562-7.726562s7.726563 3.460938 7.726563 7.726562v.917969c0 4.265625-3.460938 7.726563-7.726563 7.726563zm0 0" fill="#64b0e0"/><path d="m189.335938 111.839844h-77.894532c-12.9375 0-23.421875-10.484375-23.421875-23.421875v-6.261719c0-30.660156 24.851563-55.515625 55.511719-55.515625h99.816406c5.6875 0 10.300782 4.613281 10.300782 10.300781v10.585938c0 35.519531-28.792969 64.3125-64.3125 64.3125zm0 0" fill="#bc6c35"/><path d="m227.171875 10.300781v10.589844c0 35.511719-28.796875 64.316406-64.316406 64.316406h-45.152344c-8.714844 0-16.554687-3.761719-21.984375-9.734375-3.707031-4.089844-6.292969-9.210937-7.261719-14.878906-.300781-1.648438-.445312-3.347656-.445312-5.078125 0-15.328125 6.214843-29.207031 16.269531-39.257813 10.042969-10.046874 23.917969-16.257812 39.25-16.257812h73.335938c5.6875 0 10.304687 4.613281 10.304687 10.300781zm0 0" fill="#d88850"/><path d="m168.71875 233.6875c-1.976562 0-3.957031-.753906-5.464844-2.261719l-7.617187-7.617187c-3.015625-3.015625-3.015625-7.910156 0-10.925782 3.019531-3.019531 7.910156-3.019531 10.929687 0l7.617188 7.617188c3.015625 3.015625 3.015625 7.90625 0 10.925781-1.511719 1.507813-3.488282 2.261719-5.464844 2.261719zm0 0" fill="#f5f6e3"/><path d="m108.371094 233.6875c-1.976563 0-3.957032-.753906-5.464844-2.261719-3.015625-3.015625-3.015625-7.910156 0-10.925781l7.617188-7.617188c3.015624-3.019531 7.910156-3.019531 10.925781 0 3.019531 3.015626 3.019531 7.90625 0 10.925782l-7.613281 7.617187c-1.511719 1.507813-3.488282 2.261719-5.464844 2.261719zm0 0" fill="#f5f6e3"/><path d="m169.101562 199.0625c-4.152343-1.011719-8.328124 1.535156-9.335937 5.679688-1.457031 6.003906-6.703125 10.785156-13.496094 12.886718v-21.285156c0-4.269531-3.457031-7.726562-7.722656-7.726562-4.269531 0-7.726563 3.457031-7.726563 7.726562v21.285156c-6.792968-2.101562-12.039062-6.882812-13.496093-12.886718-1.011719-4.144532-5.1875-6.6875-9.335938-5.679688-4.144531 1.007812-6.6875 5.183594-5.679687 9.332031 3.640625 14.976563 18.882812 25.847657 36.238281 25.847657s32.59375-10.871094 36.238281-25.847657c1.003906-4.148437-1.539062-8.324219-5.683594-9.332031zm0 0" fill="#bc6c35"/><path d="m150.066406 194.566406h-20.765625c-5.601562 0-10.144531-4.539062-10.144531-10.144531 0-9.570313 7.757812-17.328125 17.328125-17.328125h6.398437c9.570313 0 17.328126 7.757812 17.328126 17.328125 0 5.605469-4.542969 10.144531-10.144532 10.144531zm0 0" fill="#6c6c65"/><path d="m108.492188 151.101562c-.714844 0-1.441407-.097656-2.164063-.3125l-20.089844-5.855468c-4.097656-1.195313-6.449219-5.484375-5.253906-9.578125 1.195313-4.097657 5.484375-6.453125 9.578125-5.257813l20.089844 5.859375c4.097656 1.191407 6.449218 5.480469 5.253906 9.578125-.980469 3.375-4.066406 5.566406-7.414062 5.566406zm0 0" fill="#bc6c35"/><path d="m170.902344 151.101562c-3.34375 0-6.429688-2.191406-7.414063-5.566406-1.191406-4.097656 1.160157-8.386718 5.257813-9.578125l20.089844-5.859375c4.09375-1.191406 8.382812 1.160156 9.578124 5.257813 1.195313 4.09375-1.15625 8.382812-5.253906 9.578125l-20.089844 5.855468c-.722656.210938-1.449218.3125-2.167968.3125zm0 0" fill="#bc6c35"/><path d="m83.257812 406.917969c-1.976562 0-3.953124-.753907-5.460937-2.261719-3.019531-3.019531-3.019531-7.910156 0-10.929688l19.914063-19.914062c3.015624-3.015625 7.90625-3.015625 10.925781 0s3.019531 7.910156 0 10.925781l-19.914063 19.917969c-1.507812 1.507812-3.488281 2.261719-5.464844 2.261719zm0 0" fill="#fc9854"/><path d="m97.390625 421.050781c-1.976563 0-3.953125-.753906-5.460937-2.261719-3.019532-3.015624-3.019532-7.910156 0-10.925781l5.78125-5.78125c3.015624-3.019531 7.90625-3.019531 10.925781 0 3.019531 3.015625 3.019531 7.90625 0 10.925781l-5.78125 5.78125c-1.507813 1.507813-3.488281 2.261719-5.464844 2.261719zm0 0" fill="#ffb685"/><path d="m198.402344 445.617188c-1.976563 0-3.957032-.753907-5.464844-2.261719l-7.105469-7.105469c-3.015625-3.019531-3.015625-7.910156 0-10.925781 3.019531-3.019531 7.910157-3.015625 10.929688 0l7.101562 7.105469c3.019531 3.015624 3.019531 7.90625 0 10.925781-1.507812 1.507812-3.484375 2.261719-5.460937 2.261719zm0 0" fill="#f47e2f"/><path d="m134.929688 52.929688c-13.414063 17.605468-30.597657 21.65625-39.210938 22.542968-3.707031-4.089844-6.292969-9.210937-7.261719-14.878906.84375-.265625 1.75-.390625 2.6875-.339844.84375.03125 18.390625.515625 31.492188-16.6875 2.578125-3.402344 7.429687-4.050781 10.828125-1.464844 3.390625 2.585938 4.050781 7.429688 1.464844 10.828126zm0 0" fill="#bc6c35"/></svg>