<svg height="512pt" viewBox="-1 0 512 512.00024" width="512pt" xmlns="http://www.w3.org/2000/svg"><path d="m190.171875 139.027344-160.617187 99.71875c-2.476563 1.539062-4.1875 4.054687-4.703126 6.925781l-24.667968 136.734375c-1.980469 10.976562 12.460937 16.832031 18.6875 7.578125l57.96875-86.167969 156.542968-95.082031zm0 0" fill="#ff8b00"/><path d="m215.371094 179.675781-158.714844 96.410157-50.957031 75.738281-5.515625 30.589843c-1.976563 10.972657 12.460937 16.832032 18.6875 7.578126l57.96875-86.171876 156.542968-95.089843zm0 0" fill="#fa0"/><path d="m360.796875 377.769531-19.261719 11.941407-164.832031-265.886719c-3.296875-5.316407-1.65625-12.304688 3.664063-15.601563 5.316406-3.296875 12.304687-1.660156 15.601562 3.660156zm0 0" fill="#d88850"/><path d="m490.785156 370.042969v131.65625c0 5.6875-4.609375 10.300781-10.300781 10.300781h-269.886719c-5.6875 0-10.300781-4.613281-10.300781-10.300781v-131.65625c0-52.230469 42.339844-94.570313 94.558594-94.570313h101.359375c52.230468-.003906 94.570312 42.339844 94.570312 94.570313zm0 0" fill="#fa0"/><path d="m490.785156 370.042969v97.414062c-3.890625-1.785156-7.269531-4.699219-9.683594-8.480469l-10.320312-16.203124-10.382812 12.113281c-4.328126 5.058593-10.621094 7.953125-17.277344 7.953125-6.675782 0-13-2.914063-17.328125-8.015625l-38.527344-45.296875-14.363281 30.226562c-3.75 7.890625-11.824219 12.980469-20.574219 12.980469-5.425781 0-10.691406-1.957031-14.820313-5.511719l-28.867187-24.859375-25.847656 28.042969c-4.296875 4.65625-10.394531 7.335938-16.730469 7.335938-4.097656 0-8.128906-1.113282-11.660156-3.226563l-20.367188-12.164063-25.753906 30.996094c-2.214844 2.660156-4.945312 4.742188-7.984375 6.140625v-109.445312c0-52.230469 42.339844-94.570313 94.558594-94.570313h101.359375c52.230468-.003906 94.570312 42.339844 94.570312 94.570313zm0 0" fill="#ff8b00"/><path d="m490.78125 405.199219v96.5c0 5.6875-4.613281 10.300781-10.304688 10.300781h-42.5v-106.800781zm0 0" fill="#ffb685"/><path d="m490.78125 405.199219v62.378906c-3.9375-1.808594-7.335938-4.734375-9.765625-8.546875l-10.238281-16.101562-10.304688 12.027343c-4.339844 5.070313-10.667968 7.976563-17.34375 7.976563-1.757812 0-3.480468-.195313-5.152344-.589844v-57.144531zm0 0" fill="#fc9854"/><path d="m253.101562 405.199219v106.800781h-42.5c-5.691406 0-10.304687-4.613281-10.304687-10.300781v-96.5zm0 0" fill="#ffb685"/><path d="m200.296875 405.199219h52.804687v48.660156l-19.046874-11.375-25.695313 30.921875c-2.234375 2.6875-4.988281 4.785156-8.0625 6.199219zm0 0" fill="#fc9854"/><path d="m510.679688 446.753906c0 10.390625-13.566407 14.34375-19.148438 5.578125l-11.75-18.453125c-3.746094-5.882812-12.113281-6.476562-16.648438-1.179687l-12.121093 14.148437c-4.15625 4.851563-11.664063 4.835938-15.800781-.027344l-40.507813-47.625c-4.878906-5.738281-14.054687-4.53125-17.292969 2.273438l-15.675781 32.976562c-2.941406 6.191407-10.964844 7.882813-16.160156 3.410157l-30.3125-26.105469c-4.242188-3.65625-10.621094-3.289062-14.414063.828125l-27.140625 29.449219c-3.332031 3.613281-8.742187 4.398437-12.964843 1.875l-21.820313-13.03125c-4.394531-2.625-10.042969-1.65625-13.3125 2.277344l-26.835937 32.292968c-6.214844 7.476563-18.375 3.082032-18.375-6.640625v-218.15625c0-1.699219.421874-3.371093 1.222656-4.867187l114.785156-213.703125c1.640625-3.058594 4.710938-5.078125 8.167969-5.382813l190.574219-16.6484372c9.085937-.7929688 14.636718 9.7539062 8.835937 16.7929692l-63.878906 77.503906 69.582031 140.4375c.632812 1.332031.972656 2.789062.992188 4.261718zm0 0" fill="#6c6c65"/><path d="m510.679688 446.757812c0 10.386719-13.566407 14.339844-19.152344 5.574219l-11.742188-18.449219c-1.691406-2.660156-4.328125-4.234374-7.128906-4.679687l.246094-190.160156c-.019532-1.484375-.351563-2.9375-.988282-4.265625l-69.578124-140.433594 63.871093-77.507812c3.800781-4.605469 2.730469-10.726563-1.011719-14.175782l29.949219-2.6171872c9.085938-.7929688 14.636719 9.7539062 8.839844 16.7929692l-63.882813 77.507812 69.589844 140.433594c.625 1.332031.964844 2.78125.988282 4.265625zm0 0" fill="#5a5a52"/><path d="m407.96875 162.136719c6.878906-2.917969 14.578125 2.230469 14.328125 9.695312-.433594 13.023438-8.253906 25.246094-21.039063 30.671875-12.789062 5.421875-27.011718 2.554688-36.679687-6.183594-5.542969-5.011718-3.890625-14.125 2.984375-17.042968zm0 0" fill="#af4d00"/><path d="m329.710938 166.21875c-.921876 0-1.859376-.164062-2.769532-.515625l-15.234375-5.851563c-3.980469-1.53125-5.972656-6-4.441406-9.984374 1.53125-3.980469 6.003906-5.96875 9.984375-4.441407l15.234375 5.851563c3.980469 1.53125 5.96875 6 4.441406 9.984375-1.183593 3.074219-4.109375 4.957031-7.214843 4.957031zm0 0" fill="#5a5a52"/><path d="m355.386719 166.21875c-3.105469 0-6.035157-1.882812-7.214844-4.957031-1.53125-3.984375.460937-8.453125 4.441406-9.984375l15.234375-5.851563c3.980469-1.53125 8.453125.457031 9.984375 4.441407 1.53125 3.984374-.457031 8.453124-4.441406 9.984374l-15.234375 5.851563c-.910156.351563-1.847656.515625-2.769531.515625zm0 0" fill="#5a5a52"/><path d="m279.460938 162.136719c-6.878907-2.917969-14.578126 2.230469-14.328126 9.695312.433594 13.023438 8.253907 25.246094 21.039063 30.671875 12.785156 5.421875 27.011719 2.554688 36.679687-6.183594 5.539063-5.011718 3.890626-14.125-2.984374-17.042968zm0 0" fill="#af4d00"/><g fill="#5a5a52"><path d="m228.316406 319.699219c-1.976562 0-3.957031-.753907-5.464844-2.261719-3.015624-3.015625-3.019531-7.910156 0-10.925781l8.761719-8.761719c3.015625-3.019531 7.910157-3.019531 10.925781 0 3.019532 3.015625 3.019532 7.910156 0 10.925781l-8.761718 8.761719c-1.507813 1.507812-3.484375 2.261719-5.460938 2.261719zm0 0"/><path d="m243.035156 334.417969c-1.976562 0-3.957031-.753907-5.464844-2.261719-3.015624-3.015625-3.015624-7.910156 0-10.925781l34.949219-34.949219c3.015625-3.019531 7.910157-3.019531 10.925781 0 3.019532 3.015625 3.019532 7.90625 0 10.925781l-34.945312 34.949219c-1.511719 1.507812-3.488281 2.261719-5.464844 2.261719zm0 0"/><path d="m409.609375 370.609375c-1.976563 0-3.957031-.757813-5.464844-2.265625l-10.558593-10.558594c-3.015626-3.015625-3.015626-7.90625 0-10.925781 3.019531-3.015625 7.910156-3.015625 10.929687 0l10.558594 10.558594c3.015625 3.015625 3.015625 7.910156 0 10.925781-1.511719 1.507812-3.488281 2.265625-5.464844 2.265625zm0 0"/></g></svg>