<svg height="512pt" viewBox="-119 0 512 512" width="512pt" xmlns="http://www.w3.org/2000/svg"><path d="m274.894531 377.652344v124.046875c0 5.6875-4.617187 10.300781-10.300781 10.300781h-254.292969c-5.6875 0-10.300781-4.613281-10.300781-10.300781v-124.046875c0-49.417969 40.0625-89.480469 89.492188-89.480469h95.910156c49.425781 0 89.492187 40.0625 89.492187 89.480469zm0 0" fill="#5c73bc"/><path d="m100.53125 295.917969h73.832031v216.082031h-73.832031zm0 0" fill="#f5f6e3"/><path d="m72.894531 478.886719 99.078125-99.078125 25.386719 25.386718-99.078125 99.078126zm0 0" fill="#828278"/><path d="m274.890625 377.652344v124.042968c0 5.691407-4.613281 10.304688-10.300781 10.304688h-39.667969v-134.339844c0-49.425781-40.0625-89.488281-89.488281-89.488281h49.976562c49.417969 0 89.480469 40.0625 89.480469 89.480469zm0 0" fill="#4159a5"/><path d="m57.699219 371.617188v140.382812h-15.453125v-140.382812c0-4.273438 3.464844-7.726563 7.726562-7.726563 4.265625 0 7.726563 3.453125 7.726563 7.726563zm0 0" fill="#4159a5"/><path d="m182.03125 303.46875v-15.296875h-23.089844v-47.601563h-42.988281v47.601563h-23.089844v15.296875l44.582031 39.3125zm0 0" fill="#bc6c35"/><path d="m158.941406 240.570312v36.160157c-6.96875 1.867187-14.164062 2.832031-21.496094 2.832031-7.332031 0-14.523437-.964844-21.492187-2.832031v-36.160157zm0 0" fill="#af4d00"/><path d="m266.898438 170.300781c0 15.761719-12.777344 28.539063-28.539063 28.539063s-28.539063-12.777344-28.539063-28.539063 12.777344-28.535156 28.539063-28.535156 28.539063 12.773437 28.539063 28.535156zm0 0" fill="#bc6c35"/><path d="m65.070312 170.300781c0 15.761719-12.773437 28.539063-28.535156 28.539063-15.761718 0-28.539062-12.777344-28.539062-28.539063s12.777344-28.535156 28.539062-28.535156c15.761719 0 28.535156 12.773437 28.535156 28.535156zm0 0" fill="#bc6c35"/><path d="m49.617188 116.066406v40.523438c0 61.398437 39.324218 111.179687 87.828124 111.179687 48.503907 0 87.832032-49.777343 87.832032-111.179687v-40.523438zm0 0" fill="#d88850"/><path d="m58.546875 215.089844c-1.976563 0-3.953125-.753906-5.460937-2.261719-3.019532-3.015625-3.019532-7.910156 0-10.925781l81.902343-81.90625c3.019531-3.015625 7.910157-3.015625 10.925781 0 3.019532 3.015625 3.019532 7.910156 0 10.925781l-81.902343 81.90625c-1.507813 1.507813-3.488281 2.261719-5.464844 2.261719zm0 0" fill="#5a5a52"/><path d="m137.445312 226.355469c-13.054687 0-24.34375-11.046875-26.839843-26.265625-.691407-4.210938 2.164062-8.183594 6.375-8.875 4.207031-.683594 8.183593 2.164062 8.875 6.375 1.242187 7.589844 6.226562 13.3125 11.59375 13.3125 5.363281 0 10.347656-5.722656 11.589843-13.3125.691407-4.210938 4.660157-7.070313 8.875-6.375 4.210938.691406 7.066407 4.664062 6.375 8.875-2.496093 15.21875-13.785156 26.265625-26.84375 26.265625zm0 0" fill="#af4d00"/><path d="m177.398438 176.082031c-4.265626 0-7.722657-3.460937-7.722657-7.726562v-.914063c0-4.265625 3.457031-7.722656 7.722657-7.722656 4.269531 0 7.726562 3.457031 7.726562 7.722656v.914063c0 4.265625-3.457031 7.726562-7.726562 7.726562zm0 0" fill="#006df0"/><path d="m112.742188 115.15625 111.773437 45.601562c6.609375 2.695313 13.84375-2.167968 13.84375-9.304687v-36.296875zm0 0" fill="#f82700"/><path d="m232.691406 65.46875c0-36.15625-29.308594-65.46875-65.464844-65.46875h-56.832031c-36.15625 0-65.464843 29.3125-65.464843 65.46875 0 14.757812-11.964844 26.722656-26.722657 26.722656h-5.308593c-5.429688 0-9.832032 4.398438-9.832032 9.828125v7.207031c0 5.429688 4.402344 9.828126 9.832032 9.828126h249.097656c5.429687 0 9.828125-4.398438 9.828125-9.828126v-7.207031c0-5.429687-4.398438-9.828125-9.828125-9.828125h-2.582032c-14.757812 0-26.722656-11.964844-26.722656-26.722656zm0 0" fill="#6c6c65"/><path d="m120.710938 189.859375h-34.28125c-6.023438 0-10.902344-4.878906-10.902344-10.902344v-23.027343c0-6.023438 4.878906-10.90625 10.902344-10.90625h34.28125c6.019531 0 10.902343 4.882812 10.902343 10.90625v23.027343c0 6.023438-4.882812 10.902344-10.902343 10.902344zm0 0" fill="#6c6c65"/><path d="m109.140625 95.328125c-1.980469 0-3.957031-.753906-5.464844-2.265625-3.019531-3.015625-3.019531-7.90625 0-10.925781l56.613281-56.613281c3.019532-3.019532 7.910157-3.019532 10.929688 0 3.015625 3.015624 3.015625 7.90625 0 10.925781l-56.617188 56.613281c-1.507812 1.511719-3.484374 2.265625-5.460937 2.265625zm0 0" fill="#cecdba"/><path d="m165.753906 95.328125c-1.976562 0-3.953125-.757813-5.464844-2.265625l-56.613281-56.613281c-3.019531-3.015625-3.019531-7.910157 0-10.925781 3.015625-3.019532 7.910157-3.019532 10.925781 0l56.617188 56.613281c3.015625 3.015625 3.015625 7.910156 0 10.925781-1.507812 1.511719-3.488281 2.265625-5.464844 2.265625zm0 0" fill="#cecdba"/><path d="m160.054688 53.59375c0-12.964844-10.914063-23.378906-24.050782-22.5625-11.488281.714844-20.738281 10.234375-21.148437 21.738281-.320313 8.992188 4.617187 16.859375 11.976562 20.78125v7.753907c0 2.441406 1.980469 4.425781 4.425781 4.425781h12.378907c2.445312 0 4.425781-1.984375 4.425781-4.425781v-7.753907c7.132812-3.800781 11.992188-11.3125 11.992188-19.957031zm0 0" fill="#f5f6e3"/><g fill="#f82700"><path d="m158.941406 282.273438v229.726562h28.632813l46.148437-105.953125c1.785156-4.101563.722656-8.882813-2.632812-11.839844l-42.203125-37.21875 43.683593-58.230469c5.09375-6.792968.246094-16.484374-8.242187-16.484374zm0 0"/><path d="m115.953125 282.273438v229.726562h-28.632813l-46.148437-105.953125c-1.785156-4.101563-.722656-8.882813 2.632813-11.839844l42.203124-37.21875-43.683593-58.230469c-5.09375-6.792968-.25-16.484374 8.242187-16.484374zm0 0"/></g></svg>