<svg height="512pt" viewBox="-92 0 512 512.00002" width="512pt" xmlns="http://www.w3.org/2000/svg"><path d="m6.03125 263.578125c5.664062-5.664063 13.808594-7.320313 20.941406-5-2.320312-7.128906-.667968-15.273437 5-20.941406 8.039063-8.039063 21.074219-8.039063 29.117188 0 8.039062 8.042969 8.039062 21.078125 0 29.117187-1.21875 1.21875-2.558594 2.226563-3.96875 3.074219l45.257812 45.261719-18.894531 18.898437-45.261719-45.261719c-.847656 1.410157-1.859375 2.753907-3.074218 3.96875-8.039063 8.039063-21.078126 8.039063-29.117188 0-8.042969-8.039062-8.042969-21.074218 0-29.117187zm0 0" fill="#f5f6e3"/><path d="m313.410156 31.972656c-5.667968-5.667968-13.808594-7.320312-20.941406-5 2.320312-7.132812.667969-15.277344-5-20.941406-8.039062-8.042969-21.074219-8.042969-29.117188 0-8.039062 8.039062-8.039062 21.074219 0 29.117188 1.21875 1.214843 2.558594 2.226562 3.96875 3.074218l-45.257812 45.257813 18.894531 18.898437 45.261719-45.261718c.847656 1.414062 1.855469 2.753906 3.074219 3.972656 8.039062 8.039062 21.074219 8.039062 29.117187 0 8.039063-8.042969 8.042969-21.078125 0-29.117188zm0 0" fill="#f5f6e3"/><path d="m327.722656 372.800781v128.898438c0 5.6875-4.605468 10.300781-10.300781 10.300781h-264.210937c-5.695313 0-10.300782-4.613281-10.300782-10.300781v-128.898438c0-51.199219 41.503906-92.714843 92.714844-92.714843h99.382812c51.210938 0 92.714844 41.515624 92.714844 92.714843zm0 0" fill="#bc6c35"/><path d="m236.261719 386.863281c-1.917969 0-3.839844-.730469-5.304688-2.199219l-16.058593-16.054687c-2.925782-2.929687-2.925782-7.679687 0-10.605469 2.929687-2.933594 7.679687-2.929687 10.609374 0l16.058594 16.054688c2.925782 2.929687 2.925782 7.679687-.003906 10.605468-1.460938 1.464844-3.382812 2.199219-5.300781 2.199219zm0 0" fill="#b1de54"/><path d="m225.066406 406.53125c-1.917968 0-3.839844-.730469-5.300781-2.195312l-13.03125-13.03125c-2.929687-2.929688-2.929687-7.679688-.003906-10.609376 2.929687-2.925781 7.679687-2.929687 10.605469 0l13.03125 13.03125c2.933593 2.929688 2.933593 7.679688.003906 10.609376-1.464844 1.460937-3.386719 2.195312-5.304688 2.195312zm0 0" fill="#b1de54"/><path d="m94.675781 366.539062v145.460938h-15.453125v-145.460938c0-4.265624 3.460938-7.726562 7.726563-7.726562 4.277343 0 7.726562 3.460938 7.726562 7.726562zm0 0" fill="#af4d00"/><path d="m327.722656 372.800781v128.898438c0 5.6875-4.609375 10.300781-10.300781 10.300781h-41.472656v-139.191406c0-51.210938-41.507813-92.71875-92.722657-92.71875h51.785157c51.203125 0 92.710937 41.507812 92.710937 92.710937zm0 0" fill="#af4d00"/><path d="m327.722656 407.28125v94.417969c0 5.6875-4.605468 10.300781-10.300781 10.300781h-41.476563v-104.71875zm0 0" fill="#92c927"/><path d="m275.949219 407.277344h51.777343v12.449218h-51.777343zm0 0" fill="#7aa50f"/><path d="m94.675781 407.28125v104.71875h-41.464843c-5.695313 0-10.300782-4.613281-10.300782-10.300781v-94.417969zm0 0" fill="#b1de54"/><path d="m79.222656 407.28125h15.453125v104.71875h-15.453125zm0 0" fill="#92c927"/><path d="m42.90625 407.277344h51.773438v12.449218h-51.773438zm0 0" fill="#92c927"/><path d="m275.945312 407.28125h15.453126v104.71875h-15.453126zm0 0" fill="#7aa50f"/><path d="m231.507812 280.089844v16.210937c0 21.273438-17.25 38.523438-38.523437 38.523438h-15.339844c-21.273437 0-38.523437-17.25-38.523437-38.523438v-16.210937h23.921875v-49.320313h44.542969v49.320313zm0 0" fill="#b1de54"/><path d="m207.585938 230.769531v37.464844c-7.21875 1.933594-14.675782 2.933594-22.269532 2.933594-7.597656 0-15.050781-1-22.273437-2.933594v-37.464844zm0 0" fill="#92c927"/><path d="m260.304688 117.894531v-15.484375c0-26.300781-21.320313-47.621094-47.617188-47.621094h-19.734375v63.105469zm0 0" fill="#ffa9ba"/><path d="m216.375 102.707031c-4.265625 0-7.726562-3.460937-7.726562-7.726562v-4.726563c0-10.359375 8.429687-18.785156 18.789062-18.785156 4.265625 0 7.722656 3.460938 7.722656 7.726562 0 4.265626-3.457031 7.726563-7.722656 7.726563-1.839844 0-3.335938 1.492187-3.335938 3.332031v4.726563c0 4.265625-3.457031 7.726562-7.726562 7.726562zm0 0" fill="#ff8294"/><path d="m237.996094 110.105469c-4.269532 0-7.726563-3.457031-7.726563-7.726563v-7.398437c0-4.265625 3.460938-7.726563 7.726563-7.726563 4.269531 0 7.726562 3.460938 7.726562 7.726563v7.398437c0 4.265625-3.460937 7.726563-7.726562 7.726563zm0 0" fill="#ff8294"/><path d="m319.441406 157.960938c0 16.332031-13.238281 29.570312-29.570312 29.570312-16.328125 0-29.566406-13.238281-29.566406-29.570312 0-16.328126 13.238281-29.566407 29.566406-29.566407 16.332031 0 29.570312 13.238281 29.570312 29.566407zm0 0" fill="#b1de54"/><path d="m110.328125 157.960938c0 16.332031-13.238281 29.570312-29.570313 29.570312-16.332031 0-29.570312-13.238281-29.570312-29.570312 0-16.328126 13.238281-29.566407 29.570312-29.566407 16.332032 0 29.570313 13.238281 29.570313 29.566407zm0 0" fill="#b1de54"/><path d="m276.316406 134.1875v9.570312c0 63.617188-40.746094 115.1875-91 115.1875-50.257812 0-91.003906-51.570312-91.003906-115.1875v-8.417968c0-50.183594 41.054688-92.277344 91.234375-92.152344 4.371094.007812 8.671875.324219 12.875.945312-.597656 3.105469-.921875 6.304688-.957031 9.578126-.28125 28.472656 22.015625 52.589843 50.429687 54.402343 4.941407.316407 9.753907-.03125 14.351563-.96875 5.515625-1.125 10.890625 2.457031 12.0625 7.960938 1.316406 6.152343 2.007812 12.539062 2.007812 19.082031zm0 0" fill="#d3ed91"/><path d="m206.296875 205.808594c3.824219 0 6.585937-3.765625 5.316406-7.371094-4.480469-12.75-14.5625-21.640625-26.296875-21.640625s-21.816406 8.890625-26.296875 21.640625c-1.269531 3.605469 1.492188 7.371094 5.3125 7.371094zm0 0" fill="#ff4e61"/><path d="m143.917969 163.671875c-4.265625 0-7.726563-3.460937-7.726563-7.726563v-.945312c0-4.265625 3.460938-7.726562 7.726563-7.726562 4.269531 0 7.726562 3.460937 7.726562 7.726562v.945312c0 4.265626-3.457031 7.726563-7.726562 7.726563zm0 0" fill="#f5f6e3"/><path d="m202.09375 237.105469c-4.269531 0-7.726562-3.457031-7.726562-7.726563v-25.628906c0-4.269531 3.460937-7.726562 7.726562-7.726562s7.726562 3.457031 7.726562 7.726562v25.628906c0 4.269532-3.457031 7.726563-7.726562 7.726563zm0 0" fill="#ffa9ba"/><path d="m184.273438 224.289062c-4.269532 0-7.726563-3.457031-7.726563-7.722656v-12.816406c0-4.265625 3.460937-7.726562 7.726563-7.726562 4.265624 0 7.726562 3.460937 7.726562 7.726562v12.816406c0 4.265625-3.460938 7.722656-7.726562 7.722656zm0 0" fill="#ffa9ba"/><path d="m208.046875 47.605469c-1.976563 18.429687-28.214844 39.773437-44.957031 51.640625-8.375 5.9375-18.882813 9.171875-29.730469 9.171875h-50.519531c-6.324219 0-11.144532-5.644531-10.1875-11.898438 12.246094-79.625 82.679687-96.652343 116.914062-79.46875 6.367188 3.191407 11.476563 7.570313 14.71875 12.949219 3.0625 5.035156 4.472656 10.960938 3.761719 17.605469zm0 0" fill="#ffd02f"/><path d="m204.285156 30c-.039062.007812-.082031.019531-.121094.019531-.464843.050781-31.792968 3.925781-51.878906 20.933594-1.453125 1.226563-3.226562 1.832031-4.988281 1.832031-2.191406 0-4.378906-.933594-5.902344-2.738281-2.761719-3.253906-2.347656-8.128906.90625-10.890625 15.082031-12.761719 34.613281-19.117188 47.265625-22.105469 6.367188 3.191407 11.476563 7.570313 14.71875 12.949219zm0 0" fill="#fa0"/><path d="m237.554688 155.472656 2.4375-2.4375c3.019531-3.019531 3.019531-7.910156 0-10.929687-3.015626-3.015625-7.910157-3.015625-10.925782 0l-2.4375 2.4375-2.4375-2.4375c-3.015625-3.015625-7.910156-3.015625-10.925781 0-3.019531 3.019531-3.019531 7.910156-.003906 10.929687l2.4375 2.4375-2.4375 2.4375c-3.015625 3.019532-3.015625 7.910156.003906 10.925782 1.507813 1.511718 3.484375 2.265624 5.460937 2.265624 1.976563 0 3.957032-.757812 5.464844-2.265624l2.4375-2.4375 2.4375 2.4375c1.507813 1.511718 3.484375 2.265624 5.460938 2.265624 1.980468 0 3.957031-.757812 5.464844-2.265624 3.019531-3.015626 3.019531-7.90625 0-10.925782zm0 0" fill="#f5f6e3"/></svg>