<svg height="512pt" viewBox="-81 0 512 512.00002" width="512pt" xmlns="http://www.w3.org/2000/svg"><path d="m0 77.117188c0-8.320313 4.761719-15.511719 11.699219-19.039063-6.9375-3.53125-11.699219-10.722656-11.699219-19.042969 0-11.800781 9.566406-21.371094 21.371094-21.371094 11.804687 0 21.371094 9.570313 21.371094 21.371094 0 1.785156-.242188 3.511719-.65625 5.171875h66.4375v27.738281h-66.4375c.414062 1.660157.65625 3.382813.65625 5.171876 0 11.800781-9.566407 21.371093-21.371094 21.371093-11.804688 0-21.371094-9.570312-21.371094-21.371093zm0 0" fill="#f5f6e3"/><path d="m350.738281 296.167969c0 27.515625-22.300781 49.820312-49.816406 49.820312h-214.734375c-13.75 0-26.214844-5.574219-35.230469-14.589843-9.015625-9.011719-14.597656-21.476563-14.597656-35.230469 0-9.445313 2.636719-18.285157 7.199219-25.804688 21.046875-34.667969 33.214844-73.96875 33.214844-114.515625v-36.222656c0-32.242188 13.074218-61.4375 34.203124-82.578125 21.128907-21.128906 50.324219-34.203125 82.578126-34.203125 16.5625 0 32.316406 3.453125 46.585937 9.664062 41.308594 17.988282 70.195313 59.175782 70.195313 107.117188v36.222656c0 40.546875 12.167968 79.847656 33.210937 114.515625 2.277344 3.757813 4.082031 7.847657 5.304687 12.175781 1.226563 4.335938 1.886719 8.898438 1.886719 13.628907zm0 0" fill="#ffd02f"/><path d="m240.140625 12.507812v1.769532c0 65.789062-53.519531 119.304687-119.316406 119.304687h-36.734375c-2.558594 0-5.019532-.421875-7.316406-1.195312v-12.761719c0-32.246094 13.074218-61.441406 34.203124-82.578125 21.128907-21.132813 50.324219-34.203125 82.578126-34.203125 16.566406 0 32.316406 3.449219 46.585937 9.664062zm0 0" fill="#fa0"/><path d="m350.742188 296.167969c0 27.515625-22.304688 49.820312-49.828126 49.820312h-214.71875c-13.761718 0-26.222656-5.570312-35.234374-14.597656-9.015626-9.011719-14.597657-21.46875-14.597657-35.222656 0-9.453125 2.628907-18.285157 7.199219-25.8125.960938-1.59375 1.914062-3.195313 2.832031-4.8125 1.402344 1.863281 2.929688 3.613281 4.566407 5.25 9.015624 9.015625 21.472656 14.597656 35.234374 14.597656h214.71875c16.265626 0 30.710938-7.785156 39.800782-19.847656.917968 1.613281 1.871094 3.21875 2.835937 4.8125 2.277344 3.761719 4.082031 7.847656 5.3125 12.191406 1.21875 4.316406 1.878907 8.894531 1.878907 13.621094zm0 0" fill="#fa0"/><path d="m341.375 367.515625v134.484375c0 5.523438-4.476562 10-10 10h-275.640625c-5.523437 0-10-4.476562-10-10v-134.484375c0-53.15625 43.09375-96.238281 96.238281-96.238281h103.164063c53.144531 0 96.238281 43.082031 96.238281 96.238281zm0 0" fill="#ff4e61"/><path d="m99.480469 361.015625v150.984375h-15.453125v-150.984375c0-4.261719 3.460937-7.726563 7.726562-7.726563 4.261719 0 7.726563 3.464844 7.726563 7.726563zm0 0" fill="#d80000"/><path d="m341.371094 367.523438v134.476562c0 5.523438-4.476563 10-10 10h-43.738282v-144.476562c0-53.160157-43.085937-96.246094-96.246093-96.246094h53.75c53.148437 0 96.234375 43.085937 96.234375 96.246094zm0 0" fill="#d80000"/><path d="m331.375 512h-43.742188v-108.699219h53.742188v98.699219c0 5.523438-4.476562 10-10 10zm0 0" fill="#92c927"/><path d="m287.632812 403.300781h53.742188v12.917969h-53.742188zm0 0" fill="#7aa50f"/><path d="m99.476562 512h-43.746093c-5.519531 0-10-4.476562-10-10v-98.699219h53.746093zm0 0" fill="#b1de54"/><path d="m84.027344 403.296875h15.453125v108.703125h-15.453125zm0 0" fill="#92c927"/><path d="m45.730469 403.300781h53.746093v12.917969h-53.746093zm0 0" fill="#92c927"/><path d="m241.503906 271.277344v16.828125c0 22.082031-17.90625 39.988281-39.988281 39.988281h-15.921875c-22.082031 0-39.988281-17.90625-39.988281-39.988281v-16.828125h24.832031v-51.191406h46.234375v51.191406zm0 0" fill="#b1de54"/><path d="m216.671875 220.082031v38.890625c-7.496094 2.007813-15.230469 3.042969-23.117187 3.042969-7.886719 0-15.625-1.035156-23.117188-3.042969v-38.890625zm0 0" fill="#92c927"/><path d="m271.394531 86.84375v16.070312h-69.917969v-65.5h20.492188c10.679688 0 20.570312 3.390626 28.660156 9.148438 4.5 3.214844 8.445313 7.160156 11.660156 11.683594 5.738282 8.066406 9.105469 17.9375 9.105469 28.597656zm0 0" fill="#006df0"/><path d="m332.777344 144.511719c0 16.949219-13.742188 30.691406-30.691406 30.691406-16.953126 0-30.695313-13.742187-30.695313-30.691406 0-16.953125 13.742187-30.691407 30.695313-30.691407 16.949218 0 30.691406 13.738282 30.691406 30.691407zm0 0" fill="#b1de54"/><path d="m115.714844 144.511719c0 16.949219-13.738282 30.691406-30.691406 30.691406-16.949219 0-30.691407-13.742187-30.691407-30.691406 0-16.953125 13.742188-30.691407 30.691407-30.691407 16.953124 0 30.691406 13.738282 30.691406 30.691407zm0 0" fill="#b1de54"/><path d="m288.011719 119.832031v9.9375c0 66.03125-42.292969 119.5625-94.457031 119.5625-52.167969 0-94.460938-53.527343-94.460938-119.5625v-8.742187c0-52.085938 42.613281-95.78125 94.699219-95.65625.824219.003906 1.648437.015625 2.46875.039062 5.625.15625 10.015625 4.78125 9.910156 10.40625 0 .160156-.003906.320313-.007813.480469-.289062 29.554687 22.851563 54.585937 52.347657 56.472656 5.308593.335938 10.472656-.0625 15.398437-1.117187 5.433594-1.160156 10.722656 2.445312 11.910156 7.871094 1.4375 6.542968 2.191407 13.339843 2.191407 20.308593zm0 0" fill="#d3ed91"/><path d="m216.253906 194.175781c3.515625 0 5.988282-3.441406 4.894532-6.78125-4.496094-13.699219-15.148438-23.332031-27.59375-23.332031-12.445313 0-23.101563 9.632812-27.59375 23.332031-1.097657 3.339844 1.378906 6.78125 4.894531 6.78125zm0 0" fill="#ff4e61"/><path d="m213.109375 228.507812c-4.269531 0-7.726563-3.457031-7.726563-7.726562v-26.605469c0-4.265625 3.460938-7.726562 7.726563-7.726562s7.726563 3.460937 7.726563 7.726562v26.605469c0 4.265625-3.457032 7.726562-7.726563 7.726562zm0 0" fill="#ffa9ba"/><path d="m194.609375 215.203125c-4.265625 0-7.726563-3.457031-7.726563-7.722656v-13.304688c0-4.265625 3.460938-7.726562 7.726563-7.726562 4.269531 0 7.726563 3.460937 7.726563 7.726562v13.304688c0 4.265625-3.457032 7.722656-7.726563 7.722656zm0 0" fill="#ffa9ba"/><path d="m247.363281 141.925781 2.738281-2.738281c3.015626-3.015625 3.015626-7.90625 0-10.925781-3.015624-3.015625-7.90625-3.019531-10.925781 0l-2.738281 2.738281-2.738281-2.738281c-3.019531-3.015625-7.910157-3.015625-10.929688 0-3.015625 3.019531-3.015625 7.910156 0 10.929687l2.738281 2.738282-2.738281 2.734374c-3.015625 3.019532-3.015625 7.910157 0 10.929688 1.511719 1.507812 3.488281 2.261719 5.464844 2.261719s3.957031-.753907 5.464844-2.261719l2.738281-2.738281 2.734375 2.738281c1.511719 1.507812 3.488281 2.261719 5.464844 2.261719 1.976562 0 3.957031-.753907 5.464843-2.261719 3.015626-3.019531 3.015626-7.910156 0-10.929688zm0 0" fill="#f5f6e3"/><path d="m158.0625 149.652344h-12.894531c-4.269531 0-7.726563-3.457032-7.726563-7.726563 0-4.265625 3.460938-7.726562 7.726563-7.726562h12.894531c4.265625 0 7.726562 3.460937 7.726562 7.726562 0 4.269531-3.460937 7.726563-7.726562 7.726563zm0 0" fill="#f5f6e3"/><path d="m227.777344 10.691406v3.582032c0 59.070312-47.882813 106.953124-106.949219 106.953124h-36.742187c-5.90625 0-10.695313-4.789062-10.695313-10.695312v-34.269531c0-42.117188 34.144531-76.261719 76.265625-76.261719h67.429688c5.90625 0 10.691406 4.789062 10.691406 10.691406zm0 0" fill="#ffd02f"/><g fill="#b1de54"><path d="m130.140625 443.816406c-1.976563 0-3.957031-.753906-5.464844-2.261718-3.015625-3.019532-3.015625-7.910157 0-10.925782l14.421875-14.425781c3.019532-3.015625 7.910156-3.015625 10.929688 0 3.015625 3.019531 3.015625 7.910156 0 10.929687l-14.421875 14.421876c-1.511719 1.507812-3.488281 2.261718-5.464844 2.261718zm0 0"/><path d="m150.585938 452.242188c-1.976563 0-3.957032-.753907-5.464844-2.261719-3.015625-3.019531-3.015625-7.910157 0-10.929688l14.421875-14.421875c3.019531-3.015625 7.910156-3.019531 10.929687 0 3.015625 3.015625 3.015625 7.910156 0 10.925782l-14.421875 14.425781c-1.511719 1.507812-3.488281 2.261719-5.464843 2.261719zm0 0"/><path d="m241.023438 353.71875c-1.976563 0-3.953126-.753906-5.460938-2.265625-3.019531-3.015625-3.019531-7.90625 0-10.925781l14.421875-14.421875c3.019531-3.015625 7.910156-3.019531 10.925781 0 3.019532 3.015625 3.019532 7.910156 0 10.925781l-14.421875 14.421875c-1.507812 1.511719-3.484375 2.265625-5.464843 2.265625zm0 0"/></g><path d="m228.234375 114.988281c-4.265625 0-7.726563-3.460937-7.726563-7.726562v-30.464844c0-4.269531 3.460938-7.726563 7.726563-7.726563 4.269531 0 7.726563 3.457032 7.726563 7.726563v30.464844c0 4.265625-3.457032 7.726562-7.726563 7.726562zm0 0" fill="#159bff"/><path d="m262.289062 58.246094-12.257812 5.417968c-1 .433594-2.042969.628907-3.070312.628907-2.988282 0-5.832032-1.742188-7.089844-4.65625-1.699219-3.914063.105468-8.46875 4.019531-10.15625l6.738281-2.917969c4.5 3.214844 8.445313 7.160156 11.660156 11.683594zm0 0" fill="#b0e8ff"/><path d="m247.554688 107.683594c-4.269532 0-7.726563-3.457032-7.726563-7.726563v-9.519531c0-4.265625 3.457031-7.726562 7.726563-7.726562 4.265624 0 7.726562 3.460937 7.726562 7.726562v9.519531c0 4.269531-3.460938 7.726563-7.726562 7.726563zm0 0" fill="#159bff"/></svg>