<?xml version="1.0" encoding="iso-8859-1"?>
<!-- Generator: Adobe Illustrator 19.0.0, SVG Export Plug-In . SVG Version: 6.00 Build 0)  -->
<svg version="1.1" id="Capa_1" xmlns="http://www.w3.org/2000/svg" xmlns:xlink="http://www.w3.org/1999/xlink" x="0px" y="0px"
	 viewBox="0 0 511.754 511.754" style="enable-background:new 0 0 511.754 511.754;" xml:space="preserve">
<path style="fill:#656D78;" d="M483.565,375.835h-31.984c8.832,0,15.992-7.161,15.992-15.992c0-8.832-7.16-15.992-15.992-15.992
	h-31.984c8.831,0,15.992-7.161,15.992-15.993c0-8.831-7.161-15.992-15.992-15.992h-47.978c8.832,0,15.993-7.16,15.993-15.992
	c0-8.831-7.161-15.992-15.993-15.992h87.958c8.832,0,15.992-7.16,15.992-15.992c0-8.832-7.16-15.992-15.992-15.992h-39.98
	c8.831,0,15.992-7.161,15.992-15.992c0-8.832-7.161-15.992-15.992-15.992h-15.992c8.831,0,15.992-7.161,15.992-15.993
	s-7.161-15.992-15.992-15.992h79.961c8.832,0,15.992-7.161,15.992-15.993c0-8.831-7.16-15.992-15.992-15.992h-31.984
	c8.832,0,15.992-7.16,15.992-15.992s-7.16-15.992-15.992-15.992h-31.984c8.831,0,15.992-7.161,15.992-15.992
	c0-8.832-7.161-15.992-15.992-15.992h-23.991c8.831,0,15.992-7.161,15.992-15.993s-7.161-15.992-15.992-15.992H155.722
	c-8.832,0-15.992,7.161-15.992,15.992s7.161,15.993,15.992,15.993H99.749c-8.832,0-15.992,7.16-15.992,15.992
	s7.161,15.992,15.992,15.992H83.757c-8.832,0-15.992,7.161-15.992,15.992c0,8.832,7.16,15.992,15.992,15.992h47.977
	c-8.832,0-15.993,7.161-15.993,15.992c0,8.832,7.161,15.993,15.993,15.993H43.776c-8.832,0-15.993,7.161-15.993,15.992
	s7.161,15.993,15.993,15.993h39.98c-8.832,0-15.992,7.16-15.992,15.992s7.16,15.992,15.992,15.992h-39.98
	c-8.832,0-15.993,7.161-15.993,15.992c0,8.832,7.161,15.992,15.993,15.992H27.784c-8.832,0-15.992,7.161-15.992,15.992
	c0,8.832,7.161,15.992,15.992,15.992h39.981c-8.832,0-15.992,7.161-15.992,15.992c0,8.832,7.16,15.993,15.992,15.993H51.773
	c-8.832,0-15.993,7.16-15.993,15.992c0,8.831,7.161,15.992,15.993,15.992h79.961c-8.832,0-15.993,7.161-15.993,15.992
	c0,8.832,7.161,15.992,15.993,15.992H99.749c-8.832,0-15.992,7.161-15.992,15.993c0,8.831,7.161,15.992,15.992,15.992h271.869
	c8.832,0,15.993-7.161,15.993-15.992c0-8.832-7.161-15.993-15.993-15.993h111.946c8.832,0,15.992-7.16,15.992-15.992
	C499.557,382.996,492.397,375.835,483.565,375.835z"/>
<circle style="fill:#5D9CEC;" cx="427.587" cy="75.947" r="31.984"/>
<g style="opacity:0.3;">
	<path style="fill:#FFFFFF;" d="M403.604,75.948c0-16.293,12.229-29.595,27.986-31.583c-1.328-0.168-2.632-0.402-3.998-0.402
		c-17.664,0-31.984,14.321-31.984,31.985s14.32,31.985,31.984,31.985c1.366,0,2.67-0.234,3.998-0.402
		C415.832,105.543,403.604,92.241,403.604,75.948z"/>
</g>
<g style="opacity:0.2;">
	<path d="M451.58,75.948c0-16.293-12.229-29.595-27.986-31.583c1.327-0.168,2.631-0.402,3.998-0.402
		c17.663,0,31.984,14.321,31.984,31.985s-14.321,31.985-31.984,31.985c-1.367,0-2.671-0.234-3.998-0.402
		C439.352,105.543,451.58,92.241,451.58,75.948z"/>
</g>
<path style="fill:#AC92EC;" d="M387.596,443.787c0,4.419-3.585,7.996-7.996,7.996c-4.412,0-7.997-3.577-7.997-7.996
	c0-4.42,3.585-7.996,7.997-7.996C384.011,435.791,387.596,439.367,387.596,443.787z"/>
<path style="fill:#FFCE54;" d="M403.588,255.861c0,81.695-66.234,147.929-147.929,147.929c-81.703,0-147.929-66.233-147.929-147.929
	c0-81.699,66.226-147.929,147.929-147.929C337.354,107.933,403.588,174.162,403.588,255.861z"/>
<g style="opacity:0.3;">
	<path style="fill:#FFFFFF;" d="M139.714,255.861c0-76.292,57.761-139.054,131.936-147.031c-5.255-0.566-10.588-0.898-15.992-0.898
		c-81.703,0-147.929,66.229-147.929,147.929c0,81.695,66.226,147.929,147.929,147.929c5.404,0,10.737-0.327,15.992-0.897
		C197.476,394.92,139.714,332.152,139.714,255.861z"/>
</g>
<g style="opacity:0.2;">
	<path d="M371.603,255.861c0,76.291-57.769,139.059-131.937,147.031c5.256,0.57,10.589,0.897,15.993,0.897
		c81.695,0,147.929-66.233,147.929-147.929c0-81.699-66.234-147.929-147.929-147.929c-5.404,0-10.737,0.332-15.993,0.898
		C313.834,116.807,371.603,179.57,371.603,255.861z"/>
</g>
<path style="fill:#A0D468;" d="M445.067,65.968c-5.856,0.437-7.73-2.991-6.958-4.029l-10.971-3.491
	c-0.953-0.539-4.779-1.187-6.075-1.413c-0.913-0.156-8.754,0.812-8.402,10.151c0.141,3.764,2.499,6.2,6.317,6.247
	c3.162,0.031,6.364-0.344,7.395,3.404c0.875,3.17,0.547,6.466,1.328,9.621c0.32,1.281,0.983,3.045,2.6,3.186
	c2.437,0.219,4.076-1.429,5.545-3.131c1.171-1.367,2.646-2.522,3.514-4.131c1.382-2.514,1.008-5.513,2.468-8.059
	C443.006,72.286,446.918,65.828,445.067,65.968z"/>
<g style="opacity:0.3;">
	<path style="fill:#FFFFFF;" d="M434.307,88.282c-0.78-3.155,0.938-8.273,0.062-11.444c-1.03-3.748-5.005-8.449-8.168-8.48
		c-3.818-0.047-5.856,0.391-5.996-3.373c-0.211-5.54,2.912-5.896,5.317-7.059c-1.522-0.378-3.569-0.734-4.459-0.89
		c-0.913-0.156-8.754,0.812-8.402,10.151c0.141,3.764,2.499,6.2,6.317,6.247c3.162,0.031,6.364-0.344,7.395,3.404
		c0.875,3.17,0.547,6.466,1.328,9.621c0.32,1.281,0.983,3.045,2.6,3.186C432.683,89.859,432.87,89.945,434.307,88.282
		C433.183,89.496,434.322,88.333,434.307,88.282z"/>
</g>
<g>
	<path style="fill:#3A3847;" d="M427.592,111.931c-19.842,0-35.982-16.141-35.982-35.983s16.141-35.983,35.982-35.983
		s35.982,16.141,35.982,35.983S447.434,111.931,427.592,111.931z M427.592,47.961c-15.431,0-27.986,12.557-27.986,27.987
		s12.556,27.987,27.986,27.987s27.986-12.557,27.986-27.987S443.022,47.961,427.592,47.961z"/>
	<path style="fill:#3A3847;" d="M430.731,93.662L430.731,93.662c-0.117,0-0.672-0.023-0.789-0.035
		c-1.732-0.152-4.856-1.16-6.121-6.2c-0.43-1.737-0.586-3.502-0.719-5.275c-0.109-1.421-0.195-2.854-0.586-4.251
		c-0.398-0.469-1.827-0.469-2.365-0.469c-0.016,0-1.203,0-1.219,0c-5.919-0.074-10.042-4.131-10.269-10.097
		c-0.203-5.392,1.827-8.676,3.568-10.483c3.272-3.396,7.513-4.092,9.504-3.756c3.857,0.667,5.724,1.108,6.887,1.628l10.698,3.404
		c1.234,0.395,2.202,1.355,2.593,2.585c0.109,0.32,0.164,0.648,0.188,0.976c0.366,0.152,0.983,0.32,1.968,0.32
		c0.094-0.008,0.96-0.043,1.054-0.043c1.437,0,3.116,0.949,3.826,2.19c1.538,2.682,0.078,5.759-3.365,11.667
		c-0.695,1.202-0.891,2.206-1.108,3.365c-0.289,1.558-0.625,3.33-1.609,5.119c-0.835,1.55-1.96,2.698-2.951,3.709
		c-0.352,0.359-0.711,0.718-1.031,1.097C437.603,90.597,434.963,93.662,430.731,93.662z M430.645,85.662l0.086,4.002V85.67
		C430.707,85.666,430.676,85.666,430.645,85.662z M420.15,69.436c2.49,0,8.331,0,10.08,6.341c0.555,2.019,0.711,4.006,0.844,5.763
		c0.094,1.245,0.172,2.487,0.445,3.705c0.492-0.406,1.015-1.011,1.296-1.343c0.438-0.504,0.906-0.992,1.39-1.48
		c0.68-0.695,1.32-1.351,1.633-1.937c0.391-0.702,0.57-1.667,0.78-2.783c0.297-1.554,0.664-3.487,1.741-5.369
		c0.656-1.128,1.211-2.088,1.656-2.9c-2.476-0.758-4.396-2.237-5.412-4.264c-0.031-0.059-0.055-0.117-0.086-0.176l-8.59-2.733
		c-0.265-0.086-0.515-0.195-0.757-0.332c-0.109-0.023-1.14-0.32-4.6-0.921c-0.156,0.031-4.131,0.375-3.912,6.028
		c0.078,2.085,1.179,2.386,2.366,2.401l0.805,3.998L420.15,69.436z"/>
	<path style="fill:#3A3847;" d="M307.876,511.754c-2.21,0-4.037-1.788-4.037-3.998s1.749-3.998,3.951-3.998h0.086
		c2.202,0,3.998,1.788,3.998,3.998S310.078,511.754,307.876,511.754z"/>
	<path style="fill:#3A3847;" d="M459.803,471.773c-2.21,0-4.037-1.788-4.037-3.998s1.749-3.998,3.951-3.998h0.086
		c2.202,0,3.998,1.788,3.998,3.998S462.005,471.773,459.803,471.773z"/>
	<path style="fill:#3A3847;" d="M235.902,455.781c-2.202,0-4.037-1.789-4.037-3.998c0-2.21,1.749-3.998,3.959-3.998h0.078
		c2.21,0,3.998,1.788,3.998,3.998C239.9,453.992,238.112,455.781,235.902,455.781z"/>
	<path style="fill:#3A3847;" d="M483.791,351.831c-2.21,0-4.037-1.788-4.037-3.998s1.749-3.998,3.951-3.998h0.086
		c2.202,0,3.998,1.788,3.998,3.998S485.993,351.831,483.791,351.831z"/>
	<path style="fill:#3A3847;" d="M147.945,495.762c-2.202,0-4.037-1.788-4.037-3.998s1.749-3.998,3.959-3.998h0.078
		c2.209,0,3.998,1.788,3.998,3.998S150.154,495.762,147.945,495.762z"/>
	<path style="fill:#3A3847;" d="M91.972,383.815c-2.202,0-4.037-1.788-4.037-3.998s1.749-3.998,3.959-3.998h0.078
		c2.21,0,3.998,1.788,3.998,3.998S94.182,383.815,91.972,383.815z"/>
	<path style="fill:#3A3847;" d="M28.002,335.839c-2.202,0-4.037-1.788-4.037-3.998s1.749-3.999,3.959-3.999h0.078
		c2.209,0,3.998,1.789,3.998,3.999S30.212,335.839,28.002,335.839z"/>
	<path style="fill:#3A3847;" d="M59.987,263.873c-2.202,0-4.037-1.788-4.037-3.998s1.749-3.998,3.959-3.998h0.078
		c2.209,0,3.998,1.788,3.998,3.998S62.197,263.873,59.987,263.873z"/>
	<path style="fill:#3A3847;" d="M83.976,167.919c-2.202,0-4.037-1.788-4.037-3.998c0-2.209,1.749-3.998,3.959-3.998h0.078
		c2.21,0,3.998,1.789,3.998,3.998C87.974,166.131,86.186,167.919,83.976,167.919z"/>
	<path style="fill:#3A3847;" d="M155.941,79.961c-2.202,0-4.037-1.788-4.037-3.998c0-2.209,1.749-3.998,3.959-3.998h0.078
		c2.21,0,3.998,1.789,3.998,3.998C159.939,78.173,158.151,79.961,155.941,79.961z"/>
	<path style="fill:#3A3847;" d="M299.879,71.965c-2.209,0-4.037-1.788-4.037-3.998s1.75-3.998,3.952-3.998h0.085
		c2.203,0,3.999,1.788,3.999,3.998S302.082,71.965,299.879,71.965z"/>
	<path style="fill:#3A3847;" d="M364.356,23.988c-2.21,0-4.037-1.788-4.037-3.998s1.749-3.998,3.951-3.998h0.086
		c2.202,0,3.998,1.788,3.998,3.998S366.559,23.988,364.356,23.988z"/>
	<path style="fill:#3A3847;" d="M12.01,119.942c-2.202,0-4.037-1.788-4.037-3.998s1.75-3.998,3.959-3.998h0.078
		c2.21,0,3.998,1.788,3.998,3.998S14.22,119.942,12.01,119.942z"/>
	<path style="fill:#3A3847;" d="M499.783,167.919c-2.21,0-4.037-1.788-4.037-3.998c0-2.209,1.749-3.998,3.951-3.998h0.086
		c2.202,0,3.998,1.789,3.998,3.998C503.781,166.131,501.985,167.919,499.783,167.919z"/>
	<path style="fill:#3A3847;" d="M443.811,207.916c-2.21,0-4.037-1.789-4.037-3.999c0-2.209,1.749-3.998,3.951-3.998h0.086
		c2.202,0,3.998,1.789,3.998,3.998C447.809,206.127,446.013,207.916,443.811,207.916z"/>
	<path style="fill:#3A3847;" d="M187.926,7.996c-2.202,0-4.037-1.788-4.037-3.998S185.638,0,187.848,0h0.078
		c2.21,0,3.998,1.788,3.998,3.998S190.136,7.996,187.926,7.996z"/>
	<path style="fill:#3A3847;" d="M51.757,79.961c-2.21,0-3.998-1.788-3.998-3.998V43.979c0-2.209,1.788-3.998,3.998-3.998
		s3.998,1.789,3.998,3.998v31.985C55.755,78.173,53.967,79.961,51.757,79.961z"/>
	<path style="fill:#3A3847;" d="M59.753,63.969H43.761c-2.21,0-3.998-1.789-3.998-3.998c0-2.21,1.788-3.998,3.998-3.998h15.992
		c2.21,0,3.998,1.788,3.998,3.998C63.751,62.181,61.963,63.969,59.753,63.969z"/>
	<path style="fill:#3A3847;" d="M59.753,471.773c-2.21,0-3.998-1.788-3.998-3.998v-31.984c0-2.211,1.788-3.998,3.998-3.998
		s3.998,1.787,3.998,3.998v31.984C63.751,469.985,61.963,471.773,59.753,471.773z"/>
	<path style="fill:#3A3847;" d="M67.749,455.781H51.757c-2.21,0-3.998-1.789-3.998-3.998c0-2.21,1.788-3.998,3.998-3.998h15.992
		c2.21,0,3.998,1.788,3.998,3.998C71.747,453.992,69.959,455.781,67.749,455.781z"/>
	<path style="fill:#3A3847;" d="M379.6,455.781c-6.614,0-11.995-5.381-11.995-11.994c0-6.614,5.381-11.994,11.995-11.994
		c6.613,0,11.994,5.38,11.994,11.994C391.594,450.4,386.213,455.781,379.6,455.781z M379.6,439.789
		c-2.203,0-3.999,1.796-3.999,3.998c0,2.201,1.796,3.998,3.999,3.998c2.201,0,3.998-1.797,3.998-3.998
		C383.598,441.585,381.801,439.789,379.6,439.789z"/>
	<path style="fill:#3A3847;" d="M385.939,442.936c-1.796,0-3.428-1.211-3.881-3.029c-0.531-2.141,0.766-4.303,2.897-4.85
		c0.366-0.094,24.082-6.677,38.958-40.84c0.866-2.03,3.248-2.951,5.255-2.077c2.03,0.89,2.952,3.24,2.069,5.263
		c-16.586,38.107-43.206,45.135-44.33,45.416C386.58,442.897,386.26,442.936,385.939,442.936z"/>
	<path style="fill:#3A3847;" d="M255.659,407.804c-83.772,0-151.927-68.154-151.927-151.927S171.887,103.95,255.659,103.95
		s151.927,68.154,151.927,151.927S339.431,407.804,255.659,407.804z M255.659,111.946c-79.368,0-143.931,64.566-143.931,143.931
		c0,79.368,64.563,143.931,143.931,143.931c79.36,0,143.931-64.562,143.931-143.931C399.59,176.513,335.019,111.946,255.659,111.946
		z"/>
	<path style="fill:#3A3847;" d="M237.917,155.898c-3.389,0-6.786-0.613-9.433-1.843l-2.241-1.015
		c-3.186-1.488-8.957-1.484-12.143-0.016l-2.288,1.042c-5.24,2.437-13.524,2.448-18.819-0.012l-2.233-1.019
		c-2.779-1.301-7.574-1.496-10.947-0.477c-0.391,0.121-0.797,0.273-1.164,0.449l-2.28,1.058c-2.015,0.941-4.389,0.062-5.31-1.937
		c-0.937-2.003-0.07-4.381,1.937-5.31l2.265-1.055c0.672-0.32,1.421-0.605,2.202-0.851c5.302-1.597,12.127-1.242,16.641,0.858
		l2.233,1.016c3.194,1.487,8.964,1.487,12.135,0.016l2.296-1.047c5.271-2.44,13.541-2.44,18.819,0.016l2.233,1.012
		c3.217,1.495,8.973,1.499,12.135,0.02l2.296-1.047c5.255-2.436,13.524-2.44,18.819,0.004l2.272,1.059
		c3.162,1.444,8.94,1.456,12.111-0.02l2.28-1.039c5.271-2.44,13.548-2.44,18.834,0.008l2.233,1.023
		c3.194,1.472,8.973,1.472,12.135,0.008l2.296-1.043c4.436-2.069,11.205-2.428,16.453-0.882c0.852,0.261,1.64,0.554,2.374,0.897
		l2.226,1.02c2.007,0.921,2.889,3.295,1.968,5.302c-0.922,2.015-3.304,2.882-5.295,1.968l-2.249-1.03
		c-0.429-0.199-0.874-0.359-1.327-0.5c-3.318-0.984-8.082-0.781-10.808,0.488l-2.295,1.046c-5.248,2.444-13.525,2.44-18.819-0.012
		l-2.241-1.022c-3.186-1.476-8.973-1.476-12.143-0.008l-2.272,1.038c-5.239,2.44-13.517,2.452-18.819,0.012l-2.279-1.062
		c-3.163-1.46-8.941-1.464-12.112,0.012l-2.296,1.042C244.68,155.289,241.298,155.898,237.917,155.898z"/>
	<path style="fill:#3A3847;" d="M237.917,179.886c-3.389,0-6.786-0.613-9.433-1.843l-2.241-1.015
		c-3.186-1.484-8.957-1.484-12.143-0.016l-2.288,1.042c-5.24,2.44-13.524,2.444-18.819-0.012l-2.233-1.019
		c-3.193-1.484-8.956-1.48-12.135-0.02l-2.256,1.05c-5.318,2.44-13.587,2.44-18.85-0.016l-2.241-1.011
		c-0.695-0.328-1.531-0.586-2.437-0.77c-2.163-0.437-3.568-2.545-3.131-4.708s2.553-3.592,4.708-3.131
		c1.539,0.309,2.944,0.762,4.193,1.339l2.241,1.015c3.194,1.483,8.965,1.479,12.158,0.027l2.249-1.046
		c5.294-2.452,13.563-2.448,18.843,0.008l2.233,1.015c3.194,1.487,8.964,1.487,12.135,0.016l2.296-1.046
		c5.271-2.44,13.541-2.44,18.819,0.016l2.233,1.011c3.217,1.499,8.973,1.495,12.135,0.02l2.296-1.046
		c5.255-2.437,13.524-2.44,18.819,0.004l2.272,1.058c3.162,1.448,8.94,1.452,12.111-0.02l2.28-1.039
		c5.271-2.444,13.548-2.44,18.834,0.008l2.233,1.023c3.194,1.468,8.973,1.476,12.135,0.008l2.296-1.042
		c5.256-2.437,13.533-2.437,18.819,0.012l2.233,1.023c3.186,1.476,8.964,1.476,12.15,0.008l2.271-1.039
		c1.227-0.57,2.647-1.027,4.193-1.343c2.141-0.438,4.279,0.941,4.725,3.112c0.438,2.163-0.952,4.275-3.115,4.72
		c-0.945,0.195-1.765,0.453-2.452,0.773l-2.28,1.038c-5.263,2.448-13.548,2.44-18.835-0.008l-2.233-1.022
		c-3.201-1.488-8.979-1.48-12.135-0.008l-2.295,1.042c-5.248,2.444-13.525,2.44-18.819-0.012l-2.241-1.022
		c-3.186-1.476-8.973-1.476-12.143-0.008l-2.272,1.038c-5.239,2.44-13.517,2.452-18.819,0.012L261.702,177
		c-3.163-1.46-8.941-1.464-12.112,0.012l-2.296,1.042C244.68,179.277,241.298,179.886,237.917,179.886z"/>
	<path style="fill:#3A3847;" d="M237.917,203.875c-3.389,0-6.786-0.613-9.433-1.843l-2.241-1.015
		c-3.186-1.483-8.957-1.483-12.143-0.016l-2.288,1.042c-5.24,2.436-13.524,2.448-18.819-0.012l-2.233-1.019
		c-3.193-1.483-8.956-1.483-12.135-0.02l-2.256,1.05c-5.318,2.444-13.587,2.436-18.85-0.016l-2.241-1.011
		c-3.202-1.491-8.973-1.487-12.135-0.023l-2.272,1.054c-1.062,0.484-2.233,0.878-3.483,1.175c-2.139,0.527-4.294-0.809-4.81-2.963
		c-0.516-2.147,0.812-4.303,2.959-4.814c0.718-0.172,1.39-0.387,1.991-0.66l2.249-1.046c5.287-2.44,13.564-2.44,18.834,0.008
		l2.241,1.015c3.194,1.484,8.965,1.48,12.158,0.027l2.249-1.046c5.294-2.448,13.563-2.448,18.843,0.008l2.233,1.015
		c3.194,1.488,8.964,1.488,12.135,0.016l2.296-1.046c5.271-2.44,13.541-2.44,18.819,0.016l2.233,1.011
		c3.217,1.495,8.973,1.499,12.135,0.02l2.296-1.046c5.255-2.436,13.524-2.44,18.819,0.004l2.272,1.058
		c3.162,1.449,8.94,1.453,12.111-0.02l2.28-1.039c5.271-2.444,13.548-2.436,18.834,0.008l2.233,1.023
		c3.194,1.468,8.973,1.476,12.135,0.008l2.296-1.042c5.256-2.436,13.533-2.432,18.819,0.012l2.233,1.023
		c3.186,1.476,8.964,1.476,12.15,0.008l2.271-1.039c5.271-2.444,13.541-2.436,18.827,0.008l2.241,1.023
		c0.609,0.277,1.297,0.5,2.022,0.672c2.147,0.503,3.483,2.655,2.976,4.806c-0.5,2.143-2.616,3.487-4.803,2.979
		c-1.272-0.297-2.46-0.699-3.521-1.187l-2.257-1.031c-3.202-1.476-8.979-1.483-12.135-0.008l-2.28,1.039
		c-5.263,2.448-13.548,2.44-18.835-0.008l-2.233-1.023c-3.201-1.483-8.979-1.483-12.135-0.008l-2.295,1.042
		c-5.248,2.444-13.525,2.44-18.819-0.012l-2.241-1.023c-3.186-1.476-8.973-1.476-12.143-0.008l-2.272,1.039
		c-5.239,2.44-13.517,2.452-18.819,0.012l-2.279-1.062c-3.163-1.464-8.941-1.46-12.112,0.012l-2.296,1.042
		C244.68,203.266,241.298,203.875,237.917,203.875z"/>
	<path style="fill:#3A3847;" d="M131.453,227.879c-1.468,0-2.944-0.117-4.373-0.355c-2.179-0.359-3.655-2.421-3.288-4.6
		c0.359-2.175,2.39-3.686,4.6-3.287c3.194,0.531,6.864,0.184,9.121-0.859l2.265-1.05c5.287-2.44,13.564-2.44,18.834,0.008
		l2.241,1.015c3.194,1.484,8.965,1.48,12.158,0.027l2.249-1.046c5.294-2.448,13.563-2.448,18.843,0.008l2.233,1.015
		c3.194,1.488,8.964,1.488,12.135,0.016l2.296-1.046c5.271-2.44,13.541-2.44,18.819,0.016l2.233,1.011
		c3.217,1.5,8.973,1.496,12.135,0.02l2.296-1.046c5.255-2.437,13.524-2.44,18.819,0.004l2.272,1.058
		c3.162,1.445,8.94,1.457,12.111-0.02l2.28-1.038c5.271-2.444,13.548-2.437,18.834,0.008l2.233,1.022
		c3.194,1.472,8.973,1.476,12.135,0.008l2.296-1.042c5.256-2.437,13.533-2.433,18.819,0.012l2.233,1.022
		c3.186,1.476,8.964,1.476,12.15,0.008l2.271-1.038c5.271-2.444,13.541-2.437,18.827,0.008l2.241,1.022
		c2.288,1.059,5.935,1.414,9.16,0.863c2.062-0.309,4.232,1.093,4.607,3.275c0.366,2.179-1.102,4.24-3.28,4.611
		c-4.794,0.816-10.112,0.25-13.837-1.487l-2.233-1.023c-3.202-1.476-8.979-1.483-12.135-0.008l-2.28,1.039
		c-5.263,2.444-13.548,2.444-18.835-0.008l-2.233-1.023c-3.201-1.483-8.979-1.483-12.135-0.008l-2.295,1.043
		c-5.248,2.444-13.525,2.44-18.819-0.012l-2.241-1.023c-3.186-1.476-8.973-1.476-12.143-0.008l-2.272,1.039
		c-5.239,2.44-13.517,2.452-18.819,0.012l-2.279-1.062c-3.163-1.464-8.941-1.46-12.112,0.012l-2.296,1.043
		c-5.24,2.452-13.517,2.448-18.811-0.012l-2.241-1.016c-3.186-1.487-8.957-1.479-12.143-0.016l-2.288,1.043
		c-5.24,2.44-13.524,2.444-18.819-0.012l-2.233-1.02c-3.193-1.483-8.956-1.479-12.135-0.02l-2.256,1.051
		c-5.318,2.444-13.587,2.436-18.85-0.016l-2.241-1.012c-3.202-1.491-8.973-1.483-12.135-0.023l-2.272,1.055
		C138.27,227.238,134.889,227.879,131.453,227.879z"/>
	<path style="fill:#3A3847;" d="M131.468,251.852c-3.397,0-6.793-0.617-9.433-1.847c-2.007-0.933-2.874-3.311-1.937-5.31
		c0.93-2.003,3.311-2.862,5.31-1.937c3.155,1.468,8.925,1.476,12.104,0.008l2.265-1.05c5.287-2.44,13.564-2.44,18.834,0.008
		l2.241,1.015c3.194,1.48,8.965,1.484,12.158,0.027l2.249-1.046c5.294-2.448,13.563-2.448,18.843,0.008l2.233,1.015
		c3.194,1.488,8.964,1.488,12.135,0.016l2.296-1.046c5.271-2.44,13.541-2.44,18.819,0.016l2.233,1.011
		c3.217,1.5,8.973,1.496,12.135,0.02l2.296-1.046c5.255-2.433,13.524-2.444,18.819,0.004l2.272,1.058
		c3.162,1.445,8.94,1.457,12.111-0.02l2.28-1.039c5.271-2.444,13.548-2.437,18.834,0.008l2.233,1.023
		c3.194,1.472,8.973,1.472,12.135,0.008l2.296-1.042c5.256-2.437,13.533-2.433,18.819,0.012l2.233,1.023
		c3.186,1.472,8.964,1.48,12.15,0.008l2.271-1.039c5.271-2.444,13.541-2.437,18.827,0.008l2.241,1.023
		c3.187,1.476,8.973,1.476,12.143,0.008c1.983-0.937,4.373-0.051,5.311,1.944c0.921,2.007,0.055,4.381-1.952,5.31
		c-5.279,2.452-13.557,2.452-18.851,0l-2.233-1.023c-3.202-1.48-8.979-1.48-12.135-0.008l-2.28,1.039
		c-5.263,2.444-13.548,2.444-18.835-0.008l-2.233-1.023c-3.201-1.488-8.979-1.48-12.135-0.008l-2.295,1.042
		c-5.248,2.444-13.525,2.44-18.819-0.012l-2.241-1.023c-3.186-1.476-8.973-1.476-12.143-0.008l-2.272,1.039
		c-5.239,2.44-13.517,2.452-18.819,0.012l-2.279-1.062c-3.163-1.46-8.941-1.464-12.112,0.012l-2.296,1.042
		c-5.24,2.452-13.517,2.448-18.811-0.012l-2.241-1.015c-3.186-1.484-8.957-1.484-12.143-0.016l-2.288,1.042
		c-5.24,2.437-13.524,2.448-18.819-0.012l-2.233-1.019c-3.193-1.48-8.956-1.484-12.135-0.02l-2.256,1.05
		c-5.318,2.44-13.587,2.44-18.85-0.016l-2.241-1.011c-3.202-1.488-8.973-1.488-12.135-0.023l-2.272,1.054
		C138.231,251.242,134.85,251.852,131.468,251.852z"/>
	<path style="fill:#3A3847;" d="M131.445,275.852c-2.92,0-5.849-0.453-8.316-1.39c-2.069-0.781-3.108-3.093-2.327-5.153
		c0.781-2.07,3.084-3.124,5.153-2.328c3.288,1.25,8.59,1.141,11.557-0.226l2.265-1.055c5.287-2.44,13.564-2.433,18.834,0.016
		l2.241,1.016c3.194,1.483,8.965,1.476,12.158,0.023l2.249-1.047c5.294-2.452,13.563-2.444,18.843,0.008l2.233,1.016
		c3.194,1.483,8.964,1.483,12.135,0.016l2.296-1.047c5.271-2.44,13.541-2.44,18.819,0.016l2.233,1.016
		c3.217,1.499,8.973,1.491,12.135,0.016l2.296-1.047c5.255-2.437,13.524-2.44,18.819,0l2.272,1.062
		c3.162,1.452,8.94,1.452,12.111-0.016l2.28-1.047c5.271-2.44,13.548-2.433,18.834,0.016l2.233,1.016
		c3.194,1.468,8.973,1.483,12.135,0.016l2.296-1.047c5.256-2.437,13.533-2.433,18.819,0.016l2.233,1.016
		c3.186,1.483,8.964,1.483,12.15,0.016l2.271-1.047c5.271-2.44,13.541-2.433,18.827,0.016l2.241,1.016
		c2.983,1.39,8.27,1.491,11.588,0.249c2.055-0.788,4.373,0.266,5.146,2.328c0.781,2.076-0.266,4.372-2.335,5.153
		c-5.356,2.022-12.837,1.812-17.741-0.469l-2.241-1.015c-3.202-1.484-8.979-1.484-12.135-0.016l-2.28,1.046
		c-5.263,2.437-13.548,2.437-18.835-0.016l-2.233-1.015c-3.201-1.484-8.979-1.484-12.135-0.016l-2.295,1.046
		c-5.248,2.444-13.525,2.437-18.819-0.016l-2.241-1.015c-3.186-1.484-8.973-1.484-12.143-0.016l-2.272,1.046
		c-5.239,2.437-13.517,2.452-18.819,0.008l-2.279-1.062c-3.163-1.461-8.941-1.461-12.112,0.008l-2.296,1.046
		c-5.24,2.452-13.517,2.452-18.811-0.016l-2.241-1.015c-3.186-1.484-8.957-1.484-12.143-0.016l-2.288,1.046
		c-5.24,2.437-13.524,2.444-18.819-0.016l-2.233-1.015c-3.193-1.484-8.956-1.484-12.135-0.016l-2.256,1.046
		c-5.318,2.444-13.587,2.437-18.85-0.016l-2.241-1.015c-3.202-1.484-8.973-1.484-12.135-0.016l-2.272,1.046
		C138.215,275.234,134.834,275.852,131.445,275.852z"/>
	<path style="fill:#3A3847;" d="M131.476,299.84c-0.617,0-1.234-0.023-1.851-0.062c-2.202-0.148-3.874-2.045-3.725-4.256
		c0.141-2.209,2.101-3.842,4.256-3.725c2.757,0.203,5.56-0.219,7.356-1.046l2.265-1.062c5.287-2.438,13.564-2.438,18.834,0.016
		l2.241,1.015c3.194,1.483,8.965,1.476,12.158,0.023l2.249-1.046c5.294-2.453,13.563-2.445,18.843,0.008l2.233,1.015
		c3.194,1.483,8.964,1.483,12.135,0.016l2.296-1.046c5.271-2.438,13.541-2.438,18.819,0.016l2.233,1.015
		c3.217,1.499,8.973,1.491,12.135,0.016l2.296-1.046c5.255-2.438,13.524-2.445,18.819,0l2.272,1.062
		c3.162,1.452,8.94,1.452,12.111-0.016l2.28-1.046c5.271-2.438,13.548-2.438,18.834,0.016l2.233,1.015
		c3.194,1.468,8.973,1.483,12.135,0.016l2.296-1.046c5.256-2.438,13.533-2.438,18.819,0.016l2.233,1.015
		c3.186,1.483,8.964,1.483,12.15,0.016l2.271-1.046c5.271-2.438,13.541-2.438,18.827,0.016l2.241,1.015
		c1.827,0.851,4.607,1.28,7.387,1.077c2.164-0.102,4.107,1.516,4.256,3.725c0.148,2.211-1.522,4.107-3.725,4.256
		c-4.131,0.266-8.215-0.383-11.26-1.796l-2.241-1.015c-3.202-1.484-8.979-1.484-12.135-0.016l-2.28,1.046
		c-5.263,2.437-13.548,2.437-18.835-0.016l-2.233-1.015c-3.201-1.484-8.979-1.484-12.135-0.016L318.274,298
		c-5.248,2.444-13.525,2.437-18.819-0.016l-2.241-1.015c-3.186-1.484-8.973-1.484-12.143-0.016l-2.272,1.046
		c-5.239,2.437-13.517,2.452-18.819,0.008l-2.279-1.062c-3.163-1.461-8.941-1.461-12.112,0.008l-2.296,1.046
		c-5.24,2.452-13.517,2.452-18.811-0.016l-2.241-1.015c-3.186-1.484-8.957-1.477-12.143-0.016l-2.288,1.046
		c-5.24,2.437-13.524,2.452-18.819-0.016l-2.233-1.015c-3.193-1.484-8.956-1.484-12.135-0.016l-2.256,1.046
		c-5.318,2.444-13.587,2.437-18.85-0.016l-2.241-1.015c-3.202-1.484-8.973-1.484-12.135-0.016l-2.272,1.046
		C138.301,299.192,134.951,299.84,131.476,299.84z"/>
	<path style="fill:#3A3847;" d="M237.917,323.813c-3.389,0-6.786-0.608-9.433-1.842l-2.241-1.016
		c-3.186-1.483-8.957-1.483-12.143-0.016l-2.288,1.047c-5.24,2.436-13.524,2.443-18.819-0.016l-2.233-1.016
		c-3.193-1.483-8.956-1.483-12.135-0.016l-2.256,1.047c-5.318,2.436-13.587,2.436-18.85-0.016l-2.241-1.016
		c-3.202-1.483-8.973-1.483-12.135-0.016l-2.272,1.047c-2.007,0.952-4.373,0.062-5.31-1.938c-0.929-2.006-0.055-4.389,1.944-5.31
		l2.272-1.062c5.287-2.437,13.564-2.437,18.834,0.016l2.241,1.015c3.194,1.483,8.965,1.476,12.158,0.023l2.249-1.046
		c5.294-2.452,13.563-2.444,18.843,0.008l2.233,1.015c3.194,1.483,8.964,1.483,12.135,0.016l2.296-1.046
		c5.271-2.437,13.541-2.437,18.819,0.016l2.233,1.015c3.217,1.491,8.973,1.491,12.135,0.016l2.296-1.046
		c5.255-2.437,13.524-2.437,18.819,0l2.272,1.062c3.162,1.444,8.94,1.452,12.111-0.016l2.28-1.046
		c5.271-2.437,13.548-2.437,18.834,0.016l2.233,1.015c3.194,1.476,8.973,1.476,12.135,0.016l2.296-1.046
		c5.256-2.437,13.533-2.437,18.819,0.016l2.233,1.015c3.186,1.483,8.964,1.483,12.15,0.016l2.271-1.046
		c5.271-2.437,13.541-2.437,18.827,0.016l2.241,1.015c2.007,0.921,2.89,3.296,1.976,5.294c-0.913,2.016-3.287,2.905-5.302,1.984
		l-2.257-1.031c-3.202-1.483-8.979-1.483-12.135-0.016l-2.28,1.047c-5.263,2.443-13.548,2.436-18.835-0.016l-2.233-1.016
		c-3.201-1.483-8.979-1.483-12.135-0.016l-2.295,1.047c-5.248,2.443-13.525,2.436-18.819-0.016l-2.241-1.016
		c-3.186-1.483-8.973-1.483-12.143-0.016l-2.272,1.047c-5.239,2.436-13.517,2.451-18.819,0.008l-2.279-1.062
		c-3.163-1.46-8.941-1.46-12.112,0.008l-2.296,1.047C244.68,323.204,241.298,323.813,237.917,323.813z"/>
	<path style="fill:#3A3847;" d="M237.917,347.802c-3.389,0-6.786-0.609-9.433-1.843l-2.241-1.016
		c-3.186-1.483-8.957-1.483-12.143-0.016l-2.288,1.047c-5.24,2.436-13.524,2.451-18.819-0.016l-2.233-1.016
		c-3.193-1.483-8.956-1.483-12.135-0.016l-2.256,1.047c-5.318,2.443-13.587,2.436-18.85-0.016l-2.241-1.016
		c-0.555-0.25-1.156-0.461-1.804-0.625c-2.132-0.546-3.421-2.732-2.874-4.872c0.555-2.14,2.726-3.405,4.865-2.874
		c1.124,0.289,2.179,0.656,3.131,1.094l2.257,1.03c3.194,1.483,8.965,1.476,12.158,0.023l2.249-1.046
		c5.294-2.452,13.563-2.444,18.843,0.008l2.233,1.015c3.194,1.483,8.964,1.483,12.135,0.016l2.296-1.046
		c5.271-2.437,13.541-2.437,18.819,0.016l2.233,1.015c3.217,1.499,8.973,1.491,12.135,0.016l2.296-1.046
		c5.255-2.437,13.524-2.444,18.819,0l2.272,1.062c3.162,1.452,8.94,1.452,12.111-0.016l2.28-1.046
		c5.271-2.437,13.548-2.437,18.834,0.016l2.233,1.015c3.194,1.468,8.973,1.483,12.135,0.016l2.296-1.046
		c5.256-2.437,13.533-2.437,18.819,0.016l2.233,1.015c3.186,1.483,8.964,1.483,12.15,0.016l2.271-1.046
		c0.984-0.438,2.047-0.828,3.187-1.102c2.179-0.539,4.311,0.789,4.834,2.929c0.53,2.14-0.781,4.311-2.929,4.833
		c-0.641,0.164-1.233,0.367-1.772,0.617l-2.249,1.031c-5.263,2.443-13.548,2.436-18.835-0.016l-2.233-1.016
		c-3.201-1.491-8.979-1.483-12.135-0.016l-2.295,1.047c-5.248,2.436-13.525,2.443-18.819-0.016l-2.241-1.016
		c-3.186-1.483-8.973-1.483-12.143-0.016l-2.272,1.047c-5.239,2.436-13.517,2.451-18.819,0.008l-2.279-1.062
		c-3.163-1.46-8.941-1.46-12.112,0.008l-2.296,1.047C244.68,347.192,241.298,347.802,237.917,347.802z"/>
	<path style="fill:#3A3847;" d="M237.917,371.79c-3.389,0-6.786-0.609-9.433-1.843l-2.241-1.016
		c-3.186-1.483-8.957-1.476-12.143-0.016l-2.288,1.047c-5.24,2.437-13.524,2.444-18.819-0.016l-2.233-1.016
		c-2.381-1.101-6.309-1.421-9.573-0.796c-2.171,0.421-4.271-1-4.693-3.163c-0.421-2.17,0.992-4.271,3.163-4.692
		c4.904-0.953,10.581-0.406,14.446,1.39l2.233,1.016c3.194,1.483,8.964,1.483,12.135,0.016l2.296-1.047
		c5.271-2.437,13.541-2.437,18.819,0.016l2.233,1.016c3.217,1.491,8.973,1.499,12.135,0.016l2.296-1.047
		c5.255-2.437,13.524-2.437,18.819,0l2.272,1.062c3.162,1.452,8.94,1.452,12.111-0.016l2.28-1.047
		c5.271-2.437,13.548-2.437,18.834,0.016l2.233,1.016c3.194,1.468,8.973,1.483,12.135,0.016l2.296-1.047
		c3.85-1.78,9.348-2.312,14.251-1.397c2.171,0.405,3.6,2.491,3.194,4.661c-0.406,2.171-2.608,3.592-4.662,3.194
		c-3.264-0.617-7.13-0.273-9.441,0.804l-2.295,1.047c-5.248,2.437-13.525,2.444-18.819-0.016l-2.241-1.016
		c-3.186-1.483-8.973-1.483-12.143-0.016l-2.272,1.047c-5.239,2.437-13.517,2.452-18.819,0.008l-2.279-1.062
		c-3.163-1.46-8.941-1.46-12.112,0.008l-2.296,1.047C244.68,371.181,241.298,371.79,237.917,371.79z"/>
</g>
<g>
</g>
<g>
</g>
<g>
</g>
<g>
</g>
<g>
</g>
<g>
</g>
<g>
</g>
<g>
</g>
<g>
</g>
<g>
</g>
<g>
</g>
<g>
</g>
<g>
</g>
<g>
</g>
<g>
</g>
</svg>
