<svg height="512pt" viewBox="-85 0 512 512" width="512pt" xmlns="http://www.w3.org/2000/svg"><path d="m171.363281 208.894531c-94.921875.046875-171.363281 78.167969-171.363281 173.09375v119.710938c0 5.6875 4.613281 10.300781 10.300781 10.300781h322.300781c5.6875 0 10.300782-4.613281 10.300782-10.300781v-121.351563c0-94.71875-76.808594-171.5-171.539063-171.453125zm0 0" fill="#d88850"/><path d="m143.363281 211.191406c8.828125-1.46875 17.890625-2.246094 27.125-2.296875 94.828125-.515625 172.414063 78.234375 172.414063 173.0625v119.738281c0 5.691407-4.613282 10.300782-10.300782 10.300782h-45.875" fill="#bc6c35"/><path d="m316.757812 369.96875v142.03125h-290.613281v-142.03125c0-52.25 42.351563-94.601562 94.601563-94.601562h101.410156c52.25 0 94.601562 42.351562 94.601562 94.601562zm0 0" fill="#b1de54"/><path d="m227.621094 512h-112.34375v-92.246094c0-31.023437 25.152344-56.171875 56.171875-56.171875 31.023437 0 56.171875 25.148438 56.171875 56.171875zm0 0" fill="#ffeab6"/><path d="m316.757812 369.976562v142.023438h-52.828124v-142.023438c0-52.257812-42.351563-94.609374-94.609376-94.609374h52.839844c52.246094 0 94.597656 42.351562 94.597656 94.609374zm0 0" fill="#92c927"/><path d="m86.699219 363.582031v148.417969h-15.453125v-148.417969c0-4.265625 3.460937-7.726562 7.726562-7.726562s7.726563 3.460937 7.726563 7.726562zm0 0" fill="#92c927"/><path d="m218.585938 275.367188v16.539062c0 21.707031-17.605469 39.3125-39.3125 39.3125h-15.648438c-21.707031 0-39.308594-17.605469-39.308594-39.3125v-16.539062h24.410156v-50.324219h45.449219v50.324219zm0 0" fill="#ffb685"/><path d="m194.175781 225.042969v38.226562c-7.367187 1.976563-14.972656 2.996094-22.726562 2.996094-7.75 0-15.355469-1.019531-22.722657-2.996094v-38.226562zm0 0" fill="#fc9854"/><path d="m308.308594 150.753906c0 16.664063-13.507813 30.171875-30.171875 30.171875-16.664063 0-30.171875-13.507812-30.171875-30.171875 0-16.664062 13.507812-30.171875 30.171875-30.171875 16.664062 0 30.171875 13.507813 30.171875 30.171875zm0 0" fill="#ffb685"/><path d="m94.9375 150.753906c0 16.664063-13.507812 30.171875-30.171875 30.171875s-30.171875-13.507812-30.171875-30.171875c0-16.664062 13.507812-30.171875 30.171875-30.171875s30.171875 13.507813 30.171875 30.171875zm0 0" fill="#ffb685"/><path d="m78.597656 62.558594v73.699218c0 64.914063 41.574219 117.539063 92.851563 117.539063 51.28125 0 92.855469-52.625 92.855469-117.539063v-73.699218zm0 0" fill="#b1de54"/><path d="m129.210938 156.421875c-4.265626 0-7.726563-3.457031-7.726563-7.726563v-.964843c0-4.265625 3.460937-7.722657 7.726563-7.722657 4.269531 0 7.726562 3.457032 7.726562 7.722657v.964843c0 4.269532-3.457031 7.726563-7.726562 7.726563zm0 0" fill="#6c6c65"/><path d="m213.691406 156.421875c-4.269531 0-7.726562-3.457031-7.726562-7.726563v-.964843c0-4.265625 3.457031-7.722657 7.726562-7.722657 4.265625 0 7.722656 3.457032 7.722656 7.722657v.964843c0 4.269532-3.457031 7.726563-7.722656 7.726563zm0 0" fill="#6c6c65"/><path d="m206.992188 192.3125-30.339844 30.339844c-2.875 2.875-7.53125 2.875-10.40625 0l-30.335938-30.339844c-2.875-2.871094-2.875-7.53125 0-10.402344l30.335938-30.339844c2.875-2.875 7.53125-2.875 10.40625 0l30.339844 30.339844c2.875 2.875 2.875 7.53125 0 10.402344zm0 0" fill="#ffd02f"/><path d="m206.992188 192.3125-3.894532 3.894531-29.578125 8.222657c-.679687.183593-1.367187.277343-2.070312.277343-.699219 0-1.390625-.09375-2.070313-.277343l-29.574218-8.222657-3.894532-3.894531c-2.875-2.871094-2.875-7.53125 0-10.402344l2.203125-2.207031 33.335938 9.261719 33.339843-9.261719 2.203126 2.207031c2.875 2.875 2.875 7.53125 0 10.402344zm0 0" fill="#fa0"/><path d="m224.933594 92.996094 34.839844 6.714844c6.535156 1.261718 12.394531-4.226563 11.566406-10.828126l-4.667969-37.285156c-1.96875-15.703125-15.320313-27.488281-31.148437-27.488281h-128.144532c-15.828125 0-29.179687 11.785156-31.148437 27.488281l-4.667969 37.28125c-.828125 6.605469 5.03125 12.09375 11.566406 10.832032l34.839844-6.71875 3.222656 10.542968c1.945313 6.363282 9.535156 8.976563 14.984375 5.152344l35.273438-24.746094 35.277343 24.746094c5.449219 3.824219 13.039063 1.214844 14.984376-5.152344zm0 0" fill="#6c6c65"/><path d="m252.15625 24.109375c0-13.316406-35.351562-24.109375-78.957031-24.109375s-78.957031 10.792969-78.957031 24.109375 35.351562 24.113281 78.957031 24.113281 78.957031-10.796875 78.957031-24.113281zm0 0" fill="#d3ed91"/></svg>