<?xml version="1.0" encoding="iso-8859-1"?>
<!-- Generator: Adobe Illustrator 19.0.0, SVG Export Plug-In . SVG Version: 6.00 Build 0)  -->
<svg version="1.1" id="Capa_1" xmlns="http://www.w3.org/2000/svg" xmlns:xlink="http://www.w3.org/1999/xlink" x="0px" y="0px"
	 viewBox="0 0 511.637 511.637" style="enable-background:new 0 0 511.637 511.637;" xml:space="preserve">
<polygon style="fill:#AAB2BD;" points="312.902,281.453 396.706,457.368 380.714,457.368 296.91,281.453 "/>
<rect x="268.768" y="281.448" style="fill:#CCD1D9;" width="15.992" height="175.91"/>
<polygon style="fill:#AAB2BD;" points="156.817,457.368 240.535,281.453 256.527,281.453 172.809,457.368 "/>
<g style="opacity:0.5;">
	<polygon style="fill:#FFFFFF;" points="236.74,289.425 156.817,457.368 164.813,457.368 244.736,289.425 	"/>
</g>
<g style="opacity:0.2;">
	<polygon points="316.775,289.425 396.706,457.368 388.71,457.368 308.779,289.425 	"/>
</g>
<path style="fill:#656D78;" d="M324.74,265.46c4.389,0,7.996,3.601,7.996,7.996c0,4.396-3.607,7.997-7.996,7.997h-11.838H296.91
	h-12.15h-15.992h-12.24h-15.992h-11.752c-4.474,0-7.996-3.601-7.996-7.997s3.522-7.996,7.996-7.996h31.985h39.984H324.74z"/>
<g style="opacity:0.2;">
	<path style="fill:#FFFFFF;" d="M228.782,273.456c0-4.396,3.522-7.996,7.997-7.996h-7.997c-4.474,0-7.996,3.601-7.996,7.996
		c0,4.396,3.522,7.997,7.996,7.997h7.997C232.304,281.453,228.782,277.852,228.782,273.456z"/>
</g>
<g style="opacity:0.2;">
	<path d="M324.74,273.456c0-4.396-3.529-7.996-7.996-7.996h7.996c4.467,0,7.996,3.601,7.996,7.996c0,4.396-3.529,7.997-7.996,7.997
		h-7.996C321.211,281.453,324.74,277.852,324.74,273.456z"/>
</g>
<g>
	<rect x="260.768" y="249.468" style="fill:#AAB2BD;" width="39.984" height="15.992"/>
	<rect x="260.768" y="233.478" style="fill:#AAB2BD;" width="39.984" height="15.992"/>
</g>
<path style="fill:#5D9CEC;" d="M300.752,233.475h-39.984v-11.994c0-11.034,8.875-19.99,19.994-19.99
	c11.025,0,19.99,8.956,19.99,19.99L300.752,233.475L300.752,233.475z"/>
<g style="opacity:0.3;">
	<path style="fill:#FFFFFF;" d="M284.744,201.897c-1.28-0.265-2.624-0.406-3.982-0.406c-11.119,0-19.994,8.956-19.994,19.99v11.994
		h8v-11.994C268.767,211.814,275.576,203.74,284.744,201.897z"/>
</g>
<g style="opacity:0.2;">
	<path d="M276.763,201.897c1.28-0.265,2.624-0.406,3.982-0.406c11.119,0,19.99,8.956,19.99,19.99v11.994h-7.996v-11.994
		C292.74,211.814,285.931,203.74,276.763,201.897z"/>
</g>
<path style="fill:#CCD1D9;" d="M280.761,201.491c-11.119,0-19.994,8.956-19.994,19.99v-36.139l39.984-8.082v44.221
	C300.752,210.447,291.787,201.491,280.761,201.491z"/>
<g>
	<polygon style="fill:#656D78;" points="232.625,172.387 312.746,156.153 316.744,174.066 300.752,177.26 260.767,185.342 
		236.779,190.136 	"/>
	<polygon style="fill:#656D78;" points="494.237,54.733 508.371,125.293 452.289,130.181 440.544,71.92 440.559,71.842 	"/>
</g>
<g style="opacity:0.2;">
	<polygon style="fill:#FFFFFF;" points="442.121,79.69 495.798,62.589 494.237,54.733 440.559,71.842 440.544,71.92 442.136,79.737 
			"/>
</g>
<polygon style="fill:#CCD1D9;" points="440.544,71.92 452.289,130.181 436.218,131.571 425.255,76.691 440.559,71.842 "/>
<g style="opacity:0.2;">
	<polygon points="434.656,123.731 436.218,131.571 452.289,130.181 450.711,122.334 	"/>
</g>
<g style="opacity:0.5;">
	<polygon style="fill:#FFFFFF;" points="426.847,84.547 442.105,79.69 440.544,71.92 440.559,71.842 425.255,76.691 	"/>
</g>
<polygon style="fill:#AAB2BD;" points="21.859,141.207 28.105,172.309 28.214,172.544 12.543,175.722 12.355,175.097 6.171,144.362 
	"/>
<path style="fill:#CCD1D9;" d="M28.191,172.465l54.872-10.94l4.662,23.528l-8.465,1.663c-2.553-4.264-7.598-6.653-12.712-5.622
	c-5.115,1.022-8.722,5.177-9.457,10.058l-24.223,4.818L4.679,177.237l7.84-1.601L28.191,172.465z"/>
<polygon style="fill:#656D78;" points="232.414,172.411 312.558,156.317 316.525,174.238 300.517,177.401 260.541,185.421 
	236.537,190.168 "/>
<g style="opacity:0.2;">
	<polygon points="300.517,185.397 300.752,185.35 300.752,177.26 260.767,185.342 260.767,193.37 	"/>
</g>
<polygon style="fill:#656D78;" points="139.489,76.777 144.167,100.313 128.487,103.475 112.823,106.568 97.151,109.738 
	92.465,86.226 "/>
<polygon style="fill:#AAB2BD;" points="128.487,103.475 131.587,118.999 131.603,119.139 115.922,122.24 115.915,122.068 
	112.823,106.568 "/>
<polygon style="fill:#CCD1D9;" points="142.589,133.164 142.597,133.304 111.323,139.59 108.153,123.817 115.922,122.24 
	131.603,119.139 139.505,117.554 "/>
<polygon style="fill:#5D9CEC;" points="111.323,139.59 142.597,133.304 425.255,76.691 436.218,131.571 312.558,156.317 
	232.414,172.411 90.911,200.71 87.725,185.053 83.063,161.526 79.885,145.853 "/>
<g style="opacity:0.2;">
	<polygon points="434.64,123.731 310.981,148.485 230.836,164.571 89.341,192.878 90.911,200.71 232.414,172.411 312.558,156.317 
		436.218,131.571 	"/>
</g>
<g style="opacity:0.3;">
	<polygon style="fill:#FFFFFF;" points="112.893,147.431 144.167,141.152 426.832,84.547 425.255,76.691 142.597,133.304 
		111.323,139.59 79.885,145.853 81.47,153.693 	"/>
</g>
<path style="fill:#656D78;" d="M80.916,192.854c-0.008,6.622-5.388,11.971-11.994,11.955c-6.629-0.008-11.979-5.372-11.979-11.994
	c0.031-6.622,5.404-11.979,12.01-11.955C75.575,180.868,80.923,186.24,80.916,192.854z"/>
<g style="opacity:0.2;">
	<path style="fill:#FFFFFF;" d="M70.53,188.692c4.357,0.008,8.129,2.351,10.222,5.833c0.086-0.546,0.164-1.093,0.164-1.671
		c0.008-6.614-5.341-11.986-11.963-11.994c-6.606-0.023-11.979,5.333-12.01,11.955c-0.008,2.257,0.656,4.365,1.749,6.161
		C59.536,193.151,64.494,188.676,70.53,188.692z"/>
</g>
<g style="opacity:0.2;">
	<polygon points="312.558,156.317 232.414,172.411 234.178,179.977 314.246,163.876 	"/>
</g>
<g style="opacity:0.2;">
	<polygon style="fill:#FFFFFF;" points="141.067,84.679 94.05,94.136 92.465,86.226 139.474,76.761 	"/>
</g>
<g style="opacity:0.5;">
	<polygon style="fill:#FFFFFF;" points="123.856,120.693 116.063,122.263 112.924,106.599 120.694,105.029 	"/>
</g>
<g style="opacity:0.7;">
	<polygon style="fill:#FFFFFF;" points="117.484,130.072 109.699,131.641 108.114,123.817 115.915,122.24 	"/>
</g>
<g style="opacity:0.2;">
	<polygon points="140.997,125.347 133.212,126.909 131.634,119.092 139.419,117.515 	"/>
</g>
<g style="opacity:0.2;">
	<polygon points="142.629,133.312 111.3,139.622 109.707,131.704 141.044,125.402 	"/>
</g>
<g style="opacity:0.7;">
	<polygon style="fill:#FFFFFF;" points="14.237,183.585 84.625,169.428 83.063,161.526 36.632,170.787 12.519,175.636 
		4.679,177.237 	"/>
</g>
<g style="opacity:0.2;">
	<polygon points="26.59,164.735 10.958,167.889 12.543,175.722 28.175,172.575 	"/>
</g>
<g style="opacity:0.2;">
	<polygon points="506.794,117.453 450.711,122.334 452.289,130.181 508.371,125.293 	"/>
</g>
<g style="opacity:0.5;">
	<rect x="260.768" y="233.478" style="fill:#FFFFFF;" width="8" height="31.984"/>
</g>
<g style="opacity:0.2;">
	<rect x="292.738" y="233.478" width="7.996" height="31.984"/>
</g>
<g style="opacity:0.2;">
	<polygon points="252.732,289.425 256.527,281.453 240.535,281.453 236.74,289.425 	"/>
</g>
<g style="opacity:0.2;">
	<rect x="268.768" y="281.448" width="15.992" height="7.973"/>
</g>
<g style="opacity:0.2;">
	<polygon points="316.697,289.425 312.902,281.453 296.91,281.453 300.705,289.425 	"/>
</g>
<g style="opacity:0.5;">
	<rect x="268.768" y="289.428" style="fill:#FFFFFF;" width="7.996" height="167.94"/>
</g>
<g>
	<path style="fill:#3A3847;" d="M280.105,225.479c-2.201,0-4.029-1.788-4.029-3.998s1.75-3.998,3.951-3.998h0.078
		c2.202,0,3.998,1.788,3.998,3.998S282.307,225.479,280.105,225.479z"/>
	<path style="fill:#3A3847;" d="M90.287,204.895c-1.858,0-3.53-1.312-3.912-3.209c-0.438-2.163,0.968-4.271,3.131-4.709
		l337.389-68.084c2.124-0.429,4.264,0.96,4.701,3.131c0.438,2.163-0.969,4.271-3.124,4.709L91.083,204.817
		C90.818,204.872,90.552,204.895,90.287,204.895z"/>
	<path style="fill:#3A3847;" d="M235.88,194.158c-1.858,0-3.529-1.312-3.912-3.209c-0.438-2.163,0.968-4.271,3.131-4.709
		l79.958-16.133c2.14-0.445,4.279,0.961,4.717,3.132c0.437,2.163-0.969,4.271-3.14,4.708l-79.957,16.133
		C236.412,194.135,236.146,194.158,235.88,194.158z"/>
	<path style="fill:#3A3847;" d="M79.206,150.031c-1.858,0-3.529-1.312-3.912-3.209c-0.438-2.163,0.969-4.271,3.131-4.709
		l337.381-68.085c2.123-0.445,4.279,0.96,4.716,3.131c0.438,2.163-0.968,4.271-3.139,4.709l-337.38,68.085
		C79.737,150.007,79.471,150.031,79.206,150.031z"/>
	<path style="fill:#3A3847;" d="M435.515,135.218c-1.858,0-3.529-1.312-3.92-3.209l-11.073-54.864
		c-0.437-2.163,0.953-4.271,3.124-4.709c2.124-0.445,4.279,0.969,4.716,3.132l11.073,54.864c0.438,2.163-0.953,4.271-3.123,4.708
		C436.047,135.194,435.781,135.218,435.515,135.218z"/>
	<path style="fill:#3A3847;" d="M424.442,80.354c-1.702,0-3.264-1.078-3.811-2.78c-0.671-2.101,0.484-4.35,2.593-5.029
		l68.951-22.083c2.093-0.664,4.342,0.484,5.029,2.593c0.671,2.101-0.5,4.35-2.593,5.028L425.66,80.166
		C425.255,80.291,424.848,80.354,424.442,80.354z"/>
	<path style="fill:#3A3847;" d="M435.515,135.218c-2.046,0-3.795-1.562-3.982-3.647c-0.188-2.194,1.437-4.139,3.639-4.334
		l72.121-6.411c2.016-0.125,4.123,1.421,4.326,3.631c0.203,2.194-1.421,4.139-3.623,4.333l-72.121,6.411
		C435.75,135.21,435.64,135.218,435.515,135.218z"/>
	<path style="fill:#3A3847;" d="M507.636,128.807c-1.858,0-3.529-1.312-3.92-3.209l-14.243-70.536
		c-0.437-2.163,0.953-4.271,3.124-4.709c2.14-0.445,4.279,0.961,4.717,3.131l14.242,70.537c0.438,2.163-0.952,4.271-3.123,4.708
		C508.168,128.783,507.902,128.807,507.636,128.807z"/>
	<path style="fill:#3A3847;" d="M449.602,124.215c-1.858,0-3.529-1.312-3.904-3.209l-7.918-39.192
		c-0.438-2.163,0.952-4.271,3.123-4.709c2.108-0.43,4.279,0.96,4.717,3.131l7.918,39.192c0.438,2.163-0.968,4.271-3.14,4.709
		C450.133,124.192,449.868,124.215,449.602,124.215z"/>
	<path style="fill:#3A3847;" d="M90.287,204.895c-1.858,0-3.53-1.312-3.912-3.209l-11.081-54.864
		c-0.438-2.163,0.961-4.271,3.131-4.709c2.14-0.438,4.271,0.96,4.708,3.131l11.081,54.864c0.437,2.163-0.961,4.271-3.132,4.708
		C90.818,204.872,90.552,204.895,90.287,204.895z"/>
	<path style="fill:#3A3847;" d="M140.325,129.525c-1.858,0-3.529-1.312-3.912-3.201l-1.585-7.833
		c-0.438-2.17,0.96-4.279,3.123-4.716c2.179-0.43,4.279,0.96,4.717,3.124l1.585,7.832c0.438,2.171-0.96,4.279-3.123,4.716
		C140.856,129.502,140.59,129.525,140.325,129.525z"/>
	<path style="fill:#3A3847;" d="M107.387,128.018c-1.858,0-3.529-1.312-3.912-3.209c-0.437-2.163,0.969-4.271,3.132-4.708
		l31.352-6.325c2.14-0.43,4.271,0.96,4.709,3.131c0.438,2.163-0.968,4.271-3.131,4.708l-31.352,6.325
		C107.919,127.995,107.653,128.018,107.387,128.018z"/>
	<path style="fill:#3A3847;" d="M108.973,135.858c-1.858,0-3.53-1.312-3.912-3.209l-1.585-7.84
		c-0.437-2.163,0.961-4.271,3.132-4.708c2.132-0.445,4.271,0.968,4.708,3.131l1.585,7.84c0.438,2.163-0.96,4.271-3.131,4.708
		C109.504,135.835,109.238,135.858,108.973,135.858z"/>
	<path style="fill:#3A3847;" d="M129.315,115.43c-1.858,0-3.53-1.312-3.912-3.209l-1.578-7.84c-0.437-2.163,0.969-4.271,3.132-4.708
		c2.116-0.445,4.271,0.968,4.708,3.131l1.577,7.84c0.438,2.163-0.968,4.271-3.131,4.708
		C129.845,115.407,129.58,115.43,129.315,115.43z"/>
	<path style="fill:#3A3847;" d="M113.447,117.617c-1.858,0-3.529-1.304-3.912-3.201l-1.39-6.856
		c-0.438-2.163,0.96-4.279,3.124-4.717c2.186-0.429,4.279,0.953,4.716,3.124l1.39,6.856c0.437,2.163-0.96,4.279-3.124,4.716
		C113.978,117.593,113.713,117.617,113.447,117.617z"/>
	<path style="fill:#3A3847;" d="M96.385,113.931c-1.858,0-3.53-1.312-3.912-3.209c-0.438-2.163,0.96-4.271,3.131-4.708l47.024-9.503
		c2.124-0.437,4.271,0.96,4.709,3.131c0.437,2.163-0.961,4.271-3.132,4.708l-47.024,9.503
		C96.916,113.908,96.651,113.931,96.385,113.931z"/>
	<path style="fill:#3A3847;" d="M96.385,113.931c-1.858,0-3.53-1.312-3.912-3.209l-4.756-23.52c-0.438-2.163,0.96-4.271,3.131-4.709
		c2.116-0.445,4.271,0.969,4.708,3.132l4.756,23.52c0.437,2.163-0.961,4.271-3.132,4.709
		C96.916,113.908,96.651,113.931,96.385,113.931z"/>
	<path style="fill:#3A3847;" d="M91.63,90.411c-1.858,0-3.529-1.312-3.912-3.209c-0.438-2.163,0.96-4.271,3.131-4.709l47.032-9.495
		c2.124-0.445,4.271,0.968,4.709,3.131s-0.96,4.271-3.131,4.708l-47.032,9.496C92.161,90.388,91.895,90.411,91.63,90.411z"/>
	<path style="fill:#3A3847;" d="M143.409,104.428c-1.858,0-3.53-1.312-3.912-3.209l-4.748-23.512
		c-0.438-2.163,0.96-4.271,3.131-4.709c2.124-0.445,4.271,0.968,4.709,3.131l4.748,23.512c0.437,2.163-0.961,4.271-3.132,4.708
		C143.94,104.404,143.675,104.428,143.409,104.428z"/>
	<path style="fill:#3A3847;" d="M68.313,209.096c-7.575,0-14.165-5.396-15.665-12.83c-0.843-4.185-0.008-8.457,2.351-12.01
		c2.366-3.561,5.974-5.989,10.167-6.833c8.691-1.71,17.125,4.038,18.835,12.518c0.843,4.186,0.008,8.457-2.358,12.018
		c-2.366,3.553-5.966,5.974-10.151,6.817C70.429,208.995,69.359,209.096,68.313,209.096z M68.344,185.1
		c-0.531,0-1.062,0.055-1.601,0.164c-2.093,0.421-3.896,1.632-5.075,3.412c-1.187,1.78-1.601,3.912-1.179,6.013
		c0.851,4.225,4.99,7.145,9.425,6.247c2.085-0.422,3.889-1.632,5.067-3.404c1.188-1.781,1.601-3.912,1.18-6.013
		C75.411,187.802,72.124,185.1,68.344,185.1z"/>
	<path style="fill:#3A3847;" d="M3.992,181.547c-1.858,0-3.529-1.312-3.912-3.209c-0.438-2.163,0.961-4.271,3.131-4.708
		l70.544-14.251c2.124-0.429,4.271,0.96,4.708,3.131c0.437,2.163-0.96,4.271-3.131,4.709l-70.544,14.25
		C4.523,181.524,4.257,181.547,3.992,181.547z"/>
	<path style="fill:#3A3847;" d="M32.259,200.311c-1.858,0-3.529-1.312-3.912-3.201c-0.437-2.171,0.961-4.279,3.124-4.717
		l15.672-3.17c2.187-0.445,4.279,0.968,4.717,3.123c0.437,2.171-0.961,4.279-3.124,4.717l-15.672,3.17
		C32.791,200.288,32.525,200.311,32.259,200.311z"/>
	<path style="fill:#3A3847;" d="M32.267,200.311c-0.765,0-1.53-0.218-2.209-0.663L1.79,180.883
		c-1.843-1.226-2.342-3.709-1.124-5.544c1.226-1.859,3.717-2.312,5.544-1.125l28.268,18.765c1.843,1.226,2.343,3.709,1.125,5.544
		C34.829,199.687,33.556,200.311,32.267,200.311z"/>
	<path style="fill:#3A3847;" d="M10.247,172.122c-1.858,0-3.529-1.312-3.912-3.209l-4.748-23.512
		c-0.438-2.163,0.96-4.271,3.131-4.708c2.132-0.422,4.271,0.96,4.708,3.131l4.748,23.512c0.438,2.163-0.96,4.271-3.131,4.708
		C10.778,172.098,10.512,172.122,10.247,172.122z"/>
	<path style="fill:#3A3847;" d="M5.499,148.61c-1.858,0-3.53-1.312-3.912-3.209c-0.438-2.163,0.968-4.271,3.131-4.708l15.672-3.163
		c2.14-0.445,4.271,0.969,4.709,3.132c0.437,2.163-0.969,4.271-3.131,4.708l-15.672,3.163C6.03,148.587,5.764,148.61,5.499,148.61z"
		/>
	<path style="fill:#3A3847;" d="M25.927,168.952c-1.859,0-3.53-1.312-3.913-3.202l-4.755-23.504
		c-0.438-2.171,0.96-4.279,3.123-4.717c2.179-0.445,4.279,0.969,4.717,3.124l4.755,23.504c0.437,2.171-0.96,4.279-3.124,4.717
		C26.458,168.928,26.192,168.952,25.927,168.952z"/>
	<path style="fill:#3A3847;" d="M299.861,225.479c-2.217,0-3.998-1.788-3.998-3.998c0-8.816-7.184-15.992-15.992-15.992
		c-8.823,0-15.992,7.176-15.992,15.992c0,2.21-1.792,3.998-4.002,3.998s-3.998-1.788-3.998-3.998
		c0-13.228,10.765-23.988,23.992-23.988c13.229,0,23.989,10.76,23.989,23.988C303.86,223.691,302.064,225.479,299.861,225.479z"/>
	<path style="fill:#3A3847;" d="M299.861,237.473h-39.984c-2.21,0-3.998-1.788-3.998-3.998s1.788-3.998,3.998-3.998h39.984
		c2.203,0,3.999,1.788,3.999,3.998S302.064,237.473,299.861,237.473z"/>
	<path style="fill:#3A3847;" d="M259.877,245.469c-2.21,0-3.998-1.788-3.998-3.998v-7.996c0-2.21,1.788-3.998,3.998-3.998
		s4.002,1.788,4.002,3.998v7.996C263.879,243.681,262.087,245.469,259.877,245.469z"/>
	<path style="fill:#3A3847;" d="M299.861,245.469c-2.217,0-3.998-1.788-3.998-3.998v-7.996c0-2.21,1.781-3.998,3.998-3.998
		c2.203,0,3.999,1.788,3.999,3.998v7.996C303.86,243.681,302.064,245.469,299.861,245.469z"/>
	<path style="fill:#3A3847;" d="M299.861,253.465h-39.984c-2.21,0-3.998-1.788-3.998-3.998s1.788-3.998,3.998-3.998h39.984
		c2.203,0,3.999,1.788,3.999,3.998S302.064,253.465,299.861,253.465z"/>
	<path style="fill:#3A3847;" d="M259.877,261.462c-2.21,0-3.998-1.788-3.998-3.998v-7.996c0-2.21,1.788-3.998,3.998-3.998
		s4.002,1.788,4.002,3.998v7.996C263.879,259.673,262.087,261.462,259.877,261.462z"/>
	<path style="fill:#3A3847;" d="M299.861,261.462c-2.217,0-3.998-1.788-3.998-3.998v-7.996c0-2.21,1.781-3.998,3.998-3.998
		c2.203,0,3.999,1.788,3.999,3.998v7.996C303.86,259.673,302.064,261.462,299.861,261.462z"/>
	<path style="fill:#3A3847;" d="M251.88,253.465h-15.992c-2.21,0-3.998-1.788-3.998-3.998s1.788-3.998,3.998-3.998h15.992
		c2.21,0,3.998,1.788,3.998,3.998S254.09,253.465,251.88,253.465z"/>
	<path style="fill:#3A3847;" d="M283.869,461.366c-2.217,0-3.998-1.788-3.998-3.998V289.449c0-2.211,1.781-3.998,3.998-3.998
		c2.203,0,3.998,1.787,3.998,3.998v167.919C287.867,459.578,286.072,461.366,283.869,461.366z"/>
	<path style="fill:#3A3847;" d="M267.877,461.366c-2.217,0-3.998-1.788-3.998-3.998V289.449c0-2.211,1.781-3.998,3.998-3.998
		c2.202,0,3.998,1.787,3.998,3.998v167.919C271.875,459.578,270.079,461.366,267.877,461.366z"/>
	<path style="fill:#3A3847;" d="M171.919,461.366c-0.578,0-1.164-0.125-1.718-0.391c-1.991-0.944-2.842-3.334-1.89-5.325
		l79.962-167.92c0.945-1.999,3.342-2.85,5.325-1.89c1.992,0.945,2.843,3.335,1.89,5.326l-79.961,167.919
		C174.847,460.522,173.411,461.366,171.919,461.366z"/>
	<path style="fill:#3A3847;" d="M155.927,461.366c-0.578,0-1.164-0.125-1.718-0.391c-1.991-0.944-2.842-3.334-1.89-5.325
		l79.962-167.92c0.945-1.999,3.342-2.85,5.325-1.89c1.991,0.945,2.843,3.335,1.89,5.326l-79.961,167.919
		C158.855,460.522,157.419,461.366,155.927,461.366z"/>
	<path style="fill:#3A3847;" d="M395.816,461.366c-1.5,0-2.937-0.844-3.608-2.28l-79.962-167.919
		c-0.952-1.991-0.109-4.381,1.891-5.326c1.967-0.96,4.373-0.109,5.325,1.89l79.962,167.92c0.952,1.991,0.094,4.381-1.891,5.325
		C396.971,461.241,396.393,461.366,395.816,461.366z"/>
	<path style="fill:#3A3847;" d="M379.823,461.366c-1.499,0-2.936-0.844-3.607-2.28l-79.962-167.919
		c-0.952-1.991-0.109-4.381,1.891-5.326c1.967-0.96,4.372-0.109,5.325,1.89l79.962,167.92c0.952,1.991,0.094,4.381-1.891,5.325
		C380.979,461.241,380.401,461.366,379.823,461.366z"/>
	<path style="fill:#3A3847;" d="M323.85,269.458h-95.958c-2.21,0-3.998-1.788-3.998-3.998s1.788-3.998,3.998-3.998h95.958
		c2.202,0,3.998,1.788,3.998,3.998S326.052,269.458,323.85,269.458z"/>
	<path style="fill:#3A3847;" d="M323.85,285.451c-2.218,0-3.998-1.789-3.998-3.998c0-2.211,1.78-3.998,3.998-3.998
		c2.202,0,3.998-1.797,3.998-3.999s-1.796-3.998-3.998-3.998c-2.218,0-3.998-1.788-3.998-3.998s1.78-3.998,3.998-3.998
		c6.606,0,11.994,5.38,11.994,11.994S330.457,285.451,323.85,285.451z"/>
	<path style="fill:#3A3847;" d="M227.892,285.451c-6.614,0-11.994-5.381-11.994-11.995s5.38-11.994,11.994-11.994
		c2.21,0,3.998,1.788,3.998,3.998s-1.788,3.998-3.998,3.998c-2.202,0-3.998,1.796-3.998,3.998s1.796,3.999,3.998,3.999
		c2.21,0,3.998,1.787,3.998,3.998C231.89,283.662,230.102,285.451,227.892,285.451z"/>
	<path style="fill:#3A3847;" d="M323.85,285.451h-95.958c-2.21,0-3.998-1.789-3.998-3.998c0-2.211,1.788-3.998,3.998-3.998h95.958
		c2.202,0,3.998,1.787,3.998,3.998C327.848,283.662,326.052,285.451,323.85,285.451z"/>
	<path style="fill:#3A3847;" d="M339.842,421.384h-39.981c-2.217,0-3.998-1.787-3.998-3.998c0-2.209,1.781-3.998,3.998-3.998h39.981
		c2.202,0,3.998,1.789,3.998,3.998C343.84,419.597,342.045,421.384,339.842,421.384z"/>
	<path style="fill:#3A3847;" d="M251.88,421.384H211.9c-2.21,0-3.998-1.787-3.998-3.998c0-2.209,1.788-3.998,3.998-3.998h39.98
		c2.21,0,3.998,1.789,3.998,3.998C255.879,419.597,254.09,421.384,251.88,421.384z"/>
	<path style="fill:#3A3847;" d="M235.888,194.158c-1.827,0-3.475-1.25-3.896-3.1l-4.092-17.819
		c-0.492-2.155,0.851-4.303,2.999-4.795c2.21-0.516,4.303,0.851,4.794,2.999l4.092,17.82c0.492,2.155-0.851,4.303-2.998,4.794
		C236.482,194.127,236.177,194.158,235.888,194.158z"/>
	<path style="fill:#3A3847;" d="M315.854,178.025c-1.843,0-3.499-1.265-3.904-3.131l-3.968-17.851
		c-0.483-2.155,0.875-4.287,3.03-4.771c2.187-0.469,4.295,0.89,4.779,3.038l3.967,17.851c0.468,2.155-0.891,4.287-3.046,4.771
		C316.431,177.994,316.134,178.025,315.854,178.025z"/>
	<path style="fill:#3A3847;" d="M299.861,205.489c-2.217,0-3.998-1.788-3.998-3.998v-14.563c0-2.21,1.781-3.998,3.998-3.998
		c2.203,0,3.999,1.788,3.999,3.998v14.563C303.86,203.701,302.064,205.489,299.861,205.489z"/>
	<path style="fill:#3A3847;" d="M259.877,205.489c-2.21,0-3.998-1.788-3.998-3.998v-7.286c0-2.209,1.788-3.998,3.998-3.998
		s4.002,1.789,4.002,3.998v7.286C263.879,203.701,262.087,205.489,259.877,205.489z"/>
	<path style="fill:#3A3847;" d="M147.931,253.465c-1.562,0-3.053-0.921-3.694-2.459c-0.843-2.038,0.117-4.381,2.155-5.232
		l95.954-39.98c2.022-0.812,4.381,0.109,5.231,2.155c0.844,2.038-0.117,4.381-2.155,5.232l-95.954,39.98
		C148.969,253.364,148.446,253.465,147.931,253.465z"/>
</g>
<g>
</g>
<g>
</g>
<g>
</g>
<g>
</g>
<g>
</g>
<g>
</g>
<g>
</g>
<g>
</g>
<g>
</g>
<g>
</g>
<g>
</g>
<g>
</g>
<g>
</g>
<g>
</g>
<g>
</g>
</svg>
