<svg height="512pt" viewBox="-109 0 512 512.001" width="512pt" xmlns="http://www.w3.org/2000/svg"><path d="m294.261719 87.371094c0 26.0625-17.8125 47.976562-41.929688 54.21875-4.492187 1.164062-9.210937 1.78125-14.070312 1.78125-30.9375 0-56.003907-25.074219-56.003907-56.003906 0-8.835938 2.050782-17.191407 5.699219-24.628907-9.066406-6.183593-15.019531-16.585937-15.019531-28.394531 0-3.460938.515625-6.796875 1.460938-9.941406 4.265624-14.121094 17.378906-24.402344 32.882812-24.402344 18.007812 0 32.761719 13.847656 34.222656 31.472656 29.414063 1.679688 52.757813 26.0625 52.757813 55.898438zm0 0" fill="#f82700"/><path d="m252.433594 126.125v9.777344c0 1.90625-.027344 3.800781-.101563 5.6875-4.492187 1.164062-9.210937 1.78125-14.070312 1.78125-30.9375 0-56.003907-25.074219-56.003907-56.003906 0-8.835938 2.050782-17.191407 5.699219-24.628907-9.066406-6.183593-15.019531-16.585937-15.019531-28.394531 0-3.460938.515625-6.796875 1.460938-9.941406 44.894531 12.046875 78.035156 53.078125 78.035156 101.722656zm0 0" fill="#d80000"/><path d="m106.304688 62.738281c3.648437 7.4375 5.695312 15.792969 5.695312 24.632813 0 30.925781-25.0625 56-56 56-4.863281 0-9.582031-.617188-14.070312-1.78125-24.117188-6.242188-41.929688-28.15625-41.929688-54.21875 0-29.835938 23.34375-54.21875 52.757812-55.898438 1.460938-17.625 16.210938-31.472656 34.21875-31.472656 15.507813 0 28.621094 10.28125 32.886719 24.40625.945313 3.140625 1.460938 6.480469 1.460938 9.941406 0 11.804688-5.953125 22.210938-15.019531 28.390625zm0 0" fill="#f82700"/><path d="m106.304688 62.738281c3.648437 7.4375 5.695312 15.792969 5.695312 24.632813 0 30.925781-25.0625 56-56 56-4.863281 0-9.582031-.617188-14.070312-1.78125-.074219-1.886719-.105469-3.78125-.105469-5.6875v-9.777344c0-48.644531 33.140625-89.675781 78.039062-101.71875.945313 3.140625 1.460938 6.480469 1.460938 9.941406 0 11.804688-5.953125 22.210938-15.019531 28.390625zm0 0" fill="#d80000"/><path d="m292.582031 369.835938v131.863281c0 5.6875-4.617187 10.300781-10.300781 10.300781h-270.300781c-5.6875 0-10.300781-4.613281-10.300781-10.300781v-131.863281c0-52.304688 42.402343-94.695313 94.703124-94.695313h101.496094c52.300782 0 94.703125 42.390625 94.703125 94.695313zm0 0" fill="#fa0"/><path d="m54.558594 363.4375v148.5625h-15.453125v-148.5625c0-4.265625 3.460937-7.726562 7.726562-7.726562 4.277344 0 7.726563 3.460937 7.726563 7.726562zm0 0" fill="#ff8b00"/><path d="m292.578125 369.839844v131.859375c0 5.6875-4.613281 10.300781-10.300781 10.300781h-42.578125v-142.160156c0-52.308594-42.394531-94.703125-94.703125-94.703125h52.890625c52.296875 0 94.691406 42.394531 94.691406 94.703125zm0 0" fill="#ff8b00"/><path d="m292.582031 405.046875v96.652344c0 5.6875-4.617187 10.300781-10.300781 10.300781h-42.578125v-106.953125zm0 0" fill="#e0e0d1"/><path d="m239.699219 405.042969h52.882812v12.714843h-52.882812zm0 0" fill="#cecdba"/><path d="m54.558594 405.046875v106.953125h-42.578125c-5.6875 0-10.300781-4.613281-10.300781-10.300781v-96.652344zm0 0" fill="#f5f6e3"/><path d="m39.105469 405.046875h15.453125v106.953125h-15.453125zm0 0" fill="#e0e0d1"/><path d="m1.679688 405.042969h52.882812v12.714843h-52.882812zm0 0" fill="#e0e0d1"/><path d="m239.703125 405.046875h15.453125v106.953125h-15.453125zm0 0" fill="#cecdba"/><path d="m268.15625 259.078125c0 23.6875-19.203125 42.898437-42.898438 42.898437-4.097656 0-8.054687-.585937-11.804687-1.660156-7.375 12.992188-21.324219 21.769532-37.332031 21.769532-11.179688 0-21.359375-4.285157-28.992188-11.289063-7.632812 7.003906-17.808594 11.289063-28.988281 11.289063-16.007813 0-29.957031-8.777344-37.332031-21.769532-3.75 1.074219-7.707032 1.660156-11.808594 1.660156-23.691406 0-42.894531-19.210937-42.894531-42.898437 0-22.125 16.75-40.351563 38.261719-42.65625 1.523437-.167969 3.066406-.25 4.632812-.25 16.011719 0 29.960938 8.777344 37.324219 21.777344 3.761719-1.082031 7.71875-1.667969 11.816406-1.667969 11.179687 0 21.355469 4.285156 28.988281 11.292969 7.636719-7.007813 17.8125-11.292969 28.992188-11.292969 4.097656 0 8.054687.585938 11.8125 1.667969 7.367187-13 21.316406-21.777344 37.324218-21.777344 1.566407 0 3.113282.082031 4.636719.25 21.511719 2.304687 38.261719 20.53125 38.261719 42.65625zm0 0" fill="#00d8e0"/><g fill="#00bdc6"><path d="m229.894531 216.421875c-2.285156 3.574219-4.738281 7.023437-7.34375 10.332031-19.945312 25.25-46.730469 39.15625-75.421875 39.15625-28.6875 0-55.472656-13.90625-75.417968-39.15625-2.605469-3.308594-5.058594-6.757812-7.34375-10.332031 1.523437-.167969 3.066406-.25 4.632812-.25 16.011719 0 29.960938 8.777344 37.324219 21.777344 3.761719-1.082031 7.71875-1.667969 11.816406-1.667969 11.179687 0 21.355469 4.285156 28.988281 11.292969 7.636719-7.007813 17.8125-11.292969 28.992188-11.292969 4.097656 0 8.054687.585938 11.8125 1.667969 7.367187-13 21.316406-21.777344 37.324218-21.777344 1.566407 0 3.113282.085937 4.636719.25zm0 0"/><path d="m87.789062 266.558594c-.292968 0-.589843-.019532-.886718-.050782-4.242188-.488281-7.285156-4.320312-6.796875-8.558593 1.863281-16.222657 15.582031-23.1875 23.394531-24.746094 4.183594-.832031 8.253906 1.882813 9.085938 6.070313.832031 4.164062-1.855469 8.214843-6.007813 9.074218-1.078125.238282-10.101563 2.496094-11.121094 11.363282-.453125 3.941406-3.792969 6.847656-7.667969 6.847656zm0 0"/><path d="m206.46875 266.558594c-3.871094 0-7.210938-2.90625-7.664062-6.847656-1.0625-9.253907-10.964844-11.332032-11.0625-11.351563-4.183594-.832031-6.902344-4.902344-6.066407-9.085937.832031-4.183594 4.902344-6.902344 9.085938-6.070313 7.8125 1.558594 21.53125 8.523437 23.394531 24.746094.484375 4.238281-2.558594 8.070312-6.796875 8.558593-.296875.035157-.597656.050782-.890625.050782zm0 0"/></g><path d="m284.121094 150.40625c0 16.679688-13.523438 30.199219-30.203125 30.199219-16.675781 0-30.199219-13.519531-30.199219-30.199219s13.523438-30.199219 30.199219-30.199219c16.679687 0 30.203125 13.519531 30.203125 30.199219zm0 0" fill="#e0e0d1"/><path d="m70.542969 150.40625c0 16.679688-13.523438 30.199219-30.203125 30.199219-16.675782 0-30.199219-13.519531-30.199219-30.199219s13.523437-30.199219 30.199219-30.199219c16.679687 0 30.203125 13.519531 30.203125 30.199219zm0 0" fill="#e0e0d1"/><path d="m147.132812 33.183594c51.332032 0 92.941407 41.609375 92.941407 92.9375v9.777344c0 64.972656-41.617188 117.652343-92.945313 117.652343s-92.941406-52.679687-92.941406-117.652343v-9.777344c0-51.328125 41.609375-92.9375 92.9375-92.9375zm0 0" fill="#f5f6e3"/><path d="m104.851562 156.070312c-4.269531 0-7.726562-3.457031-7.726562-7.722656v-.964844c0-4.269531 3.457031-7.726562 7.726562-7.726562 4.265626 0 7.726563 3.457031 7.726563 7.726562v.964844c0 4.265625-3.460937 7.722656-7.726563 7.722656zm0 0" fill="#6c6c65"/><path d="m189.410156 156.070312c-4.265625 0-7.726562-3.457031-7.726562-7.722656v-.964844c0-4.269531 3.460937-7.726562 7.726562-7.726562s7.726563 3.457031 7.726563 7.726562v.964844c0 4.265625-3.460938 7.722656-7.726563 7.722656zm0 0" fill="#6c6c65"/><path d="m173.359375 332.214844c0 14.484375-11.742187 26.226562-26.230469 26.226562-14.484375 0-26.226562-11.742187-26.226562-26.226562 0-14.488282 11.742187-26.230469 26.226562-26.230469 14.488282 0 26.230469 11.742187 26.230469 26.230469zm0 0" fill="#f5458a"/><path d="m173.359375 428.878906c0 14.484375-11.742187 26.230469-26.230469 26.230469-14.484375 0-26.226562-11.746094-26.226562-26.230469s11.742187-26.230468 26.226562-26.230468c14.488282 0 26.230469 11.746093 26.230469 26.230468zm0 0" fill="#f5458a"/><path d="m175.542969 180.605469c0 15.691406-12.71875 28.414062-28.414063 28.414062-15.691406 0-28.410156-12.722656-28.410156-28.414062 0-15.691407 12.71875-28.414063 28.410156-28.414063 15.695313 0 28.414063 12.722656 28.414063 28.414063zm0 0" fill="#f5458a"/><path d="m147.128906 237.453125c-41.308594 0-74.914062-38.246094-74.914062-85.261719 0-4.265625 3.457031-7.722656 7.726562-7.722656 4.265625 0 7.722656 3.457031 7.722656 7.722656 0 38.492188 26.675782 69.808594 59.464844 69.808594 32.789063 0 59.464844-31.316406 59.464844-69.808594 0-4.265625 3.457031-7.722656 7.726562-7.722656 4.265626 0 7.726563 3.457031 7.726563 7.722656 0 47.015625-33.605469 85.261719-74.917969 85.261719zm0 0" fill="#f82700"/></svg>