<?xml version="1.0" encoding="iso-8859-1"?>
<!-- Generator: Adobe Illustrator 19.0.0, SVG Export Plug-In . SVG Version: 6.00 Build 0)  -->
<svg version="1.1" id="Capa_1" xmlns="http://www.w3.org/2000/svg" xmlns:xlink="http://www.w3.org/1999/xlink" x="0px" y="0px"
	 viewBox="0 0 511.754 511.754" style="enable-background:new 0 0 511.754 511.754;" xml:space="preserve">
<path style="fill:#656D78;" d="M483.768,341.273h-31.984c8.824,0,15.992-7.16,15.992-15.992s-7.168-15.992-15.992-15.992H419.8
	c8.823,0,15.992-7.161,15.992-15.992c0-8.832-7.169-15.992-15.992-15.992h-47.978c8.824,0,15.992-7.161,15.992-15.993
	c0-8.831-7.168-15.992-15.992-15.992h87.958c8.824,0,15.992-7.16,15.992-15.992s-7.168-15.992-15.992-15.992H419.8
	c8.823,0,15.992-7.161,15.992-15.992c0-8.832-7.169-15.992-15.992-15.992h-15.993c8.823,0,15.992-7.161,15.992-15.993
	s-7.169-15.992-15.992-15.992h79.961c8.824,0,15.992-7.161,15.992-15.993c0-8.831-7.168-15.992-15.992-15.992h-31.984
	c8.824,0,15.992-7.16,15.992-15.992s-7.168-15.992-15.992-15.992H419.8c8.823,0,15.992-7.161,15.992-15.992
	c0-8.832-7.169-15.992-15.992-15.992h-23.988c8.823,0,15.992-7.161,15.992-15.993s-7.169-15.992-15.992-15.992H155.925
	c-8.839,0-15.993,7.161-15.993,15.992s7.153,15.993,15.993,15.993H99.952c-8.839,0-15.992,7.16-15.992,15.992
	s7.153,15.992,15.992,15.992H83.96c-8.84,0-15.992,7.161-15.992,15.992c0,8.832,7.152,15.992,15.992,15.992h47.977
	c-8.839,0-15.992,7.161-15.992,15.992c0,8.832,7.153,15.993,15.992,15.993H43.979c-8.839,0-15.992,7.161-15.992,15.992
	s7.153,15.993,15.992,15.993H83.96c-8.84,0-15.992,7.16-15.992,15.992s7.152,15.992,15.992,15.992H43.979
	c-8.839,0-15.992,7.161-15.992,15.992c0,8.832,7.153,15.992,15.992,15.992H27.987c-8.839,0-15.993,7.161-15.993,15.992
	c0,8.832,7.153,15.993,15.993,15.993h39.981c-8.84,0-15.992,7.16-15.992,15.992c0,8.831,7.152,15.992,15.992,15.992H51.976
	c-8.84,0-15.993,7.16-15.993,15.992s7.153,15.992,15.993,15.992h79.961c-8.839,0-15.992,7.16-15.992,15.992
	s7.153,15.992,15.992,15.992H99.953c-8.839,0-15.992,7.161-15.992,15.992c0,8.832,7.153,15.992,15.992,15.992h271.869
	c8.824,0,15.992-7.16,15.992-15.992c0-8.831-7.168-15.992-15.992-15.992h111.946c8.824,0,15.992-7.16,15.992-15.992
	S492.592,341.273,483.768,341.273z"/>
<path style="fill:#AC92EC;" d="M475.725,451.783c0,31.984,0,55.973,0,55.973H255.83l133.382-129.055
	c0.077,0,0.155,0.078,0.319,0.156c13.674,6.957,27.745,13.032,38.217,16.952C459.732,407.726,475.725,419.798,475.725,451.783z"/>
<path style="fill:#A0D468;" d="M122.535,378.615c25.191-12.791,49.336-28.463,49.336-38.778v-39.263
	c33.827,37.506,69.81,63.251,83.959,63.251c14.157,0,50.141-25.745,83.96-63.251v39.263c0,10.315,24.23,25.987,49.422,38.864
	L255.83,507.756L122.621,378.857L122.535,378.615z"/>
<g style="opacity:0.5;">
	<path style="fill:#FFFFFF;" d="M51.929,467.775c0-31.984,15.992-44.057,47.977-55.974c10.401-3.92,24.074-9.839,37.662-16.71
		c0.32-0.164,0.64-0.32,0.96-0.484c25.191-12.791,49.336-28.463,49.336-38.778v-38.56c-5.326-5.248-10.683-10.808-15.992-16.695
		v39.263c0,10.315-24.145,25.987-49.336,38.778c-0.32,0.164-0.641,0.32-0.96,0.484c-13.587,6.871-27.26,12.79-37.662,16.71
		c-31.984,11.916-47.977,23.988-47.977,55.974c0,31.984,0,55.973,0,55.973H51.93C51.929,497.761,51.929,483.768,51.929,467.775z"/>
</g>
<g style="opacity:0.2;">
	<path d="M459.732,467.775c0-31.984-15.992-44.057-47.977-55.974c-10.401-3.92-24.074-9.839-37.662-16.71
		c-0.32-0.164-0.641-0.32-0.961-0.484c-25.19-12.791-49.335-28.463-49.335-38.778v-38.56c5.325-5.248,10.683-10.808,15.992-16.695
		v39.263c0,10.315,24.145,25.987,49.336,38.778c0.319,0.164,0.64,0.32,0.96,0.484c13.588,6.871,27.261,12.79,37.662,16.71
		c31.984,11.916,47.977,23.988,47.977,55.974c0,31.984,0,55.973,0,55.973h-15.992C459.732,497.761,459.732,483.768,459.732,467.775z
		"/>
</g>
<path style="fill:#FFCE54;" d="M171.871,339.837c0,10.315-24.145,25.987-49.336,38.778c-0.32,0.164-0.641,0.32-0.96,0.484
	l-0.078-0.242l-6.239-15.032c0,0-15.352-55.974-79.321-71.966c0,0,15.352-15.992,95.313-15.992h20.077
	c6.637,8.637,13.509,16.953,20.545,24.707v39.263H171.871z"/>
<g style="opacity:0.5;">
	<path style="fill:#FFFFFF;" d="M131.25,355.829c0,0-15.25-55.419-78.462-71.708c-13.11,3.912-16.851,7.738-16.851,7.738
		c63.969,15.992,79.321,71.966,79.321,71.966l6.239,15.032l0.078,0.242c0.32-0.164,0.64-0.32,0.96-0.484
		c5.06-2.569,10.065-5.256,14.852-7.988L131.25,355.829z"/>
</g>
<path style="fill:#AC92EC;" d="M122.621,378.857L255.83,507.755H35.936c0,0,0-23.988,0-55.973s15.993-44.058,47.977-55.974
	c10.401-3.92,24.074-9.839,37.662-16.71c0.32-0.164,0.64-0.32,0.96-0.484L122.621,378.857z"/>
<g>
	<path style="fill:#FFCE54;" d="M379.771,275.867c79.962,0,95.954,15.992,95.954,15.992c-63.969,15.992-79.961,71.966-79.961,71.966
		l-5.912,14.235l-0.64,0.641c-25.191-12.877-49.422-28.549-49.422-38.864v-39.263c6.958-7.754,13.915-16.07,20.475-24.707
		L379.771,275.867L379.771,275.867z"/>
	<path style="fill:#FFCE54;" d="M267.824,217.333c23.988-77.002,111.946-59.729,111.946-59.729S355.782,234.684,267.824,217.333z"/>
</g>
<g style="opacity:0.2;">
	<path d="M380.411,355.829c0,0,15.251-55.419,78.462-71.708c13.111,3.912,16.852,7.738,16.852,7.738
		c-63.969,15.992-79.321,71.966-79.321,71.966l-6.239,15.032l-0.078,0.242c-0.32-0.164-0.641-0.32-0.96-0.484
		c-5.061-2.569-10.065-5.256-14.853-7.988L380.411,355.829z"/>
</g>
<g style="opacity:0.5;">
	<path style="fill:#FFFFFF;" d="M377.1,164.319c1.859-4.115,2.671-6.715,2.671-6.715s-87.958-17.273-111.946,59.729
		c3.53,0.695,6.911,1.187,10.237,1.593C298.911,164.702,353.838,162.594,377.1,164.319z"/>
</g>
<g style="opacity:0.2;">
	<path d="M369.104,156.323c-7.863,17.46-34.646,62.415-99.038,54.606c-0.788,2.062-1.546,4.186-2.241,6.403
		c87.958,17.351,111.946-59.729,111.946-59.729S375.702,156.808,369.104,156.323z"/>
</g>
<g style="opacity:0.3;">
	<path style="fill:#FFFFFF;" d="M99.905,411.802c10.401-3.92,24.074-9.839,37.662-16.71c0.32-0.164,0.64-0.32,0.96-0.484
		c0.078-0.039,0.164-0.086,0.242-0.125l-16.148-15.625l-0.086-0.242c-0.32,0.164-0.641,0.32-0.96,0.484
		c-13.587,6.871-27.26,12.79-37.662,16.71c-31.984,11.916-47.977,23.988-47.977,55.974c0,31.984,0,55.973,0,55.973h15.993
		c0-9.995,0-23.988,0-39.98C51.929,435.791,67.921,423.719,99.905,411.802z"/>
</g>
<path style="fill:#FFCE54;" d="M131.89,157.604c0,0,87.958-17.273,111.946,59.729C155.878,234.684,131.89,157.604,131.89,157.604z"
	/>
<path style="fill:#A0D468;" d="M255.83,3.998c86.443,0,156.487,48.773,156.487,147.047c0,42.065-23.191,87.083-52.053,124.822
	c-6.56,8.637-13.517,16.953-20.475,24.707c-33.819,37.506-69.803,63.251-83.96,63.251c-14.149,0-50.132-25.745-83.959-63.251
	c-7.036-7.754-13.908-16.07-20.545-24.707c-28.869-37.739-52.062-82.757-52.062-124.822C99.265,52.772,169.396,3.998,255.83,3.998z
	 M379.771,157.604c0,0-87.958-17.273-111.946,59.729C355.782,234.684,379.771,157.604,379.771,157.604z M243.836,217.333
	c-23.988-77.002-111.946-59.729-111.946-59.729S155.878,234.684,243.836,217.333z"/>
<g style="opacity:0.5;">
	<path style="fill:#FFFFFF;" d="M195.859,300.574c-7.036-7.754-13.907-16.07-20.545-24.707
		c-28.869-37.739-52.061-82.757-52.061-124.822c0-93.666,63.75-142.26,144.571-146.617c-3.975-0.219-7.941-0.43-11.994-0.43
		c-86.435,0-156.565,48.773-156.565,147.047c0,42.065,23.192,87.083,52.062,124.822c6.637,8.637,13.509,16.953,20.545,24.707
		c33.827,37.506,69.81,63.251,83.959,63.251c3.054,0,7.161-1.257,11.994-3.514C250.216,352.12,222.401,329.998,195.859,300.574z"/>
</g>
<g style="opacity:0.2;">
	<path d="M315.802,300.574c7.035-7.754,13.907-16.07,20.545-24.707c28.868-37.739,52.061-82.757,52.061-124.822
		c0-93.666-63.751-142.26-144.571-146.617c3.975-0.219,7.941-0.43,11.994-0.43c86.436,0,156.565,48.773,156.565,147.047
		c0,42.065-23.191,87.083-52.061,124.822c-6.638,8.637-13.509,16.953-20.545,24.707c-26.511,29.385-54.341,51.554-71.95,59.768
		l-12.01-6.762C272.775,342.757,294.694,323.977,315.802,300.574z"/>
</g>
<g style="opacity:0.5;">
	<path style="fill:#FFFFFF;" d="M134.561,164.319c-1.858-4.115-2.671-6.715-2.671-6.715s87.958-17.273,111.946,59.729
		c-3.529,0.695-6.911,1.187-10.237,1.593C212.75,164.702,157.823,162.594,134.561,164.319z"/>
</g>
<g style="opacity:0.2;">
	<path d="M142.557,156.323c7.863,17.46,34.647,62.415,99.038,54.606c0.789,2.062,1.546,4.186,2.241,6.403
		c-87.958,17.351-111.946-59.729-111.946-59.729S135.958,156.808,142.557,156.323z"/>
</g>
<path style="fill:#AC92EC;" d="M83.905,27.986c0,4.42-3.58,7.996-7.996,7.996s-7.996-3.576-7.996-7.996s3.58-7.996,7.996-7.996
	S83.905,23.566,83.905,27.986z"/>
<g>
	<path style="fill:#3A3847;" d="M475.725,511.754H35.928c-2.21,0-3.998-1.788-3.998-3.998v-55.973
		c0-34.32,17.777-47.47,50.577-59.722c38.423-14.36,85.357-41.285,85.357-52.225c0-2.21,1.789-3.998,3.999-3.998
		c2.209,0,3.998,1.788,3.998,3.998c0,21.474-71.427,52.568-90.555,59.721c-30.747,11.479-45.38,22.224-45.38,52.226v51.975h431.8
		v-51.975c0-30.002-14.634-40.746-45.377-52.226c-19.131-7.152-90.558-38.247-90.558-59.721c0-2.21,1.788-3.998,3.998-3.998
		s3.998,1.788,3.998,3.998c0,10.939,46.938,37.864,85.357,52.225c32.805,12.252,50.577,25.401,50.577,59.722v55.973
		C479.723,509.966,477.935,511.754,475.725,511.754z"/>
	<path style="fill:#3A3847;" d="M255.83,367.823c-32.137,0-160.517-115.624-160.517-216.771C95.313,59.292,158.318,0,255.83,0
		c97.5,0,160.501,59.292,160.501,151.052C416.331,252.199,287.963,367.823,255.83,367.823z M255.83,7.996
		c-112.453,0-152.521,73.902-152.521,143.056c0,98.953,127.334,208.775,152.521,208.775c25.184,0,152.505-109.822,152.505-208.775
		C408.335,81.898,368.269,7.996,255.83,7.996z"/>
	<path style="fill:#3A3847;" d="M171.863,343.835c-2.21,0-3.999-1.788-3.999-3.998v-39.271c0-2.21,1.789-3.998,3.999-3.998
		c2.209,0,3.998,1.788,3.998,3.998v39.271C175.861,342.047,174.073,343.835,171.863,343.835z"/>
	<path style="fill:#3A3847;" d="M339.79,343.835c-2.21,0-3.998-1.788-3.998-3.998v-39.278c0-2.21,1.788-3.998,3.998-3.998
		s3.998,1.788,3.998,3.998v39.278C343.788,342.047,342,343.835,339.79,343.835z"/>
	<path style="fill:#3A3847;" d="M36.167,215.897c-2.206,0-4.037-1.789-4.037-3.998c0-2.21,1.749-3.998,3.959-3.998h0.078
		c2.209,0,3.998,1.788,3.998,3.998C40.165,214.108,38.376,215.897,36.167,215.897z"/>
	<path style="fill:#3A3847;" d="M443.982,231.889c-2.21,0-4.037-1.788-4.037-3.998s1.749-3.998,3.951-3.998h0.086
		c2.201,0,3.998,1.788,3.998,3.998S446.184,231.889,443.982,231.889z"/>
	<path style="fill:#3A3847;" d="M451.979,47.977c-2.21,0-4.037-1.788-4.037-3.998c0-2.209,1.749-3.998,3.951-3.998h0.086
		c2.202,0,3.998,1.789,3.998,3.998C455.977,46.189,454.181,47.977,451.979,47.977z"/>
	<path style="fill:#3A3847;" d="M76.148,119.942c-2.206,0-4.037-1.788-4.037-3.998s1.749-3.998,3.959-3.998h0.078
		c2.21,0,3.998,1.788,3.998,3.998S78.357,119.942,76.148,119.942z"/>
	<path style="fill:#3A3847;" d="M483.721,167.919c-2.21,0-3.998-1.788-3.998-3.998v-31.984c0-2.21,1.788-3.998,3.998-3.998
		s3.998,1.788,3.998,3.998v31.984C487.719,166.131,485.931,167.919,483.721,167.919z"/>
	<path style="fill:#3A3847;" d="M491.717,151.927h-15.992c-2.21,0-3.998-1.788-3.998-3.998s1.788-3.998,3.998-3.998h15.992
		c2.21,0,3.998,1.788,3.998,3.998S493.927,151.927,491.717,151.927z"/>
	<path style="fill:#3A3847;" d="M243.828,221.362c-1.706,0-3.283-1.093-3.818-2.811c-22.626-72.653-103.907-57.73-107.362-57.051
		c-2.202,0.39-4.268-1.007-4.689-3.163c-0.421-2.163,0.988-4.264,3.155-4.686c0.917-0.179,91.764-17.007,116.533,62.525
		c0.656,2.108-0.523,4.35-2.631,5.005C244.621,221.308,244.223,221.362,243.828,221.362z"/>
	<path style="fill:#3A3847;" d="M219.242,223.877c-70.017,0-90.952-64.391-91.179-65.117c-0.656-2.108,0.52-4.342,2.628-4.998
		c2.093-0.664,4.346,0.508,5.005,2.616c0.949,3.006,24.137,73.449,107.358,57.066c2.19-0.484,4.268,0.984,4.697,3.146
		c0.426,2.171-0.987,4.271-3.15,4.693C235.508,223.072,227.067,223.877,219.242,223.877z"/>
	<path style="fill:#3A3847;" d="M267.824,221.362c-0.391,0-0.796-0.055-1.187-0.18c-2.108-0.656-3.288-2.897-2.632-5.005
		c24.777-79.547,115.617-62.704,116.53-62.525c2.171,0.422,3.576,2.522,3.154,4.686c-0.413,2.155-2.499,3.537-4.685,3.163
		c-3.437-0.664-84.732-15.594-107.363,57.051C271.112,220.269,269.527,221.362,267.824,221.362z"/>
	<path style="fill:#3A3847;" d="M292.406,223.877c-7.824,0-16.258-0.805-25.354-2.593c-2.163-0.422-3.577-2.522-3.147-4.693
		c0.422-2.17,2.483-3.623,4.693-3.146c83.46,16.398,106.426-54.052,107.354-57.059c0.656-2.101,2.866-3.303,5.006-2.632
		c2.108,0.656,3.287,2.897,2.632,5.006C383.363,159.486,362.42,223.877,292.406,223.877z"/>
	<path style="fill:#3A3847;" d="M267.824,303.854h-23.996c-2.21,0-3.998-1.788-3.998-3.998c0-2.209,1.788-3.998,3.998-3.998h23.996
		c2.21,0,3.998,1.789,3.998,3.998C271.822,302.065,270.034,303.854,267.824,303.854z"/>
	<path style="fill:#3A3847;" d="M395.764,367.823c-0.367,0-0.734-0.055-1.102-0.156c-2.124-0.609-3.35-2.819-2.741-4.942
		c0.68-2.375,17.375-58.379,82.835-74.746c2.109-0.539,4.311,0.766,4.85,2.913c0.531,2.14-0.766,4.311-2.912,4.849
		c-60.846,15.212-76.932,68.646-77.088,69.186C399.098,366.684,397.504,367.823,395.764,367.823z"/>
	<path style="fill:#3A3847;" d="M475.725,295.857c-1,0-1.999-0.375-2.764-1.116c-0.383-0.336-17.641-14.876-93.19-14.876
		c-2.21,0-3.998-1.788-3.998-3.998s1.788-3.998,3.998-3.998c79.329,0,97.024,15.406,98.781,17.164c1.562,1.562,1.562,4.092,0,5.653
		C477.771,295.467,476.748,295.857,475.725,295.857z"/>
	<path style="fill:#3A3847;" d="M363.786,351.831c-0.188,0-0.383-0.016-0.569-0.039c-2.188-0.312-3.71-2.335-3.397-4.521
		c5.208-36.709,40.402-57.964,41.901-58.847c1.914-1.148,4.35-0.508,5.475,1.397c1.124,1.897,0.5,4.35-1.391,5.475
		c-0.335,0.202-33.405,20.24-38.067,53.099C367.456,350.387,365.746,351.831,363.786,351.831z"/>
	<path style="fill:#3A3847;" d="M115.304,367.823c-1.753,0-3.362-1.163-3.854-2.929c-0.148-0.538-15.668-53.95-76.49-69.154
		c-2.144-0.538-3.447-2.709-2.909-4.849c0.531-2.147,2.702-3.437,4.845-2.913c65.484,16.375,81.609,72.41,82.261,74.785
		c0.585,2.123-0.664,4.325-2.788,4.911C116.015,367.776,115.655,367.823,115.304,367.823z"/>
	<path style="fill:#3A3847;" d="M35.948,295.811c-1.031,0-2.054-0.391-2.827-1.171c-1.526-1.546-1.577-3.99-0.07-5.552
		c1.694-1.766,18.878-17.219,98.246-17.219c2.21,0,3.999,1.788,3.999,3.998s-1.789,3.998-3.999,3.998
		c-75.932,0-92.401,14.688-92.557,14.837C37.959,295.436,36.951,295.811,35.948,295.811z"/>
	<path style="fill:#3A3847;" d="M147.285,351.831c-1.96,0-3.67-1.444-3.955-3.437c-4.674-32.952-37.729-52.896-38.06-53.099
		c-1.902-1.125-2.526-3.577-1.402-5.475c1.125-1.897,3.576-2.538,5.478-1.397c1.496,0.883,36.693,22.138,41.902,58.847
		c0.309,2.187-1.211,4.209-3.397,4.521C147.66,351.815,147.473,351.831,147.285,351.831z"/>
	<path style="fill:#3A3847;" d="M255.83,511.754c-1.003,0-2.003-0.375-2.779-1.124L129.103,390.688
		c-1.585-1.539-1.628-4.068-0.094-5.654c1.534-1.585,4.068-1.624,5.653-0.094L258.61,504.883c1.585,1.538,1.628,4.068,0.094,5.653
		C257.919,511.348,256.877,511.754,255.83,511.754z"/>
	<path style="fill:#3A3847;" d="M255.83,511.754c-1.046,0-2.089-0.406-2.873-1.218c-1.535-1.585-1.496-4.115,0.094-5.653
		l123.94-119.943c1.585-1.53,4.115-1.491,5.653,0.094c1.538,1.586,1.491,4.115-0.094,5.654L258.61,510.63
		C257.833,511.379,256.834,511.754,255.83,511.754z"/>
	<path style="fill:#3A3847;" d="M255.83,463.777c-1.003,0-2.003-0.375-2.779-1.125l-59.979-58.034
		c-1.585-1.538-1.628-4.068-0.094-5.653c1.539-1.594,4.068-1.625,5.654-0.094l59.979,58.034c1.585,1.538,1.628,4.068,0.094,5.653
		C257.919,463.371,256.877,463.777,255.83,463.777z"/>
	<path style="fill:#3A3847;" d="M255.83,463.777c-1.046,0-2.089-0.406-2.873-1.219c-1.535-1.585-1.492-4.115,0.094-5.653
		l59.971-58.034c1.586-1.531,4.123-1.492,5.653,0.094c1.538,1.585,1.492,4.115-0.093,5.653l-59.972,58.034
		C257.833,463.402,256.834,463.777,255.83,463.777z"/>
	<path style="fill:#3A3847;" d="M255.83,423.797c-1.003,0-2.003-0.375-2.779-1.125l-59.979-58.035
		c-1.585-1.538-1.628-4.068-0.094-5.653c1.539-1.585,4.068-1.624,5.654-0.094l59.979,58.035c1.585,1.538,1.628,4.068,0.094,5.653
		C257.919,423.391,256.877,423.797,255.83,423.797z"/>
	<path style="fill:#3A3847;" d="M255.83,423.797c-1.046,0-2.089-0.406-2.873-1.219c-1.535-1.585-1.492-4.115,0.094-5.653
		l59.971-58.035c1.586-1.53,4.123-1.491,5.653,0.094c1.538,1.585,1.492,4.115-0.093,5.653l-59.972,58.035
		C257.833,423.422,256.834,423.797,255.83,423.797z"/>
	<path style="fill:#3A3847;" d="M255.83,463.777c-2.209,0-3.998-1.789-3.998-3.998v-39.981c0-2.21,1.789-3.998,3.998-3.998
		c2.21,0,3.998,1.788,3.998,3.998v39.981C259.828,461.988,258.04,463.777,255.83,463.777z"/>
	<path style="fill:#3A3847;" d="M75.909,39.981c-6.614,0-11.994-5.38-11.994-11.994s5.38-11.994,11.994-11.994
		c6.614,0,11.994,5.38,11.994,11.994S82.523,39.981,75.909,39.981z M75.909,23.988c-2.206,0-3.998,1.796-3.998,3.998
		s1.792,3.998,3.998,3.998s3.998-1.796,3.998-3.998S78.115,23.988,75.909,23.988z"/>
	<path style="fill:#3A3847;" d="M35.928,87.958c-2.21,0-3.998-1.789-3.998-3.998c0-42.378,36.018-54.802,36.381-54.919
		c2.081-0.719,4.342,0.437,5.044,2.53c0.699,2.093-0.434,4.349-2.519,5.06c-1.264,0.422-30.91,10.846-30.91,47.329
		C39.926,86.169,38.138,87.958,35.928,87.958z"/>
</g>
<g>
</g>
<g>
</g>
<g>
</g>
<g>
</g>
<g>
</g>
<g>
</g>
<g>
</g>
<g>
</g>
<g>
</g>
<g>
</g>
<g>
</g>
<g>
</g>
<g>
</g>
<g>
</g>
<g>
</g>
</svg>
