<svg height="512pt" viewBox="-106 0 512 512.00175" width="512pt" xmlns="http://www.w3.org/2000/svg"><path d="m300.289062 115.636719c-3.925781 16.667969-15.277343 42.9375-48.050781 61.628906-2.851562 1.625-5.871093 3.191406-9.066406 4.695313h-181.578125c-5.789062-2.8125-11.09375-5.859376-15.925781-9.074219-26.3125-17.484375-39.117188-39.890625-45.195313-55.289063-2.039062-5.175781 2.882813-10.425781 8.167969-8.71875 19.945313 6.460938 43.730469-13 77.398437-15.984375 2.761719-.25 5.59375-.382812 8.5-.382812h108.539063c3.007813 0 5.933594.144531 8.796875.402343 34.757812 3.203126 58.96875 23.890626 79.316406 15.132813 5.007813-2.15625 10.332032 2.285156 9.097656 7.589844zm0 0" fill="#b1de54"/><path d="m252.242188 174.769531v2.492188c-2.855469 1.628906-5.875 3.195312-9.066407 4.699219h-181.582031c-5.789062-2.8125-11.09375-5.863282-15.925781-9.078126.585937-32.542968 16.285156-61.460937 40.371093-79.992187 2.761719-.246094 5.59375-.382813 8.5-.382813h108.539063c3.007813 0 5.933594.144532 8.800781.402344 24.527344 18.90625 40.363282 48.566406 40.363282 81.859375zm0 0" fill="#92c927"/><path d="m291.257812 413.214844v88.484375c0 5.691406-4.613281 10.300781-10.304687 10.300781h-264.023437c-5.691407 0-10.304688-4.609375-10.304688-10.300781v-88.484375c0-51.167969 41.488281-92.652344 92.667969-92.652344h99.308593c51.171876 0 92.65625 41.480469 92.65625 92.652344zm0 0" fill="#006df0"/><path d="m58.371094 406.960938v105.039062h-15.453125v-105.039062c0-4.261719 3.460937-7.722657 7.726562-7.722657s7.726563 3.460938 7.726563 7.722657zm0 0" fill="#0052d6"/><path d="m291.253906 413.226562v88.472657c0 5.691406-4.613281 10.300781-10.300781 10.300781h-41.4375v-98.773438c0-51.179687-41.480469-92.65625-92.660156-92.65625h51.738281c51.175781-.003906 92.660156 41.480469 92.660156 92.65625zm0 0" fill="#0052d6"/><path d="m280.953125 512h-41.4375v-64.332031h51.738281v54.03125c0 5.691406-4.609375 10.300781-10.300781 10.300781zm0 0" fill="#e0e0d1"/><path d="m239.515625 447.667969h51.738281v12.441406h-51.738281zm0 0" fill="#cecdba"/><path d="m58.371094 512h-41.4375c-5.691406 0-10.304688-4.609375-10.304688-10.300781v-54.03125h51.742188zm0 0" fill="#f5f6e3"/><path d="m42.921875 447.664062h15.453125v64.335938h-15.453125zm0 0" fill="#e0e0d1"/><path d="m6.632812 447.667969h51.738282v12.441406h-51.738282zm0 0" fill="#e0e0d1"/><path d="m267.359375 304.855469c0 23.171875-18.789063 41.972656-41.972656 41.972656-4.011719 0-7.882813-.578125-11.550781-1.625-7.214844 12.710937-20.863282 21.296875-36.527344 21.296875-10.9375 0-20.894532-4.191406-28.363282-11.046875-7.46875 6.855469-17.429687 11.046875-28.363281 11.046875-15.664062 0-29.3125-8.585938-36.53125-21.296875-3.667969 1.046875-7.539062 1.625-11.550781 1.625-23.183594 0-41.96875-18.800781-41.96875-41.972656 0-21.652344 16.386719-39.480469 37.433594-41.738281 1.492187-.160157 3.003906-.242188 4.535156-.242188 15.664062 0 29.3125 8.585938 36.519531 21.308594 3.679688-1.058594 7.550781-1.632813 11.5625-1.632813 10.933594 0 20.894531 4.191407 28.363281 11.046875 7.46875-6.855468 17.425782-11.046875 28.363282-11.046875 4.011718 0 7.882812.574219 11.5625 1.632813 7.207031-12.722656 20.851562-21.308594 36.515625-21.308594 1.53125 0 3.042969.082031 4.535156.242188 21.046875 2.257812 37.4375 20.085937 37.4375 41.738281zm0 0" fill="#f82700"/><g fill="#d80000"><path d="m229.921875 263.117188c-2.238281 3.496093-4.636719 6.875-7.1875 10.109374-19.511719 24.707032-45.71875 38.3125-73.792969 38.3125-28.070312 0-54.277344-13.605468-73.789062-38.3125-2.550782-3.234374-4.949219-6.613281-7.1875-10.109374 1.492187-.160157 3.003906-.242188 4.535156-.242188 15.664062 0 29.3125 8.585938 36.519531 21.308594 3.679688-1.058594 7.546875-1.632813 11.558594-1.632813 10.9375 0 20.894531 4.191407 28.363281 11.046875 7.472656-6.855468 17.429688-11.046875 28.367188-11.046875 4.011718 0 7.878906.574219 11.558594 1.632813 7.207031-12.722656 20.855468-21.308594 36.519531-21.308594 1.53125 0 3.042969.078125 4.535156.242188zm0 0"/><path d="m90.882812 312.339844c-.292968 0-.589843-.019532-.890624-.050782-4.238282-.488281-7.28125-4.320312-6.792969-8.558593 1.832031-15.96875 15.332031-22.824219 23.019531-24.355469 4.1875-.835938 8.253906 1.882812 9.089844 6.066406.828125 4.164063-1.855469 8.214844-6.007813 9.074219-1.046875.234375-9.765625 2.421875-10.75 10.976563-.453125 3.941406-3.792969 6.847656-7.667969 6.847656zm0 0"/><path d="m207.003906 312.339844c-3.875 0-7.214844-2.90625-7.667968-6.847656-.984376-8.585938-9.761719-10.757813-10.761719-10.976563-4.183594-.835937-6.863281-4.894531-6.03125-9.082031.835937-4.183594 4.9375-6.894532 9.125-6.058594 7.6875 1.53125 21.1875 8.386719 23.019531 24.355469.488281 4.238281-2.554688 8.070312-6.792969 8.558593-.300781.035157-.597656.050782-.890625.050782zm0 0"/></g><path d="m282.976562 198.527344c0 16.316406-13.230468 29.546875-29.546874 29.546875-16.320313 0-29.550782-13.230469-29.550782-29.546875 0-16.320313 13.230469-29.546875 29.550782-29.546875 16.316406 0 29.546874 13.226562 29.546874 29.546875zm0 0" fill="#e0e0d1"/><path d="m74.007812 198.527344c0 16.316406-13.230468 29.546875-29.550781 29.546875-16.316406 0-29.546875-13.230469-29.546875-29.546875 0-16.320313 13.230469-29.546875 29.546875-29.546875 16.320313 0 29.550781 13.226562 29.550781 29.546875zm0 0" fill="#e0e0d1"/><path d="m148.949219 83.832031c50.21875 0 90.933593 40.710938 90.933593 90.933594v9.566406c0 63.570313-40.71875 115.113281-90.9375 115.113281-50.222656 0-90.9375-51.542968-90.9375-115.113281v-9.566406c0-50.222656 40.710938-90.933594 90.933594-90.933594zm0 0" fill="#f5f6e3"/><path d="m135.988281 195.566406c0-17.507812-12.71875-31.703125-28.410156-31.703125-15.695313 0-28.414063 14.195313-28.414063 31.703125 0 17.507813 12.71875 31.703125 28.414063 31.703125 15.691406 0 28.410156-14.195312 28.410156-31.703125zm0 0" fill="#006df0"/><path d="m218.722656 195.566406c0-17.507812-12.71875-31.703125-28.410156-31.703125s-28.414062 14.195313-28.414062 31.703125c0 17.507813 12.722656 31.703125 28.414062 31.703125s28.410156-14.195312 28.410156-31.703125zm0 0" fill="#006df0"/><path d="m107.578125 204.238281c-4.269531 0-7.726563-3.460937-7.726563-7.726562v-.945313c0-4.265625 3.457032-7.726562 7.726563-7.726562 4.265625 0 7.722656 3.460937 7.722656 7.726562v.945313c0 4.265625-3.457031 7.726562-7.722656 7.726562zm0 0" fill="#0052d6"/><path d="m190.3125 204.238281c-4.269531 0-7.726562-3.460937-7.726562-7.726562v-.945313c0-4.265625 3.457031-7.726562 7.726562-7.726562 4.265625 0 7.726562 3.460937 7.726562 7.726562v.945313c0 4.265625-3.460937 7.726562-7.726562 7.726562zm0 0" fill="#0052d6"/><path d="m174.605469 376.410156c0 14.175782-11.488281 25.664063-25.664063 25.664063-14.171875 0-25.660156-11.488281-25.660156-25.664063 0-14.171875 11.488281-25.664062 25.660156-25.664062 14.175782 0 25.664063 11.492187 25.664063 25.664062zm0 0" fill="#b1de54"/><path d="m167.226562 450.386719c0 10.097656-8.1875 18.285156-18.285156 18.285156-10.09375 0-18.28125-8.1875-18.28125-18.285156 0-10.097657 8.1875-18.28125 18.28125-18.28125 10.097656 0 18.285156 8.183593 18.285156 18.28125zm0 0" fill="#b1de54"/><path d="m176.742188 228.074219c0 15.355469-12.445313 27.800781-27.800782 27.800781-15.351562 0-27.796875-12.445312-27.796875-27.800781 0-15.351563 12.445313-27.800781 27.796875-27.800781 15.355469 0 27.800782 12.449218 27.800782 27.800781zm0 0" fill="#f5458a"/><path d="m192.335938 100.804688c0 4.160156-19.421876 7.539062-43.371094 7.539062-23.957032 0-43.371094-3.378906-43.371094-7.539062 0-.082032 2.628906-7.078126 6.601562-17.570313 3.074219-8.113281 6.945313-18.335937 11.015626-29.058594 6.582031-17.328125 13.679687-36.003906 18.75-49.351562 2.4375-6.441407 11.550781-6.429688 13.988281.011719l18.710937 49.339843 11.015625 29.058594zm0 0" fill="#f82700"/><path d="m185.65625 83.234375h-73.480469c3.074219-8.113281 6.945313-18.332031 11.015625-29.058594h51.445313zm0 0" fill="#006df0"/><path d="m148.941406 283.785156c-21.175781 0-41.449218-10.253906-55.628906-28.136718-2.652344-3.34375-2.09375-8.203126 1.25-10.855469 3.347656-2.648438 8.207031-2.089844 10.855469 1.253906 11.230469 14.164063 27.097656 22.285156 43.527343 22.285156 16.429688 0 32.292969-8.121093 43.523438-22.285156 2.652344-3.34375 7.511719-3.902344 10.855469-1.253906 3.34375 2.652343 3.902343 7.511719 1.253906 10.855469-14.183594 17.882812-34.460937 28.136718-55.636719 28.136718zm0 0" fill="#b1de54"/></svg>