<svg height="512pt" viewBox="-95 0 512 512.001" width="512pt" xmlns="http://www.w3.org/2000/svg"><path d="m45.550781 45.25h230.566407v102.375h-230.566407zm0 0" fill="#00bdc6"/><path d="m303.601562 512h-285.535156v-139.542969c0-51.335937 41.613282-92.953125 92.949219-92.953125h99.632813c51.335937 0 92.953124 41.617188 92.953124 92.953125zm0 0" fill="#00d8e0"/><path d="m207.140625 279.503906v16.253906c0 21.328126-17.292969 38.621094-38.621094 38.621094h-15.375c-21.324219 0-38.621093-17.292968-38.621093-38.621094v-16.253906h23.980468v-49.441406h44.65625v49.441406zm0 0" fill="#e0e0d1"/><path d="m183.160156 230.0625v37.558594c-7.238281 1.941406-14.710937 2.941406-22.328125 2.941406-7.617187 0-15.089843-1-22.328125-2.941406v-37.558594zm0 0" fill="#cecdba"/><path d="m295.296875 157.074219c0 16.371093-13.273437 29.640625-29.644531 29.640625s-29.644532-13.269532-29.644532-29.640625c0-16.371094 13.273438-29.644531 29.644532-29.644531s29.644531 13.273437 29.644531 29.644531zm0 0" fill="#e0e0d1"/><path d="m85.65625 157.074219c0 16.371093-13.273438 29.640625-29.644531 29.640625-16.371094 0-29.640625-13.269532-29.640625-29.640625 0-16.371094 13.269531-29.644531 29.640625-29.644531 16.371093 0 29.644531 13.273437 29.644531 29.644531zm0 0" fill="#e0e0d1"/><path d="m252.0625 62.429688v80.402343c0 63.777344-40.847656 115.484375-91.230469 115.484375-50.382812 0-91.230469-51.707031-91.230469-115.484375v-80.402343zm0 0" fill="#f5f6e3"/><path d="m119.332031 162.777344c-4.265625 0-7.726562-3.460938-7.726562-7.726563v-.945312c0-4.269531 3.460937-7.726563 7.726562-7.726563s7.726563 3.457032 7.726563 7.726563v.945312c0 4.265625-3.457032 7.726563-7.726563 7.726563zm0 0" fill="#00bdc6"/><path d="m202.332031 162.777344c-4.265625 0-7.726562-3.460938-7.726562-7.726563v-.945312c0-4.269531 3.460937-7.726563 7.726562-7.726563s7.726563 3.457032 7.726563 7.726563v.945312c0 4.265625-3.457032 7.726563-7.726563 7.726563zm0 0" fill="#00bdc6"/><path d="m160.832031 237.792969c-29.796875 0-56.351562-21.601563-67.65625-55.03125-1.363281-4.042969.804688-8.425781 4.847657-9.792969 4.039062-1.367188 8.425781.800781 9.792968 4.84375 9.144532 27.046875 29.957032 44.527344 53.015625 44.527344 23.0625 0 43.871094-17.476563 53.015625-44.527344 1.367188-4.042969 5.757813-6.210938 9.792969-4.84375 4.042969 1.367188 6.210937 5.75 4.847656 9.792969-11.304687 33.429687-37.859375 55.03125-67.65625 55.03125zm0 0" fill="#fa0"/><path d="m298.078125 20.953125c1.125-4.800781-3.703125-8.824219-8.234375-6.875-19.945312 8.585937-44.003906-14.078125-79.839844-14.078125-27.253906 0-42.09375 12.652344-49.171875 21.566406-7.082031-8.914062-21.921875-21.566406-49.175781-21.566406-34.632812 0-58.269531 21.171875-77.820312 14.839844-4.789063-1.554688-9.257813 3.207031-7.410157 7.890625 9.050781 22.941406 34.582031 63.03125 103.824219 72.269531l19.351562 19.355469c6.203126 6.199219 16.257813 6.199219 22.460938 0l18.921875-18.925781c80.808594-8.582032 101.710937-51.539063 107.09375-74.476563zm0 0" fill="#00d8e0"/><path d="m210.003906 23.488281c-18.574218 0-32.050781 5.464844-41.449218 11.816407v-13.738282c0-4.265625-3.457032-7.722656-7.722657-7.722656-4.269531 0-7.726562 3.457031-7.726562 7.722656v13.738282c-9.398438-6.351563-22.871094-11.816407-41.449219-11.816407-4.265625 0-7.726562 3.457031-7.726562 7.726563 0 4.265625 3.460937 7.726562 7.726562 7.726562 21.605469 0 34.308594 8.636719 41.449219 16.65625v24.847656c0 4.269532 3.457031 7.726563 7.726562 7.726563 4.265625 0 7.722657-3.457031 7.722657-7.726563v-24.847656c7.140624-8.019531 19.847656-16.65625 41.449218-16.65625 4.269532 0 7.726563-3.460937 7.726563-7.726562 0-4.269532-3.457031-7.726563-7.726563-7.726563zm0 0" fill="#00bdc6"/><path d="m93.128906 274.511719v237.488281h-82.828125c-5.683593 0-10.300781-4.613281-10.300781-10.300781v-188.402344c0-22.550781 18.277344-40.824219 40.816406-40.824219h50.273438c1.121094 0 2.039062.917969 2.039062 2.039063zm0 0" fill="#fa0"/><path d="m321.664062 313.300781v188.398438c0 5.6875-4.613281 10.300781-10.300781 10.300781h-82.828125v-229.226562c0-2.792969 1.113282-5.316407 2.914063-7.167969 1.867187-1.9375 4.492187-3.132813 7.386719-3.132813h42.011718c22.539063 0 40.816406 18.273438 40.816406 40.828125zm0 0" fill="#fa0"/><path d="m321.664062 313.300781v188.398438c0 5.6875-4.613281 10.300781-10.300781 10.300781h-54.796875v-198.699219c0-16.980469-10.371094-31.546875-25.113281-37.695312 1.863281-1.9375 4.488281-3.132813 7.382813-3.132813h42.011718c22.539063 0 40.816406 18.273438 40.816406 40.828125zm0 0" fill="#ff8b00"/><path d="m256.566406 392.234375h65.097656v34.429687h-65.097656zm0 0" fill="#00d8e0"/><path d="m73.390625 366.179688v145.820312h-15.453125v-145.820312c0-4.265626 3.449219-7.726563 7.726562-7.726563 4.265626 0 7.726563 3.460937 7.726563 7.726563zm0 0" fill="#ff8b00"/><path d="m151.730469 413.273438-15.398438-2.230469c-6.148437-.890625-10.117187-6.984375-8.445312-12.96875l19.453125-69.628907 17.269531 2.503907-1.101563 72.285156c-.09375 6.210937-5.628906 10.929687-11.777343 10.039063zm0 0" fill="#ff8b00"/><path d="m173.710938 428.0625 15.398437-2.230469c6.148437-.890625 10.117187-6.980469 8.445313-12.964843l-19.453126-69.628907-17.269531 2.5 1.101563 72.285157c.09375 6.214843 5.625 10.929687 11.777344 10.039062zm0 0" fill="#fa0"/><path d="m183.160156 329.148438c0 12.332031-9.996094 22.328124-22.328125 22.328124s-22.328125-9.996093-22.328125-22.328124c0-12.332032 9.996094-22.328126 22.328125-22.328126s22.328125 9.996094 22.328125 22.328126zm0 0" fill="#ffd02f"/><path d="m189.246094 180.605469c0 15.691406-12.722656 28.414062-28.414063 28.414062-15.691406 0-28.414062-12.722656-28.414062-28.414062 0-15.691407 12.722656-28.414063 28.414062-28.414063 15.691407 0 28.414063 12.722656 28.414063 28.414063zm0 0" fill="#f22"/></svg>