<?xml version="1.0" encoding="iso-8859-1"?>
<!-- Generator: Adobe Illustrator 19.0.0, SVG Export Plug-In . SVG Version: 6.00 Build 0)  -->
<svg version="1.1" id="Capa_1" xmlns="http://www.w3.org/2000/svg" xmlns:xlink="http://www.w3.org/1999/xlink" x="0px" y="0px"
	 viewBox="0 0 511.754 511.754" style="enable-background:new 0 0 511.754 511.754;" xml:space="preserve">
<path style="fill:#656D78;" d="M255.713,207.9h-15.992h-15.992h-7.277h-8.715h-11.994c-4.396,0-7.996-3.601-7.996-7.997v-7.996
	h135.935v7.996c0,4.396-3.6,7.997-7.996,7.997h-11.994h-8.715h-7.278h-15.992H255.713z"/>
<g style="opacity:0.2;">
	<path style="fill:#FFFFFF;" d="M203.738,199.903h-15.992c0,4.396,3.6,7.997,7.996,7.997h11.994h3.998
		C207.338,207.9,203.738,204.3,203.738,199.903z"/>
</g>
<g style="opacity:0.2;">
	<path d="M307.689,199.903h15.992c0,4.396-3.6,7.997-7.996,7.997h-11.994h-3.998C304.088,207.9,307.689,204.3,307.689,199.903z"/>
</g>
<path style="fill:#A0D468;" d="M67.804,295.857c13.274,0,23.988,89.715,23.988,102.912c0,13.274-10.714,23.988-23.988,23.988
	c-13.275,0-23.988-10.714-23.988-23.988C43.816,385.572,54.529,295.857,67.804,295.857z"/>
<g style="opacity:0.5;">
	<path style="fill:#FFFFFF;" d="M51.812,398.77c0-11.838,8.628-85.248,19.99-100.21c-1.3-1.71-2.636-2.702-3.998-2.702
		c-13.275,0-23.988,89.715-23.988,102.912c0,13.274,10.713,23.988,23.988,23.988c1.37,0,2.69-0.18,3.998-0.398
		C60.448,420.454,51.812,410.678,51.812,398.77z"/>
</g>
<g style="opacity:0.2;">
	<path d="M83.796,398.77c0-10.409-6.665-68.374-15.996-92.417c0,0,2.725-9.534,4.037-7.793
		c11.346,15.048,19.955,88.38,19.955,100.21c0,13.274-10.714,23.988-23.988,23.988c-1.371,0-2.69-0.18-3.998-0.398
		C75.159,420.454,83.796,410.678,83.796,398.77z"/>
</g>
<path style="fill:#A0D468;" d="M443.623,295.857c13.274,0,23.988,89.715,23.988,102.912c0,13.274-10.714,23.988-23.988,23.988
	c-13.275,0-23.988-10.714-23.988-23.988C419.635,385.572,430.348,295.857,443.623,295.857z"/>
<g style="opacity:0.5;">
	<path style="fill:#FFFFFF;" d="M427.631,398.77c0-11.838,8.629-85.248,19.99-100.21c-1.305-1.71-2.632-2.702-3.998-2.702
		c-13.275,0-23.988,89.715-23.988,102.912c0,13.274,10.713,23.988,23.988,23.988c1.366,0,2.693-0.18,3.998-0.398
		C436.268,420.454,427.631,410.678,427.631,398.77z"/>
</g>
<g style="opacity:0.2;">
	<path d="M459.615,398.77c0-10.409-6.661-68.374-16-92.417c0,0,2.732-9.534,4.045-7.793c11.338,15.048,19.951,88.38,19.951,100.21
		c0,13.274-10.714,23.988-23.988,23.988c-1.367,0-2.694-0.18-3.998-0.398C450.979,420.454,459.615,410.678,459.615,398.77z"/>
</g>
<path style="fill:#EAC6BB;" d="M267.707,351.831c4.396,0,7.996,3.6,7.996,7.996s-3.6,7.996-7.996,7.996
	c-1.522,0-3.037-0.477-4.236-1.202c-2.24-1.438-3.76-3.912-3.76-6.794C259.711,355.431,263.311,351.831,267.707,351.831z"/>
<path style="fill:#FFCE54;" d="M263.471,366.621c1.199,0.726,2.714,1.202,4.236,1.202c4.396,0,7.996-3.6,7.996-7.996
	s-3.6-7.996-7.996-7.996s-7.996,3.6-7.996,7.996C259.711,362.709,261.231,365.184,263.471,366.621z M294.976,207.9l73.402,247.881
	H142.967L216.451,207.9h7.277h15.992h15.992h15.992h15.992H294.976z"/>
<g style="opacity:0.5;">
	<polygon style="fill:#FFFFFF;" points="223.729,207.9 216.451,207.9 142.967,455.781 158.959,455.781 232.443,207.9 	"/>
</g>
<g style="opacity:0.2;">
	<polygon points="287.659,207.9 294.937,207.9 368.417,455.781 352.425,455.781 278.944,207.9 	"/>
</g>
<g>
	<path style="fill:#A0D468;" d="M283.699,83.96c0,4.396-3.6,11.994-7.996,11.994s-7.996-7.599-7.996-11.994
		c0-4.396,3.601-7.997,7.996-7.997C280.1,75.963,283.699,79.564,283.699,83.96z"/>
	<path style="fill:#A0D468;" d="M243.719,83.96c0,4.396-3.6,11.994-7.996,11.994s-7.996-7.599-7.996-11.994
		c0-4.396,3.6-7.997,7.996-7.997S243.719,79.564,243.719,83.96z"/>
</g>
<g style="opacity:0.5;">
	<path style="fill:#FFFFFF;" d="M235.723,83.96c0-2.913,1.656-5.365,3.998-6.763c-1.194-0.711-2.514-1.234-3.998-1.234
		c-4.396,0-7.996,3.601-7.996,7.997s3.6,11.994,7.996,11.994c1.46,0,2.815-0.883,3.998-2.163
		C237.347,91.214,235.723,86.896,235.723,83.96z"/>
</g>
<g style="opacity:0.5;">
	<path style="fill:#FFFFFF;" d="M275.703,83.96c0-2.913,1.656-5.365,3.998-6.763c-1.194-0.711-2.514-1.234-3.998-1.234
		c-4.396,0-7.996,3.601-7.996,7.997s3.601,11.994,7.996,11.994c1.461,0,2.819-0.883,3.998-2.163
		C277.328,91.214,275.703,86.896,275.703,83.96z"/>
</g>
<g>
	<path style="fill:#5D9CEC;" d="M179.75,159.923c4.396,0,7.996,3.6,7.996,7.996s-3.6,7.996-7.996,7.996s-7.996-3.6-7.996-7.996
		S175.354,159.923,179.75,159.923z"/>
	<path style="fill:#5D9CEC;" d="M255.713,159.923c4.396,0,7.996,3.6,7.996,7.996s-3.6,7.996-7.996,7.996s-7.996-3.6-7.996-7.996
		S251.317,159.923,255.713,159.923z"/>
	<path style="fill:#5D9CEC;" d="M331.677,159.923c4.396,0,7.996,3.6,7.996,7.996s-3.6,7.996-7.996,7.996s-7.996-3.6-7.996-7.996
		S327.28,159.923,331.677,159.923z"/>
	<path style="fill:#5D9CEC;" d="M275.703,95.954c4.396,0,7.996-7.599,7.996-11.994c0-4.396-3.6-7.997-7.996-7.997
		s-7.996,3.601-7.996,7.997C267.707,88.356,271.308,95.954,275.703,95.954z M243.719,83.96c0-4.396-3.6-7.997-7.996-7.997
		s-7.996,3.601-7.996,7.997s3.6,11.994,7.996,11.994S243.719,88.356,243.719,83.96z M203.738,55.973h103.95
		c17.671,0,31.984,14.313,31.984,31.985v7.996v7.996h-63.97h-39.98h-63.969v-7.996v-7.996
		C171.754,70.286,186.067,55.973,203.738,55.973z"/>
</g>
<g style="opacity:0.3;">
	<path style="fill:#FFFFFF;" d="M187.746,87.958c0-17.672,14.313-31.985,31.984-31.985h-15.992
		c-17.671,0-31.984,14.313-31.984,31.985v7.996h15.992V87.958z"/>
</g>
<g style="opacity:0.2;">
	<path d="M323.681,87.958c0-17.672-14.313-31.985-31.984-31.985h15.992c17.671,0,31.984,14.313,31.984,31.985v7.996h-15.992V87.958z
		"/>
</g>
<path style="fill:#E6E9ED;" d="M470.415,143.931H41.016c-3.838-4.795-5.197-7.996-5.197-7.996
	c39.981-15.992,135.935-31.984,135.935-31.984h63.969h39.98h63.97c0,0,95.954,15.992,135.935,31.984
	C475.608,135.935,474.249,139.136,470.415,143.931z"/>
<path style="fill:#FFFFFF;" d="M187.746,103.95h-15.992c0,0-95.954,15.992-135.935,31.984c0,0,1.359,3.201,5.197,7.996h10.796
	c50.144-19.99,150.927-39.98,150.927-39.98H187.746z"/>
<g style="opacity:0.2;">
	<path d="M323.681,103.95h15.992c0,0,95.954,15.992,135.935,31.984c0,0-1.358,3.201-5.192,7.996h-10.8
		c-50.14-19.99-150.928-39.98-150.928-39.98H323.681z"/>
</g>
<path style="fill:#CCD1D9;" d="M331.677,175.915c4.396,0,7.996-3.6,7.996-7.996s-3.6-7.996-7.996-7.996s-7.996,3.6-7.996,7.996
	S327.28,175.915,331.677,175.915z M255.713,175.915c4.396,0,7.996-3.6,7.996-7.996s-3.6-7.996-7.996-7.996s-7.996,3.6-7.996,7.996
	S251.317,175.915,255.713,175.915z M179.75,175.915c4.396,0,7.996-3.6,7.996-7.996s-3.6-7.996-7.996-7.996s-7.996,3.6-7.996,7.996
	S175.354,175.915,179.75,175.915z M41.016,143.931h429.399c-12.08,15.43-49.18,47.977-146.734,47.977H187.746
	C90.191,191.907,53.092,159.36,41.016,143.931z"/>
<g style="opacity:0.5;">
	<path style="fill:#FFFFFF;" d="M56.969,143.931H41.016c12.076,15.43,49.176,47.977,146.73,47.977h15.953
		C106.145,191.907,69.045,159.36,56.969,143.931z"/>
</g>
<g style="opacity:0.2;">
	<path d="M454.422,143.931c-12.08,15.43-49.179,47.977-146.733,47.977h15.992c97.555,0,134.654-32.547,146.734-47.977H454.422z"/>
</g>
<g style="opacity:0.2;">
	<rect x="171.749" y="95.957" width="167.92" height="7.996"/>
</g>
<g style="opacity:0.2;">
	<rect x="187.749" y="191.907" width="135.94" height="7.996"/>
</g>
<g>
	<path style="fill:#3A3847;" d="M35.983,139.933c-1.585,0-3.088-0.953-3.713-2.515c-0.819-2.046,0.18-4.373,2.229-5.192
		c39.922-15.969,132.827-31.563,136.763-32.219c2.19-0.375,4.24,1.101,4.6,3.287c0.363,2.179-1.109,4.24-3.288,4.6
		c-0.952,0.156-95.985,16.102-135.106,31.75C36.983,139.839,36.479,139.933,35.983,139.933z"/>
	<path style="fill:#3A3847;" d="M187.91,195.905c-129.091,0-154.578-56.012-155.602-58.394c-0.87-2.03,0.07-4.381,2.101-5.255
		c1.999-0.859,4.365,0.062,5.24,2.085c0.296,0.663,25.198,53.567,148.261,53.567c2.21,0,3.998,1.788,3.998,3.998
		S190.12,195.905,187.91,195.905z"/>
	<path style="fill:#3A3847;" d="M475.772,139.933c-0.5,0-1-0.094-1.483-0.289c-39.122-15.648-134.154-31.594-135.107-31.75
		c-2.179-0.359-3.654-2.421-3.287-4.6c0.359-2.187,2.421-3.67,4.6-3.287c3.936,0.655,96.844,16.25,136.762,32.219
		c2.046,0.819,3.046,3.146,2.233,5.192C478.863,138.98,477.357,139.933,475.772,139.933z"/>
	<path style="fill:#3A3847;" d="M323.845,195.905c-2.21,0-3.998-1.788-3.998-3.998s1.788-3.998,3.998-3.998
		c123.87,0,148.022-53.014,148.257-53.552c0.867-2.03,3.232-2.968,5.247-2.101c2.03,0.874,2.968,3.225,2.093,5.255
		C478.427,139.894,452.939,195.905,323.845,195.905z"/>
	<path style="fill:#3A3847;" d="M339.837,107.948H171.918c-2.209,0-3.998-1.788-3.998-3.998s1.789-3.998,3.998-3.998h167.919
		c2.21,0,3.998,1.788,3.998,3.998S342.047,107.948,339.837,107.948z"/>
	<path style="fill:#3A3847;" d="M323.845,195.905H187.91c-2.21,0-3.998-1.788-3.998-3.998s1.788-3.998,3.998-3.998h135.935
		c2.21,0,3.998,1.788,3.998,3.998S326.055,195.905,323.845,195.905z"/>
	<path style="fill:#3A3847;" d="M451.783,147.929H59.972c-2.21,0-3.998-1.788-3.998-3.998s1.788-3.998,3.998-3.998h391.812
		c2.21,0,3.998,1.788,3.998,3.998S453.993,147.929,451.783,147.929z"/>
	<path style="fill:#3A3847;" d="M171.918,91.956c-2.209,0-3.998-1.789-3.998-3.998c0-19.843,16.141-35.983,35.983-35.983
		c2.21,0,3.998,1.788,3.998,3.998s-1.788,3.998-3.998,3.998c-15.43,0-27.986,12.557-27.986,27.987
		C175.916,90.167,174.128,91.956,171.918,91.956z"/>
	<path style="fill:#3A3847;" d="M339.837,91.956c-2.21,0-3.998-1.789-3.998-3.998c0-15.431-12.557-27.987-27.986-27.987
		c-2.21,0-3.998-1.788-3.998-3.998s1.788-3.998,3.998-3.998c19.842,0,35.982,16.141,35.982,35.983
		C343.835,90.167,342.047,91.956,339.837,91.956z"/>
	<path style="fill:#3A3847;" d="M307.853,59.971h-103.95c-2.21,0-3.998-1.788-3.998-3.998s1.788-3.998,3.998-3.998h103.95
		c2.21,0,3.998,1.788,3.998,3.998S310.063,59.971,307.853,59.971z"/>
	<path style="fill:#3A3847;" d="M179.914,179.913c-6.614,0-11.995-5.38-11.995-11.994s5.38-11.994,11.995-11.994
		c6.614,0,11.994,5.38,11.994,11.994S186.528,179.913,179.914,179.913z M179.914,163.921c-2.206,0-3.998,1.796-3.998,3.998
		s1.792,3.998,3.998,3.998s3.998-1.796,3.998-3.998S182.12,163.921,179.914,163.921z"/>
	<path style="fill:#3A3847;" d="M255.877,179.913c-6.614,0-11.994-5.38-11.994-11.994s5.38-11.994,11.994-11.994
		s11.994,5.38,11.994,11.994S262.491,179.913,255.877,179.913z M255.877,163.921c-2.206,0-3.998,1.796-3.998,3.998
		s1.792,3.998,3.998,3.998c2.206,0,3.998-1.796,3.998-3.998S258.083,163.921,255.877,163.921z"/>
	<path style="fill:#3A3847;" d="M331.841,179.913c-6.614,0-11.994-5.38-11.994-11.994s5.38-11.994,11.994-11.994
		s11.994,5.38,11.994,11.994S338.455,179.913,331.841,179.913z M331.841,163.921c-2.202,0-3.998,1.796-3.998,3.998
		s1.796,3.998,3.998,3.998s3.998-1.796,3.998-3.998S334.043,163.921,331.841,163.921z"/>
	<path style="fill:#3A3847;" d="M171.918,99.952c-2.209,0-3.998-1.788-3.998-3.998v-7.996c0-2.21,1.789-3.998,3.998-3.998
		c2.21,0,3.999,1.788,3.999,3.998v7.996C175.916,98.164,174.128,99.952,171.918,99.952z"/>
	<path style="fill:#3A3847;" d="M339.837,99.952c-2.21,0-3.998-1.788-3.998-3.998v-7.996c0-2.21,1.788-3.998,3.998-3.998
		s3.998,1.788,3.998,3.998v7.996C343.835,98.164,342.047,99.952,339.837,99.952z"/>
	<path style="fill:#3A3847;" d="M147.929,443.787c-0.375,0-0.757-0.055-1.136-0.164c-2.116-0.625-3.323-2.851-2.698-4.967
		l63.97-215.896c0.632-2.116,2.854-3.311,4.97-2.701c2.116,0.624,3.323,2.85,2.698,4.966l-63.969,215.896
		C151.248,442.662,149.655,443.787,147.929,443.787z"/>
	<path style="fill:#3A3847;" d="M363.825,443.787c-1.726,0-3.318-1.125-3.834-2.866l-63.97-215.896
		c-0.624-2.116,0.586-4.342,2.694-4.966c2.124-0.609,4.342,0.585,4.975,2.701l63.969,215.896c0.625,2.116-0.585,4.342-2.694,4.967
		C364.583,443.732,364.2,443.787,363.825,443.787z"/>
	<path style="fill:#3A3847;" d="M195.906,211.898c-6.614,0-11.994-5.381-11.994-11.995c0-2.209,1.788-3.998,3.998-3.998
		s3.998,1.789,3.998,3.998c0,2.202,1.792,3.998,3.998,3.998c2.21,0,3.998,1.789,3.998,3.999
		C199.904,210.109,198.116,211.898,195.906,211.898z"/>
	<path style="fill:#3A3847;" d="M315.849,211.898c-2.21,0-3.998-1.789-3.998-3.998c0-2.21,1.788-3.999,3.998-3.999
		c2.202,0,3.998-1.796,3.998-3.998c0-2.209,1.788-3.998,3.998-3.998s3.998,1.789,3.998,3.998
		C327.843,206.518,322.463,211.898,315.849,211.898z"/>
	<path style="fill:#3A3847;" d="M315.849,211.898H195.906c-2.21,0-3.998-1.789-3.998-3.998c0-2.21,1.788-3.999,3.998-3.999h119.943
		c2.21,0,3.998,1.789,3.998,3.999C319.847,210.109,318.059,211.898,315.849,211.898z"/>
	<path style="fill:#3A3847;" d="M223.893,211.898c-2.21,0-3.998-1.789-3.998-3.998v-3.999c0-2.209,1.788-3.998,3.998-3.998
		s3.998,1.789,3.998,3.998v3.999C227.891,210.109,226.103,211.898,223.893,211.898z"/>
	<path style="fill:#3A3847;" d="M207.9,211.898c-2.21,0-3.998-1.789-3.998-3.998v-3.999c0-2.209,1.788-3.998,3.998-3.998
		s3.998,1.789,3.998,3.998v3.999C211.899,210.109,210.11,211.898,207.9,211.898z"/>
	<path style="fill:#3A3847;" d="M239.885,211.898c-2.21,0-3.998-1.789-3.998-3.998v-3.999c0-2.209,1.788-3.998,3.998-3.998
		s3.998,1.789,3.998,3.998v3.999C243.883,210.109,242.095,211.898,239.885,211.898z"/>
	<path style="fill:#3A3847;" d="M255.877,211.898c-2.21,0-3.998-1.789-3.998-3.998v-3.999c0-2.209,1.788-3.998,3.998-3.998
		s3.998,1.789,3.998,3.998v3.999C259.875,210.109,258.087,211.898,255.877,211.898z"/>
	<path style="fill:#3A3847;" d="M271.869,211.898c-2.209,0-3.998-1.789-3.998-3.998v-3.999c0-2.209,1.789-3.998,3.998-3.998
		c2.21,0,3.998,1.789,3.998,3.998v3.999C275.867,210.109,274.079,211.898,271.869,211.898z"/>
	<path style="fill:#3A3847;" d="M287.861,211.898c-2.209,0-3.998-1.789-3.998-3.998v-3.999c0-2.209,1.789-3.998,3.998-3.998
		c2.211,0,3.998,1.789,3.998,3.998v3.999C291.859,210.109,290.072,211.898,287.861,211.898z"/>
	<path style="fill:#3A3847;" d="M303.855,211.898c-2.21,0-3.998-1.789-3.998-3.998v-3.999c0-2.209,1.788-3.998,3.998-3.998
		s3.998,1.789,3.998,3.998v3.999C307.853,210.109,306.065,211.898,303.855,211.898z"/>
	<path style="fill:#3A3847;" d="M275.867,99.952c-7.215,0-11.994-9.629-11.994-15.992c0-6.614,5.381-11.995,11.994-11.995
		c6.614,0,11.994,5.381,11.994,11.995C287.861,90.323,283.083,99.952,275.867,99.952z M275.867,79.961
		c-2.201,0-3.998,1.797-3.998,3.999c0,3.279,2.702,7.801,3.998,7.996c1.297-0.195,3.998-4.717,3.998-7.996
		C279.865,81.758,278.069,79.961,275.867,79.961z"/>
	<path style="fill:#3A3847;" d="M275.867,107.948c-2.209,0-3.998-1.788-3.998-3.998v-7.996c0-2.21,1.789-3.998,3.998-3.998
		c2.21,0,3.998,1.788,3.998,3.998v7.996C279.865,106.16,278.077,107.948,275.867,107.948z"/>
	<path style="fill:#3A3847;" d="M235.887,99.952c-7.211,0-11.994-9.629-11.994-15.992c0-6.614,5.38-11.995,11.994-11.995
		s11.994,5.381,11.994,11.995C247.881,90.323,243.098,99.952,235.887,99.952z M235.887,79.961c-2.206,0-3.998,1.797-3.998,3.999
		c0,3.279,2.702,7.801,3.998,7.996c1.296-0.195,3.998-4.717,3.998-7.996C239.885,81.758,238.093,79.961,235.887,79.961z"/>
	<path style="fill:#3A3847;" d="M235.887,107.948c-2.21,0-3.998-1.788-3.998-3.998v-7.996c0-2.21,1.788-3.998,3.998-3.998
		s3.998,1.788,3.998,3.998v7.996C239.885,106.16,238.097,107.948,235.887,107.948z"/>
	<path style="fill:#3A3847;" d="M267.871,371.821c-6.613,0-11.994-5.38-11.994-11.994s5.381-11.994,11.994-11.994
		c6.614,0,11.994,5.38,11.994,11.994S274.485,371.821,267.871,371.821z M267.871,355.829c-2.201,0-3.998,1.796-3.998,3.998
		s1.797,3.998,3.998,3.998c2.202,0,3.998-1.796,3.998-3.998S270.073,355.829,267.871,355.829z"/>
	<path style="fill:#3A3847;" d="M227.887,411.802c-0.555,0-1.121-0.117-1.659-0.358c-2.007-0.922-2.89-3.296-1.972-5.303
		c12.701-27.783,36.342-42.354,37.342-42.964c1.889-1.132,4.345-0.538,5.485,1.343c1.147,1.891,0.554,4.342-1.335,5.49
		c-0.219,0.141-22.576,13.978-34.223,39.457C230.854,410.936,229.405,411.802,227.887,411.802z"/>
	<path style="fill:#3A3847;" d="M243.887,411.802c-0.16,0-0.324-0.008-0.488-0.031c-2.19-0.265-3.752-2.257-3.487-4.45l3.358-27.636
		c0.269-2.187,2.249-3.787,4.455-3.482c2.19,0.266,3.752,2.257,3.487,4.45l-3.358,27.636
		C247.604,410.311,245.882,411.802,243.887,411.802z"/>
	<path style="fill:#3A3847;" d="M267.871,395.81c-2.209,0-3.998-1.788-3.998-3.998c0-6.028-7.918-14.032-10.69-16.359
		c-1.694-1.421-1.913-3.943-0.492-5.63c1.417-1.687,3.947-1.913,5.63-0.492c1.39,1.164,13.548,11.682,13.548,22.481
		C271.869,394.022,270.081,395.81,267.871,395.81z"/>
	<path style="fill:#3A3847;" d="M235.887,339.837c-2.21,0-3.998-1.788-3.998-3.998v-39.982c0-2.209,1.788-3.998,3.998-3.998
		s3.998,1.789,3.998,3.998v39.981C239.885,338.049,238.097,339.837,235.887,339.837z"/>
	<path style="fill:#3A3847;" d="M259.883,307.852c-2.209,0-3.998-1.788-3.998-3.998v-63.969c0-2.21,1.789-3.998,3.998-3.998
		c2.21,0,3.998,1.788,3.998,3.998v63.969C263.881,306.064,262.093,307.852,259.883,307.852z"/>
	<path style="fill:#3A3847;" d="M283.863,323.844c-2.209,0-3.998-1.787-3.998-3.998v-15.992c0-2.209,1.789-3.998,3.998-3.998
		c2.211,0,3.998,1.789,3.998,3.998v15.992C287.861,322.057,286.074,323.844,283.863,323.844z"/>
	<path style="fill:#3A3847;" d="M507.756,459.779H3.998c-2.21,0-3.998-1.789-3.998-3.998c0-2.21,1.788-3.998,3.998-3.998h503.758
		c2.21,0,3.998,1.788,3.998,3.998C511.754,457.99,509.966,459.779,507.756,459.779z"/>
	<path style="fill:#3A3847;" d="M443.787,443.787c-2.21,0-3.998-1.789-3.998-3.998v-71.966c0-2.21,1.788-3.998,3.998-3.998
		s3.998,1.788,3.998,3.998v71.966C447.785,441.998,445.997,443.787,443.787,443.787z"/>
	<path style="fill:#3A3847;" d="M443.787,426.795c-15.43,0-27.986-12.557-27.986-27.986c0-1.07,7.824-106.949,27.986-106.949
		s27.986,105.879,27.986,106.949C471.774,414.238,459.217,426.795,443.787,426.795z M443.483,299.809
		c-3.35,1.812-19.686,58.301-19.686,99c0,11.025,8.964,19.99,19.99,19.99c11.025,0,19.99-8.965,19.99-19.99
		C463.777,358.117,447.441,301.621,443.483,299.809z"/>
	<path style="fill:#3A3847;" d="M67.968,443.787c-2.21,0-3.998-1.789-3.998-3.998v-71.966c0-2.21,1.788-3.998,3.998-3.998
		s3.998,1.788,3.998,3.998v71.966C71.966,441.998,70.178,443.787,67.968,443.787z"/>
	<path style="fill:#3A3847;" d="M67.968,426.795c-15.431,0-27.987-12.557-27.987-27.986c0-1.07,7.825-106.949,27.987-106.949
		s27.986,105.879,27.986,106.949C95.954,414.238,83.398,426.795,67.968,426.795z M67.663,299.809
		c-3.354,1.812-19.686,58.301-19.686,99c0,11.025,8.968,19.99,19.991,19.99c11.021,0,19.99-8.965,19.99-19.99
		C87.958,358.117,71.626,301.621,67.663,299.809z"/>
</g>
<g>
</g>
<g>
</g>
<g>
</g>
<g>
</g>
<g>
</g>
<g>
</g>
<g>
</g>
<g>
</g>
<g>
</g>
<g>
</g>
<g>
</g>
<g>
</g>
<g>
</g>
<g>
</g>
<g>
</g>
</svg>
