<svg height="512pt" viewBox="-91 0 512 512" width="512pt" xmlns="http://www.w3.org/2000/svg"><path d="m299.523438 512h-269.363282c-5.6875 0-10.300781-4.613281-10.300781-10.300781v-131.40625c0-52.132813 42.261719-94.394531 94.394531-94.394531h101.175782c52.132812 0 94.394531 42.261718 94.394531 94.394531v131.40625c0 5.6875-4.613281 10.300781-10.300781 10.300781zm0 0" fill="#6c6c65"/><path d="m309.820312 405.390625v96.308594c0 5.6875-4.609374 10.300781-10.300781 10.300781h-42.40625v-106.609375zm0 0" fill="#ffb685"/><path d="m309.820312 405.390625v62.265625c-3.929687-1.800781-7.320312-4.726562-9.746093-8.53125l-10.222657-16.070312-10.285156 12.007812c-4.332031 5.058594-10.644531 7.960938-17.3125 7.960938-1.75 0-3.472656-.195313-5.140625-.589844v-57.042969zm0 0" fill="#fc9854"/><path d="m72.570312 405.390625v106.609375h-42.40625c-5.691406 0-10.300781-4.613281-10.300781-10.300781v-96.308594zm0 0" fill="#ffb685"/><path d="m19.863281 405.390625h52.707031v48.574219l-19.011718-11.355469-25.652344 30.867187c-2.226562 2.683594-4.972656 4.777344-8.042969 6.1875zm0 0" fill="#fc9854"/><path d="m310.574219 452.441406-11.734375-18.421875c-3.738282-5.875-12.085938-6.464843-16.617188-1.175781l-12.101562 14.121094c-4.144532 4.839844-11.636719 4.828125-15.769532-.027344l-40.433593-47.539062c-4.871094-5.726563-14.03125-4.523438-17.257813 2.265624l-15.652344 32.921876c-2.9375 6.179687-10.945312 7.867187-16.128906 3.402343l-30.257812-26.058593c-4.234375-3.648438-10.601563-3.28125-14.390625.828124l-27.089844 29.394532c-3.324219 3.609375-8.726563 4.390625-12.9375 1.875l-21.785156-13.007813c-4.382813-2.621093-10.023438-1.65625-13.289063 2.273438l-26.789062 32.230469c-6.199219 7.464843-18.339844 3.078124-18.339844-6.625v-294.050782c-.00390625-91.039062 73.800781-164.84374975 164.84375-164.84374975 91.039062 0 164.839844 73.80468775 164.839844 164.84374975v282.023438c.003906 10.371094-13.539063 14.316406-19.109375 5.570312zm0 0" fill="#f5f6e3"/><path d="m329.6875 164.84375v282.027344c0 10.367187-13.542969 14.320312-19.109375 5.566406l-11.734375-18.421875c-2.222656-3.484375-6.066406-5.109375-9.769531-4.746094v-264.425781c0-45.523438-18.441407-86.722656-48.28125-116.5625-25.316407-25.316406-58.84375-42.445312-96.25-47.039062 6.65625-.816407 13.425781-1.242188 20.300781-1.242188 45.511719 0 86.734375 18.453125 116.558594 48.28125 29.828125 29.835938 48.285156 71.039062 48.285156 116.5625zm0 0" fill="#e0e0d1"/><g fill="#6c6c65"><path d="m152.335938 135.5c0-23.625-17.277344-42.78125-38.59375-42.78125-21.3125 0-38.589844 19.15625-38.589844 42.78125s17.277344 42.78125 38.589844 42.78125c21.316406 0 38.59375-19.15625 38.59375-42.78125zm0 0"/><path d="m243.558594 135.5c0-17.835938-13.042969-32.296875-29.136719-32.296875-16.089844 0-29.136719 14.460937-29.136719 32.296875s13.046875 32.296875 29.136719 32.296875c16.09375 0 29.136719-14.460937 29.136719-32.296875zm0 0"/><path d="m219.910156 238.179688c0 99.367187-21.417968 23.566406-47.835937 23.566406-26.421875 0-47.839844 75.800781-47.839844-23.566406 0-29.285157 21.417969-53.027344 47.839844-53.027344 26.417969 0 47.835937 23.742187 47.835937 53.027344zm0 0"/></g></svg>