<?xml version="1.0" encoding="iso-8859-1"?>
<!-- Generator: Adobe Illustrator 19.0.0, SVG Export Plug-In . SVG Version: 6.00 Build 0)  -->
<svg version="1.1" id="Capa_1" xmlns="http://www.w3.org/2000/svg" xmlns:xlink="http://www.w3.org/1999/xlink" x="0px" y="0px"
	 viewBox="0 0 511.754 511.754" style="enable-background:new 0 0 511.754 511.754;" xml:space="preserve">
<path style="fill:#656D78;" d="M123.94,327.85h-23.348l3.037-8.395c0,0,3.838-7.043-13.673-16.633
	c-17.593-9.518-21.349-2.482-21.349-2.482l-0.242,0.32l-0.398-0.32l0.078-23.824l1.12-3.123
	c13.353,4.957,28.947,8.799,46.778,11.354v19.115c0,5.92,3.198,11.111,7.996,13.916L123.94,327.85L123.94,327.85z"/>
<g style="opacity:0.2;">
	<path d="M115.944,303.861v-19.115l-7.996-1.258v20.373c0,5.92,3.198,12.791,7.996,15.594v8.395h7.996v-10.073
		C119.142,314.973,115.944,309.781,115.944,303.861z"/>
</g>
<path style="fill:#AAB2BD;" d="M159.923,271.877c12.393,0,24.469-0.805,35.983-2.398v17.031c-2.64,0.234-5.357,0.398-8.074,0.555
	c-7.598,0.562-15.594,0.805-23.911,0.805c-17.433,0-33.425-1.125-47.977-3.123c-17.831-2.555-33.425-6.396-46.778-11.354
	c-9.593-3.438-17.991-7.436-25.187-11.832v-21.348C69.088,259.32,111.626,271.877,159.923,271.877z"/>
<path style="fill:#ED5565;" d="M89.957,302.822c-17.593-9.518-21.349-2.482-21.349-2.482l-0.242,0.32l-4.318,5.676l-9.996,13.033
	L39.341,338.64l-14.712,19.352L9.917,377.264l-5.118,6.715c0,0-7.598,14.08,23.988,31.268c31.583,17.193,39.259,3.115,39.259,3.115
	l2.881-7.91l8.156-22.795l8.234-22.863l8.238-22.871l5.037-14.072l3.037-8.395C103.63,319.455,107.468,312.412,89.957,302.822z"/>
<g style="opacity:0.2;">
	<path d="M94.943,305.877c1.815,3.467,0.691,5.582,0.691,5.582l-3.037,8.395l-5.037,14.072l-8.238,22.871l-8.234,22.863
		l-8.156,22.795l-2.881,7.91c0,0-7.676,14.078-39.259-3.115c-5.189-2.828-9.238-5.553-12.518-8.16
		c3.499,4.73,9.656,10.244,20.514,16.156c31.583,17.193,39.259,3.115,39.259,3.115l2.881-7.91l8.156-22.795l8.234-22.863
		l8.238-22.871l5.037-14.072l3.037-8.395C103.63,319.455,106.633,313.865,94.943,305.877z"/>
</g>
<g style="opacity:0.3;">
	<path style="fill:#FFFFFF;" d="M12.795,391.975l5.119-6.715l14.711-19.271l14.712-19.352l14.712-19.271l9.995-13.033l4.318-5.676
		l0.242-0.32c0,0,3.756-7.035,21.349,2.482c1.921,1.055,3.545,2.07,4.986,3.055c-1.511-2.883-5.041-6.701-12.982-11.051
		c-17.593-9.518-21.349-2.482-21.349-2.482l-0.242,0.32l-4.318,5.676l-9.996,13.033l-14.711,19.271l-14.712,19.352L9.917,377.264
		l-5.118,6.715c0,0-5.22,9.848,11.471,23.107C9.589,398.059,12.795,391.975,12.795,391.975z"/>
</g>
<g>
	<rect x="491.767" y="183.917" style="fill:#AAB2BD;" width="15.992" height="31.985"/>
	<rect x="475.767" y="183.917" style="fill:#AAB2BD;" width="15.992" height="31.985"/>
</g>
<polygon style="fill:#656D78;" points="475.772,183.919 475.772,215.904 459.779,207.908 459.779,191.915 "/>
<g style="opacity:0.5;">
	<rect x="491.767" y="183.917" style="fill:#FFFFFF;" width="15.992" height="7.996"/>
</g>
<g style="opacity:0.5;">
	<rect x="475.767" y="183.917" style="fill:#FFFFFF;" width="15.992" height="7.996"/>
</g>
<g style="opacity:0.2;">
	<polygon style="fill:#FFFFFF;" points="459.779,191.915 459.779,199.911 475.772,191.915 475.772,183.919 	"/>
</g>
<g style="opacity:0.2;">
	<polygon points="491.764,215.904 475.772,215.904 459.779,207.908 459.779,199.911 475.772,207.908 491.764,207.908 
		507.756,207.908 507.756,215.904 	"/>
</g>
<path style="fill:#FFCE54;" d="M403.65,191.915c-0.805-27.19-5.764-47.977-11.838-47.977c-6.076,0-11.034,20.787-11.839,47.977
	c-0.078,2.553-0.156,5.279-0.156,7.996s0.078,5.357,0.156,7.997c0.805,27.104,5.763,47.977,11.839,47.977
	c6.074,0,11.033-20.873,11.838-47.977c0.078-2.64,0.156-5.279,0.156-7.997S403.729,194.468,403.65,191.915z"/>
<g>
	<path style="fill:#656D78;" d="M459.623,199.911c0,2.717,0.156,5.357,0.312,7.997h-0.312H298.981
		c1.108-2.64,1.741-5.279,1.741-7.997s-0.633-5.357-1.741-7.996h160.642h0.312C459.779,194.468,459.623,197.194,459.623,199.911z"/>
	<path style="fill:#656D78;" d="M20.869,207.908H3.998v-15.993h16.871c-0.559,2.639-0.878,5.279-0.878,7.996
		S20.311,205.268,20.869,207.908z"/>
</g>
<path style="fill:#ED5565;" d="M298.981,207.908c-3.046,14.313-14.243,27.346-31.11,37.739c-4.876,3.116-10.232,5.919-15.992,8.48
	c-5.036,2.233-10.394,4.31-15.992,6.154v0.078c-12.154,4.076-25.589,7.121-39.98,9.119c-11.514,1.594-23.59,2.398-35.983,2.398
	c-48.297,0-90.835-12.557-115.944-31.665c-12.392-9.441-20.548-20.475-23.11-32.305c-0.559-2.64-0.878-5.279-0.878-7.997
	s0.32-5.357,0.878-7.996c4.561-21.349,27.346-39.903,60.131-51.42c22.47-7.91,49.578-12.549,78.923-12.549
	c48.297,0,90.835,12.549,115.944,31.665c12.393,9.433,20.553,20.466,23.114,32.305c0.555,2.639,0.875,5.279,0.875,7.996
	S299.536,205.268,298.981,207.908z M67.968,199.911c4.396,0,7.996-3.6,7.996-7.996c0-4.482-3.6-7.996-7.996-7.996
	s-7.996,3.514-7.996,7.996C59.972,196.311,63.571,199.911,67.968,199.911z M91.956,191.915c0,4.396,3.6,7.996,7.996,7.996
	s7.996-3.6,7.996-7.996c0-4.482-3.6-7.996-7.996-7.996S91.956,187.433,91.956,191.915z M195.906,199.911
	c0-17.671-14.313-31.985-31.985-31.985s-31.985,14.313-31.985,31.985s14.313,31.985,31.985,31.985S195.906,217.583,195.906,199.911z
	"/>
<g style="opacity:0.2;">
	<path d="M300.723,199.911c0,2.717-0.633,5.357-1.741,7.997h8.09c0.484-2.733,0.781-5.381,0.781-7.997
		c0-2.608-0.297-5.255-0.781-7.996h-8.09C300.09,194.554,300.723,197.194,300.723,199.911z"/>
</g>
<g style="opacity:0.3;">
	<path style="fill:#FFFFFF;" d="M81,156.487c22.47-7.91,49.578-12.549,78.923-12.549c48.297,0,90.835,12.549,115.944,31.665
		c12.393,9.433,20.553,20.467,23.114,32.305c0.555-2.64,0.875-5.279,0.875-7.997s-0.32-5.357-0.875-7.996
		c-2.562-11.838-10.722-22.872-23.114-32.305c-25.108-19.116-67.646-31.665-115.944-31.665c-29.345,0-56.454,4.639-78.923,12.549
		c-32.785,11.518-55.57,30.071-60.131,51.42c-0.559,2.639-0.878,5.279-0.878,7.996s0.32,5.357,0.878,7.997
		C25.43,186.558,48.215,168.004,81,156.487z"/>
</g>
<g style="opacity:0.2;">
	<path d="M238.847,243.335c-22.47,7.91-49.578,12.549-78.923,12.549c-48.297,0-90.835-12.549-115.944-31.665
		c-12.392-9.433-20.548-20.466-23.11-32.305c-0.559,2.639-0.878,5.279-0.878,7.996s0.32,5.357,0.878,7.997
		c2.562,11.838,10.718,22.872,23.11,32.305c25.108,19.116,67.646,31.665,115.943,31.665c29.345,0,56.454-4.639,78.923-12.549
		c32.788-11.518,55.574-30.072,60.135-51.42c0.555-2.64,0.875-5.279,0.875-7.997s-0.32-5.357-0.875-7.996
		C294.421,213.264,271.635,231.818,238.847,243.335z"/>
</g>
<path style="fill:#FFCE54;" d="M275.867,159.61c-25.108-19.116-67.646-31.665-115.944-31.665c-29.345,0-56.454,4.639-78.923,12.549
	l-0.078-0.156l-20.95-52.373c183.911,7.996,215.896,55.973,215.896,55.973v15.672H275.867z"/>
<g style="opacity:0.5;">
	<path style="fill:#FFFFFF;" d="M59.972,87.965l3.264,8.16c180.968,8.433,212.632,55.809,212.632,55.809v-7.996
		C275.867,143.938,243.883,95.961,59.972,87.965z"/>
</g>
<g>
	<path style="fill:#AAB2BD;" d="M67.968,183.919c4.396,0,7.996,3.514,7.996,7.996c0,4.396-3.6,7.996-7.996,7.996
		s-7.996-3.6-7.996-7.996C59.972,187.433,63.571,183.919,67.968,183.919z"/>
	<path style="fill:#AAB2BD;" d="M99.952,183.919c4.396,0,7.996,3.514,7.996,7.996c0,4.396-3.6,7.996-7.996,7.996
		s-7.996-3.6-7.996-7.996C91.956,187.433,95.556,183.919,99.952,183.919z"/>
</g>
<path style="fill:#FFCE54;" d="M163.921,231.896c-17.671,0-31.985-14.313-31.985-31.985s14.313-31.985,31.985-31.985
	s31.985,14.313,31.985,31.985S181.593,231.896,163.921,231.896z"/>
<g style="opacity:0.5;">
	<path style="fill:#FFFFFF;" d="M163.761,176.086c16.305,0,29.595,12.221,31.579,27.987c0.172-1.328,0.406-2.631,0.406-3.998
		c0-17.679-14.313-31.985-31.985-31.985s-31.985,14.306-31.985,31.985c0,1.367,0.234,2.67,0.406,3.998
		C134.166,188.307,147.457,176.086,163.761,176.086z"/>
</g>
<g style="opacity:0.2;">
	<path d="M163.761,223.736c-16.304,0-29.595-12.221-31.579-27.987c-0.172,1.328-0.406,2.631-0.406,3.999
		c0,17.679,14.313,31.984,31.985,31.984s31.985-14.306,31.985-31.984c0-1.367-0.234-2.671-0.406-3.999
		C193.356,211.515,180.066,223.736,163.761,223.736z"/>
</g>
<g style="opacity:0.2;">
	<path d="M275.867,149.998c-27.686-18.827-70.337-30.048-115.944-30.048c-29.205,0-57.414,4.498-81.574,13.001
		c-0.113,0.039-0.215,0.094-0.332,0.133l2.905,7.254L81,140.494c22.47-7.91,49.578-12.549,78.923-12.549
		c48.297,0,90.835,12.549,115.944,31.665V149.998z"/>
</g>
<g style="opacity:0.2;">
	<path d="M43.979,240.212v9.604c27.694,18.835,70.345,30.056,115.944,30.056c12.357,0,24.441-0.82,35.983-2.365v-8.029
		c-11.514,1.594-23.59,2.398-35.983,2.398C111.626,271.877,69.088,259.32,43.979,240.212z"/>
</g>
<g style="opacity:0.2;">
	<path style="fill:#FFFFFF;" d="M459.623,191.915H307.071c0.484,2.741,0.781,5.388,0.781,7.996h151.771
		c0-2.717,0.156-5.443,0.312-7.996H459.623z"/>
</g>
<path style="fill:#ED5565;" d="M123.94,317.777c-4.798-2.805-7.996-7.996-7.996-13.916v-19.115
	c8.875,1.201,18.312,2.084,28.225,2.561l-15.992,32.062C126.658,319.049,125.221,318.494,123.94,317.777z"/>
<g style="opacity:0.2;">
	<path style="fill:#FFFFFF;" d="M20.869,191.915H3.998v7.996h15.993C19.991,197.194,20.311,194.554,20.869,191.915z"/>
</g>
<g style="opacity:0.2;">
	<path style="fill:#FFFFFF;" d="M68.608,300.34c0,0,1.601-2.85,7.356-2.414V275.68c-2.292-0.75-4.623-1.484-6.798-2.287l-1.12,3.123
		l-0.078,23.824l0.398,0.32L68.608,300.34z"/>
</g>
<g>
	<path style="fill:#3A3847;" d="M99.948,331.84c-0.699,0-1.409-0.18-2.054-0.57l-39.98-23.988c-1.894-1.133-2.507-3.592-1.371-5.48
		c1.132-1.891,3.592-2.523,5.486-1.375l39.98,23.988c1.894,1.133,2.507,3.592,1.37,5.482
		C102.631,331.145,101.307,331.84,99.948,331.84z"/>
	<path style="fill:#3A3847;" d="M4.807,387.984c-0.844,0-1.698-0.266-2.421-0.818c-1.757-1.344-2.093-3.852-0.753-5.607
		l63.813-83.609c1.335-1.748,3.85-2.092,5.603-0.748c1.757,1.342,2.093,3.85,0.754,5.605L7.988,386.416
		C7.2,387.445,6.013,387.984,4.807,387.984z"/>
	<path style="fill:#3A3847;" d="M68.015,422.391c-0.449,0-0.906-0.078-1.355-0.234c-2.077-0.75-3.155-3.045-2.405-5.123
		l35.655-98.943c0.746-2.07,3.034-3.125,5.115-2.406c2.077,0.75,3.155,3.045,2.405,5.123l-35.654,98.945
		C71.189,421.375,69.65,422.391,68.015,422.391z"/>
	<path style="fill:#3A3847;" d="M55.282,427.795c-7.832,0-17.355-3.031-28.416-9.043C-7.86,399.854,0.91,382.793,1.3,382.074
		c1.05-1.93,3.487-2.656,5.419-1.602c1.909,1.039,2.635,3.404,1.655,5.326c-0.172,0.406-4.4,11.393,22.31,25.924
		c15.22,8.285,23.969,8.73,28.658,7.646c3.803-0.883,5.15-2.867,5.158-2.891c1.058-1.928,3.491-2.654,5.423-1.6
		c1.94,1.053,2.659,3.482,1.604,5.426c-0.285,0.516-2.983,5.139-10.378,6.85C59.315,427.584,57.359,427.795,55.282,427.795z"/>
	<path style="fill:#3A3847;" d="M103.665,323.445c-0.644,0-1.296-0.156-1.901-0.484c-1.94-1.053-2.659-3.475-1.612-5.41
		c-0.086,0.062,0.75-4.162-12.135-11.168c-10.694-5.832-15.297-4.684-16.062-3.811c-1.039,1.953-3.346,2.523-5.302,1.5
		c-1.952-1.031-2.596-3.615-1.562-5.568c0.738-1.389,2.565-3.186,5.49-4.068c5.232-1.561,12.381,0.078,21.259,4.92
		c20.479,11.127,15.93,20.92,15.344,21.998C106.457,322.688,105.083,323.445,103.665,323.445z"/>
	<path style="fill:#3A3847;" d="M74.429,416.4c-0.644,0-1.3-0.156-1.905-0.484L4.447,378.873c-1.94-1.055-2.659-3.484-1.601-5.428
		c1.05-1.93,3.486-2.646,5.419-1.602l68.077,37.045c1.94,1.055,2.658,3.482,1.601,5.428C77.221,415.645,75.847,416.4,74.429,416.4z"
		/>
	<path style="fill:#3A3847;" d="M82.644,393.561c-0.644,0-1.3-0.156-1.905-0.484l-61.564-33.5c-1.94-1.053-2.659-3.482-1.601-5.426
		c1.054-1.938,3.479-2.648,5.419-1.602l61.564,33.5c1.941,1.055,2.659,3.482,1.601,5.426
		C85.436,392.803,84.062,393.561,82.644,393.561z"/>
	<path style="fill:#3A3847;" d="M90.859,370.721c-0.644,0-1.3-0.156-1.905-0.484l-55.067-29.963
		c-1.94-1.055-2.659-3.482-1.601-5.428c1.051-1.928,3.487-2.654,5.42-1.6l55.067,29.961c1.94,1.055,2.659,3.484,1.601,5.428
		C93.65,369.963,92.276,370.721,90.859,370.721z"/>
	<path style="fill:#3A3847;" d="M99.074,347.871c-0.644,0-1.3-0.156-1.905-0.484l-48.563-26.424
		c-1.94-1.055-2.659-3.482-1.601-5.428c1.05-1.928,3.482-2.646,5.419-1.6l48.562,26.424c1.94,1.055,2.659,3.482,1.601,5.428
		C101.865,347.113,100.491,347.871,99.074,347.871z"/>
	<path style="fill:#3A3847;" d="M171.918,323.844h-39.981c-2.21,0-3.998-1.787-3.998-3.998c0-2.209,1.788-3.998,3.998-3.998h39.981
		c2.21,0,3.999,1.789,3.999,3.998C175.916,322.057,174.127,323.844,171.918,323.844z"/>
	<path style="fill:#3A3847;" d="M171.918,323.844c-2.209,0-3.998-1.787-3.998-3.998c0-2.209,1.789-3.998,3.998-3.998
		c6.614,0,11.995-5.381,11.995-11.994c0-2.209,1.788-3.998,3.998-3.998s3.998,1.789,3.998,3.998
		C191.908,314.879,182.939,323.844,171.918,323.844z"/>
	<path style="fill:#3A3847;" d="M187.91,307.852c-2.21,0-3.998-1.789-3.998-3.998v-7.996c0-2.209,1.788-3.998,3.998-3.998
		s3.998,1.789,3.998,3.998v7.996C191.908,306.063,190.12,307.852,187.91,307.852z"/>
	<path style="fill:#3A3847;" d="M67.968,291.859c-2.444,0.031-4.006-1.805-3.998-4.014l0.047-11.322
		c0.008-2.203,1.796-3.982,3.998-3.982c0.004,0,0.012,0,0.016,0c2.21,0.008,3.99,1.803,3.982,4.014l-0.047,11.322
		C71.958,290.078,70.17,291.859,67.968,291.859z"/>
	<path style="fill:#3A3847;" d="M195.906,290.523c-2.21,0-3.998-1.787-3.998-3.998v-8.223c0-2.209,1.788-3.998,3.998-3.998
		s3.998,1.789,3.998,3.998v8.223C199.904,288.736,198.116,290.523,195.906,290.523z"/>
	<path style="fill:#3A3847;" d="M131.937,323.844c-11.021,0-19.99-8.965-19.99-19.99c0-2.209,1.788-3.998,3.998-3.998
		s3.998,1.789,3.998,3.998c0,6.613,5.38,11.994,11.994,11.994c2.21,0,3.998,1.789,3.998,3.998
		C135.935,322.057,134.147,323.844,131.937,323.844z"/>
	<path style="fill:#3A3847;" d="M115.944,307.852c-2.21,0-3.998-1.789-3.998-3.998v-7.996c0-2.209,1.788-3.998,3.998-3.998
		s3.998,1.789,3.998,3.998v7.996C119.942,306.063,118.154,307.852,115.944,307.852z"/>
	<path style="fill:#3A3847;" d="M123.94,331.84h-15.992c-2.21,0-3.998-1.787-3.998-3.998c0-2.209,1.788-3.998,3.998-3.998h15.992
		c2.21,0,3.998,1.789,3.998,3.998C127.939,330.053,126.15,331.84,123.94,331.84z"/>
	<path style="fill:#3A3847;" d="M131.933,315.848c-0.601,0-1.21-0.133-1.784-0.422c-1.976-0.992-2.776-3.389-1.788-5.365
		l7.996-15.992c0.988-1.967,3.389-2.779,5.365-1.787s2.776,3.389,1.788,5.365l-7.996,15.992
		C134.811,315.035,133.401,315.848,131.933,315.848z"/>
	<path style="fill:#3A3847;" d="M159.923,275.867c-79.364,0-143.931-34.078-143.931-75.964s64.567-75.963,143.931-75.963
		s143.931,34.077,143.931,75.963S239.288,275.867,159.923,275.867z M159.923,131.936c-74.956,0-135.935,30.493-135.935,67.967
		s60.979,67.968,135.935,67.968s135.934-30.494,135.934-67.968S234.879,131.936,159.923,131.936z"/>
	<path style="fill:#3A3847;" d="M163.921,291.859c-64.598,0-101.998-14.625-122-26.893c-1.882-1.148-2.475-3.617-1.32-5.498
		c1.152-1.883,3.612-2.482,5.498-1.312c27.034,16.578,68.877,25.707,117.822,25.707c10.928,0,21.572-0.445,31.637-1.32
		c2.14-0.156,4.139,1.438,4.33,3.639c0.191,2.195-1.437,4.139-3.635,4.326C185.958,291.406,175.08,291.859,163.921,291.859z"/>
	<path style="fill:#3A3847;" d="M43.979,265.621c-2.209,0-3.998-1.787-3.998-3.998V247.88c0-2.21,1.789-3.998,3.998-3.998
		c2.21,0,3.998,1.788,3.998,3.998v13.743C47.977,263.834,46.189,265.621,43.979,265.621z"/>
	<path style="fill:#3A3847;" d="M3.998,211.898c-2.21,0-3.998-1.789-3.998-3.998v-15.993c0-2.21,1.788-3.998,3.998-3.998
		s3.998,1.788,3.998,3.998V207.9C7.996,210.109,6.208,211.898,3.998,211.898z"/>
	<path style="fill:#3A3847;" d="M11.994,211.898H3.998c-2.21,0-3.998-1.789-3.998-3.998c0-2.21,1.788-3.999,3.998-3.999h7.996
		c2.21,0,3.998,1.789,3.998,3.999C15.992,210.109,14.204,211.898,11.994,211.898z"/>
	<path style="fill:#3A3847;" d="M11.994,195.905H3.998c-2.21,0-3.998-1.788-3.998-3.998s1.788-3.998,3.998-3.998h7.996
		c2.21,0,3.998,1.788,3.998,3.998S14.204,195.905,11.994,195.905z"/>
	<path style="fill:#3A3847;" d="M99.952,203.901c-6.614,0-11.994-5.38-11.994-11.994s5.38-11.994,11.994-11.994
		s11.994,5.38,11.994,11.994S106.566,203.901,99.952,203.901z M99.952,187.909c-2.206,0-3.998,1.796-3.998,3.998
		s1.792,3.998,3.998,3.998s3.998-1.796,3.998-3.998S102.158,187.909,99.952,187.909z"/>
	<path style="fill:#3A3847;" d="M67.968,203.901c-6.614,0-11.994-5.38-11.994-11.994s5.38-11.994,11.994-11.994
		s11.994,5.38,11.994,11.994S74.582,203.901,67.968,203.901z M67.968,187.909c-2.206,0-3.998,1.796-3.998,3.998
		s1.792,3.998,3.998,3.998s3.998-1.796,3.998-3.998S70.174,187.909,67.968,187.909z"/>
	<path style="fill:#3A3847;" d="M163.921,235.886c-19.842,0-35.983-16.141-35.983-35.983s16.141-35.983,35.983-35.983
		s35.983,16.141,35.983,35.983S183.764,235.886,163.921,235.886z M163.921,171.917c-15.43,0-27.987,12.557-27.987,27.987
		s12.557,27.987,27.987,27.987s27.987-12.557,27.987-27.987S179.352,171.917,163.921,171.917z"/>
	<path style="fill:#3A3847;" d="M150.221,199.334c-1.292,0-2.561-0.625-3.33-1.78c-1.226-1.835-0.73-4.318,1.109-5.544l27.409-18.28
		c1.827-1.226,4.318-0.726,5.544,1.109c1.226,1.835,0.73,4.318-1.108,5.544l-27.409,18.28
		C151.755,199.115,150.982,199.334,150.221,199.334z"/>
	<path style="fill:#3A3847;" d="M177.626,208.469c-0.418,0-0.844-0.062-1.265-0.203l-27.409-9.136
		c-2.093-0.703-3.225-2.967-2.526-5.06c0.699-2.085,2.952-3.233,5.057-2.53l27.408,9.136c2.093,0.703,3.225,2.968,2.526,5.061
		C180.858,207.408,179.301,208.469,177.626,208.469z"/>
	<path style="fill:#3A3847;" d="M150.221,226.75c-1.292,0-2.561-0.624-3.33-1.78c-1.226-1.835-0.73-4.318,1.109-5.544l27.409-18.28
		c1.827-1.226,4.318-0.734,5.544,1.109c1.226,1.835,0.73,4.318-1.108,5.544l-27.409,18.28
		C151.755,226.531,150.982,226.75,150.221,226.75z"/>
	<path style="fill:#3A3847;" d="M107.948,219.894H59.972c-2.21,0-3.998-1.789-3.998-3.998c0-2.21,1.788-3.998,3.998-3.998h47.977
		c2.21,0,3.998,1.788,3.998,3.998C111.946,218.106,110.158,219.894,107.948,219.894z"/>
	<path style="fill:#3A3847;" d="M235.887,264.342c-2.21,0-3.998-1.789-3.998-3.998v-20.459c0-2.21,1.788-3.998,3.998-3.998
		s3.998,1.788,3.998,3.998v20.459C239.885,262.553,238.097,264.342,235.887,264.342z"/>
	<path style="fill:#3A3847;" d="M251.879,258.141c-2.21,0-3.998-1.788-3.998-3.998v-14.259c0-2.21,1.788-3.998,3.998-3.998
		s3.998,1.788,3.998,3.998v14.259C255.877,256.353,254.089,258.141,251.879,258.141z"/>
	<path style="fill:#3A3847;" d="M267.871,249.692c-2.209,0-3.998-1.788-3.998-3.998v-5.81c0-2.21,1.789-3.998,3.998-3.998
		c2.21,0,3.998,1.788,3.998,3.998v5.81C271.869,247.904,270.081,249.692,267.871,249.692z"/>
	<path style="fill:#3A3847;" d="M371.821,195.905h-63.969c-2.21,0-3.998-1.788-3.998-3.998s1.788-3.998,3.998-3.998h63.969
		c2.21,0,3.998,1.788,3.998,3.998S374.031,195.905,371.821,195.905z"/>
	<path style="fill:#3A3847;" d="M371.821,211.898h-63.969c-2.21,0-3.998-1.789-3.998-3.998c0-2.21,1.788-3.999,3.998-3.999h63.969
		c2.21,0,3.998,1.789,3.998,3.999C375.819,210.109,374.031,211.898,371.821,211.898z"/>
	<path style="fill:#3A3847;" d="M459.779,211.898c-2.21,0-3.998-1.789-3.998-3.998v-15.993c0-2.21,1.788-3.998,3.998-3.998
		s3.998,1.788,3.998,3.998V207.9C463.777,210.109,461.989,211.898,459.779,211.898z"/>
	<path style="fill:#3A3847;" d="M475.772,219.894c-0.609,0-1.218-0.133-1.788-0.422l-15.992-7.996
		c-1.976-0.992-2.772-3.389-1.788-5.365c0.991-1.976,3.389-2.788,5.364-1.788l15.992,7.996c1.976,0.992,2.772,3.389,1.788,5.365
		C478.646,219.082,477.239,219.894,475.772,219.894z"/>
	<path style="fill:#3A3847;" d="M459.779,195.905c-1.468,0-2.874-0.812-3.576-2.209c-0.984-1.976-0.188-4.373,1.788-5.365
		l15.992-7.996c1.976-0.991,4.381-0.18,5.364,1.788c0.984,1.976,0.188,4.373-1.788,5.365l-15.992,7.996
		C460.997,195.773,460.389,195.905,459.779,195.905z"/>
	<path style="fill:#3A3847;" d="M475.772,219.894c-2.21,0-3.998-1.789-3.998-3.998v-31.985c0-2.21,1.788-3.998,3.998-3.998
		s3.998,1.788,3.998,3.998v31.985C479.77,218.106,477.981,219.894,475.772,219.894z"/>
	<path style="fill:#3A3847;" d="M491.764,219.894c-2.21,0-3.998-1.789-3.998-3.998v-31.985c0-2.21,1.788-3.998,3.998-3.998
		s3.998,1.788,3.998,3.998v31.985C495.762,218.106,493.974,219.894,491.764,219.894z"/>
	<path style="fill:#3A3847;" d="M507.756,219.894c-2.209,0-3.998-1.789-3.998-3.998v-31.985c0-2.21,1.789-3.998,3.998-3.998
		c2.21,0,3.998,1.788,3.998,3.998v31.985C511.754,218.106,509.966,219.894,507.756,219.894z"/>
	<path style="fill:#3A3847;" d="M391.813,259.875c-15.54,0-15.993-53.834-15.993-59.972s0.453-59.971,15.993-59.971
		c11.041,0,14.445,27.393,15.484,43.713c0.141,2.21-1.531,4.107-3.74,4.248c-2.179,0.195-4.1-1.531-4.24-3.733
		c-1.438-22.543-5.443-33.405-7.52-35.881c-3.108,3.514-7.981,22.091-7.981,51.624s4.873,48.11,7.981,51.624
		c2.076-2.475,6.082-13.345,7.52-35.881c0.141-2.202,2.077-3.975,4.24-3.732c2.209,0.14,3.881,2.038,3.74,4.248
		C406.258,232.481,402.854,259.875,391.813,259.875z"/>
	<path style="fill:#3A3847;" d="M459.779,195.905h-71.966c-2.21,0-3.998-1.788-3.998-3.998s1.788-3.998,3.998-3.998h71.966
		c2.21,0,3.998,1.788,3.998,3.998S461.989,195.905,459.779,195.905z"/>
	<path style="fill:#3A3847;" d="M459.779,211.898h-71.966c-2.21,0-3.998-1.789-3.998-3.998c0-2.21,1.788-3.999,3.998-3.999h71.966
		c2.21,0,3.998,1.789,3.998,3.999C463.777,210.109,461.989,211.898,459.779,211.898z"/>
	<path style="fill:#3A3847;" d="M507.756,219.894h-7.996c-2.21,0-3.998-1.789-3.998-3.998c0-2.21,1.788-3.998,3.998-3.998h7.996
		c2.21,0,3.998,1.788,3.998,3.998C511.754,218.106,509.966,219.894,507.756,219.894z"/>
	<path style="fill:#3A3847;" d="M507.756,187.909h-7.996c-2.21,0-3.998-1.789-3.998-3.998c0-2.21,1.788-3.998,3.998-3.998h7.996
		c2.21,0,3.998,1.788,3.998,3.998C511.754,186.121,509.966,187.909,507.756,187.909z"/>
	<path style="fill:#3A3847;" d="M491.764,219.894h-7.996c-2.21,0-3.998-1.789-3.998-3.998c0-2.21,1.788-3.998,3.998-3.998h7.996
		c2.21,0,3.998,1.788,3.998,3.998C495.762,218.106,493.974,219.894,491.764,219.894z"/>
	<path style="fill:#3A3847;" d="M491.764,187.909h-7.996c-2.21,0-3.998-1.789-3.998-3.998c0-2.21,1.788-3.998,3.998-3.998h7.996
		c2.21,0,3.998,1.788,3.998,3.998C495.762,186.121,493.974,187.909,491.764,187.909z"/>
	<path style="fill:#3A3847;" d="M275.867,147.928c-1.28,0-2.537-0.617-3.311-1.757c-0.531-0.742-34.839-46.485-212.757-54.216
		c-2.206-0.102-3.92-1.968-3.822-4.17c0.097-2.21,2.05-3.686,4.166-3.826c183.826,7.996,217.701,55.723,219.051,57.753
		c1.226,1.835,0.733,4.318-1.109,5.544C277.398,147.71,276.633,147.928,275.867,147.928z"/>
	<path style="fill:#3A3847;" d="M75.964,131.936c-1.585,0-3.089-0.953-3.713-2.515l-15.993-39.98
		c-0.82-2.046,0.18-4.373,2.229-5.193c2.038-0.82,4.376,0.172,5.197,2.226l15.993,39.981c0.82,2.046-0.18,4.373-2.229,5.192
		C76.963,131.842,76.46,131.936,75.964,131.936z"/>
</g>
<g>
</g>
<g>
</g>
<g>
</g>
<g>
</g>
<g>
</g>
<g>
</g>
<g>
</g>
<g>
</g>
<g>
</g>
<g>
</g>
<g>
</g>
<g>
</g>
<g>
</g>
<g>
</g>
<g>
</g>
</svg>
