<svg height="512pt" viewBox="-119 0 512 512" width="512pt" xmlns="http://www.w3.org/2000/svg"><path d="m226.574219 65.402344c1.644531-3.960938 2.519531-8.089844 2.519531-12.339844 0-29.304688-41.449219-53.0625-92.585938-53.0625-51.132812 0-92.585937 23.757812-92.585937 53.0625 0 4.25.878906 8.382812 2.523437 12.339844zm0 0" fill="#ff4e61"/><path d="m273.019531 378.570312v123.128907c0 5.6875-4.613281 10.300781-10.304687 10.300781h-252.414063c-5.6875 0-10.300781-4.613281-10.300781-10.300781v-123.128907c0-49.082031 39.789062-88.875 88.875-88.875h95.269531c49.082031 0 88.875 39.792969 88.875 88.875zm0 0" fill="#006df0"/><path d="m185.1875 512h-97.355469v-119.503906c0-5.6875 4.613281-10.300782 10.304688-10.300782h76.75c5.6875 0 10.300781 4.613282 10.300781 10.300782zm0 0" fill="#ffd02f"/><path d="m185.1875 512h-23.480469v-129.804688h13.179688c5.6875 0 10.300781 4.613282 10.300781 10.300782zm0 0" fill="#d80000"/><path d="m111.3125 512h-23.480469v-119.503906c0-5.6875 4.613281-10.300782 10.304688-10.300782h13.175781zm0 0" fill="#d80000"/><path d="m273.015625 378.578125v123.121094c0 5.6875-4.613281 10.300781-10.300781 10.300781h-39.328125v-133.421875c0-49.09375-39.789063-88.882813-88.878907-88.882813h49.628907c49.085937 0 88.878906 39.792969 88.878906 88.882813zm0 0" fill="#0052d6"/><path d="m57.359375 372.574219v139.425781h-15.453125v-139.425781c0-4.273438 3.453125-7.726563 7.726562-7.726563 4.265626 0 7.726563 3.453125 7.726563 7.726563zm0 0" fill="#0052d6"/><path d="m180.789062 289.695312v15.542969c0 20.390625-16.535156 36.925781-36.929687 36.925781h-14.699219c-20.394531 0-36.929687-16.535156-36.929687-36.925781v-15.542969h22.929687v-47.273437h42.699219v47.273437zm0 0" fill="#81caef"/><path d="m157.859375 242.421875v35.914063c-6.921875 1.855468-14.070313 2.808593-21.351563 2.808593s-14.425781-.957031-21.347656-2.808593v-35.914063zm0 0" fill="#64b0e0"/><path d="m265.078125 172.632812c0 15.652344-12.691406 28.34375-28.34375 28.34375s-28.34375-12.691406-28.34375-28.34375c0-15.652343 12.691406-28.34375 28.34375-28.34375s28.34375 12.691407 28.34375 28.34375zm0 0" fill="#81caef"/><path d="m64.628906 172.632812c0 15.652344-12.691406 28.34375-28.34375 28.34375-15.65625 0-28.34375-12.691406-28.34375-28.34375 0-15.652343 12.6875-28.34375 28.34375-28.34375 15.652344 0 28.34375 12.691407 28.34375 28.34375zm0 0" fill="#81caef"/><path d="m223.738281 82.136719v76.878906c0 60.980469-39.054687 110.421875-87.230469 110.421875-48.171874 0-87.230468-49.441406-87.230468-110.421875v-76.878906zm0 0" fill="#b0e8ff"/><path d="m136.507812 228.355469c-12.992187 0-24.226562-10.988281-26.710937-26.128907-.6875-4.210937 2.164063-8.183593 6.375-8.875 4.21875-.6875 8.183594 2.160157 8.875 6.375 1.230469 7.511719 6.160156 13.175782 11.460937 13.175782 5.304688 0 10.230469-5.664063 11.464844-13.175782.6875-4.210937 4.660156-7.074218 8.875-6.375 4.210938.691407 7.0625 4.664063 6.371094 8.875-2.484375 15.140626-13.714844 26.128907-26.710938 26.128907zm0 0" fill="#006df0"/><g fill="#3d3d38"><path d="m96.828125 178.425781c-4.269531 0-7.726563-3.460937-7.726563-7.726562v-.90625c0-4.265625 3.460938-7.726563 7.726563-7.726563 4.269531 0 7.726563 3.460938 7.726563 7.726563v.90625c0 4.265625-3.457032 7.726562-7.726563 7.726562zm0 0"/><path d="m176.191406 178.425781c-4.269531 0-7.726562-3.460937-7.726562-7.726562v-.90625c0-4.265625 3.457031-7.726563 7.726562-7.726563 4.265625 0 7.722656 3.460938 7.722656 7.726563v.90625c0 4.265625-3.457031 7.726562-7.722656 7.726562zm0 0"/><path d="m247.335938 119.367188c-1.796876 4.933593-7.1875 7.59375-12.175782 5.945312-31.71875-10.488281-64.859375-15.800781-98.652344-15.800781-33.789062 0-66.929687 5.3125-98.652343 15.800781-4.984375 1.648438-10.375-1.007812-12.175781-5.945312l-18.382813-50.464844c-1.886719-5.179688.890625-10.867188 6.117187-12.617188 39.585938-13.265625 80.945313-19.984375 123.09375-19.984375 42.148438 0 83.511719 6.71875 123.097657 19.984375 5.222656 1.75 8.003906 7.4375 6.117187 12.617188zm0 0"/></g><path d="m155.3125 152.28125h-37.609375c-5.6875 0-10.300781-4.609375-10.300781-10.300781v-66.277344c0-5.6875 4.613281-10.300781 10.300781-10.300781h37.609375c5.691406 0 10.304688 4.613281 10.304688 10.300781v66.277344c0 5.691406-4.613282 10.300781-10.304688 10.300781zm0 0" fill="#ffd02f"/><path d="m146.269531 89.890625h-2.546875v-3.988281c0-4.265625-3.457031-7.726563-7.726562-7.726563-4.265625 0-7.726563 3.460938-7.726563 7.726563v3.988281h-1.519531c-4.269531 0-7.726562 3.457031-7.726562 7.726563v32.210937c0 4.269531 3.457031 7.726563 7.726562 7.726563 4.265625 0 7.726562-3.457032 7.726562-7.726563v-24.484375h4.070313v3.5c0 4.265625 3.457031 7.722656 7.722656 7.722656 4.269531 0 7.726563-3.457031 7.726563-7.722656v-11.226562c0-4.265626-3.457032-7.726563-7.726563-7.726563zm0 0" fill="#d80000"/><path d="m146.269531 120.152344c-4.265625 0-7.722656 3.457031-7.722656 7.726562v1.949219c0 4.269531 3.457031 7.726563 7.722656 7.726563 4.269531 0 7.726563-3.457032 7.726563-7.726563v-1.949219c0-4.269531-3.457032-7.726562-7.726563-7.726562zm0 0" fill="#d80000"/><path d="m100.285156 192.632812c0 4.707032-3.816406 8.523438-8.523437 8.523438s-8.527344-3.816406-8.527344-8.523438c0-4.710937 3.820313-8.527343 8.527344-8.527343s8.523437 3.816406 8.523437 8.527343zm0 0" fill="#ff8294"/><path d="m189.78125 192.632812c0 4.707032-3.816406 8.523438-8.523438 8.523438-4.710937 0-8.527343-3.816406-8.527343-8.523438 0-4.710937 3.816406-8.527343 8.527343-8.527343 4.707032 0 8.523438 3.816406 8.523438 8.527343zm0 0" fill="#ff8294"/><path d="m98.480469 291.140625c0 8.222656-6.664063 14.886719-14.890625 14.886719-8.222656 0-14.890625-6.664063-14.890625-14.886719 0-8.226563 6.667969-14.890625 14.890625-14.890625 8.226562 0 14.890625 6.664062 14.890625 14.890625zm0 0" fill="#b1de54"/><path d="m89.238281 317.097656c0 8.222656-6.664062 14.890625-14.890625 14.890625-8.222656 0-14.886718-6.667969-14.886718-14.890625s6.664062-14.890625 14.886718-14.890625c8.226563 0 14.890625 6.667969 14.890625 14.890625zm0 0" fill="#92c927"/><path d="m86.261719 342.757812c0 8.222657-6.667969 14.886719-14.890625 14.886719s-14.890625-6.664062-14.890625-14.886719c0-8.226562 6.667969-14.890624 14.890625-14.890624s14.890625 6.664062 14.890625 14.890624zm0 0" fill="#b1de54"/><path d="m101.148438 364.4375c0 8.222656-6.664063 14.886719-14.886719 14.886719-8.226563 0-14.890625-6.664063-14.890625-14.886719 0-8.226562 6.664062-14.890625 14.890625-14.890625 8.222656 0 14.886719 6.664063 14.886719 14.890625zm0 0" fill="#92c927"/><path d="m126.199219 377.265625c0 8.222656-6.664063 14.890625-14.886719 14.890625-8.226562 0-14.890625-6.667969-14.890625-14.890625s6.664063-14.890625 14.890625-14.890625c8.222656 0 14.886719 6.667969 14.886719 14.890625zm0 0" fill="#b1de54"/><path d="m204.316406 291.140625c0 8.222656-6.664062 14.886719-14.890625 14.886719-8.222656 0-14.890625-6.664063-14.890625-14.886719 0-8.226563 6.667969-14.890625 14.890625-14.890625 8.226563 0 14.890625 6.664062 14.890625 14.890625zm0 0" fill="#b1de54"/><path d="m213.558594 317.097656c0 8.222656-6.667969 14.890625-14.890625 14.890625-8.222657 0-14.890625-6.667969-14.890625-14.890625s6.667968-14.890625 14.890625-14.890625c8.222656 0 14.890625 6.667969 14.890625 14.890625zm0 0" fill="#92c927"/><path d="m216.535156 342.757812c0 8.222657-6.664062 14.886719-14.886718 14.886719-8.226563 0-14.890626-6.664062-14.890626-14.886719 0-8.226562 6.664063-14.890624 14.890626-14.890624 8.222656 0 14.886718 6.664062 14.886718 14.890624zm0 0" fill="#b1de54"/><path d="m201.648438 364.4375c0 8.222656-6.667969 14.886719-14.890626 14.886719-8.222656 0-14.890624-6.664063-14.890624-14.886719 0-8.226562 6.667968-14.890625 14.890624-14.890625 8.222657 0 14.890626 6.664063 14.890626 14.890625zm0 0" fill="#92c927"/><path d="m176.597656 377.265625c0 8.222656-6.667968 14.890625-14.890625 14.890625-8.222656 0-14.890625-6.667969-14.890625-14.890625s6.667969-14.890625 14.890625-14.890625c8.222657 0 14.890625 6.667969 14.890625 14.890625zm0 0" fill="#b1de54"/><path d="m151.398438 382.195312c0 8.222657-6.664063 14.890626-14.890626 14.890626-8.222656 0-14.890624-6.667969-14.890624-14.890626 0-8.222656 6.667968-14.890624 14.890624-14.890624 8.226563 0 14.890626 6.667968 14.890626 14.890624zm0 0" fill="#92c927"/></svg>