<svg height="512pt" viewBox="-61 0 512 512" width="512pt" xmlns="http://www.w3.org/2000/svg"><path d="m384.28125 449.800781c15.089844-26.132812.941406-62.542969-31.597656-81.332031-32.539063-18.785156-71.144532-12.832031-86.230469 13.300781-15.089844 26.128907-.941406 62.542969 31.597656 81.328125 32.535157 18.785156 71.144531 12.832032 86.230469-13.296875zm0 0" fill="#81caef"/><path d="m378.101562 281.296875c-15.085937-26.128906-53.695312-32.085937-86.234374-13.296875-32.539063 18.785156-46.683594 55.199219-31.597657 81.328125 15.085938 26.132813 53.695313 32.085937 86.234375 13.300781 32.535156-18.789062 46.683594-55.199218 31.597656-81.332031zm0 0" fill="#b0e8ff"/><path d="m6.023438 449.820312c15.089843 26.128907 53.695312 32.085938 86.234374 13.296876 32.539063-18.785157 46.6875-55.199219 31.597657-81.328126-15.085938-26.132812-53.695313-32.085937-86.230469-13.300781-32.539062 18.789063-46.6875 55.199219-31.601562 81.332031zm0 0" fill="#81caef"/><path d="m12.207031 281.3125c-15.089843 26.132812-.941406 62.542969 31.597657 81.332031 32.539062 18.785157 71.144531 12.832031 86.230468-13.300781 15.089844-26.128906.941406-62.542969-31.597656-81.328125-32.535156-18.785156-71.144531-12.832031-86.230469 13.296875zm0 0" fill="#b0e8ff"/><g fill="#ffd02f"><path d="m328.738281 167.277344c0 19.804687-16.054687 35.859375-35.859375 35.859375-19.804687 0-35.855468-16.054688-35.855468-35.859375 0-19.804688 16.050781-35.859375 35.855468-35.859375 19.804688 0 35.859375 16.054687 35.859375 35.859375zm0 0"/><path d="m133.292969 167.277344c0 19.804687-16.054688 35.859375-35.859375 35.859375-19.804688 0-35.859375-16.054688-35.859375-35.859375 0-19.804688 16.054687-35.859375 35.859375-35.859375 19.804687 0 35.859375 16.054687 35.859375 35.859375zm0 0"/><path d="m236.480469 320.566406c37.332031 0 65.917969-33.460937 59.8125-70.292968-3.664063-22.109376-5.613281-43.90625-5.613281-58.582032v-29.628906c0-52.757812-42.769532-95.523438-95.523438-95.523438s-95.519531 42.769532-95.519531 95.523438v29.628906c0 14.671875-1.949219 36.472656-5.613281 58.582032-6.109376 36.832031 22.476562 70.289062 59.8125 70.289062h82.644531zm0 0"/></g><path d="m236.480469 320.566406h-82.648438c-37.332031 0-65.914062-33.460937-59.8125-70.292968.792969-4.78125 1.5-9.554688 2.136719-14.25 7.832031 23.964843 30.421875 41.789062 57.675781 41.789062h82.648438c27.257812 0 49.847656-17.824219 57.675781-41.789062.636719 4.695312 1.347656 9.46875 2.136719 14.25 6.105469 36.832031-22.480469 70.292968-59.8125 70.292968zm0 0" fill="#fa0"/><path d="m315.605469 394.269531v107.429688c0 5.6875-4.613281 10.300781-10.300781 10.300781h-220.292969c-5.691407 0-10.304688-4.613281-10.304688-10.300781v-107.429688c0-11.445312 2.460938-22.3125 6.871094-32.121093 12.257813-27.289063 39.683594-46.292969 71.546875-46.292969h84.0625c31.863281 0 59.289062 19.003906 71.546875 46.292969 4.410156 9.808593 6.871094 20.675781 6.871094 32.121093zm0 0" fill="#5a5a52"/><path d="m118.507812 474.539062h153.300782v37.460938h-153.300782zm0 0" fill="#ffd02f"/><path d="m118.507812 399.613281h153.300782v37.460938h-153.300782zm0 0" fill="#ffd02f"/><path d="m315.597656 394.28125v107.417969c0 5.6875-4.609375 10.300781-10.300781 10.300781h-33.484375v-117.71875c0-43.316406-35.109375-78.421875-78.421875-78.421875h43.789063c43.308593 0 78.417968 35.109375 78.417968 78.421875zm0 0" fill="#3d3d38"/><path d="m308.738281 362.148438h-227.164062c12.261719-27.285157 39.695312-46.289063 71.554687-46.289063h84.058594c31.855469 0 59.289062 19.003906 71.550781 46.289063zm0 0" fill="#ffcfa1"/><path d="m308.738281 362.148438h-43.792969c-12.269531-27.285157-39.695312-46.289063-71.550781-46.289063h43.792969c31.855469 0 59.289062 19.003906 71.550781 46.289063zm0 0" fill="#ffb685"/><path d="m176.324219 274.148438h37.664062v60.125h-37.664062zm0 0" fill="#ffcfa1"/><path d="m213.992188 274.148438v31.6875c-6.105469 1.636718-12.410157 2.480468-18.835938 2.480468s-12.730469-.84375-18.835938-2.480468v-31.6875zm0 0" fill="#ffb685"/><path d="m126.226562 388.976562v123.023438h-15.453124v-123.023438c0-4.265624 3.460937-7.726562 7.726562-7.726562s7.726562 3.460938 7.726562 7.726562zm0 0" fill="#3d3d38"/><path d="m308.59375 212.570312c0 13.8125-11.195312 25.007813-25.007812 25.007813s-25.007813-11.195313-25.007813-25.007813c0-13.808593 11.195313-25.007812 25.007813-25.007812s25.007812 11.199219 25.007812 25.007812zm0 0" fill="#ffb685"/><path d="m131.734375 212.570312c0 13.8125-11.195313 25.007813-25.007813 25.007813-13.808593 0-25.007812-11.195313-25.007812-25.007813 0-13.808593 11.199219-25.007812 25.007812-25.007812 13.8125 0 25.007813 11.199219 25.007813 25.007812zm0 0" fill="#ffb685"/><path d="m204.292969 132.726562c37.460937 0 67.828125 30.367188 67.828125 67.828126v.003906c0 53.804687-34.460938 97.425781-76.964844 97.425781s-76.964844-43.621094-76.964844-97.425781v-.003906c0-37.460938 30.367188-67.828126 67.828125-67.828126zm0 0" fill="#ffcfa1"/><path d="m162.058594 235.324219c0 4.304687-3.484375 7.789062-7.789063 7.789062-4.300781 0-7.789062-3.484375-7.789062-7.789062 0-4.300781 3.488281-7.789063 7.789062-7.789063 4.304688 0 7.789063 3.488282 7.789063 7.789063zm0 0" fill="#ff8294"/><path d="m228.253906 235.324219c0-4.300781 3.484375-7.789063 7.789063-7.789063 4.300781 0 7.789062 3.488282 7.789062 7.789063" fill="#ff8294"/><path d="m243.832031 235.324219c0 4.304687-3.488281 7.789062-7.789062 7.789062s-7.789063-3.484375-7.789063-7.789062" fill="#ff8294"/><path d="m195.15625 262.648438c-11.910156 0-22.199219-10.015626-24.464844-23.816407-.691406-4.210937 2.164063-8.1875 6.375-8.875 4.210938-.6875 8.183594 2.160157 8.875 6.371094 1.015625 6.195313 4.976563 10.867187 9.214844 10.867187s8.199219-4.671874 9.214844-10.867187c.691406-4.210937 4.667968-7.0625 8.875-6.371094 4.210937.691407 7.0625 4.664063 6.375 8.875-2.261719 13.800781-12.550782 23.816407-24.464844 23.816407zm0 0" fill="#ffb685"/><path d="m158.554688 221.378906c-4.269532 0-7.726563-3.460937-7.726563-7.726562v-.800782c0-4.265624 3.457031-7.722656 7.726563-7.722656 4.265624 0 7.722656 3.457032 7.722656 7.722656v.800782c.003906 4.265625-3.457032 7.726562-7.722656 7.726562zm0 0" fill="#3d3d38"/><path d="m231.761719 221.378906c-4.269531 0-7.726563-3.460937-7.726563-7.726562v-.800782c0-4.265624 3.457032-7.722656 7.726563-7.722656 4.265625 0 7.726562 3.457032 7.726562 7.722656v.800782c0 4.265625-3.460937 7.726562-7.726562 7.726562zm0 0" fill="#3d3d38"/><path d="m193.390625 110.011719v3.8125c0 29.523437 23.929687 53.453125 53.453125 53.453125h27.492188v-14.300782c0-23.730468-19.234376-42.964843-42.964844-42.964843zm0 0" fill="#ffd02f"/><path d="m272.203125 175.003906h-25.359375c-33.734375 0-61.179688-27.445312-61.179688-61.179687v-3.8125c0-4.265625 3.460938-7.726563 7.726563-7.726563s7.726563 3.460938 7.726563 7.726563v3.8125c0 25.214843 20.511718 45.726562 45.726562 45.726562h25.359375c4.265625 0 7.726563 3.460938 7.726563 7.726563s-3.457032 7.726562-7.726563 7.726562zm0 0" fill="#fa0"/><path d="m243.707031 126.113281c-4.269531 0-7.726562-3.457031-7.726562-7.722656 0-55.066406 45.136719-87.09375 47.058593-88.433594 3.503907-2.433593 8.320313-1.570312 10.753907 1.933594 2.433593 3.5 1.574219 8.304687-1.917969 10.746094-.402344.285156-40.441406 28.90625-40.441406 75.753906 0 4.265625-3.460938 7.722656-7.726563 7.722656zm0 0" fill="#b0e8ff"/><path d="m322.402344 20.933594c0 11.558594-9.371094 20.929687-20.933594 20.929687-11.558594 0-20.933594-9.371093-20.933594-20.929687 0-11.5625 9.375-20.933594 20.933594-20.933594 11.5625 0 20.933594 9.371094 20.933594 20.933594zm0 0" fill="#5a5a52"/><path d="m146.609375 126.113281c-4.269531 0-7.726563-3.457031-7.726563-7.722656 0-46.847656-40.039062-75.46875-40.441406-75.753906-3.492187-2.449219-4.34375-7.261719-1.90625-10.753907 2.441406-3.492187 7.242188-4.359374 10.742188-1.925781 1.917968 1.339844 47.058594 33.363281 47.058594 88.433594-.003907 4.265625-3.460938 7.722656-7.726563 7.722656zm0 0" fill="#b0e8ff"/><path d="m109.777344 20.933594c0 11.558594-9.371094 20.929687-20.933594 20.929687-11.558594 0-20.929688-9.371093-20.929688-20.929687 0-11.5625 9.371094-20.933594 20.929688-20.933594 11.5625 0 20.933594 9.371094 20.933594 20.933594zm0 0" fill="#5a5a52"/></svg>