<svg height="512pt" viewBox="-89 0 512 512" width="512pt" xmlns="http://www.w3.org/2000/svg"><path d="m334.542969 364.449219v137.25c0 5.6875-4.609375 10.300781-10.300781 10.300781h-313.941407c-5.6875 0-10.300781-4.613281-10.300781-10.300781v-137.25c0-34.203125 17.410156-64.347657 43.867188-82.03125 15.671874-10.5 34.503906-16.609375 54.777343-16.609375h137.257813c20.8125 0 40.113281 6.4375 56.027344 17.460937 25.742187 17.78125 42.613281 47.515625 42.613281 81.179688zm0 0" fill="#ff4e61"/><path d="m291.929688 283.269531c-.621094 3.671875-1.929688 7.269531-3.933594 10.632813l-35.804688 60.296875c-9.050781 15.25-25.703125 24.722656-43.433594 24.722656h-81.582031c-17.742187 0-34.382812-9.472656-43.445312-24.722656l-35.804688-60.296875c-2.152343-3.621094-3.5-7.511719-4.0625-11.484375 15.671875-10.5 34.507813-16.609375 54.777344-16.609375h137.257813c20.816406 0 40.117187 6.4375 56.03125 17.460937zm0 0" fill="#f22"/><path d="m334.542969 364.449219v137.25c0 5.6875-4.609375 10.300781-10.300781 10.300781h-56.15625v-147.550781c0-54.476563-44.15625-98.640625-98.632813-98.640625h66.449219c54.476562 0 98.640625 44.164062 98.640625 98.640625zm0 0" fill="#f22"/><path d="m305.636719 377.4375v134.5625h-275.347657v-134.5625c0-49.5 40.136719-89.636719 89.636719-89.636719h96.074219c49.511719 0 89.636719 40.136719 89.636719 89.636719zm0 0" fill="#828278"/><path d="m305.632812 377.441406v134.558594h-50.050781v-134.558594c0-49.511718-40.125-89.636718-89.636719-89.636718h50.0625c49.5 0 89.625 40.128906 89.625 89.636718zm0 0" fill="#6c6c65"/><path d="m88.070312 392.160156v119.839844h-15.453124v-119.839844c0-4.265625 3.460937-7.726562 7.726562-7.726562s7.726562 3.460937 7.726562 7.726562zm0 0" fill="#6c6c65"/><path d="m261.675781 259.652344h-187.421875c-14.433594 0-23.375 15.714844-16.007812 28.125l35.808594 60.296875c6.941406 11.6875 19.527343 18.851562 33.121093 18.851562h81.578125c13.59375 0 26.179688-7.164062 33.121094-18.851562l35.808594-60.296875c7.371094-12.410156-1.574219-28.125-16.007813-28.125zm0 0" fill="#ff4e61"/><path d="m212.621094 297.804688v5.671874c0 20.570313-16.675782 37.242188-37.242188 37.242188h-14.828125c-20.566406 0-37.242187-16.671875-37.242187-37.242188v-5.671874c0-5.523438 4.476562-10 10-10h13.125v-47.679688h43.0625v47.679688h13.125c5.523437 0 10 4.476562 10 10zm0 0" fill="#828278"/><path d="m189.496094 240.125v36.21875c-6.980469 1.871094-14.1875 2.835938-21.53125 2.835938s-14.550782-.964844-21.53125-2.835938v-36.21875zm0 0" fill="#6c6c65"/><path d="m79.992188 73.71875v82.289062c0 61.5 39.390624 111.363282 87.972656 111.363282 48.585937 0 87.972656-49.863282 87.972656-111.363282v-82.289062zm0 0" fill="#ffdec2"/><path d="m167.964844 245.878906c-10.6875 0-20.164063-7.109375-24.726563-18.554687-1.582031-3.960938.351563-8.457031 4.3125-10.039063 3.960938-1.578125 8.457031.351563 10.039063 4.316406 2.136718 5.359376 6.210937 8.824219 10.375 8.824219 4.164062 0 8.238281-3.464843 10.375-8.824219 1.582031-3.964843 6.074218-5.898437 10.039062-4.316406 3.964844 1.582032 5.894532 6.078125 4.3125 10.039063-4.5625 11.445312-14.039062 18.554687-24.726562 18.554687zm0 0" fill="#ffb685"/><path d="m249.988281 194.90625h-166.425781c-7.316406 0-13.25-5.933594-13.25-13.25v-42.46875c0-7.320312 5.933594-13.25 13.25-13.25h166.425781c7.320313 0 13.253907 5.929688 13.253907 13.25v42.46875c0 7.316406-5.933594 13.25-13.253907 13.25zm0 0" fill="#5a5a52"/><g fill="#3d3d38"><path d="m140.289062 159.515625c-.855468 0-1.722656-.144531-2.574218-.445313l-16.957032-6.003906c-4.023437-1.421875-6.132812-5.835937-4.707031-9.859375 1.421875-4.023437 5.839844-6.128906 9.859375-4.707031l16.957032 6.003906c4.023437 1.421875 6.128906 5.835938 4.707031 9.859375-1.121094 3.171875-4.101563 5.152344-7.285157 5.152344zm0 0"/><path d="m194.253906 159.515625c-3.183594 0-6.160156-1.980469-7.285156-5.152344-1.421875-4.023437.683594-8.4375 4.707031-9.859375l16.957031-6.003906c4.023438-1.421875 8.4375.683594 9.859376 4.707031 1.425781 4.023438-.679688 8.4375-4.703126 9.859375l-16.957031 6.003906c-.851562.300782-1.722656.445313-2.578125.445313zm0 0"/><path d="m128.75 179.894531c-4.269531 0-7.726562-3.460937-7.726562-7.726562v-.878907c0-4.269531 3.457031-7.726562 7.726562-7.726562 4.265625 0 7.726562 3.457031 7.726562 7.726562v.878907c0 4.265625-3.460937 7.726562-7.726562 7.726562zm0 0"/><path d="m205.796875 179.894531c-4.269531 0-7.726563-3.460937-7.726563-7.726562v-.878907c0-4.269531 3.457032-7.726562 7.726563-7.726562 4.265625 0 7.722656 3.457031 7.722656 7.726562v.878907c.003907 4.265625-3.457031 7.726562-7.722656 7.726562zm0 0"/></g><path d="m223.722656 431.800781c0-23.035156-25.273437-41.710937-56.449218-41.710937-31.179688 0-56.453126 18.675781-56.453126 41.710937 0 23.035157 25.273438 41.710938 56.453126 41.710938 31.175781 0 56.449218-18.675781 56.449218-41.710938zm0 0" fill="#ff4e61"/><path d="m57.652344 140.148438c-4.089844 0-7.40625-3.316407-7.40625-7.40625v-40.835938c0-28.164062 22.828125-50.992188 50.992187-50.992188h30.574219v25.074219c0 40.957031-33.203125 74.160157-74.160156 74.160157zm0 0" fill="#d80000"/><path d="m212.023438 105.429688h-74.808594c-12.421875 0-22.492188-10.070313-22.492188-22.492188v-6.015625c0-29.445313 23.867188-53.316406 53.3125-53.316406h95.859375c5.464844 0 9.894531 4.429687 9.894531 9.894531v10.167969c0 34.109375-27.652343 61.761719-61.765624 61.761719zm0 0" fill="#f22"/><path d="m179.410156 81.824219h-43.363281c-15.746094 0-28.511719-12.761719-28.511719-28.507813 0-29.445312 23.871094-53.316406 53.316406-53.316406h70.429688c5.464844 0 9.894531 4.429688 9.894531 9.894531v10.167969c0 34.109375-27.652343 61.761719-61.765625 61.761719zm0 0" fill="#ff4e61"/></svg>