<?xml version="1.0" encoding="iso-8859-1"?>
<!-- Generator: Adobe Illustrator 19.0.0, SVG Export Plug-In . SVG Version: 6.00 Build 0)  -->
<svg version="1.1" id="Capa_1" xmlns="http://www.w3.org/2000/svg" xmlns:xlink="http://www.w3.org/1999/xlink" x="0px" y="0px"
	 viewBox="0 0 511.757 511.757" style="enable-background:new 0 0 511.757 511.757;" xml:space="preserve">
<rect x="291.859" y="4.001" style="fill:#CCD1D9;" width="47.977" height="503.76"/>
<polygon style="fill:#656D78;" points="187.912,475.774 203.904,475.774 219.896,475.774 235.888,475.774 251.88,475.774 
	251.88,491.767 219.896,491.767 203.904,491.767 187.912,491.767 179.916,491.767 171.919,491.767 171.919,475.774 "/>
<g>
	<polygon style="fill:#DA4453;" points="171.919,339.84 187.912,323.847 187.912,475.774 171.919,475.774 	"/>
	<polygon style="fill:#DA4453;" points="251.88,339.84 251.88,475.774 235.888,475.774 235.888,323.847 	"/>
</g>
<polygon style="fill:#ED5565;" points="219.896,339.84 219.896,475.774 203.904,475.774 203.904,339.84 211.9,331.844 "/>
<rect x="187.909" y="131.938" style="fill:#656D78;" width="15.992" height="159.92"/>
<polygon style="fill:#E6E9ED;" points="187.912,131.939 187.912,75.966 235.888,75.966 235.888,323.847 235.888,475.774 
	219.896,475.774 219.896,339.84 211.9,331.844 203.904,339.84 203.904,475.774 187.912,475.774 187.912,323.847 187.912,291.862 
	203.904,291.862 203.904,131.939 "/>
<path style="fill:#ED5565;" d="M211.978,4.157c1.358,2.803,23.91,48.539,23.91,71.809h-47.977c0-23.988,23.988-71.965,23.988-71.965
	S211.9,4.079,211.978,4.157z"/>
<g style="opacity:0.3;">
	<path style="fill:#FFFFFF;" d="M211.978,4.157C211.9,4.079,211.9,4.001,211.9,4.001s-23.988,47.977-23.988,71.965h7.996
		c0-17.781,13.165-48.703,19.982-63.532C213.805,7.897,212.298,4.813,211.978,4.157z"/>
</g>
<g style="opacity:0.2;">
	<path d="M215.648,11.872c6.747,14.618,20.24,46.103,20.24,64.094h-7.996c0-14.727-9.027-38.458-16-54.606L215.648,11.872z"/>
</g>
<rect x="187.909" y="75.968" style="fill:#FFFFFF;" width="7.996" height="55.973"/>
<g style="opacity:0.2;">
	<rect x="228.449" y="75.968" width="7.996" height="399.81"/>
</g>
<g style="opacity:0.3;">
	<rect x="187.909" y="131.938" style="fill:#FFFFFF;" width="7.996" height="159.92"/>
</g>
<rect x="187.909" y="291.858" style="fill:#FFFFFF;" width="7.996" height="183.91"/>
<g style="opacity:0.2;">
	<polygon points="179.916,475.774 187.912,475.774 187.912,323.847 179.916,331.844 	"/>
</g>
<g style="opacity:0.2;">
	<polygon points="243.884,475.774 235.888,475.774 235.888,323.847 243.884,331.844 	"/>
</g>
<g style="opacity:0.2;">
	<rect x="171.919" y="475.778" style="fill:#FFFFFF;" width="7.997" height="15.992"/>
</g>
<g style="opacity:0.2;">
	<rect x="243.879" y="475.778" width="7.996" height="15.992"/>
</g>
<g style="opacity:0.5;">
	<rect x="291.859" y="4.001" style="fill:#FFFFFF;" width="8.105" height="503.76"/>
</g>
<g style="opacity:0.2;">
	<rect x="331.729" y="4.001" width="8.105" height="503.76"/>
</g>
<g>
	<path style="fill:#3A3847;" d="M435.793,511.757H75.965c-2.21,0-3.998-1.788-3.998-3.998s1.788-3.998,3.998-3.998h359.828
		c2.209,0,3.998,1.788,3.998,3.998S438.002,511.757,435.793,511.757z"/>
	<path style="fill:#3A3847;" d="M339.838,495.765c-2.209,0-3.998-1.788-3.998-3.998V4.001c0-2.21,1.789-3.998,3.998-3.998
		c2.211,0,3.998,1.788,3.998,3.998v487.766C343.836,493.977,342.049,495.765,339.838,495.765z"/>
	<path style="fill:#3A3847;" d="M339.838,7.999h-103.95c-2.21,0-3.998-1.788-3.998-3.998s1.788-3.998,3.998-3.998h103.95
		c2.211,0,3.998,1.788,3.998,3.998S342.049,7.999,339.838,7.999z"/>
	<path style="fill:#3A3847;" d="M291.861,495.765c-2.209,0-3.998-1.788-3.998-3.998V4.001c0-2.21,1.789-3.998,3.998-3.998
		c2.211,0,3.998,1.788,3.998,3.998v487.766C295.859,493.977,294.072,495.765,291.861,495.765z"/>
	<path style="fill:#3A3847;" d="M187.912,79.964c-2.21,0-3.998-1.788-3.998-3.998c0-24.652,23.41-71.762,24.41-73.753
		c0.991-1.968,3.396-2.772,5.364-1.788c1.976,0.983,2.772,3.389,1.788,5.364c-0.234,0.469-23.566,47.407-23.566,70.177
		C191.91,78.176,190.122,79.964,187.912,79.964z"/>
	<path style="fill:#3A3847;" d="M187.912,479.773c-2.21,0-3.998-1.788-3.998-3.998V83.962c0-2.21,1.788-3.999,3.998-3.999
		s3.998,1.789,3.998,3.999v391.812C191.91,477.984,190.122,479.773,187.912,479.773z"/>
	<path style="fill:#3A3847;" d="M203.904,343.838c-1.023,0-2.046-0.391-2.827-1.172c-1.562-1.562-1.562-4.092,0-5.653l7.996-7.996
		c1.562-1.562,4.092-1.562,5.654,0s1.562,4.092,0,5.653l-7.996,7.996C205.95,343.447,204.926,343.838,203.904,343.838z"/>
	<path style="fill:#3A3847;" d="M219.896,343.838c-1.023,0-2.046-0.391-2.827-1.172l-7.997-7.996c-1.562-1.562-1.562-4.092,0-5.653
		c1.562-1.562,4.092-1.562,5.654,0l7.996,7.996c1.562,1.562,1.562,4.092,0,5.653C221.942,343.447,220.919,343.838,219.896,343.838z"
		/>
	<path style="fill:#3A3847;" d="M203.904,479.773c-2.21,0-3.998-1.788-3.998-3.998V339.84c0-2.21,1.788-3.998,3.998-3.998
		s3.998,1.788,3.998,3.998v135.935C207.902,477.984,206.114,479.773,203.904,479.773z"/>
	<path style="fill:#3A3847;" d="M171.919,343.838c-1.023,0-2.046-0.391-2.827-1.172c-1.562-1.562-1.562-4.092,0-5.653l7.996-7.996
		c1.562-1.562,4.092-1.562,5.653,0c1.562,1.562,1.562,4.092,0,5.653l-7.996,7.996C173.965,343.447,172.942,343.838,171.919,343.838z
		"/>
	<path style="fill:#3A3847;" d="M171.919,479.773c-2.209,0-3.998-1.788-3.998-3.998V339.84c0-2.21,1.789-3.998,3.998-3.998
		c2.21,0,3.999,1.788,3.999,3.998v135.935C175.918,477.984,174.129,479.773,171.919,479.773z"/>
	<path style="fill:#3A3847;" d="M235.888,79.964c-2.21,0-3.998-1.788-3.998-3.998c0-22.778-23.333-69.708-23.566-70.177
		c-0.984-1.976-0.188-4.373,1.788-5.364c1.976-0.992,4.373-0.188,5.364,1.788c1,1.991,24.41,49.102,24.41,73.753
		C239.886,78.176,238.098,79.964,235.888,79.964z"/>
	<path style="fill:#3A3847;" d="M235.888,479.773c-2.21,0-3.998-1.788-3.998-3.998V83.962c0-2.21,1.788-3.999,3.998-3.999
		s3.998,1.789,3.998,3.999v391.812C239.886,477.984,238.098,479.773,235.888,479.773z"/>
	<path style="fill:#3A3847;" d="M251.88,343.838c-1.022,0-2.046-0.391-2.826-1.172l-7.997-7.996c-1.562-1.562-1.562-4.092,0-5.653
		s4.092-1.562,5.654,0l7.996,7.996c1.562,1.562,1.562,4.092,0,5.653C253.926,343.447,252.904,343.838,251.88,343.838z"/>
	<path style="fill:#3A3847;" d="M251.88,479.773c-2.21,0-3.998-1.788-3.998-3.998V339.84c0-2.21,1.788-3.998,3.998-3.998
		s3.998,1.788,3.998,3.998v135.935C255.879,477.984,254.09,479.773,251.88,479.773z"/>
	<path style="fill:#3A3847;" d="M219.896,479.773c-2.21,0-3.998-1.788-3.998-3.998V339.84c0-2.21,1.788-3.998,3.998-3.998
		s3.998,1.788,3.998,3.998v135.935C223.894,477.984,222.106,479.773,219.896,479.773z"/>
	<path style="fill:#3A3847;" d="M251.88,479.773h-79.961c-2.209,0-3.998-1.788-3.998-3.998s1.789-3.998,3.998-3.998h79.961
		c2.21,0,3.998,1.788,3.998,3.998S254.09,479.773,251.88,479.773z"/>
	<path style="fill:#3A3847;" d="M232.453,103.953h-41.121c-2.21,0-3.998-1.788-3.998-3.998s1.788-3.998,3.998-3.998h41.121
		c2.21,0,3.998,1.788,3.998,3.998S234.663,103.953,232.453,103.953z"/>
	<path style="fill:#3A3847;" d="M235.888,79.964h-47.977c-2.21,0-3.998-1.788-3.998-3.998c0-2.209,1.788-3.998,3.998-3.998h47.977
		c2.21,0,3.998,1.789,3.998,3.998C239.886,78.176,238.098,79.964,235.888,79.964z"/>
	<path style="fill:#3A3847;" d="M187.912,495.765h-15.993c-2.209,0-3.998-1.788-3.998-3.998s1.789-3.998,3.998-3.998h15.993
		c2.21,0,3.998,1.788,3.998,3.998S190.122,495.765,187.912,495.765z"/>
	<path style="fill:#3A3847;" d="M219.896,495.765h-15.992c-2.21,0-3.998-1.788-3.998-3.998s1.788-3.998,3.998-3.998h15.992
		c2.21,0,3.998,1.788,3.998,3.998S222.106,495.765,219.896,495.765z"/>
	<path style="fill:#3A3847;" d="M251.88,495.765h-15.992c-2.21,0-3.998-1.788-3.998-3.998s1.788-3.998,3.998-3.998h15.992
		c2.21,0,3.998,1.788,3.998,3.998S254.09,495.765,251.88,495.765z"/>
	<path style="fill:#3A3847;" d="M171.919,495.765c-2.209,0-3.998-1.788-3.998-3.998v-7.996c0-2.21,1.789-3.998,3.998-3.998
		c2.21,0,3.999,1.788,3.999,3.998v7.996C175.918,493.977,174.129,495.765,171.919,495.765z"/>
	<path style="fill:#3A3847;" d="M251.88,495.765c-2.21,0-3.998-1.788-3.998-3.998v-7.996c0-2.21,1.788-3.998,3.998-3.998
		s3.998,1.788,3.998,3.998v7.996C255.879,493.977,254.09,495.765,251.88,495.765z"/>
	<path style="fill:#3A3847;" d="M203.904,295.86c-2.21,0-3.998-1.788-3.998-3.998V131.939c0-2.21,1.788-3.998,3.998-3.998
		s3.998,1.788,3.998,3.998v159.923C207.902,294.072,206.114,295.86,203.904,295.86z"/>
	<path style="fill:#3A3847;" d="M203.904,135.937h-15.992c-2.21,0-3.998-1.788-3.998-3.998s1.788-3.998,3.998-3.998h15.992
		c2.21,0,3.998,1.788,3.998,3.998S206.114,135.937,203.904,135.937z"/>
	<path style="fill:#3A3847;" d="M203.904,295.86h-15.992c-2.21,0-3.998-1.788-3.998-3.998c0-2.209,1.788-3.998,3.998-3.998h15.992
		c2.21,0,3.998,1.789,3.998,3.998C207.902,294.072,206.114,295.86,203.904,295.86z"/>
	<path style="fill:#3A3847;" d="M323.846,39.983c-1.023,0-2.045-0.39-2.826-1.171L305.028,22.82c-1.562-1.562-1.562-4.092,0-5.654
		c1.561-1.562,4.092-1.562,5.652,0l15.994,15.993c1.561,1.562,1.561,4.092,0,5.653C325.893,39.593,324.869,39.983,323.846,39.983z"
		/>
	<path style="fill:#3A3847;" d="M307.854,39.983c-1.023,0-2.045-0.39-2.826-1.171c-1.562-1.562-1.562-4.092,0-5.653l15.992-15.993
		c1.562-1.562,4.092-1.562,5.654,0c1.561,1.562,1.561,4.092,0,5.654L310.68,38.812C309.9,39.593,308.877,39.983,307.854,39.983z"/>
	<path style="fill:#3A3847;" d="M323.846,71.968c-1.023,0-2.045-0.39-2.826-1.171l-15.992-15.992c-1.562-1.562-1.562-4.092,0-5.653
		c1.561-1.562,4.092-1.562,5.652,0l15.994,15.992c1.561,1.562,1.561,4.092,0,5.653C325.893,71.578,324.869,71.968,323.846,71.968z"
		/>
	<path style="fill:#3A3847;" d="M307.854,71.968c-1.023,0-2.045-0.39-2.826-1.171c-1.562-1.562-1.562-4.092,0-5.653l15.992-15.992
		c1.562-1.562,4.092-1.562,5.654,0c1.561,1.562,1.561,4.092,0,5.653L310.68,70.797C309.9,71.578,308.877,71.968,307.854,71.968z"/>
	<path style="fill:#3A3847;" d="M323.846,103.953c-1.023,0-2.045-0.391-2.826-1.171l-15.992-15.993
		c-1.562-1.562-1.562-4.092,0-5.653c1.561-1.562,4.092-1.562,5.652,0l15.994,15.992c1.561,1.562,1.561,4.092,0,5.654
		C325.893,103.562,324.869,103.953,323.846,103.953z"/>
	<path style="fill:#3A3847;" d="M307.854,103.953c-1.023,0-2.045-0.391-2.826-1.171c-1.562-1.562-1.562-4.092,0-5.654l15.992-15.992
		c1.562-1.562,4.092-1.562,5.654,0c1.561,1.562,1.561,4.092,0,5.653l-15.994,15.993C309.9,103.562,308.877,103.953,307.854,103.953z
		"/>
	<path style="fill:#3A3847;" d="M323.846,135.937c-1.023,0-2.045-0.391-2.826-1.171l-15.992-15.993
		c-1.562-1.562-1.562-4.092,0-5.654c1.561-1.562,4.092-1.562,5.652,0l15.994,15.993c1.561,1.562,1.561,4.092,0,5.654
		C325.893,135.546,324.869,135.937,323.846,135.937z"/>
	<path style="fill:#3A3847;" d="M307.854,135.937c-1.023,0-2.045-0.391-2.826-1.171c-1.562-1.562-1.562-4.092,0-5.654l15.992-15.993
		c1.562-1.562,4.092-1.562,5.654,0c1.561,1.562,1.561,4.092,0,5.654l-15.994,15.993C309.9,135.546,308.877,135.937,307.854,135.937z
		"/>
	<path style="fill:#3A3847;" d="M323.846,167.921c-1.023,0-2.045-0.39-2.826-1.171l-15.992-15.992c-1.562-1.562-1.562-4.092,0-5.654
		c1.561-1.562,4.092-1.562,5.652,0l15.994,15.993c1.561,1.562,1.561,4.092,0,5.653C325.893,167.531,324.869,167.921,323.846,167.921
		z"/>
	<path style="fill:#3A3847;" d="M307.854,167.921c-1.023,0-2.045-0.39-2.826-1.171c-1.562-1.562-1.562-4.092,0-5.653l15.992-15.993
		c1.562-1.562,4.092-1.562,5.654,0c1.561,1.562,1.561,4.092,0,5.654L310.68,166.75C309.9,167.531,308.877,167.921,307.854,167.921z"
		/>
	<path style="fill:#3A3847;" d="M323.846,199.906c-1.023,0-2.045-0.39-2.826-1.171l-15.992-15.992c-1.562-1.562-1.562-4.092,0-5.653
		c1.561-1.562,4.092-1.562,5.652,0l15.994,15.992c1.561,1.562,1.561,4.092,0,5.653C325.893,199.516,324.869,199.906,323.846,199.906
		z"/>
	<path style="fill:#3A3847;" d="M307.854,199.906c-1.023,0-2.045-0.39-2.826-1.171c-1.562-1.562-1.562-4.092,0-5.653l15.992-15.992
		c1.562-1.562,4.092-1.562,5.654,0c1.561,1.562,1.561,4.092,0,5.653l-15.994,15.992C309.9,199.516,308.877,199.906,307.854,199.906z
		"/>
	<path style="fill:#3A3847;" d="M323.846,231.891c-1.023,0-2.045-0.391-2.826-1.171l-15.992-15.993
		c-1.562-1.562-1.562-4.092,0-5.653c1.561-1.562,4.092-1.562,5.652,0l15.994,15.992c1.561,1.562,1.561,4.092,0,5.654
		C325.893,231.501,324.869,231.891,323.846,231.891z"/>
	<path style="fill:#3A3847;" d="M307.854,231.891c-1.023,0-2.045-0.391-2.826-1.171c-1.562-1.562-1.562-4.092,0-5.654l15.992-15.992
		c1.562-1.562,4.092-1.562,5.654,0c1.561,1.562,1.561,4.092,0,5.653L310.68,230.72C309.9,231.501,308.877,231.891,307.854,231.891z"
		/>
	<path style="fill:#3A3847;" d="M323.846,263.876c-1.023,0-2.045-0.391-2.826-1.171l-15.992-15.993
		c-1.562-1.562-1.562-4.092,0-5.654c1.561-1.562,4.092-1.562,5.652,0l15.994,15.994c1.561,1.562,1.561,4.092,0,5.653
		C325.893,263.485,324.869,263.876,323.846,263.876z"/>
	<path style="fill:#3A3847;" d="M307.854,263.876c-1.023,0-2.045-0.391-2.826-1.171c-1.562-1.562-1.562-4.092,0-5.653l15.992-15.994
		c1.562-1.562,4.092-1.562,5.654,0c1.561,1.562,1.561,4.092,0,5.654l-15.994,15.993C309.9,263.485,308.877,263.876,307.854,263.876z
		"/>
	<path style="fill:#3A3847;" d="M323.846,295.86c-1.023,0-2.045-0.391-2.826-1.171l-15.992-15.992c-1.562-1.562-1.562-4.092,0-5.653
		c1.561-1.562,4.092-1.562,5.652,0l15.994,15.992c1.561,1.562,1.561,4.092,0,5.653C325.893,295.47,324.869,295.86,323.846,295.86z"
		/>
	<path style="fill:#3A3847;" d="M307.854,295.86c-1.023,0-2.045-0.391-2.826-1.171c-1.562-1.562-1.562-4.092,0-5.653l15.992-15.992
		c1.562-1.562,4.092-1.562,5.654,0c1.561,1.562,1.561,4.092,0,5.653l-15.994,15.992C309.9,295.47,308.877,295.86,307.854,295.86z"/>
	<path style="fill:#3A3847;" d="M323.846,327.845c-1.023,0-2.045-0.39-2.826-1.171l-15.992-15.992c-1.562-1.562-1.562-4.092,0-5.653
		c1.561-1.562,4.092-1.562,5.652,0l15.994,15.992c1.561,1.562,1.561,4.092,0,5.653C325.893,327.455,324.869,327.845,323.846,327.845
		z"/>
	<path style="fill:#3A3847;" d="M307.854,327.845c-1.023,0-2.045-0.39-2.826-1.171c-1.562-1.562-1.562-4.092,0-5.653l15.992-15.992
		c1.562-1.562,4.092-1.562,5.654,0c1.561,1.562,1.561,4.092,0,5.653l-15.994,15.992C309.9,327.455,308.877,327.845,307.854,327.845z
		"/>
	<path style="fill:#3A3847;" d="M323.846,359.83c-1.023,0-2.045-0.391-2.826-1.171l-15.992-15.993c-1.562-1.562-1.562-4.092,0-5.653
		c1.561-1.562,4.092-1.562,5.652,0l15.994,15.992c1.561,1.562,1.561,4.092,0,5.654C325.893,359.44,324.869,359.83,323.846,359.83z"
		/>
	<path style="fill:#3A3847;" d="M307.854,359.83c-1.023,0-2.045-0.391-2.826-1.171c-1.562-1.562-1.562-4.092,0-5.654l15.992-15.992
		c1.562-1.562,4.092-1.562,5.654,0c1.561,1.562,1.561,4.092,0,5.653l-15.994,15.993C309.9,359.44,308.877,359.83,307.854,359.83z"/>
	<path style="fill:#3A3847;" d="M323.846,391.815c-1.023,0-2.045-0.391-2.826-1.171l-15.992-15.992
		c-1.562-1.562-1.562-4.092,0-5.654c1.561-1.562,4.092-1.562,5.652,0l15.994,15.992c1.561,1.562,1.561,4.092,0,5.654
		C325.893,391.424,324.869,391.815,323.846,391.815z"/>
	<path style="fill:#3A3847;" d="M307.854,391.815c-1.023,0-2.045-0.391-2.826-1.171c-1.562-1.562-1.562-4.092,0-5.654l15.992-15.992
		c1.562-1.562,4.092-1.562,5.654,0c1.561,1.562,1.561,4.092,0,5.654l-15.994,15.992C309.9,391.424,308.877,391.815,307.854,391.815z
		"/>
	<path style="fill:#3A3847;" d="M323.846,423.8c-1.023,0-2.045-0.391-2.826-1.172l-15.992-15.992c-1.562-1.562-1.562-4.092,0-5.654
		c1.561-1.561,4.092-1.561,5.652,0l15.994,15.993c1.561,1.562,1.561,4.092,0,5.653C325.893,423.409,324.869,423.8,323.846,423.8z"/>
	<path style="fill:#3A3847;" d="M307.854,423.8c-1.023,0-2.045-0.391-2.826-1.172c-1.562-1.562-1.562-4.092,0-5.653l15.992-15.993
		c1.562-1.561,4.092-1.561,5.654,0c1.561,1.562,1.561,4.092,0,5.654l-15.994,15.992C309.9,423.409,308.877,423.8,307.854,423.8z"/>
	<path style="fill:#3A3847;" d="M323.846,455.784c-1.023,0-2.045-0.391-2.826-1.172l-15.992-15.992
		c-1.562-1.562-1.562-4.092,0-5.653c1.561-1.562,4.092-1.562,5.652,0l15.994,15.992c1.561,1.562,1.561,4.092,0,5.653
		C325.893,455.394,324.869,455.784,323.846,455.784z"/>
	<path style="fill:#3A3847;" d="M307.854,455.784c-1.023,0-2.045-0.391-2.826-1.172c-1.562-1.562-1.562-4.092,0-5.653l15.992-15.992
		c1.562-1.562,4.092-1.562,5.654,0c1.561,1.562,1.561,4.092,0,5.653l-15.994,15.992C309.9,455.394,308.877,455.784,307.854,455.784z
		"/>
	<path style="fill:#3A3847;" d="M323.846,487.769c-1.023,0-2.045-0.391-2.826-1.172l-15.992-15.992
		c-1.562-1.562-1.562-4.092,0-5.653c1.561-1.562,4.092-1.562,5.652,0l15.994,15.992c1.561,1.562,1.561,4.092,0,5.653
		C325.893,487.378,324.869,487.769,323.846,487.769z"/>
	<path style="fill:#3A3847;" d="M307.854,487.769c-1.023,0-2.045-0.391-2.826-1.172c-1.562-1.562-1.562-4.092,0-5.653l15.992-15.992
		c1.562-1.562,4.092-1.562,5.654,0c1.561,1.562,1.561,4.092,0,5.653l-15.994,15.992C309.9,487.378,308.877,487.769,307.854,487.769z
		"/>
</g>
<g>
</g>
<g>
</g>
<g>
</g>
<g>
</g>
<g>
</g>
<g>
</g>
<g>
</g>
<g>
</g>
<g>
</g>
<g>
</g>
<g>
</g>
<g>
</g>
<g>
</g>
<g>
</g>
<g>
</g>
</svg>
