<svg height="512pt" viewBox="-30 0 512 512" width="512pt" xmlns="http://www.w3.org/2000/svg"><path d="m54.210938 505.984375c-8.019532-8.019531-8.019532-21.023437 0-29.042969l363.101562-363.101562c8.019531-8.019532 21.023438-8.019532 29.042969 0 8.023437 8.019531 8.023437 21.023437 0 29.042968l-363.101563 363.101563c-8.019531 8.019531-21.023437 8.019531-29.042968 0zm0 0" fill="#d88850"/><path d="m232.171875 271.714844c0 17.617187-14.28125 31.898437-31.902344 31.898437-17.617187 0-31.902343-14.28125-31.902343-31.898437 0-17.621094 14.285156-31.902344 31.902343-31.902344 17.621094 0 31.902344 14.28125 31.902344 31.902344zm0 0" fill="#f2d491"/><path d="m175.007812 287.628906c0 17.617188-14.28125 31.898438-31.902343 31.898438-17.617188 0-31.902344-14.28125-31.902344-31.898438 0-17.621094 14.285156-31.902344 31.902344-31.902344 17.621093 0 31.902343 14.28125 31.902343 31.902344zm0 0" fill="#ffeab6"/><path d="m117.234375 271.191406c0 17.617188-14.28125 31.902344-31.902344 31.902344-17.617187 0-31.902343-14.285156-31.902343-31.902344 0-17.621094 14.285156-31.902344 31.902343-31.902344 17.621094 0 31.902344 14.28125 31.902344 31.902344zm0 0" fill="#f2d491"/><path d="m85.332031 303.09375c0 17.617188-14.28125 31.898438-31.902343 31.898438-17.617188 0-31.902344-14.28125-31.902344-31.898438 0-17.621094 14.285156-31.902344 31.902344-31.902344 17.621093 0 31.902343 14.28125 31.902343 31.902344zm0 0" fill="#ffeab6"/><path d="m24.453125 343.695312c.246094-19.957031 36.226563-24.195312 42.683594 7.710938 3.957031 19.5625-8.691407 38.628906-28.253907 42.589844-15.316406 3.097656-30.328124-3.984375-38.023437-16.59375-2.46875-4.039063.707031-9.253906 5.429687-8.925782 7.988282.558594 17.898438-3.136718 18.164063-24.78125zm0 0" fill="#f2d491"/><path d="m122.539062 141.660156v-18.644531c0-67.941406 55.078126-123.015625 123.015626-123.015625h1.472656c67.941406 0 123.015625 55.074219 123.015625 123.015625v18.644531c0 67.941406-55.074219 123.015625-123.015625 123.015625h-1.472656c-67.9375 0-123.015626-55.074219-123.015626-123.015625zm0 0" fill="#ffeab6"/><path d="m382.351562 376.933594v123.117187c0 5.6875-4.617187 10.300781-10.300781 10.300781h-252.40625c-5.6875 0-10.300781-4.613281-10.300781-10.300781v-123.117187c0-32.089844 17.007812-60.203125 42.503906-75.820313 13.496094-8.285156 29.382813-13.054687 46.378906-13.054687h95.25c49.078126 0 88.875 39.785156 88.875 88.875zm0 0" fill="#ff4e61"/><path d="m345.042969 415.089844v79.980468l-190.351563-190.359374c-1.097656-1.097657-2.050781-2.308594-2.84375-3.605469 13.496094-8.277344 29.378906-13.050781 46.375-13.050781h19.777344zm0 0" fill="#f22"/><path d="m209.300781 448.519531v61.832031h-15.453125v-57.105468l-36.046875-18.449219c-3.800781-1.945313-5.304687-6.601563-3.355469-10.40625 1.945313-3.789063 6.601563-5.292969 10.402344-3.355469l40.25 20.601563c2.578125 1.332031 4.203125 3.976562 4.203125 6.882812zm0 0" fill="#6c6c65"/><path d="m334.683594 434.796875-36.042969 18.453125v57.101562h-15.453125v-61.832031c0-2.90625 1.625-5.550781 4.203125-6.882812l40.246094-20.601563c3.800781-1.9375 8.460937-.445312 10.40625 3.355469 1.9375 3.804687.441406 8.460937-3.359375 10.40625zm0 0" fill="#6c6c65"/><path d="m382.347656 376.925781v123.125c0 5.6875-4.609375 10.300781-10.300781 10.300781h-39.324219v-133.417968c0-49.085938-39.785156-88.875-88.875-88.875h49.636719c49.078125 0 88.863281 39.789062 88.863281 88.867187zm0 0" fill="#f22"/><path d="m166.703125 370.925781v139.425781h-15.453125v-139.425781c0-4.265625 3.449219-7.726562 7.726562-7.726562 4.265626 0 7.726563 3.460937 7.726563 7.726562zm0 0" fill="#f22"/><path d="m290.125 288.058594v15.539062c0 20.390625-16.535156 36.929688-36.925781 36.929688h-14.703125c-20.390625 0-36.925782-16.535156-36.925782-36.929688v-15.539062h22.929688v-47.273438h42.695312v47.273438zm0 0" fill="#ffcfa1"/><path d="m267.195312 240.785156v35.910156c-6.921874 1.855469-14.066406 2.8125-21.347656 2.8125s-14.425781-.957031-21.347656-2.8125v-35.910156zm0 0" fill="#ffb685"/><path d="m158.621094 83.015625v74.367187c0 60.976563 39.054687 110.417969 87.226562 110.417969s87.226563-49.441406 87.226563-110.417969v-74.367187zm0 0" fill="#ffdec2"/><path d="m331.238281 188.296875h-171.769531c-5.667969 0-10.269531-4.597656-10.269531-10.269531v-22.441406c0-5.671876 4.597656-10.269532 10.269531-10.269532h171.769531c5.671875 0 10.269531 4.59375 10.269531 10.269532v22.441406c0 5.667968-4.597656 10.269531-10.269531 10.269531zm0 0" fill="#ff4e61"/><path d="m245.847656 238.339844c-12.996094 0-24.226562-10.988282-26.710937-26.128906-.6875-4.210938 2.164062-8.183594 6.375-8.875 4.207031-.6875 8.1875 2.164062 8.875 6.375 1.230469 7.511718 6.160156 13.175781 11.460937 13.175781 5.304688 0 10.230469-5.664063 11.460938-13.175781.691406-4.210938 4.660156-7.074219 8.875-6.375 4.210937.691406 7.066406 4.664062 6.375 8.875-2.484375 15.140624-13.714844 26.128906-26.710938 26.128906zm0 0" fill="#ffb685"/><path d="m206.167969 174.738281c-4.265625 0-7.726563-3.460937-7.726563-7.726562v-.90625c0-4.265625 3.460938-7.722657 7.726563-7.722657 4.269531 0 7.726562 3.457032 7.726562 7.722657v.90625c0 4.265625-3.457031 7.726562-7.726562 7.726562zm0 0" fill="#006df0"/><path d="m285.527344 174.738281c-4.269532 0-7.726563-3.460937-7.726563-7.726562v-.90625c0-4.265625 3.460938-7.722657 7.726563-7.722657 4.269531 0 7.726562 3.457032 7.726562 7.722657v.90625c0 4.265625-3.457031 7.726562-7.726562 7.726562zm0 0" fill="#006df0"/><path d="m241.488281 34.066406v30.121094c0 30.109375-26.332031 54.511719-58.816406 54.511719h-37.34375v-30.121094c0-30.105469 26.332031-54.511719 58.816406-54.511719zm0 0" fill="#ffeab6"/><path d="m241.488281 34.066406v30.121094c0 30.109375 26.332031 54.511719 58.816407 54.511719h45.761718v-30.121094c0-30.105469-26.332031-54.511719-58.8125-54.511719zm0 0" fill="#ffeab6"/><path d="m208.476562 210.273438c0 4.855468-3.9375 8.792968-8.792968 8.792968-4.859375 0-8.796875-3.9375-8.796875-8.792968 0-4.859376 3.9375-8.796876 8.796875-8.796876 4.855468 0 8.792968 3.9375 8.792968 8.796876zm0 0" fill="#ff8294"/><path d="m300.808594 210.273438c0 4.855468-3.9375 8.792968-8.796875 8.792968-4.855469 0-8.792969-3.9375-8.792969-8.792968 0-4.859376 3.9375-8.796876 8.792969-8.796876 4.859375 0 8.796875 3.9375 8.796875 8.796876zm0 0" fill="#ff8294"/><path d="m332.71875 420.199219v45.117187l-169.316406-169.316406c-3.179688-3.179688-2.636719-8.480469 1.121094-10.949219l15.117187-9.929687c2.8125-1.847656 6.535156-1.464844 8.914063.914062zm0 0" fill="#828278"/><g fill="#6c6c65"><path d="m191.503906 419.285156h-5.933594c-4.269531 0-7.726562-3.460937-7.726562-7.726562 0-4.269532 3.457031-7.726563 7.726562-7.726563h5.933594c4.265625 0 7.726563 3.457031 7.726563 7.726563 0 4.265625-3.460938 7.726562-7.726563 7.726562zm0 0"/><path d="m191.503906 400.386719h-5.933594c-4.269531 0-7.726562-3.460938-7.726562-7.726563s3.457031-7.726562 7.726562-7.726562h5.933594c4.265625 0 7.726563 3.460937 7.726563 7.726562s-3.460938 7.726563-7.726563 7.726563zm0 0"/></g></svg>