<?xml version="1.0" encoding="iso-8859-1"?>
<!-- Generator: Adobe Illustrator 19.0.0, SVG Export Plug-In . SVG Version: 6.00 Build 0)  -->
<svg version="1.1" id="Capa_1" xmlns="http://www.w3.org/2000/svg" xmlns:xlink="http://www.w3.org/1999/xlink" x="0px" y="0px"
	 viewBox="0 0 511.754 511.754" style="enable-background:new 0 0 511.754 511.754;" xml:space="preserve">
<path style="fill:#656D78;" d="M483.768,383.69h-31.984c8.824,0,15.992-7.16,15.992-15.992s-7.168-15.992-15.992-15.992H419.8
	c8.823,0,15.992-7.161,15.992-15.992c0-8.832-7.169-15.993-15.992-15.993h-47.978c8.824,0,15.992-7.16,15.992-15.992
	c0-8.831-7.168-15.992-15.992-15.992h87.958c8.824,0,15.992-7.16,15.992-15.992s-7.168-15.992-15.992-15.992H419.8
	c8.823,0,15.992-7.161,15.992-15.992c0-8.832-7.169-15.992-15.992-15.992h-15.993c8.823,0,15.992-7.161,15.992-15.992
	c0-8.832-7.169-15.993-15.992-15.993h79.961c8.824,0,15.992-7.161,15.992-15.992s-7.168-15.993-15.992-15.993h-31.984
	c8.824,0,15.992-7.16,15.992-15.992s-7.168-15.992-15.992-15.992H419.8c8.823,0,15.992-7.161,15.992-15.992
	c0-8.832-7.169-15.992-15.992-15.992h-23.988c8.823,0,15.992-7.161,15.992-15.992c0-8.832-7.169-15.993-15.992-15.993H155.925
	c-8.839,0-15.993,7.161-15.993,15.993c0,8.831,7.153,15.992,15.993,15.992H99.952c-8.839,0-15.992,7.16-15.992,15.992
	s7.153,15.992,15.992,15.992H83.96c-8.84,0-15.992,7.161-15.992,15.992c0,8.832,7.152,15.992,15.992,15.992h47.977
	c-8.839,0-15.992,7.161-15.992,15.993s7.153,15.992,15.992,15.992H43.979c-8.839,0-15.992,7.161-15.992,15.993
	c0,8.831,7.153,15.992,15.992,15.992H83.96c-8.84,0-15.992,7.16-15.992,15.992s7.152,15.992,15.992,15.992H43.979
	c-8.839,0-15.992,7.16-15.992,15.992s7.153,15.992,15.992,15.992H27.987c-8.839,0-15.993,7.161-15.993,15.992
	c0,8.832,7.153,15.992,15.993,15.992h39.981c-8.84,0-15.992,7.161-15.992,15.993c0,8.831,7.152,15.992,15.992,15.992H51.976
	c-8.84,0-15.993,7.16-15.993,15.992s7.153,15.992,15.993,15.992h79.961c-8.839,0-15.992,7.161-15.992,15.992
	c0,8.832,7.153,15.993,15.992,15.993H99.953c-8.839,0-15.992,7.16-15.992,15.992c0,8.831,7.153,15.992,15.992,15.992h271.869
	c8.824,0,15.992-7.161,15.992-15.992c0-8.832-7.168-15.992-15.992-15.992h111.946c8.824,0,15.992-7.161,15.992-15.993
	C499.76,390.852,492.592,383.69,483.768,383.69z"/>
<path style="fill:#5D9CEC;" d="M423.789,255.744c0,94.954-76.971,171.926-171.918,171.926c-94.954,0-171.917-76.972-171.917-171.926
	c0-94.938,76.963-171.909,171.917-171.909C346.818,83.835,423.789,160.806,423.789,255.744z"/>
<path style="fill:#A0D468;" d="M340.984,211.797c-4.459,6.036,6.419,25.925,40.238,23.324c10.69-0.835-11.893,36.521-18.678,48.32
	c-8.457,14.688-6.317,32.063-14.313,46.65c-5.014,9.198-13.563,16.078-20.35,23.973c-8.465,9.761-17.937,19.326-32.056,18.124
	c-9.394-0.836-13.204-11.151-15.055-18.491c-4.553-18.312-2.608-37.264-7.629-55.661c-6.044-21.653-24.52-19.506-42.831-19.701
	c-22.122-0.281-35.78-14.399-36.615-36.24c-2.054-53.99,43.393-59.667,48.602-58.729c7.527,1.382,29.642,5.192,35.21,8.27
	c18.873,10.315,38.106-4.006,36.623-11.526c-1.578-7.621-48.32-18.483-64.868-19.709c-5.95-0.352-18.124,4.74-22.668-0.266
	c-3.725-3.998-0.281-10.417,2.319-13.853c18.304-24.066,48.79-29.931,74.527-42.464c0.835-0.375,7.348-3.639,8.925-9.02
	c45.533,17.102,81.867,52.975,99.523,98.133c-7.528,0.929-23.606,11.518-24.067,14.97
	C385.408,226.758,348.699,201.294,340.984,211.797z"/>
<g style="opacity:0.5;">
	<path style="fill:#FFFFFF;" d="M296.764,353.697c-4.553-18.312-2.607-37.264-7.629-55.661
		c-6.044-21.653-24.52-19.506-42.831-19.701c-22.122-0.281-35.78-14.399-36.615-36.24c-1.554-40.762,23.957-53.974,38.802-57.598
		c-2.46-0.453-4.67-0.851-6.192-1.132c-5.208-0.938-50.655,4.74-48.602,58.729c0.835,21.841,14.493,35.959,36.615,36.24
		c18.312,0.195,36.787-1.952,42.831,19.701c5.021,18.397,3.076,37.35,7.629,55.661c1.851,7.34,5.661,17.655,15.055,18.491
		c4.123,0.351,7.817-0.297,11.237-1.522C301.098,367.425,298.264,359.632,296.764,353.697z"/>
	<path style="fill:#FFFFFF;" d="M243.727,160.939c-0.39-0.258-0.819-0.453-1.14-0.805c-3.725-3.998-0.281-10.417,2.319-13.853
		c18.304-24.066,48.789-29.931,74.526-42.464c0.5-0.227,3.015-1.492,5.294-3.607c-4.061-1.906-8.129-3.819-12.361-5.412
		c-1.577,5.381-8.09,8.645-8.925,9.02c-25.737,12.533-56.223,18.397-74.527,42.464c-2.6,3.436-6.044,9.854-2.319,13.853
		C229.983,163.866,237.597,161.992,243.727,160.939z"/>
</g>
<path style="fill:#A0D468;" d="M135.154,289.299c9.011,13.103,18.483,31.141,13.657,47.586c-2.046,7.052-6.685,12.721-12.182,17.461
	c-1.296,1.116-15.141,11.619-16.625,11.619h-0.094c-24.902-29.83-39.957-68.311-39.957-110.221c0-11.791,1.202-23.317,3.529-34.468
	c9.378,5.208,29.361,37.622,34.569,44.893C123.543,273.876,129.766,281.389,135.154,289.299z"/>
<g style="opacity:0.3;">
	<path style="fill:#FFFFFF;" d="M111.939,255.744c0-89.543,68.475-163.023,155.925-171.105c-5.271-0.484-10.596-0.804-15.992-0.804
		c-94.954,0-171.917,76.971-171.917,171.909c0,94.954,76.963,171.926,171.917,171.926c5.396,0,10.722-0.32,15.992-0.805
		C180.414,418.783,111.939,345.303,111.939,255.744z"/>
</g>
<g style="opacity:0.2;">
	<path d="M393.179,255.76c0,89.543-68.476,163.023-155.925,171.105c5.271,0.484,10.596,0.805,15.992,0.805
		c94.955,0,171.917-76.972,171.917-171.91c0-94.954-76.963-171.925-171.917-171.925c-5.396,0-10.721,0.32-15.992,0.804
		C324.703,92.721,393.179,166.201,393.179,255.76z"/>
</g>
<circle style="fill:#ED5565;" cx="291.467" cy="289.687" r="15.992"/>
<g>
	<path style="fill:#3A3847;" d="M23.138,241.837c-2.206,0-4.037-1.788-4.037-3.998s1.749-3.998,3.959-3.998h0.078
		c2.21,0,3.998,1.788,3.998,3.998S25.348,241.837,23.138,241.837z"/>
	<path style="fill:#3A3847;" d="M310.999,39.981c-2.21,0-4.037-1.788-4.037-3.998s1.749-3.998,3.951-3.998h0.086
		c2.202,0,3.998,1.788,3.998,3.998S313.201,39.981,310.999,39.981z"/>
	<path style="fill:#3A3847;" d="M486.914,143.931c-2.209,0-4.037-1.788-4.037-3.998s1.75-3.998,3.951-3.998h0.086
		c2.203,0,3.998,1.788,3.998,3.998S489.117,143.931,486.914,143.931z"/>
	<path style="fill:#3A3847;" d="M462.926,351.831c-2.209,0-4.037-1.788-4.037-3.998s1.75-3.998,3.951-3.998h0.086
		c2.202,0,3.998,1.788,3.998,3.998S465.128,351.831,462.926,351.831z"/>
	<path style="fill:#3A3847;" d="M350.981,471.773c-2.211,0-4.037-1.788-4.037-3.998s1.748-3.998,3.951-3.998h0.086
		c2.201,0,3.998,1.788,3.998,3.998S353.182,471.773,350.981,471.773z"/>
	<path style="fill:#3A3847;" d="M207.045,463.777c-2.206,0-4.037-1.789-4.037-3.998c0-2.21,1.75-3.998,3.959-3.998h0.078
		c2.21,0,3.998,1.788,3.998,3.998C211.043,461.988,209.255,463.777,207.045,463.777z"/>
	<path style="fill:#3A3847;" d="M55.122,511.754c-2.206,0-4.037-1.788-4.037-3.998s1.749-3.998,3.959-3.998h0.078
		c2.21,0,3.998,1.788,3.998,3.998S57.332,511.754,55.122,511.754z"/>
	<path style="fill:#3A3847;" d="M159.072,63.969c-2.206,0-4.037-1.789-4.037-3.998c0-2.21,1.749-3.998,3.959-3.998h0.078
		c2.21,0,3.998,1.788,3.998,3.998C163.07,62.181,161.282,63.969,159.072,63.969z"/>
	<path style="fill:#3A3847;" d="M478.676,495.762c-2.209,0-3.998-1.788-3.998-3.998V459.78c0-2.21,1.789-3.998,3.998-3.998
		c2.211,0,3.999,1.788,3.999,3.998v31.984C482.675,493.974,480.887,495.762,478.676,495.762z"/>
	<path style="fill:#3A3847;" d="M486.673,479.77H470.68c-2.209,0-3.998-1.788-3.998-3.998s1.789-3.998,3.998-3.998h15.993
		c2.21,0,3.998,1.788,3.998,3.998S488.883,479.77,486.673,479.77z"/>
	<path style="fill:#3A3847;" d="M38.892,39.981c-2.21,0-3.998-1.788-3.998-3.998V3.998c0-2.21,1.788-3.998,3.998-3.998
		s3.998,1.788,3.998,3.998v31.984C42.89,38.192,41.102,39.981,38.892,39.981z"/>
	<path style="fill:#3A3847;" d="M46.888,23.988H30.896c-2.21,0-3.998-1.788-3.998-3.998s1.788-3.998,3.998-3.998h15.992
		c2.21,0,3.998,1.788,3.998,3.998S49.098,23.988,46.888,23.988z"/>
	<path style="fill:#3A3847;" d="M145.396,395.708c-0.855,0-1.722-0.273-2.448-0.843c-43.261-33.617-68.074-84.272-68.074-138.988
		c0.004-97,78.919-175.916,175.912-175.916c54.739,0,105.418,24.832,139.042,68.124c1.359,1.741,1.039,4.256-0.702,5.606
		c-1.733,1.352-4.256,1.047-5.606-0.702c-32.11-41.332-80.485-65.031-132.733-65.031c-92.585,0-167.912,75.331-167.916,167.919
		c0,52.225,23.684,100.584,64.98,132.679c1.745,1.351,2.062,3.865,0.707,5.606C147.769,395.178,146.59,395.708,145.396,395.708z"/>
	<path style="fill:#3A3847;" d="M250.786,431.793c-27.007,0-52.916-5.959-77.006-17.711c-1.983-0.968-2.808-3.357-1.839-5.341
		c0.972-1.983,3.35-2.796,5.345-1.843c22.989,11.213,47.715,16.898,73.5,16.898c92.588,0,167.919-75.332,167.919-167.92
		c0-25.753-5.661-50.437-16.836-73.371c-0.968-1.983-0.141-4.373,1.844-5.341c1.967-0.945,4.38-0.148,5.341,1.843
		c11.713,24.027,17.647,49.89,17.647,76.869C426.701,352.877,347.786,431.793,250.786,431.793z"/>
	<path style="fill:#3A3847;" d="M379.373,219.145c-2.023,0-3.765-1.538-3.967-3.6c-0.227-2.194,1.382-4.154,3.576-4.373
		c2.584-0.266,3.514-1.148,3.834-3.662c0.797-6.317,19.701-17.406,27.533-18.429c2.155-0.32,4.193,1.265,4.482,3.451
		c0.281,2.187-1.265,4.193-3.451,4.482c-6.177,0.804-19.358,9.573-20.818,12.174c-0.602,5.544-4.498,9.308-10.784,9.933
		C379.646,219.137,379.506,219.145,379.373,219.145z"/>
	<path style="fill:#3A3847;" d="M297.092,376.405c-0.883,0-1.772-0.039-2.687-0.117c-9.003-0.812-15.242-8.043-18.593-21.498
		c-1.069-4.364-1.873-9.034-2.529-14.72c-0.25-2.193,1.327-4.169,3.521-4.427c2.007-0.258,4.17,1.327,4.428,3.521
		c0.609,5.333,1.358,9.683,2.343,13.704c2.437,9.777,6.31,14.985,11.518,15.454c12.221,0.937,20.568-7.349,28.674-16.758
		c2.265-2.632,4.716-5.153,7.176-7.676c4.928-5.053,9.581-9.823,12.713-15.532c3.615-6.598,4.989-13.907,6.45-21.638
		c1.577-8.379,3.209-17.046,7.887-25.098l1.96-3.381c12.119-20.873,18.507-33.937,19.038-38.911
		c-5.92,0.336-11.472,0.047-16.5-0.875c-2.171-0.406-3.607-2.483-3.209-4.662c0.405-2.171,2.436-3.576,4.661-3.209
		c4.771,0.882,10.112,1.125,15.906,0.671c2.616-0.227,4.779,0.836,6.036,2.827c3.475,5.544-1.319,17.694-19.021,48.172l-1.945,3.366
		c-3.998,6.879-5.435,14.508-6.957,22.582c-1.507,8.004-3.068,16.281-7.293,23.996c-3.654,6.669-8.91,12.057-14.002,17.273
		c-2.342,2.397-4.677,4.795-6.84,7.309C321.588,366.34,311.64,376.405,297.092,376.405z"/>
	<path style="fill:#3A3847;" d="M254.819,284.129c-0.352,0-0.707-0.047-1.059-0.141c-5.669-1.554-12.427-1.554-19.58-1.554
		l-5.025-0.023c-24.09-0.289-39.618-15.641-40.523-40.066c-0.808-21.592,5.455-38.318,18.608-49.734
		c13.115-11.385,29.931-13.892,34.698-13.041l1.398,0.25c15.18,2.702,29.931,5.591,35.038,8.41
		c10.214,5.646,20.514,2.733,26.237-1.46c3.693-2.717,4.576-5.208,4.459-5.763c-3.365-4.842-43.089-15.165-61.197-16.469
		c-1.46-0.18-4.068,0.352-6.567,0.812c-6.349,1.148-14.255,2.577-18.776-2.413c-4.166-4.607-3.39-11.674,2.077-18.913
		c14.028-18.468,34.682-26.651,54.665-34.569c7.145-2.834,14.54-5.763,21.396-9.097c2.124-1.039,5.95-3.592,6.794-6.528
		c0.601-2.124,2.819-3.397,4.935-2.749c2.125,0.602,3.358,2.819,2.749,4.936c-1.89,6.637-8.87,10.495-10.972,11.525
		c-7.137,3.467-14.672,6.458-21.958,9.347c-19.834,7.855-38.563,15.282-51.237,31.969c-1.897,2.514-4.146,6.918-2.522,8.707
		c1.534,1.702,7.488,0.617,11.432-0.086c3.116-0.57,6.052-1.101,8.551-0.921c7.84,0.57,66.012,10.276,68.471,22.888
		c0.914,4.451-1.913,9.612-7.566,13.767c-7.621,5.606-21.334,9.479-34.835,2.015c-4.646-2.562-25.667-6.302-32.574-7.536
		l-1.413-0.25c-1.616-0.297-16.332,0.726-28.541,11.643c-10.894,9.753-16.059,24.207-15.36,42.964
		c0.746,20.029,12.943,32.133,32.629,32.367l4.935,0.023c7.363,0,14.981,0,21.685,1.835c2.132,0.586,3.381,2.779,2.804,4.912
		C258.185,282.966,256.576,284.129,254.819,284.129z"/>
	<path style="fill:#3A3847;" d="M118.482,370.119c-1.441,0-2.097-0.766-2.679-1.445c-1.433-1.679-1.233-4.209,0.445-5.638
		c0.562-0.483,1.218-0.78,1.897-0.897c2.749-1.516,13.169-9.316,14.837-10.729c5.724-4.856,9.304-9.94,10.936-15.523
		c3.444-11.69-0.988-26.565-13.158-44.222c-3.046-4.451-6.337-8.776-9.617-13.103c-2.518-3.312-5.029-6.622-7.422-9.964
		c-1.089-1.508-2.842-4.146-5.017-7.426c-7.06-10.644-21.751-32.79-28.252-36.288c-1.944-1.046-2.674-3.467-1.628-5.411
		s3.479-2.671,5.416-1.632c7.629,4.1,19.561,21.474,31.125,38.911c2.101,3.162,3.791,5.716,4.849,7.184
		c2.358,3.287,4.826,6.536,7.297,9.792c3.358,4.428,6.727,8.863,9.839,13.408c13.791,20.006,18.452,36.692,14.239,51.007
		c-2.058,7.027-6.575,13.54-13.431,19.357C126.256,367.605,121.09,370.119,118.482,370.119z"/>
	<path style="fill:#3A3847;" d="M85.924,439.852c-5.938,0-10.722-1.578-14.126-4.982c-10.897-10.894-4.049-36.193,20.35-75.198
		c1.171-1.866,3.639-2.444,5.509-1.265c1.874,1.171,2.44,3.639,1.269,5.513c-30.985,49.53-24.27,62.501-21.474,65.297
		c13.786,13.821,83.292-23.2,175.705-108.995c1.613-1.507,4.151-1.421,5.65,0.211c1.507,1.617,1.413,4.146-0.207,5.646
		C193.517,386.502,120.388,439.852,85.924,439.852z"/>
	<path style="fill:#3A3847;" d="M312.6,270.8c-0.983,0-1.968-0.359-2.74-1.086c-1.609-1.515-1.688-4.045-0.172-5.653
		c88.66-94.158,128.43-167.537,114.438-181.522c-2.796-2.811-15.782-9.503-65.281,21.459c-1.875,1.171-4.334,0.609-5.514-1.265
		c-1.171-1.875-0.602-4.342,1.266-5.513c39.004-24.395,64.297-31.25,75.183-20.334c23.77,23.747-42.573,116.515-114.266,192.657
		C314.724,270.378,313.662,270.8,312.6,270.8z"/>
	<path style="fill:#3A3847;" d="M290.368,309.789c-5.341,0-10.362-2.078-14.126-5.85c-7.793-7.793-7.793-20.482,0-28.275
		c7.527-7.543,20.709-7.543,28.268,0c7.793,7.793,7.793,20.482,0,28.275C300.731,307.711,295.71,309.789,290.368,309.789z
		 M290.368,277.812c-3.201,0-6.216,1.241-8.472,3.507c-4.678,4.677-4.678,12.291,0,16.968c4.521,4.537,12.438,4.529,16.96,0
		c4.678-4.677,4.678-12.291,0-16.968C296.592,279.053,293.578,277.812,290.368,277.812z"/>
	<path style="fill:#3A3847;" d="M279.069,327.726c-1.023,0-2.046-0.391-2.827-1.172c-1.562-1.562-1.562-4.092,0-5.653l22.614-22.614
		c1.562-1.562,4.092-1.562,5.653,0c1.562,1.562,1.562,4.092,0,5.653l-22.613,22.614
		C281.115,327.335,280.092,327.726,279.069,327.726z"/>
	<path style="fill:#3A3847;" d="M256.447,305.111c-1.023,0-2.046-0.391-2.827-1.172c-1.562-1.562-1.562-4.092,0-5.653l22.622-22.622
		c1.562-1.562,4.092-1.562,5.654,0c1.562,1.562,1.562,4.092,0,5.654l-22.623,22.621
		C258.493,304.721,257.471,305.111,256.447,305.111z"/>
	<path style="fill:#3A3847;" d="M267.746,316.418c-1.022,0-2.045-0.391-2.826-1.171c-1.562-1.562-1.562-4.092,0-5.653l22.63-22.622
		c1.562-1.562,4.092-1.562,5.653,0s1.562,4.092,0,5.653l-22.63,22.622C269.793,316.027,268.77,316.418,267.746,316.418z"/>
</g>
<g>
</g>
<g>
</g>
<g>
</g>
<g>
</g>
<g>
</g>
<g>
</g>
<g>
</g>
<g>
</g>
<g>
</g>
<g>
</g>
<g>
</g>
<g>
</g>
<g>
</g>
<g>
</g>
<g>
</g>
</svg>
