<?xml version="1.0" encoding="iso-8859-1"?>
<!-- Generator: Adobe Illustrator 19.0.0, SVG Export Plug-In . SVG Version: 6.00 Build 0)  -->
<svg version="1.1" id="Capa_1" xmlns="http://www.w3.org/2000/svg" xmlns:xlink="http://www.w3.org/1999/xlink" x="0px" y="0px"
	 viewBox="0 0 511.612 511.612" style="enable-background:new 0 0 511.612 511.612;" xml:space="preserve">
<path style="fill:#656D78;" d="M483.625,383.511h-31.984c8.824,0,15.992-7.16,15.992-15.992c0-8.831-7.168-15.992-15.992-15.992
	h-31.984c8.823,0,15.992-7.161,15.992-15.992c0-8.832-7.169-15.992-15.992-15.992h-47.978c8.824,0,15.993-7.161,15.993-15.993
	c0-8.831-7.169-15.992-15.993-15.992h87.958c8.824,0,15.992-7.16,15.992-15.992c0-8.828-7.168-15.989-15.992-15.989h-39.98
	c8.823,0,15.992-7.16,15.992-15.992s-7.169-15.992-15.992-15.992h-15.992c8.823,0,15.992-7.161,15.992-15.992
	c0-8.832-7.169-15.992-15.992-15.992h79.961c8.824,0,15.992-7.161,15.992-15.993s-7.168-15.993-15.992-15.993h-31.984
	c8.824,0,15.992-7.16,15.992-15.992s-7.168-15.992-15.992-15.992h-31.984c8.823,0,15.992-7.16,15.992-15.992
	s-7.169-15.992-15.992-15.992H395.67c8.823,0,15.992-7.161,15.992-15.992c0-8.832-7.169-15.993-15.992-15.993H155.779
	c-8.832,0-15.992,7.161-15.992,15.993s7.161,15.992,15.992,15.992H99.806c-8.832,0-15.992,7.16-15.992,15.992
	s7.161,15.992,15.992,15.992H83.814c-8.832,0-15.992,7.161-15.992,15.992c0,8.832,7.16,15.992,15.992,15.992h47.977
	c-8.831,0-15.992,7.161-15.992,15.993s7.161,15.993,15.992,15.993H43.833c-8.832,0-15.992,7.16-15.992,15.992
	s7.161,15.992,15.992,15.992h39.981c-8.832,0-15.992,7.16-15.992,15.992s7.16,15.992,15.992,15.992H43.833
	c-8.832,0-15.992,7.161-15.992,15.989c0,8.832,7.161,15.992,15.992,15.992H27.841c-8.832,0-15.993,7.161-15.993,15.992
	c0,8.832,7.161,15.993,15.993,15.993h39.981c-8.832,0-15.992,7.16-15.992,15.992c0,8.831,7.16,15.992,15.992,15.992H51.829
	c-8.832,0-15.993,7.161-15.993,15.992c0,8.832,7.161,15.992,15.993,15.992h79.961c-8.831,0-15.992,7.161-15.992,15.992
	c0,8.832,7.161,15.993,15.992,15.993H99.806c-8.832,0-15.992,7.16-15.992,15.992c0,8.831,7.161,15.992,15.992,15.992h271.873
	c8.824,0,15.993-7.161,15.993-15.992c0-8.832-7.169-15.992-15.993-15.992h111.946c8.824,0,15.992-7.161,15.992-15.993
	C499.618,390.672,492.45,383.511,483.625,383.511z"/>
<g style="opacity:0.2;">
	<path style="fill:#FFCE54;" d="M507.614,255.576c0,139.188-112.688,251.883-251.875,251.883
		c-139.015,0-251.887-112.695-251.887-251.883c0-139.19,112.872-251.879,251.887-251.879
		C394.926,3.697,507.614,116.386,507.614,255.576z"/>
</g>
<g style="opacity:0.2;">
	<path style="fill:#FFCE54;" d="M459.637,255.576c0,112.669-91.229,203.907-203.898,203.907
		c-112.543,0-203.909-91.237-203.909-203.907c0-112.672,91.366-203.902,203.909-203.902
		C368.408,51.674,459.637,142.904,459.637,255.576z"/>
</g>
<g style="opacity:0.2;">
	<path style="fill:#FFCE54;" d="M411.66,255.576c0,86.159-69.764,155.93-155.922,155.93c-86.063,0-155.932-69.771-155.932-155.93
		c0-86.162,69.869-155.925,155.933-155.925C341.897,99.651,411.66,169.414,411.66,255.576z"/>
</g>
<g style="opacity:0.2;">
	<path style="fill:#FFCE54;" d="M363.683,255.576c0,59.64-48.305,107.953-107.944,107.953c-59.592,0-107.956-48.312-107.956-107.953
		c0-59.643,48.364-107.948,107.956-107.948C315.378,147.628,363.683,195.933,363.683,255.576z"/>
</g>
<path style="fill:#FFCE54;" d="M291.717,255.576c0,19.87-16.109,35.987-35.982,35.987s-35.986-16.117-35.986-35.987
	c0-19.873,16.113-35.982,35.986-35.982S291.717,235.703,291.717,255.576z"/>
<path style="fill:#CCD1D9;" d="M355.086,180.222c0,13.252-10.745,23.997-23.989,23.997c-13.251,0-23.988-10.745-23.988-23.997
	c0-13.243,10.737-23.988,23.988-23.988C344.341,156.233,355.086,166.978,355.086,180.222z"/>
<path style="fill:#FFCE54;" d="M169.691,365.926c0,13.251-10.745,23.996-23.989,23.996c-13.251,0-23.989-10.745-23.989-23.996
	c0-13.244,10.737-23.988,23.989-23.988C158.946,341.938,169.691,352.682,169.691,365.926z"/>
<path style="fill:#5D9CEC;" d="M423.905,399.753c0,13.252-10.745,23.996-23.989,23.996c-13.251,0-23.988-10.744-23.988-23.996
	c0-13.243,10.737-23.988,23.988-23.988C413.16,375.765,423.905,386.51,423.905,399.753z"/>
<g style="opacity:0.2;">
	<path d="M331.097,156.233c-8.683,0-16.219,4.654-20.428,11.557c3.64-2.217,7.864-3.561,12.432-3.561
		c13.244,0,23.988,10.745,23.988,23.988c0,4.568-1.351,8.801-3.568,12.439c6.903-4.217,11.565-11.752,11.565-20.436
		C355.086,166.978,344.341,156.233,331.097,156.233z"/>
</g>
<g style="opacity:0.4;">
	<path style="fill:#FFCE54;" d="M339.093,196.222c-13.251,0-23.988-10.744-23.988-23.996c0-4.568,1.343-8.792,3.561-12.432
		c-6.902,4.217-11.557,11.752-11.557,20.428c0,13.252,10.737,23.997,23.988,23.997c8.676,0,16.211-4.654,20.42-11.557
		C347.886,194.879,343.661,196.222,339.093,196.222z"/>
</g>
<g style="opacity:0.2;">
	<path d="M145.702,389.922c8.679,0,16.215-4.654,20.424-11.557c-3.635,2.217-7.86,3.561-12.428,3.561
		c-13.244,0-23.989-10.745-23.989-23.988c0-4.568,1.348-8.801,3.565-12.439c-6.903,4.217-11.561,11.752-11.561,20.436
		C121.713,379.177,132.458,389.922,145.702,389.922z"/>
</g>
<path style="fill:#ED5565;" d="M80.46,100.299c-13.251,0-23.996-10.745-23.996-23.988S67.209,52.322,80.46,52.322
	c13.244,0,23.989,10.745,23.989,23.989S93.703,100.299,80.46,100.299z"/>
<g style="opacity:0.2;">
	<path d="M56.464,76.311c0,8.683,4.654,16.219,11.557,20.427c-2.218-3.639-3.561-7.855-3.561-12.431
		c0-13.244,10.745-23.989,23.989-23.989c4.568,0,8.8,1.351,12.439,3.569c-4.217-6.903-11.752-11.565-20.436-11.565
		C67.208,52.322,56.464,63.067,56.464,76.311z"/>
</g>
<g style="opacity:0.4;">
	<path style="fill:#FFCE54;" d="M96.452,68.314c0,13.26-10.745,23.989-23.997,23.989c-4.568,0-8.792-1.343-12.431-3.561
		c4.216,6.903,11.752,11.557,20.427,11.557c13.251,0,23.997-10.729,23.997-23.988c0-8.667-4.654-16.211-11.557-20.42
		C95.109,59.522,96.452,63.754,96.452,68.314z"/>
</g>
<path style="fill:#A0D468;" d="M413.027,392.281c-4.389,0.328-5.794-2.249-5.208-3.022l-8.238-2.615
	c-0.711-0.406-3.585-0.891-4.561-1.062c-0.68-0.117-6.56,0.617-6.302,7.613c0.109,2.819,1.882,4.646,4.755,4.693
	c2.358,0.016,4.764-0.266,5.529,2.546c0.656,2.374,0.422,4.849,0.999,7.215c0.242,0.969,0.734,2.288,1.96,2.39
	c1.82,0.164,3.054-1.077,4.162-2.343c0.867-1.022,1.968-1.89,2.624-3.1c1.038-1.882,0.75-4.131,1.851-6.044
	C411.481,397.02,414.424,392.179,413.027,392.281z"/>
<g style="opacity:0.2;">
	<path d="M423.92,399.761c0-8.683-4.654-16.219-11.558-20.428c2.218,3.64,3.562,7.855,3.562,12.432
		c0,13.243-10.745,23.988-23.989,23.988c-4.567,0-8.8-1.351-12.438-3.568c4.216,6.903,11.752,11.564,20.435,11.564
		C413.175,423.749,423.92,413.005,423.92,399.761z"/>
</g>
<g style="opacity:0.4;">
	<path style="fill:#FFCE54;" d="M383.931,407.757c0-13.259,10.745-23.988,23.997-23.988c4.567,0,8.792,1.343,12.431,3.561
		c-4.217-6.902-11.752-11.557-20.428-11.557c-13.251,0-23.996,10.729-23.996,23.988c0,8.668,4.654,16.211,11.558,20.42
		C385.274,416.55,383.931,412.318,383.931,407.757z"/>
</g>
<path style="fill:#DA4453;" d="M69.149,87.618c-3.131-3.124-1.858-9.449,2.827-14.134c4.685-4.686,11.01-5.95,14.134-2.827
	c3.123,3.124,1.858,9.449-2.827,14.134S72.272,90.741,69.149,87.618z"/>
<g>
	<path style="fill:#3A3847;" d="M255.731,511.457c-68.346,0-132.604-26.62-180.933-74.948
		C-15.693,346.022-25.255,201.36,52.551,100.003c1.34-1.742,3.858-2.069,5.607-0.734c1.75,1.343,2.081,3.85,0.734,5.606
		c-75.37,98.18-66.101,238.32,21.56,325.981c46.821,46.821,109.069,72.605,175.279,72.605c66.215,0,128.458-25.784,175.279-72.605
		c46.813-46.813,72.605-109.064,72.605-175.272c0-66.21-25.792-128.462-72.605-175.275C345.184-5.517,206.829-16.145,109.169,55.633
		c-1.781,1.304-4.283,0.921-5.587-0.859c-1.308-1.78-0.925-4.279,0.855-5.591C205.24-24.883,348.074-13.951,436.664,74.655
		c48.329,48.329,74.948,112.579,74.948,180.929c0,68.346-26.619,132.597-74.948,180.925S324.085,511.457,255.731,511.457z"/>
	<path style="fill:#3A3847;" d="M255.731,463.481c-114.636,0-207.899-93.26-207.899-207.897c0-114.64,93.264-207.9,207.899-207.9
		c114.637,0,207.904,93.26,207.904,207.9c0,42.796-12.916,83.91-37.35,118.885c-1.265,1.812-3.764,2.248-5.56,0.991
		c-1.812-1.265-2.257-3.756-0.991-5.567c23.488-33.625,35.904-73.152,35.904-114.309c0-110.228-89.676-199.904-199.908-199.904
		c-110.228,0-199.903,89.676-199.903,199.904c0,110.225,89.675,199.901,199.903,199.901c41.141,0,80.668-12.416,114.309-35.896
		c1.804-1.258,4.311-0.82,5.567,0.991c1.258,1.812,0.82,4.303-0.991,5.567C339.624,450.573,298.519,463.481,255.731,463.481z"/>
	<path style="fill:#3A3847;" d="M255.731,415.504c-29.767,0-58.812-8.238-83.998-23.817c-1.878-1.155-2.456-3.623-1.297-5.497
		c1.164-1.882,3.624-2.46,5.505-1.297c23.922,14.79,51.51,22.614,79.79,22.614c83.776,0,151.932-68.154,151.932-151.923
		c0-83.772-68.155-151.927-151.932-151.927c-83.772,0-151.927,68.154-151.927,151.927c0,28.397,7.895,56.102,22.833,80.123
		c1.163,1.874,0.589,4.333-1.285,5.505c-1.866,1.156-4.342,0.586-5.509-1.288c-15.723-25.277-24.035-54.442-24.035-84.339
		c0-88.184,71.743-159.923,159.923-159.923c88.181,0,159.928,71.739,159.928,159.923
		C415.659,343.765,343.911,415.504,255.731,415.504z"/>
	<path style="fill:#3A3847;" d="M255.723,367.519c-29.919,0-58.03-11.643-79.161-32.773c-43.639-43.65-43.639-114.668,0-158.327
		c33.617-33.608,84.956-42.331,127.743-21.731c1.992,0.952,2.827,3.342,1.867,5.333c-0.953,1.991-3.343,2.851-5.334,1.866
		c-39.754-19.131-87.411-11.025-118.623,20.186c-40.523,40.535-40.523,106.493,0,147.02c19.62,19.623,45.724,30.431,73.507,30.431
		c27.788,0,53.893-10.808,73.523-30.431c31.212-31.22,39.317-78.904,20.162-118.659c-0.96-1.983-0.125-4.373,1.858-5.333
		c2.007-0.968,4.389-0.117,5.342,1.866c20.63,42.808,11.908,94.155-21.709,127.779C313.762,355.884,285.643,367.519,255.723,367.519
		z"/>
	<path style="fill:#3A3847;" d="M255.739,295.561c-10.693,0-20.744-4.146-28.295-11.666c-15.555-15.617-15.555-41-0.008-56.594
		c7.555-7.551,17.602-11.705,28.291-11.705c10.69,0,20.748,4.154,28.307,11.689c15.548,15.633,15.54,41.016,0.008,56.594
		C276.483,291.414,266.441,295.561,255.739,295.561z M255.727,223.592c-8.555,0-16.593,3.326-22.633,9.354
		c-12.439,12.486-12.439,32.801,0.004,45.295c6.032,6.005,14.079,9.323,22.641,9.323c8.57,0,16.613-3.318,22.649-9.339
		c12.424-12.463,12.424-32.786-0.008-45.288C272.336,226.918,264.285,223.592,255.727,223.592z"/>
	<path style="fill:#3A3847;" d="M275.748,259.582c-2.209,0-3.998-1.788-3.998-3.999c-0.008-8.824-7.191-16.008-16.012-16.008
		c-2.209,0-3.998-1.788-3.998-3.998s1.789-3.998,3.998-3.998c13.232,0,24,10.769,24.008,24.004
		C279.746,257.786,277.959,259.582,275.748,259.582L275.748,259.582z"/>
	<path style="fill:#3A3847;" d="M255.746,279.577h-0.004c-13.224-0.016-23.988-10.783-24.004-23.993
		c-0.004-2.21,1.784-4.006,3.994-4.006h0.004c2.206,0,3.994,1.788,3.998,3.99c0.008,8.821,7.196,15.997,16.016,16.012
		c2.21,0,3.998,1.797,3.994,4.006C259.741,277.788,257.952,279.577,255.746,279.577z"/>
	<path style="fill:#3A3847;" d="M336.985,178.566c-2.201,0-4.037-1.788-4.037-3.998s1.75-3.998,3.959-3.998h0.078
		c2.21,0,3.998,1.788,3.998,3.998S339.195,178.566,336.985,178.566z"/>
	<path style="fill:#3A3847;" d="M331.331,195.527c-2.202,0-4.037-1.789-4.037-3.998c0-2.21,1.749-3.998,3.959-3.998h0.078
		c2.21,0,3.998,1.788,3.998,3.998S333.541,195.527,331.331,195.527z"/>
	<path style="fill:#3A3847;" d="M320.025,172.913c-2.202,0-4.037-1.788-4.037-3.998s1.749-3.998,3.959-3.998h0.078
		c2.21,0,3.998,1.788,3.998,3.998S322.235,172.913,320.025,172.913z"/>
	<path style="fill:#3A3847;" d="M331.097,208.208h-0.016c-15.422,0-27.971-12.556-27.971-27.987
		c0-15.43,12.557-27.986,27.986-27.986c15.423,0,27.979,12.557,27.987,27.986C359.084,195.652,346.528,208.208,331.097,208.208z
		 M331.097,160.231c-11.025,0-19.99,8.965-19.99,19.99c0,11.026,8.957,19.991,19.975,19.991c11.034,0,20.007-8.964,20.007-19.991
		C351.08,169.204,342.116,160.231,331.097,160.231z"/>
	<path style="fill:#3A3847;" d="M255.731,207.607c-2.209,0-3.998-1.788-3.998-3.998v-15.993c0-2.209,1.789-3.998,3.998-3.998
		c2.21,0,3.998,1.789,3.998,3.998v15.993C259.729,205.819,257.941,207.607,255.731,207.607z"/>
	<path style="fill:#3A3847;" d="M255.731,327.546c-2.209,0-3.998-1.788-3.998-3.998v-15.993c0-2.209,1.789-3.998,3.998-3.998
		c2.21,0,3.998,1.789,3.998,3.998v15.993C259.729,325.758,257.941,327.546,255.731,327.546z"/>
	<path style="fill:#3A3847;" d="M229.747,214.572c-1.382,0-2.725-0.718-3.467-1.999l-7.996-13.853
		c-1.105-1.913-0.449-4.357,1.464-5.458c1.905-1.125,4.354-0.453,5.462,1.46l7.997,13.853c1.105,1.913,0.449,4.357-1.464,5.458
		C231.114,214.401,230.427,214.572,229.747,214.572z"/>
	<path style="fill:#3A3847;" d="M289.719,318.441c-1.383,0-2.726-0.718-3.468-1.999l-7.996-13.853
		c-1.101-1.913-0.444-4.357,1.468-5.458c1.898-1.125,4.35-0.453,5.459,1.46l7.996,13.853c1.108,1.913,0.453,4.357-1.461,5.459
		C291.085,318.269,290.398,318.441,289.719,318.441z"/>
	<path style="fill:#3A3847;" d="M210.718,233.595c-0.679,0-1.367-0.172-1.995-0.539l-13.845-7.996
		c-1.913-1.101-2.569-3.545-1.464-5.458c1.101-1.913,3.549-2.585,5.462-1.46l13.845,7.997c1.913,1.101,2.569,3.545,1.464,5.458
		C213.443,232.876,212.1,233.595,210.718,233.595z"/>
	<path style="fill:#3A3847;" d="M314.589,293.563c-0.679,0-1.366-0.172-1.991-0.539l-13.845-7.996
		c-1.913-1.102-2.569-3.545-1.468-5.459c1.108-1.913,3.553-2.576,5.466-1.46l13.845,7.996c1.914,1.101,2.569,3.545,1.461,5.458
		C317.315,292.844,315.972,293.563,314.589,293.563z"/>
	<path style="fill:#3A3847;" d="M203.764,259.582H187.78c-2.21,0-3.998-1.788-3.998-3.999c0-2.21,1.788-3.998,3.998-3.998h15.984
		c2.21,0,3.998,1.788,3.998,3.998C207.762,257.794,205.974,259.582,203.764,259.582z"/>
	<path style="fill:#3A3847;" d="M323.71,259.582h-15.984c-2.21,0-3.998-1.788-3.998-3.999c0-2.21,1.788-3.998,3.998-3.998h15.984
		c2.21,0,3.998,1.788,3.998,3.998C327.708,257.794,325.92,259.582,323.71,259.582z"/>
	<path style="fill:#3A3847;" d="M196.888,293.555c-1.382,0-2.725-0.719-3.467-2c-1.105-1.912-0.445-4.357,1.464-5.466l13.853-7.988
		c1.909-1.101,4.353-0.445,5.462,1.468c1.104,1.914,0.445,4.357-1.464,5.467l-13.853,7.988
		C198.251,293.383,197.568,293.555,196.888,293.555z"/>
	<path style="fill:#3A3847;" d="M300.76,233.587c-1.382,0-2.725-0.719-3.467-1.999c-1.102-1.913-0.445-4.357,1.468-5.466
		l13.853-7.989c1.914-1.101,4.35-0.445,5.459,1.468c1.108,1.913,0.445,4.357-1.461,5.466l-13.853,7.988
		C302.127,233.415,301.44,233.587,300.76,233.587z"/>
	<path style="fill:#3A3847;" d="M221.759,318.425c-0.68,0-1.366-0.172-1.995-0.538c-1.913-1.102-2.569-3.546-1.464-5.459
		l7.996-13.837c1.101-1.913,3.545-2.585,5.462-1.46c1.913,1.101,2.569,3.545,1.464,5.458l-7.997,13.837
		C224.485,317.707,223.141,318.425,221.759,318.425z"/>
	<path style="fill:#3A3847;" d="M281.731,214.556c-0.68,0-1.367-0.171-1.992-0.539c-1.912-1.101-2.568-3.545-1.468-5.458
		l7.996-13.845c1.109-1.913,3.554-2.577,5.466-1.46c1.914,1.101,2.569,3.545,1.461,5.458l-7.996,13.845
		C284.455,213.839,283.113,214.556,281.731,214.556z"/>
	<path style="fill:#3A3847;" d="M145.702,393.912c-0.004,0-0.004,0-0.004,0c-7.473,0-14.497-2.904-19.784-8.191
		c-5.286-5.286-8.195-12.314-8.195-19.795s2.909-14.509,8.195-19.787c10.565-10.573,29.006-10.573,39.579,0
		c5.286,5.286,8.195,12.314,8.195,19.787c-0.004,7.48-2.913,14.509-8.199,19.787C160.206,391,153.179,393.912,145.702,393.912z
		 M145.702,345.944c-5.341,0-10.362,2.077-14.134,5.849c-3.776,3.771-5.853,8.792-5.853,14.134c0,5.341,2.077,10.362,5.853,14.142
		c7.551,7.551,20.716,7.543,28.268-0.008c3.776-3.771,5.857-8.793,5.857-14.134c0-5.334-2.077-10.354-5.853-14.134
		C156.064,348.021,151.043,345.944,145.702,345.944z"/>
	<path style="fill:#3A3847;" d="M154.018,392.421c-1.55,0-3.022-0.898-3.674-2.413c-1.276-2.951-5.134-10.097-13.392-12.729
		c-10.585-3.389-15.833-11.822-18.019-16.547c-0.93-2.006-0.055-4.381,1.948-5.31c2.003-0.921,4.384-0.047,5.306,1.952
		c1.636,3.529,5.528,9.831,13.197,12.283c11.381,3.631,16.59,13.221,18.3,17.18c0.875,2.021-0.059,4.381-2.085,5.255
		C155.084,392.32,154.545,392.421,154.018,392.421z"/>
	<path style="fill:#3A3847;" d="M168.742,376.569c-1.499,0-2.932-0.843-3.615-2.287c-1.651-3.475-5.548-9.676-13.104-12.08
		c-11.342-3.615-16.574-13.213-18.3-17.172c-0.882-2.022,0.047-4.373,2.069-5.255c2.026-0.891,4.381,0.047,5.264,2.069
		c1.288,2.951,5.173,10.12,13.396,12.736c10.437,3.326,15.692,11.627,17.897,16.281c0.949,1.99,0.098,4.38-1.897,5.325
		C169.897,376.445,169.316,376.569,168.742,376.569z"/>
	<path style="fill:#3A3847;" d="M399.923,427.748c-15.43,0-27.986-12.549-27.994-27.979c0-15.438,12.557-27.994,27.994-27.994
		c15.423,0,27.979,12.557,27.979,27.986C427.903,415.192,415.346,427.748,399.923,427.748z M399.923,379.771
		c-11.025,0-19.998,8.972-19.998,19.998c0.008,11.019,8.973,19.982,19.998,19.982c11.019,0,19.983-8.964,19.983-19.99
		S410.942,379.771,399.923,379.771z"/>
	<path style="fill:#3A3847;" d="M402.282,414.051L402.282,414.051c-0.117,0-0.562-0.023-0.68-0.031
		c-1.249-0.102-4.341-0.844-5.481-5.403c-0.335-1.358-0.452-2.726-0.562-4.092c-0.07-0.883-0.125-1.765-0.312-2.624
		c-0.203-0.016-0.461-0.016-0.766-0.016c-0.016,0-1.047,0-1.078,0c-4.919-0.078-8.487-3.592-8.683-8.535
		c-0.164-4.404,1.522-7.105,2.96-8.598c2.537-2.631,5.926-3.482,8.02-3.115c2.951,0.523,4.396,0.859,5.356,1.281l7.973,2.529
		c1.233,0.391,2.202,1.367,2.601,2.601c0.023,0.078,0.047,0.148,0.062,0.227c0.188,0.031,0.437,0.047,0.71,0.039
		c2.288,0,3.647,0.796,4.404,2.116c1.491,2.592,0.023,5.372-2.507,9.698c-0.461,0.804-0.586,1.476-0.733,2.257
		c-0.227,1.187-0.5,2.654-1.32,4.139c-0.687,1.272-1.608,2.218-2.343,2.975l-0.733,0.781
		C408.068,411.537,405.866,414.051,402.282,414.051z M394.481,393.889c1.702,0,6.88,0,8.379,5.497
		c0.406,1.469,0.547,2.991,0.672,4.506c0.016,0.219,0.031,0.438,0.047,0.648c0.188-0.203,0.39-0.406,0.593-0.617
		c0.453-0.469,0.883-0.913,1.062-1.233c0.211-0.391,0.335-1.062,0.476-1.781c0.234-1.241,0.523-2.787,1.422-4.349
		c0.242-0.422,0.469-0.805,0.672-1.164c-1.477-0.671-2.647-1.702-3.382-3.021l-6.052-1.921c-0.273-0.086-0.531-0.203-0.773-0.336
		c-0.491-0.148-2.248-0.422-3.068-0.562c-0.461,0.086-1.921,0.641-1.819,3.49c0.031,0.797,0.188,0.836,0.827,0.844l0.945,3.998
		v-3.999H394.481z"/>
	<path style="fill:#3A3847;" d="M80.456,104.297c-7.477,0-14.508-2.913-19.795-8.199c-5.282-5.287-8.191-12.307-8.191-19.788
		s2.909-14.501,8.191-19.788c10.573-10.573,29.018-10.573,39.583,0c5.282,5.287,8.195,12.307,8.195,19.788
		c0.004,7.473-2.909,14.5-8.195,19.788C94.961,101.385,87.933,104.297,80.456,104.297z M80.456,56.32
		c-5.341,0-10.366,2.077-14.142,5.856c-3.771,3.772-5.849,8.793-5.849,14.134s2.077,10.362,5.849,14.134
		c7.551,7.559,20.724,7.559,28.276,0c3.775-3.78,5.853-8.792,5.853-14.134s-2.077-10.362-5.853-14.134
		C90.814,58.397,85.797,56.32,80.456,56.32z"/>
	<path style="fill:#3A3847;" d="M97.416,85.963c-1.022,0-2.046-0.391-2.826-1.172c-1.562-1.562-1.562-4.092,0-5.653l6.965-6.965
		c1.562-1.562,4.092-1.562,5.654,0s1.562,4.092,0,5.654l-6.965,6.965C99.462,85.572,98.44,85.963,97.416,85.963z"/>
	<path style="fill:#3A3847;" d="M73.702,93.326c-2.94,0-5.494-0.992-7.379-2.881c-1.886-1.882-2.885-4.428-2.889-7.372
		c0-4.256,2.081-8.785,5.716-12.416c6.142-6.146,15.173-7.449,19.788-2.827c4.755,4.755,3.514,13.447-2.827,19.788
		C82.478,91.249,77.957,93.326,73.702,93.326z M81.557,72.945c-1.636,0-4.271,0.882-6.755,3.366
		c-2.487,2.491-3.373,5.123-3.373,6.762c0,0.531,0.094,1.265,0.543,1.718c0.453,0.445,1.19,0.539,1.729,0.539
		c1.636,0,4.271-0.883,6.754-3.366c3.452-3.452,3.979-7.325,2.827-8.48C82.834,73.039,82.096,72.945,81.557,72.945z"/>
</g>
<g>
</g>
<g>
</g>
<g>
</g>
<g>
</g>
<g>
</g>
<g>
</g>
<g>
</g>
<g>
</g>
<g>
</g>
<g>
</g>
<g>
</g>
<g>
</g>
<g>
</g>
<g>
</g>
<g>
</g>
</svg>
