<svg height="512pt" viewBox="-84 0 512 512" width="512pt" xmlns="http://www.w3.org/2000/svg"><path d="m344.597656 360.015625v141.683594c0 5.6875-4.613281 10.300781-10.304687 10.300781h-323.992188c-5.6875 0-10.300781-4.613281-10.300781-10.300781v-141.683594c0-35.230469 17.933594-66.28125 45.183594-84.492187 16.144531-10.820313 35.542968-17.113282 56.421875-17.113282h141.382812c21.4375 0 41.320313 6.636719 57.710938 17.988282 26.519531 18.316406 43.898437 48.941406 43.898437 83.617187zm0 0" fill="#f22"/><path d="m300.699219 276.398438c-.636719 3.78125-1.988281 7.488281-4.046875 10.949218l-36.882813 62.113282c-9.324219 15.707031-26.476562 25.464843-44.742187 25.464843h-84.03125c-18.273438 0-35.417969-9.757812-44.75-25.464843l-36.878906-62.113282c-2.214844-3.726562-3.605469-7.734375-4.183594-11.824218 16.144531-10.816407 35.542968-17.113282 56.421875-17.113282h141.382812c21.4375 0 41.320313 6.636719 57.710938 17.988282zm0 0" fill="#d80000"/><path d="m344.597656 360.015625v141.683594c0 5.6875-4.613281 10.300781-10.304687 10.300781h-58.152344v-151.984375c0-56.113281-45.484375-101.605469-101.597656-101.605469h68.445312c56.117188 0 101.609375 45.492188 101.609375 101.605469zm0 0" fill="#d80000"/><path d="m286.390625 156.511719h-226.929687v-91.902344c0-35.683594 28.925781-64.609375 64.609374-64.609375h97.710938c35.683594 0 64.609375 28.925781 64.609375 64.609375zm0 0" fill="#fa0"/><path d="m314.824219 373.390625v138.609375h-283.621094v-138.609375c0-50.984375 41.332031-92.328125 92.324219-92.328125h98.960937c50.992188 0 92.335938 41.34375 92.335938 92.328125zm0 0" fill="#ffd02f"/><path d="m314.816406 373.398438v138.601562h-51.554687v-138.601562c0-50.996094-41.332031-92.328126-92.328125-92.328126h51.5625c50.988281-.003906 92.320312 41.332032 92.320312 92.328126zm0 0" fill="#fa0"/><path d="m90.480469 388.5625v123.4375h-15.453125v-123.4375c0-4.261719 3.460937-7.722656 7.726562-7.722656 4.277344-.003906 7.726563 3.460937 7.726563 7.722656zm0 0" fill="#fa0"/><path d="m269.535156 252.070312h-193.050781c-14.867187 0-24.078125 16.1875-16.488281 28.96875l36.882812 62.109376c7.152344 12.039062 20.117188 19.417968 34.117188 19.417968h84.03125c14 0 26.964844-7.378906 34.117187-19.417968l36.882813-62.109376c7.589844-12.78125-1.621094-28.96875-16.492188-28.96875zm0 0" fill="#f22"/><path d="m219.007812 291.066406v6.144532c0 21.1875-17.171874 38.363281-38.359374 38.363281h-15.273438c-21.1875 0-38.363281-17.175781-38.363281-38.363281v-6.144532c0-5.519531 4.476562-10 10-10h13.820312v-49.109375h44.355469v49.109375h13.820312c5.523438 0 10 4.480469 10 10zm0 0" fill="#ffcfa1"/><path d="m195.1875 231.957031v37.308594c-7.1875 1.925781-14.613281 2.921875-22.175781 2.921875-7.566407 0-14.988281-.996094-22.175781-2.921875v-37.308594zm0 0" fill="#ffb685"/><path d="m306.570312 159.460938c0 16.257812-13.183593 29.441406-29.441406 29.441406-16.261718 0-29.445312-13.183594-29.445312-29.441406 0-16.261719 13.183594-29.445313 29.445312-29.445313 16.257813 0 29.441406 13.183594 29.441406 29.445313zm0 0" fill="#ffcfa1"/><path d="m98.339844 159.460938c0 16.257812-13.183594 29.441406-29.445313 29.441406s-29.441406-13.183594-29.441406-29.441406c0-16.261719 13.179687-29.445313 29.441406-29.445313s29.445313 13.183594 29.445313 29.445313zm0 0" fill="#ffcfa1"/><path d="m263.625 65.445312v79.871094c0 63.347656-40.570312 114.699219-90.617188 114.699219-50.035156 0-90.613281-51.355469-90.613281-114.699219v-79.871094s49.394531 21.410157 90.613281 21.410157c41.230469 0 90.617188-21.410157 90.617188-21.410157zm0 0" fill="#ffdec2"/><path d="m263.625 65.445312v36.027344c0 5.6875-4.605469 10.300782-10.304688 10.300782h-160.625c-5.6875 0-10.300781-4.613282-10.300781-10.300782v-36.027344s49.394531 21.410157 90.613281 21.410157c41.230469 0 90.617188-21.410157 90.617188-21.410157zm0 0" fill="#f22"/><path d="m173.011719 217.046875c-13.351563 0-24.894531-11.3125-27.453125-26.894531-.691406-4.210938 2.164062-8.183594 6.375-8.875 4.214844-.695313 8.183594 2.164062 8.875 6.375 1.324218 8.078125 6.457031 13.941406 12.203125 13.941406 5.746093 0 10.875-5.863281 12.199219-13.941406.691406-4.210938 4.667968-7.070313 8.875-6.375 4.210937.691406 7.066406 4.664062 6.375 8.875-2.550782 15.582031-14.097657 26.894531-27.449219 26.894531zm0 0" fill="#ffb685"/><path d="m131.789062 165.175781c-4.265624 0-7.726562-3.457031-7.726562-7.726562v-.9375c0-4.269531 3.460938-7.726563 7.726562-7.726563 4.269532 0 7.726563 3.457032 7.726563 7.726563v.9375c0 4.269531-3.457031 7.726562-7.726563 7.726562zm0 0" fill="#006df0"/><path d="m214.234375 165.175781c-4.269531 0-7.726563-3.457031-7.726563-7.726562v-.9375c0-4.269531 3.457032-7.726563 7.726563-7.726563 4.265625 0 7.726563 3.457032 7.726563 7.726563v.9375c0 4.269531-3.460938 7.726562-7.726563 7.726562zm0 0" fill="#006df0"/><path d="m183.226562 426.515625 9.820313-9.820313c3.015625-3.015624 3.015625-7.90625 0-10.925781-3.019531-3.015625-7.910156-3.015625-10.929687 0l-9.820313 9.820313-9.820313-9.820313c-3.015624-3.015625-7.910156-3.015625-10.925781 0-3.019531 3.015625-3.019531 7.910157 0 10.925781l9.816407 9.820313-9.816407 9.820313c-3.019531 3.019531-3.019531 7.910156 0 10.929687 1.507813 1.507813 3.484375 2.261719 5.460938 2.261719 1.976562 0 3.957031-.753906 5.464843-2.261719l9.820313-9.820313 9.820313 9.820313c1.507812 1.507813 3.488281 2.261719 5.464843 2.261719 1.976563 0 3.953125-.753906 5.464844-2.261719 3.015625-3.019531 3.015625-7.910156 0-10.929687zm0 0" fill="#f22"/></svg>