<svg height="512pt" viewBox="-104 0 512 512" width="512pt" xmlns="http://www.w3.org/2000/svg"><path d="m62.285156 240.441406c-4.269531 0-7.726562-3.457031-7.726562-7.722656v-88.476562c0-4.269532 3.460937-7.726563 7.726562-7.726563s7.726563 3.457031 7.726563 7.726563v88.476562c0 4.265625-3.460938 7.722656-7.726563 7.722656zm0 0" fill="#bc6c35"/><path d="m242.441406 237.917969c-4.269531 0-7.726562-3.457031-7.726562-7.726563v-88.476562c0-4.265625 3.457031-7.726563 7.726562-7.726563 4.265625 0 7.722656 3.460938 7.722656 7.726563v88.476562c.003907 4.269532-3.457031 7.726563-7.722656 7.726563zm0 0" fill="#bc6c35"/><path d="m216.167969 240.441406c-4.269531 0-7.726563-3.457031-7.726563-7.722656v-42.214844c0-4.269531 3.457032-7.726562 7.726563-7.726562 4.265625 0 7.726562 3.457031 7.726562 7.726562v42.214844c0 4.265625-3.460937 7.722656-7.726562 7.722656zm0 0" fill="#bc6c35"/><path d="m15.15625 134.875 17.820312 17.820312c6.46875 6.46875 16.960938 6.46875 23.429688 0 12.101562-12.101562 12.101562-31.71875 0-43.816406l-25.722656-25.722656c-4.023438-4.023438-10.546875-4.023438-14.570313 0l-.957031.957031c-14.015625 14.019531-14.015625 36.746094 0 50.761719zm0 0" fill="#7aa50f"/><path d="m289.574219 134.875-17.820313 17.820312c-6.46875 6.46875-16.960937 6.46875-23.429687 0-12.101563-12.101562-12.101563-31.71875 0-43.816406l25.722656-25.722656c4.023437-4.023438 10.546875-4.023438 14.570313 0l.957031.957031c14.015625 14.019531 14.015625 36.746094 0 50.761719zm0 0" fill="#7aa50f"/><path d="m304.730469 363.074219v138.621093c0 5.683594-4.621094 10.304688-10.304688 10.304688h-284.121093c-5.695313 0-10.304688-4.621094-10.304688-10.304688v-138.621093c0-2.128907.0703125-4.242188.203125-6.332031.984375-15.53125 5.523437-30.078126 12.820313-42.847657 2.570312-4.476562 5.460937-8.738281 8.667968-12.738281 18.179688-22.726562 46.148438-37.285156 77.503906-37.285156h29.34375v-52.761719h47.648438v52.761719h29.347656c52.652344 0 95.734375 41.03125 98.992188 92.871094.132812 2.089843.203125 4.203124.203125 6.332031zm0 0" fill="#92c927"/><path d="m250.578125 384.464844h-44.527344c-4.269531 0-7.726562-3.460938-7.726562-7.726563 0-4.269531 3.460937-7.726562 7.726562-7.726562h44.527344c4.269531 0 7.726563 3.457031 7.726563 7.726562 0 4.265625-3.457032 7.726563-7.726563 7.726563zm0 0" fill="#729309"/><path d="m250.578125 418.957031h-76.164063c-4.265624 0-7.726562-3.457031-7.726562-7.726562 0-4.265625 3.460938-7.722657 7.726562-7.722657h76.164063c4.269531 0 7.726563 3.457032 7.726563 7.722657 0 4.269531-3.457032 7.726562-7.726563 7.726562zm0 0" fill="#729309"/><path d="m250.578125 458.050781h-44.527344c-4.269531 0-7.726562-3.457031-7.726562-7.726562 0-4.265625 3.460937-7.722657 7.726562-7.722657h44.527344c4.269531 0 7.726563 3.457032 7.726563 7.722657 0 4.269531-3.457032 7.726562-7.726563 7.726562zm0 0" fill="#729309"/><path d="m250.578125 485.648438h-30.292969c-4.265625 0-7.722656-3.457032-7.722656-7.726563 0-4.265625 3.457031-7.726563 7.722656-7.726563h30.292969c4.269531 0 7.726563 3.460938 7.726563 7.726563 0 4.269531-3.457032 7.726563-7.726563 7.726563zm0 0" fill="#729309"/><path d="m123.695312 450.386719h-63.6875c-4.269531 0-7.726562-3.457031-7.726562-7.726563 0-4.265625 3.457031-7.726562 7.726562-7.726562h63.6875c4.265626 0 7.726563 3.460937 7.726563 7.726562 0 4.269532-3.460937 7.726563-7.726563 7.726563zm0 0" fill="#729309"/><path d="m90.5 489.480469h-32.070312c-4.269532 0-7.726563-3.457031-7.726563-7.722657 0-4.269531 3.457031-7.726562 7.726563-7.726562h32.070312c4.265625 0 7.726562 3.457031 7.726562 7.726562 0 4.265626-3.460937 7.722657-7.726562 7.722657zm0 0" fill="#729309"/><path d="m176.195312 211.105469v40.085937c-7.726562 2.070313-15.703124 3.136719-23.832031 3.136719-8.125 0-16.101562-1.066406-23.828125-3.136719v-40.085937zm0 0" fill="#7aa50f"/><path d="m304.726562 363.074219v138.621093c0 5.6875-4.613281 10.304688-10.300781 10.304688h-45.089843v-148.925781c0-54.792969-6.996094-99.203125-61.789063-99.203125h17.984375c52.652344 0 95.734375 41.03125 98.992188 92.871094.132812 2.089843.203124 4.199218.203124 6.332031zm0 0" fill="#7aa50f"/><path d="m277.238281 295.164062-221.839843 162.578126v-62.875l181.433593-132.957032c3.601563-2.644531 8.40625-2.953125 12.328125-.804687l26.800782 14.707031c7.382812 4.046875 8.0625 14.386719 1.277343 19.351562zm0 0" fill="#006df0"/><path d="m90.5 395.632812c-4.269531 0-7.726562-3.457031-7.726562-7.726562v-189.121094c0-4.265625 3.457031-7.722656 7.726562-7.722656 4.265625 0 7.726562 3.457031 7.726562 7.722656v189.121094c0 4.269531-3.460937 7.726562-7.726562 7.726562zm0 0" fill="#bc6c35"/><path d="m249.726562 85.8125v32.195312c0 15.9375-2.390624 31.164063-6.746093 45.152344-1.566407 5.058594-3.402344 9.949219-5.472657 14.648438-2.78125 6.355468-5.992187 12.363281-9.609374 17.957031-2.925782 4.5625-6.121094 8.859375-9.53125 12.84375-17.355469 20.265625-40.535157 32.648437-66.003907 32.648437-24.382812 0-46.675781-11.355468-63.765625-30.101562-3.410156-3.761719-6.625-7.820312-9.601562-12.136719-3.480469-5.046875-6.644532-10.457031-9.4375-16.171875-2.246094-4.554687-4.242188-9.316406-5.996094-14.238281-5.5-15.441406-8.558594-32.574219-8.558594-50.601563v-32.195312c0-47.386719 38.414063-85.8007812 85.804688-85.8007812h23.117187c47.386719 0 85.800781 38.4140622 85.800781 85.8007812zm0 0" fill="#92c927"/><path d="m248.917969 74.074219c-15.636719-27.679688-47.316407-46.605469-83.859375-46.605469h-25.386719c-36.542969 0-68.222656 18.925781-83.859375 46.605469 5.714844-41.84375 41.589844-74.074219 84.996094-74.074219h23.113281c43.40625 0 79.28125 32.230469 84.996094 74.074219zm0 0" fill="#bc6c35"/><path d="m108.035156 197.660156-19.4375 13.496094c-3.410156-3.761719-6.625-7.820312-9.601562-12.136719.050781-.050781.113281-.09375.175781-.132812l20.046875-13.917969c3.503906-2.433594 8.324219-1.566406 10.753906 1.9375 2.429688 3.5 1.566406 8.324219-1.9375 10.753906zm0 0" fill="#729309"/><path d="m96.488281 172.007812-26.929687 10.839844c-2.246094-4.554687-4.242188-9.316406-5.996094-14.238281l27.15625-10.929687c3.957031-1.597657 8.457031.316406 10.054688 4.285156 1.585937 3.957031-.328126 8.457031-4.285157 10.042968zm0 0" fill="#729309"/><path d="m227.898438 195.765625c-2.925782 4.5625-6.121094 8.859375-9.53125 12.84375l-24.414063-9.144531c-3.996094-1.496094-6.027344-5.945313-4.53125-9.941406 1.492187-4 5.953125-6.027344 9.941406-4.535157l27.492188 10.292969c.363281.132812.710937.296875 1.042969.484375zm0 0" fill="#729309"/><path d="m242.980469 163.160156c-1.566407 5.058594-3.402344 9.949219-5.472657 14.648438l-25.527343-5.046875c-4.191407-.835938-6.914063-4.894531-6.078125-9.085938.824218-4.183593 4.882812-6.902343 9.078125-6.078125l27.710937 5.492188c.09375.019531.195313.039062.289063.070312zm0 0" fill="#729309"/><path d="m152.363281 194.507812c-14.0625 0-26.226562-11.949218-28.925781-28.414062-.691406-4.210938 2.164062-8.183594 6.375-8.871094 4.210938-.695312 8.183594 2.164063 8.875 6.375 1.46875 8.957032 7.21875 15.457032 13.675781 15.457032 6.460938 0 12.210938-6.5 13.679688-15.457032.691406-4.210937 4.660156-7.070312 8.875-6.375 4.210937.6875 7.0625 4.660156 6.375 8.871094-2.699219 16.464844-14.863281 28.414062-28.929688 28.414062zm0 0" fill="#7aa50f"/><path d="m108.074219 138.777344c-4.269531 0-7.726563-3.460938-7.726563-7.726563v-1.011719c0-4.265624 3.460938-7.726562 7.726563-7.726562 4.269531 0 7.726562 3.460938 7.726562 7.726562v1.011719c0 4.265625-3.457031 7.726563-7.726562 7.726563zm0 0" fill="#bc6c35"/><path d="m196.65625 138.777344c-4.269531 0-7.726562-3.460938-7.726562-7.726563v-1.011719c0-4.265624 3.457031-7.726562 7.726562-7.726562 4.265625 0 7.726562 3.460938 7.726562 7.726562v1.011719c0 4.265625-3.460937 7.726563-7.726562 7.726563zm0 0" fill="#bc6c35"/><path d="m152.421875 102.40625c-.011719 0-.023437 0-.035156 0h-.113281c-4.265626-.019531-7.710938-3.492188-7.691407-7.761719.019531-4.253906 3.476563-7.691406 7.726563-7.691406h.035156.109375c4.269531.023437 7.710937 3.496094 7.691406 7.765625-.015625 4.253906-3.472656 7.6875-7.722656 7.6875zm0 0" fill="#f5f6e3"/><path d="m152.421875 81.679688h-.113281c-4.269532 0-7.726563-3.460938-7.726563-7.726563s3.460938-7.726563 7.726563-7.726563h.113281c4.265625 0 7.722656 3.460938 7.722656 7.726563s-3.457031 7.726563-7.722656 7.726563zm0 0" fill="#f5f6e3"/><path d="m152.421875 60.953125h-.113281c-4.269532 0-7.726563-3.460937-7.726563-7.726563 0-4.265624 3.460938-7.726562 7.726563-7.726562h.113281c4.265625 0 7.722656 3.460938 7.722656 7.726562 0 4.265626-3.457031 7.726563-7.722656 7.726563zm0 0" fill="#f5f6e3"/><path d="m187.597656 108.183594c-.835937 0-1.691406-.136719-2.527344-.425782-4.03125-1.394531-6.195312-5.804687-4.800781-9.835937 1.394531-4.035156 5.773438-6.179687 9.804688-4.785156l.050781.019531c4.03125 1.394531 6.171875 5.792969 4.773438 9.828125-1.105469 3.195313-4.097657 5.199219-7.300782 5.199219zm0 0" fill="#f5f6e3"/><path d="m194.351562 88.589844c-.84375 0-1.703124-.140625-2.546874-.433594-4.027344-1.40625-6.179688-5.820312-4.773438-9.851562 1.40625-4.027344 5.785156-6.164063 9.8125-4.757813l.054688.019531c4.027343 1.40625 6.15625 5.8125 4.746093 9.839844-1.109375 3.1875-4.097656 5.183594-7.292969 5.183594zm0 0" fill="#f5f6e3"/><path d="m201.105469 68.992188c-.824219 0-1.660157-.132813-2.484375-.410157-4.042969-1.371093-6.230469-5.769531-4.859375-9.808593 1.371093-4.039063 5.730469-6.214844 9.773437-4.839844l.054688.015625c4.039062 1.371093 6.203125 5.761719 4.832031 9.800781-1.09375 3.21875-4.097656 5.242188-7.316406 5.242188zm0 0" fill="#f5f6e3"/><path d="m117.132812 108.183594c-3.203124 0-6.195312-2.003906-7.300781-5.199219-1.398437-4.03125.738281-8.433594 4.773438-9.828125 4.027343-1.394531 8.457031.730469 9.855469 4.765625 1.394531 4.03125-.71875 8.421875-4.75 9.816406l-.050782.019531c-.835937.289063-1.691406.425782-2.527344.425782zm0 0" fill="#f5f6e3"/><path d="m110.378906 88.589844c-3.195312 0-6.183594-1.996094-7.296875-5.183594-1.40625-4.027344.71875-8.433594 4.75-9.839844 4.027344-1.40625 8.460938.710938 9.867188 4.738282 1.40625 4.03125-.691407 8.425781-4.722657 9.832031l-.050781.019531c-.84375.292969-1.703125.433594-2.546875.433594zm0 0" fill="#f5f6e3"/><path d="m103.625 68.992188c-3.21875 0-6.222656-2.023438-7.316406-5.242188-1.371094-4.039062.792968-8.429688 4.832031-9.800781 4.039063-1.371094 8.453125.78125 9.828125 4.824219 1.371094 4.039062-.765625 8.417968-4.804688 9.789062l-.054687.019531c-.824219.277344-1.660156.410157-2.484375.410157zm0 0" fill="#f5f6e3"/><path d="m94.308594 327.144531h-7.621094c-6.34375 0-11.484375-5.144531-11.484375-11.488281s5.140625-11.488281 11.484375-11.488281h7.621094c6.34375 0 11.488281 5.144531 11.488281 11.488281s-5.144531 11.488281-11.488281 11.488281zm0 0" fill="#f22"/><path d="m94.308594 368h-7.621094c-6.34375 0-11.484375-5.140625-11.484375-11.484375s5.140625-11.488281 11.484375-11.488281h7.621094c6.34375 0 11.488281 5.144531 11.488281 11.488281s-5.144531 11.484375-11.488281 11.484375zm0 0" fill="#ffd02f"/><path d="m152.363281 298.660156c-27.507812 0-49.886719-18.070312-49.886719-40.28125 0-4.265625 3.460938-7.726562 7.726563-7.726562 4.269531 0 7.726563 3.460937 7.726563 7.726562 0 13.691406 15.449218 24.828125 34.433593 24.828125 18.988281 0 34.4375-11.136719 34.4375-24.828125 0-4.265625 3.457031-7.726562 7.726563-7.726562 4.265625 0 7.726562 3.460937 7.726562 7.726562 0 22.210938-22.382812 40.28125-49.890625 40.28125zm0 0" fill="#f22"/><path d="m63.128906 356.378906v155.621094h-15.460937v-155.621094c0-4.273437 3.460937-7.738281 7.726562-7.738281 4.273438 0 7.734375 3.460937 7.734375 7.738281zm0 0" fill="#7aa50f"/><g fill="#729309"><path d="m35.59375 481.753906c0 4.273438-3.460938 7.722656-7.726562 7.722656h-27.86328175v-15.453124h27.86328175c4.265624.003906 7.726562 3.464843 7.726562 7.730468zm0 0"/><path d="m35.59375 442.65625c0 4.277344-3.460938 7.726562-7.726562 7.726562h-27.86328175v-15.453124h27.86328175c4.265624 0 7.726562 3.460937 7.726562 7.726562zm0 0"/><path d="m26.394531 403.5625c0 4.273438-3.460937 7.726562-7.726562 7.726562h-18.66406275v-15.453124h18.66406275c4.265625 0 7.726562 3.460937 7.726562 7.726562zm0 0"/><path d="m35.59375 364.46875c0 4.273438-3.460938 7.722656-7.726562 7.722656h-27.86328175v-9.117187c0-2.128907.07031255-4.242188.20312475-6.335938h27.660157c4.265624 0 7.726562 3.464844 7.726562 7.730469zm0 0"/><path d="m304.726562 474.089844v15.328125c-.296874.039062-.605468.0625-.925781.0625h-31.027343c-4.277344 0-7.726563-3.453125-7.726563-7.726563 0-4.265625 3.449219-7.726562 7.726563-7.726562h31.027343c.320313 0 .628907.019531.925781.0625zm0 0"/><path d="m304.726562 434.929688v15.453124h-22.539062c-4.273438 0-7.726562-3.449218-7.726562-7.726562 0-4.261719 3.453124-7.722656 7.726562-7.722656h22.539062zm0 0"/><path d="m304.726562 395.835938v15.453124h-31.738281c-4.273437 0-7.726562-3.449218-7.726562-7.726562 0-4.265625 3.453125-7.726562 7.726562-7.726562zm0 0"/><path d="m304.726562 363.074219v9.117187h-27.144531c-4.265625 0-7.726562-3.449218-7.726562-7.722656 0-4.265625 3.460937-7.726562 7.726562-7.726562h26.941407c.132812 2.089843.203124 4.199218.203124 6.332031zm0 0"/><path d="m41.519531 323.773438c-1.496093 2.214843-3.9375 3.410156-6.417969 3.410156-1.484374 0-2.980468-.421875-4.308593-1.304688l-17.417969-11.726562c-.125-.082032-.238281-.164063-.351562-.257813 2.566406-4.480469 5.460937-8.734375 8.675781-12.742187.101562.0625.195312.125.296875.1875l17.421875 11.710937c3.542969 2.378907 4.480469 7.179688 2.101562 10.722657zm0 0"/></g><path d="m194.550781 331.9375c-.835937 0-1.6875-.136719-2.527343-.425781-4.03125-1.398438-6.195313-5.808594-4.796876-9.839844 1.394532-4.03125 5.769532-6.179687 9.800782-4.78125l.050781.015625c4.03125 1.398438 6.171875 5.796875 4.773437 9.828125-1.105468 3.199219-4.097656 5.203125-7.300781 5.203125zm0 0" fill="#0052d6"/><path d="m215.554688 315.480469c-.839844 0-1.691407-.136719-2.527344-.425781-4.03125-1.394532-6.195313-5.804688-4.800782-9.835938 1.394532-4.035156 5.769532-6.179688 9.800782-4.785156l.054687.019531c4.03125 1.394531 6.167969 5.796875 4.773438 9.828125-1.105469 3.195312-4.097657 5.199219-7.300781 5.199219zm0 0" fill="#0052d6"/></svg>