<?xml version="1.0" encoding="iso-8859-1"?>
<!-- Generator: Adobe Illustrator 19.0.0, SVG Export Plug-In . SVG Version: 6.00 Build 0)  -->
<svg version="1.1" id="Capa_1" xmlns="http://www.w3.org/2000/svg" xmlns:xlink="http://www.w3.org/1999/xlink" x="0px" y="0px"
	 viewBox="0 0 511.754 511.754" style="enable-background:new 0 0 511.754 511.754;" xml:space="preserve">
<polygon style="fill:#DA4453;" points="419.799,95.954 427.795,111.946 307.853,111.946 339.837,87.958 339.837,79.961 
	427.795,79.961 "/>
<g style="opacity:0.2;">
	<polygon points="318.512,103.95 307.853,111.946 427.795,111.946 423.797,103.95 	"/>
</g>
<polygon style="fill:#ED5565;" points="339.837,79.961 339.837,87.958 251.879,87.958 251.879,55.973 339.837,55.973 "/>
<path style="fill:#AAB2BD;" d="M385.815,387.814c12.158,0,21.99,9.839,21.99,21.989s-9.832,21.99-21.99,21.99
	c-12.072,0-21.989-9.84-21.989-21.99S373.742,387.814,385.815,387.814z"/>
<g style="opacity:0.2;">
	<path d="M385.815,395.81c10.784,0,19.702,7.754,21.592,17.991c0.234-1.296,0.398-2.631,0.398-3.998
		c0-12.15-9.832-21.989-21.99-21.989c-12.072,0-21.989,9.839-21.989,21.989c0,1.367,0.164,2.702,0.406,3.998
		C366.129,403.564,375.102,395.81,385.815,395.81z"/>
</g>
<path style="fill:#AAB2BD;" d="M251.879,303.854c22.153,0,40.059,17.914,40.059,39.981s-17.905,39.98-40.059,39.98
	c-21.989,0-39.98-17.913-39.98-39.98S229.89,303.854,251.879,303.854z"/>
<g style="opacity:0.2;">
	<path d="M251.879,319.846c19.405,0,35.546,13.744,39.255,31.985c0.523-2.585,0.804-5.255,0.804-7.996
		c0-22.067-17.905-39.981-40.059-39.981c-21.989,0-39.98,17.914-39.98,39.981c0,2.741,0.281,5.411,0.812,7.996
		C216.428,333.59,232.615,319.846,251.879,319.846z"/>
</g>
<path style="fill:#AAB2BD;" d="M115.944,391.812c8.879,0,15.992,7.2,15.992,15.992c0,8.793-7.113,15.993-15.992,15.993
	c-8.792,0-15.992-7.2-15.992-15.993C99.952,399.012,107.152,391.812,115.944,391.812z"/>
<g style="opacity:0.2;">
	<path d="M115.944,399.808c7.481,0,13.65,5.131,15.422,11.994c0.336-1.288,0.57-2.608,0.57-3.998
		c0-8.792-7.113-15.992-15.992-15.992c-8.792,0-15.992,7.2-15.992,15.992c0,1.39,0.234,2.71,0.57,3.998
		C102.318,404.939,108.542,399.808,115.944,399.808z"/>
</g>
<path style="fill:#E6E9ED;" d="M507.756,467.775v3.998H3.998v-3.998c0-139.136,112.829-251.878,251.879-251.878
	C395.014,215.897,507.756,328.639,507.756,467.775z M407.805,409.803c0-12.15-9.832-21.989-21.99-21.989
	c-12.072,0-21.989,9.839-21.989,21.989s9.917,21.99,21.989,21.99C397.973,431.793,407.805,421.953,407.805,409.803z
	 M291.938,343.835c0-22.067-17.905-39.981-40.059-39.981c-21.989,0-39.98,17.914-39.98,39.981s17.991,39.98,39.98,39.98
	C274.032,383.815,291.938,365.902,291.938,343.835z M131.937,407.804c0-8.792-7.113-15.992-15.992-15.992
	c-8.792,0-15.992,7.2-15.992,15.992c0,8.793,7.2,15.993,15.992,15.993C124.823,423.797,131.937,416.597,131.937,407.804z"/>
<path style="fill:#FFFFFF;" d="M255.877,215.897c-139.05,0-251.879,112.742-251.879,251.879v3.998h0.859
	C15.064,342,123.558,239.885,255.877,239.885c132.397,0,240.822,102.115,251.021,231.889h0.858v-3.998
	C507.756,328.639,395.014,215.897,255.877,215.897z"/>
<g style="opacity:0.3;">
	<rect x="251.877" y="55.977" style="fill:#FFFFFF;" width="87.958" height="7.996"/>
</g>
<g style="opacity:0.2;">
	<rect x="251.877" y="79.957" width="87.958" height="7.997"/>
</g>
<g style="opacity:0.3;">
	<polygon style="fill:#FFFFFF;" points="427.795,79.961 339.837,79.961 339.837,87.958 423.797,87.958 	"/>
</g>
<g>
	<path style="fill:#3A3847;" d="M115.944,427.795c-11.026,0-19.99-8.965-19.99-19.991c0-11.025,8.964-19.99,19.99-19.99
		s19.99,8.965,19.99,19.99C135.935,418.83,126.971,427.795,115.944,427.795z M115.944,395.81c-6.614,0-11.994,5.38-11.994,11.994
		s5.38,11.994,11.994,11.994c6.614,0,11.994-5.38,11.994-11.994S122.559,395.81,115.944,395.81z"/>
	<path style="fill:#3A3847;" d="M385.815,435.791c-14.328,0-25.987-11.659-25.987-25.988s11.659-25.987,25.987-25.987
		c14.329,0,25.988,11.658,25.988,25.987S400.144,435.791,385.815,435.791z M385.815,391.812c-9.917,0-17.991,8.074-17.991,17.991
		c0,9.918,8.074,17.992,17.991,17.992c9.918,0,17.992-8.074,17.992-17.992C403.807,399.886,395.732,391.812,385.815,391.812z"/>
	<path style="fill:#3A3847;" d="M251.879,387.814c-24.246,0-43.979-19.732-43.979-43.979s19.732-43.979,43.979-43.979
		c24.262,0,43.994,19.733,43.994,43.979S276.141,387.814,251.879,387.814z M251.879,307.852c-19.842,0-35.982,16.141-35.982,35.983
		s16.141,35.982,35.982,35.982c19.85,0,35.998-16.141,35.998-35.982C287.877,323.992,271.729,307.852,251.879,307.852z"/>
	<path style="fill:#3A3847;" d="M251.879,211.898c-2.21,0-3.998-1.789-3.998-3.998V39.981c0-2.209,1.788-3.998,3.998-3.998
		s3.998,1.788,3.998,3.998v167.92C255.877,210.11,254.089,211.898,251.879,211.898z"/>
	<path style="fill:#3A3847;" d="M339.837,59.971h-79.962c-2.209,0-3.998-1.789-3.998-3.998c0-2.21,1.789-3.998,3.998-3.998h79.962
		c2.21,0,3.998,1.788,3.998,3.998C343.835,58.183,342.047,59.971,339.837,59.971z"/>
	<path style="fill:#3A3847;" d="M339.837,91.964h-79.962c-2.209,0-3.998-1.789-3.998-3.998c0-2.21,1.789-3.998,3.998-3.998h79.962
		c2.21,0,3.998,1.788,3.998,3.998C343.835,90.175,342.047,91.964,339.837,91.964z"/>
	<path style="fill:#3A3847;" d="M339.837,91.964c-2.21,0-3.998-1.789-3.998-3.998V55.973c0-2.21,1.788-3.998,3.998-3.998
		s3.998,1.788,3.998,3.998v31.993C343.835,90.175,342.047,91.964,339.837,91.964z"/>
	<path style="fill:#3A3847;" d="M427.795,83.96h-79.962c-2.21,0-3.998-1.789-3.998-3.999c0-2.209,1.788-3.998,3.998-3.998h79.962
		c2.209,0,3.998,1.789,3.998,3.998C431.793,82.171,430.004,83.96,427.795,83.96z"/>
	<path style="fill:#3A3847;" d="M427.795,115.952H307.853c-2.21,0-3.998-1.788-3.998-3.998s1.788-3.998,3.998-3.998h119.942
		c2.209,0,3.998,1.788,3.998,3.998S430.004,115.952,427.795,115.952z"/>
	<path style="fill:#3A3847;" d="M427.795,115.952c-1.461,0-2.874-0.809-3.576-2.21l-7.997-15.992
		c-0.983-1.976-0.187-4.377,1.788-5.365c1.977-0.98,4.373-0.191,5.365,1.788l7.996,15.993c0.984,1.976,0.188,4.376-1.788,5.364
		C429.005,115.815,428.396,115.952,427.795,115.952z"/>
	<path style="fill:#3A3847;" d="M419.799,99.96c-0.602,0-1.211-0.137-1.789-0.422c-1.975-0.988-2.771-3.389-1.788-5.365l7.997-16
		c0.999-1.976,3.389-2.756,5.364-1.789c1.976,0.988,2.772,3.39,1.788,5.365l-7.996,16C422.672,99.151,421.259,99.96,419.799,99.96z"
		/>
	<path style="fill:#3A3847;" d="M307.853,115.944c-1.289,0-2.554-0.625-3.327-1.78c-1.226-1.839-0.726-4.318,1.109-5.544
		l23.988-15.992c1.819-1.222,4.303-0.734,5.544,1.109c1.227,1.839,0.727,4.318-1.108,5.544l-23.988,15.992
		C309.391,115.726,308.617,115.944,307.853,115.944z"/>
	<path style="fill:#3A3847;" d="M507.756,471.773c-2.209,0-3.998-1.788-3.998-3.998c0-136.685-111.196-247.881-247.881-247.881
		c-136.684,0-247.881,111.196-247.881,247.881c0,2.21-1.788,3.998-3.998,3.998S0,469.985,0,467.775
		c0-141.088,114.789-255.877,255.877-255.877c141.089,0,255.877,114.788,255.877,255.877
		C511.754,469.985,509.966,471.773,507.756,471.773z"/>
	<path style="fill:#3A3847;" d="M3.998,475.772c-2.21,0-3.998-1.788-3.998-3.998v-3.998c0-2.21,1.788-3.998,3.998-3.998
		s3.998,1.788,3.998,3.998v3.998C7.996,473.983,6.208,475.772,3.998,475.772z"/>
	<path style="fill:#3A3847;" d="M507.756,475.772c-2.209,0-3.998-1.788-3.998-3.998v-3.998c0-2.21,1.789-3.998,3.998-3.998
		c2.21,0,3.998,1.788,3.998,3.998v3.998C511.754,473.983,509.966,475.772,507.756,475.772z"/>
	<path style="fill:#3A3847;" d="M507.756,475.772H3.998c-2.21,0-3.998-1.788-3.998-3.998s1.788-3.998,3.998-3.998h503.758
		c2.21,0,3.998,1.788,3.998,3.998S509.966,475.772,507.756,475.772z"/>
</g>
<g>
</g>
<g>
</g>
<g>
</g>
<g>
</g>
<g>
</g>
<g>
</g>
<g>
</g>
<g>
</g>
<g>
</g>
<g>
</g>
<g>
</g>
<g>
</g>
<g>
</g>
<g>
</g>
<g>
</g>
</svg>
