<svg height="512pt" viewBox="0 0 512 512" width="512pt" xmlns="http://www.w3.org/2000/svg"><path d="m478.738281 386.03125c20.425781-19.640625 33.261719-48.03125 33.261719-79.613281 0-59.269531-45.207031-107.320313-100.96875-107.320313-55.765625 0-100.972656 48.050782-100.972656 107.320313 0 50.453125-34.929688 195.3125 127.894531 195.3125 57.078125 0 75.976563-51.871094 60.65625-87.523438-4.828125-11.230469-11.742187-20.769531-19.871094-28.175781zm0 0" fill="#fa0"/><path d="m498.609375 414.207031c15.316406 35.65625-3.578125 87.523438-60.660156 87.523438-4.582031 0-9.011719-.113281-13.289063-.339844 50.964844-4.511719 67.425782-53.207031 52.828125-87.183594-4.820312-11.226562-11.730469-20.765625-19.859375-28.175781 20.417969-19.632812 33.253906-48.023438 33.253906-79.609375 0-55.476563-39.609374-101.132813-90.410156-106.738281 3.472656-.390625 6.996094-.585938 10.558594-.585938 55.765625 0 100.96875 48.054688 100.96875 107.324219 0 31.582031-12.835938 59.976563-33.265625 79.609375 8.140625 7.40625 15.050781 16.949219 19.875 28.175781zm0 0" fill="#ff8b00"/><path d="m447.863281 359.539062c0-7.144531-8.085937-12.941406-18.0625-12.941406-9.972656 0-18.0625 5.796875-18.0625 12.941406 0 7.148438 8.089844 12.945313 18.0625 12.945313 9.976563 0 18.0625-5.796875 18.0625-12.945313zm0 0" fill="#f5f6e3"/><path d="m371.769531 288.566406c0-9.976562-5.796875-18.0625-12.945312-18.0625-7.144531 0-12.941407 8.085938-12.941407 18.0625 0 9.972656 5.796876 18.0625 12.941407 18.0625 7.148437 0 12.945312-8.089844 12.945312-18.0625zm0 0" fill="#f5f6e3"/><path d="m448.789062 310.8125c15.890626-15.890625 19.542969-38.007812 8.15625-49.394531-11.390624-11.390625-33.503906-7.738281-49.398437 8.15625-15.890625 15.890625-19.542969 38.007812-8.15625 49.394531 11.390625 11.386719 33.503906 7.738281 49.398437-8.15625zm0 0" fill="#f5f6e3"/><path d="m412.28125 451.117188c15.890625 15.890624 38.007812 19.542968 49.398438 8.15625 11.386718-11.390626 7.734374-33.503907-8.15625-49.398438-15.894532-15.890625-38.007813-19.542969-49.398438-8.15625-11.386719 11.390625-7.738281 33.503906 8.15625 49.398438zm0 0" fill="#f5f6e3"/><path d="m405.34375 246.519531c-4.269531 0-7.726562-3.457031-7.726562-7.726562v-.796875c0-4.269532 3.457031-7.726563 7.726562-7.726563 4.265625 0 7.722656 3.460938 7.722656 7.726563v.796875c0 4.269531-3.457031 7.726562-7.722656 7.726562zm0 0" fill="#3d3d38"/><path d="m388.339844 262.578125c-4.265625 0-7.726563-3.460937-7.726563-7.726563v-.796874c0-4.269532 3.460938-7.726563 7.726563-7.726563s7.726562 3.457031 7.726562 7.726563v.796874c0 4.265626-3.460937 7.726563-7.726562 7.726563zm0 0" fill="#3d3d38"/><path d="m481.058594 322.769531c-4.269532 0-7.726563-3.460937-7.726563-7.726562v-.800781c0-4.265626 3.457031-7.722657 7.726563-7.722657 4.265625 0 7.726562 3.457031 7.726562 7.722657v.800781c0 4.265625-3.460937 7.726562-7.726562 7.726562zm0 0" fill="#3d3d38"/><path d="m464.054688 338.824219c-4.265626 0-7.726563-3.457031-7.726563-7.726563v-.796875c0-4.265625 3.460937-7.726562 7.726563-7.726562 4.269531 0 7.726562 3.460937 7.726562 7.726562v.796875c0 4.269532-3.457031 7.726563-7.726562 7.726563zm0 0" fill="#3d3d38"/><path d="m33.261719 386.03125c-20.425781-19.640625-33.261719-48.03125-33.261719-79.613281 0-59.269531 45.207031-107.320313 100.96875-107.320313 55.765625 0 100.972656 48.050782 100.972656 107.320313 0 50.453125 34.929688 195.3125-127.894531 195.3125-57.078125 0-75.976563-51.871094-60.65625-87.523438 4.828125-11.230469 11.742187-20.769531 19.871094-28.175781zm0 0" fill="#fa0"/><path d="m100.261719 359.539062c0-7.144531-8.089844-12.941406-18.0625-12.941406-9.976563 0-18.0625 5.796875-18.0625 12.941406 0 7.148438 8.085937 12.945313 18.0625 12.945313 9.972656 0 18.0625-5.796875 18.0625-12.945313zm0 0" fill="#f5f6e3"/><path d="m166.117188 288.566406c0-9.976562-5.796876-18.0625-12.941407-18.0625-7.148437 0-12.945312 8.085938-12.945312 18.0625 0 9.972656 5.796875 18.0625 12.945312 18.0625 7.144531 0 12.941407-8.089844 12.941407-18.0625zm0 0" fill="#f5f6e3"/><path d="m63.210938 310.820312c15.894531 15.890626 38.007812 19.542969 49.398437 8.15625 11.386719-11.390624 7.738281-33.503906-8.15625-49.398437-15.890625-15.890625-38.007813-19.542969-49.394531-8.15625-11.390625 11.390625-7.738282 33.503906 8.152344 49.398437zm0 0" fill="#f5f6e3"/><path d="m99.726562 451.113281c15.894532-15.894531 19.542969-38.007812 8.15625-49.398437-11.386718-11.386719-33.503906-7.738282-49.398437 8.15625-15.890625 15.890625-19.542969 38.007812-8.152344 49.398437 11.386719 11.386719 33.503907 7.734375 49.394531-8.15625zm0 0" fill="#f5f6e3"/><path d="m106.65625 246.519531c-4.265625 0-7.722656-3.457031-7.722656-7.726562v-.796875c0-4.269532 3.457031-7.726563 7.722656-7.726563 4.269531 0 7.726562 3.460938 7.726562 7.726563v.796875c.003907 4.269531-3.457031 7.726562-7.726562 7.726562zm0 0" fill="#3d3d38"/><path d="m123.660156 262.578125c-4.265625 0-7.726562-3.460937-7.726562-7.726563v-.796874c0-4.269532 3.460937-7.726563 7.726562-7.726563s7.726563 3.457031 7.726563 7.726563v.796874c0 4.265626-3.457031 7.726563-7.726563 7.726563zm0 0" fill="#3d3d38"/><path d="m30.941406 322.769531c-4.265625 0-7.726562-3.460937-7.726562-7.726562v-.800781c0-4.265626 3.460937-7.722657 7.726562-7.722657 4.269532 0 7.726563 3.457031 7.726563 7.722657v.800781c0 4.265625-3.457031 7.726562-7.726563 7.726562zm0 0" fill="#3d3d38"/><path d="m47.945312 338.824219c-4.269531 0-7.726562-3.457031-7.726562-7.726563v-.796875c0-4.265625 3.457031-7.726562 7.726562-7.726562 4.265626 0 7.726563 3.460937 7.726563 7.726562v.796875c0 4.269532-3.460937 7.726563-7.726563 7.726563zm0 0" fill="#3d3d38"/><path d="m297.320312 320.566406c37.335938 0 65.921876-33.460937 59.816407-70.292968-3.664063-22.109376-5.617188-43.90625-5.617188-58.582032v-29.628906c0-52.757812-42.765625-95.523438-95.519531-95.523438s-95.519531 42.769532-95.519531 95.523438v29.628906c0 14.671875-1.949219 36.472656-5.617188 58.582032-6.105469 36.832031 22.480469 70.289062 59.816407 70.289062h82.640624zm0 0" fill="#5a5a52"/><path d="m297.324219 320.566406h-82.648438c-37.332031 0-65.914062-33.460937-59.8125-70.292968.789063-4.78125 1.5-9.554688 2.136719-14.25 7.828125 23.964843 30.421875 41.789062 57.675781 41.789062h82.648438c27.257812 0 49.847656-17.824219 57.675781-41.789062.636719 4.695312 1.347656 9.46875 2.136719 14.25 6.101562 36.832031-22.480469 70.292968-59.8125 70.292968zm0 0" fill="#3d3d38"/><path d="m376.449219 394.269531v107.429688c0 5.6875-4.613281 10.300781-10.300781 10.300781h-220.296876c-5.6875 0-10.300781-4.613281-10.300781-10.300781v-107.429688c0-11.445312 2.460938-22.3125 6.871094-32.121093 12.257813-27.289063 39.683594-46.292969 71.546875-46.292969h84.0625c31.863281 0 59.285156 19.003906 71.546875 46.292969 4.410156 9.808593 6.871094 20.675781 6.871094 32.121093zm0 0" fill="#5a5a52"/><path d="m376.441406 394.28125v107.417969c0 5.6875-4.613281 10.300781-10.300781 10.300781h-33.488281v-117.71875c0-43.316406-35.105469-78.421875-78.417969-78.421875h43.789063c43.308593 0 78.417968 35.109375 78.417968 78.421875zm0 0" fill="#3d3d38"/><path d="m369.582031 362.148438h-227.164062c12.261719-27.285157 39.695312-46.289063 71.554687-46.289063h84.058594c31.855469 0 59.289062 19.003906 71.550781 46.289063zm0 0" fill="#ffcfa1"/><path d="m369.582031 362.148438h-43.792969c-12.273437-27.285157-39.695312-46.289063-71.554687-46.289063h43.792969c31.859375 0 59.292968 19.003906 71.554687 46.289063zm0 0" fill="#ffb685"/><path d="m237.167969 274.148438h37.664062v60.125h-37.664062zm0 0" fill="#ffcfa1"/><path d="m274.835938 274.148438v31.6875c-6.105469 1.636718-12.410157 2.480468-18.835938 2.480468s-12.730469-.84375-18.835938-2.480468v-31.6875zm0 0" fill="#ffb685"/><path d="m187.070312 388.976562v123.023438h-15.453124v-123.023438c0-4.265624 3.460937-7.726562 7.726562-7.726562s7.726562 3.460938 7.726562 7.726562zm0 0" fill="#3d3d38"/><path d="m369.4375 212.570312c0 13.8125-11.195312 25.007813-25.007812 25.007813s-25.007813-11.195313-25.007813-25.007813c0-13.808593 11.195313-25.007812 25.007813-25.007812s25.007812 11.199219 25.007812 25.007812zm0 0" fill="#ffb685"/><path d="m192.578125 212.570312c0 13.8125-11.195313 25.007813-25.007813 25.007813s-25.007812-11.195313-25.007812-25.007813c0-13.808593 11.195312-25.007812 25.007812-25.007812s25.007813 11.199219 25.007813 25.007812zm0 0" fill="#ffb685"/><path d="m265.136719 132.726562c37.460937 0 67.828125 30.367188 67.828125 67.828126v.003906c0 53.804687-34.460938 97.425781-76.964844 97.425781s-76.964844-43.621094-76.964844-97.425781v-.003906c0-37.460938 30.367188-67.828126 67.828125-67.828126zm0 0" fill="#ffcfa1"/><path d="m222.902344 235.324219c0 4.304687-3.488282 7.789062-7.789063 7.789062s-7.789062-3.484375-7.789062-7.789062c0-4.300781 3.488281-7.789063 7.789062-7.789063s7.789063 3.488282 7.789063 7.789063zm0 0" fill="#ff8294"/><path d="m289.097656 235.324219c0-4.300781 3.484375-7.789063 7.789063-7.789063 4.300781 0 7.789062 3.488282 7.789062 7.789063" fill="#ff8294"/><path d="m304.675781 235.324219c0 4.304687-3.488281 7.789062-7.789062 7.789062s-7.789063-3.484375-7.789063-7.789062" fill="#ff8294"/><path d="m256 262.648438c-11.910156 0-22.199219-10.015626-24.464844-23.820313-.691406-4.210937 2.164063-8.183594 6.375-8.875 4.210938-.6875 8.183594 2.164063 8.875 6.375 1.015625 6.195313 4.976563 10.867187 9.214844 10.867187s8.199219-4.671874 9.214844-10.867187c.691406-4.210937 4.667968-7.0625 8.875-6.375 4.210937.691406 7.0625 4.664063 6.375 8.875-2.265625 13.804687-12.554688 23.820313-24.464844 23.820313zm0 0" fill="#ffb685"/><path d="m219.394531 221.378906c-4.265625 0-7.722656-3.460937-7.722656-7.726562v-.800782c0-4.265624 3.457031-7.726562 7.722656-7.726562 4.269531 0 7.726563 3.460938 7.726563 7.726562v.800782c0 4.265625-3.457032 7.726562-7.726563 7.726562zm0 0" fill="#3d3d38"/><path d="m292.605469 221.378906c-4.269531 0-7.726563-3.460937-7.726563-7.726562v-.800782c0-4.265624 3.457032-7.726562 7.726563-7.726562 4.265625 0 7.722656 3.460938 7.722656 7.726562v.800782c0 4.265625-3.457031 7.726562-7.722656 7.726562zm0 0" fill="#3d3d38"/><path d="m254.234375 110.011719v3.8125c0 29.523437 23.929687 53.453125 53.449219 53.453125h27.496094v-14.300782c0-23.730468-19.238282-42.964843-42.964844-42.964843zm0 0" fill="#5a5a52"/><path d="m333.046875 175.003906h-25.359375c-33.734375 0-61.179688-27.445312-61.179688-61.179687v-3.8125c0-4.269531 3.460938-7.726563 7.726563-7.726563s7.726563 3.457032 7.726563 7.726563v3.8125c0 25.214843 20.511718 45.726562 45.722656 45.726562h25.363281c4.265625 0 7.726563 3.457031 7.726563 7.726563 0 4.265625-3.460938 7.726562-7.726563 7.726562zm0 0" fill="#3d3d38"/><path d="m383.242188 20.933594c0 11.558594-9.371094 20.929687-20.929688 20.929687-11.5625 0-20.933594-9.371093-20.933594-20.929687 0-11.5625 9.371094-20.933594 20.933594-20.933594 11.558594 0 20.929688 9.371094 20.929688 20.933594zm0 0" fill="#ff8b00"/><path d="m304.550781 126.113281c-4.269531 0-7.726562-3.457031-7.726562-7.722656 0-55.066406 45.136719-87.09375 47.058593-88.433594 3.503907-2.433593 8.316407-1.570312 10.753907 1.933594 2.433593 3.5 1.574219 8.308594-1.921875 10.746094-.601563.425781-40.4375 29.023437-40.4375 75.753906 0 4.265625-3.460938 7.722656-7.726563 7.722656zm0 0" fill="#fa0"/><path d="m170.621094 20.933594c0 11.558594-9.371094 20.929687-20.933594 20.929687-11.558594 0-20.929688-9.371093-20.929688-20.929687 0-11.5625 9.371094-20.933594 20.929688-20.933594 11.5625 0 20.933594 9.371094 20.933594 20.933594zm0 0" fill="#ff8b00"/><path d="m207.449219 126.113281c-4.265625 0-7.722657-3.457031-7.722657-7.722656 0-46.847656-40.039062-75.472656-40.445312-75.753906-3.488281-2.449219-4.34375-7.261719-1.902344-10.753907 2.4375-3.496093 7.242188-4.359374 10.738282-1.925781 1.921874 1.335938 47.0625 33.363281 47.0625 88.429688-.003907 4.269531-3.460938 7.726562-7.730469 7.726562zm0 0" fill="#fa0"/><g fill="#ff8b00"><path d="m289.042969 428.925781c-1.089844 0-2.191407-.230469-3.242188-.714843l-69.570312-32.21875c-3.871094-1.792969-5.554688-6.386719-3.761719-10.257813s6.382812-5.558594 10.257812-3.765625l69.566407 32.21875c3.871093 1.792969 5.558593 6.386719 3.765625 10.257812-1.308594 2.820313-4.097656 4.480469-7.015625 4.480469zm0 0"/><path d="m222.957031 428.925781c-2.917969 0-5.710937-1.660156-7.015625-4.480469-1.792968-3.871093-.105468-8.464843 3.765625-10.257812l69.566407-32.21875c3.875-1.792969 8.464843-.109375 10.257812 3.765625 1.792969 3.871094.109375 8.464844-3.761719 10.257813l-69.570312 32.21875c-1.050781.484374-2.152344.714843-3.242188.714843zm0 0"/><path d="m282.261719 486.828125c-1.351563 0-2.714844-.351563-3.957031-1.09375l-57.359376-34.28125c-3.660156-2.1875-4.855468-6.929687-2.667968-10.59375 2.191406-3.664063 6.933594-4.855469 10.597656-2.667969l57.355469 34.277344c3.664062 2.191406 4.859375 6.933594 2.667969 10.597656-1.445313 2.421875-4.007813 3.761719-6.636719 3.761719zm0 0"/><path d="m229.738281 486.828125c-2.628906 0-5.191406-1.339844-6.636719-3.761719-2.191406-3.664062-.996093-8.40625 2.667969-10.597656l57.355469-34.277344c3.664062-2.191406 8.40625-.996094 10.597656 2.667969 2.1875 3.664063.992188 8.40625-2.667968 10.59375l-57.359376 34.28125c-1.242187.742187-2.605468 1.09375-3.957031 1.09375zm0 0"/></g><path d="m241.011719 512h-15.515625l-18.902344-146.78125c-.546875-4.234375 2.441406-8.105469 6.675781-8.652344s8.09375 2.441406 8.640625 6.675782l19.039063 147.769531c.039062.339843.0625.660156.0625.988281zm0 0" fill="#fa0"/><path d="m305.40625 365.21875-18.902344 146.78125h-15.515625c0-.328125.023438-.648438.0625-.988281l19.039063-147.769531c.546875-4.234376 4.40625-7.222657 8.640625-6.675782s7.222656 4.417969 6.675781 8.652344zm0 0" fill="#fa0"/></svg>