<svg height="512pt" viewBox="-77 0 511 512" width="512pt" xmlns="http://www.w3.org/2000/svg"><path d="m292.324219 376.550781v125.148438c0 5.6875-4.613281 10.300781-10.300781 10.300781h-256.554688c-5.6875 0-10.304688-4.613281-10.304688-10.300781v-125.148438c0-49.828125 40.394532-90.222656 90.222657-90.222656h96.714843c49.832032 0 90.222657 40.394531 90.222657 90.222656zm0 0" fill="#e0e0d1"/><path d="m161.367188 329.144531v182.855469h-15.453126v-182.855469c0-4.265625 3.460938-7.726562 7.726563-7.726562s7.726563 3.460937 7.726563 7.726562zm0 0" fill="#cecdba"/><path d="m292.320312 376.546875v125.152344c0 5.6875-4.613281 10.300781-10.300781 10.300781h-40.078125v-135.445312c0-49.832032-40.390625-90.226563-90.226562-90.226563h50.386718c49.828126 0 90.21875 40.394531 90.21875 90.21875zm0 0" fill="#cecdba"/><path d="m73.277344 370.464844v141.535156h-15.453125v-141.535156c0-4.277344 3.460937-7.726563 7.726562-7.726563s7.726563 3.449219 7.726563 7.726563zm0 0" fill="#cecdba"/><path d="m175.417969 329.96875v-91.632812h-43.34375v91.632812l15.0625 8.722656c4.089843 2.367188 9.128906 2.367188 13.214843 0zm0 0" fill="#ffb685"/><path d="m284.261719 161.242188c0 15.890624-12.882813 28.773437-28.773438 28.773437s-28.773437-12.882813-28.773437-28.773437c0-15.890626 12.882812-28.773438 28.773437-28.773438s28.773438 12.882812 28.773438 28.773438zm0 0" fill="#ffcfa1"/><path d="m80.773438 161.242188c0 15.890624-12.878907 28.773437-28.769532 28.773437-15.894531 0-28.773437-12.882813-28.773437-28.773437 0-15.890626 12.878906-28.773438 28.773437-28.773438 15.890625 0 28.769532 12.882812 28.769532 28.773438zm0 0" fill="#ffcfa1"/><path d="m242.296875 81.875v71.792969c0 61.90625-39.648437 112.09375-88.550781 112.09375s-88.550782-50.191407-88.550782-112.09375v-71.792969zm0 0" fill="#ffdec2"/><path d="m153.746094 223.941406c-13.136719 0-24.488282-11.113281-27-26.429687-.691406-4.207031 2.164062-8.183594 6.375-8.871094 4.210937-.6875 8.183594 2.160156 8.875 6.371094 1.257812 7.683593 6.308594 13.476562 11.75 13.476562s10.492187-5.792969 11.75-13.476562c.691406-4.207031 4.667968-7.058594 8.875-6.371094 4.210937.6875 7.066406 4.664063 6.375 8.871094-2.511719 15.316406-13.867188 26.429687-27 26.429687zm0 0" fill="#ffb685"/><path d="m113.464844 173.253906c-4.269532 0-7.726563-3.457031-7.726563-7.726562v-.917969c0-4.269531 3.457031-7.726563 7.726563-7.726563 4.265625 0 7.722656 3.460938 7.722656 7.726563v.917969c0 4.269531-3.457031 7.726562-7.722656 7.726562zm0 0" fill="#00d8e0"/><path d="m194.027344 173.253906c-4.265625 0-7.726563-3.457031-7.726563-7.726562v-.917969c0-4.269531 3.460938-7.726563 7.726563-7.726563s7.726562 3.460938 7.726562 7.726563v.917969c0 4.269531-3.460937 7.726562-7.726562 7.726562zm0 0" fill="#00d8e0"/><g fill="#fa0"><path d="m132.40625 282.558594h-23.78125c-3.820312 0-7.332031 2.089844-9.15625 5.449218l-9.617188 17.726563c-2.832031 5.222656-.730468 11.757813 4.621094 14.34375l48.515625 23.460937c4.082031 1.976563 8.539063-1.90625 7.140625-6.222656zm0 0"/><path d="m175.085938 282.558594h23.777343c3.820313 0 7.335938 2.089844 9.15625 5.449218l9.617188 17.726563c2.835937 5.222656.730469 11.757813-4.621094 14.34375l-48.511719 23.460937c-4.082031 1.976563-8.539062-1.90625-7.144531-6.222656zm0 0"/><path d="m175.417969 378.644531c-4.269531 0-7.726563-3.457031-7.726563-7.726562v-.917969c0-4.269531 3.457032-7.726562 7.726563-7.726562 4.265625 0 7.726562 3.457031 7.726562 7.726562v.917969c0 4.269531-3.460937 7.726562-7.726562 7.726562zm0 0"/><path d="m175.417969 429.273438c-4.269531 0-7.726563-3.460938-7.726563-7.726563v-.917969c0-4.269531 3.457032-7.726562 7.726563-7.726562 4.265625 0 7.726562 3.457031 7.726562 7.726562v.917969c0 4.265625-3.460937 7.726563-7.726562 7.726563zm0 0"/><path d="m175.417969 479.898438c-4.269531 0-7.726563-3.460938-7.726563-7.726563v-.917969c0-4.269531 3.457032-7.726562 7.726563-7.726562 4.265625 0 7.726562 3.457031 7.726562 7.726562v.917969c0 4.269531-3.460937 7.726563-7.726562 7.726563zm0 0"/><path d="m288.699219 504.496094v-232.820313c0-7.652343 6.203125-13.851562 13.855469-13.851562 7.648437 0 13.851562 6.199219 13.851562 13.851562v232.820313zm0 0"/></g><path d="m316.40625 333.46875h-27.707031c-4.265625 0-7.726563-3.460938-7.726563-7.726562 0-4.265626 3.460938-7.726563 7.726563-7.726563h27.707031c4.269531 0 7.726562 3.460937 7.726562 7.726563 0 4.265624-3.457031 7.726562-7.726562 7.726562zm0 0" fill="#ffd02f"/><path d="m316.40625 360.730469h-27.707031c-4.265625 0-7.726563-3.457031-7.726563-7.726563 0-4.265625 3.460938-7.726562 7.726563-7.726562h27.707031c4.269531 0 7.726562 3.460937 7.726562 7.726562 0 4.269532-3.457031 7.726563-7.726562 7.726563zm0 0" fill="#ffd02f"/><path d="m304.730469 512h-19.449219c-9.871094 0-17.871094-8.003906-17.871094-17.875v-49.847656c0-9.871094 8-17.875 17.871094-17.875h19.449219c15.839843 0 28.679687 12.839844 28.679687 28.679687v28.238281c0 15.839844-12.839844 28.679688-28.679687 28.679688zm0 0" fill="#ffcfa1"/><path d="m354.691406 240.867188-.492187.554687-42.226563 47.234375-1.648437 1.84375c-4.140625 4.636719-11.394531 4.636719-15.535157 0l-1.660156-1.851562-42.226562-47.226563-.496094-.554687c-3.613281-4.050782-3.511719-10.199219.230469-14.125l.730469-.773438 11.929687-12.535156c1.96875-2.0625 4.6875-3.234375 7.539063-3.234375h63.429687c2.851563 0 5.582031 1.171875 7.550781 3.234375l11.929688 12.535156.730468.773438c3.738282 3.925781 3.832032 10.074218.214844 14.125zm0 0" fill="#00d8e0"/><path d="m327.042969 234.964844-15.074219 53.691406-1.648438 1.84375c-4.140624 4.636719-11.390624 4.636719-15.535156 0l-1.65625-1.851562-15.074218-53.683594c-.410157-1.496094-.421876-3.070313-.039063-4.566406l5.273437-20.199219h16.03125l-5.808593 22.324219 9.042969 32.234374 9.046874-32.234374-5.820312-22.324219h16.039062l5.265626 20.199219c.390624 1.496093.378906 3.070312-.042969 4.566406zm0 0" fill="#00bdc6"/><path d="m354.691406 240.867188-.492187.554687h-103.296875l-.496094-.554687c-3.617188-4.050782-3.511719-10.199219.226562-14.125l.730469-.773438h102.378907l.734374.773438c3.738282 3.925781 3.832032 10.074218.214844 14.125zm0 0" fill="#00bdc6"/><path d="m255.488281 90.28125h-203.484375v-65.203125c0-13.851563 11.226563-25.078125 25.074219-25.078125h153.332031c13.847656 0 25.078125 11.226562 25.078125 25.078125zm0 0" fill="#e0e0d1"/><path d="m52.003906 53.472656h203.484375v36.808594h-203.484375zm0 0" fill="#fa0"/><path d="m293.144531 111.125h-280.082031c-6.9375 0-12.5625-5.625-12.5625-12.5625s5.625-12.558594 12.5625-12.558594h280.082031c6.933594 0 12.558594 5.621094 12.558594 12.558594s-5.625 12.5625-12.558594 12.5625zm0 0" fill="#e0e0d1"/></svg>