<svg height="511pt" viewBox="0 -6 511.99989 511" width="511pt" xmlns="http://www.w3.org/2000/svg"><path d="m373.429688 247.925781 100.933593 100.933594c1.023438 1.027344 1.816407 2.261719 2.320313 3.621094l34.691406 93.722656c1.363281 3.683594.457031 7.828125-2.320312 10.605469l-16.570313 16.566406c-3.925781 3.929688-10.296875 3.929688-14.222656 0l-165.144531-165.140625c-3.925782-3.929687-3.925782-10.296875 0-14.222656l46.085937-46.085938c3.929687-3.929687 10.296875-3.929687 14.226563 0zm0 0" fill="#159bff"/><path d="m364.402344 359.515625-17.78125-17.777344 18.441406-18.441406c3.929688-3.929687 10.296875-3.929687 14.222656 0l3.558594 3.554687c3.925781 3.929688 3.925781 10.296876 0 14.222657zm0 0" fill="#6c6c65"/><path d="m397.828125 392.945312-17.777344-17.78125 18.4375-18.441406c3.929688-3.925781 10.296875-3.925781 14.226563 0l3.554687 3.554688c3.929688 3.929687 3.929688 10.296875 0 14.226562zm0 0" fill="#6c6c65"/><path d="m138.570312 247.925781-100.933593 100.933594c-1.023438 1.023437-1.816407 2.261719-2.320313 3.621094l-34.691406 93.722656c-1.363281 3.683594-.457031 7.824219 2.320312 10.601563l16.570313 16.570312c3.925781 3.929688 10.296875 3.929688 14.222656 0l165.140625-165.140625c3.929688-3.929687 3.929688-10.296875 0-14.222656l-46.082031-46.085938c-3.929687-3.929687-10.296875-3.929687-14.226563 0zm0 0" fill="#159bff"/><path d="m147.597656 359.515625 17.78125-17.777344-18.441406-18.441406c-3.929688-3.929687-10.296875-3.929687-14.222656 0l-3.558594 3.554687c-3.925781 3.929688-3.925781 10.296876 0 14.222657zm0 0" fill="#6c6c65"/><path d="m114.171875 392.945312 17.777344-17.78125-18.4375-18.441406c-3.929688-3.925781-10.296875-3.925781-14.226563 0l-3.554687 3.554688c-3.929688 3.929687-3.929688 10.296875 0 14.226562zm0 0" fill="#6c6c65"/><path d="m235.640625 249.210938h40.714844v45.082031h-40.714844zm0 0" fill="#ffcfa1"/><path d="m276.359375 239.386719v34.246093c-6.601563 1.769532-13.414063 2.679688-20.359375 2.679688s-13.757812-.910156-20.359375-2.679688v-34.246093zm0 0" fill="#ffb685"/><path d="m378.601562 172.835938c0 14.929687-12.101562 27.027343-27.03125 27.027343-14.925781 0-27.027343-12.097656-27.027343-27.027343 0-14.925782 12.101562-27.027344 27.027343-27.027344 14.929688 0 27.03125 12.101562 27.03125 27.027344zm0 0" fill="#ffcfa1"/><path d="m187.457031 172.835938c0 14.929687-12.101562 27.027343-27.027343 27.027343-14.929688 0-27.03125-12.097656-27.03125-27.027343 0-14.925782 12.101562-27.027344 27.03125-27.027344 14.925781 0 27.027343 12.101562 27.027343 27.027344zm0 0" fill="#ffcfa1"/><path d="m339.179688 86.542969v73.308593c0 58.152344-37.242188 105.296876-83.179688 105.296876s-83.179688-47.148438-83.179688-105.296876v-73.308593zm0 0" fill="#ffcfa1"/><path d="m256 226.332031c-12.566406 0-23.429688-10.605469-25.824219-25.214843-.691406-4.210938 2.164063-8.1875 6.375-8.875 4.210938-.6875 8.183594 2.160156 8.875 6.371093 1.144531 6.992188 5.691407 12.265625 10.574219 12.265625s9.429688-5.273437 10.574219-12.265625c.691406-4.210937 4.664062-7.066406 8.875-6.371093 4.210937.691406 7.066406 4.664062 6.375 8.875-2.394531 14.609374-13.257813 25.214843-25.824219 25.214843zm0 0" fill="#ffb685"/><path d="m218.160156 182.742188c-4.265625 0-7.726562-3.457032-7.726562-7.726563v-.863281c0-4.265625 3.460937-7.722656 7.726562-7.722656 4.269532 0 7.726563 3.457031 7.726563 7.722656v.863281c0 4.269531-3.457031 7.726563-7.726563 7.726563zm0 0" fill="#159bff"/><path d="m293.839844 182.742188c-4.269532 0-7.726563-3.457032-7.726563-7.726563v-.863281c0-4.265625 3.457031-7.722656 7.726563-7.722656 4.265625 0 7.726562 3.457031 7.726562 7.722656v.863281c0 4.269531-3.460937 7.726563-7.726562 7.726563zm0 0" fill="#159bff"/><path d="m356.234375 500.378906h-200.46875c-5.421875 0-9.824219-4.398437-9.824219-9.824218v-157.085938c0-24.894531 20.179688-45.074219 45.074219-45.074219h129.96875c24.890625 0 45.070313 20.179688 45.070313 45.074219v157.089844c.003906 5.421875-4.398438 9.820312-9.820313 9.820312zm0 0" fill="#e0e0d1"/><path d="m366.054688 333.464844v157.09375c0 5.425781-4.398438 9.824218-9.824219 9.824218h-36.570313c5.421875 0 9.824219-4.398437 9.824219-9.824218v-192.34375c0-5.421875-4.402344-9.824219-9.824219-9.824219h1.324219c24.890625 0 45.070313 20.179687 45.070313 45.074219zm0 0" fill="#cecdba"/><path d="m335.941406 473.808594h-158.355468v-51.203125c0-5.554688 4.503906-10.058594 10.058593-10.058594h138.242188c5.554687 0 10.054687 4.503906 10.054687 10.058594zm0 0" fill="#159bff"/><path d="m274.199219 412.546875h35.632812v61.261719h-35.632812zm0 0" fill="#cecdba"/><path d="m366.054688 473.8125v16.746094c0 5.425781-4.398438 9.824218-9.824219 9.824218h-200.464844c-5.421875 0-9.824219-4.398437-9.824219-9.824218v-16.746094zm0 0" fill="#828278"/><path d="m366.054688 473.8125v16.746094c0 5.425781-4.398438 9.824218-9.824219 9.824218h-36.570313c5.421875 0 9.824219-4.398437 9.824219-9.824218v-16.746094zm0 0" fill="#6c6c65"/><path d="m360.894531 39.6875v121.777344c0 2.605468-1.03125 5.109375-2.875 6.957031l-9.726562 9.714844v45.222656c0 2.605469-1.027344 5.097656-2.871094 6.945313l-11.941406 11.9375c-6.191407 6.191406-16.773438 1.804687-16.773438-6.941407v-60.8125c0-13.082031-10.597656-23.683593-23.683593-23.683593h-74.046876c-13.082031 0-23.683593 10.601562-23.683593 23.683593v60.8125c0 8.746094-10.582031 13.132813-16.773438 6.941407l-11.9375-11.9375c-1.84375-1.847657-2.886719-4.339844-2.886719-6.945313v-45.222656l-9.714843-9.714844c-1.84375-1.847656-2.871094-4.347656-2.871094-6.957031v-121.777344c0-1.246094.234375-2.484375.699219-3.636719l11.714844-29.371093c1.492187-3.726563 5.109374-6.179688 9.125-6.179688h1.09375c5.429687 0 9.828124 4.398438 9.828124 9.828125v18.730469c0 13.214844 10.238282 24.054687 23.21875 24.980468.597657.050782 1.203126.070313 1.824219.070313h94.777344c.617187 0 1.222656-.019531 1.820313-.070313 12.980468-.925781 23.222656-11.765624 23.222656-24.980468v-18.730469c0-5.429687 4.398437-9.828125 9.828125-9.828125h1.089843c4.019532 0 7.632813 2.453125 9.128907 6.179688l11.710937 29.371093c.464844 1.15625.703125 2.390625.703125 3.636719zm0 0" fill="#e0e0d1"/><g fill="#f5f6e3"><path d="m324.542969 140.3125h-12.378907c-4.269531 0-7.726562-3.460938-7.726562-7.726562 0-4.265626 3.457031-7.726563 7.726562-7.726563h12.378907c4.269531 0 7.726562 3.460937 7.726562 7.726563 0 4.265624-3.457031 7.726562-7.726562 7.726562zm0 0"/><path d="m324.542969 121.824219h-12.378907c-4.269531 0-7.726562-3.457031-7.726562-7.722657 0-4.269531 3.457031-7.726562 7.726562-7.726562h12.378907c4.269531 0 7.726562 3.457031 7.726562 7.726562 0 4.265626-3.457031 7.722657-7.726562 7.722657zm0 0"/><path d="m324.542969 103.339844h-12.378907c-4.269531 0-7.726562-3.460938-7.726562-7.726563s3.457031-7.726562 7.726562-7.726562h12.378907c4.269531 0 7.726562 3.460937 7.726562 7.726562s-3.457031 7.726563-7.726562 7.726563zm0 0"/><path d="m198.5625 140.3125h-12.382812c-4.265626 0-7.726563-3.460938-7.726563-7.726562 0-4.265626 3.460937-7.726563 7.726563-7.726563h12.382812c4.265625 0 7.726562 3.460937 7.726562 7.726563 0 4.265624-3.460937 7.726562-7.726562 7.726562zm0 0"/><path d="m198.5625 121.824219h-12.382812c-4.265626 0-7.726563-3.457031-7.726563-7.722657 0-4.269531 3.460937-7.726562 7.726563-7.726562h12.382812c4.265625 0 7.726562 3.457031 7.726562 7.726562 0 4.265626-3.460937 7.722657-7.726562 7.722657zm0 0"/><path d="m198.5625 103.339844h-12.382812c-4.265626 0-7.726563-3.460938-7.726563-7.726563s3.460937-7.726562 7.726563-7.726562h12.382812c4.265625 0 7.726562 3.460937 7.726562 7.726562s-3.460937 7.726563-7.726562 7.726563zm0 0"/></g><path d="m305.210938 54.039062-14.484376 88.277344c-.492187 2.988282-1.347656 5.828125-2.523437 8.488282h-64.40625c-1.175781-2.660157-2.027344-5.5-2.523437-8.488282l-14.484376-88.277344c.597657.050782 1.203126.070313 1.824219.070313h94.777344c.617187 0 1.222656-.019531 1.820313-.070313zm0 0" fill="#cecdba"/><path d="m228.34375 36.910156h55.3125c6.207031 0 10.929688 5.566406 9.925781 11.6875l-15.058593 91.714844c-1.808594 11.03125-11.34375 19.128906-22.523438 19.128906s-20.714844-8.097656-22.523438-19.128906l-15.058593-91.714844c-1.007813-6.121094 3.71875-11.6875 9.925781-11.6875zm0 0" fill="#f5f6e3"/><path d="m260.078125 61.054688h-8.15625c-5.691406 0-10.304687-4.613282-10.304687-10.304688v-15.25c0-7.941406 6.441406-14.378906 14.382812-14.378906s14.382812 6.4375 14.382812 14.378906v15.25c0 5.691406-4.613281 10.304688-10.304687 10.304688zm0 0" fill="#159bff"/><path d="m299.152344 348.6875h-19.355469c-4.269531 0-7.726563-3.457031-7.726563-7.722656 0-4.269532 3.457032-7.726563 7.726563-7.726563h19.355469c4.269531 0 7.726562 3.457031 7.726562 7.726563 0 4.265625-3.457031 7.722656-7.726562 7.722656zm0 0" fill="#159bff"/><path d="m299.152344 367.242188h-19.355469c-4.269531 0-7.726563-3.457032-7.726563-7.722657 0-4.269531 3.457032-7.726562 7.726563-7.726562h19.355469c4.269531 0 7.726562 3.457031 7.726562 7.726562 0 4.265625-3.457031 7.722657-7.726562 7.722657zm0 0" fill="#159bff"/><path d="m232.203125 348.6875h-19.355469c-4.265625 0-7.726562-3.457031-7.726562-7.722656 0-4.269532 3.460937-7.726563 7.726562-7.726563h19.355469c4.269531 0 7.726563 3.457031 7.726563 7.726563.003906 4.265625-3.457032 7.722656-7.726563 7.722656zm0 0" fill="#159bff"/><path d="m232.203125 367.242188h-19.355469c-4.265625 0-7.726562-3.457032-7.726562-7.722657 0-4.269531 3.460937-7.726562 7.726562-7.726562h19.355469c4.269531 0 7.726563 3.457031 7.726563 7.726562 0 4.265625-3.457032 7.722657-7.726563 7.722657zm0 0" fill="#159bff"/><path d="m270.136719 375.585938h-28.273438c-6.511719 0-11.792969-5.28125-11.792969-11.792969v-28.269531c0-6.515626 5.28125-11.792969 11.792969-11.792969h28.273438c6.511719 0 11.792969 5.277343 11.792969 11.792969v28.269531c0 6.511719-5.28125 11.792969-11.792969 11.792969zm0 0" fill="#828278"/></svg>