<svg height="512pt" viewBox="-105 0 512 512" width="512pt" xmlns="http://www.w3.org/2000/svg"><path d="m282.164062 162.789062h-28.28125v-41.253906h38.597657c7.65625 0 12.636719 8.054688 9.214843 14.90625l-10.3125 20.652344c-1.746093 3.492188-5.3125 5.695312-9.21875 5.695312zm0 0" fill="#b1de54"/><path d="m20.628906 162.789062h28.285156v-41.253906h-38.597656c-7.65625 0-12.636718 8.054688-9.21875 14.90625l10.316406 20.652344c1.742188 3.492188 5.3125 5.695312 9.214844 5.695312zm0 0" fill="#b1de54"/><path d="m63.121094 310.90625v-40.21875c0-6.074219-4.921875-10.996094-10.996094-10.996094-6.070312 0-10.992188 4.921875-10.992188 10.996094v40.21875zm0 0" fill="#e0e0d1"/><path d="m261.660156 310.90625v-40.21875c0-6.074219-4.921875-10.996094-10.996094-10.996094-6.070312 0-10.992187 4.921875-10.992187 10.996094v40.21875zm0 0" fill="#e0e0d1"/><path d="m130.546875 254.738281h41.699219v46.171875h-41.699219zm0 0" fill="#ffcfa1"/><path d="m172.246094 244.675781v35.078125c-6.757813 1.808594-13.738282 2.742188-20.847656 2.742188-7.113282 0-14.09375-.933594-20.851563-2.742188v-35.078125zm0 0" fill="#ffb685"/><g fill="#ffcfa1"><path d="m276.96875 176.511719c0 15.289062-12.394531 27.683593-27.683594 27.683593-15.289062 0-27.683594-12.394531-27.683594-27.683593 0-15.289063 12.394532-27.683594 27.683594-27.683594 15.289063 0 27.683594 12.394531 27.683594 27.683594zm0 0"/><path d="m81.191406 176.511719c0 15.289062-12.394531 27.683593-27.683594 27.683593-15.289062 0-27.683593-12.394531-27.683593-27.683593 0-15.289063 12.394531-27.683594 27.683593-27.683594 15.289063 0 27.683594 12.394531 27.683594 27.683594zm0 0"/><path d="m236.59375 88.128906v75.085938c0 59.558594-38.144531 107.847656-85.195312 107.847656-47.050782 0-85.199219-48.289062-85.199219-107.847656v-75.085938zm0 0"/></g><path d="m151.398438 231.117188c-12.785157 0-23.828126-10.796876-26.265626-25.671876-.691406-4.210937 2.160157-8.183593 6.375-8.875 4.207032-.691406 8.183594 2.167969 8.871094 6.375 1.1875 7.253907 5.925782 12.71875 11.015625 12.71875 5.09375 0 9.828125-5.46875 11.015625-12.71875.691406-4.210937 4.664063-7.066406 8.875-6.375 4.210938.691407 7.066406 4.664063 6.375 8.875-2.433594 14.875-13.480468 25.671876-26.261718 25.671876zm0 0" fill="#ffb685"/><path d="m112.640625 186.472656c-4.269531 0-7.726563-3.460937-7.726563-7.726562v-.882813c0-4.269531 3.460938-7.726562 7.726563-7.726562 4.269531 0 7.726563 3.457031 7.726563 7.726562v.882813c0 4.265625-3.457032 7.726562-7.726563 7.726562zm0 0" fill="#3d3d38"/><path d="m190.152344 186.472656c-4.265625 0-7.726563-3.460937-7.726563-7.726562v-.882813c0-4.269531 3.460938-7.726562 7.726563-7.726562s7.726562 3.457031 7.726562 7.726562v.882813c0 4.265625-3.460937 7.726562-7.726562 7.726562zm0 0" fill="#3d3d38"/><path d="m274.664062 511.996094h-246.53125c-5.558593 0-10.0625-4.503906-10.0625-10.0625v-197c0-5.554688 4.503907-10.0625 10.0625-10.0625h246.53125c5.558594 0 10.0625 4.507812 10.0625 10.0625v197c0 5.558594-4.507812 10.0625-10.0625 10.0625zm0 0" fill="#b1de54"/><path d="m284.722656 304.929688v197.007812c0 5.554688-4.507812 10.0625-10.0625 10.0625h-37.457031c5.554687 0 10.0625-4.507812 10.0625-10.0625v-197.007812c0-5.554688-4.507813-10.0625-10.0625-10.0625h37.457031c5.558594 0 10.0625 4.507812 10.0625 10.0625zm0 0" fill="#92c927"/><path d="m253.882812 484.78125h-203.40625v-52.445312c0-5.691407 4.613282-10.304688 10.304688-10.304688h182.796875c5.691406 0 10.304687 4.613281 10.304687 10.304688zm0 0" fill="#e0e0d1"/><path d="m170.039062 422.03125h36.496094v62.75h-36.496094zm0 0" fill="#92c927"/><path d="m284.722656 484.78125v17.15625c0 5.554688-4.507812 10.0625-10.0625 10.0625h-246.527344c-5.554687 0-10.0625-4.507812-10.0625-10.0625v-17.15625zm0 0" fill="#f5f6e3"/><path d="m284.722656 484.78125v17.15625c0 5.554688-4.507812 10.0625-10.0625 10.0625h-37.457031c5.554687 0 10.0625-4.507812 10.0625-10.0625v-17.15625zm0 0" fill="#e0e0d1"/><path d="m137.269531 341.09375v44.269531c0 5.554688-4.507812 10.0625-10.0625 10.0625h-66.667969c-.90625 0-1.769531-.121093-2.605468-.351562-4.296875-1.136719-7.457032-5.0625-7.457032-9.710938v-44.269531c0-5.554688 4.507813-10.0625 10.0625-10.0625h66.667969c5.554688 0 10.0625 4.507812 10.0625 10.0625zm0 0" fill="#81caef"/><path d="m121.976562 331.03125-64.042968 64.042969c-4.296875-1.136719-7.457032-5.0625-7.457032-9.710938v-12.023437l42.308594-42.308594zm0 0" fill="#b0e8ff"/><path d="m252.316406 341.09375v44.269531c0 5.554688-4.507812 10.0625-10.0625 10.0625h-66.660156c-5.5625 0-10.0625-4.507812-10.0625-10.0625v-44.269531c0-5.554688 4.5-10.0625 10.0625-10.0625h66.660156c1.539063 0 2.988282.339844 4.285156.964844 3.410157 1.601562 5.777344 5.082031 5.777344 9.097656zm0 0" fill="#81caef"/><path d="m252.316406 341.09375v14.304688l-40.015625 40.027343h-29.199219l63.4375-63.429687c3.410157 1.601562 5.777344 5.082031 5.777344 9.097656zm0 0" fill="#b0e8ff"/><path d="m236.773438 0h-1.125c-5.558594 0-10.0625 4.503906-10.0625 10.0625v63.386719h-20.46875l-14.035157-44.292969c-1.324219-4.179688-5.207031-7.019531-9.59375-7.019531h-60.183593c-4.386719 0-8.269532 2.839843-9.59375 7.019531l-14.035157 44.292969h-20.46875v-63.386719c0-5.558594-4.503906-10.0625-10.0625-10.0625h-1.125c-4.117187 0-7.816406 2.507812-9.34375 6.332031l-12 30.078125c-.476562 1.1875-.71875 2.453125-.71875 3.730469v124.726563c0 2.671874 1.058594 5.230468 2.945313 7.117187l9.957031 9.953125v46.320312c0 2.667969 1.058594 5.226563 2.945313 7.113282l12.230468 12.230468c6.339844 6.339844 17.175782 1.847657 17.175782-7.113281v-62.28125c0-13.398437 10.863281-24.261719 24.265624-24.261719h75.839844c13.398438 0 24.261719 10.863282 24.261719 24.261719v62.28125c0 8.960938 10.835937 13.453125 17.175781 7.113281l12.230469-12.230468c1.886719-1.886719 2.945313-4.445313 2.945313-7.113282v-46.320312l9.957031-9.953125c1.886719-1.886719 2.945312-4.445313 2.945312-7.117187v-124.726563c0-1.277344-.242187-2.542969-.71875-3.730469l-11.996093-30.078125c-1.527344-3.824219-5.226563-6.332031-9.34375-6.332031zm0 0" fill="#fa0"/><path d="m258.835938 40.136719v124.734375c0 2.667968-1.058594 5.226562-2.945313 7.109375l-9.953125 9.957031v46.324219c0 2.664062-1.066406 5.21875-2.949219 7.113281l-12.234375 12.222656c-5.324218 5.324219-13.816406 3.019532-16.390625-3.167968l9.054688-9.054688c1.890625-1.890625 2.949219-4.449219 2.949219-7.117188v-42.050781c0-2.734375 1.085937-5.355469 3.019531-7.289062l6.941406-6.933594c1.882813-1.890625 2.949219-4.445313 2.949219-7.113281v-124.734375c0-1.277344-.253906-2.535157-.726563-3.722657l-11.992187-30.085937c-.039063-.101563-.082032-.199219-.132813-.292969 1.550781-3.550781 5.09375-6.035156 9.21875-6.035156h1.125c4.117188 0 7.816407 2.503906 9.347657 6.328125l12.003906 30.085937c.472656 1.1875.714844 2.445313.714844 3.722657zm0 0" fill="#ff8b00"/><path d="m221.601562 143.011719h-12.679687c-4.269531 0-7.726563-3.457031-7.726563-7.726563 0-4.265625 3.457032-7.726562 7.726563-7.726562h12.679687c4.269532 0 7.726563 3.460937 7.726563 7.726562 0 4.269532-3.457031 7.726563-7.726563 7.726563zm0 0" fill="#ff8b00"/><path d="m221.601562 124.078125h-12.679687c-4.269531 0-7.726563-3.460937-7.726563-7.726563 0-4.269531 3.457032-7.726562 7.726563-7.726562h12.679687c4.269532 0 7.726563 3.460938 7.726563 7.726562 0 4.265626-3.457031 7.726563-7.726563 7.726563zm0 0" fill="#b1de54"/><path d="m221.601562 105.144531h-12.679687c-4.269531 0-7.726563-3.460937-7.726563-7.726562 0-4.269531 3.457032-7.726563 7.726563-7.726563h12.679687c4.269532 0 7.726563 3.457032 7.726563 7.726563 0 4.265625-3.457031 7.726562-7.726563 7.726562zm0 0" fill="#ff8b00"/><path d="m92.566406 143.011719h-12.679687c-4.269531 0-7.726563-3.457031-7.726563-7.726563 0-4.265625 3.457032-7.726562 7.726563-7.726562h12.679687c4.269532 0 7.726563 3.460937 7.726563 7.726562 0 4.269532-3.457031 7.726563-7.726563 7.726563zm0 0" fill="#ff8b00"/><path d="m92.566406 124.078125h-12.679687c-4.269531 0-7.726563-3.460937-7.726563-7.726563 0-4.269531 3.457032-7.726562 7.726563-7.726562h12.679687c4.269532 0 7.726563 3.460938 7.726563 7.726562 0 4.265626-3.457031 7.726563-7.726563 7.726563zm0 0" fill="#b1de54"/><path d="m92.566406 105.144531h-12.679687c-4.269531 0-7.726563-3.460937-7.726563-7.726562 0-4.269531 3.457032-7.726563 7.726563-7.726563h12.679687c4.269532 0 7.726563 3.457032 7.726563 7.726563 0 4.265625-3.457031 7.726562-7.726563 7.726562zm0 0" fill="#ff8b00"/><path d="m162.324219 62.609375 3.738281-3.738281c3.015625-3.019532 3.015625-7.910156 0-10.929688-3.019531-3.015625-7.910156-3.015625-10.929688 0l-3.734374 3.738282-3.738282-3.738282c-3.019531-3.015625-7.910156-3.015625-10.929687 0-3.015625 3.019532-3.015625 7.910156 0 10.929688l3.738281 3.738281-3.738281 3.734375c-3.015625 3.019531-3.015625 7.910156 0 10.929688 1.511719 1.507812 3.488281 2.261718 5.464843 2.261718 1.976563 0 3.957032-.753906 5.464844-2.261718l3.738282-3.738282 3.734374 3.738282c1.511719 1.507812 3.488282 2.261718 5.464844 2.261718 1.976563 0 3.957032-.753906 5.464844-2.261718 3.015625-3.019532 3.015625-7.910157 0-10.929688zm0 0" fill="#ff8b00"/><path d="m166.898438 110.171875c0 8.558594-6.941407 15.5-15.5 15.5-8.5625 0-15.503907-6.941406-15.503907-15.5 0-8.5625 6.941407-15.503906 15.503907-15.503906 8.558593 0 15.5 6.941406 15.5 15.503906zm0 0" fill="#b1de54"/></svg>