<?xml version="1.0" encoding="iso-8859-1"?>
<!-- Generator: Adobe Illustrator 19.0.0, SVG Export Plug-In . SVG Version: 6.00 Build 0)  -->
<svg version="1.1" id="Capa_1" xmlns="http://www.w3.org/2000/svg" xmlns:xlink="http://www.w3.org/1999/xlink" x="0px" y="0px"
	 viewBox="0 0 511.788 511.788" style="enable-background:new 0 0 511.788 511.788;" xml:space="preserve">
<path style="fill:#656D78;" d="M483.568,383.832h-31.984c8.84,0,15.992-7.161,15.992-15.992c0-8.832-7.152-15.992-15.992-15.992
	H419.6c8.839,0,15.992-7.161,15.992-15.992c0-8.832-7.153-15.993-15.992-15.993h-47.978c8.84,0,15.993-7.16,15.993-15.992
	c0-8.831-7.153-15.992-15.993-15.992h87.958c8.84,0,15.992-7.16,15.992-15.992s-7.153-15.993-15.992-15.993H419.6
	c8.839,0,15.992-7.161,15.992-15.992c0-8.832-7.153-15.992-15.992-15.992h-15.992c8.839,0,15.992-7.161,15.992-15.992
	c0-8.832-7.153-15.993-15.992-15.993h79.961c8.84,0,15.992-7.161,15.992-15.992s-7.152-15.993-15.992-15.993h-31.984
	c8.84,0,15.992-7.16,15.992-15.992s-7.152-15.992-15.992-15.992h-31.984c8.839,0,15.992-7.161,15.992-15.992
	c0-8.832-7.153-15.992-15.992-15.992h-23.988c8.839,0,15.992-7.161,15.992-15.993s-7.153-15.992-15.992-15.992H155.729
	c-8.832,0-15.992,7.161-15.992,15.992s7.161,15.993,15.992,15.993H99.756c-8.832,0-15.992,7.16-15.992,15.992
	s7.161,15.992,15.992,15.992H83.764c-8.832,0-15.992,7.161-15.992,15.992c0,8.832,7.16,15.992,15.992,15.992h47.977
	c-8.832,0-15.993,7.161-15.993,15.993s7.161,15.992,15.993,15.992H43.784c-8.832,0-15.993,7.161-15.993,15.993
	c0,8.831,7.161,15.992,15.993,15.992h39.98c-8.832,0-15.992,7.16-15.992,15.992s7.16,15.992,15.992,15.992h-39.98
	c-8.832,0-15.993,7.16-15.993,15.992s7.161,15.992,15.993,15.992H27.791c-8.832,0-15.992,7.161-15.992,15.992
	c0,8.832,7.161,15.992,15.992,15.992h39.981c-8.832,0-15.992,7.161-15.992,15.993c0,8.831,7.16,15.992,15.992,15.992H51.78
	c-8.832,0-15.993,7.16-15.993,15.992c0,8.831,7.161,15.992,15.993,15.992h79.961c-8.832,0-15.993,7.161-15.993,15.992
	c0,8.832,7.161,15.992,15.993,15.992H99.756c-8.832,0-15.992,7.161-15.992,15.993c0,8.831,7.161,15.992,15.992,15.992h271.865
	c8.84,0,15.993-7.161,15.993-15.992c0-8.832-7.153-15.993-15.993-15.993h111.946c8.84,0,15.992-7.16,15.992-15.992
	C499.56,390.994,492.408,383.832,483.568,383.832z"/>
<path style="fill:#FFD2A6;" d="M403.623,255.894c0,81.703-66.234,147.944-147.941,147.944s-147.945-66.241-147.945-147.944
	c0-81.707,66.238-147.944,147.945-147.944C337.388,107.95,403.623,174.187,403.623,255.894z"/>
<path style="fill:#AC92EC;" d="M387.615,443.804c0,4.419-3.585,7.996-7.996,7.996c-4.412,0-7.997-3.577-7.997-7.996
	c0-4.42,3.585-7.996,7.997-7.996C384.03,435.808,387.615,439.384,387.615,443.804z"/>
<g style="opacity:0.5;">
	<path style="fill:#FFFFFF;" d="M373.206,309.65c-7.473-18.405-28.463-27.269-46.859-19.819l-3.732,1.499l-1.484-3.693
		c-7.465-18.436-28.455-27.291-46.884-19.826c-18.401,7.465-27.287,28.439-19.807,46.86l1.495,3.709l32.875,81.602
		c0.266-0.062,0.523-0.141,0.789-0.203l37.677-14.446c23.028-12.768,42.183-31.547,55.591-54.153L373.206,309.65z"/>
</g>
<g style="opacity:0.2;">
	<circle cx="207.694" cy="191.924" r="19.99"/>
</g>
<g style="opacity:0.2;">
	<path d="M195.699,191.925c0-9.671,6.868-17.734,15.992-19.588c-1.292-0.262-2.628-0.402-3.998-0.402
		c-11.042,0-19.99,8.949-19.99,19.991s8.949,19.991,19.99,19.991c1.37,0,2.706-0.141,3.998-0.402
		C202.566,209.659,195.699,201.596,195.699,191.925z"/>
</g>
<g style="opacity:0.2;">
	<path d="M323.653,199.905c0,6.622-5.364,11.995-11.994,11.995s-11.994-5.373-11.994-11.995s5.364-11.994,11.994-11.994
		S323.653,193.284,323.653,199.905z"/>
</g>
<g style="opacity:0.2;">
	<path d="M307.661,199.905c0-5.212,3.35-9.609,7.996-11.26c-1.257-0.445-2.585-0.734-3.998-0.734
		c-6.63,0-11.994,5.373-11.994,11.994s5.364,11.995,11.994,11.995c1.413,0,2.741-0.289,3.998-0.734
		C311.01,209.514,307.661,205.118,307.661,199.905z"/>
</g>
<g style="opacity:0.2;">
	<path d="M179.706,291.876c0,4.42-3.577,7.996-7.996,7.996c-4.42,0-7.996-3.576-7.996-7.996s3.576-7.996,7.996-7.996
		S179.706,287.456,179.706,291.876z"/>
</g>
<g>
	<path style="fill:#3A3847;" d="M507.79,215.914c-2.201,0-4.029-1.789-4.029-3.998c0-2.21,1.75-3.998,3.951-3.998h0.078
		c2.218,0,3.998,1.788,3.998,3.998C511.789,214.125,510.008,215.914,507.79,215.914z"/>
	<path style="fill:#3A3847;" d="M451.818,303.871c-2.202,0-4.029-1.788-4.029-3.998c0-2.209,1.749-3.998,3.951-3.998h0.078
		c2.218,0,3.998,1.789,3.998,3.998S454.036,303.871,451.818,303.871z"/>
	<path style="fill:#3A3847;" d="M427.83,143.948c-2.202,0-4.029-1.788-4.029-3.998s1.749-3.998,3.951-3.998h0.078
		c2.217,0,3.998,1.788,3.998,3.998S430.046,143.948,427.83,143.948z"/>
	<path style="fill:#3A3847;" d="M76.002,183.929c-2.206,0-4.037-1.789-4.037-3.998c0-2.21,1.749-3.998,3.959-3.998h0.078
		c2.21,0,3.998,1.788,3.998,3.998C80,182.14,78.212,183.929,76.002,183.929z"/>
	<path style="fill:#3A3847;" d="M4.037,47.994C1.831,47.994,0,46.206,0,43.996c0-2.209,1.749-3.998,3.959-3.998h0.078
		c2.21,0,3.998,1.789,3.998,3.998C8.035,46.206,6.247,47.994,4.037,47.994z"/>
	<path style="fill:#3A3847;" d="M179.953,47.994c-2.206,0-4.037-1.788-4.037-3.998c0-2.209,1.749-3.998,3.959-3.998h0.078
		c2.209,0,3.998,1.789,3.998,3.998C183.951,46.206,182.162,47.994,179.953,47.994z"/>
	<path style="fill:#3A3847;" d="M283.898,8.013c-2.201,0-4.029-1.788-4.029-3.998s1.75-3.998,3.951-3.998h0.078
		c2.219,0,3.998,1.788,3.998,3.998S286.117,8.013,283.898,8.013z"/>
	<path style="fill:#3A3847;" d="M323.879,71.982c-2.202,0-4.029-1.788-4.029-3.998s1.749-3.998,3.951-3.998h0.078
		c2.218,0,3.998,1.788,3.998,3.998S326.097,71.982,323.879,71.982z"/>
	<path style="fill:#3A3847;" d="M483.802,479.787c-2.202,0-4.029-1.788-4.029-3.998s1.749-3.998,3.951-3.998h0.078
		c2.218,0,3.998,1.788,3.998,3.998S486.02,479.787,483.802,479.787z"/>
	<path style="fill:#3A3847;" d="M235.925,455.798c-2.206,0-4.037-1.789-4.037-3.998c0-2.21,1.749-3.998,3.959-3.998h0.078
		c2.21,0,3.998,1.788,3.998,3.998C239.923,454.009,238.135,455.798,235.925,455.798z"/>
	<path style="fill:#3A3847;" d="M339.872,511.771c-2.202,0-4.029-1.788-4.029-3.998s1.749-3.998,3.951-3.998h0.078
		c2.218,0,3.998,1.788,3.998,3.998S342.089,511.771,339.872,511.771z"/>
	<path style="fill:#3A3847;" d="M147.968,471.79c-2.206,0-4.037-1.788-4.037-3.998s1.749-3.998,3.959-3.998h0.078
		c2.209,0,3.998,1.788,3.998,3.998S150.177,471.79,147.968,471.79z"/>
	<path style="fill:#3A3847;" d="M28.025,271.886c-2.206,0-4.037-1.788-4.037-3.998s1.749-3.998,3.959-3.998h0.078
		c2.209,0,3.998,1.788,3.998,3.998S30.235,271.886,28.025,271.886z"/>
	<path style="fill:#3A3847;" d="M83.998,383.832c-2.206,0-4.037-1.788-4.037-3.998s1.749-3.998,3.959-3.998h0.078
		c2.21,0,3.998,1.788,3.998,3.998S86.208,383.832,83.998,383.832z"/>
	<path style="fill:#3A3847;" d="M467.576,71.982c-2.21,0-3.998-1.788-3.998-3.998V35.999c0-2.21,1.788-3.998,3.998-3.998
		s3.998,1.788,3.998,3.998v31.985C471.574,70.194,469.786,71.982,467.576,71.982z"/>
	<path style="fill:#3A3847;" d="M475.572,55.99H459.58c-2.21,0-3.998-1.789-3.998-3.998c0-2.21,1.788-3.999,3.998-3.999h15.992
		c2.21,0,3.998,1.789,3.998,3.999S477.782,55.99,475.572,55.99z"/>
	<path style="fill:#3A3847;" d="M99.752,103.967c-2.21,0-3.998-1.788-3.998-3.998V67.984c0-2.21,1.788-3.998,3.998-3.998
		s3.998,1.788,3.998,3.998v31.985C103.75,102.179,101.962,103.967,99.752,103.967z"/>
	<path style="fill:#3A3847;" d="M107.748,87.975H91.756c-2.21,0-3.998-1.789-3.998-3.998c0-2.21,1.788-3.999,3.998-3.999h15.992
		c2.21,0,3.998,1.789,3.998,3.999C111.747,86.186,109.958,87.975,107.748,87.975z"/>
	<path style="fill:#3A3847;" d="M43.78,487.783c-2.21,0-3.998-1.788-3.998-3.998v-31.984c0-2.21,1.788-3.998,3.998-3.998
		c2.209,0,3.998,1.788,3.998,3.998v31.984C47.778,485.995,45.989,487.783,43.78,487.783z"/>
	<path style="fill:#3A3847;" d="M51.776,471.79H35.783c-2.209,0-3.998-1.788-3.998-3.998s1.789-3.998,3.998-3.998h15.993
		c2.21,0,3.998,1.788,3.998,3.998S53.986,471.79,51.776,471.79z"/>
	<path style="fill:#3A3847;" d="M255.514,407.852c-74.121,0-137.024-53.106-149.573-126.267
		c-6.864-40.001,2.265-80.278,25.695-113.411c23.43-33.136,58.363-55.161,98.359-62.017c8.551-1.468,17.253-2.214,25.862-2.214
		c74.105,0,137.005,53.104,149.562,126.264c14.165,82.558-41.496,161.262-124.05,175.435
		C272.81,407.103,264.119,407.852,255.514,407.852z M255.857,111.94c-8.156,0-16.402,0.707-24.512,2.097
		c-37.892,6.497-70.981,27.362-93.182,58.753c-22.196,31.391-30.844,69.549-24.344,107.437
		c11.889,69.318,71.481,119.63,141.694,119.63c8.152,0,16.39-0.71,24.496-2.101c78.221-13.423,130.938-87.98,117.537-166.197
		C385.646,162.248,326.058,111.94,255.857,111.94z"/>
	<path style="fill:#3A3847;" d="M282.977,389.072c-1.577,0-3.077-0.944-3.701-2.498l-28.545-70.412
		c-4.014-9.886-3.932-20.756,0.227-30.594c4.158-9.832,11.896-17.453,21.79-21.459c9.901-4.025,20.771-3.939,30.61,0.219
		c9.839,4.154,17.46,11.9,21.474,21.81l0.031-0.008c20.396-8.285,43.761,1.593,52.054,22.013c0.827,2.046-0.156,4.381-2.202,5.209
		c-2.03,0.835-4.381-0.141-5.217-2.194c-6.621-16.336-25.3-24.207-41.651-17.616l-3.732,1.499c-2.054,0.819-4.373-0.172-5.201-2.21
		l-1.491-3.693c-3.209-7.926-9.316-14.119-17.18-17.445c-7.871-3.334-16.578-3.396-24.496-0.18
		c-7.902,3.21-14.098,9.309-17.425,17.172c-3.326,7.871-3.389,16.562-0.176,24.488l28.533,70.403
		c0.828,2.046-0.156,4.373-2.202,5.201C283.992,388.978,283.477,389.072,282.977,389.072z"/>
	<path style="fill:#3A3847;" d="M207.701,215.914c-13.228,0-23.988-10.761-23.988-23.989s10.76-23.989,23.988-23.989
		s23.988,10.761,23.988,23.989S220.929,215.914,207.701,215.914z M207.701,175.933c-8.82,0-15.992,7.172-15.992,15.992
		s7.172,15.993,15.992,15.993s15.992-7.173,15.992-15.993S216.521,175.933,207.701,175.933z"/>
	<path style="fill:#3A3847;" d="M311.666,215.898c-8.824,0-15.992-7.173-15.992-15.993s7.168-15.992,15.992-15.992
		c8.823,0,15.992,7.172,15.992,15.992S320.49,215.898,311.666,215.898z M311.666,191.909c-4.404,0-7.996,3.588-7.996,7.996
		s3.592,7.997,7.996,7.997s7.996-3.588,7.996-7.997C319.663,195.498,316.071,191.909,311.666,191.909z"/>
	<path style="fill:#3A3847;" d="M171.718,303.871c-6.614,0-11.995-5.38-11.995-11.994c0-6.613,5.38-11.994,11.995-11.994
		c6.614,0,11.994,5.381,11.994,11.994C183.712,298.491,178.332,303.871,171.718,303.871z M171.718,287.878
		c-2.206,0-3.998,1.797-3.998,3.998c0,2.202,1.792,3.998,3.998,3.998s3.998-1.796,3.998-3.998
		C175.716,289.675,173.924,287.878,171.718,287.878z"/>
	<path style="fill:#3A3847;" d="M379.619,455.798c-6.614,0-11.995-5.381-11.995-11.994c0-6.614,5.381-11.994,11.995-11.994
		c6.613,0,11.994,5.38,11.994,11.994C391.613,450.417,386.232,455.798,379.619,455.798z M379.619,439.806
		c-2.203,0-3.999,1.796-3.999,3.998c0,2.201,1.796,3.998,3.999,3.998c2.201,0,3.998-1.797,3.998-3.998
		C383.617,441.602,381.82,439.806,379.619,439.806z"/>
	<path style="fill:#3A3847;" d="M385.958,442.953c-1.796,0-3.42-1.211-3.881-3.029c-0.531-2.141,0.766-4.303,2.897-4.842
		c0.374-0.102,24.082-6.685,38.95-40.848c0.882-2.03,3.232-2.959,5.263-2.069c2.03,0.874,2.952,3.232,2.077,5.255
		c-16.594,38.107-43.214,45.135-44.338,45.416C386.599,442.914,386.271,442.953,385.958,442.953z"/>
</g>
<g>
</g>
<g>
</g>
<g>
</g>
<g>
</g>
<g>
</g>
<g>
</g>
<g>
</g>
<g>
</g>
<g>
</g>
<g>
</g>
<g>
</g>
<g>
</g>
<g>
</g>
<g>
</g>
<g>
</g>
</svg>
