<svg height="512pt" viewBox="0 -2 512 512" width="512pt" xmlns="http://www.w3.org/2000/svg"><path d="m3.222656 495.414062c-4.296875-4.296874-4.296875-11.261718 0-15.558593l245.800782-245.800781 15.554687 15.558593-245.800781 245.800781c-4.292969 4.292969-11.257813 4.292969-15.554688 0zm0 0" fill="#4159a5"/><path d="m354.566406 127.003906c-3.070312 0-6.117187.097656-9.144531.269532v84.253906c66.640625-3.945313 129.539063 35.105468 154.976563 97.847656 1.964843 4.84375 9.027343 4.03125 9.808593-1.140625 1.179688-7.761719 1.789063-15.710937 1.789063-23.804687 0-86.9375-70.488282-157.425782-157.429688-157.425782zm0 0" fill="#4159a5"/><path d="m512 284.429688c0 8.101562-.609375 16.054687-1.789062 23.820312-.785157 5.167969-7.847657 5.984375-9.808594 1.136719-25.433594-62.75-88.335938-101.804688-154.976563-97.859375v-38.960938c67.621094-1.289062 131.078125 34.257813 165.371094 92.339844.792969 6.398438 1.203125 12.910156 1.203125 19.523438zm0 0" fill="#8298d1"/><path d="m397.988281 366.640625v131.019531c0 5.6875-4.613281 10.300782-10.300781 10.300782h-268.578125c-5.6875 0-10.300781-4.613282-10.300781-10.300782v-131.019531c0-51.992187 42.144531-94.144531 94.136718-94.144531h100.90625c51.992188-.003906 94.136719 42.152344 94.136719 94.144531zm0 0" fill="#6c6c65"/><path d="m397.988281 366.632812v131.027344c0 5.691406-4.609375 10.300782-10.300781 10.300782h-42.628906v-141.320313c0-51.992187-42.144532-94.148437-94.136719-94.148437h52.929687c51.992188 0 94.136719 42.148437 94.136719 94.140624zm0 0" fill="#3d3d38"/><path d="m253.398438 432.554688c-2.835938 0-5.445313-1.554688-6.796876-4.050782l-73.40625-135.746094c-2.03125-3.753906-.632812-8.441406 3.121094-10.472656s8.441406-.632812 10.472656 3.121094l66.609376 123.179688 66.613281-123.179688c2.027343-3.75 6.714843-5.152344 10.46875-3.121094 3.753906 2.03125 5.152343 6.71875 3.121093 10.472656l-73.40625 135.746094c-1.347656 2.496094-3.957031 4.050782-6.796874 4.050782zm0 0" fill="#3d3d38"/><path d="m200.46875 272.5 52.929688 97.882812 52.933593-97.882812zm0 0" fill="#cecdba"/><path d="m169.105469 361.046875v146.914063h-15.453125v-146.914063c0-4.261719 3.460937-7.722656 7.726562-7.722656 4.265625-.003907 7.726563 3.460937 7.726563 7.722656zm0 0" fill="#3d3d38"/><path d="m405.929688 428.261719-243.269532-178.269531-26.851562 36.640624 257.941406 189.027344c6.804688 4.988282 16.390625.128906 16.390625-8.308594v-30.777343c0-3.285157-1.566406-6.371094-4.210937-8.3125zm0 0" fill="#bc6c35"/><path d="m269.269531 62.660156h-35.242187l14.832031-53.707031c.929687-3.371094 3.265625-6.179687 6.410156-7.707031 8.425781-4.097656 18.125 2.457031 17.472657 11.796875zm0 0" fill="#7aa50f"/><path d="m437.441406 168.457031c0-67.761719-35.710937-122.695312-79.769531-122.695312-44.054687 0-79.769531 54.933593-79.769531 122.695312s35.714844 122.695313 79.769531 122.695313c44.058594 0 79.769531-54.933594 79.769531-122.695313zm0 0" fill="#ff6900"/><path d="m372.453125 168.457031c0-67.761719-29.601563-122.695312-66.121094-122.695312s-66.125 54.933593-66.125 122.695312 29.605469 122.695313 66.125 122.695313 66.121094-54.933594 66.121094-122.695313zm0 0" fill="#ff8b00"/><path d="m228.898438 168.457031c0-67.761719-35.714844-122.695312-79.769532-122.695312-44.058594 0-79.773437 54.933593-79.773437 122.695312s35.714843 122.695313 79.773437 122.695313c44.054688 0 79.769532-54.933594 79.769532-122.695313zm0 0" fill="#ff6900"/><path d="m266.589844 168.457031c0-67.761719-29.601563-122.695312-66.121094-122.695312s-66.125 54.933593-66.125 122.695312 29.605469 122.695313 66.125 122.695313 66.121094-54.933594 66.121094-122.695313zm0 0" fill="#ff8b00"/><path d="m309.273438 168.457031c0-67.761719-25.015626-122.695312-55.875-122.695312-30.855469 0-55.875 54.933593-55.875 122.695312s25.019531 122.695313 55.875 122.695313c30.859374 0 55.875-54.933594 55.875-122.695313zm0 0" fill="#fa0"/><g fill="#af4d00"><path d="m360.152344 101.03125c6.199218-2.628906 13.152344 1.300781 14.21875 7.949219 3.796875 23.703125-8.832032 47.828125-31.921875 57.625-23.089844 9.796875-49.214844 2.113281-63.621094-17.089844-4.039063-5.386719-2.035156-13.117187 4.160156-15.746094zm0 0"/><path d="m146.644531 101.03125c-6.195312-2.628906-13.148437 1.300781-14.214843 7.949219-3.796876 23.703125 8.832031 47.828125 31.921874 57.625 23.089844 9.796875 49.214844 2.113281 63.621094-17.089844 4.039063-5.386719 2.035156-13.117187-4.164062-15.746094zm0 0"/><path d="m309.710938 249.992188c7.296874 0 12.242187-7.335938 9.617187-14.148438-7.757813-20.148438-27.296875-34.449219-50.183594-34.449219h-31.492187c-22.882813 0-42.425782 14.300781-50.183594 34.449219-2.625 6.8125 2.320312 14.148438 9.621094 14.148438zm0 0"/><path d="m316.296875 399.292969c-4.089844 0-7.5-3.207031-7.710937-7.335938-.214844-4.261719 3.066406-7.890625 7.328124-8.109375l.109376-.003906c4.285156-.222656 7.890624 3.066406 8.105468 7.328125s-3.0625 7.890625-7.324218 8.105469l-.113282.003906c-.132812.007812-.261718.011719-.394531.011719zm0 0"/><path d="m341.863281 418.085938c-4.089843 0-7.503906-3.210938-7.710937-7.339844-.214844-4.261719 3.066406-7.890625 7.328125-8.105469l.109375-.003906c4.296875-.222657 7.890625 3.066406 8.105468 7.324219.214844 4.261718-3.066406 7.890624-7.328124 8.109374l-.109376.003907c-.132812.007812-.265624.011719-.394531.011719zm0 0"/><path d="m367.429688 436.875c-4.089844 0-7.503907-3.207031-7.710938-7.335938-.214844-4.261718 3.0625-7.890624 7.328125-8.105468l.109375-.007813c4.289062-.203125 7.890625 3.066407 8.105469 7.328125.214843 4.261719-3.066407 7.890625-7.328125 8.105469l-.109375.007813c-.132813.007812-.265625.007812-.394531.007812zm0 0"/></g></svg>