<svg height="512pt" viewBox="-101 0 512 512.00018" width="512pt" xmlns="http://www.w3.org/2000/svg"><path d="m99.480469 50.027344c-.949219-19.179688-4.433594-33.191406-8.71875-43.335938-4.65625-11.035156-21.144531-7.613281-21.144531 4.359375v38.976563zm0 0" fill="#f22"/><path d="m211.445312 50.027344c.949219-19.179688 4.433594-33.191406 8.71875-43.335938 4.660157-11.035156 21.144532-7.613281 21.144532 4.359375v38.976563zm0 0" fill="#f22"/><path d="m301.511719 369.25v132.449219c0 5.6875-4.605469 10.300781-10.300781 10.300781h-271.492188c-5.699219 0-10.304688-4.613281-10.304688-10.300781v-132.449219c0-52.519531 42.566407-95.097656 95.085938-95.097656h101.925781c52.519531 0 95.085938 42.578125 95.085938 95.097656zm0 0" fill="#6c6c65"/><path d="m216.636719 512h-122.34375v-111.414062c0-11.113282 9.007812-20.125 20.125-20.125h82.09375c11.113281 0 20.125 9.011718 20.125 20.125zm0 0" fill="#f22"/><g fill="#5a5a52"><path d="m149.519531 380.460938h31.746094v131.539062h-31.746094zm0 0"/><path d="m301.511719 369.25v132.449219c0 5.6875-4.609375 10.300781-10.300781 10.300781h-42.796876v-142.75c0-52.523438-42.570312-95.09375-95.09375-95.09375h53.109376c52.511718 0 95.082031 42.570312 95.082031 95.09375zm0 0"/><path d="m70.238281 362.820312v149.179688h-15.453125v-149.179688c0-4.265624 3.460938-7.726562 7.726563-7.726562s7.726562 3.460938 7.726562 7.726562zm0 0"/></g><path d="m202.839844 274.15625v16.628906c0 21.816406-17.695313 39.511719-39.511719 39.511719h-15.730469c-21.816406 0-39.507812-17.695313-39.507812-39.511719v-16.628906h24.53125v-50.578125h45.683594v50.578125zm0 0" fill="#ffcfa1"/><path d="m178.304688 223.578125v38.421875c-7.40625 1.984375-15.050782 3.007812-22.839844 3.007812-7.792969 0-15.4375-1.023437-22.839844-3.007812v-38.421875zm0 0" fill="#ffb685"/><path d="m293.019531 148.910156c0 16.746094-13.578125 30.324219-30.324219 30.324219-16.75 0-30.328124-13.578125-30.328124-30.324219 0-16.75 13.578124-30.324218 30.328124-30.324218 16.746094 0 30.324219 13.574218 30.324219 30.324218zm0 0" fill="#ffcfa1"/><path d="m78.558594 148.910156c0 16.746094-13.578125 30.324219-30.324219 30.324219-16.75 0-30.328125-13.578125-30.328125-30.324219 0-16.75 13.578125-30.324218 30.328125-30.324218 16.746094 0 30.324219 13.574218 30.324219 30.324218zm0 0" fill="#ffcfa1"/><path d="m63.929688 358.417969h-58.714844c-2.878906 0-5.214844-2.335938-5.214844-5.214844v-83.40625c0-15.859375 12.855469-28.710937 28.714844-28.710937h11.71875c15.855468 0 28.710937 12.851562 28.710937 28.710937v83.40625c0 2.878906-2.332031 5.214844-5.214843 5.214844zm0 0" fill="#ff4e61"/><path d="m305.710938 358.417969h-58.714844c-2.878906 0-5.214844-2.335938-5.214844-5.214844v-83.40625c0-15.859375 12.855469-28.710937 28.710938-28.710937h11.722656c15.855468 0 28.710937 12.851562 28.710937 28.710937v83.40625c.003907 2.878906-2.332031 5.214844-5.214843 5.214844zm0 0" fill="#ff4e61"/><path d="m310.929688 269.792969v83.414062c0 2.875-2.339844 5.214844-5.214844 5.214844h-34.574219c2.875 0 5.214844-2.339844 5.214844-5.214844v-83.414062c0-11.792969-7.121094-21.933594-17.285157-26.339844 3.5-1.527344 7.363282-2.371094 11.421876-2.371094h11.726562c15.851562 0 28.710938 12.859375 28.710938 28.710938zm0 0" fill="#f22"/><path d="m248.789062 63.972656v70.363282c0 65.25-41.785156 118.140624-93.324218 118.140624-51.539063 0-93.324219-52.890624-93.324219-118.140624v-70.363282c0-16.304687 13.207031-29.523437 29.515625-29.523437h2.027344c3.976562 0 7.574218-1.605469 10.1875-4.222657 2.597656-2.597656 4.214844-6.203124 4.214844-10.179687 0-8.632813 7.003906-15.636719 15.636718-15.636719h63.480469c4.316406 0 8.230469 1.75 11.054687 4.582032 2.832032 2.835937 4.585938 6.738281 4.585938 11.054687 0 7.953125 6.449219 14.402344 14.398438 14.402344h2.03125c16.296874 0 29.515624 13.21875 29.515624 29.523437zm0 0" fill="#ff4e61"/><path d="m183.566406 4.410156v53.804688c0 1.9375-.730468 3.8125-2.058594 5.246094l-20.367187 22.042968c-1.464844 1.578125-3.523437 2.484375-5.675781 2.484375s-4.214844-.90625-5.675782-2.484375l-20.378906-22.042968c-1.316406-1.433594-2.050781-3.308594-2.050781-5.246094v-53.804688h15.453125v50.777344l12.652344 13.691406 12.648437-13.691406v-50.777344zm0 0" fill="#5a5a52"/><path d="m182.898438 106.394531-17.824219 17.824219c-5.464844 5.464844-14.320313 5.464844-19.785157 0l-17.828124-17.824219c-2.066407-2.066406-4.867188-3.226562-7.792969-3.226562h-17.476563c-6.089844 0-11.023437 4.933593-11.023437 11.019531v8.585938c0 96.492187 64.011719 103.015624 64.011719 103.015624s64.015624-6.523437 64.015624-103.015624v-8.585938c0-6.085938-4.9375-11.019531-11.023437-11.019531h-17.476563c-2.925781-.003907-5.726562 1.160156-7.796874 3.226562zm0 0" fill="#b0e8ff"/><path d="m219.191406 114.1875v8.585938c0 96.488281-64.011718 103.011718-64.011718 103.011718s-5.996094-.605468-14.332032-4.230468c18.871094-8.203126 49.6875-31.832032 49.6875-98.78125v-8.585938c0-4.042969-2.179687-7.582031-5.433594-9.488281 1.675782-1.003907 3.605469-1.53125 5.589844-1.53125h17.480469c6.082031 0 11.019531 4.9375 11.019531 11.019531zm0 0" fill="#81caef"/><path d="m121.199219 147.199219c-4.265625 0-7.726563-3.457031-7.726563-7.726563v-.984375c0-4.265625 3.460938-7.722656 7.726563-7.722656 4.269531 0 7.726562 3.457031 7.726562 7.722656v.984375c0 4.269532-3.457031 7.726563-7.726562 7.726563zm0 0" fill="#006df0"/><path d="m189.726562 147.199219c-4.265624 0-7.726562-3.457031-7.726562-7.726563v-.984375c0-4.265625 3.460938-7.722656 7.726562-7.722656 4.265626 0 7.726563 3.457031 7.726563 7.722656v.984375c0 4.269532-3.460937 7.726563-7.726563 7.726563zm0 0" fill="#006df0"/><path d="m219.851562 68.777344h-7.746093c-4.269531 0-7.726563-3.457032-7.726563-7.726563 0-4.265625 3.460938-7.722656 7.726563-7.722656h7.746093c4.265626 0 7.726563 3.457031 7.726563 7.722656 0 4.269531-3.460937 7.726563-7.726563 7.726563zm0 0" fill="#b0e8ff"/><path d="m98.820312 68.777344h-7.746093c-4.265625 0-7.722657-3.457032-7.722657-7.726563 0-4.265625 3.457032-7.722656 7.722657-7.722656h7.746093c4.269532 0 7.726563 3.457031 7.726563 7.722656 0 4.269531-3.457031 7.726563-7.726563 7.726563zm0 0" fill="#b0e8ff"/></svg>