<svg height="512pt" viewBox="-101 0 512 512" width="512pt" xmlns="http://www.w3.org/2000/svg"><path d="m310.3125 360.347656v141.351563c0 5.6875-4.613281 10.300781-10.300781 10.300781h-289.707031c-5.6875 0-10.304688-4.613281-10.304688-10.300781v-141.351563c0-55.796875 45.226562-101.019531 101.019531-101.019531h108.273438c55.796875 0 101.019531 45.222656 101.019531 101.019531zm0 0" fill="#5a5a52"/><path d="m220.90625 394.273438h-131.496094c-6.703125 0-12.132812-5.429688-12.132812-12.132813 0-6.699219 5.429687-12.132813 12.132812-12.132813h131.496094c6.699219 0 12.132812 5.433594 12.132812 12.132813 0 6.703125-5.433593 12.132813-12.132812 12.132813zm0 0" fill="#f5f6e3"/><path d="m220.90625 441.003906h-131.496094c-6.703125 0-12.132812-5.433594-12.132812-12.132812 0-6.699219 5.429687-12.132813 12.132812-12.132813h131.496094c6.699219 0 12.132812 5.433594 12.132812 12.132813 0 6.699218-5.433593 12.132812-12.132812 12.132812zm0 0" fill="#f5f6e3"/><path d="m220.90625 487.734375h-131.496094c-6.703125 0-12.132812-5.433594-12.132812-12.132813 0-6.703124 5.429687-12.132812 12.132812-12.132812h131.496094c6.699219 0 12.132812 5.429688 12.132812 12.132812 0 6.699219-5.433593 12.132813-12.132812 12.132813zm0 0" fill="#f5f6e3"/><path d="m167.175781 512h-24.039062v-156.964844c0-6.640625 5.382812-12.019531 12.019531-12.019531 6.640625 0 12.019531 5.378906 12.019531 12.019531zm0 0" fill="#e0e0d1"/><path d="m310.3125 360.351562v141.347657c0 5.6875-4.613281 10.300781-10.304688 10.300781h-46.105468v-151.648438c0-55.796874-45.222656-101.019531-101.019532-101.019531h56.417969c55.785157 0 101.011719 45.222657 101.011719 101.019531zm0 0" fill="#3d3d38"/><g fill="#f5f6e3"><path d="m283.242188 398.507812h27.070312v-19.230468h-27.070312c-5.308594 0-9.613282 4.304687-9.613282 9.617187 0 5.308594 4.304688 9.613281 9.613282 9.613281zm0 0"/><path d="m283.242188 438.484375h27.070312v-19.226563h-27.070312c-5.308594 0-9.613282 4.304688-9.613282 9.613282s4.304688 9.613281 9.613282 9.613281zm0 0"/><path d="m283.242188 478.464844h27.070312v-19.230469h-27.070312c-5.308594 0-9.613282 4.304687-9.613282 9.613281s4.304688 9.617188 9.613282 9.617188zm0 0"/><path d="m27.070312 398.507812h-27.070312v-19.230468h27.070312c5.3125 0 9.617188 4.304687 9.617188 9.617187 0 5.308594-4.304688 9.613281-9.617188 9.613281zm0 0"/><path d="m27.070312 438.484375h-27.070312v-19.226563h27.070312c5.3125 0 9.617188 4.304688 9.617188 9.613282s-4.304688 9.613281-9.617188 9.613281zm0 0"/><path d="m27.070312 478.464844h-27.070312v-19.230469h27.070312c5.3125 0 9.617188 4.304687 9.617188 9.613281s-4.304688 9.617188-9.617188 9.617188zm0 0"/></g><path d="m64.140625 353.527344v158.472656h-15.453125v-158.472656c0-4.265625 3.453125-7.726563 7.726562-7.726563 4.265626 0 7.726563 3.460938 7.726563 7.726563zm0 0" fill="#3d3d38"/><path d="m205.484375 259.332031v17.660157c0 23.179687-18.796875 41.976562-41.972656 41.976562h-16.710938c-23.175781 0-41.972656-18.796875-41.972656-41.976562v-17.660157h26.0625v-53.734375h48.53125v53.734375zm0 0" fill="#f5f6e3"/><path d="m179.421875 205.597656v40.820313c-7.867187 2.105469-15.988281 3.195312-24.265625 3.195312s-16.398438-1.089843-24.265625-3.195312v-40.820313zm0 0" fill="#cecdba"/><path d="m301.285156 126.273438c0 17.792968-14.421875 32.214843-32.214844 32.214843-17.789062 0-32.214843-14.421875-32.214843-32.214843 0-17.789063 14.425781-32.214844 32.214843-32.214844 17.792969 0 32.214844 14.425781 32.214844 32.214844zm0 0" fill="#cecdba"/><path d="m73.457031 126.273438c0 17.792968-14.421875 32.214843-32.214843 32.214843-17.792969 0-32.214844-14.421875-32.214844-32.214843 0-17.789063 14.421875-32.214844 32.214844-32.214844 17.792968 0 32.214843 14.425781 32.214843 32.214844zm0 0" fill="#cecdba"/><path d="m155.160156 0c54.753906 0 99.140625 44.386719 99.140625 99.140625v11.65625c0 69.3125-44.390625 125.507813-99.144531 125.507813s-99.144531-56.195313-99.144531-125.507813v-11.65625c0-54.753906 44.386719-99.140625 99.140625-99.140625zm0 0" fill="#f5f6e3"/><path d="m133.300781 120.828125c0 15.898437-12.886719 28.785156-28.785156 28.785156-15.894531 0-28.78125-12.886719-28.78125-28.785156 0-15.894531 12.886719-28.78125 28.78125-28.78125 15.898437 0 28.785156 12.886719 28.785156 28.78125zm0 0" fill="#3d3d38"/><path d="m234.582031 120.828125c0 15.898437-12.886719 28.785156-28.785156 28.785156s-28.785156-12.886719-28.785156-28.785156c0-15.894531 12.886719-28.78125 28.785156-28.78125s28.785156 12.886719 28.785156 28.78125zm0 0" fill="#3d3d38"/><path d="m155.15625 209.160156c-14.25 0-26.578125-12.121094-29.316406-28.816406-.691406-4.210938 2.164062-8.183594 6.375-8.875 4.207031-.6875 8.183594 2.164062 8.875 6.375 1.507812 9.191406 7.421875 15.863281 14.066406 15.863281s12.5625-6.671875 14.070312-15.863281c.6875-4.210938 4.664063-7.0625 8.875-6.375 4.210938.691406 7.0625 4.664062 6.375 8.875-2.738281 16.695312-15.070312 28.816406-29.320312 28.816406zm0 0" fill="#3d3d38"/><path d="m110.054688 131.804688c-4.265626 0-7.726563-3.460938-7.726563-7.726563v-1.027344c0-4.269531 3.460937-7.726562 7.726563-7.726562 4.269531 0 7.726562 3.457031 7.726562 7.726562v1.027344c0 4.265625-3.457031 7.726563-7.726562 7.726563zm0 0" fill="#f5f6e3"/><path d="m200.257812 131.804688c-4.265624 0-7.726562-3.460938-7.726562-7.726563v-1.027344c0-4.269531 3.460938-7.726562 7.726562-7.726562 4.265626 0 7.726563 3.457031 7.726563 7.726562v1.027344c0 4.265625-3.460937 7.726563-7.726563 7.726563zm0 0" fill="#f5f6e3"/></svg>