<svg height="511pt" viewBox="-86 1 511 511.99998" width="511pt" xmlns="http://www.w3.org/2000/svg"><path d="m295.285156 164.632812v-38.980468c0-69.394532-56.257812-125.652344-125.652344-125.652344-69.398437 0-125.652343 56.257812-125.652343 125.652344v38.976562c0 43.628906-13.09375 85.917969-35.734375 123.210938-4.914063 8.097656-7.746094 17.601562-7.746094 27.769531 0 29.609375 24.003906 53.609375 53.609375 53.609375h231.046875c29.605469 0 53.609375-24 53.609375-53.609375 0-10.167969-2.832031-19.671875-7.746094-27.769531-22.640625-37.289063-35.734375-79.582032-35.734375-123.207032zm0 0" fill="#f22"/><path d="m169.636719 27.382812c55.058593 0 99.691406 44.632813 99.691406 99.695313v11.71875c0 69.695313-44.636719 126.203125-99.695313 126.203125-55.058593 0-99.695312-56.507812-99.695312-126.203125v-11.71875c0-55.0625 44.632812-99.695313 99.691406-99.695313zm0 0" fill="#c10000"/><path d="m305.96875 512h-272.675781c-4.851563 0-8.785157-3.933594-8.785157-8.785156v-134.605469c0-52.179687 42.304688-94.484375 94.484376-94.484375h101.277343c52.183594 0 94.484375 42.304688 94.484375 94.484375v134.605469c0 4.851562-3.933594 8.785156-8.785156 8.785156zm0 0" fill="#5a5a52"/><path d="m314.753906 368.617188v134.597656c0 4.851562-3.933594 8.785156-8.785156 8.785156h-43.976562v-143.382812c0-52.191407-42.296876-94.488282-94.488282-94.488282h52.769532c52.179687 0 94.480468 42.296875 94.480468 94.488282zm0 0" fill="#3d3d38"/><path d="m216.703125 274.128906v16.519532c0 21.679687-17.578125 39.257812-39.257813 39.257812h-15.628906c-21.675781 0-39.257812-17.578125-39.257812-39.257812v-16.519532h24.378906v-50.257812h45.390625v50.257812zm0 0" fill="#f5f6e3"/><path d="m192.328125 223.867188v38.179687c-7.359375 1.972656-14.953125 2.992187-22.695313 2.992187-7.742187 0-15.339843-1.019531-22.695312-2.992187v-38.179687zm0 0" fill="#cecdba"/><path d="m306.3125 149.675781c0 16.640625-13.492188 30.132813-30.132812 30.132813-16.640626 0-30.132813-13.492188-30.132813-30.132813s13.492187-30.132812 30.132813-30.132812c16.640624 0 30.132812 13.492187 30.132812 30.132812zm0 0" fill="#e0e0d1"/><path d="m93.214844 149.675781c0 16.640625-13.488282 30.132813-30.132813 30.132813-16.640625 0-30.128906-13.492188-30.128906-30.132813s13.488281-30.132812 30.128906-30.132812c16.644531 0 30.132813 13.492187 30.132813 30.132812zm0 0" fill="#e0e0d1"/><path d="m169.636719 31.566406c51.210937 0 92.730469 41.519532 92.730469 92.730469v10.902344c0 64.828125-41.523438 117.390625-92.734376 117.390625-51.210937 0-92.734374-52.5625-92.734374-117.390625v-10.902344c0-51.210937 41.519531-92.730469 92.730468-92.730469zm0 0" fill="#f5f6e3"/><g fill="#3d3d38"><path d="m169.632812 208.417969c-13.570312 0-25.304687-11.507813-27.90625-27.359375-.6875-4.207032 2.160157-8.171875 6.367188-8.863282 4.207031-.691406 8.171875 2.160157 8.859375 6.363282 1.371094 8.359375 6.703125 14.429687 12.679687 14.429687 5.972657 0 11.304688-6.070312 12.675782-14.429687.6875-4.203125 4.660156-7.050782 8.863281-6.363282 4.203125.691407 7.050781 4.65625 6.363281 8.863282-2.597656 15.851562-14.335937 27.359375-27.902344 27.359375zm0 0"/><path d="m149.65625 142.078125c0 14.527344-11.777344 26.304687-26.304688 26.304687-14.527343 0-26.304687-11.777343-26.304687-26.304687s11.777344-26.304687 26.304687-26.304687c14.527344 0 26.304688 11.777343 26.304688 26.304687zm0 0"/><path d="m242.214844 142.078125c0 14.527344-11.777344 26.304687-26.304688 26.304687s-26.304687-11.777343-26.304687-26.304687 11.777343-26.304687 26.304687-26.304687 26.304688 11.777343 26.304688 26.304687zm0 0"/></g><path d="m128.414062 152.761719c-4.261718 0-7.714843-3.453125-7.714843-7.714844v-.941406c0-4.261719 3.453125-7.714844 7.714843-7.714844 4.261719 0 7.714844 3.453125 7.714844 7.714844v.941406c0 4.261719-3.453125 7.714844-7.714844 7.714844zm0 0" fill="#f5f6e3"/><path d="m210.847656 152.761719c-4.257812 0-7.714844-3.453125-7.714844-7.714844v-.941406c0-4.261719 3.457032-7.714844 7.714844-7.714844 4.261719 0 7.714844 3.453125 7.714844 7.714844v.941406c0 4.261719-3.453125 7.714844-7.714844 7.714844zm0 0" fill="#f5f6e3"/><path d="m216.308594 198.441406c-4.261719 0-7.714844-3.453125-7.714844-7.714844v-.941406c0-4.261718 3.453125-7.714844 7.714844-7.714844 4.261718 0 7.714844 3.453126 7.714844 7.714844v.941406c0 4.257813-3.453126 7.714844-7.714844 7.714844zm0 0" fill="#cecdba"/><path d="m122.957031 198.441406c-4.261719 0-7.714843-3.453125-7.714843-7.714844v-.941406c0-4.261718 3.453124-7.714844 7.714843-7.714844 4.257813 0 7.714844 3.453126 7.714844 7.714844v.941406c0 4.257813-3.457031 7.714844-7.714844 7.714844zm0 0" fill="#cecdba"/><path d="m228.863281 405.941406h-118.464843c-6.035157 0-10.929688-4.894531-10.929688-10.933594 0-6.035156 4.894531-10.929687 10.929688-10.929687h118.464843c6.039063 0 10.933594 4.894531 10.933594 10.929687 0 6.039063-4.894531 10.933594-10.933594 10.933594zm0 0" fill="#f5f6e3"/><path d="m228.863281 448.039062h-118.464843c-6.035157 0-10.929688-4.894531-10.929688-10.929687 0-6.039063 4.894531-10.933594 10.929688-10.933594h118.464843c6.039063 0 10.933594 4.894531 10.933594 10.933594 0 6.035156-4.894531 10.929687-10.933594 10.929687zm0 0" fill="#f5f6e3"/><path d="m228.863281 490.136719h-118.464843c-6.035157 0-10.929688-4.894531-10.929688-10.929688 0-6.039062 4.894531-10.933593 10.929688-10.933593h118.464843c6.039063 0 10.933594 4.894531 10.933594 10.933593 0 6.035157-4.894531 10.929688-10.933594 10.929688zm0 0" fill="#f5f6e3"/><path d="m180.460938 512h-21.65625v-141.410156c0-5.980469 4.847656-10.828125 10.828124-10.828125 5.980469 0 10.828126 4.847656 10.828126 10.828125zm0 0" fill="#e0e0d1"/><path d="m230.191406 37.132812s-3.542968 64.964844-161.445312 64.964844l3.085937-25.023437c4.195313-44.421875 73.429688-60.515625 95.492188-60.515625zm0 0" fill="#f22"/></svg>