<svg height="512pt" viewBox="-92 0 512 512" width="512pt" xmlns="http://www.w3.org/2000/svg"><path d="m293.488281 349.417969v133.128906c0 5.6875-4.613281 10.300781-10.300781 10.300781h-272.886719c-5.6875 0-10.300781-4.613281-10.300781-10.300781v-133.128906c0-52.765625 42.773438-95.539063 95.539062-95.539063h102.410157c52.765625 0 95.539062 42.773438 95.539062 95.539063zm0 0" fill="#7aa50f"/><path d="m293.484375 349.425781v133.121094c0 5.6875-4.613281 10.300781-10.304687 10.300781h-43.042969v-143.421875c0-52.773437-42.773438-95.542969-95.542969-95.542969h53.355469c52.761719 0 95.535156 42.769532 95.535156 95.542969zm0 0" fill="#729309"/><path d="m61.078125 342.96875v149.878906h-15.449219v-149.878906c0-4.265625 3.460938-7.726562 7.722656-7.726562 4.265626 0 7.726563 3.460937 7.726563 7.726562zm0 0" fill="#729309"/><path d="m194.34375 253.882812v16.707032c0 21.917968-17.777344 39.695312-39.699219 39.695312h-15.800781c-21.921875 0-39.695312-17.777344-39.695312-39.695312v-16.707032h24.648437v-50.820312h45.898437v50.820312zm0 0" fill="#ffcfa1"/><path d="m169.691406 203.0625v38.605469c-7.4375 1.996093-15.121094 3.023437-22.949218 3.023437-7.828126 0-15.507813-1.027344-22.945313-3.023437v-38.605469zm0 0" fill="#ffb685"/><path d="m284.949219 128.042969c0 16.828125-13.640625 30.46875-30.46875 30.46875s-30.46875-13.640625-30.46875-30.46875c0-16.824219 13.640625-30.46875 30.46875-30.46875s30.46875 13.644531 30.46875 30.46875zm0 0" fill="#ffcfa1"/><path d="m69.476562 128.042969c0 16.828125-13.640624 30.46875-30.46875 30.46875-16.828124 0-30.46875-13.640625-30.46875-30.46875 0-16.824219 13.640626-30.46875 30.46875-30.46875 16.828126 0 30.46875 13.644531 30.46875 30.46875zm0 0" fill="#ffcfa1"/><path d="m146.746094 8.617188c51.785156 0 93.765625 41.980468 93.765625 93.765624v11.023438c0 65.550781-41.984375 118.699219-93.769531 118.699219-51.78125 0-93.765626-53.148438-93.765626-118.699219v-11.023438c0-51.785156 41.980469-93.765624 93.761719-93.765624zm0 0" fill="#f5f6e3"/><path d="m216.726562 124.992188c0 15.09375-12.234374 27.328124-27.328124 27.328124s-27.328126-12.234374-27.328126-27.328124 12.234376-27.328126 27.328126-27.328126 27.328124 12.234376 27.328124 27.328126zm0 0" fill="#6c6c65"/><path d="m131.417969 124.992188c0 15.09375-12.234375 27.328124-27.328125 27.328124s-27.328125-12.234374-27.328125-27.328124 12.234375-27.328126 27.328125-27.328126 27.328125 12.234376 27.328125 27.328126zm0 0" fill="#6c6c65"/><path d="m104.089844 133.691406c-4.265625 0-7.726563-3.457031-7.726563-7.726562v-.972656c0-4.269532 3.460938-7.726563 7.726563-7.726563s7.726562 3.460937 7.726562 7.726563v.972656c0 4.269531-3.460937 7.726562-7.726562 7.726562zm0 0" fill="#92c927"/><path d="m189.398438 133.691406c-4.265626 0-7.726563-3.457031-7.726563-7.726562v-.972656c0-4.269532 3.460937-7.726563 7.726563-7.726563 4.265624 0 7.726562 3.460937 7.726562 7.726563v.972656c0 4.269531-3.457031 7.726562-7.726562 7.726562zm0 0" fill="#92c927"/><g fill="#6c6c65"><path d="m131.417969 184.632812c-4.265625 0-7.726563-3.457031-7.726563-7.726562v-.875c0-4.269531 3.460938-7.726562 7.726563-7.726562 4.269531 0 7.726562 3.457031 7.726562 7.726562v.875c0 4.269531-3.457031 7.726562-7.726562 7.726562zm0 0"/><path d="m131.417969 209.851562c-4.265625 0-7.726563-3.460937-7.726563-7.726562v-.878906c0-4.265625 3.460938-7.726563 7.726563-7.726563 4.269531 0 7.726562 3.460938 7.726562 7.726563v.878906c0 4.265625-3.457031 7.726562-7.726562 7.726562zm0 0"/><path d="m162.070312 184.632812c-4.265624 0-7.726562-3.457031-7.726562-7.726562v-.875c0-4.269531 3.460938-7.726562 7.726562-7.726562 4.265626 0 7.726563 3.457031 7.726563 7.726562v.875c0 4.269531-3.460937 7.726562-7.726563 7.726562zm0 0"/><path d="m162.070312 209.851562c-4.265624 0-7.726562-3.460937-7.726562-7.726562v-.878906c0-4.265625 3.460938-7.726563 7.726562-7.726563 4.265626 0 7.726563 3.460938 7.726563 7.726563v.878906c0 4.265625-3.460937 7.726562-7.726563 7.726562zm0 0"/><path d="m189.398438 193.769531c-4.265626 0-7.726563-3.460937-7.726563-7.726562v-.941407c0-4.265624 3.460937-7.726562 7.726563-7.726562 4.265624 0 7.726562 3.460938 7.726562 7.726562v.941407c0 4.265625-3.457031 7.726562-7.726562 7.726562zm0 0"/><path d="m104.089844 193.769531c-4.265625 0-7.726563-3.460937-7.726563-7.726562v-.941407c0-4.265624 3.460938-7.726562 7.726563-7.726562s7.726562 3.460938 7.726562 7.726562v.941407c0 4.265625-3.460937 7.726562-7.726562 7.726562zm0 0"/></g><path d="m146.742188 97.980469c-1.28125 0-2.5625-.320313-3.722657-.957031l-19.121093-10.519532c-3.738282-2.058594-5.101563-6.757812-3.042969-10.496094 2.054687-3.738281 6.753906-5.101562 10.492187-3.042968l15.394532 8.46875 15.398437-8.46875c3.738281-2.058594 8.4375-.695313 10.496094 3.042968 2.054687 3.738282.691406 8.4375-3.046875 10.496094l-19.121094 10.519532c-1.160156.636718-2.441406.957031-3.726562.957031zm0 0" fill="#f22"/><path d="m189.398438 52.574219c-4.265626 0-7.726563-3.457031-7.726563-7.726563v-.875c0-4.269531 3.460937-7.726562 7.726563-7.726562 4.265624 0 7.726562 3.457031 7.726562 7.726562v.875c0 4.269532-3.457031 7.726563-7.726562 7.726563zm0 0" fill="#6c6c65"/><path d="m189.398438 77.792969c-4.265626 0-7.726563-3.457031-7.726563-7.726563v-.875c0-4.269531 3.460937-7.726562 7.726563-7.726562 4.265624 0 7.726562 3.457031 7.726562 7.726562v.875c0 4.269532-3.457031 7.726563-7.726562 7.726563zm0 0" fill="#6c6c65"/><path d="m104.089844 52.574219c-4.265625 0-7.726563-3.457031-7.726563-7.726563v-.875c0-4.269531 3.460938-7.726562 7.726563-7.726562s7.726562 3.457031 7.726562 7.726562v.875c0 4.269532-3.460937 7.726563-7.726562 7.726563zm0 0" fill="#6c6c65"/><path d="m104.089844 77.792969c-4.265625 0-7.726563-3.457031-7.726563-7.726563v-.875c0-4.269531 3.460938-7.726562 7.726563-7.726562s7.726562 3.457031 7.726562 7.726562v.875c0 4.269532-3.460937 7.726563-7.726562 7.726563zm0 0" fill="#6c6c65"/><path d="m146.742188 43.972656c-9.511719 0-17.222657-7.710937-17.222657-17.222656v-15.675781c0-6.117188 4.960938-11.074219 11.074219-11.074219h12.300781c6.117188 0 11.074219 4.957031 11.074219 11.074219v15.675781c0 9.511719-7.710938 17.222656-17.226562 17.222656zm0 0" fill="#6c6c65"/><path d="m124.058594 247.511719h-25.277344c-4.0625 0-7.796875 2.480469-9.734375 6.46875l-10.222656 21.039062c-3.011719 6.203125-.777344 13.957031 4.910156 17.03125l63.117187 34.082031zm0 0" fill="#92c927"/><path d="m169.429688 247.511719h25.277343c4.0625 0 7.796875 2.480469 9.734375 6.46875l10.222656 21.039062c3.015626 6.203125.777344 13.957031-4.910156 17.03125l-63.113281 34.082031zm0 0" fill="#92c927"/><path d="m211.117188 382.878906h-34.371094c-4.269532 0-7.726563-3.457031-7.726563-7.726562 0-4.265625 3.460938-7.722656 7.726563-7.722656h34.371094c4.269531 0 7.726562 3.457031 7.726562 7.722656 0 4.269531-3.457031 7.726562-7.726562 7.726562zm0 0" fill="#92c927"/><path d="m211.117188 458.804688h-34.371094c-4.269532 0-7.726563-3.460938-7.726563-7.726563s3.460938-7.726563 7.726563-7.726563h34.371094c4.269531 0 7.726562 3.460938 7.726562 7.726563s-3.457031 7.726563-7.726562 7.726563zm0 0" fill="#92c927"/><path d="m116.742188 458.804688h-34.375c-4.265626 0-7.722657-3.460938-7.722657-7.726563s3.457031-7.726563 7.722657-7.726563h34.375c4.265624 0 7.726562 3.460938 7.726562 7.726563s-3.460938 7.726563-7.726562 7.726563zm0 0" fill="#92c927"/><path d="m116.742188 382.878906h-34.375c-4.265626 0-7.722657-3.457031-7.722657-7.726562 0-4.265625 3.457031-7.722656 7.722657-7.722656h34.375c4.265624 0 7.726562 3.457031 7.726562 7.722656 0 4.269531-3.460938 7.726562-7.726562 7.726562zm0 0" fill="#92c927"/><path d="m285.355469 384.347656h25.109375v73.855469h-25.109375zm0 0" fill="#d88850"/><path d="m301.96875 512h-18.269531c-9.269531 0-16.789063-7.515625-16.789063-16.789062v-46.828126c0-9.273437 7.519532-16.789062 16.789063-16.789062h18.269531c14.878906 0 26.941406 12.0625 26.941406 26.941406v26.523438c0 14.878906-12.0625 26.941406-26.941406 26.941406zm0 0" fill="#f5f6e3"/><path d="m317.835938 396.042969h-38.386719c-6.113281 0-11.070313-4.957031-11.070313-11.074219v-172.804688c0-6.117187 4.957032-11.074218 11.070313-11.074218 27.316406 0 49.460937 22.144531 49.460937 49.460937v134.417969c0 6.117188-4.957031 11.074219-11.074218 11.074219zm0 0" fill="#b0e8ff"/><path d="m328.914062 250.546875v134.425781c0 6.113282-4.960937 11.074219-11.074218 11.074219h-28.792969c6.113281 0 11.074219-4.960937 11.074219-11.074219v-134.425781c0-13.652344-5.535156-26.011719-14.484375-34.972656-4.273438-4.261719-9.3125-7.761719-14.90625-10.230469 2.027343-2.589844 5.171875-4.253906 8.714843-4.253906 13.667969 0 26.027344 5.539062 34.984376 14.484375 8.949218 8.960937 14.484374 21.320312 14.484374 34.972656zm0 0" fill="#81caef"/><path d="m154.757812 310.839844v175.070312h-15v-175.070312c0-4.140625 3.359376-7.5 7.5-7.5 4.148438 0 7.5 3.359375 7.5 7.5zm0 0" fill="#92c927"/></svg>