<svg height="512pt" viewBox="-99 0 512 512.00111" width="512pt" xmlns="http://www.w3.org/2000/svg"><path d="m272.777344 202.296875v-36.066406c0-64.214844-52.058594-116.269531-116.273438-116.269531s-116.269531 52.054687-116.269531 116.269531v36.066406c0 40.367187-12.117187 79.503906-33.066406 114.011719-4.546875 7.492187-7.167969 16.285156-7.167969 25.695312 0 27.398438 22.210938 49.605469 49.609375 49.605469h213.792969c27.398437 0 49.605468-22.207031 49.605468-49.605469 0-9.40625-2.617187-18.203125-7.167968-25.695312-20.949219-34.507813-33.0625-73.640625-33.0625-114.011719zm0 0" fill="#ffd02f"/><path d="m313.007812 342c0 27.394531-22.210937 49.617188-49.605468 49.617188h-213.792969c-13.695313 0-26.101563-5.5625-35.082031-14.539063-8.976563-8.976563-14.527344-21.375-14.527344-35.078125 0-9.402344 2.617188-18.195312 7.167969-25.691406 4.199219-6.90625 8.039062-14 11.488281-21.261719 8.484375 6.785156 19.246094 10.84375 30.953125 10.84375h213.792969c11.707031 0 22.464844-4.058594 30.949218-10.84375 3.449219 7.261719 7.289063 14.355469 11.492188 21.261719 2.273438 3.75 4.066406 7.828125 5.289062 12.128906 1.214844 4.316406 1.875 8.855469 1.875 13.5625zm0 0" fill="#fa0"/><path d="m292.941406 378.640625v123.058594c0 5.6875-4.613281 10.300781-10.300781 10.300781h-252.273437c-5.6875 0-10.300782-4.613281-10.300782-10.300781v-123.058594c0-12.96875 2.78125-25.28125 7.777344-36.382813 13.886719-30.917968 44.957031-52.449218 81.054688-52.449218h95.210937c36.097656 0 67.167969 21.53125 81.054687 52.449218 4.996094 11.105469 7.777344 23.414063 7.777344 36.382813zm0 0" fill="#7aa50f"/><path d="m77.394531 372.648438v139.351562h-15.453125v-139.351562c0-4.265626 3.464844-7.726563 7.726563-7.726563 4.265625 0 7.726562 3.460937 7.726562 7.726563zm0 0" fill="#729309"/><path d="m292.941406 481.609375v20.089844c0 5.6875-4.613281 10.300781-10.300781 10.300781h-252.273437c-5.6875 0-10.300782-4.613281-10.300782-10.300781v-20.089844zm0 0" fill="#5a5a52"/><path d="m292.9375 378.640625v123.058594c0 5.6875-4.613281 10.300781-10.300781 10.300781h-39.300781v-133.351562c0-49.0625-39.765626-88.832032-88.832032-88.832032h49.613282c49.054687 0 88.820312 39.769532 88.820312 88.824219zm0 0" fill="#729309"/><path d="m20.066406 389.808594h272.875v44.246094h-272.875zm0 0" fill="#5a5a52"/><g fill="#3d3d38"><path d="m61.941406 389.808594h15.453125v44.246094h-15.453125zm0 0"/><path d="m61.941406 481.609375h15.453125v30.390625h-15.453125zm0 0"/><path d="m243.335938 389.808594h49.605468v44.253906h-49.605468zm0 0"/><path d="m282.636719 512h-39.300781v-30.382812h49.605468v20.078124c0 5.691407-4.613281 10.304688-10.304687 10.304688zm0 0"/></g><path d="m285.164062 342.253906h-257.324218c13.890625-30.910156 44.964844-52.441406 81.054687-52.441406h95.21875c36.089844 0 67.164063 21.53125 81.050781 52.441406zm0 0" fill="#ffcfa1"/><path d="m285.164062 342.253906h-49.605468c-13.898438-30.910156-44.964844-52.441406-81.050782-52.441406h49.605469c36.089844 0 67.164063 21.53125 81.050781 52.441406zm0 0" fill="#ffb685"/><path d="m135.167969 242.566406h42.667969v68.109375h-42.667969zm0 0" fill="#ffcfa1"/><path d="m177.839844 242.566406v35.894532c-6.917969 1.851562-14.058594 2.808593-21.335938 2.808593s-14.421875-.957031-21.335937-2.808593v-35.894532zm0 0" fill="#ffb685"/><path d="m285.003906 172.8125c0 15.648438-12.683594 28.328125-28.328125 28.328125s-28.328125-12.679687-28.328125-28.328125c0-15.644531 12.683594-28.328125 28.328125-28.328125s28.328125 12.683594 28.328125 28.328125zm0 0" fill="#ffb685"/><path d="m84.660156 172.8125c0 15.648438-12.683594 28.328125-28.328125 28.328125s-28.328125-12.679687-28.328125-28.328125c0-15.644531 12.683594-28.328125 28.328125-28.328125s28.328125 12.683594 28.328125 28.328125zm0 0" fill="#ffb685"/><path d="m243.6875 82.367188v76.835937c0 60.949219-39.035156 110.363281-87.183594 110.363281-48.148437 0-87.183594-49.414062-87.183594-110.363281v-76.835937zm0 0" fill="#ffcfa1"/><path d="m119.011719 198.589844c0 4.871094-3.949219 8.824218-8.824219 8.824218-4.871094 0-8.824219-3.953124-8.824219-8.824218 0-4.875 3.953125-8.824219 8.824219-8.824219 4.875 0 8.824219 3.949219 8.824219 8.824219zm0 0" fill="#ff8294"/><path d="m193.996094 198.589844c0-4.875 3.949218-8.824219 8.824218-8.824219 4.871094 0 8.820313 3.949219 8.820313 8.824219" fill="#ff8294"/><path d="m211.640625 198.589844c0 4.871094-3.949219 8.824218-8.824219 8.824218-4.871094 0-8.824218-3.949218-8.824218-8.824218" fill="#ff8294"/><path d="m156.503906 228.511719c-12.992187 0-24.21875-10.984375-26.699218-26.121094-.691407-4.207031 2.164062-8.183594 6.375-8.871094 4.210937-.691406 8.183593 2.164063 8.871093 6.375 1.230469 7.503907 6.15625 13.164063 11.453125 13.164063s10.21875-5.660156 11.449219-13.164063c.691406-4.210937 4.667969-7.070312 8.875-6.375 4.210937.6875 7.066406 4.664063 6.375 8.871094-2.480469 15.136719-13.710937 26.121094-26.699219 26.121094zm0 0" fill="#ffb685"/><path d="m116.84375 178.605469c-4.265625 0-7.726562-3.457031-7.726562-7.722657v-.90625c0-4.265624 3.460937-7.726562 7.726562-7.726562 4.269531 0 7.726562 3.460938 7.726562 7.726562v.90625c0 4.265626-3.457031 7.722657-7.726562 7.722657zm0 0" fill="#729309"/><path d="m135.804688 117.226562c0 32.382813 26.253906 58.636719 58.640624 58.636719h16.511719c6.371094 0 11.535157-5.164062 11.535157-11.535156v-47.101563zm0 0" fill="#fa0"/><path d="m301.679688 95.527344c0-16.585938-64.996094-30.03125-145.175782-30.03125-80.179687 0-145.179687 13.445312-145.179687 30.03125 0 16.589844 65 30.035156 145.179687 30.035156 80.179688 0 145.175782-13.445312 145.175782-30.035156zm0 0" fill="#bc6c35"/><path d="m301.679688 95.523438c0 3.296874-2.5625 6.46875-7.296876 9.421874-19.109374-11.964843-73.621093-20.601562-137.878906-20.601562-64.257812 0-118.769531 8.636719-137.878906 20.601562-4.734375-2.953124-7.300781-6.125-7.300781-9.421874 0-16.585938 65-30.023438 145.179687-30.023438 80.175782 0 145.175782 13.4375 145.175782 30.023438zm0 0" fill="#af4d00"/><path d="m228.351562 26.746094v51.914062c0 5.683594-4.613281 10.296875-10.296874 10.296875h-123.101563c-5.683594 0-10.296875-4.613281-10.296875-10.296875v-51.914062c0-.472656.019531-.945313.042969-1.421875.863281-17.089844 17.75-28.777344 34.296875-24.402344l22.886718 6.035156c9.585938 2.53125 19.65625 2.53125 29.242188 0l22.886719-6.035156c16.546875-4.375 33.433593 7.3125 34.300781 24.402344.019531.476562.039062.949219.039062 1.421875zm0 0" fill="#bc6c35"/><path d="m228.351562 58.625v20.035156c0 5.683594-4.613281 10.296875-10.296874 10.296875h-123.101563c-5.683594 0-10.296875-4.613281-10.296875-10.296875v-20.035156zm0 0" fill="#3d3d38"/></svg>