<svg height="512pt" viewBox="-71 0 512 512.001" width="512pt" xmlns="http://www.w3.org/2000/svg"><path d="m314.597656 385.265625v116.433594c0 5.6875-4.613281 10.300781-10.300781 10.300781h-238.714844c-5.691406 0-10.300781-4.613281-10.300781-10.300781v-116.433594c0-23.671875 9.746094-45.070313 25.433594-60.386719 15.207031-14.875 36.027344-24.035156 58.980468-24.035156h90.488282c22.953125 0 43.773437 9.160156 58.980468 24.035156 15.6875 15.316406 25.433594 36.714844 25.433594 60.386719zm0 0" fill="#5a5a52"/><path d="m289.164062 324.878906c-2.453124 2.957032-4.503906 6.28125-6.027343 9.890625-9.078125 21.375-28.722657 35.960938-51.355469 38.773438-6.933594 19.75-25.425781 33.089843-46.839844 33.089843-21.417968 0-39.910156-13.339843-46.84375-33.089843-22.632812-2.8125-42.277344-17.398438-51.355468-38.773438-1.523438-3.609375-3.574219-6.933593-6.027344-9.890625 15.207031-14.875 36.027344-24.035156 58.980468-24.035156h90.488282c22.953125 0 43.773437 9.160156 58.980468 24.035156zm0 0" fill="#3d3d38"/><path d="m314.601562 385.261719v116.4375c0 5.691406-4.613281 10.300781-10.304687 10.300781h-36.835937v-126.730469c0-46.628906-37.792969-84.421875-84.421876-84.421875h47.148438c46.621094 0 84.414062 37.792969 84.414062 84.414063zm0 0" fill="#3d3d38"/><path d="m110.148438 379.558594v132.441406h-15.453126v-132.441406c0-4.261719 3.453126-7.722656 7.726563-7.722656 4.265625-.003907 7.726563 3.460937 7.726563 7.722656zm0 0" fill="#3d3d38"/><path d="m343.113281 153.71875c-22.5625-21.582031-40.046875-48.035156-50.457031-77.472656-15.460938-43.714844-57.066406-76.246094-107.714844-76.246094-50.652344 0-92.257812 32.53125-107.71875 76.246094-10.410156 29.4375-27.894531 55.890625-50.457031 77.472656-16.492187 15.777344-26.765625 38.003906-26.765625 62.632812 0 40.101563 27.222656 73.84375 64.195312 83.757813 15.296876 4.101563 27.734376 15.242187 33.925782 29.820313 8.175781 19.253906 27.066406 31.757812 47.984375 31.757812h77.671875c20.917968 0 39.808594-12.503906 47.984375-31.757812 6.191406-14.578126 18.625-25.71875 33.921875-29.820313 36.976562-9.914063 64.195312-43.65625 64.195312-83.757813 0-24.628906-10.273437-46.855468-26.765625-62.632812zm0 0" fill="#6c6c65"/><path d="m301.066406 164.917969c-15.988281-14.09375-28.328125-31.949219-34.503906-52.351563-10.441406-34.476562-42.398438-60.609375-81.621094-60.609375-39.226562 0-71.183594 26.132813-81.625 60.609375-6.175781 20.402344-18.515625 38.257813-34.503906 52.351563-13.449219 11.855469-21.933594 29.210937-21.933594 48.550781 0 35.75 28.980469 64.730469 64.730469 64.730469 10.222656 0 19.082031 7.097656 21.308594 17.074219l15.574219 69.792968c3.8125 17.066406 18.957031 29.207032 36.445312 29.207032s32.636719-12.140626 36.445312-29.207032l15.578126-69.792968c2.226562-9.976563 11.082031-17.074219 21.308593-17.074219 35.746094 0 64.730469-28.980469 64.730469-64.730469 0-19.339844-8.484375-36.695312-21.933594-48.550781zm0 0" fill="#f5f6e3"/><path d="m323.003906 213.464844c0 17.875-7.253906 34.066406-18.964844 45.78125-10.796874 10.792968-25.382812 17.789062-41.597656 18.820312 6.683594-3.195312 12.730469-7.5 17.902344-12.671875 11.710938-11.710937 18.964844-27.898437 18.964844-45.769531 0-9.675781-2.121094-18.84375-5.921875-27.085938-3.800781-8.238281-9.292969-15.535156-16.019531-21.46875-15.988282-14.09375-28.320313-31.957031-34.5-52.351562-10.4375-34.480469-42.394532-60.609375-81.621094-60.609375-3.226563 0-6.398438.175781-9.511719.527344 10.136719-4.296875 21.335937-6.6875 33.203125-6.6875 39.230469 0 71.1875 26.136719 81.621094 60.617187 6.183594 20.398438 18.511718 38.25 34.5 52.355469 6.730468 5.921875 12.21875 13.226563 16.019531 21.457031 3.804687 8.242188 5.925781 17.410156 5.925781 27.085938zm0 0" fill="#e0e0d1"/><g fill="#3d3d38"><path d="m164.664062 145.675781c-3.199218 17.324219-8.148437 34.335938-16.492187 49.933594-7.460937 13.941406-19.246094 32.039063-37.714844 26.863281-15.960937-4.46875-22.394531-24.40625-12.074219-37.359375 2.90625-3.648437 25.414063-22.121093 38.023438-44.304687 2.828125-4.96875 5.496094-9.90625 11.582031-11.25 9.550781-2.109375 18.433594 6.492187 16.675781 16.117187zm0 0"/><path d="m205.214844 145.675781c3.199218 17.324219 8.148437 34.335938 16.492187 49.933594 7.460938 13.941406 19.246094 32.039063 37.714844 26.863281 15.960937-4.46875 22.394531-24.40625 12.074219-37.359375-2.90625-3.648437-25.414063-22.121093-38.023438-44.304687-2.824218-4.96875-5.496094-9.90625-11.582031-11.25-9.550781-2.109375-18.433594 6.492187-16.675781 16.117187zm0 0"/><path d="m208.632812 297.226562c0 27.308594-10.605468 72.4375-23.691406 72.4375-13.089844 0-23.695312-45.128906-23.695312-72.4375 0-27.308593 10.605468-26.460937 23.695312-26.460937 13.085938 0 23.691406-.847656 23.691406 26.460937zm0 0"/><path d="m178.449219 211.40625-9.953125 15.730469c-3.234375 5.113281.4375 11.785156 6.492187 11.785156h19.902344c6.054687 0 9.726563-6.671875 6.492187-11.785156l-9.953124-15.730469c-3.015626-4.761719-9.964844-4.761719-12.980469 0zm0 0"/></g></svg>