<svg height="511pt" viewBox="-101 0 511 511.99978" width="511pt" xmlns="http://www.w3.org/2000/svg"><path d="m267.347656 381.589844v120.109375c0 5.6875-4.613281 10.300781-10.300781 10.300781h-246.246094c-5.6875 0-10.300781-4.613281-10.300781-10.300781v-120.109375c0-47.976563 38.890625-86.867188 86.863281-86.867188h93.121094c47.972656 0 86.863281 38.890625 86.863281 86.867188zm0 0" fill="#ff8b00"/><path d="m267.347656 381.59375v120.105469c0 5.6875-4.613281 10.300781-10.300781 10.300781h-38.207031v-130.40625c0-47.984375-38.886719-86.871094-86.871094-86.871094h48.507812c47.976563 0 86.871094 38.890625 86.871094 86.871094zm0 0" fill="#ff6900"/><path d="m56.738281 375.714844v136.285156h-15.453125v-136.285156c0-4.261719 3.460938-7.722656 7.726563-7.722656s7.726562 3.460937 7.726562 7.722656zm0 0" fill="#ff6900"/><path d="m177.203125 294.722656v15.1875c0 19.929688-16.160156 36.09375-36.09375 36.09375h-14.367187c-19.933594 0-36.09375-16.160156-36.09375-36.09375v-15.1875h22.410156v-46.207031h41.734375v46.207031zm0 0" fill="#ffcfa1"/><path d="m154.792969 248.515625v35.097656c-6.765625 1.816407-13.75 2.75-20.867188 2.75-7.117187 0-14.101562-.933593-20.867187-2.75v-35.097656zm0 0" fill="#ffb685"/><path d="m259.589844 180.300781c0 15.300781-12.402344 27.703125-27.703125 27.703125s-27.703125-12.402344-27.703125-27.703125 12.402344-27.703125 27.703125-27.703125 27.703125 12.402344 27.703125 27.703125zm0 0" fill="#ffb685"/><path d="m63.667969 180.300781c0 15.300781-12.402344 27.703125-27.699219 27.703125-15.300781 0-27.703125-12.402344-27.703125-27.703125s12.402344-27.703125 27.703125-27.703125c15.296875 0 27.699219 12.402344 27.699219 27.703125zm0 0" fill="#ffb685"/><path d="m219.183594 91.851562v75.140626c0 59.605468-38.171875 107.925781-85.257813 107.925781-47.082031 0-85.257812-48.320313-85.257812-107.925781v-75.140626zm0 0" fill="#ffcfa1"/><path d="m133.925781 234.941406c-12.785156 0-23.839843-10.800781-26.28125-25.6875-.6875-4.210937 2.164063-8.183594 6.375-8.875 4.214844-.6875 8.183594 2.164063 8.875 6.375 1.191407 7.261719 5.933594 12.734375 11.03125 12.734375 5.097657 0 9.839844-5.472656 11.027344-12.734375.691406-4.210937 4.667969-7.0625 8.875-6.375 4.210937.691406 7.066406 4.664063 6.375 8.875-2.4375 14.886719-13.492187 25.6875-26.277344 25.6875zm0 0" fill="#ffb685"/><path d="m95.140625 186.140625c-4.265625 0-7.726563-3.460937-7.726563-7.726563v-.886718c0-4.265625 3.460938-7.726563 7.726563-7.726563 4.269531 0 7.726563 3.460938 7.726563 7.726563v.886718c0 4.265626-3.457032 7.726563-7.726563 7.726563zm0 0" fill="#7aa50f"/><path d="m172.710938 186.140625c-4.269532 0-7.726563-3.460937-7.726563-7.726563v-.886718c0-4.265625 3.457031-7.726563 7.726563-7.726563 4.265624 0 7.726562 3.460938 7.726562 7.726563v.886718c0 4.265626-3.460938 7.726563-7.726562 7.726563zm0 0" fill="#7aa50f"/><path d="m241.015625 120.808594c0 2.78125-1.121094 5.296875-2.945313 7.117187-1.824218 1.824219-4.335937 2.945313-7.117187 2.945313h-193.550781c-5.5625 0-10.066406-4.5-10.066406-10.0625 0-7.078125.785156-13.980469 2.277343-20.605469 1.195313-5.335937 2.84375-10.507813 4.914063-15.453125 2.058594-4.933594 4.535156-9.652344 7.375-14.113281 3.535156-5.582031 7.667968-10.765625 12.28125-15.453125.183594-.195313.382812-.390625.578125-.585938 15.308593-15.320312 35.878906-25.34375 58.78125-27.144531 2.453125-.183594 4.933593-.289063 7.4375-.289063h26.394531c49.273438 0 89.65625 38.054688 93.363281 86.382813.1875 2.390625.277344 4.820313.277344 7.261719zm0 0" fill="#ff8b00"/><path d="m240.738281 113.546875c-6.632812-.585937-13.144531-2.546875-19.015625-5.757813-8.027344-4.378906-14.527344-10.796874-18.9375-18.574218-.875.050781-1.738281.070312-2.617187.070312-8.074219 0-16.109375-2.050781-23.230469-5.945312-8.023438-4.375-14.511719-10.792969-18.921875-18.570313-.875.050781-1.75.070313-2.628906.070313-8.074219 0-16.101563-2.050782-23.21875-5.945313l-.484375-.257812c-11.546875-6.480469-18.273438-18.203125-18.140625-31.183594 2.453125-.183594 4.933593-.289063 7.4375-.289063h26.394531c49.273438 0 89.65625 38.058594 93.363281 86.382813zm0 0" fill="#ff6900"/><path d="m241.015625 120.808594c0 2.78125-1.121094 5.296875-2.945313 7.117187-1.824218 1.824219-4.335937 2.945313-7.117187 2.945313h-39.035156c2.773437 0 5.296875-1.121094 7.121093-2.945313 1.8125-1.820312 2.945313-4.335937 2.945313-7.117187 0-49.59375-38.558594-90.183594-87.328125-93.425782 2.089844-.144531 4.203125-.21875 6.324219-.21875h26.394531c51.714844 0 93.640625 41.929688 93.640625 93.644532zm0 0" fill="#ff6900"/><path d="m242.273438 16.917969c-32.71875-17.867188-68.953126-21.15625-99.570313-11.875-19.726563 5.984375-22.957031 32.71875-4.976563 42.804687.121094.066406.242188.132813.367188.203125 8.734375 4.769531 18.566406 5.550781 27.429688 2.984375 2.632812 8.84375 8.609374 16.691406 17.34375 21.460938 8.738281 4.769531 18.570312 5.550781 27.429687 2.988281 2.636719 8.839844 8.609375 16.6875 17.347656 21.457031 8.734375 4.769532 18.566407 5.550782 27.429688 2.988282 2.632812 8.839843 8.605469 16.6875 17.34375 21.457031 9.761719 5.328125 20.894531 5.703125 30.507812 1.96875 4.476563-1.742188 7.207031-6.367188 6.6875-11.144531-4.027343-37.269532-28.316406-73.988282-67.339843-95.292969zm0 0" fill="#b1de54"/><g fill="#ff6900"><path d="m94.308594 433.191406c0 4.265625-3.460938 7.726563-7.726563 7.726563h-86.082031v-15.453125h86.082031c4.265625 0 7.726563 3.460937 7.726563 7.726562zm0 0"/><path d="m76.796875 488.304688h-27.785156c-4.269531 0-7.726563-3.457032-7.726563-7.726563 0-4.265625 3.457032-7.722656 7.726563-7.722656h27.785156c4.265625 0 7.726563 3.457031 7.726563 7.722656 0 4.269531-3.460938 7.726563-7.726563 7.726563zm0 0"/><path d="m224.914062 411.085938h-57.988281c-4.265625 0-7.726562-3.457032-7.726562-7.726563 0-4.265625 3.460937-7.722656 7.726562-7.722656h57.988281c4.265626 0 7.726563 3.457031 7.726563 7.722656 0 4.269531-3.460937 7.726563-7.726563 7.726563zm0 0"/><path d="m267.347656 472.851562v15.453126h-83.703125c-4.261719 0-7.726562-3.460938-7.726562-7.726563 0-4.261719 3.464843-7.722656 7.726562-7.722656h83.703125zm0 0"/></g><path d="m86.582031 383.890625c-4.265625 0-7.726562-3.460937-7.726562-7.726563v-.882812c0-4.269531 3.460937-7.726562 7.726562-7.726562 4.269531 0 7.726563 3.457031 7.726563 7.726562v.882812c0 4.269532-3.457032 7.726563-7.726563 7.726563zm0 0" fill="#fa0"/><path d="m110.765625 394.414062c-4.269531 0-7.726563-3.460937-7.726563-7.726562v-.882812c0-4.269532 3.457032-7.726563 7.726563-7.726563 4.265625 0 7.726563 3.457031 7.726563 7.726563v.882812c0 4.269531-3.460938 7.726562-7.726563 7.726562zm0 0" fill="#fa0"/><path d="m174.394531 110.84375c-4.265625 0-7.726562-3.457031-7.726562-7.726562v-.882813c0-4.269531 3.460937-7.726563 7.726562-7.726563 4.269531 0 7.726563 3.457032 7.726563 7.726563v.882813c0 4.269531-3.457032 7.726562-7.726563 7.726562zm0 0" fill="#fa0"/><path d="m94.308594 92.480469c0 4.261719-3.460938 7.722656-7.726563 7.722656h-56.96875c1.195313-5.335937 2.84375-10.507813 4.914063-15.453125h52.054687c4.265625.003906 7.726563 3.464844 7.726563 7.730469zm0 0" fill="#ff6900"/><path d="m80.628906 62.914062c0 4.265626-3.453125 7.726563-7.726562 7.726563h-31c3.535156-5.585937 7.667968-10.765625 12.28125-15.453125h18.71875c4.273437 0 7.726562 3.460938 7.726562 7.726562zm0 0" fill="#ff6900"/></svg>