<svg height="512pt" viewBox="-67 0 511 512" width="512pt" xmlns="http://www.w3.org/2000/svg"><path d="m378.148438 224.28125c0 44.152344-35.792969 79.945312-79.941407 79.945312-44.152343 0-79.941406-35.792968-79.941406-79.945312 0-44.148438 35.789063-79.941406 79.941406-79.941406 44.148438 0 79.941407 35.792968 79.941407 79.941406zm0 0" fill="#7aa50f"/><path d="m160.382812 224.28125c0 44.152344-35.789062 79.945312-79.941406 79.945312-44.148437 0-79.941406-35.792968-79.941406-79.945312 0-44.148438 35.792969-79.941406 79.941406-79.941406 44.152344 0 79.941406 35.792968 79.941406 79.941406zm0 0" fill="#7aa50f"/><path d="m288.121094 257.535156c0 54.5625-44.234375 98.792969-98.796875 98.792969s-98.796875-44.230469-98.796875-98.792969c0-54.566406 44.234375-98.796875 98.796875-98.796875s98.796875 44.230469 98.796875 98.796875zm0 0" fill="#b1de54"/><path d="m317.636719 512h-256.625v-125.414062c0-46.140626 37.402343-83.542969 83.539062-83.542969h89.546875c46.136719 0 83.539063 37.402343 83.539063 83.542969zm0 0" fill="#7aa50f"/><path d="m230.945312 303.046875v14.605469c0 19.167968-15.542968 34.710937-34.710937 34.710937h-13.820313c-19.167968 0-34.710937-15.542969-34.710937-34.710937v-14.605469h21.554687v-44.4375h40.132813v44.4375zm0 0" fill="#ffcfa1"/><g fill="#ffb685"><path d="m209.390625 258.605469v33.757812c-6.503906 1.742188-13.222656 2.644531-20.066406 2.644531s-13.5625-.898437-20.066407-2.644531v-33.757812zm0 0"/><path d="m310.171875 193.007812c0 14.714844-11.925781 26.640626-26.640625 26.640626s-26.640625-11.925782-26.640625-26.640626c0-14.714843 11.925781-26.640624 26.640625-26.640624s26.640625 11.925781 26.640625 26.640624zm0 0"/><path d="m121.757812 193.007812c0 14.714844-11.925781 26.640626-26.640624 26.640626-14.714844 0-26.640626-11.925782-26.640626-26.640626 0-14.714843 11.925782-26.640624 26.640626-26.640624 14.714843 0 26.640624 11.925781 26.640624 26.640624zm0 0"/></g><path d="m271.316406 107.945312v72.265626c0 57.316406-36.710937 103.789062-81.992187 103.789062s-81.992188-46.472656-81.992188-103.792969v-72.261719zm0 0" fill="#ffcfa1"/><path d="m189.324219 245.851562c-12.441407 0-23.195313-10.496093-25.566407-24.953124-.6875-4.210938 2.164063-8.183594 6.375-8.875 4.214844-.691407 8.183594 2.164062 8.875 6.375 1.121094 6.839843 5.558594 12 10.316407 12 4.757812 0 9.195312-5.160157 10.316406-12 .6875-4.210938 4.671875-7.0625 8.875-6.375 4.210937.691406 7.0625 4.664062 6.375 8.875-2.371094 14.457031-13.125 24.953124-25.566406 24.953124zm0 0" fill="#ffb685"/><path d="m152.027344 198.917969c-4.269532 0-7.726563-3.460938-7.726563-7.726563v-.851562c0-4.269532 3.457031-7.726563 7.726563-7.726563 4.265625 0 7.726562 3.460938 7.726562 7.726563v.851562c0 4.265625-3.460937 7.726563-7.726562 7.726563zm0 0" fill="#7aa50f"/><path d="m226.621094 198.917969c-4.265625 0-7.726563-3.460938-7.726563-7.726563v-.851562c0-4.269532 3.460938-7.726563 7.726563-7.726563 4.269531 0 7.726562 3.460938 7.726562 7.726563v.851562c0 4.265625-3.457031 7.726563-7.726562 7.726563zm0 0" fill="#7aa50f"/><path d="m166.007812 121.578125c0 35.570313-28.835937 64.40625-64.410156 64.40625-35.570312 0-64.40625-28.835937-64.40625-64.40625s28.835938-64.40625 64.40625-64.40625c35.574219 0 64.410156 28.835937 64.410156 64.40625zm0 0" fill="#b1de54"/><path d="m341.457031 121.578125c0 35.570313-28.835937 64.40625-64.40625 64.40625-35.574219 0-64.410156-28.835937-64.410156-64.40625s28.835937-64.40625 64.410156-64.40625c35.570313 0 64.40625 28.835937 64.40625 64.40625zm0 0" fill="#b1de54"/><path d="m268.921875 79.597656c0 43.960938-35.636719 79.597656-79.597656 79.597656-43.960938 0-79.597657-35.636718-79.597657-79.597656 0-43.960937 35.636719-79.597656 79.597657-79.597656 43.960937 0 79.597656 35.636719 79.597656 79.597656zm0 0" fill="#d3ed91"/><path d="m122.621094 512h-40.054688v-212.402344c0-11.0625 8.964844-20.027344 20.027344-20.027344s20.027344 8.964844 20.027344 20.027344zm0 0" fill="#d3ed91"/><path d="m84.378906 512h-29.757812c-5.6875 0-10.300782-4.613281-10.300782-10.300781v-229.214844c0-11.0625 8.96875-20.027344 20.027344-20.027344 11.0625 0 20.03125 8.964844 20.03125 20.027344zm0 0" fill="#f5f6e3"/><path d="m256.023438 512h40.058593v-212.402344c0-11.0625-8.96875-20.027344-20.027343-20.027344-11.0625 0-20.027344 8.964844-20.027344 20.027344v212.402344zm0 0" fill="#d3ed91"/><path d="m294.269531 512h29.753907c5.691406 0 10.304687-4.613281 10.304687-10.300781v-229.214844c0-11.0625-8.96875-20.027344-20.027344-20.027344-11.0625 0-20.03125 8.964844-20.03125 20.027344zm0 0" fill="#f5f6e3"/><path d="m150.171875 512h40.058594v-80.710938c0-11.058593-8.96875-20.027343-20.027344-20.027343-11.0625 0-20.027344 8.96875-20.027344 20.027343v80.710938zm0 0" fill="#d3ed91"/><path d="m188.417969 512h40.058593v-107.824219c0-11.058593-8.96875-20.027343-20.03125-20.027343-11.058593 0-20.027343 8.96875-20.027343 20.027343zm0 0" fill="#f5f6e3"/><path d="m154.085938 219.613281c0 4.582031-3.714844 8.296875-8.296876 8.296875-4.578124 0-8.292968-3.714844-8.292968-8.296875 0-4.578125 3.714844-8.292969 8.292968-8.292969 4.582032 0 8.296876 3.714844 8.296876 8.292969zm0 0" fill="#ff8294"/><path d="m241.152344 219.613281c0 4.582031-3.714844 8.296875-8.292969 8.296875-4.582031 0-8.296875-3.714844-8.296875-8.296875 0-4.578125 3.714844-8.292969 8.296875-8.292969 4.578125 0 8.292969 3.714844 8.292969 8.292969zm0 0" fill="#ff8294"/></svg>