<svg height="512pt" viewBox="-102 0 512 512.001" width="512pt" xmlns="http://www.w3.org/2000/svg"><path d="m201.03125 291.96875c42.910156 0 75.765625-38.457031 68.746094-80.789062-4.210938-25.414063-6.453125-50.46875-6.453125-67.335938v-34.054688c0-60.636718-49.152344-109.789062-109.789063-109.789062-60.632812 0-109.789062 49.152344-109.789062 109.789062v34.054688c0 16.867188-2.242188 41.921875-6.453125 67.335938-7.019531 42.332031 25.835937 80.789062 68.746093 80.789062zm0 0" fill="#ffd02f"/><path d="m201.03125 291.96875h-94.992188c-42.910156 0-75.761718-38.457031-68.75-80.789062.910157-5.5 1.726563-10.988282 2.457032-16.378907 9 27.542969 34.964844 48.027344 66.292968 48.027344h94.992188c31.328125 0 57.292969-20.484375 66.292969-48.027344.730469 5.394531 1.546875 10.878907 2.457031 16.378907 7.011719 42.332031-25.839844 80.789062-68.75 80.789062zm0 0" fill="#fa0"/><path d="m291.972656 376.6875v125.011719c0 5.6875-4.617187 10.300781-10.304687 10.300781h-256.265625c-5.6875 0-10.304688-4.613281-10.304688-10.300781v-125.011719c0-13.15625 2.824219-25.652344 7.894532-36.921875 14.089843-31.359375 45.613281-53.210937 82.238281-53.210937h96.609375c36.621094 0 68.148437 21.851562 82.238281 53.210937 5.070313 11.269531 7.894531 23.765625 7.894531 36.921875zm0 0" fill="#5a5a52"/><path d="m72.800781 374.726562v137.273438h-15.453125v-137.273438c0-4.273437 3.460938-7.722656 7.726563-7.722656s7.726562 3.449219 7.726562 7.722656zm0 0" fill="#3d3d38"/><path d="m291.96875 376.683594v125.015625c0 5.6875-4.613281 10.300781-10.300781 10.300781h-40.027344v-135.304688c0-49.785156-40.351563-90.132812-90.136719-90.132812h50.339844c49.773438 0 90.125 40.347656 90.125 90.121094zm0 0" fill="#3d3d38"/><path d="m291.972656 481.796875v19.902344c0 5.6875-4.617187 10.300781-10.304687 10.300781h-256.265625c-5.6875 0-10.304688-4.613281-10.304688-10.300781v-19.902344zm0 0" fill="#ffd02f"/><path d="m57.347656 481.796875h15.453125v30.203125h-15.453125zm0 0" fill="#fa0"/><path d="m281.667969 512h-40.027344v-30.210938h50.332031v19.910157c-.003906 5.6875-4.613281 10.300781-10.304687 10.300781zm0 0" fill="#fa0"/><path d="m284.082031 339.765625h-261.09375c14.09375-31.363281 45.625-53.207031 82.238281-53.207031h96.617188c36.617188 0 68.144531 21.84375 82.238281 53.207031zm0 0" fill="#ffcfa1"/><path d="m284.082031 339.765625h-50.332031c-14.105469-31.363281-45.625-53.207031-82.242188-53.207031h50.335938c36.617188 0 68.144531 21.84375 82.238281 53.207031zm0 0" fill="#ffb685"/><path d="m131.890625 238.621094h43.292969v69.105468h-43.292969zm0 0" fill="#ffcfa1"/><g fill="#ffb685"><path d="m175.183594 238.617188v36.421874c-7.015625 1.882813-14.261719 2.851563-21.648438 2.851563-7.382812 0-14.628906-.96875-21.648437-2.851563v-36.421874zm0 0"/><path d="m283.917969 167.84375c0 15.875-12.867188 28.746094-28.742188 28.746094s-28.746093-12.871094-28.746093-28.746094 12.871093-28.742188 28.746093-28.742188 28.742188 12.867188 28.742188 28.742188zm0 0"/><path d="m80.640625 167.84375c0 15.875-12.871094 28.746094-28.742187 28.746094-15.875 0-28.746094-12.871094-28.746094-28.746094s12.871094-28.742188 28.746094-28.742188c15.871093 0 28.742187 12.867188 28.742187 28.742188zm0 0"/></g><path d="m241.996094 76.074219v77.960937c0 61.84375-39.609375 111.980469-88.460938 111.980469-48.851562 0-88.460937-50.136719-88.460937-111.980469v-77.960937zm0 0" fill="#ffcfa1"/><path d="m115.496094 193.996094c0 4.945312-4.007813 8.953125-8.953125 8.953125-4.945313 0-8.953125-4.007813-8.953125-8.953125 0-4.945313 4.007812-8.953125 8.953125-8.953125 4.945312 0 8.953125 4.007812 8.953125 8.953125zm0 0" fill="#ff8294"/><path d="m191.574219 193.996094c0-4.945313 4.007812-8.953125 8.953125-8.953125 4.945312 0 8.953125 4.007812 8.953125 8.953125" fill="#ff8294"/><path d="m209.480469 193.996094c0 4.945312-4.007813 8.953125-8.953125 8.953125-4.945313 0-8.953125-4.007813-8.953125-8.953125" fill="#ff8294"/><path d="m307.070312 117.285156c0 22.765625-18.453124 41.21875-41.214843 41.21875s-41.214844-18.453125-41.214844-41.21875c0-22.761718 18.453125-41.214844 41.214844-41.214844s41.214843 18.453126 41.214843 41.214844zm0 0" fill="#ffd02f"/><path d="m265.691406 132.800781c-1.257812 0-2.53125-.308593-3.714844-.957031-17.980468-9.875-18.132812-33.996094-18.128906-35.019531.007813-4.261719 3.464844-7.710938 7.726563-7.710938h.015625c4.257812.011719 7.703125 3.464844 7.707031 7.71875.003906.324219.265625 16.054688 10.121094 21.46875 3.742187 2.054688 5.105469 6.753907 3.050781 10.492188-1.402344 2.558593-4.050781 4.007812-6.777344 4.007812zm0 0" fill="#fa0"/><path d="m82.429688 117.285156c0 22.765625-18.453126 41.21875-41.214844 41.21875-22.761719 0-41.214844-18.453125-41.214844-41.21875 0-22.761718 18.453125-41.214844 41.214844-41.214844 22.761718 0 41.214844 18.453126 41.214844 41.214844zm0 0" fill="#ffd02f"/><path d="m44.074219 138.375c-2.191407 0-4.367188-.929688-5.894531-2.730469-2.761719-3.253906-2.359376-8.128906.894531-10.886719 8.265625-7.015624 9.261719-22.179687 8.945312-27.433593-.253906-4.25 2.980469-7.917969 7.230469-8.183594 4.253906-.257813 7.914062 2.945313 8.191406 7.195313.019532.269531.417969 6.699218-1.007812 14.597656-1.984375 11.019531-6.605469 19.875-13.363282 25.605468-1.453124 1.234376-3.230468 1.835938-4.996093 1.835938zm0 0" fill="#fa0"/><path d="m153.535156 224.246094c-13.125 0-24.46875-11.105469-26.980468-26.40625-.6875-4.210938 2.164062-8.183594 6.375-8.875 4.210937-.691406 8.183593 2.164062 8.875 6.375 1.257812 7.667968 6.300781 13.453125 11.730468 13.453125 5.429688 0 10.472656-5.785157 11.730469-13.453125.691406-4.210938 4.65625-7.070313 8.875-6.375 4.210937.6875 7.0625 4.664062 6.375 8.875-2.507813 15.300781-13.855469 26.40625-26.980469 26.40625zm0 0" fill="#fc9854"/><path d="m111.464844 176.8125c-4.265625 0-7.726563-3.460938-7.726563-7.726562v-.917969c0-4.269531 3.460938-7.726563 7.726563-7.726563s7.726562 3.457032 7.726562 7.726563v.917969c0 4.265624-3.460937 7.726562-7.726562 7.726562zm0 0" fill="#00d8e0"/><path d="m195.605469 176.8125c-4.265625 0-7.726563-3.460938-7.726563-7.726562v-.917969c0-4.269531 3.460938-7.726563 7.726563-7.726563 4.269531 0 7.726562 3.457032 7.726562 7.726563v.917969c0 4.265624-3.457031 7.726562-7.726562 7.726562zm0 0" fill="#00d8e0"/><path d="m249.472656 107.292969h-191.875c-5.769531 0-10.449218-4.679688-10.449218-10.453125v-25.425782c0-5.773437 4.679687-10.453124 10.449218-10.453124h191.875c5.773438 0 10.453125 4.679687 10.453125 10.453124v25.425782c0 5.773437-4.679687 10.453125-10.453125 10.453125zm0 0" fill="#5a5a52"/><path d="m153.535156 385.621094c-30.019531 0-58.332031-8.445313-79.730468-23.78125-22.171876-15.894532-34.382813-37.277344-34.382813-60.203125 0-4.269531 3.457031-7.726563 7.726563-7.726563 4.265624 0 7.722656 3.457032 7.722656 7.726563 0 37.789062 44.261718 68.535156 98.664062 68.535156s98.664063-30.746094 98.664063-68.535156c0-4.269531 3.457031-7.726563 7.722656-7.726563 4.269531 0 7.726563 3.457032 7.726563 7.726563 0 22.929687-12.210938 44.308593-34.386719 60.203125-21.390625 15.335937-49.707031 23.78125-79.726563 23.78125zm0 0" fill="#f22"/></svg>