<svg height="512pt" viewBox="-78 0 512 512.00026" width="512pt" xmlns="http://www.w3.org/2000/svg"><path d="m348.558594 372.976562v117.855469c0 5.6875-4.613282 10.300781-10.304688 10.300781h-241.628906c-5.6875 0-10.300781-4.613281-10.300781-10.300781v-117.855469c0-47.140624 38.21875-85.359374 85.371093-85.359374h25.238282v-45.410157h41.011718v45.410157h25.238282c47.152344 0 85.375 38.21875 85.375 85.359374zm0 0" fill="#ffb685"/><g fill="#fc9854"><path d="m348.554688 372.972656v117.859375c0 5.6875-4.613282 10.300781-10.304688 10.300781h-37.363281v-128.152343c0-47.148438-7.875-85.367188-55.027344-85.367188h17.335937c47.140626.003907 85.359376 38.21875 85.359376 85.359375zm0 0"/><path d="m237.945312 242.207031v34.496094c-6.648437 1.777344-13.511718 2.699219-20.503906 2.699219-6.996094 0-13.859375-.921875-20.507812-2.699219v-34.496094zm0 0"/><path d="m340.925781 175.175781c0 15.035157-12.1875 27.222657-27.222656 27.222657s-27.222656-12.1875-27.222656-27.222657c0-15.035156 12.1875-27.222656 27.222656-27.222656s27.222656 12.1875 27.222656 27.222656zm0 0"/><path d="m148.398438 175.175781c0 15.035157-12.1875 27.222657-27.222657 27.222657-15.035156 0-27.222656-12.1875-27.222656-27.222657 0-15.035156 12.1875-27.222656 27.222656-27.222656 15.035157 0 27.222657 12.1875 27.222657 27.222656zm0 0"/></g><path d="m301.222656 88.257812v73.839844c0 58.570313-37.511718 106.058594-83.78125 106.058594-46.269531 0-83.785156-47.488281-83.785156-106.058594v-73.839844zm0 0" fill="#ffb685"/><path d="m217.441406 229.003906c-12.632812 0-23.550781-10.664062-25.957031-25.355468-.691406-4.210938 2.164063-8.183594 6.375-8.875 4.210937-.691407 8.183594 2.164062 8.871094 6.375 1.160156 7.070312 5.761719 12.402343 10.707031 12.402343s9.550781-5.332031 10.707031-12.402343c.691407-4.210938 4.664063-7.066407 8.875-6.375 4.210938.691406 7.066407 4.667968 6.375 8.875-2.40625 14.691406-13.324219 25.355468-25.953125 25.355468zm0 0" fill="#fc9854"/><path d="m179.328125 181.046875c-4.269531 0-7.726563-3.460937-7.726563-7.726563v-.871093c0-4.269531 3.460938-7.726563 7.726563-7.726563s7.726563 3.460938 7.726563 7.726563v.871093c0 4.265626-3.460938 7.726563-7.726563 7.726563zm0 0" fill="#b0e8ff"/><path d="m255.554688 181.046875c-4.269532 0-7.726563-3.460937-7.726563-7.726563v-.871093c0-4.269531 3.457031-7.726563 7.726563-7.726563 4.265624 0 7.722656 3.460938 7.722656 7.726563v.871093c0 4.265626-3.457032 7.726563-7.722656 7.726563zm0 0" fill="#b0e8ff"/><path d="m356.3125 330.296875v119.296875c0 6.507812-5.777344 11.496094-12.226562 10.558594-9.910157-1.441406-25.1875-4.203125-43.195313-9.28125-54.488281-15.332032-134.089844-51.800782-166.902344-136.953125 0 0 78.976563 7.023437 149.265625-12.519531 7.242188-2.007813 14.402344-4.304688 21.363282-6.910157 22.53125-8.460937 46.421874 5.707031 50.933593 28.121094.503907 2.464844.761719 5.039063.761719 7.6875zm0 0" fill="#f22"/><path d="m262.21875 388.640625c-.28125 0-.566406-.015625-.851562-.046875-65.515626-7.164062-108.128907-54.078125-109.90625-56.070312-2.847657-3.183594-2.570313-8.066407.609374-10.910157 3.179688-2.84375 8.0625-2.570312 10.90625.609375.574219.632813 40.726563 44.519532 100.070313 51.011719 4.242187.464844 7.304687 4.28125 6.839844 8.519531-.429688 3.957032-3.777344 6.886719-7.667969 6.886719zm0 0" fill="#d80000"/><path d="m356.308594 330.292969v119.300781c0 6.507812-5.777344 11.496094-12.21875 10.554688-9.914063-1.441407-25.191406-4.203126-43.199219-9.277344v-77.882813c0-29.992187-3.1875-56.359375-17.632813-71.589843 7.242188-2.007813 14.394532-4.300782 21.363282-6.914063 25.011718-9.382813 51.6875 9.101563 51.6875 35.808594zm0 0" fill="#d80000"/><path d="m172.46875 303.632812c0 18.089844-14.664062 32.753907-32.753906 32.753907s-32.753906-14.664063-32.753906-32.753907c0-18.085937 14.664062-32.75 32.753906-32.75s32.753906 14.664063 32.753906 32.75zm0 0" fill="#ffd02f"/><path d="m356.3125 330.296875v9.230469c-9.558594 5.789062-33.417969 17.605468-69.648438 18.449218-.0625.011719-.125.011719-.183593.011719-4.183594 0-7.625-3.347656-7.726563-7.550781-.09375-4.265625 3.273438-7.796875 7.550782-7.902344 42.082031-.988281 65.085937-18.203125 65.3125-18.378906 1.1875-.90625 2.554687-1.410156 3.9375-1.542969.5 2.460938.757812 5.035157.757812 7.683594zm0 0" fill="#d80000"/><path d="m225.164062 452.15625v48.976562h-15.453124v-48.976562c0-4.265625 3.460937-7.726562 7.722656-7.726562 4.277344 0 7.730468 3.460937 7.730468 7.726562zm0 0" fill="#fc9854"/><path d="m260.933594 477.691406h-83.683594c-4.269531 0-7.726562-3.457031-7.726562-7.726562 0-4.265625 3.460937-7.722656 7.726562-7.722656h83.683594c4.265625 0 7.722656 3.457031 7.722656 7.722656 0 4.269531-3.457031 7.726562-7.722656 7.726562zm0 0" fill="#fc9854"/><path d="m242.796875 34.171875h-50.714844c-41.207031 0-75.683593 32.449219-76.855469 73.640625-.019531.746094-.03125 1.496094-.03125 2.246094v97.273437c0 5.464844 4.429688 9.894531 9.894532 9.894531h11.988281l21.695313 30.058594c5.617187 7.785156 17.917968 3.8125 17.917968-5.789062v-33.914063c0-4.613281-3.183594-8.609375-7.675781-9.644531l-26.773437-6.164062v-52.152344l62.84375 16.144531c6.792968 1.746094 17.914062 1.746094 24.710937 0l62.84375-16.144531v52.152344l-26.773437 6.164062c-4.492188 1.035156-7.675782 5.03125-7.675782 9.644531v33.914063c0 9.601562 12.296875 13.574218 17.917969 5.789062l21.691406-30.058594h11.992188c5.464843 0 9.894531-4.429687 9.894531-9.894531v-97.273437c0-.75-.011719-1.5-.035156-2.246094-1.171875-41.191406-35.644532-73.640625-76.855469-73.640625zm0 0" fill="#ffd02f"/><path d="m319.6875 110.058594v97.269531c0 5.464844-4.4375 9.902344-9.902344 9.902344h-11.988281l-21.6875 30.058593c-5.617187 7.785157-17.917969 3.8125-17.917969-5.796874v-33.910157c0-4.609375 3.183594-8.613281 7.671875-9.640625l26.769531-6.171875v-52.148437l-31.890624 8.199218v-59.210937c0-.742187-.011719-1.488281-.03125-2.238281-.59375-20.570313-9.476563-38.949219-23.351563-52.199219h5.433594c41.210937 0 75.683593 32.449219 76.863281 73.636719.023438.746094.03125 1.503906.03125 2.25zm0 0" fill="#fa0"/><path d="m211.042969 5.175781-16.140625 75.753907c-3.054688 14.339843 7.878906 27.847656 22.539062 27.847656 14.65625 0 25.589844-13.507813 22.535156-27.847656l-16.140624-75.753907c-1.46875-6.902343-11.320313-6.902343-12.792969 0zm0 0" fill="#ffdec2"/><path d="m242.109375 138.285156c-3.390625 0-6.503906-2.253906-7.445313-5.683594-1.128906-4.113281 1.289063-8.363281 5.402344-9.496093l31.140625-8.554688c4.117188-1.136719 8.363281 1.289063 9.496094 5.402344 1.128906 4.113281-1.289063 8.363281-5.402344 9.496094l-31.136719 8.554687c-.6875.191406-1.375.28125-2.054687.28125zm0 0" fill="#fa0"/><path d="m192.792969 138.285156c-.675781 0-1.367188-.089844-2.050781-.28125l-31.136719-8.554687c-4.117188-1.132813-6.535157-5.382813-5.402344-9.496094 1.128906-4.117187 5.378906-6.539063 9.496094-5.402344l31.136719 8.554688c4.117187 1.132812 6.535156 5.382812 5.402343 9.496093-.941406 3.429688-4.050781 5.683594-7.445312 5.683594zm0 0" fill="#fa0"/><path d="m157.316406 433.34375c0 43.441406-35.214844 78.65625-78.660156 78.65625-43.441406 0-78.65625-35.214844-78.65625-78.65625s35.214844-78.660156 78.65625-78.660156c43.445312 0 78.660156 35.21875 78.660156 78.660156zm0 0" fill="#ffd02f"/><path d="m78.660156 494.328125c-24.527344 0-46.566406-14.585937-56.148437-37.160156-3.207031-7.558594-4.835938-15.574219-4.835938-23.824219s1.628907-16.265625 4.835938-23.824219c9.578125-22.574219 31.617187-37.160156 56.148437-37.160156 24.519532 0 46.558594 14.585937 56.148438 37.15625 3.210937 7.5625 4.835937 15.578125 4.835937 23.828125 0 8.253906-1.625 16.265625-4.835937 23.824219-9.59375 22.574219-31.632813 37.160156-56.148438 37.160156zm0 0" fill="#fa0"/><path d="m127.542969 433.34375c0 6.777344-1.378907 13.230469-3.871094 19.097656-7.441406 17.503906-24.792969 29.785156-45.011719 29.785156-20.226562 0-37.578125-12.28125-45.011718-29.785156-2.488282-5.867187-3.871094-12.320312-3.871094-19.097656s1.382812-13.226562 3.871094-19.097656c7.433593-17.515625 24.785156-29.785156 45.011718-29.785156 20.21875 0 37.570313 12.269531 45.011719 29.785156 2.492187 5.867187 3.871094 12.320312 3.871094 19.097656zm0 0" fill="#ffdec2"/><path d="m127.542969 433.34375c0 6.777344-1.378907 13.230469-3.871094 19.097656h-90.023437c-2.488282-5.867187-3.871094-12.320312-3.871094-19.097656s1.382812-13.226562 3.871094-19.097656h90.023437c2.492187 5.867187 3.871094 12.320312 3.871094 19.097656zm0 0" fill="#f22"/><path d="m127.90625 316.269531c-1.644531 0-3.304688-.523437-4.710938-1.605469-3.378906-2.609374-4.003906-7.457031-1.398437-10.835937l11.800781-15.304687c1.464844-1.894532 3.722656-3.007813 6.117188-3.007813 2.398437 0 4.65625 1.113281 6.121094 3.007813l11.800781 15.304687c2.605469 3.375 1.980469 8.226563-1.398438 10.835937-3.375 2.605469-8.230469 1.980469-10.835937-1.402343l-5.683594-7.367188-5.683594 7.367188c-1.523437 1.972656-3.8125 3.007812-6.128906 3.007812zm0 0" fill="#ffdec2"/><path d="m102.375 441.066406c-4.269531 0-7.726562-3.457031-7.726562-7.722656v-.871094c0-4.265625 3.457031-7.726562 7.726562-7.726562 4.265625 0 7.726562 3.460937 7.726562 7.726562v.871094c0 4.265625-3.460937 7.722656-7.726562 7.722656zm0 0" fill="#ffd02f"/><path d="m78.660156 441.066406c-4.265625 0-7.726562-3.457031-7.726562-7.722656v-.871094c0-4.265625 3.460937-7.726562 7.726562-7.726562 4.269532 0 7.726563 3.460937 7.726563 7.726562v.871094c0 4.265625-3.457031 7.722656-7.726563 7.722656zm0 0" fill="#ffd02f"/><path d="m54.949219 441.066406c-4.269531 0-7.726563-3.457031-7.726563-7.722656v-.871094c0-4.265625 3.457032-7.726562 7.726563-7.726562 4.265625 0 7.726562 3.460937 7.726562 7.726562v.871094c0 4.265625-3.460937 7.722656-7.726562 7.722656zm0 0" fill="#ffd02f"/></svg>