<svg height="512pt" viewBox="-18 0 511 512" width="512pt" xmlns="http://www.w3.org/2000/svg"><path d="m372.398438 189.371094c0-24.382813-61.492188-44.148438-137.34375-44.148438-75.855469 0-137.347657 19.765625-137.347657 44.148438 0 24.382812 61.492188 44.148437 137.347657 44.148437 75.851562 0 137.34375-19.765625 137.34375-44.148437zm0 0" fill="#d80000"/><path d="m390.582031 359.984375v141.714844c0 5.6875-4.617187 10.300781-10.300781 10.300781h-290.460938c-5.6875 0-10.300781-4.613281-10.300781-10.300781v-141.714844c0-55.925781 45.335938-101.265625 101.265625-101.265625h108.539063c55.917969 0 101.257812 45.339844 101.257812 101.265625zm0 0" fill="#5a5a52"/><path d="m390.582031 359.976562v141.722657c0 5.6875-4.613281 10.300781-10.300781 10.300781h-46.246094v-152.015625c0-55.925781-45.335937-101.265625-101.257812-101.265625h56.546875c55.921875 0 101.257812 45.335938 101.257812 101.257812zm0 0" fill="#3d3d38"/><path d="m143.792969 353.144531v158.855469h-15.453125v-158.855469c0-4.261719 3.460937-7.722656 7.726562-7.722656 4.273438 0 7.726563 3.460937 7.726563 7.722656zm0 0" fill="#3d3d38"/><path d="m285.5 258.726562v17.703126c0 23.238281-18.835938 42.074218-42.074219 42.074218h-16.746093c-23.238282 0-42.074219-18.835937-42.074219-42.074218v-17.703126h15v-53.863281h70.890625v53.863281zm0 0" fill="#f5f6e3"/><path d="m381.53125 129.46875c0 17.835938-14.457031 32.292969-32.289062 32.292969-17.835938 0-32.292969-14.457031-32.292969-32.292969 0-17.832031 14.457031-32.289062 32.292969-32.289062 17.832031 0 32.289062 14.457031 32.289062 32.289062zm0 0" fill="#ffcfa1"/><path d="m153.15625 129.46875c0 17.835938-14.457031 32.292969-32.292969 32.292969-17.832031 0-32.292969-14.457031-32.292969-32.292969 0-17.832031 14.460938-32.289062 32.292969-32.289062 17.835938 0 32.292969 14.457031 32.292969 32.289062zm0 0" fill="#ffcfa1"/><path d="m334.4375 66.984375v42.855469c0 4.136718-.15625 8.238281-.46875 12.277344-4.871094 63.714843-47.300781 113.519531-98.917969 113.519531-51.613281 0-94.042969-49.804688-98.917969-113.519531-.308593-4.039063-.464843-8.140626-.464843-12.277344v-42.855469c0-37 29.984375-66.984375 66.976562-66.984375h64.816407c36.992187 0 66.976562 29.984375 66.976562 66.984375zm0 0" fill="#ffdec2"/><path d="m189.84375 130.871094c-4.269531 0-7.726562-3.457032-7.726562-7.726563v-1.03125c0-4.265625 3.457031-7.722656 7.726562-7.722656 4.265625 0 7.726562 3.457031 7.726562 7.722656v1.03125c0 4.269531-3.460937 7.726563-7.726562 7.726563zm0 0" fill="#3d3d38"/><path d="m280.261719 130.871094c-4.269531 0-7.726563-3.457032-7.726563-7.726563v-1.03125c0-4.265625 3.460938-7.722656 7.726563-7.722656s7.726562 3.457031 7.726562 7.722656v1.03125c0 4.269531-3.457031 7.726563-7.726562 7.726563zm0 0" fill="#3d3d38"/><path d="m334.4375 66.984375v42.855469c0 4.136718-.15625 8.238281-.46875 12.277344h-7.40625c-5.25 0-9.652344-3.945313-10.238281-9.164063-2.109375-18.773437-11.3125-60.183594-51.453125-64.007813l-22.535156 22.535157c-4.023438 4.023437-10.546876 4.023437-14.566407 0l-22.535156-22.535157c-40.140625 3.824219-49.34375 45.234376-51.453125 64.007813-.585938 5.21875-4.988281 9.164063-10.238281 9.164063h-7.40625c-.3125-4.039063-.46875-8.140626-.46875-12.277344v-42.855469c0-37 29.984375-66.984375 66.976562-66.984375h64.816407c36.992187 0 66.976562 29.984375 66.976562 66.984375zm0 0" fill="#5a5a52"/><path d="m260.390625 183.304688c-2.261719 0-4.5-.988282-6.027344-2.882813l-3.585937-4.457031c-2.675782-3.324219-2.148438-8.191406 1.175781-10.863282 3.324219-2.675781 8.1875-2.152343 10.863281 1.175782l3.585938 4.457031c2.675781 3.324219 2.148437 8.1875-1.175782 10.863281-1.425781 1.144532-3.136718 1.707032-4.835937 1.707032zm0 0" fill="#f5f6e3"/><path d="m273.195312 300.726562-13.402343-69.757812c-1.179688-6.136719 3.324219-11.917969 9.5625-12.230469 19.722656-.988281 60.367187-6.378906 94.027343-32.585937 4.066407-3.167969 9.878907.34375 8.90625 5.40625l-22.507812 117.28125-37.691406 13.859375c-16.96875 6.242187-35.480469-4.21875-38.894532-21.972657zm0 0" fill="#3d3d38"/><path d="m190.398438 334.609375 19.914062-103.640625c1.179688-6.136719-3.324219-11.917969-9.566406-12.234375-19.722656-.984375-60.363282-6.375-94.023438-32.585937-4.066406-3.164063-9.878906.347656-8.90625 5.40625l22.507813 117.285156zm0 0" fill="#5a5a52"/><path d="m242.78125 331.644531v180.355469h-15.453125v-180.355469c0-4.273437 3.453125-7.722656 7.726563-7.722656 4.265624 0 7.726562 3.449219 7.726562 7.722656zm0 0" fill="#f5f6e3"/><path d="m222.328125 320.535156-32.523437 16.417969c-6.28125 3.167969-13.699219-1.394531-13.699219-8.429687v-32.832032c0-7.035156 7.417969-11.597656 13.699219-8.429687l32.523437 16.414062c3.179687 1.605469 5.1875 4.867188 5.1875 8.429688 0 3.566406-2.007813 6.824219-5.1875 8.429687zm0 0" fill="#d80000"/><path d="m247.777344 320.535156 32.523437 16.417969c6.28125 3.167969 13.695313-1.394531 13.695313-8.429687v-32.832032c0-7.035156-7.414063-11.597656-13.695313-8.429687l-32.523437 16.414062c-3.179688 1.605469-5.1875 4.867188-5.1875 8.429688 0 3.566406 2.007812 6.824219 5.1875 8.429687zm0 0" fill="#d80000"/><path d="m244.101562 328.992188h-18.097656c-5.511718 0-9.980468-4.46875-9.980468-9.976563v-13.816406c0-5.507813 4.46875-9.976563 9.980468-9.976563h18.097656c5.511719 0 9.980469 4.46875 9.980469 9.976563v13.816406c0 5.511719-4.46875 9.976563-9.980469 9.976563zm0 0" fill="#ff4e61"/><path d="m473.933594 254.886719c-3.792969-5.671875-10.105469-8.683594-16.496094-7.867188-3.082031.394531-5.925781 1.617188-8.332031 3.503907-2.539063-1.128907-5.324219-1.613282-8.132813-1.371094v-2.9375c0-4.265625-3.460937-7.726563-7.726562-7.726563-4.269532 0-7.726563 3.460938-7.726563 7.726563v2.9375c-2.8125-.242188-5.59375.242187-8.136719 1.371094-2.402343-1.886719-5.25-3.109376-8.328124-3.503907-6.375-.820312-12.703126 2.195313-16.496094 7.863281-2.371094 3.546876-1.421875 8.347657 2.125 10.71875 3.546875 2.371094 8.347656 1.421876 10.71875-2.125.402344-.597656 1.058594-1.210937 1.6875-1.128906.679687.085938 1.429687.867188 1.867187 1.945313 1.078125 2.644531 3.53125 4.480469 6.375 4.769531 2.855469.289062 5.617188-1.015625 7.203125-3.390625.398438-.597656 1.058594-1.203125 1.6875-1.128906.4375.054687.902344.402343 1.296875.925781v.320312c0 4.265626 3.457031 7.726563 7.722657 7.726563 4.269531 0 7.726562-3.460937 7.726562-7.726563v-.316406c.394531-.527344.859375-.871094 1.296875-.929687.628906-.082031 1.289063.527343 1.6875 1.128906 1.589844 2.375 4.359375 3.679687 7.203125 3.390625s5.296875-2.125 6.375-4.773438c.4375-1.074218 1.1875-1.855468 1.867188-1.941406.625-.070312 1.285156.527344 1.6875 1.125 2.371093 3.550782 7.167968 4.5 10.714843 2.128906 3.550781-2.371093 4.503907-7.167968 2.132813-10.714843zm0 0" fill="#3d3d38"/><path d="m410.042969 164.40625c.703125-.140625 1.597656-.109375 1.992187.394531.417969.542969.394532 1.625-.054687 2.695313-1.113281 2.636718-.675781 5.667968 1.132812 7.882812 1.804688 2.214844 4.683594 3.25 7.492188 2.695313.703125-.140625 1.597656-.109375 1.988281.394531.273438.347656.339844.933594.242188 1.589844l-.207032.207031c-3.015625 3.015625-3.015625 7.910156.003906 10.925781 1.507813 1.507813 3.484376 2.261719 5.460938 2.261719s3.957031-.753906 5.464844-2.261719l.207031-.207031c.652344-.09375 1.238281-.027344 1.589844.242187.503906.390626.535156 1.285157.394531 1.992188-.554688 2.804688.480469 5.6875 2.695312 7.492188 2.214844 1.804687 5.246094 2.242187 7.882813 1.132812 1.070313-.453125 2.152344-.472656 2.691406-.054688.507813.390626.535157 1.285157.394531 1.992188-.828124 4.183594 1.890626 8.25 6.074219 9.082031.507813.101563 1.015625.148438 1.511719.148438 3.613281 0 6.839844-2.542969 7.570312-6.222657 1.332032-6.691406-1.007812-13.292968-6.105468-17.226562-2.457032-1.902344-5.328125-3.046875-8.363282-3.414062-1-2.59375-2.625-4.902344-4.785156-6.71875l2.078125-2.078126c3.019531-3.019531 3.019531-7.910156 0-10.925781-3.015625-3.019531-7.90625-3.019531-10.925781 0l-2.078125 2.078125c-1.816406-2.160156-4.125-3.785156-6.71875-4.785156-.367187-3.035156-1.515625-5.910156-3.414063-8.367188-3.9375-5.09375-10.539062-7.429687-17.226562-6.105468-4.183594.832031-6.902344 4.898437-6.074219 9.085937.832031 4.1875 4.898438 6.902344 9.085938 6.074219zm0 0" fill="#5a5a52"/><path d="m58.410156 185.09375c-6.695312-1.328125-13.292968 1.011719-17.226562 6.105469-1.902344 2.457031-3.046875 5.332031-3.414063 8.367187-2.59375.996094-4.90625 2.621094-6.722656 4.78125l-2.078125-2.078125c-3.015625-3.015625-7.90625-3.015625-10.925781 0-3.019531 3.019531-3.019531 7.910157 0 10.925781l2.078125 2.078126c-2.160156 1.816406-3.785156 4.125-4.785156 6.722656-3.03125.367187-5.90625 1.511718-8.363282 3.410156-5.097656 3.9375-7.433594 10.539062-6.105468 17.230469.730468 3.675781 3.957031 6.222656 7.570312 6.222656.5 0 1.003906-.050781 1.511719-.148437 4.1875-.832032 6.90625-4.898438 6.074219-9.085938-.140626-.703125-.109376-1.597656.394531-1.988281.542969-.421875 1.625-.398438 2.695312.054687 2.636719 1.105469 5.667969.671875 7.882813-1.136718 2.210937-1.808594 3.25-4.6875 2.691406-7.492188-.140625-.703125-.109375-1.597656.394531-1.988281.351563-.269531.9375-.339844 1.59375-.242188l.203125.203125c1.511719 1.511719 3.488282 2.265625 5.464844 2.265625s3.953125-.753906 5.464844-2.265625c3.015625-3.015625 3.015625-7.90625 0-10.925781l-.207032-.207031c-.097656-.652344-.027343-1.238282.242188-1.589844.386719-.503906 1.28125-.535156 1.988281-.394531 2.796875.554687 5.683594-.480469 7.492188-2.695313 1.808593-2.214844 2.242187-5.246094 1.136719-7.878906-.453126-1.074219-.472657-2.15625-.054688-2.695312.390625-.507813 1.285156-.539063 1.988281-.398438 4.183594.828125 8.253907-1.886719 9.085938-6.070312.832031-4.1875-1.886719-8.253907-6.070313-9.085938zm0 0" fill="#5a5a52"/><path d="m235.054688 187.761719c-14.277344 0-26.628907-12.144531-29.371094-28.871094-.691406-4.210937 2.164062-8.183594 6.375-8.875 4.222656-.691406 8.183594 2.164063 8.875 6.375 1.511718 9.222656 7.449218 15.917969 14.121094 15.917969 6.667968 0 12.605468-6.695313 14.117187-15.917969.691406-4.210937 4.660156-7.066406 8.875-6.375 4.210937.691406 7.066406 4.664063 6.375 8.875-2.742187 16.726563-15.09375 28.871094-29.367187 28.871094zm0 0" fill="#ff4e61"/></svg>