<svg height="512pt" viewBox="-23 0 512 512" width="512pt" xmlns="http://www.w3.org/2000/svg"><path d="m403.835938 135.511719v366.1875c0 5.6875-4.613282 10.300781-10.300782 10.300781h-320.386718c-5.691407 0-10.300782-4.613281-10.300782-10.300781v-366.1875c0-18.976563 8.546875-35.945313 22.003906-47.277344 6.128907-5.160156 11-11.527344 14.339844-18.59375 3.332032-7.058594 5.136719-14.835937 5.140625-22.839844.015625-25.742187 20.214844-46.800781 45.957031-46.800781h165.890626c25.804687 0 46.101562 21.109375 46.171874 46.917969.042969 15.972656 7.257813 31.015625 19.480469 41.316406 13.453125 11.332031 22.003907 28.300781 22.003907 47.277344zm0 0" fill="#b0e8ff"/><g fill="#81caef"><path d="m403.835938 137.757812v202.882813h-7.808594c-12.496094 0-22.664063-10.167969-22.664063-22.664063v-74.535156h-22.066406c-12.496094 0-22.664063-10.167968-22.664063-22.664062v-15.636719c0-12.496094 10.167969-22.664063 22.664063-22.664063h22.066406v-22.054687c0-12.496094 10.167969-22.664063 22.664063-22.664063zm0 0"/><path d="m138.050781 205.140625v15.636719c0 12.496094-10.167969 22.664062-22.664062 22.664062h-22.066407v74.535156c0 12.496094-10.167968 22.664063-22.664062 22.664063h-7.808594v-202.882813h7.808594c12.496094 0 22.664062 10.167969 22.664062 22.664063v22.054687h22.066407c12.496093 0 22.664062 10.167969 22.664062 22.664063zm0 0"/><path d="m403.835938 135.511719v366.1875c0 5.6875-4.613282 10.300781-10.300782 10.300781h-35.808594v-376.488281c0-18.976563-8.550781-35.945313-22.015624-47.277344-12.261719-10.332031-19.472657-25.433594-19.472657-41.464844 0-25.824219-20.941406-46.769531-46.777343-46.769531h46.71875c25.804687 0 46.101562 21.109375 46.171874 46.917969.042969 15.972656 7.257813 31.015625 19.480469 41.316406 13.453125 11.332031 22.003907 28.300781 22.003907 47.277344zm0 0"/></g><path d="m232.15625 77.269531c44.476562 0 80.53125 36.054688 80.53125 80.53125v1.859375c0 56.300782-36.058594 101.945313-80.535156 101.945313-44.476563 0-80.535156-45.644531-80.535156-101.945313v-1.859375c0-44.476562 36.054687-80.53125 80.53125-80.53125zm0 0" fill="#ffdec2"/><path d="m232.152344 224.269531c-12.289063 0-22.90625-10.351562-25.246094-24.621093-.6875-4.207032 2.164062-8.183594 6.375-8.875 4.214844-.683594 8.183594 2.164062 8.875 6.375 1.089844 6.652343 5.390625 11.667968 9.996094 11.667968 4.609375 0 8.90625-5.015625 9.996094-11.667968.691406-4.210938 4.65625-7.070313 8.875-6.375 4.210937.691406 7.066406 4.664062 6.375 8.875-2.339844 14.265624-12.957032 24.621093-25.246094 24.621093zm0 0" fill="#ffb685"/><path d="m195.519531 178.171875c-4.269531 0-7.726562-3.457031-7.726562-7.726563v-.835937c0-4.265625 3.457031-7.722656 7.726562-7.722656 4.265625 0 7.722657 3.457031 7.722657 7.722656v.835937c0 4.269532-3.457032 7.726563-7.722657 7.726563zm0 0" fill="#00d8e0"/><path d="m268.789062 178.171875c-4.269531 0-7.726562-3.457031-7.726562-7.726563v-.835937c0-4.265625 3.457031-7.722656 7.726562-7.722656 4.265626 0 7.726563 3.457031 7.726563 7.722656v.835937c0 4.269532-3.460937 7.726563-7.726563 7.726563zm0 0" fill="#00d8e0"/><path d="m320.214844 128.144531c-78.878906 25.671875-125.15625-7.65625-140.640625-22.179687-.039063-.039063-.078125-.074219-.113281-.109375-3.949219-3.710938-4.625-9.714844-1.675782-14.257813.316406-.484375.648438-.980468 1.007813-1.488281 7.738281-10.992187 26.195312-27.382813 67.46875-27.382813 43.441406 0 69.03125 29.609376 80.476562 47.390626 4.292969 6.675781 1.027344 15.566406-6.523437 18.027343zm0 0" fill="#fa0"/><path d="m257.046875 103.050781c-1.136719 3.140625-4.113281 5.109375-7.273437 5.109375-.867188 0-1.753907-.15625-2.617188-.464844-31.039062-11.167968-58.671875-4.492187-67.582031-1.730468-.039063-.039063-.078125-.074219-.117188-.109375-3.945312-3.710938-4.621093-9.714844-1.671875-14.257813.3125-.484375.648438-.980468 1.007813-1.488281 13.320312-3.5625 41.78125-8.40625 73.59375 3.050781 4.019531 1.441406 6.101562 5.871094 4.660156 9.890625zm0 0" fill="#ff8b00"/><path d="m334.390625 455.804688h-202.097656c-5.691407 0-10.304688-4.613282-10.304688-10.300782v-147.363281c0-5.691406 4.613281-10.300781 10.304688-10.300781h202.097656c5.6875 0 10.300781 4.609375 10.300781 10.300781v147.363281c0 5.6875-4.613281 10.300782-10.300781 10.300782zm0 0" fill="#f5f6e3"/><path d="m278.949219 310.3125h-24.199219c-4.269531 0-7.726562 3.460938-7.726562 7.726562v57.660157c0 4.269531 3.457031 7.726562 7.726562 7.726562 4.265625 0 7.726562-3.457031 7.726562-7.726562v-16.367188h16.472657c11.492187 0 20.839843-9.347656 20.839843-20.839843v-7.339844c0-11.492188-9.347656-20.839844-20.839843-20.839844zm5.386719 28.179688c0 2.972656-2.414063 5.386718-5.386719 5.386718h-16.472657v-18.113281h16.472657c2.972656 0 5.386719 2.414063 5.386719 5.382813zm0 0" fill="#5a5a52"/><path d="m210.027344 356.03125c5.78125-3.707031 9.632812-10.175781 9.632812-17.539062v-7.339844c0-11.492188-9.347656-20.839844-20.839844-20.839844h-24.199218c-4.269532 0-7.726563 3.460938-7.726563 7.726562v57.660157c0 4.269531 3.460938 7.726562 7.726563 7.726562s7.726562-3.457031 7.726562-7.726562v-16.367188h11.882813l10.917969 20.0625c1.398437 2.574219 4.050781 4.035157 6.792968 4.035157 1.246094 0 2.511719-.304688 3.6875-.941407 3.746094-2.039062 5.132813-6.730469 3.09375-10.480469zm-27.679688-30.265625h16.472656c2.972657 0 5.386719 2.417969 5.386719 5.386719v7.339844c0 2.96875-2.414062 5.382812-5.382812 5.386718-.011719 0-.023438 0-.035157 0h-16.441406zm0 0" fill="#5a5a52"/><path d="m233.339844 310.3125c-4.265625 0-7.726563 3.460938-7.726563 7.726562v57.660157c0 4.269531 3.460938 7.726562 7.726563 7.726562 4.269531 0 7.726562-3.457031 7.726562-7.726562v-57.660157c0-4.265624-3.457031-7.726562-7.726562-7.726562zm0 0" fill="#5a5a52"/><path d="m188.316406 415.964844h-25.371094c-4.265624 0-7.726562-3.457032-7.726562-7.726563 0-4.265625 3.460938-7.722656 7.726562-7.722656h25.371094c4.265625 0 7.722656 3.457031 7.722656 7.722656 0 4.269531-3.457031 7.726563-7.722656 7.726563zm0 0" fill="#81caef"/><path d="m303.734375 415.964844h-93.0625c-4.269531 0-7.726563-3.457032-7.726563-7.726563 0-4.265625 3.460938-7.722656 7.726563-7.722656h93.0625c4.269531 0 7.726563 3.457031 7.726563 7.722656 0 4.269531-3.457032 7.726563-7.726563 7.726563zm0 0" fill="#81caef"/><path d="m302.757812 437.828125h-139.8125c-4.265624 0-7.726562-3.460937-7.726562-7.726563 0-4.269531 3.460938-7.726562 7.726562-7.726562h139.8125c4.269532 0 7.726563 3.460938 7.726563 7.726562 0 4.265626-3.460937 7.726563-7.726563 7.726563zm0 0" fill="#81caef"/><path d="m456.378906 194.84375h-34.417968v-34.421875c0-5.691406-4.613282-10.300781-10.304688-10.300781h-15.632812c-5.6875 0-10.300782 4.609375-10.300782 10.300781v34.421875h-34.421875c-5.691406 0-10.300781 4.609375-10.300781 10.300781v15.632813c0 5.691406 4.609375 10.300781 10.300781 10.300781h34.421875v86.894531c0 5.691406 4.613282 10.304688 10.300782 10.304688h15.632812c5.691406 0 10.304688-4.613282 10.304688-10.304688v-86.894531h34.417968c5.691406 0 10.304688-4.609375 10.304688-10.300781v-15.632813c0-5.6875-4.613282-10.300781-10.304688-10.300781zm0 0" fill="#f5f6e3"/><path d="m115.382812 194.84375h-34.421874v-34.421875c0-5.691406-4.613282-10.300781-10.304688-10.300781h-15.632812c-5.6875 0-10.300782 4.609375-10.300782 10.300781v34.421875h-34.421875c-5.6875 0-10.300781 4.609375-10.300781 10.300781v15.632813c0 5.691406 4.613281 10.300781 10.300781 10.300781h34.421875v86.894531c0 5.691406 4.613282 10.304688 10.300782 10.304688h15.632812c5.691406 0 10.304688-4.613282 10.304688-10.304688v-86.894531h34.421874c5.6875 0 10.300782-4.609375 10.300782-10.300781v-15.632813c0-5.6875-4.613282-10.300781-10.300782-10.300781zm0 0" fill="#f5f6e3"/></svg>