<svg height="512pt" viewBox="-112 0 512 512.001" width="512pt" xmlns="http://www.w3.org/2000/svg"><path d="m275.183594 383.300781v118.398438c0 5.6875-4.601563 10.300781-10.300782 10.300781h-242.730468c-5.695313 0-10.300782-4.613281-10.300782-10.300781v-118.398438c0-39.292969 26.421876-72.410156 62.46875-82.539062 7.386719-2.082031 15.195313-3.191407 23.25-3.191407h91.894532c8.054687 0 15.863281 1.109376 23.25 3.191407 36.046875 10.125 62.46875 43.246093 62.46875 82.539062zm0 0" fill="#7aa50f"/><path d="m147.308594 297.570312h42.15625c8.0625 0 15.859375 1.109376 23.253906 3.195313l4.613281 9.515625c6.046875 12.425781 1.347657 27.738281-10.46875 34.117188l-63.34375 34.210937-63.34375-34.210937c-11.816406-6.378907-16.515625-21.691407-10.472656-34.117188l4.617187-9.515625c7.390626-2.085937 15.191407-3.195313 23.253907-3.195313zm0 0" fill="#729309"/><path d="m275.191406 383.289062v118.40625c0 5.691407-4.613281 10.300782-10.300781 10.300782h-37.570313v-128.695313c0-47.355469-38.378906-85.734375-85.730468-85.734375h47.878906c47.34375 0 85.722656 38.378906 85.722656 85.722656zm0 0" fill="#729309"/><path d="m67.441406 377.511719v134.488281h-15.453125v-134.488281c0-4.277344 3.460938-7.726563 7.722657-7.726563 4.265624 0 7.730468 3.449219 7.730468 7.726563zm0 0" fill="#729309"/><path d="m186.230469 297.566406v14.992188c0 19.667968-15.953125 35.621094-35.621094 35.621094h-14.179687c-19.671876 0-35.621094-15.953126-35.621094-35.621094v-14.992188h22.117187v-45.601562h41.183594v45.601562zm0 0" fill="#b1de54"/><path d="m164.113281 251.964844v34.640625c-6.679687 1.789062-13.570312 2.714843-20.59375 2.714843-7.023437 0-13.917969-.925781-20.59375-2.714843v-34.640625zm0 0" fill="#92c927"/><path d="m267.535156 184.648438c0 15.097656-12.242187 27.339843-27.339844 27.339843-15.101562 0-27.34375-12.242187-27.34375-27.339843 0-15.101563 12.242188-27.339844 27.34375-27.339844 15.097657 0 27.339844 12.238281 27.339844 27.339844zm0 0" fill="#92c927"/><path d="m74.183594 184.648438c0 15.097656-12.242188 27.339843-27.339844 27.339843-15.101562 0-27.339844-12.242187-27.339844-27.339843 0-15.101563 12.238282-27.339844 27.339844-27.339844 15.097656 0 27.339844 12.238281 27.339844 27.339844zm0 0" fill="#92c927"/><path d="m143.523438 77.484375c46.464843 0 84.136718 37.667969 84.136718 84.136719v9.890625c0 58.824219-37.675781 106.511719-84.144531 106.511719-46.464844 0-84.140625-47.6875-84.140625-106.511719v-9.890625c0-46.46875 37.671875-84.136719 84.136719-84.136719zm0 0" fill="#b1de54"/><path d="m143.519531 243.945312c-12.503906 0-23.308593-10.546874-25.691406-25.078124-.691406-4.210938 2.164063-8.1875 6.375-8.875 4.207031-.683594 8.183594 2.164062 8.875 6.371093 1.132813 6.914063 5.621094 12.128907 10.441406 12.128907 4.816407 0 9.304688-5.214844 10.4375-12.128907.691407-4.207031 4.671875-7.058593 8.875-6.371093 4.210938.6875 7.066407 4.664062 6.375 8.875-2.382812 14.527343-13.183593 25.078124-25.6875 25.078124zm0 0" fill="#7aa50f"/><path d="m105.242188 190.507812c-4.265626 0-7.726563-3.457031-7.726563-7.726562v-.871094c0-4.269531 3.460937-7.726562 7.726563-7.726562 4.265624 0 7.726562 3.460937 7.726562 7.726562v.871094c0 4.269531-3.460938 7.726562-7.726562 7.726562zm0 0" fill="#7aa50f"/><path d="m181.792969 190.507812c-4.265625 0-7.722657-3.457031-7.722657-7.726562v-.871094c0-4.269531 3.457032-7.726562 7.722657-7.726562 4.269531 0 7.726562 3.460937 7.726562 7.726562v.871094c0 4.269531-3.457031 7.726562-7.726562 7.726562zm0 0" fill="#7aa50f"/><path d="m151.246094 350.167969v161.832031h-15.433594c-.019531-.113281-.019531-.214844-.019531-.328125v-161.183594c0-4.234375 3.253906-7.921875 7.488281-8.046875 4.378906-.132812 7.964844 3.378906 7.964844 7.726563zm0 0" fill="#729309"/><path d="m123.164062 291.847656h-22.683593c-3.644531 0-6.996094 2.226563-8.734375 5.804688l-9.175782 18.882812c-2.703124 5.5625-.695312 12.523438 4.410157 15.28125l43.863281 23.6875c4.746094 2.5625 10.230469-1.863281 8.730469-7.042968zm0 0" fill="#92c927"/><path d="m163.875 291.847656h22.683594c3.644531 0 6.996094 2.226563 8.734375 5.804688l9.171875 18.882812c2.703125 5.5625.695312 12.523438-4.40625 15.28125l-43.867188 23.6875c-4.742187 2.5625-10.230468-1.863281-8.726562-7.042968zm0 0" fill="#92c927"/><path d="m201.285156 482.242188h-30.84375c-4.269531 0-7.726562-3.460938-7.726562-7.726563 0-4.269531 3.457031-7.726563 7.726562-7.726563h30.84375c4.265625 0 7.726563 3.460938 7.726563 7.726563 0 4.269531-3.460938 7.726563-7.726563 7.726563zm0 0" fill="#729309"/><path d="m116.597656 482.242188h-30.84375c-4.269531 0-7.726562-3.460938-7.726562-7.726563 0-4.269531 3.457031-7.726563 7.726562-7.726563h30.84375c4.265625 0 7.726563 3.460938 7.726563 7.726563 0 4.269531-3.460938 7.726563-7.726563 7.726563zm0 0" fill="#729309"/><path d="m110.632812 406.386719h-18.917968c-3.292969 0-5.960938 2.667969-5.960938 5.960937v16.980469c0 8.519531 6.90625 15.421875 15.421875 15.421875s15.421875-6.902344 15.421875-15.421875v-16.980469c0-3.289062-2.671875-5.960937-5.964844-5.960937zm0 0" fill="#b1de54"/><path d="m195.6875 406.386719h-18.917969c-3.292969 0-5.960937 2.667969-5.960937 5.960937v16.980469c0 8.519531 6.902344 15.421875 15.421875 15.421875 8.515625 0 15.421875-6.902344 15.421875-15.421875v-16.980469c0-3.289062-2.671875-5.960937-5.964844-5.960937zm0 0" fill="#b1de54"/><path d="m246.347656 134.71875h-205.65625v-31.890625c0-56.792969 46.035156-102.828125 102.828125-102.828125 56.789063 0 102.824219 46.035156 102.824219 102.828125v31.890625zm0 0" fill="#92c927"/><path d="m246.34375 102.828125v31.886719h-42.34375v-31.886719c0-28.394531-11.507812-54.101563-30.121094-72.707031-13.84375-13.855469-31.625-23.777344-51.527344-27.9375 6.832032-1.429688 13.917969-2.17968775 21.167969-2.17968775 28.390625 0 54.101563 11.50390575 72.703125 30.12109375 18.613282 18.601562 30.121094 44.3125 30.121094 72.703125zm0 0" fill="#7aa50f"/><path d="m279.308594 142.445312h-271.582032c-4.265624 0-7.726562-3.460937-7.726562-7.726562s3.460938-7.726562 7.726562-7.726562h271.582032c4.269531 0 7.726562 3.460937 7.726562 7.726562s-3.457031 7.726562-7.726562 7.726562zm0 0" fill="#7aa50f"/><g fill="#b1de54"><path d="m228.371094 304.546875 5.757812-5.757813c3.746094-3.75 9.824219-3.75 13.574219 0l27.796875 27.796876c3.75 3.75 3.75 9.828124 0 13.574218l-5.757812 5.757813c-3.746094 3.75-9.824219 3.75-13.574219 0l-27.796875-27.796875c-3.75-3.75-3.75-9.824219 0-13.574219zm0 0"/><path d="m58.667969 304.546875-5.757813-5.757813c-3.75-3.75-9.828125-3.75-13.574218 0l-27.800782 27.796876c-3.746094 3.75-3.746094 9.828124 0 13.574218l5.757813 5.757813c3.75 3.75 9.828125 3.75 13.574219 0l27.800781-27.796875c3.746093-3.75 3.746093-9.824219 0-13.574219zm0 0"/><path d="m130.160156 106.351562c-1.976562 0-3.953125-.753906-5.460937-2.261718l-12.136719-12.136719c-1.449219-1.449219-2.261719-3.414063-2.261719-5.464844v-10.109375c0-4.269531 3.457031-7.726562 7.726563-7.726562 4.265625 0 7.722656 3.457031 7.722656 7.726562v6.910156l9.875 9.871094c3.015625 3.015625 3.015625 7.910156 0 10.925782-1.507812 1.511718-3.488281 2.265624-5.464844 2.265624zm0 0"/><path d="m156.875 106.351562c-1.976562 0-3.953125-.753906-5.460938-2.265624-3.019531-3.015626-3.015624-7.90625 0-10.925782l9.871094-9.871094v-6.910156c0-4.269531 3.460938-7.726562 7.726563-7.726562s7.726562 3.457031 7.726562 7.726562v10.109375c0 2.050781-.816406 4.015625-2.265625 5.464844l-12.132812 12.136719c-1.507813 1.507812-3.488282 2.261718-5.464844 2.261718zm0 0"/></g></svg>