<svg height="512pt" viewBox="-25 0 512 512.001" width="512pt" xmlns="http://www.w3.org/2000/svg"><path d="m462.984375 177.40625v324.292969c0 5.6875-4.613281 10.300781-10.300781 10.300781h-163.242188v-449.5h58.636719c15.164063 0 29.648437 2.9375 42.90625 8.292969 42.207031 16.988281 72 58.320312 72 106.613281zm0 0" fill="#ffb685"/><path d="m323.023438 410.03125c0 11.933594 9.695312 21.636719 21.625 21.636719 25.558593 0 46.347656 20.789062 46.347656 46.347656 0 13.414063-5.726563 25.515625-14.867188 33.984375h-86.6875v-449.5h58.636719c15.164063 0 29.648437 2.9375 42.90625 8.292969-.328125 25.269531-20.984375 45.722656-46.335937 45.722656-11.929688 0-21.625 9.703125-21.625 21.621094 0 11.929687 9.695312 21.625 21.625 21.625 25.558593 0 46.347656 20.796875 46.347656 46.347656 0 25.558594-20.789063 46.359375-46.347656 46.359375-11.929688 0-21.625 9.691406-21.625 21.621094 0 11.917968 9.695312 21.625 21.625 21.625 25.558593 0 46.347656 20.789062 46.347656 46.347656s-20.789063 46.347656-46.347656 46.347656c-11.929688 0-21.625 9.703125-21.625 21.621094zm0 0" fill="#fc9854"/><path d="m462.984375 177.40625v324.292969c0 5.6875-4.613281 10.300781-10.300781 10.300781h-18.542969v-334.59375c0-63.457031-51.449219-114.90625-114.90625-114.90625h28.84375c63.460937 0 114.90625 51.445312 114.90625 114.90625zm0 0" fill="#fc9854"/><path d="m173.542969 62.5v449.5h-163.242188c-5.6875 0-10.300781-4.613281-10.300781-10.300781v-324.292969c0-48.292969 29.792969-89.625 72-106.613281 13.257812-5.355469 27.742188-8.292969 42.90625-8.292969zm0 0" fill="#ffb685"/><path d="m173.542969 62.5v449.5h-86.6875c-9.140625-8.46875-14.867188-20.574219-14.867188-33.984375 0-25.5625 20.789063-46.351563 46.347657-46.351563 11.929687 0 21.625-9.703124 21.625-21.632812 0-11.917969-9.695313-21.621094-21.625-21.621094-25.558594 0-46.347657-20.789062-46.347657-46.347656s20.789063-46.347656 46.347657-46.347656c11.929687 0 21.625-9.707032 21.625-21.625 0-11.929688-9.695313-21.625-21.625-21.625-25.558594 0-46.347657-20.800782-46.347657-46.355469 0-25.550781 20.789063-46.347656 46.347657-46.347656 11.929687 0 21.625-9.695313 21.625-21.625 0-11.917969-9.695313-21.625-21.625-21.625-25.351563 0-46.007813-20.449219-46.335938-45.71875 13.257812-5.355469 27.742188-8.292969 42.90625-8.292969zm0 0" fill="#fc9854"/><path d="m344.644531 512c18.773438 0 33.988281-15.21875 33.988281-33.988281s-15.21875-33.984375-33.988281-33.984375-33.984375-15.21875-33.984375-33.988282c0-18.769531 15.214844-33.988281 33.984375-33.988281s33.988281-15.214843 33.988281-33.984375c0-18.773437-15.21875-33.988281-33.988281-33.988281s-33.984375-15.21875-33.984375-33.988281c0-18.769532 15.214844-33.984375 33.984375-33.984375s33.988281-15.21875 33.988281-33.988281c0-18.769532-15.21875-33.988282-33.988281-33.988282s-33.984375-15.214844-33.984375-33.984375c0-18.773437 15.214844-33.988281 33.984375-33.988281s33.988281-15.21875 33.988281-33.988281-15.21875-33.984375-33.988281-33.984375h-90.226562v475.816406zm0 0" fill="#b1de54"/><path d="m118.339844 512c-18.769532 0-33.988282-15.21875-33.988282-33.988281s15.21875-33.984375 33.988282-33.984375c18.769531 0 33.988281-15.21875 33.988281-33.988282 0-18.769531-15.21875-33.988281-33.988281-33.988281-18.769532 0-33.988282-15.214843-33.988282-33.984375 0-18.773437 15.21875-33.988281 33.988282-33.988281 18.769531 0 33.988281-15.21875 33.988281-33.988281 0-18.769532-15.21875-33.984375-33.988281-33.984375-18.769532 0-33.988282-15.21875-33.988282-33.988281 0-18.769532 15.21875-33.988282 33.988282-33.988282 18.769531 0 33.988281-15.214844 33.988281-33.984375 0-18.773437-15.21875-33.988281-33.988281-33.988281-18.769532 0-33.988282-15.222656-33.988282-33.992188 0-18.773437 15.21875-33.988281 33.988282-33.988281h90.226562v475.824219zm0 0" fill="#b1de54"/><path d="m290.71875 59.226562v452.773438h-118.453125v-452.773438c0-32.710937 26.519531-59.226562 59.226563-59.226562 16.359374 0 31.164062 6.632812 41.878906 17.347656 10.722656 10.714844 17.347656 25.527344 17.347656 41.878906zm0 0" fill="#f22"/><path d="m230.132812 75.445312c45.433594 0 82.265626 36.832032 82.265626 82.265626v1.898437c0 57.511719-36.835938 104.136719-82.265626 104.136719-45.433593 0-82.265624-46.625-82.265624-104.136719v-1.898437c0-45.433594 36.828124-82.265626 82.261718-82.265626zm0 0" fill="#ffdec2"/><path d="m230.132812 225.445312c-12.472656 0-23.25-10.519531-25.625-25.011718-.691406-4.210938 2.160157-8.183594 6.375-8.875 4.210938-.683594 8.183594 2.164062 8.875 6.375 1.125 6.875 5.585938 12.058594 10.375 12.058594 4.785157 0 9.246094-5.183594 10.375-12.058594.691407-4.210938 4.671876-7.058594 8.875-6.375 4.210938.691406 7.0625 4.664062 6.375 8.875-2.378906 14.492187-13.15625 25.011718-25.625 25.011718zm0 0" fill="#ffb685"/><path d="m192.710938 178.355469c-4.269532 0-7.726563-3.460938-7.726563-7.726563v-.855468c0-4.265626 3.457031-7.722657 7.726563-7.722657 4.265624 0 7.722656 3.457031 7.722656 7.722657v.855468c0 4.265625-3.457032 7.726563-7.722656 7.726563zm0 0" fill="#00d8e0"/><path d="m267.554688 178.355469c-4.265626 0-7.726563-3.460938-7.726563-7.726563v-.855468c0-4.265626 3.460937-7.722657 7.726563-7.722657 4.265624 0 7.726562 3.457031 7.726562 7.722657v.855468c0 4.265625-3.460938 7.726563-7.726562 7.726563zm0 0" fill="#00d8e0"/><path d="m320.253906 127.628906c-80.984375 26.671875-128.351562-8.097656-144-22.972656-.277344-.277344-.546875-.535156-.804687-.785156-3.410157-3.316406-4.078125-8.550782-1.636719-12.628906.464844-.78125.988281-1.605469 1.585938-2.460938 7.765624-11.320312 26.589843-28.546875 69.144531-28.546875 44.484375 0 70.652343 30.691406 82.292969 49.007813 4.347656 6.816406 1.101562 15.851562-6.582032 18.386718zm0 0" fill="#fa0"/><path d="m255.402344 101.71875c-1.132813 3.152344-4.109375 5.109375-7.273438 5.109375-.863281 0-1.75-.140625-2.617187-.449219-31.675781-11.40625-60.203125-4.503906-69.257813-1.722656-.277344-.277344-.546875-.535156-.804687-.785156-3.410157-3.316406-4.078125-8.550782-1.636719-12.628906.464844-.78125.988281-1.605469 1.585938-2.460938 13.484374-3.625 42.671874-8.714844 75.347656 3.050781 4.019531 1.449219 6.097656 5.871094 4.65625 9.886719zm0 0" fill="#ff8b00"/><path d="m257.917969 468.785156c0 15.851563-8.769531 30.226563-22.882813 37.507813-2.8125 1.453125-5.335937 3.398437-7.457031 5.707031h-18.429687c3.945312-8.324219 10.589843-15.195312 18.800781-19.441406 8.953125-4.613282 14.515625-13.730469 14.515625-23.773438 0-10.054687-5.5625-19.171875-14.515625-23.789062-14.113281-7.28125-22.878907-21.664063-22.878907-37.519532 0-15.855468 8.765626-30.234374 22.878907-37.515624 8.953125-4.617188 14.515625-13.734376 14.515625-23.789063 0-10.042969-5.5625-19.160156-14.515625-23.777344-3.789063-1.957031-5.273438-6.625-3.316407-10.414062 1.945313-3.792969 6.613282-5.273438 10.40625-3.316407 14.113282 7.28125 22.878907 21.652344 22.878907 37.507813 0 15.863281-8.765625 30.234375-22.878907 37.519531-8.953124 4.625-14.515624 13.730469-14.515624 23.785156 0 10.054688 5.5625 19.164063 14.515624 23.789063 14.109376 7.28125 22.878907 21.652344 22.878907 37.519531zm0 0" fill="#fa0"/></svg>