<svg height="512pt" viewBox="-121 0 512 512.0001" width="512pt" xmlns="http://www.w3.org/2000/svg"><path d="m181.585938 297.105469c41.910156 0 74-37.558594 67.144531-78.902344-4.117188-24.820313-6.304688-49.289063-6.304688-65.761719v-33.261718c0-59.21875-48.007812-107.226563-107.226562-107.226563s-107.226563 48.007813-107.226563 107.226563v33.261718c0 16.472656-2.1875 40.941406-6.300781 65.761719-6.855469 41.34375 25.230469 78.902344 67.140625 78.902344zm0 0" fill="#d88850"/><path d="m181.589844 297.105469h-92.777344c-41.90625 0-73.992188-37.558594-67.144531-78.902344.890625-5.371094 1.683593-10.730469 2.398437-15.996094 8.792969 26.898438 34.148438 46.90625 64.746094 46.90625h92.777344c30.59375 0 55.953125-20.007812 64.742187-46.90625.714844 5.265625 1.511719 10.625 2.398438 15.996094 6.851562 41.34375-25.234375 78.902344-67.140625 78.902344zm0 0" fill="#bc6c35"/><path d="m270.402344 379.847656v121.851563c0 5.6875-4.613282 10.300781-10.300782 10.300781h-249.800781c-5.6875 0-10.300781-4.613281-10.300781-10.300781v-121.851563c0-12.84375 2.75-25.054687 7.707031-36.054687 13.761719-30.640625 44.554688-51.972657 80.3125-51.972657h94.363281c35.757813 0 66.550782 21.332032 80.3125 51.972657 4.957032 11 7.707032 23.210937 7.707032 36.054687zm0 0" fill="#ff8294"/><path d="m181.523438 512h-92.644532v-50.996094c0-25.585937 20.738282-46.324218 46.324219-46.324218 25.582031 0 46.320313 20.738281 46.320313 46.324218zm0 0" fill="#f5f6e3"/><path d="m270.402344 379.84375v121.855469c0 5.6875-4.613282 10.300781-10.300782 10.300781h-38.851562v-132.144531c0-48.625-39.410156-88.03125-88.03125-88.03125h49.164062c48.609376 0 88.019532 39.410156 88.019532 88.019531zm0 0" fill="#ff4e61"/><path d="m212.742188 342.054688c-2.777344 1.105468-5.914063 1.730468-9.394532 1.730468h-136.292968c-27.226563 0-33.773438-38.082031-8.066407-47.054687 9.082031-3.179688 18.863281-4.910157 29.035157-4.910157h94.355468c10.171875 0 19.949219 1.730469 29.039063 4.910157 22.425781 7.828125 20.300781 37.796875 1.324219 45.324219zm0 0" fill="#ffcfa1"/><path d="m212.742188 342.054688c-14.144532-29.699219-44.429688-50.234376-79.523438-50.234376h49.160156c10.171875 0 19.949219 1.730469 29.035156 4.910157 22.429688 7.828125 20.304688 37.796875 1.328126 45.324219zm0 0" fill="#ffb685"/><path d="m114.058594 245.003906h42.285156v67.492188h-42.285156zm0 0" fill="#ffcfa1"/><path d="m156.34375 245.003906v35.566406c-6.855469 1.835938-13.929688 2.785157-21.144531 2.785157-7.210938 0-14.289063-.949219-21.140625-2.785157v-35.566406zm0 0" fill="#ffb685"/><path d="m56.875 373.902344v138.097656h-15.453125v-138.097656c0-4.261719 3.460937-7.722656 7.726563-7.722656 4.277343 0 7.726562 3.460937 7.726562 7.722656zm0 0" fill="#ff4e61"/><path d="m262.539062 175.878906c0 15.503906-12.570312 28.074219-28.074218 28.074219s-28.070313-12.570313-28.070313-28.074219 12.566407-28.070312 28.070313-28.070312 28.074218 12.566406 28.074218 28.070312zm0 0" fill="#ffb685"/><path d="m64.007812 175.878906c0 15.503906-12.566406 28.074219-28.070312 28.074219s-28.074219-12.570313-28.074219-28.074219 12.570313-28.070312 28.074219-28.070312 28.070312 12.566406 28.070312 28.070312zm0 0" fill="#ffb685"/><path d="m157.371094 86.25c35.472656 0 64.226562 28.753906 64.226562 64.226562v11.917969c0 60.398438-38.683594 109.363281-86.398437 109.363281-47.710938 0-86.394531-48.964843-86.394531-109.363281v-11.917969c0-35.472656 28.753906-64.226562 64.226562-64.226562zm0 0" fill="#ffcfa1"/><g fill="#ff8294"><path d="m98.050781 201.421875c0 4.828125-3.917969 8.746094-8.746093 8.746094-4.828126 0-8.742188-3.917969-8.742188-8.746094s3.914062-8.742187 8.742188-8.742187c4.828124 0 8.746093 3.914062 8.746093 8.742187zm0 0"/><path d="m172.351562 201.421875c0-4.828125 3.917969-8.742187 8.746094-8.742187s8.742188 3.914062 8.742188 8.742187"/><path d="m189.839844 201.421875c0 4.828125-3.914063 8.746094-8.742188 8.746094s-8.746094-3.917969-8.746094-8.746094"/></g><path d="m94.113281 184.816406c-4.269531 0-7.726562-3.457031-7.726562-7.722656v-.898438c0-4.265624 3.457031-7.726562 7.726562-7.726562 4.265625 0 7.726563 3.460938 7.726563 7.726562v.898438c0 4.265625-3.460938 7.722656-7.726563 7.722656zm0 0" fill="#5a5a52"/><path d="m176.289062 184.816406c-4.265624 0-7.726562-3.457031-7.726562-7.722656v-.898438c0-4.265624 3.460938-7.726562 7.726562-7.726562 4.269532 0 7.726563 3.460938 7.726563 7.726562v.898438c0 4.265625-3.457031 7.722656-7.726563 7.722656zm0 0" fill="#5a5a52"/><path d="m199.972656 65.78125s3.664063 65.0625-154.476562 65.0625v-25.058594c0-22.09375 17.910156-40.003906 40.003906-40.003906zm0 0" fill="#d88850"/><path d="m40.164062 6.847656c-3.503906 21.6875-1.722656 44.621094.011719 58.300782.75 5.929687 7.367188 9.101562 12.464844 5.980468l49.636719-30.398437c5.113281-3.132813 5.273437-10.496094.300781-13.847657-11.515625-7.761718-31.246094-19.785156-51.683594-26.464843-4.804687-1.570313-9.925781 1.441406-10.730469 6.429687zm0 0" fill="#fa0"/><path d="m70.425781 60.234375-17.785156 10.890625c-5.097656 3.125-11.71875-.046875-12.460937-5.972656-1.179688-9.308594-2.386719-22.894532-1.929688-37.46875 13.046875 6.195312 24.664062 13.429687 32.480469 18.699218 4.96875 3.351563 4.804687 10.722657-.304688 13.851563zm0 0" fill="#ff8294"/><path d="m139.808594 84.226562c-3.457032 0-6.605469-2.335937-7.488282-5.84375-1.039062-4.136718 1.46875-8.335937 5.609376-9.378906 27.941406-7.03125 35.25-23.464844 35.3125-23.628906 1.59375-3.960938 6.09375-5.878906 10.050781-4.289062 3.960937 1.59375 5.878906 6.089843 4.289062 10.050781-.390625.96875-9.941406 23.808593-45.882812 32.851562-.632813.160157-1.265625.238281-1.890625.238281zm0 0" fill="#bc6c35"/><path d="m230.238281 6.847656c3.5 21.6875 1.722657 44.621094-.011719 58.300782-.75 5.929687-7.367187 9.101562-12.464843 5.980468l-49.636719-30.398437c-5.113281-3.132813-5.273438-10.496094-.300781-13.847657 11.515625-7.761718 31.246093-19.785156 51.683593-26.464843 4.804688-1.570313 9.925782 1.441406 10.730469 6.429687zm0 0" fill="#fa0"/><path d="m199.976562 60.234375 17.785157 10.890625c5.097656 3.125 11.71875-.046875 12.460937-5.972656 1.179688-9.308594 2.386719-22.894532 1.929688-37.46875-13.046875 6.195312-24.664063 13.429687-32.480469 18.699218-4.972656 3.351563-4.808594 10.722657.304687 13.851563zm0 0" fill="#ff8294"/><path d="m148.070312 234.183594c-4.792968 0-9.285156-1.867188-12.871093-5.128906-3.582031 3.261718-8.074219 5.128906-12.867188 5.128906-5.167969 0-10.113281-2.191406-13.925781-6.167969-3.382812-3.527344-5.714844-8.339844-6.570312-13.558594-.6875-4.210937 2.164062-8.183593 6.375-8.875 4.214843-.691406 8.183593 2.164063 8.875 6.375.625 3.800781 2.925781 6.773438 5.246093 6.773438 1.816407 0 3.769531-1.960938 4.738281-4.769531 1.203126-3.46875 4.46875-5.796876 8.128907-5.796876 3.664062 0 6.929687 2.328126 8.128906 5.792969.972656 2.8125 2.921875 4.773438 4.742187 4.773438 2.316407 0 4.621094-2.972657 5.242188-6.773438.691406-4.210937 4.660156-7.074219 8.875-6.375 4.210938.691407 7.066406 4.664063 6.375 8.875-.855469 5.21875-3.1875 10.03125-6.570312 13.558594-3.808594 3.976563-8.753907 6.167969-13.921876 6.167969zm0 0" fill="#ffb685"/><path d="m166.105469 357.988281c0 17.066407-13.835938 30.90625-30.90625 30.90625-17.066407 0-30.902344-13.839843-30.902344-30.90625 0-17.070312 13.835937-30.90625 30.902344-30.90625 17.070312 0 30.90625 13.835938 30.90625 30.90625zm0 0" fill="#ffd02f"/><path d="m166.105469 357.988281c0 17.070313-13.835938 30.90625-30.90625 30.90625-3.324219 0-6.527344-.527343-9.527344-1.503906 12.414063-4.007813 21.375-15.660156 21.375-29.402344 0-13.742187-8.960937-25.394531-21.375-29.402343 3-.976563 6.203125-1.503907 9.527344-1.503907 17.070312 0 30.90625 13.835938 30.90625 30.90625zm0 0" fill="#fa0"/><path d="m135.199219 376.015625c-4.265625 0-7.722657-3.457031-7.722657-7.726563v-10.300781c0-4.269531 3.457032-7.726562 7.722657-7.726562 4.269531 0 7.726562 3.460937 7.726562 7.726562v10.300781c0 4.269532-3.457031 7.726563-7.726562 7.726563zm0 0" fill="#ff8b00"/><path d="m166.105469 365.714844h-61.808594c-4.269531 0-7.726563-3.460938-7.726563-7.726563 0-4.269531 3.457032-7.726562 7.726563-7.726562h61.808594c4.269531 0 7.726562 3.460937 7.726562 7.726562 0 4.269531-3.457031 7.726563-7.726562 7.726563zm0 0" fill="#fa0"/></svg>