<svg height="512pt" viewBox="-80 0 512 512.001" width="512pt" xmlns="http://www.w3.org/2000/svg"><path d="m313.394531 378.046875v123.652344c0 5.691406-4.613281 10.300781-10.300781 10.300781h-253.488281c-5.6875 0-10.300781-4.609375-10.300781-10.300781v-123.652344c0-49.277344 39.949218-89.226563 89.222656-89.226563h95.644531c49.277344 0 89.222656 39.949219 89.222656 89.226563zm0 0" fill="#bc6c35"/><g fill="#af4d00"><path d="m183.972656 329.996094v182.003906h-15.453125v-182.003906c0-4.273438 3.460938-7.722656 7.726563-7.722656 4.277344 0 7.726562 3.449218 7.726562 7.722656zm0 0"/><path d="m313.390625 378.046875v123.652344c0 5.6875-4.609375 10.300781-10.300781 10.300781h-39.519532v-133.945312c0-49.285157-39.945312-89.226563-89.230468-89.226563h49.832031c49.273437 0 89.21875 39.941406 89.21875 89.21875zm0 0"/><path d="m96.859375 372.027344v139.972656h-15.453125v-139.972656c0-4.273438 3.453125-7.722656 7.726562-7.722656 4.265626 0 7.726563 3.449218 7.726563 7.722656zm0 0"/></g><path d="m197.78125 331.984375v-90.617187h-42.863281v90.617187l15.113281 8.75c3.90625 2.261719 8.726562 2.261719 12.636719 0zm0 0" fill="#ffb685"/><path d="m305.421875 171.304688c0 15.714843-12.738281 28.453124-28.453125 28.453124s-28.457031-12.738281-28.457031-28.453124c0-15.714844 12.742187-28.453126 28.457031-28.453126s28.453125 12.738282 28.453125 28.453126zm0 0" fill="#ffcfa1"/><path d="m104.1875 171.304688c0 15.714843-12.738281 28.453124-28.453125 28.453124s-28.457031-12.738281-28.457031-28.453124c0-15.714844 12.742187-28.453126 28.457031-28.453126s28.453125 12.738282 28.453125 28.453126zm0 0" fill="#ffcfa1"/><path d="m263.921875 80.453125v77.179687c0 61.21875-39.210937 110.855469-87.570313 110.855469-48.363281 0-87.574218-49.636719-87.574218-110.855469v-77.179687zm0 0" fill="#ffdec2"/><path d="m176.351562 227.214844c-13.03125 0-24.296874-11.023438-26.789062-26.207032-.6875-4.210937 2.164062-8.183593 6.375-8.875 4.21875-.6875 8.183594 2.164063 8.875 6.375 1.238281 7.554688 6.199219 13.253907 11.535156 13.253907 5.339844 0 10.296875-5.699219 11.539063-13.253907.6875-4.210937 4.660156-7.0625 8.875-6.375 4.210937.691407 7.0625 4.664063 6.371093 8.875-2.488281 15.183594-13.753906 26.207032-26.78125 26.207032zm0 0" fill="#ffb685"/><path d="m136.515625 177.089844c-4.269531 0-7.726563-3.460938-7.726563-7.726563v-.910156c0-4.265625 3.457032-7.726563 7.726563-7.726563 4.265625 0 7.722656 3.460938 7.722656 7.726563v.910156c0 4.265625-3.457031 7.726563-7.722656 7.726563zm0 0" fill="#159bff"/><path d="m216.1875 177.089844c-4.269531 0-7.726562-3.460938-7.726562-7.726563v-.910156c0-4.265625 3.457031-7.726563 7.726562-7.726563 4.265625 0 7.726562 3.460938 7.726562 7.726563v.910156c0 4.265625-3.460937 7.726563-7.726562 7.726563zm0 0" fill="#159bff"/><path d="m276.96875 86.523438v15.917968c0 2.574219-.289062 5.066406-.84375 7.480469-3.390625 14.75-16.617188 25.761719-32.410156 25.761719h-134.730469c-15.792969 0-29.019531-11.011719-32.40625-25.761719-.558594-2.414063-.847656-4.90625-.847656-7.480469v-15.917968zm0 0" fill="#bc6c35"/><path d="m276.96875 86.523438v15.917968c0 2.574219-.289062 5.066406-.84375 7.480469h-199.546875c-.558594-2.414063-.847656-4.90625-.847656-7.480469v-15.917968zm0 0" fill="#af4d00"/><path d="m277.359375 97.5625h-202.015625c-5.714844 0-10.34375-4.632812-10.34375-10.34375v-17.472656c0-38.519532 31.226562-69.746094 69.746094-69.746094h83.210937c38.515625 0 69.742188 31.226562 69.742188 69.746094v17.472656c0 5.710938-4.628907 10.34375-10.339844 10.34375zm0 0" fill="#d88850"/><path d="m132.277344 287.636719v154.332031c0 5.6875-4.601563 10.300781-10.300782 10.300781h-111.628906c-6.726562 0-11.664062-6.324219-10.035156-12.855469l6.253906-24.859374 4.316406-17.191407 3.882813-15.453125 12.527344-49.832031c6.5625-26.125 30.050781-44.441406 56.980469-44.441406zm0 0" fill="#af4d00"/><path d="m6.5625 414.554688h125.71875v27.414062c0 5.691406-4.609375 10.304688-10.300781 10.304688h-111.632813c-6.734375 0-11.664062-6.332032-10.03125-12.855469zm0 0" fill="#b1de54"/><path d="m342.351562 452.269531h-111.628906c-5.695312 0-10.300781-4.613281-10.300781-10.300781v-154.332031h48.003906c26.929688 0 50.417969 18.316406 56.980469 44.441406l12.527344 49.832031 3.882812 15.453125 4.316406 17.191407 6.253907 24.859374c1.628906 6.53125-3.304688 12.855469-10.035157 12.855469zm0 0" fill="#af4d00"/><path d="m342.351562 452.273438h-111.632812c-5.6875 0-10.300781-4.613282-10.300781-10.304688v-27.414062h125.71875l6.246093 24.863281c1.636719 6.523437-3.296874 12.855469-10.03125 12.855469zm0 0" fill="#b1de54"/><path d="m155.246094 285.097656h-23.515625c-3.777344 0-7.253907 2.066406-9.054688 5.390625l-9.507812 17.527344c-2.804688 5.167969-.722657 11.628906 4.566406 14.1875l43.238281 20.910156c5.820313 2.816407 12.171875-2.71875 10.183594-8.871093zm0 0" fill="#d88850"/><path d="m197.453125 285.097656h23.515625c3.777344 0 7.253906 2.066406 9.054688 5.390625l9.511718 17.527344c2.800782 5.167969.722656 11.628906-4.570312 14.1875l-43.238282 20.910156c-5.820312 2.816407-12.171874-2.71875-10.179687-8.871093zm0 0" fill="#d88850"/><path d="m132.277344 381.910156v15.449219h-121.394532l3.882813-15.449219zm0 0" fill="#b1de54"/><path d="m341.816406 397.359375h-121.394531v-15.449219h117.511719zm0 0" fill="#b1de54"/><path d="m197.78125 380.203125c-4.265625 0-7.722656-3.457031-7.722656-7.722656v-.910157c0-4.265624 3.457031-7.726562 7.722656-7.726562 4.269531 0 7.726562 3.460938 7.726562 7.726562v.910157c0 4.265625-3.457031 7.722656-7.726562 7.722656zm0 0" fill="#d88850"/><path d="m197.78125 430.273438c-4.265625 0-7.722656-3.460938-7.722656-7.726563v-.910156c0-4.265625 3.457031-7.726563 7.722656-7.726563 4.269531 0 7.726562 3.460938 7.726562 7.726563v.910156c0 4.265625-3.457031 7.726563-7.726562 7.726563zm0 0" fill="#d88850"/><path d="m197.78125 480.339844c-4.265625 0-7.722656-3.460938-7.722656-7.726563v-.910156c0-4.265625 3.457031-7.726563 7.722656-7.726563 4.269531 0 7.726562 3.460938 7.726562 7.726563v.910156c0 4.265625-3.457031 7.726563-7.726562 7.726563zm0 0" fill="#d88850"/></svg>