<svg height="512pt" viewBox="-127 0 512 512.00025" width="512pt" xmlns="http://www.w3.org/2000/svg"><path d="m235.847656 164.28125v173.148438h-192.804687c-19.507813 0-35.519531-15.683594-35.636719-35.191407-.011719-.136719-.011719-.261719-.011719-.398437 0-13.175782 4.011719-25.421875 10.875-35.578125 6.867188-10.167969 10.878907-22.414063 10.878907-35.589844 0-13.1875-4.011719-25.429687-10.878907-35.589844-6.863281-10.15625-10.875-22.402343-10.875-35.578125 0-13.1875 4.011719-25.433594 10.875-35.589844.320313-.476562.632813-1.039062.921875-1.6875 18.820313-41.746093 59.292969-69.480468 105.089844-69.480468h.027344c29.277344 0 55.914062 11.273437 75.8125 29.734375 21.976562 20.359375 35.726562 49.472656 35.726562 81.800781zm0 0" fill="#00d8e0"/><path d="m62.234375 274.105469c-1.734375 0-3.484375-.582031-4.925781-1.777344-3.285156-2.722656-3.738282-7.59375-1.015625-10.878906 9.925781-11.96875 10.203125-25.5 10.203125-25.636719 0-4.265625 3.457031-7.722656 7.726562-7.722656 4.265625 0 7.722656 3.457031 7.722656 7.722656 0 .773438-.152343 19.09375-13.757812 35.5-1.527344 1.84375-3.730469 2.792969-5.953125 2.792969zm0 0" fill="#00bdc6"/><path d="m167.023438 238.9375c-.757813 4.078125-1.140626 8.242188-1.140626 12.457031 0 13.605469 4.007813 26.742188 11.601563 37.976563 4.984375 7.371094 7.613281 15.984375 7.613281 24.925781 0 6.023437-1.175781 11.867187-3.496094 17.355469-.796874 1.871094-1.261718 3.824218-1.425781 5.777344h55.671875v-98.492188zm0 0" fill="#00bdc6"/><path d="m235.847656 285.964844v51.464844h-192.804687c-19.507813 0-35.519531-15.683594-35.636719-35.191407-.011719-.136719-.011719-.261719-.011719-.398437 0-10.75 2.671875-20.867188 7.371094-29.753906 6.535156 8.449218 16.796875 13.878906 28.277344 13.878906zm0 0" fill="#00bdc6"/><path d="m257.359375 386.234375v115.464844c0 5.6875-4.609375 10.300781-10.300781 10.300781h-236.757813c-5.6875 0-10.300781-4.613281-10.300781-10.300781v-115.464844c0-46.273437 37.511719-83.785156 83.785156-83.785156h89.789063c46.273437.003906 83.785156 37.511719 83.785156 83.785156zm0 0" fill="#ff8294"/><path d="m54.515625 380.570312v131.429688h-15.453125v-131.429688c0-4.265624 3.453125-7.726562 7.726562-7.726562 4.265626 0 7.726563 3.460938 7.726563 7.726562zm0 0" fill="#ff4e61"/><path d="m95.628906 512h-22.035156v-113.492188c0-5.691406 4.613281-10.300781 10.304688-10.300781h11.730468zm0 0" fill="#f22"/><path d="m95.628906 388.207031h22.035156v123.792969h-22.035156zm0 0" fill="#ffd02f"/><path d="m117.664062 388.207031h22.03125v123.792969h-22.03125zm0 0" fill="#b1de54"/><path d="m139.695312 388.207031h22.035157v123.792969h-22.035157zm0 0" fill="#159bff"/><path d="m183.765625 512h-22.035156v-123.792969h11.734375c5.6875 0 10.300781 4.613281 10.300781 10.300781zm0 0" fill="#4159a5"/><path d="m257.351562 386.226562v115.472657c0 5.6875-4.609374 10.300781-10.300781 10.300781h-36.476562v-125.765625c0-46.273437-37.507813-83.777344-83.78125-83.777344h46.789062c46.265625 0 83.769531 37.503907 83.769531 83.769531zm0 0" fill="#ff4e61"/><path d="m170.417969 302.457031v14.648438c0 19.222656-15.585938 34.808593-34.808594 34.808593h-13.855469c-19.222656 0-34.8125-15.585937-34.8125-34.808593v-14.648438h21.617188v-44.5625h40.246094v44.5625zm0 0" fill="#ffcfa1"/><path d="m148.804688 257.894531v33.851563c-6.523438 1.746094-13.257813 2.648437-20.125 2.648437-6.863282 0-13.597657-.902343-20.125-2.648437v-33.851563zm0 0" fill="#ffb685"/><path d="m60.925781 192.109375c0 14.753906-11.964843 26.71875-26.71875 26.71875-14.753906 0-26.71875-11.964844-26.71875-26.71875s11.964844-26.71875 26.71875-26.71875c14.753907 0 26.71875 11.964844 26.71875 26.71875zm0 0" fill="#ffcfa1"/><path d="m138.441406 106.808594c40.019532 0 72.460938 32.441406 72.460938 72.460937v.003907c0 57.480468-36.8125 104.082031-82.222656 104.082031-45.40625 0-82.222657-46.601563-82.222657-104.082031v-.003907c0-40.019531 32.441407-72.460937 72.464844-72.460937zm0 0" fill="#ffdec2"/><path d="m196.226562 135.566406c-15.292968-3.234375-31.949218-5.011718-49.367187-5.011718h-36.355469c-17.421875 0-34.074218 1.777343-49.371094 5.011718 2-2.660156 4.195313-5.175781 6.554688-7.535156 13.109375-13.117188 31.21875-21.226562 51.234375-21.226562h19.515625c23.609375 0 44.574219 11.28125 57.789062 28.761718zm0 0" fill="#ff4e61"/><path d="m128.679688 245.078125c-12.464844 0-23.238282-10.515625-25.617188-25-.6875-4.210937 2.164062-8.1875 6.375-8.875 4.21875-.6875 8.183594 2.164063 8.875 6.371094 1.128906 6.871093 5.582031 12.050781 10.367188 12.050781 4.785156 0 9.238281-5.179688 10.367187-12.050781.6875-4.210938 4.660156-7.066407 8.875-6.371094 4.210937.6875 7.0625 4.664063 6.371094 8.875-2.375 14.484375-13.144531 25-25.613281 25zm0 0" fill="#ffb685"/><g fill="#00d8e0"><path d="m91.277344 198.011719c-4.269532 0-7.726563-3.457031-7.726563-7.722657v-.855468c0-4.265625 3.460938-7.726563 7.726563-7.726563 4.269531 0 7.726562 3.460938 7.726562 7.726563v.855468c0 4.265626-3.460937 7.722657-7.726562 7.722657zm0 0"/><path d="m166.082031 198.011719c-4.265625 0-7.726562-3.457031-7.726562-7.722657v-.855468c0-4.265625 3.460937-7.726563 7.726562-7.726563 4.269531 0 7.726563 3.460938 7.726563 7.726563v.855468c0 4.265626-3.457032 7.722657-7.726563 7.722657zm0 0"/><path d="m206.132812 94.128906c17.09375 0 30.679688 14.007813 30.578126 31.105469v.347656c0 11.652344 3.542968 22.476563 9.609374 31.453125 6.066407 8.976563 9.609376 19.800782 9.609376 31.449219 0 11.652344-3.542969 22.476563-9.609376 31.453125-6.066406 8.980469-9.609374 19.800781-9.609374 31.453125s3.542968 22.476563 9.609374 31.453125c6.066407 8.976562 9.609376 19.800781 9.609376 31.449219 0 .164062 0 .324219-.003907.484375-.144531 17.191406-14.3125 30.96875-31.5 30.96875h-25.875c-4.917969 0-8.136719-5.027344-6.222656-9.554688 2.847656-6.730468 4.421875-14.128906 4.421875-21.898437 0-11.648438-3.542969-22.472657-9.609375-31.449219s-9.609375-19.800781-9.609375-31.453125 3.542969-22.476563 9.609375-31.453125 9.609375-19.800781 9.609375-31.453125c0-11.648437-3.542969-22.472656-9.609375-31.449219-6.066406-8.980468-9.609375-19.800781-9.609375-31.453125 0-2.152343.121094-4.277343.355469-6.367187 1.613281-14.320313 13.835937-25.085938 28.246093-25.085938zm0 0"/><path d="m121.621094 94.128906c0 28.605469-23.1875 51.792969-51.789063 51.792969h-33.179687v-2.734375c0-27.007812 21.867187-48.921875 48.878906-48.980469zm0 0"/></g><path d="m69.832031 153.648438h-33.179687c-4.265625 0-7.722656-3.460938-7.722656-7.726563 0-4.269531 3.457031-7.726563 7.722656-7.726563h33.179687c24.296875 0 44.0625-19.765624 44.0625-44.0625 0-4.269531 3.457031-7.726562 7.726563-7.726562 4.265625 0 7.726562 3.460938 7.726562 7.726562 0 32.816407-26.699218 59.515626-59.515625 59.515626zm0 0" fill="#00bdc6"/><path d="m114.960938 5.390625-16.804688 78.871094c-3.179688 14.925781 8.203125 28.988281 23.464844 28.988281 15.261718 0 26.644531-14.0625 23.464844-28.988281l-16.804688-78.871094c-1.53125-7.1875-11.789062-7.1875-13.320312 0zm0 0" fill="#f5f6e3"/><path d="m223.84375 322.023438c-4.269531 0-7.726562-3.460938-7.726562-7.726563 0-9.726563-2.863282-19.105469-8.285157-27.125-7.152343-10.585937-10.933593-22.957031-10.933593-35.78125s3.78125-25.195313 10.933593-35.777344c5.421875-8.019531 8.285157-17.402343 8.285157-27.128906 0-9.722656-2.863282-19.105469-8.285157-27.125-2.390625-3.53125-1.460937-8.335937 2.074219-10.726563 3.535156-2.386718 8.339844-1.460937 10.726562 2.074219 7.15625 10.585938 10.9375 22.957031 10.9375 35.777344 0 12.824219-3.78125 25.195313-10.9375 35.78125-5.417968 8.019531-8.285156 17.398437-8.285156 27.125s2.867188 19.109375 8.285156 27.128906c7.15625 10.582031 10.9375 22.953125 10.9375 35.777344 0 4.265625-3.457031 7.726563-7.726562 7.726563zm0 0" fill="#00bdc6"/></svg>