<svg height="512pt" viewBox="-74 0 511 512" width="512pt" xmlns="http://www.w3.org/2000/svg"><path d="m347.191406 20.363281c2.726563-10.289062-5.042968-20.363281-15.6875-20.363281h-149.175781c-84.578125 0-153.140625 70.976562-153.140625 158.527344 0 87.554687 68.5625 158.53125 153.140625 158.53125s153.144531-70.976563 153.144531-158.53125c0-17.71875-2.8125-34.757813-7.996094-50.664063-5.5625-17.078125-3.503906-35.734375 5.242188-51.421875 7.34375-13.175781 11.796875-25.996094 14.472656-36.078125zm0 0" fill="#f22"/><path d="m328.464844 206.066406c-19.503906 64.328125-77.546875 110.996094-146.132813 110.996094-67.078125 0-124.082031-44.636719-144.800781-106.789062 31.929688 40.484374 84.472656 66.90625 143.867188 66.90625 61.4375 0 115.523437-28.261719 147.066406-71.113282zm0 0" fill="#d80000"/><path d="m293.109375 200.824219c2.3125-9.015625 3.539063-18.460938 3.539063-28.195313v-17.164062c0-62.535156-50.695313-113.234375-113.230469-113.234375h-1.355469c-62.539062 0-113.234375 50.699219-113.234375 113.234375v17.164062c0 9.734375 1.230469 19.179688 3.539063 28.195313zm0 0" fill="#ffd02f"/><path d="m307.980469 389.191406v112.507813c0 5.6875-4.613281 10.300781-10.300781 10.300781h-230.699219c-5.6875 0-10.300781-4.613281-10.300781-10.300781v-112.507813c0-45.183594 36.632812-81.804687 81.816406-81.804687h87.667968c45.183594 0 81.816407 36.621093 81.816407 81.804687zm0 0" fill="#ff4e61"/><path d="m110.09375 383.660156v128.339844h-15.453125v-128.339844c0-4.265625 3.449219-7.726562 7.726563-7.726562 4.265624 0 7.726562 3.460937 7.726562 7.726562zm0 0" fill="#f22"/><path d="m270.019531 383.660156v128.339844h-15.453125v-128.339844c0-4.265625 3.460938-7.726562 7.726563-7.726562 4.273437 0 7.726562 3.460937 7.726562 7.726562zm0 0" fill="#f22"/><path d="m223.085938 307.386719v14.300781c0 18.773438-15.222657 33.992188-33.992188 33.992188h-13.53125c-18.769531 0-33.988281-15.222657-33.988281-33.992188v-14.300781h21.105469v-43.515625h39.300781v43.511718h21.105469zm0 0" fill="#ffcfa1"/><path d="m201.980469 263.871094v35.324218c-6.371094 1.707032-12.949219 2.585938-19.648438 2.585938-6.703125 0-13.28125-.878906-19.652343-2.585938v-35.324218zm0 0" fill="#ffb685"/><path d="m300.667969 199.632812c0 14.40625-11.679688 26.089844-26.085938 26.089844-14.410156 0-26.089843-11.683594-26.089843-26.089844s11.679687-26.085937 26.089843-26.085937c14.40625 0 26.085938 11.679687 26.085938 26.085937zm0 0" fill="#ffcfa1"/><path d="m116.167969 199.632812c0 14.40625-11.679688 26.089844-26.089844 26.089844-14.40625 0-26.085937-11.683594-26.085937-26.089844s11.679687-26.085937 26.085937-26.085937c14.410156 0 26.089844 11.679687 26.089844 26.085937zm0 0" fill="#ffcfa1"/><path d="m102.039062 118.648438v68.453124c0 56.128907 35.949219 101.632813 80.289063 101.632813s80.292969-45.503906 80.292969-101.632813v-68.453124zm0 0" fill="#ffdec2"/><path d="m182.328125 251.539062c-12.261719 0-22.855469-10.332031-25.191406-24.566406-.691407-4.210937 2.164062-8.1875 6.375-8.875 4.210937-.691406 8.183593 2.164063 8.875 6.375 1.085937 6.621094 5.359375 11.613282 9.945312 11.613282 4.582031 0 8.855469-4.992188 9.941407-11.613282.691406-4.210937 4.671874-7.066406 8.875-6.375 4.210937.6875 7.066406 4.664063 6.375 8.875-2.335938 14.234375-12.929688 24.566406-25.195313 24.566406zm0 0" fill="#ff8294"/><path d="m145.804688 205.578125c-4.265626 0-7.722657-3.457031-7.722657-7.726563v-.832031c0-4.265625 3.457031-7.726562 7.722657-7.726562 4.269531 0 7.726562 3.460937 7.726562 7.726562v.832031c0 4.269532-3.457031 7.726563-7.726562 7.726563zm0 0" fill="#00d8e0"/><path d="m218.851562 205.578125c-4.265624 0-7.722656-3.457031-7.722656-7.726563v-.832031c0-4.265625 3.457032-7.726562 7.722656-7.726562 4.269532 0 7.726563 3.460937 7.726563 7.726562v.832031c0 4.269532-3.457031 7.726563-7.726563 7.726563zm0 0" fill="#00d8e0"/><path d="m178.316406 73.589844v27.726562c0 27.710938-24.238281 50.175782-54.140625 50.175782h-34.375v-27.726563c0-27.710937 24.242188-50.175781 54.140625-50.175781zm0 0" fill="#ffd02f"/><path d="m178.316406 73.589844v27.726562c0 27.710938 24.238282 50.175782 54.140625 50.175782h42.125v-27.726563c0-27.710937-24.242187-50.175781-54.140625-50.175781zm0 0" fill="#ffd02f"/><path d="m147.929688 224.441406c0 4.472656-3.625 8.09375-8.09375 8.09375-4.472657 0-8.097657-3.621094-8.097657-8.09375s3.625-8.097656 8.097657-8.097656c4.46875 0 8.09375 3.625 8.09375 8.097656zm0 0" fill="#ff8294"/><path d="m232.921875 224.441406c0 4.472656-3.625 8.09375-8.097656 8.09375-4.472657 0-8.097657-3.621094-8.097657-8.09375s3.625-8.097656 8.097657-8.097656c4.472656 0 8.097656 3.625 8.097656 8.097656zm0 0" fill="#ff8294"/><path d="m125.714844 476.878906 26.214844-169.496094h-30.257813c-54.851563 0-101.507813 39.996094-109.890625 94.199219l-11.15625 72.148438c-.96875 6.242187 3.863281 11.875 10.179688 11.875h104.730468c5.082032 0 9.402344-3.707031 10.179688-8.726563zm0 0" fill="#f22"/><path d="m238.941406 476.878906-26.210937-169.496094h30.257812c54.851563 0 101.507813 39.996094 109.890625 94.199219l11.15625 72.148438c.964844 6.242187-3.863281 11.875-10.179687 11.875h-104.730469c-5.082031 0-9.40625-3.707031-10.183594-8.726563zm0 0" fill="#f22"/><g fill="#d80000"><path d="m353.855469 485.605469h-21.339844l-12.992187-84.027344c-8.222657-53.179687-53.289063-92.671875-106.785157-94.148437l-.011719-.042969h30.257813c54.859375 0 101.515625 39.992187 109.898437 94.191406l11.15625 72.152344c.964844 6.242187-3.867187 11.875-10.183593 11.875zm0 0"/><path d="m201.03125 383.515625c1.550781-3.375 2.429688-7.210937 2.429688-11.285156 0-13.386719-9.480469-24.28125-21.132813-24.28125s-21.132813 10.894531-21.132813 24.28125c0 4.074219.882813 7.910156 2.429688 11.285156-4.042969 4.554687-8.671875 13.117187-8.671875 28.445313 0 4.269531 3.457031 7.726562 7.726563 7.726562 4.265624 0 7.722656-3.460938 7.722656-7.726562 0-9.695313 2.292968-14.777344 4.007812-17.222657 2.445313 1.140625 5.117188 1.777344 7.917969 1.777344s5.472656-.636719 7.917969-1.777344c1.714844 2.445313 4.007812 7.527344 4.007812 17.222657 0 4.269531 3.457032 7.726562 7.722656 7.726562 4.269532 0 7.726563-3.457031 7.726563-7.726562.003906-15.328126-4.625-23.890626-8.671875-28.445313zm-18.703125-2.457031c-2.683594 0-5.679687-3.625-5.679687-8.828125s2.996093-8.828125 5.679687-8.828125c2.6875 0 5.679687 3.625 5.679687 8.828125s-2.992187 8.828125-5.679687 8.828125zm0 0"/></g></svg>