<svg height="511pt" viewBox="-126 1 511 511.99975" width="511pt" xmlns="http://www.w3.org/2000/svg"><path d="m231.398438 89.082031c20.15625-20.15625 27.996093-44.992187 17.511718-55.476562s-35.320312-2.644531-55.476562 17.511719c-20.15625 20.152343-27.996094 44.992187-17.511719 55.476562s35.324219 2.644531 55.476563-17.511719zm0 0" fill="#f22"/><path d="m259.097656 385.617188v116.078124c0 5.6875-4.605468 10.304688-10.304687 10.304688h-237.992188c-5.695312 0-10.300781-4.617188-10.300781-10.304688v-116.078124c0-27.980469 13.640625-52.765626 34.644531-68.066407 13.898438-10.136719 31.019531-16.121093 49.53125-16.121093h90.242188c18.515625 0 35.636719 5.984374 49.53125 16.121093 21.007812 15.300781 34.648437 40.085938 34.648437 68.066407zm0 0" fill="#f5f6e3"/><path d="m259.097656 385.613281v116.085938c0 5.6875-4.613281 10.300781-10.304687 10.300781h-36.703125v-126.378906c0-46.5-37.6875-84.1875-84.1875-84.1875h47.015625c46.492187 0 84.179687 37.6875 84.179687 84.179687zm0 0" fill="#e0e0d1"/><path d="m202.941406 306.230469v205.769531h21.507813v-194.449219c-6.519531-4.753906-13.757813-8.582031-21.507813-11.320312zm0 0" fill="#cecdbc"/><path d="m53.910156 307.253906c-6.71875 2.640625-13.019531 6.109375-18.765625 10.296875v194.449219h18.765625zm0 0" fill="#e0e0d1"/><path d="m171.738281 301.433594v14.722656c0 19.3125-15.664062 34.976562-34.976562 34.976562h-13.925781c-19.316407 0-34.976563-15.664062-34.976563-34.976562v-14.722656h21.71875v-44.777344h40.441406v44.777344zm0 0" fill="#ffcfa1"/><path d="m150.019531 256.65625v34.015625c-6.554687 1.757813-13.324219 2.664063-20.21875 2.664063-6.898437 0-13.667969-.90625-20.222656-2.664063v-34.015625zm0 0" fill="#ffb685"/><path d="m251.578125 190.550781c0 14.828125-12.019531 26.847657-26.847656 26.847657s-26.847657-12.019532-26.847657-26.847657 12.019532-26.847656 26.847657-26.847656 26.847656 12.019531 26.847656 26.847656zm0 0" fill="#ffcfa1"/><path d="m61.710938 190.550781c0 14.828125-12.019532 26.847657-26.84375 26.847657-14.828126 0-26.847657-12.019532-26.847657-26.847657s12.019531-26.847656 26.847657-26.847656c14.824218 0 26.84375 12.019531 26.84375 26.847656zm0 0" fill="#ffcfa1"/><path d="m185.839844 124.351562c14.679687 0 26.582031 11.898438 26.582031 26.582032v26.71875c0 57.761718-36.992187 104.59375-82.625 104.59375-45.628906 0-82.621094-46.832032-82.621094-104.59375v-26.71875c0-14.683594 11.898438-26.582032 26.582031-26.582032zm0 0" fill="#ffdec2"/><path d="m129.800781 243.738281c-12.511719 0-23.320312-10.550781-25.703125-25.089843-.691406-4.210938 2.160156-8.183594 6.375-8.875 4.210938-.683594 8.183594 2.164062 8.875 6.375 1.132813 6.917968 5.628906 12.136718 10.453125 12.136718s9.316407-5.21875 10.453125-12.136718c.691406-4.210938 4.667969-7.058594 8.875-6.375 4.210938.691406 7.066406 4.664062 6.375 8.875-2.386718 14.539062-13.195312 25.089843-25.703125 25.089843zm0 0" fill="#ffb685"/><path d="m92.210938 196.445312c-4.265626 0-7.722657-3.457031-7.722657-7.722656v-.859375c0-4.269531 3.457031-7.726562 7.722657-7.726562 4.269531 0 7.726562 3.460937 7.726562 7.726562v.859375c0 4.265625-3.457031 7.722656-7.726562 7.722656zm0 0" fill="#00d8e0"/><path d="m167.382812 196.445312c-4.265624 0-7.726562-3.457031-7.726562-7.722656v-.859375c0-4.269531 3.460938-7.726562 7.726562-7.726562 4.269532 0 7.726563 3.460937 7.726563 7.726562v.859375c0 4.265625-3.457031 7.722656-7.726563 7.722656zm0 0" fill="#00d8e0"/><path d="m109.578125 512h-62.070313v-200.808594c0-5.390625 4.367188-9.757812 9.757813-9.757812h52.3125zm0 0" fill="#92c927"/><path d="m87.859375 301.433594h21.71875v210.566406h-21.71875zm0 0" fill="#bc6c35"/><path d="m150.019531 512h62.070313v-200.808594c0-5.390625-4.367188-9.757812-9.757813-9.757812h-52.3125zm0 0" fill="#92c927"/><path d="m150.019531 301.433594h21.714844v210.566406h-21.714844zm0 0" fill="#bc6c35"/><path d="m150.019531 377.941406v-69.921875l28.523438 47.019531c3.417969 5.632813.738281 12.984376-5.5 15.097657zm0 0" fill="#e0e0d1"/><path d="m109.578125 377.941406v-69.921875l-28.523437 47.019531c-3.417969 5.632813-.742188 12.984376 5.5 15.097657zm0 0" fill="#e0e0d1"/><path d="m212.582031 139.78125-46.035156 15.078125-21.769531 7.132813c-9.730469 3.179687-20.226563 3.179687-29.957032 0l-21.945312-7.191407-45.863281-15.019531c-6.105469-2.007812-8.644531-9.277344-5.101563-14.65625l25.125-38.042969 54.625-82.699219c3.855469-5.84375 12.421875-5.84375 16.277344 0l54.523438 82.550782 25.226562 38.191406c3.542969 5.375 1.003906 12.648438-5.105469 14.65625zm0 0" fill="#92c927"/><path d="m92.875 154.800781-45.863281-15.019531c-6.105469-2.007812-8.644531-9.277344-5.101563-14.65625l25.125-38.042969zm0 0" fill="#7aa50f"/><path d="m212.582031 139.78125-46.035156 15.078125 25.917969-67.925781 25.222656 38.191406c3.542969 5.375 1.003906 12.648438-5.105469 14.65625zm0 0" fill="#7aa50f"/><path d="m78.542969 150.105469-27.078125-70.980469c-3.410156-8.945312-16.328125-8.136719-18.597656 1.167969l-10.5 43.082031c-1.222657 5.03125 1.691406 10.140625 6.640624 11.648438zm0 0" fill="#b1de54"/><path d="m180.898438 150.105469 27.074218-70.980469c3.414063-8.945312 16.332032-8.136719 18.597656 1.167969l10.5 43.082031c1.222657 5.03125-1.6875 10.140625-6.636718 11.648438zm0 0" fill="#b1de54"/><path d="m129.800781 172.496094c-4.269531 0-7.726562-3.460938-7.726562-7.726563v-56.601562c0-4.269531 3.457031-7.726563 7.726562-7.726563 4.265625 0 7.722657 3.460938 7.722657 7.726563v56.601562c0 4.265625-3.457032 7.726563-7.722657 7.726563zm0 0" fill="#7aa50f"/></svg>