<svg height="512pt" viewBox="-112 0 512 512.001" width="512pt" xmlns="http://www.w3.org/2000/svg"><path d="m127.660156 272.484375c0 31.429687-25.480468 56.90625-56.910156 56.90625s-56.910156-25.476563-56.910156-56.90625 25.480468-56.910156 56.910156-56.910156 56.910156 25.480469 56.910156 56.910156zm0 0" fill="#e0e0d1"/><path d="m274.714844 272.484375c0 31.429687-25.476563 56.90625-56.910156 56.90625-31.429688 0-56.90625-25.476563-56.90625-56.90625s25.476562-56.910156 56.90625-56.910156c31.433593 0 56.910156 25.480469 56.910156 56.910156zm0 0" fill="#e0e0d1"/><path d="m288.554688 409.210938v92.488281c0 5.691406-4.613282 10.300781-10.300782 10.300781h-267.953125c-5.6875 0-10.300781-4.609375-10.300781-10.300781v-92.488281c0-51.878907 42.054688-93.933594 93.933594-93.933594h100.6875c51.878906 0 93.933594 42.054687 93.933594 93.933594zm0 0" fill="#159bff"/><path d="m288.554688 409.199219v92.5c0 5.6875-4.609376 10.300781-10.300782 10.300781h-42.152344v-102.789062c0-51.882813-42.058593-93.941407-93.933593-93.941407h52.457031c51.875 0 93.929688 42.054688 93.929688 93.929688zm0 0" fill="#006df0"/><path d="m60.183594 402.863281v109.136719h-15.453125v-109.136719c0-4.265625 3.460937-7.726562 7.726562-7.726562s7.726563 3.460937 7.726563 7.726562zm0 0" fill="#006df0"/><path d="m152.003906 382.917969v129.082031h-15.453125v-129.082031c0-4.265625 3.460938-7.726563 7.726563-7.726563s7.726562 3.460938 7.726562 7.726563zm0 0" fill="#ff4e61"/><path d="m144.277344 275.800781-96.941406 37.566407c-7.664063 2.972656-8.25 13.597656-.957032 17.390624l93.488282 48.628907c2.765624 1.4375 6.054687 1.4375 8.820312 0l93.488281-48.628907c7.292969-3.792968 6.707031-14.417968-.957031-17.390624zm0 0" fill="#ff4e61"/><path d="m280.160156 208.273438c0 16.542968-13.410156 29.957031-29.953125 29.957031-16.546875 0-29.957031-13.414063-29.957031-29.957031 0-16.542969 13.410156-29.957032 29.957031-29.957032 16.542969 0 29.953125 13.414063 29.953125 29.957032zm0 0" fill="#ffb685"/><path d="m68.304688 208.273438c0 16.542968-13.410157 29.957031-29.953126 29.957031-16.546874 0-29.957031-13.414063-29.957031-29.957031 0-16.542969 13.410157-29.957032 29.957031-29.957032 16.542969 0 29.953126 13.414063 29.953126 29.957032zm0 0" fill="#ffb685"/><path d="m236.46875 150.3125v39.746094c0 3.84375-.144531 7.644531-.433594 11.394531-4.511718 59.101563-43.875 105.3125-91.757812 105.3125-47.882813 0-87.246094-46.210937-91.757813-105.3125-.289062-3.75-.433593-7.550781-.433593-11.394531v-39.746094c0-4.902344.566406-9.683594 1.636718-14.257812 6.449219-27.453126 31.070313-47.890626 60.492188-47.890626h60.121094c29.421874 0 54.042968 20.4375 60.492187 47.890626 1.074219 4.574218 1.640625 9.355468 1.640625 14.257812zm0 0" fill="#ffcfa1"/><path d="m236.46875 150.3125v10.992188h-184.382812v-10.992188c0-4.902344.570312-9.683594 1.640624-14.257812 6.449219-27.453126 31.070313-47.890626 60.492188-47.890626h60.121094c29.421875 0 54.042968 20.4375 60.492187 47.890626 1.070313 4.574218 1.636719 9.355468 1.636719 14.257812zm0 0" fill="#ffb685"/><path d="m234.828125 136.054688h-181.097656c6.441406-27.457032 31.066406-47.890626 60.480469-47.890626h60.132812c29.414062 0 54.042969 20.433594 60.484375 47.890626zm0 0" fill="#e0e0d1"/><path d="m102.339844 210.132812c-4.265625 0-7.726563-3.457031-7.726563-7.726562v-.957031c0-4.265625 3.460938-7.722657 7.726563-7.722657s7.726562 3.457032 7.726562 7.722657v.957031c0 4.269531-3.460937 7.726562-7.726562 7.726562zm0 0" fill="#159bff"/><path d="m186.214844 210.132812c-4.265625 0-7.722656-3.457031-7.722656-7.726562v-.957031c0-4.265625 3.457031-7.722657 7.722656-7.722657 4.269531 0 7.726562 3.457032 7.726562 7.722657v.957031c0 4.269531-3.457031 7.726562-7.726562 7.726562zm0 0" fill="#159bff"/><path d="m168.699219 390.824219c0 13.488281-10.933594 24.421875-24.421875 24.421875-13.488282 0-24.421875-10.933594-24.421875-24.421875s10.933593-24.421875 24.421875-24.421875c13.488281 0 24.421875 10.933594 24.421875 24.421875zm0 0" fill="#ffd02f"/><path d="m168.703125 390.820312c0 13.496094-10.941406 24.425782-24.425781 24.425782-2.535156 0-4.976563-.382813-7.273438-1.101563 9.929688-3.101562 17.132813-12.363281 17.132813-23.324219 0-10.949218-7.203125-20.210937-17.132813-23.3125 2.296875-.722656 4.738282-1.101562 7.273438-1.101562 13.484375-.003906 24.425781 10.929688 24.425781 24.414062zm0 0" fill="#fa0"/><path d="m147.257812 327.355469h-5.960937c-30.023437 0-54.359375-24.335938-54.359375-54.359375 0-20 16.214844-36.214844 36.21875-36.214844h42.246094c20 0 36.214844 16.214844 36.214844 36.214844 0 30.023437-24.335938 54.359375-54.359376 54.359375zm0 0" fill="#f5f6e3"/><path d="m225.089844 52.476562v41.417969c0 10.347657-8.390625 18.734375-18.738282 18.734375h-19.90625c-10.347656 0-18.734374-8.386718-18.734374-18.734375v-46.109375l7.398437-7.398437c3.730469-3.730469 3.730469-9.78125 0-13.515625l-24.074219-24.070313c-3.730468-3.734375-9.78125-3.734375-13.515625 0l-24.074219 24.070313c-3.730468 3.734375-3.730468 9.785156 0 13.515625l7.398438 7.398437v46.105469c0 10.347656-8.386719 18.738281-18.734375 18.738281h-19.90625c-10.347656 0-18.734375-8.390625-18.734375-18.738281v-41.414063c0-3.039062-1.445312-5.894531-3.894531-7.695312l-6.871094-5.054688c-6.3125-4.640624-15.21875-.136718-15.21875 7.699219v91.839844c0 5.34375 4.332031 9.675781 9.675781 9.675781h194.234375c5.34375 0 9.675781-4.332031 9.675781-9.675781v-91.839844c0-7.835937-8.90625-12.339843-15.21875-7.699219l-6.871093 5.054688c-2.445313 1.800781-3.890625 4.65625-3.890625 7.695312zm0 0" fill="#ffd02f"/><path d="m144.277344 104.667969c-4.265625 0-7.726563-3.460938-7.726563-7.726563v-28.863281c0-4.269531 3.460938-7.726563 7.726563-7.726563 4.269531 0 7.726562 3.457032 7.726562 7.726563v28.863281c0 4.265625-3.457031 7.726563-7.726562 7.726563zm0 0" fill="#fa0"/></svg>