<svg height="511pt" viewBox="-124 1 511 511.99975" width="511pt" xmlns="http://www.w3.org/2000/svg"><path d="m194.320312 360.894531h-124.710937c-42.914063 0-75.449219-38.714843-68.058594-80.992187l18.433594-105.417969c9.511719-54.40625 56.753906-94.101563 111.980469-94.101563 55.230468 0 102.46875 39.695313 111.980468 94.101563l18.433594 105.417969c7.394532 42.277344-25.140625 80.992187-68.058594 80.992187zm0 0" fill="#f5f6e3"/><path d="m194.320312 360.894531h-124.710937c-42.910156 0-75.453125-38.714843-68.058594-80.988281l1.714844-9.796875c8.296875 28.335937 34.460937 49.707031 66.34375 49.707031h124.710937c31.882813 0 58.039063-21.371094 66.34375-49.699218l1.714844 9.789062c7.394532 42.273438-25.136718 80.988281-68.058594 80.988281zm0 0" fill="#e0e0d1"/><path d="m249.644531 424.785156v76.914063c0 5.6875-4.613281 10.300781-10.300781 10.300781h-214.753906c-5.691406 0-10.300782-4.613281-10.300782-10.300781v-76.914063c0-42.3125 34.300782-76.613281 76.613282-76.613281h82.125c42.316406-.003906 76.617187 34.300781 76.617187 76.613281zm0 0" fill="#159bff"/><path d="m115.511719 392.503906h32.90625v119.496094h-32.90625zm0 0" fill="#ff4e61"/><path d="m249.644531 424.789062v76.910157c0 5.6875-4.613281 10.300781-10.304687 10.300781h-32.480469v-87.210938c0-42.316406-34.304687-76.621093-76.613281-76.621093h42.777344c42.316406 0 76.621093 34.304687 76.621093 76.621093zm0 0" fill="#006df0"/><path d="m64.796875 419.613281v92.386719h-15.449219v-92.386719c0-4.265625 3.460938-7.726562 7.722656-7.726562 4.265626 0 7.726563 3.460937 7.726563 7.726562zm0 0" fill="#006df0"/><g fill="#ffcfa1"><path d="m170.136719 348.171875v13.394531c0 17.582032-14.253907 31.835938-31.835938 31.835938h-12.671875c-17.582031 0-31.835937-14.253906-31.835937-31.835938v-13.394531h11.355469v-40.753906h53.636718v40.753906zm0 0"/><path d="m235.882812 250.375c0 12.652344-10.253906 22.90625-22.90625 22.90625-12.652343 0-22.910156-10.253906-22.910156-22.90625s10.257813-22.910156 22.910156-22.910156c12.652344 0 22.90625 10.257812 22.90625 22.910156zm0 0"/><path d="m73.867188 250.375c0 12.652344-10.257813 22.90625-22.910157 22.90625-12.652343 0-22.910156-10.253906-22.910156-22.90625s10.257813-22.910156 22.910156-22.910156c12.652344 0 22.910157 10.257812 22.910157 22.910156zm0 0"/></g><path d="m207.160156 203.101562v32.417969c0 3.132813-.113281 6.230469-.351562 9.292969-3.6875 48.203125-35.789063 85.886719-74.84375 85.886719-39.054688 0-71.152344-37.683594-74.84375-85.886719-.234375-3.0625-.347656-6.160156-.347656-9.292969v-32.417969c0-12.816406 4.757812-24.519531 12.597656-33.441406 9.28125-10.582031 22.902344-17.246094 38.074218-17.246094h49.039063c15.175781 0 28.792969 6.664063 38.074219 17.246094 7.839844 8.921875 12.601562 20.625 12.601562 33.441406zm0 0" fill="#ffdec2"/><path d="m194.558594 169.660156h-125.1875c9.28125-10.582031 22.902344-17.246094 38.074218-17.246094h49.039063c15.175781 0 28.792969 6.664063 38.074219 17.246094zm0 0" fill="#ffcfa1"/><path d="m98.1875 268.234375c0 4.46875-3.621094 8.089844-8.089844 8.089844s-8.089844-3.621094-8.089844-8.089844 3.621094-8.089844 8.089844-8.089844 8.089844 3.621094 8.089844 8.089844zm0 0" fill="#ff8294"/><path d="m183.125 268.234375c0 4.46875-3.621094 8.089844-8.089844 8.089844s-8.09375-3.621094-8.09375-8.089844 3.625-8.089844 8.09375-8.089844 8.089844 3.621094 8.089844 8.089844zm0 0" fill="#ff8294"/><path d="m131.964844 296.359375c-11.726563 0-21.851563-9.851563-24.074219-23.421875-.691406-4.210938 2.164063-8.183594 6.371094-8.875 4.21875-.691406 8.1875 2.164062 8.875 6.375.980469 5.96875 4.773437 10.46875 8.828125 10.46875 4.054687 0 7.851562-4.5 8.828125-10.46875.691406-4.210938 4.660156-7.070312 8.875-6.375 4.210937.691406 7.066406 4.664062 6.375 8.875-2.226563 13.570312-12.351563 23.421875-24.078125 23.421875zm0 0" fill="#ffb685"/><path d="m97.761719 253.316406c-4.269531 0-7.726563-3.460937-7.726563-7.726562v-.78125c0-4.269532 3.457032-7.726563 7.726563-7.726563 4.265625 0 7.722656 3.460938 7.722656 7.726563v.78125c0 4.265625-3.457031 7.726562-7.722656 7.726562zm0 0" fill="#159bff"/><path d="m166.171875 253.316406c-4.269531 0-7.726563-3.460937-7.726563-7.726562v-.78125c0-4.269532 3.460938-7.726563 7.726563-7.726563s7.726563 3.460938 7.726563 7.726563v.78125c0 4.265625-3.457032 7.726562-7.726563 7.726562zm0 0" fill="#159bff"/><path d="m45.566406 199.324219h36.65625c36.558594 0 66.195313-29.636719 66.195313-66.199219h-70.96875c-17.605469 0-31.878907 14.273438-31.878907 31.882812v34.316407zm0 0" fill="#f5f6e3"/><path d="m214.59375 55.421875v43.738281c0 10.925782-8.859375 19.785156-19.785156 19.785156h-21.023438c-10.929687 0-19.789062-8.859374-19.789062-19.785156v-48.691406l7.816406-7.816406c3.941406-3.941406 3.941406-10.332032 0-14.273438l-25.425781-25.421875c-3.941407-3.941406-10.332031-3.941406-14.273438 0l-25.425781 25.421875c-3.941406 3.941406-3.941406 10.332032 0 14.273438l7.816406 7.816406v48.691406c0 10.925782-8.859375 19.785156-19.789062 19.785156h-21.023438c-10.925781 0-19.785156-8.859374-19.785156-19.785156v-43.738281c0-3.210937-1.527344-6.226563-4.113281-8.128906l-7.257813-5.339844c-6.664062-4.902344-16.070312-.144531-16.070312 8.128906v96.996094c0 5.644531 4.574218 10.21875 10.21875 10.21875h205.132812c5.644532 0 10.21875-4.574219 10.21875-10.21875v-96.992187c0-8.273438-9.40625-13.035157-16.070312-8.132813l-7.257813 5.339844c-2.585937 1.902343-4.113281 4.917969-4.113281 8.128906zm0 0" fill="#ffd02f"/><path d="m93.9375 355.503906c0 8.222656-6.667969 14.890625-14.890625 14.890625s-14.890625-6.667969-14.890625-14.890625 6.667969-14.890625 14.890625-14.890625 14.890625 6.667969 14.890625 14.890625zm0 0" fill="#fa0"/><path d="m84.695312 381.460938c0 8.222656-6.664062 14.890624-14.890624 14.890624-8.222657 0-14.890626-6.667968-14.890626-14.890624 0-8.222657 6.667969-14.890626 14.890626-14.890626 8.226562 0 14.890624 6.667969 14.890624 14.890626zm0 0" fill="#ffd02f"/><path d="m81.71875 407.121094c0 8.222656-6.667969 14.890625-14.890625 14.890625s-14.890625-6.667969-14.890625-14.890625 6.667969-14.890625 14.890625-14.890625 14.890625 6.667969 14.890625 14.890625zm0 0" fill="#fa0"/><path d="m96.605469 428.800781c0 8.222657-6.664063 14.890625-14.886719 14.890625-8.226562 0-14.890625-6.667968-14.890625-14.890625 0-8.222656 6.664063-14.890625 14.890625-14.890625 8.222656 0 14.886719 6.667969 14.886719 14.890625zm0 0" fill="#ffd02f"/><path d="m121.65625 441.628906c0 8.222656-6.664062 14.890625-14.886719 14.890625-8.226562 0-14.890625-6.667969-14.890625-14.890625s6.664063-14.890625 14.890625-14.890625c8.222657 0 14.886719 6.667969 14.886719 14.890625zm0 0" fill="#fa0"/><path d="m199.773438 355.503906c0 8.222656-6.667969 14.890625-14.890626 14.890625-8.222656 0-14.890624-6.667969-14.890624-14.890625s6.667968-14.890625 14.890624-14.890625c8.222657 0 14.890626 6.667969 14.890626 14.890625zm0 0" fill="#fa0"/><path d="m209.015625 381.460938c0 8.222656-6.667969 14.890624-14.890625 14.890624s-14.890625-6.667968-14.890625-14.890624c0-8.222657 6.667969-14.890626 14.890625-14.890626s14.890625 6.667969 14.890625 14.890626zm0 0" fill="#ffd02f"/><path d="m211.992188 407.121094c0 8.222656-6.664063 14.890625-14.886719 14.890625-8.226563 0-14.890625-6.667969-14.890625-14.890625s6.664062-14.890625 14.890625-14.890625c8.222656 0 14.886719 6.667969 14.886719 14.890625zm0 0" fill="#fa0"/><path d="m197.105469 428.800781c0 8.222657-6.667969 14.890625-14.890625 14.890625s-14.890625-6.667968-14.890625-14.890625c0-8.222656 6.667969-14.890625 14.890625-14.890625s14.890625 6.667969 14.890625 14.890625zm0 0" fill="#ffd02f"/><path d="m172.054688 441.628906c0 8.222656-6.667969 14.890625-14.890626 14.890625-8.222656 0-14.890624-6.667969-14.890624-14.890625s6.667968-14.890625 14.890624-14.890625c8.222657 0 14.890626 6.667969 14.890626 14.890625zm0 0" fill="#fa0"/><path d="m146.855469 446.5625c0 8.222656-6.667969 14.886719-14.890625 14.886719s-14.890625-6.664063-14.890625-14.886719c0-8.226562 6.667969-14.890625 14.890625-14.890625s14.890625 6.664063 14.890625 14.890625zm0 0" fill="#ffd02f"/></svg>