<svg height="512pt" viewBox="-24 0 512 512.00098" width="512pt" xmlns="http://www.w3.org/2000/svg"><path d="m458.980469 337.609375c-2.457031-1.898437-5.332031-3.046875-8.363281-3.410156-1-2.597657-2.625-4.90625-4.785157-6.722657l2.078125-2.078124c3.019532-3.015626 3.019532-7.910157 0-10.925782-3.015625-3.019531-7.910156-3.019531-10.925781 0l-2.078125 2.078125c-1.816406-2.160156-4.125-3.785156-6.722656-4.785156-.367188-3.035156-1.511719-5.90625-3.414063-8.367187-3.933593-5.089844-10.535156-7.433594-17.222656-6.101563-4.1875.832031-6.90625 4.894531-6.074219 9.082031.828125 4.183594 4.890625 6.90625 9.082032 6.074219.707031-.140625 1.601562-.109375 1.992187.394531.417969.542969.394531 1.625-.054687 2.695313-1.109376 2.636719-.671876 5.667969 1.136718 7.882812 1.804688 2.214844 4.6875 3.25 7.492188 2.695313.703125-.140625 1.597656-.109375 1.988281.394531.269531.347656.335937.9375.242187 1.589844l-.207031.207031c-3.015625 3.015625-3.015625 7.910156 0 10.925781 1.507813 1.507813 3.484375 2.265625 5.464844 2.265625 1.976563 0 3.953125-.757812 5.460937-2.265625l.207032-.207031c.65625-.09375 1.242187-.027344 1.59375.246094.503906.386718.53125 1.28125.394531 1.988281-.558594 2.800781.480469 5.683594 2.691406 7.492187 2.214844 1.804688 5.246094 2.242188 7.882813 1.132813 1.070312-.453125 2.15625-.472656 2.695312-.054687.503906.390624.535156 1.285156.394532 1.988281-.832032 4.1875 1.886718 8.253906 6.074218 9.085937.507813.101563 1.011719.148438 1.511719.148438 3.613281 0 6.839844-2.546875 7.570313-6.222656 1.328124-6.6875-1.011719-13.289063-6.105469-17.226563zm0 0" fill="#3d3d38"/><path d="m82.679688 306.742188c-3.792969-5.671876-10.121094-8.679688-16.496094-7.863282-3.082032.394532-5.925782 1.613282-8.332032 3.5-2.539062-1.128906-5.324218-1.613281-8.132812-1.367187v-2.941407c0-4.265624-3.460938-7.726562-7.726562-7.726562-4.269532 0-7.726563 3.460938-7.726563 7.726562v2.941407c-2.8125-.242188-5.59375.238281-8.132813 1.367187-2.40625-1.886718-5.25-3.109375-8.332031-3.503906-6.386719-.816406-12.703125 2.195312-16.496093 7.867188-2.371094 3.546874-1.417969 8.34375 2.128906 10.714843 3.550781 2.371094 8.347656 1.421875 10.714844-2.128906.402343-.597656 1.078124-1.207031 1.6875-1.125.679687.085937 1.429687.867187 1.867187 1.941406 1.078125 2.648438 3.53125 4.484375 6.375 4.773438 2.832031.285156 5.613281-1.015625 7.203125-3.394531.398438-.597657 1.046875-1.214844 1.6875-1.125.4375.054687.902344.402343 1.296875.925781v.320312c0 4.265625 3.457031 7.726563 7.726563 7.726563 4.265624 0 7.726562-3.460938 7.726562-7.726563v-.320312c.390625-.523438.855469-.871094 1.292969-.925781.621093-.082032 1.289062.527343 1.6875 1.128906 1.589843 2.375 4.363281 3.679687 7.203125 3.390625 2.84375-.289063 5.296875-2.125 6.375-4.769531.4375-1.078126 1.1875-1.859376 1.867187-1.945313.621094-.082031 1.285157.527344 1.6875 1.125 2.367188 3.550781 7.171875 4.5 10.714844 2.128906 3.550781-2.367187 4.503906-7.167969 2.132813-10.714843zm0 0" fill="#5a5a52"/><path d="m13.082031 206.617188c.5 0 1.003907-.050782 1.511719-.148438 4.1875-.832031 6.90625-4.898438 6.074219-9.085938-.140625-.703124-.109375-1.597656.394531-1.988281.542969-.417969 1.625-.398437 2.695312.054688 2.636719 1.109375 5.667969.671875 7.882813-1.136719 2.214844-1.804688 3.25-4.6875 2.695313-7.492188-.140626-.703124-.113282-1.597656.394531-1.988281.347656-.269531.9375-.335937 1.589843-.242187l.207032.207031c1.507812 1.507813 3.484375 2.261719 5.460937 2.261719 1.976563 0 3.957031-.753906 5.464844-2.261719 3.015625-3.019531 3.015625-7.910156 0-10.929687l-.207031-.203126c-.09375-.65625-.027344-1.242187.242187-1.589843.390625-.507813 1.289063-.539063 1.992188-.398438 2.800781.558594 5.683593-.480469 7.492187-2.695312 1.804688-2.214844 2.242188-5.246094 1.132813-7.878907-.453125-1.070312-.472657-2.152343-.050781-2.695312.390624-.507812 1.277343-.535156 1.988281-.394531 4.179687.824219 8.25-1.890625 9.082031-6.074219.832031-4.1875-1.886719-8.253906-6.074219-9.085938-6.6875-1.328124-13.292969 1.011719-17.226562 6.105469-1.898438 2.457031-3.046875 5.332031-3.410157 8.367188-2.597656 1-4.90625 2.625-6.722656 4.785156l-2.078125-2.082031c-3.015625-3.015625-7.90625-3.015625-10.925781 0-3.019531 3.019531-3.019531 7.910156 0 10.929687l2.078125 2.078125c-2.160156 1.816406-3.785156 4.125-4.785156 6.71875-3.035157.367188-5.910157 1.515625-8.367188 3.414063-5.09375 3.9375-7.429687 10.539062-6.101562 17.226562.730469 3.675781 3.957031 6.222657 7.570312 6.222657zm0 0" fill="#5a5a52"/><path d="m304.605469 313.144531h-138.613281c-47.703126 0-83.863282-43.03125-75.648438-90.023437l20.488281-117.171875c10.574219-60.46875 63.082031-104.589844 124.46875-104.589844s113.890625 44.121094 124.464844 104.589844l20.488281 117.171875c8.214844 46.992187-27.945312 90.023437-75.648437 90.023437zm0 0" fill="#af4d00"/><path d="m350.800781 240.675781c0-20.503906-51.710937-37.125-115.5-37.125-63.792969 0-115.503906 16.621094-115.503906 37.125 0 20.503907 51.710937 37.128907 115.503906 37.128907 63.789063 0 115.5-16.625 115.5-37.128907zm0 0" fill="#d80000"/><path d="m366.09375 384.15625v117.542969c0 5.6875-4.613281 10.300781-10.300781 10.300781h-240.988281c-5.6875 0-10.304688-4.613281-10.304688-10.300781v-117.542969c0-47.027344 38.128906-85.15625 85.15625-85.15625h91.285156c47.027344 0 85.152344 38.128906 85.152344 85.15625zm0 0" fill="#5a5a52"/><path d="m217.011719 339.9375h36.574219v172.0625h-36.574219zm0 0" fill="#f5f6e3"/><path d="m366.09375 384.152344v117.546875c0 5.691406-4.609375 10.300781-10.300781 10.300781h-37.25v-127.839844c0-47.035156-38.128907-85.164062-85.15625-85.164062h47.554687c47.027344 0 85.152344 38.125 85.152344 85.15625zm0 0" fill="#3d3d38"/><path d="m159.78125 378.40625v133.59375h-15.453125v-133.59375c0-4.265625 3.460937-7.726562 7.726563-7.726562 4.265624 0 7.726562 3.460937 7.726562 7.726562zm0 0" fill="#3d3d38"/><path d="m277.722656 299v14.890625c0 19.542969-15.839844 35.382813-35.382812 35.382813h-14.082032c-19.542968 0-35.382812-15.839844-35.382812-35.382813v-14.890625h12.613281v-45.296875h59.617188v45.296875zm0 0" fill="#ffcfa1"/><path d="m192.875 299h84.847656v17.71875h-84.847656zm0 0" fill="#3d3d38"/><path d="m350.800781 190.300781c0 14.0625-11.398437 25.464844-25.460937 25.464844s-25.464844-11.402344-25.464844-25.464844 11.402344-25.460937 25.464844-25.460937 25.460937 11.398437 25.460937 25.460937zm0 0" fill="#ffcfa1"/><path d="m170.722656 190.300781c0 14.0625-11.402344 25.464844-25.464844 25.464844s-25.460937-11.402344-25.460937-25.464844 11.398437-25.460937 25.460937-25.460937 25.464844 11.398437 25.464844 25.460937zm0 0" fill="#ffcfa1"/><path d="m318.878906 137.753906v36.039063c0 3.476562-.132812 6.929687-.394531 10.324219-4.097656 53.585937-39.777344 95.46875-83.1875 95.46875-43.40625 0-79.089844-41.882813-83.1875-95.46875-.261719-3.394532-.390625-6.84375-.390625-10.324219v-36.039063c0-31.117187 25.214844-56.332031 56.324219-56.332031h54.507812c31.113281 0 56.328125 25.214844 56.328125 56.332031zm0 0" fill="#ffdec2"/><path d="m256.605469 236.800781c-2.257813 0-4.496094-.984375-6.023438-2.882812l-3.015625-3.746094c-2.675781-3.324219-2.148437-8.191406 1.175782-10.863281 3.324218-2.675782 8.1875-2.148438 10.863281 1.175781l3.015625 3.746094c2.675781 3.324219 2.148437 8.1875-1.175782 10.863281-1.425781 1.148438-3.136718 1.707031-4.839843 1.707031zm0 0" fill="#f5f6e3"/><path d="m197.753906 210.152344c0 4.96875-4.023437 8.992187-8.992187 8.992187-4.964844 0-8.992188-4.023437-8.992188-8.992187 0-4.964844 4.027344-8.992188 8.992188-8.992188 4.96875 0 8.992187 4.027344 8.992187 8.992188zm0 0" fill="#ff8294"/><path d="m292.160156 210.152344c0 4.96875-4.023437 8.992187-8.992187 8.992187-4.964844 0-8.992188-4.023437-8.992188-8.992187 0-4.964844 4.027344-8.992188 8.992188-8.992188 4.96875 0 8.992187 4.027344 8.992187 8.992188zm0 0" fill="#ff8294"/><path d="m235.300781 240.550781c-12.613281 0-23.507812-10.644531-25.914062-25.308593-.691407-4.210938 2.164062-8.183594 6.375-8.875 4.222656-.6875 8.183593 2.164062 8.875 6.375 1.15625 7.042968 5.738281 12.355468 10.664062 12.355468 4.921875 0 9.503907-5.3125 10.660157-12.355468.691406-4.210938 4.65625-7.0625 8.875-6.375 4.210937.691406 7.0625 4.664062 6.375 8.875-2.40625 14.664062-13.304688 25.308593-25.910157 25.308593zm0 0" fill="#ff4e61"/><g fill="#3d3d38"><path d="m197.277344 192.707031c-4.265625 0-7.722656-3.457031-7.722656-7.722656v-.867187c0-4.269532 3.457031-7.726563 7.722656-7.726563 4.269531 0 7.726562 3.457031 7.726562 7.726563v.867187c0 4.265625-3.457031 7.722656-7.726562 7.722656zm0 0"/><path d="m273.320312 192.707031c-4.269531 0-7.726562-3.457031-7.726562-7.722656v-.867187c0-4.269532 3.457031-7.726563 7.726562-7.726563 4.265626 0 7.726563 3.457031 7.726563 7.726563v.867187c0 4.265625-3.460937 7.722656-7.726563 7.722656zm0 0"/><path d="m270.5625 350.90625-14.457031-75.246094c-.992188-5.15625 2.792969-10.023437 8.035156-10.285156 16.59375-.832031 50.808594-5.367188 79.128906-27.445312 3.394531-2.644532 8.253907.363281 7.441407 4.585937l-18.929688 98.632813-47.546875 17.484374c-5.960937 2.191407-12.472656-1.484374-13.671875-7.726562zm0 0"/></g><path d="m197.746094 362.816406 16.746094-87.15625c.992187-5.160156-2.796876-10.023437-8.042969-10.289062-16.585938-.828125-50.765625-5.359375-79.074219-27.402344-3.417969-2.660156-8.304688.292969-7.488281 4.546875l18.929687 98.632813zm0 0" fill="#5a5a52"/><path d="m139.269531 133.5625h40.738281c40.636719 0 73.578126-32.945312 73.578126-73.578125h-114.316407zm0 0" fill="#af4d00"/><path d="m186.574219 144.609375h-40.738281c-4.269532 0-7.726563-3.457031-7.726563-7.726563 0-4.265624 3.460937-7.726562 7.726563-7.726562h40.738281c36.3125 0 65.851562-29.539062 65.851562-65.847656 0-4.269532 3.460938-7.726563 7.726563-7.726563s7.726562 3.457031 7.726562 7.726563c0 44.828125-36.472656 81.300781-81.304687 81.300781zm0 0" fill="#963d00"/><path d="m142.046875 67.328125-10.796875 32.808594c-2.085938 6.335937-10.117188 8.25-14.832031 3.53125l-22.011719-22.011719c-4.714844-4.714844-2.804688-12.746094 3.53125-14.832031l32.808594-10.796875c3.210937-1.054688 6.738281-.214844 9.128906 2.171875 2.386719 2.390625 3.226562 5.921875 2.171875 9.128906zm0 0" fill="#d80000"/><path d="m159.109375 50.265625 32.808594-10.796875c6.335937-2.085938 8.246093-10.117188 3.53125-14.832031l-22.011719-22.011719c-4.714844-4.714844-12.746094-2.804688-14.832031 3.53125l-10.796875 32.808594c-1.054688 3.210937-.214844 6.738281 2.171875 9.128906 2.390625 2.390625 5.917969 3.230469 9.128906 2.171875zm0 0" fill="#d80000"/><path d="m162.3125 58.402344-12.132812 12.132812c-3.695313 3.695313-9.683594 3.695313-13.378907 0l-9.257812-9.261718c-3.695313-3.695313-3.695313-9.683594 0-13.378907l12.132812-12.132812c3.695313-3.695313 9.683594-3.695313 13.378907 0l9.257812 9.261719c3.695312 3.691406 3.695312 9.683593 0 13.378906zm0 0" fill="#ff4e61"/></svg>