<svg height="512pt" viewBox="-42 0 512 512.001" width="512pt" xmlns="http://www.w3.org/2000/svg"><path d="m59.039062 0c-8.476562 0-13.371093 9.703125-8.25 16.460938 7.320313 9.652343 11.664063 21.6875 11.664063 34.738281 0 22.304687-12.683594 41.632812-31.226563 51.203125-18.542968 9.566406-31.226562 28.894531-31.226562 51.199218 0 22.300782 12.683594 41.628907 31.226562 51.199219 18.542969 9.570313 31.226563 28.898438 31.226563 51.199219 0 22.304688-12.683594 41.632812-31.226563 51.199219-18.542968 9.570312-31.226562 28.898437-31.226562 51.203125 0 22.300781 12.683594 41.628906 31.226562 51.199218 18.542969 9.570313 31.226563 28.894532 31.226563 51.199219 0 13.054688-4.34375 25.085938-11.664063 34.742188-5.121093 6.753906-.226562 16.457031 8.25 16.457031h334.273438c1.820312 0 3.613281-.476562 5.1875-1.390625 17.152344-9.976563 28.6875-28.539063 28.6875-49.808594 0-22.304687-12.683594-41.632812-31.226562-51.199219-18.542969-9.570312-31.226563-28.898437-31.226563-51.203124 0-22.300782 12.683594-41.628907 31.226563-51.199219 18.542968-9.566407 31.226562-28.894531 31.226562-51.199219s-12.683594-41.632812-31.226562-51.199219c-18.542969-9.570312-31.226563-28.898437-31.226563-51.199219 0-22.304687 12.683594-41.632812 31.226563-51.203124 18.542968-9.566407 31.226562-28.894532 31.226562-51.199219 0-21.269531-11.535156-39.832031-28.6875-49.804688-1.574219-.917969-3.367188-1.394531-5.1875-1.394531zm0 0" fill="#ffdec2"/><path d="m364.734375 358.402344c0 22.300781 12.691406 41.628906 31.222656 51.199218 18.542969 9.570313 31.238281 28.894532 31.238281 51.199219 0 21.269531-11.542968 39.832031-28.699218 49.808594-1.574219.914063-3.367188 1.390625-5.1875 1.390625h-24.847656c18.542968-9.570312 31.226562-28.898438 31.226562-51.199219 0-22.304687-12.683594-41.628906-31.226562-51.199219-18.542969-9.570312-31.222657-28.898437-31.222657-51.203124 0-22.300782 12.679688-41.628907 31.222657-51.199219 18.542968-9.570313 31.226562-28.894531 31.226562-51.199219s-12.683594-41.628906-31.226562-51.199219c-18.542969-9.570312-31.222657-28.898437-31.222657-51.199219 0-22.304687 12.679688-41.632812 31.222657-51.203124 18.542968-9.570313 31.226562-28.894532 31.226562-51.199219 0-22.300781-12.683594-41.628907-31.226562-51.199219h24.847656c1.820312 0 3.613281.476562 5.1875 1.390625 17.15625 9.976563 28.699218 28.539063 28.699218 49.808594 0 22.304687-12.695312 41.628906-31.238281 51.199219-18.53125 9.570312-31.222656 28.898437-31.222656 51.199218 0 22.304688 12.691406 41.632813 31.222656 51.203125 18.542969 9.566407 31.238281 28.894531 31.238281 51.199219 0 22.300781-12.695312 41.628906-31.238281 51.199219-18.53125 9.570312-31.222656 28.898437-31.222656 51.203125zm0 0" fill="#ffcfa1"/><path d="m98.824219 512c18.542969-9.566406 31.226562-28.894531 31.226562-51.199219 0-22.304687-12.683593-41.628906-31.226562-51.199219-18.542969-9.570312-31.226563-28.898437-31.226563-51.199218 0-22.304688 12.683594-41.632813 31.226563-51.203125 18.542969-9.566407 31.226562-28.894531 31.226562-51.199219 0-22.300781-12.683593-41.628906-31.226562-51.199219-18.542969-9.570312-31.226563-28.898437-31.226563-51.199219 0-22.304687 12.683594-41.632812 31.226563-51.199218 18.542969-9.570313 31.226562-28.898438 31.226562-51.203125 0-22.300781-12.683593-41.628907-31.226562-51.199219h229.542969c18.539062 9.570312 31.226562 28.898438 31.226562 51.199219 0 22.304687-12.6875 41.632812-31.226562 51.203125-18.542969 9.566406-31.230469 28.894531-31.230469 51.199218 0 22.300782 12.6875 41.628907 31.230469 51.199219 18.539062 9.570313 31.226562 28.898438 31.226562 51.199219 0 22.304688-12.6875 41.632812-31.226562 51.199219-18.542969 9.570312-31.230469 28.898437-31.230469 51.203125 0 22.300781 12.6875 41.628906 31.230469 51.199218 18.539062 9.570313 31.226562 28.894532 31.226562 51.199219 0 22.304688-12.6875 41.632813-31.226562 51.199219zm0 0" fill="#f22"/><path d="m175.453125 0c18.542969 9.570312 31.226563 28.898438 31.226563 51.199219 0 22.304687-12.683594 41.632812-31.226563 51.203125-18.542969 9.566406-31.226563 28.894531-31.226563 51.199218 0 22.300782 12.683594 41.628907 31.226563 51.199219 18.542969 9.570313 31.226563 28.898438 31.226563 51.199219 0 22.304688-12.683594 41.632812-31.226563 51.199219-18.542969 9.570312-31.226563 28.898437-31.226563 51.203125 0 22.300781 12.683594 41.628906 31.226563 51.199218 18.542969 9.570313 31.226563 28.894532 31.226563 51.199219 0 22.304688-12.683594 41.632813-31.226563 51.199219h76.285156c18.539063-9.566406 31.226563-28.894531 31.226563-51.199219 0-22.304687-12.6875-41.628906-31.226563-51.199219-18.542969-9.570312-31.230469-28.898437-31.230469-51.199218 0-22.304688 12.6875-41.632813 31.230469-51.203125 18.539063-9.566407 31.226563-28.894531 31.226563-51.199219 0-22.300781-12.6875-41.628906-31.226563-51.199219-18.542969-9.570312-31.230469-28.898437-31.230469-51.199219 0-22.304687 12.6875-41.632812 31.230469-51.199218 18.539063-9.570313 31.226563-28.898438 31.226563-51.203125 0-22.300781-12.6875-41.628907-31.226563-51.199219zm0 0" fill="#ff8294"/><path d="m223.519531 75.449219c45.433594 0 82.261719 36.828125 82.261719 82.261719v1.898437c0 57.511719-36.832031 104.140625-82.265625 104.140625-45.429687 0-82.265625-46.628906-82.265625-104.140625v-1.898437c0-45.433594 36.832031-82.261719 82.261719-82.261719zm0 0" fill="#ffcfa1"/><path d="m223.515625 225.445312c-12.46875 0-23.246094-10.519531-25.625-25.011718-.6875-4.210938 2.164063-8.183594 6.375-8.875 4.214844-.6875 8.183594 2.164062 8.875 6.375 1.128906 6.875 5.585937 12.058594 10.375 12.058594 4.785156 0 9.246094-5.183594 10.375-12.058594.691406-4.210938 4.667969-7.0625 8.875-6.375 4.210937.691406 7.0625 4.664062 6.375 8.875-2.375 14.492187-13.152344 25.011718-25.625 25.011718zm0 0" fill="#ffb685"/><g fill="#af4d00"><path d="m186.09375 178.355469c-4.269531 0-7.726562-3.460938-7.726562-7.726563v-.851562c0-4.269532 3.460937-7.726563 7.726562-7.726563s7.726562 3.457031 7.726562 7.726563v.851562c0 4.265625-3.457031 7.726563-7.726562 7.726563zm0 0"/><path d="m260.9375 178.355469c-4.265625 0-7.726562-3.460938-7.726562-7.726563v-.851562c0-4.269532 3.460937-7.726563 7.726562-7.726563 4.269531 0 7.726562 3.457031 7.726562 7.726563v.851562c0 4.265625-3.457031 7.726563-7.726562 7.726563zm0 0"/><path d="m313.636719 127.628906c-80.980469 26.671875-128.347657-8.097656-143.996094-22.972656-.277344-.277344-.546875-.535156-.804687-.78125-3.410157-3.316406-4.078126-8.550781-1.636719-12.632812.464843-.769532.988281-1.59375 1.566406-2.449219 7.777344-11.324219 26.585937-28.558594 69.164063-28.558594 44.484374 0 70.652343 30.691406 82.292968 49.007813 4.347656 6.820312 1.101563 15.855468-6.585937 18.386718zm0 0"/></g><path d="m248.789062 101.722656c-1.132812 3.148438-4.109374 5.109375-7.273437 5.109375-.863281 0-1.75-.144531-2.617187-.453125-31.679688-11.40625-60.203126-4.503906-69.257813-1.722656-.277344-.277344-.546875-.535156-.804687-.78125-3.410157-3.316406-4.078126-8.550781-1.636719-12.632812.460937-.769532.988281-1.59375 1.5625-2.449219 13.476562-3.636719 42.671875-8.726563 75.371093 3.039062 4.015626 1.453125 6.097657 5.871094 4.65625 9.890625zm0 0" fill="#bc6c35"/></svg>