<svg height="512pt" viewBox="-38 0 512 512" width="512pt" xmlns="http://www.w3.org/2000/svg"><path d="m85.242188 349.550781 11.144531 11.144531c3.046875 3.042969 3.046875 7.980469 0 11.023438l-71.988281 71.992188c-3.578126 3.578124-9.703126 1.578124-10.480469-3.421876l-.984375-6.351562-7.9375-1.558594c-4.855469-.953125-6.679688-6.9375-3.179688-10.433594l72.402344-72.394531c3.042969-3.046875 7.976562-3.046875 11.023438 0zm0 0" fill="#f5f6e3"/><path d="m351.480469 400.054688-11.144531 11.144531c-3.046876 3.046875-3.046876 7.980469 0 11.027343l80.597656 80.597657 2.859375-18.378907 7.933593-1.558593c4.855469-.953125 6.679688-6.941407 3.179688-10.4375l-72.398438-72.394531c-3.046874-3.046876-7.984374-3.046876-11.027343 0zm0 0" fill="#e0e0d1"/><path d="m375.070312 359.976562v141.722657c0 5.6875-4.601562 10.300781-10.300781 10.300781h-290.449219c-5.6875 0-10.300781-4.613281-10.300781-10.300781v-141.722657c0-12.660156 2.316407-24.777343 6.574219-35.945312 14.492188-38.175781 51.414062-65.3125 94.683594-65.3125h29.945312v-53.859375h48.644532v53.859375h29.949218c1.84375 0 3.6875.050781 5.519532.15625 32.289062 1.730469 60.554687 18.585938 77.851562 43.617188 3.390625 4.902343 6.355469 10.117187 8.839844 15.597656 2.648437 5.800781 4.757812 11.898437 6.253906 18.234375 1.328125 5.5 2.191406 11.164062 2.5625 16.976562.15625 2.203125.226562 4.429688.226562 6.675781zm0 0" fill="#e0e0d1"/><g fill="#cecdba"><path d="m321.378906 388.574219-115.125 36.628906c-4.066406 1.296875-6.3125 5.640625-5.019531 9.707031 1.046875 3.285156 4.085937 5.386719 7.359375 5.386719.777344 0 1.566406-.117187 2.347656-.367187l110.4375-35.140626zm0 0"/><path d="m64.019531 424.847656h311.050781v15.453125h-311.050781zm0 0"/><path d="m122.585938 465.488281-58.566407 15.976563v-16.113282l54.515625-14.78125c4.121094-1.125 8.367188 1.320313 9.488282 5.429688 1.113281 4.121094-1.316407 8.363281-5.4375 9.488281zm0 0"/><path d="m120.554688 499.203125c-3.769532 0-7.066407-2.757813-7.636719-6.597656-.621094-4.21875 2.292969-8.148438 6.515625-8.773438l197.964844-29.269531c4.226562-.621094 8.148437 2.292969 8.773437 6.515625.625 4.21875-2.292969 8.148437-6.511719 8.773437l-197.96875 29.269532c-.382812.054687-.761718.082031-1.136718.082031zm0 0"/><path d="m366.027344 318.089844-249.964844-13.3125c-4.261719-.234375-7.519531-3.871094-7.292969-8.136719.238281-4.265625 3.875-7.519531 8.136719-7.292969l240.28125 13.144532c3.390625 4.902343 6.355469 10.117187 8.839844 15.597656zm0 0"/></g><path d="m243.863281 258.71875h29.949219c1.851562 0 3.691406.050781 5.519531.15625l-208.738281 65.15625c14.5-38.175781 51.417969-65.3125 94.683594-65.3125zm0 0" fill="#af4d00"/><path d="m243.867188 204.859375v40.917969c-7.882813 2.113281-16.023438 3.203125-24.320313 3.203125s-16.441406-1.089844-24.324219-3.203125v-40.917969zm0 0" fill="#cecdba"/><path d="m375.070312 359.984375v141.714844c0 5.6875-4.613281 10.300781-10.300781 10.300781h-46.246093v-152.015625c0-55.925781-18.726563-101.265625-74.65625-101.265625h29.949218c55.917969 0 101.253906 45.339844 101.253906 101.265625zm0 0" fill="#cecdba"/><path d="m375.070312 454.382812v15.667969l-56.542968-9.507812v-15.660157zm0 0" fill="#e0e0d1"/><path d="m364.773438 511.996094h-46.246094v-20.519532l56.546875-12.558593v22.777343c0 5.6875-4.613281 10.300782-10.300781 10.300782zm0 0" fill="#af4d00"/><path d="m375.074219 379.597656-56.546875 17.992188v34.976562h56.542968zm0 0" fill="#af4d00"/><path d="m128.292969 348.964844v163.035156h-15.453125v-163.035156c0-4.277344 3.449218-7.726563 7.726562-7.726563 4.265625 0 7.726563 3.449219 7.726563 7.726563zm0 0" fill="#cecdba"/><path d="m137.648438 125.347656c0 17.832032-14.457032 32.292969-32.292969 32.292969-17.832031 0-32.289063-14.460937-32.289063-32.292969 0-17.835937 14.457032-32.292968 32.289063-32.292968 17.835937 0 32.292969 14.457031 32.292969 32.292968zm0 0" fill="#af4d00"/><path d="m366.023438 125.347656c0 17.832032-14.457032 32.292969-32.289063 32.292969-17.835937 0-32.292969-14.460937-32.292969-32.292969 0-17.835937 14.457032-32.292968 32.292969-32.292968 17.832031 0 32.289063 14.457031 32.289063 32.292968zm0 0" fill="#af4d00"/><path d="m318.839844 85.195312h15.761718c4.304688 0 7.796876 3.488282 7.796876 7.792969v101.8125c0 5.058594-5.746094 7.976563-9.828126 4.988281l-5.1875-3.789062-6.714843 4.507812c-4.109375 2.757813-9.628907-.183593-9.628907-5.128906l.003907-102.386718c0-4.308594 3.488281-7.796876 7.796875-7.796876zm0 0" fill="#f5f6e3"/><path d="m109.550781 193.570312c-3.011719 0-5.871093-1.769531-7.121093-4.71875-1.660157-3.929687.179687-8.464843 4.109374-10.125 10.03125-4.246093 16.515626-14.023437 16.515626-24.914062 0-4.269531 3.457031-7.726562 7.722656-7.726562 4.269531 0 7.726562 3.457031 7.726562 7.726562 0 17.113281-10.183594 32.476562-25.945312 39.144531-.984375.414063-2.003906.613281-3.007813.613281zm0 0" fill="#cecdba"/><path d="m318.929688 99.378906v10.453125c0 20.226563-3.773438 39.347657-10.484376 56.28125-16.316406 41.226563-50 69.523438-88.90625 69.523438-43.316406 0-80.175781-35.101563-93.765624-84.066407-3.636719-13.054687-5.613282-27.101562-5.613282-41.738281v-10.453125c0-54.890625 44.5-99.378906 99.382813-99.378906h.007812c45.0625 0 83.136719 30 95.300781 71.132812 2.65625 8.960938 4.078126 18.429688 4.078126 28.246094zm0 0" fill="#bc6c35"/><path d="m294.054688 119.90625c-4.269532 0-7.726563-3.460938-7.726563-7.726562v-38.25c0-4.265626 3.457031-7.726563 7.726563-7.726563 4.265624 0 7.722656 3.460937 7.722656 7.726563v38.25c.003906 4.265624-3.457032 7.726562-7.722656 7.726562zm0 0" fill="#b1de54"/><path d="m275.566406 96.386719c-4.265625 0-7.722656-3.460938-7.722656-7.726563v-12.117187c0-4.265625 3.457031-7.726563 7.722656-7.726563 4.269532 0 7.726563 3.460938 7.726563 7.726563v12.117187c0 4.265625-3.457031 7.726563-7.726563 7.726563zm0 0" fill="#b1de54"/><path d="m290.660156 49.398438c-1.976562 0-3.953125-.753907-5.460937-2.261719-3.019531-3.019531-3.019531-7.910157 0-10.925781 12.097656-12.101563 30.164062-15.765626 46.027343-9.335938 3.953126 1.605469 5.859376 6.109375 4.257813 10.0625-1.605469 3.957031-6.109375 5.863281-10.0625 4.257812-10.097656-4.089843-21.59375-1.761718-29.296875 5.941407-1.507812 1.507812-3.488281 2.261719-5.464844 2.261719zm0 0" fill="#cecdba"/><path d="m314.859375 71.132812-194.695313 38.695313v-10.445313c0-12.734374 2.390626-24.898437 6.757813-36.085937 2.246094-5.78125 5.027344-11.292969 8.285156-16.484375 17.542969-28.113281 48.757813-46.8125 84.339844-46.8125h.007813c30.074218 0 57.03125 13.359375 75.257812 34.480469 4.078125 4.730469 7.722656 9.835937 10.855469 15.289062 3.863281 6.664063 6.957031 13.824219 9.191406 21.363281zm0 0" fill="#f5f6e3"/><path d="m308.445312 166.113281c-16.316406 41.226563-49.996093 69.523438-88.902343 69.523438-43.320313 0-80.179688-35.101563-93.769531-84.066407zm0 0" fill="#f5f6e3"/><path d="m174.335938 130.871094c-4.265626 0-7.726563-3.460938-7.726563-7.726563v-1.03125c0-4.269531 3.460937-7.726562 7.726563-7.726562 4.265624 0 7.726562 3.457031 7.726562 7.726562v1.03125c0 4.265625-3.460938 7.726563-7.726562 7.726563zm0 0" fill="#b1de54"/><path d="m264.753906 130.871094c-4.265625 0-7.726562-3.460938-7.726562-7.726563v-1.03125c0-4.269531 3.460937-7.726562 7.726562-7.726562s7.726563 3.457031 7.726563 7.726562v1.03125c0 4.265625-3.460938 7.726563-7.726563 7.726563zm0 0" fill="#b1de54"/><path d="m305.667969 49.769531-178.746094 13.523438c2.246094-5.777344 5.027344-11.289063 8.285156-16.480469l159.605469-12.332031c4.078125 4.730469 7.722656 9.835937 10.855469 15.289062zm0 0" fill="#e0e0d1"/><path d="m374.847656 353.300781-310.828125 39.558594v-15.585937l308.261719-40.949219c1.328125 5.5 2.195312 11.164062 2.566406 16.976562zm0 0" fill="#cecdba"/><path d="m366.027344 318.089844-52.570313-2.804688c-1.421875-5.449218-3.164062-10.628906-5.273437-15.472656l49.003906 2.679688c3.390625 4.902343 6.355469 10.117187 8.839844 15.597656zm0 0" fill="#cecdba"/><path d="m366.027344 318.089844-52.570313-2.804688c-1.421875-5.449218-3.164062-10.628906-5.273437-15.472656l49.003906 2.679688c3.390625 4.902343 6.355469 10.117187 8.839844 15.597656zm0 0" fill="#adac9c"/><path d="m318.527344 360.472656v-.484375c0-5.59375-.1875-11.097656-.589844-16.441406l54.34375-7.222656c1.328125 5.5 2.195312 11.164062 2.566406 16.976562zm0 0" fill="#cecdba"/><path d="m318.527344 360.472656v-.484375c0-5.59375-.1875-11.097656-.589844-16.441406l54.34375-7.222656c1.328125 5.5 2.195312 11.164062 2.566406 16.976562zm0 0" fill="#adac9c"/></svg>