<svg height="512pt" viewBox="-132 0 512 512.0001" width="512pt" xmlns="http://www.w3.org/2000/svg"><path d="m203.820312 226.195312h-14.425781c-2.433593 0-4.40625-1.972656-4.40625-4.402343v-6.453125c0-25.324219 20.527344-45.851563 45.851563-45.851563 2.429687 0 4.402344 1.972657 4.402344 4.40625v20.878907c0 17.355468-14.066407 31.421874-31.421876 31.421874zm0 0" fill="#b1de54"/><path d="m44.609375 226.195312h14.425781c2.433594 0 4.402344-1.972656 4.402344-4.402343v-6.453125c0-25.324219-20.527344-45.851563-45.847656-45.851563-2.433594 0-4.40625 1.972657-4.40625 4.40625v20.878907c0 17.355468 14.070312 31.421874 31.425781 31.421874zm0 0" fill="#b1de54"/><path d="m248.429688 390.589844v111.132812c0 5.671875-4.605469 10.277344-10.277344 10.277344h-227.875c-5.671875 0-10.277344-4.605469-10.277344-10.277344v-111.132812c0-44.660156 36.214844-80.867188 80.878906-80.867188h86.671875c44.664063.003906 80.878907 36.207032 80.878907 80.867188zm0 0" fill="#6c6c65"/><path d="m248.421875 390.589844v111.132812c0 5.675782-4.601563 10.277344-10.277344 10.277344h-34.882812v-121.398438c0-44.667968-36.203125-80.871093-80.871094-80.871093h45.167969c44.660156 0 80.863281 36.203125 80.863281 80.859375zm0 0" fill="#5a5a52"/><path d="m52.875 385.132812v126.867188h-15.414062v-126.867188c0-4.253906 3.449218-7.707031 7.707031-7.707031 4.253906 0 7.707031 3.453125 7.707031 7.707031zm0 0" fill="#5a5a52"/><path d="m164.503906 309.730469v14.136719c0 18.558593-15.046875 33.601562-33.601562 33.601562h-13.375c-18.554688 0-33.601563-15.042969-33.601563-33.601562v-14.136719h20.863281v-43.015625h38.851563v43.015625zm0 0" fill="#d3ed91"/><path d="m143.640625 266.714844v32.675781c-6.296875 1.6875-12.800781 2.558594-19.425781 2.558594s-13.128906-.871094-19.425782-2.558594v-32.675781zm0 0" fill="#b1de54"/><path d="m124.21875 103.109375c43.832031 0 79.363281 35.53125 79.363281 79.363281v8.351563c0 55.484375-35.535156 100.46875-79.367187 100.46875-43.832032 0-79.371094-44.984375-79.371094-100.46875v-8.351563c0-43.832031 35.535156-79.363281 79.367188-79.363281zm0 0" fill="#d3ed91"/><path d="m88.109375 209.160156c-4.257813 0-7.707031-3.449218-7.707031-7.707031v-.824219c0-4.253906 3.449218-7.707031 7.707031-7.707031 4.253906 0 7.707031 3.453125 7.707031 7.707031v.824219c0 4.257813-3.449218 7.707031-7.707031 7.707031zm0 0" fill="#5c73bc"/><path d="m160.320312 209.160156c-4.257812 0-7.707031-3.449218-7.707031-7.707031v-.824219c0-4.253906 3.449219-7.707031 7.707031-7.707031 4.253907 0 7.707032 3.453125 7.707032 7.707031v.824219c0 4.257813-3.453125 7.707031-7.707032 7.707031zm0 0" fill="#5c73bc"/><path d="m124.214844 242.191406c-7.222656 0-13.078125-5.855468-13.078125-13.078125v-27.746093c0-2.835938 2.296875-5.136719 5.136719-5.136719h15.878906c2.839844 0 5.140625 2.300781 5.140625 5.136719v27.746093c0 7.222657-5.855469 13.078125-13.078125 13.078125zm0 0" fill="#b1de54"/><path d="m122.195312 269.40625c-2.414062 0-4.933593-.152344-7.5625-.484375-4.226562-.527344-7.222656-4.378906-6.695312-8.601563.53125-4.226562 4.378906-7.21875 8.605469-6.691406 11.933593 1.488282 21.59375-1.578125 28.707031-9.117187 5.605469-5.945313 7.652344-12.613281 7.675781-12.679688 1.21875-4.058593 5.492188-6.394531 9.558594-5.199219 4.066406 1.195313 6.414063 5.425782 5.242187 9.5-3.484374 12.125-17.304687 33.273438-45.53125 33.273438zm0 0" fill="#5c73bc"/><path d="m89.933594 260.753906c-.015625 0-.03125 0-.042969 0-4.257813-.027344-7.734375-3.496094-7.710937-7.753906.023437-4.242188 3.425781-7.664062 7.660156-7.664062h.046875.089843c4.253907.023437 7.6875 3.496093 7.664063 7.753906-.023437 4.238281-3.472656 7.664062-7.707031 7.664062zm0 0" fill="#b1de54"/><path d="m70.167969 184.910156c-4.257813 0-7.753907-3.449218-7.753907-7.703125 0-4.257812 3.40625-7.707031 7.664063-7.707031h.089844c4.257812 0 7.707031 3.449219 7.707031 7.707031 0 4.253907-3.449219 7.703125-7.707031 7.703125zm0 0" fill="#b1de54"/><path d="m183.492188 192.457031c-4.253907 0-7.75-3.449219-7.75-7.707031s3.40625-7.707031 7.664062-7.707031h.085938c4.257812 0 7.707031 3.449219 7.707031 7.707031s-3.449219 7.707031-7.707031 7.707031zm0 0" fill="#b1de54"/><path d="m156.328125 175.527344c-.015625 0-.03125 0-.046875 0-4.253906-.023438-7.730469-3.496094-7.707031-7.75.023437-4.242188 3.425781-7.667969 7.660156-7.667969h.042969l.089844.003906c4.257812.023438 7.691406 3.492188 7.664062 7.75-.019531 4.242188-3.46875 7.664063-7.703125 7.664063zm0 0" fill="#b1de54"/><path d="m248.421875 132.925781c0-15.910156-55.609375-28.8125-124.207031-28.8125s-124.21093775 12.902344-124.21093775 28.8125c0 15.914063 55.61328175 28.8125 124.21093775 28.8125s124.207031-12.898437 124.207031-28.8125zm0 0" fill="#5a5a52"/><path d="m248.429688 132.925781c0 3.308594-2.40625 6.496094-6.84375 9.453125-16.875-11.273437-63.050782-19.371094-117.371094-19.371094-54.320313 0-100.496094 8.097657-117.367188 19.371094-4.441406-2.957031-6.84374975-6.144531-6.84374975-9.453125 0-15.90625 55.61328175-28.816406 124.21093775-28.816406s124.214844 12.90625 124.214844 28.816406zm0 0" fill="#3d3d38"/><path d="m181.0625 55.234375-10.316406-2.691406-20.171875-5.261719-.226563-.0625 31.21875 67.1875c2.375 5.117188.1875 11.171875-4.898437 13.605469-9.074219 4.367187-25.753907 9.824219-52.453125 9.824219-27.171875 0-43.6875-5.382813-52.597656-9.730469-5.035157-2.464844-7.183594-8.488281-4.820313-13.574219l49-105.449219c4.285156-9.21875 16.074219-11.992187 24.027344-5.652343l48 38.292968c6.519531 5.199219 1.308593 15.609375-6.761719 13.511719zm0 0" fill="#6c6c65"/><path d="m181.574219 114.410156c2.375 5.117188.179687 11.167969-4.902344 13.613282-9.074219 4.363281-25.753906 9.816406-52.457031 9.816406-27.171875 0-43.6875-5.382813-52.597656-9.734375-5.039063-2.457031-7.179688-8.488281-4.816407-13.570313l5.484375-11.800781c9.054688 4.296875 25.414063 9.414063 51.929688 9.414063 26.144531 0 42.679687-5.222657 51.875-9.539063zm0 0" fill="#ff4e61"/><path d="m132.691406 139.535156h-17.863281c-5.542969 0-10.03125-4.492187-10.03125-10.035156v-20.082031c0-5.542969 4.488281-10.035157 10.03125-10.035157h17.863281c5.539063 0 10.03125 4.492188 10.03125 10.035157v20.082031c0 5.542969-4.492187 10.035156-10.03125 10.035156zm0 0" fill="#f5f6e3"/><path d="m114.53125 127.636719h-8.027344c-4.253906 0-7.707031-3.449219-7.707031-7.707031 0-4.253907 3.453125-7.707032 7.707031-7.707032h8.027344c4.257812 0 7.707031 3.453125 7.707031 7.707032 0 4.257812-3.449219 7.707031-7.707031 7.707031zm0 0" fill="#6c6c65"/><path d="m170.746094 52.542969-20.171875-5.261719-6.96875-13.339844c-1.972657-3.78125-.511719-8.4375 3.257812-10.398437 3.773438-1.976563 8.429688-.515625 10.402344 3.257812zm0 0" fill="#3d3d38"/><path d="m134.746094 437.445312-26.792969 26.792969c-4.011719 4.015625-10.519531 4.015625-14.53125 0l-18.585937-18.585937c-4.015626-4.011719-4.015626-10.519532 0-14.53125l26.789062-26.792969c4.015625-4.011719 10.519531-4.011719 14.535156 0l18.585938 18.585937c4.011718 4.011719 4.011718 10.519532 0 14.53125zm0 0" fill="#ff4e61"/><g fill="#5c73bc"><path d="m118.757812 469.496094c-1.972656 0-3.945312-.753906-5.449218-2.257813l-8.195313-8.195312c-3.007812-3.007813-3.007812-7.890625 0-10.898438 3.011719-3.011719 7.890625-3.011719 10.902344 0l8.195313 8.195313c3.007812 3.007812 3.007812 7.890625 0 10.898437-1.507813 1.507813-3.480469 2.257813-5.453126 2.257813zm0 0"/><path d="m133.464844 454.792969c-1.976563 0-3.945313-.753907-5.453125-2.257813l-8.195313-8.195312c-3.007812-3.007813-3.007812-7.890625 0-10.898438 3.011719-3.011718 7.890625-3.011718 10.902344 0l8.195312 8.195313c3.007813 3.007812 3.007813 7.886719 0 10.898437-1.507812 1.507813-3.480468 2.257813-5.449218 2.257813zm0 0"/><path d="m117.1875 424.558594c-1.972656 0-3.945312-.75-5.449219-2.257813-3.007812-3.007812-3.007812-7.890625 0-10.898437l12.6875-12.6875c3.007813-3.007813 7.890625-3.007813 10.898438 0 3.011719 3.011718 3.011719 7.890625 0 10.902344l-12.683594 12.683593c-1.507813 1.507813-3.480469 2.257813-5.453125 2.257813zm0 0"/><path d="m92.613281 434.582031c-1.972656 0-3.945312-.753906-5.449219-2.261719l-15.929687-15.925781c-3.011719-3.011719-3.011719-7.890625 0-10.902343 3.007813-3.007813 7.890625-3.007813 10.898437 0l15.929688 15.929687c3.011719 3.011719 3.011719 7.890625 0 10.898437-1.503906 1.507813-3.476562 2.261719-5.449219 2.261719zm0 0"/><path d="m77.675781 470.417969c-1.972656 0-3.945312-.753907-5.449219-2.257813-3.011718-3.011718-3.011718-7.890625 0-10.902344l12.683594-12.683593c3.011719-3.011719 7.890625-3.011719 10.902344 0 3.007812 3.007812 3.007812 7.890625 0 10.898437l-12.6875 12.6875c-1.503906 1.503906-3.476562 2.257813-5.449219 2.257813zm0 0"/></g><path d="m203.265625 422.082031h45.15625v39.707031h-45.15625zm0 0" fill="#e0e0d1"/><path d="m225.84375 434.582031c-4.257812 0-7.707031-3.449219-7.707031-7.707031v-15.757812c0-4.257813 3.453125-7.707032 7.707031-7.707032 4.257812 0 7.707031 3.453125 7.707031 7.707032v15.757812c0 4.257812-3.449219 7.707031-7.707031 7.707031zm0 0" fill="#5c73bc"/><path d="m225.84375 477.089844c-4.257812 0-7.707031-3.449219-7.707031-7.707032v-15.753906c0-4.257812 3.453125-7.707031 7.707031-7.707031 4.257812 0 7.707031 3.449219 7.707031 7.707031v15.753906c0 4.257813-3.449219 7.707032-7.707031 7.707032zm0 0" fill="#5c73bc"/></svg>