<svg height="512pt" viewBox="-81 0 512 512.0002" width="512pt" xmlns="http://www.w3.org/2000/svg"><path d="m344.328125 263.59375-16.472656-94.203125c-2.726563-15.578125-8.925781-29.796875-17.699219-41.941406h-164.738281c-8.773438 12.144531-14.972657 26.363281-17.699219 41.941406l-16.46875 94.203125c-6.609375 37.78125 22.464844 72.375 60.816406 72.375h111.441406c38.351563 0 67.421876-34.59375 60.820313-72.375zm0 0" fill="#af4d00"/><path d="m305.695312 221.378906h-14.121093c-2.378907 0-4.308594-1.929687-4.308594-4.308594v-6.316406c0-24.78125 20.089844-44.871094 44.871094-44.871094 2.382812 0 4.3125 1.929688 4.3125 4.308594v20.433594c0 16.984375-13.769531 30.753906-30.753907 30.753906zm0 0" fill="#b1de54"/><path d="m349.351562 382.269531v108.519531c0 5.6875-4.617187 10.300782-10.304687 10.300782h-222.515625c-5.6875 0-10.304688-4.613282-10.304688-10.300782v-108.519531c0-43.710937 35.429688-79.136719 79.140626-79.136719h84.835937c43.710937 0 79.148437 35.425782 79.148437 79.136719zm0 0" fill="#5c73bc"/><path d="m214.988281 345.421875h25.597657v155.667969h-25.597657zm0 0" fill="#f5f6e3"/><path d="m158.148438 376.933594v124.15625h-15.453126v-124.15625c0-4.277344 3.460938-7.726563 7.726563-7.726563s7.726563 3.449219 7.726563 7.726563zm0 0" fill="#4159a5"/><path d="m349.34375 382.269531v108.519531c0 5.6875-4.609375 10.300782-10.300781 10.300782h-33.890625v-118.8125c0-43.714844-35.433594-79.144532-79.148438-79.144532h44.203125c43.707031 0 79.136719 35.429688 79.136719 79.136719zm0 0" fill="#4159a5"/><path d="m267.21875 303.132812v13.835938c0 18.160156-14.726562 32.886719-32.886719 32.886719h-13.089843c-18.160157 0-32.882813-14.726563-32.882813-32.886719v-13.835938h20.417969v-42.101562h38.023437v42.101562zm0 0" fill="#d3ed91"/><path d="m246.796875 261.03125v31.980469c-6.160156 1.652343-12.523437 2.503906-19.007813 2.503906-6.488281 0-12.847656-.851563-19.011718-2.503906v-31.980469zm0 0" fill="#b1de54"/><path d="m227.789062 100.914062c42.898438 0 77.675782 34.777344 77.675782 77.675782v8.167968c0 54.304688-34.78125 98.332032-77.675782 98.332032-42.898437 0-77.679687-44.027344-77.679687-98.332032v-8.167968c0-42.898438 34.777344-77.675782 77.675781-77.675782zm0 0" fill="#d3ed91"/><path d="m190.484375 219.09375c0 4.851562-3.933594 8.78125-8.78125 8.78125s-8.78125-3.929688-8.78125-8.78125c0-4.847656 3.933594-8.777344 8.78125-8.777344s8.78125 3.929688 8.78125 8.777344zm0 0" fill="#ff8294"/><path d="m192.453125 204.890625c-4.269531 0-7.726563-3.460937-7.726563-7.726563v-.808593c0-4.265625 3.457032-7.722657 7.726563-7.722657 4.265625 0 7.726563 3.457032 7.726563 7.722657v.808593c0 4.265626-3.460938 7.726563-7.726563 7.726563zm0 0" fill="#4159a5"/><path d="m263.121094 204.890625c-4.265625 0-7.722656-3.460937-7.722656-7.726563v-.808593c0-4.265625 3.457031-7.722657 7.722656-7.722657 4.269531 0 7.726562 3.457032 7.726562 7.722657v.808593c0 4.265626-3.457031 7.726563-7.726562 7.726563zm0 0" fill="#4159a5"/><path d="m227.789062 237.03125c-7.070312 0-12.800781-5.730469-12.800781-12.800781v-25.941407c0-3.445312 2.792969-6.238281 6.238281-6.238281h13.121094c3.445313 0 6.238282 2.792969 6.238282 6.238281v25.941407c0 7.070312-5.730469 12.800781-12.796876 12.800781zm0 0" fill="#b1de54"/><path d="m225.984375 263.863281c-2.410156 0-4.941406-.152343-7.597656-.484375-4.234375-.53125-7.238281-4.394531-6.710938-8.625.53125-4.238281 4.386719-7.242187 8.628907-6.710937 18.175781 2.273437 27.707031-6.875 32.496093-14.949219 2.175781-3.671875 6.914063-4.882812 10.585938-2.703125 3.667969 2.175781 4.878906 6.914063 2.703125 10.585937-5.289063 8.921876-17.238282 22.886719-40.105469 22.886719zm0 0" fill="#4159a5"/><g fill="#b1de54"><path d="m194.238281 255.382812c-.015625 0-.03125 0-.046875 0-4.265625-.027343-7.75-3.503906-7.722656-7.773437.023438-4.25 3.433594-7.679687 7.679688-7.679687h.046874.085938c4.269531.023437 7.707031 3.503906 7.683594 7.769531-.027344 4.253906-3.480469 7.683593-7.726563 7.683593zm0 0"/><path d="m285.804688 188.542969c-4.269532 0-7.769532-3.460938-7.769532-7.726563s3.414063-7.726562 7.679688-7.726562h.089844c4.269531 0 7.726562 3.460937 7.726562 7.726562s-3.460938 7.726563-7.726562 7.726563zm0 0"/><path d="m259.214844 171.972656c-.015625 0-.03125 0-.042969 0-4.269531-.023437-7.75-3.503906-7.726563-7.769531.023438-4.25 3.4375-7.683594 7.679688-7.683594h.046875.085937c4.269532.027344 7.707032 3.503907 7.683594 7.773438-.023437 4.25-3.480468 7.679687-7.726562 7.679687zm0 0"/></g><path d="m167.96875 277.855469c-14.003906 0-25.351562-11.351563-25.351562-25.351563v-101.277344h32.316406v119.660157c0 3.847656-3.117188 6.96875-6.964844 6.96875zm0 0" fill="#bc6c35"/><path d="m349.347656 130.097656c0-15.574218-54.425781-28.199218-121.558594-28.199218-67.136718 0-121.5625 12.625-121.5625 28.199218 0 15.574219 54.425782 28.199219 121.5625 28.199219 67.132813 0 121.558594-12.625 121.558594-28.199219zm0 0" fill="#4159a5"/><path d="m349.351562 130.09375c0 3.738281-3.132812 7.304688-8.828124 10.570312-18.03125-10.34375-61.710938-17.636718-112.734376-17.636718-51.023437 0-94.703124 7.292968-112.730468 17.636718-5.699219-3.265624-8.832032-6.832031-8.832032-10.570312 0-15.566406 54.425782-28.195312 121.5625-28.195312 67.136719 0 121.5625 12.628906 121.5625 28.195312zm0 0" fill="#2c439b"/><path d="m253.410156 46.226562-.039062-.011718 30.449218 65.542968c2.378907 5.128907.191407 11.210938-4.914062 13.644532-8.929688 4.253906-25.195312 9.5-51.117188 9.5-26.378906 0-42.492187-5.179688-51.261718-9.417969-5.058594-2.445313-7.199219-8.507813-4.832032-13.605469l47.851563-102.988281c4.203125-9.023437 15.734375-11.742187 23.519531-5.53125l46.976563 37.480469c6.378906 5.085937 1.277343 15.273437-6.625 13.214844l-10.628907-2.769532-6.492187-1.691406zm0 0" fill="#5c73bc"/><path d="m283.824219 111.757812c2.378906 5.128907.191406 11.210938-4.914063 13.644532-8.929687 4.253906-25.199218 9.5-51.121094 9.5-26.378906 0-42.488281-5.175782-51.261718-9.417969-5.058594-2.445313-7.199219-8.511719-4.828125-13.605469l5.265625-11.332031c8.863281 4.207031 24.875 9.214844 50.824218 9.214844 25.585938 0 41.765626-5.109375 50.769532-9.332031zm0 0" fill="#fa0"/><path d="m272.789062 51.285156-6.492187-1.691406-12.886719-3.367188-6.769531-12.980468c-1.976563-3.78125-.515625-8.449219 3.265625-10.425782 3.78125-1.96875 8.460938-.503906 10.425781 3.277344zm0 0" fill="#2c439b"/><path d="m236.742188 139.253906h-17.910157c-5.554687 0-10.054687-4.503906-10.054687-10.058594v-20.136718c0-5.554688 4.5-10.054688 10.054687-10.054688h17.910157c5.554687 0 10.054687 4.5 10.054687 10.054688v20.136718c0 5.554688-4.5 10.058594-10.054687 10.058594zm0 0" fill="#f5f6e3"/><path d="m218.539062 127.328125h-8.046874c-4.269532 0-7.726563-3.460937-7.726563-7.726563 0-4.269531 3.457031-7.726562 7.726563-7.726562h8.046874c4.265626 0 7.722657 3.457031 7.722657 7.726562.003906 4.265626-3.457031 7.726563-7.722657 7.726563zm0 0" fill="#6c6c65"/><path d="m282.652344 219.09375c0 4.851562-3.933594 8.78125-8.78125 8.78125s-8.78125-3.929688-8.78125-8.78125c0-4.847656 3.933594-8.777344 8.78125-8.777344s8.78125 3.929688 8.78125 8.777344zm0 0" fill="#ff8294"/><path d="m88.90625 504.753906v-269.984375c0-7.386719-5.988281-13.375-13.375-13.375s-13.375 5.988281-13.375 13.375v269.984375zm0 0" fill="#af4d00"/><path d="m62.15625 278.371094h26.75v57.777344h-26.75zm0 0" fill="#f5f6e3"/><path d="m88.90625 366.21875h-26.75c-4.269531 0-7.726562-3.457031-7.726562-7.726562 0-4.265626 3.457031-7.726563 7.726562-7.726563h26.75c4.265625 0 7.726562 3.460937 7.726562 7.726563 0 4.269531-3.460937 7.726562-7.726562 7.726562zm0 0" fill="#5c73bc"/><path d="m73.425781 512h18.777344c9.53125 0 17.257813-7.726562 17.257813-17.257812v-48.128907c0-9.527343-7.726563-17.253906-17.257813-17.253906h-18.777344c-15.292969 0-27.6875 12.394531-27.6875 27.6875v27.261719c0 15.292968 12.398438 27.691406 27.6875 27.691406zm0 0" fill="#d3ed91"/><path d="m75.3125 244.84375c-18.316406 0-30.566406-18.859375-23.125-35.59375l8.238281-18.523438h29.777344l8.238281 18.523438c7.441406 16.734375-4.8125 35.59375-23.128906 35.59375zm0 0" fill="#ffd02f"/><path d="m147.621094 119.667969c-.246094 3.65625-.660156 7.242187-1.246094 10.722656-5.574219 32.769531-27.339844 57.359375-54.09375 65.167969-10.273438 3.019531-21.273438 3.546875-32.390625 1.125-1.480469-.320313-2.945313-.699219-4.386719-1.113282-37.550781-10.878906-61.585937-53.136718-54.15625-96.816406 7.714844-45.347656 49.777344-94.628906 89.820313-85.882812 4.613281.996094 9.003906 2.726562 13.132812 5.078125 3.609375 2.039062 4.71875 7.3125 2.269531 10.941406-3.0625 4.519531-5.277343 9.910156-6.316406 15.875-3.554687 20.457031 8.34375 40.730469 26.371094 44.945313.136719.03125.28125.0625.421875.09375 12.539063 2.738281 21.511719 15.449218 20.574219 29.863281zm0 0" fill="#fa0"/><path d="m107.847656 152.808594c-2.855468 18.757812-8.324218 33.59375-15.566406 42.75-10.273438 3.019531-21.273438 3.546875-32.390625 1.125-1.480469-.320313-2.945313-.699219-4.386719-1.113282-5.769531-7.242187-12.179687-20.097656-15.648437-42.75-.648438-4.226562 2.246093-8.160156 6.46875-8.808593 4.210937-.640625 8.160156 2.246093 8.808593 6.46875 3.550782 23.230469 11.011719 36.570312 16.8125 39.476562 1.398438.710938 2.492188.699219 3.871094-.011719 5.800782-3.007812 13.238282-16.367187 16.753906-39.464843.648438-4.214844 4.582032-7.105469 8.804688-6.46875 4.214844.636719 7.121094 4.582031 6.472656 8.796875zm0 0" fill="#ff8b00"/></svg>