<svg height="512pt" viewBox="-29 0 512 512" width="512pt" xmlns="http://www.w3.org/2000/svg"><path d="m396.394531 446.039062h-24.003906c-4.269531 0-7.726563-3.460937-7.726563-7.726562s3.460938-7.726562 7.726563-7.726562h24.003906c23.777344 0 43.125-19.34375 43.125-43.125v-4.777344c0-23.777344-19.347656-43.121094-43.125-43.121094h-337.816406c-32.300781 0-58.578125-26.277344-58.578125-58.578125 0-32.296875 26.277344-58.578125 58.578125-58.578125h10.527344c4.265625 0 7.726562 3.460938 7.726562 7.726562 0 4.269532-3.460937 7.726563-7.726562 7.726563h-10.527344c-23.78125 0-43.125 19.347656-43.125 43.125s19.34375 43.125 43.125 43.125h337.816406c32.300781 0 58.578125 26.277344 58.578125 58.574219v4.777344c0 32.300781-26.28125 58.578124-58.578125 58.578124zm0 0" fill="#d80000"/><path d="m381.308594 354.761719v139.519531c0 5.6875-4.613282 10.300781-10.300782 10.300781h-285.949218c-5.6875 0-10.300782-4.613281-10.300782-10.300781v-139.519531c0-55.113281 44.679688-99.792969 99.792969-99.792969h106.964844c55.113281 0 99.792969 44.679688 99.792969 99.792969zm0 0" fill="#ff4e61"/><path d="m381.304688 354.769531v139.507813c0 5.691406-4.613282 10.300781-10.300782 10.300781h-45.421875v-149.808594c0-55.121093-44.675781-99.796875-99.796875-99.796875h55.734375c55.109375 0 99.785157 44.675782 99.785157 99.796875zm0 0" fill="#d80000"/><path d="m138.207031 348.027344v156.554687h-15.453125v-156.554687c0-4.265625 3.460938-7.726563 7.726563-7.726563 4.277343 0 7.726562 3.460938 7.726562 7.726563zm0 0" fill="#d80000"/><path d="m277.75 254.972656v17.449219c0 22.898437-18.566406 41.464844-41.464844 41.464844h-16.507812c-22.894532 0-41.460938-18.566407-41.460938-41.464844v-17.449219h25.746094v-53.082031h47.941406v53.082031zm0 0" fill="#ffdec2"/><path d="m252.003906 201.890625v40.324219c-7.769531 2.085937-15.792968 3.15625-23.972656 3.15625-8.175781 0-16.199219-1.070313-23.96875-3.15625v-40.324219zm0 0" fill="#ffcfa1"/><path d="m372.390625 123.53125c0 17.574219-14.246094 31.824219-31.824219 31.824219-17.574218 0-31.824218-14.25-31.824218-31.824219s14.25-31.824219 31.824218-31.824219c17.578125 0 31.824219 14.25 31.824219 31.824219zm0 0" fill="#d80000"/><path d="m147.324219 123.53125c0 17.574219-14.25 31.824219-31.824219 31.824219-17.578125 0-31.824219-14.25-31.824219-31.824219s14.246094-31.824219 31.824219-31.824219c17.574219 0 31.824219 14.25 31.824219 31.824219zm0 0" fill="#d80000"/><path d="m228.035156 0c54.09375 0 97.941406 43.847656 97.941406 97.9375v10.304688c0 68.46875-43.855468 123.980468-97.945312 123.980468s-97.941406-55.511718-97.941406-123.980468v-10.304688c0-54.089844 43.847656-97.9375 97.9375-97.9375zm0 0" fill="#ff4e61"/><path d="m208.804688 120.34375c0 13.984375-11.339844 25.324219-25.324219 25.324219-13.988281 0-25.328125-11.339844-25.328125-25.324219 0-13.988281 11.339844-25.324219 25.328125-25.324219 13.984375 0 25.324219 11.335938 25.324219 25.324219zm0 0" fill="#ffdec2"/><path d="m297.910156 120.34375c0 13.984375-11.335937 25.324219-25.324218 25.324219-13.984376 0-25.324219-11.339844-25.324219-25.324219 0-13.988281 11.339843-25.324219 25.324219-25.324219 13.988281 0 25.324218 11.335938 25.324218 25.324219zm0 0" fill="#ffdec2"/><path d="m228.03125 185.148438c-10.5 0-20.296875-6.707032-25.566406-17.507813-1.871094-3.835937-.28125-8.460937 3.554687-10.332031 3.835938-1.871094 8.460938-.277344 10.332031 3.554687 2.699219 5.53125 7.066407 8.832031 11.679688 8.832031 4.617188 0 8.984375-3.300781 11.683594-8.832031 1.871094-3.832031 6.496094-5.425781 10.332031-3.554687 3.832031 1.871094 5.425781 6.496094 3.554687 10.332031-5.269531 10.800781-15.066406 17.507813-25.570312 17.507813zm0 0" fill="#d80000"/><path d="m183.480469 129.085938c-4.269531 0-7.726563-3.457032-7.726563-7.726563v-1.015625c0-4.265625 3.457032-7.726562 7.726563-7.726562 4.265625 0 7.722656 3.460937 7.722656 7.726562v1.015625c0 4.269531-3.457031 7.726563-7.722656 7.726563zm0 0" fill="#3d3d38"/><path d="m272.585938 129.085938c-4.265626 0-7.726563-3.457032-7.726563-7.726563v-1.015625c0-4.265625 3.460937-7.726562 7.726563-7.726562 4.269531 0 7.726562 3.460937 7.726562 7.726562v1.015625c0 4.269531-3.457031 7.726563-7.726562 7.726563zm0 0" fill="#3d3d38"/><path d="m134.261719.496094 46.160156 16.292968c4.382813 1.550782 7.3125 5.691407 7.3125 10.339844 0 20.769532-16.839844 37.605469-37.609375 37.605469-4.644531 0-8.789062-2.929687-10.335938-7.3125l-16.292968-46.160156c-2.359375-6.6875 4.078125-13.125 10.765625-10.765625zm0 0" fill="#5a5a52"/><path d="m321.804688.496094-46.160157 16.292968c-4.382812 1.546876-7.3125 5.691407-7.3125 10.335938 0 20.769531 16.839844 37.609375 37.609375 37.609375 4.644532 0 8.789063-2.929687 10.335938-7.3125l16.292968-46.160156c2.359376-6.6875-4.082031-13.125-10.765624-10.765625zm0 0" fill="#5a5a52"/><path d="m116.199219 237.746094-44.160157 21.117187c-4.191406 2.003907-9.191406 1.148438-12.476562-2.136719-7.34375-7.34375 10.71875-16.96875 10.71875-26.59375s-18.0625-19.246093-10.71875-26.589843c3.285156-3.285157 8.285156-4.144531 12.476562-2.140625l44.160157 21.121094c6.398437 3.058593 6.398437 12.164062 0 15.222656zm0 0" fill="#ff4e61"/><path d="m370.691406 504.578125v-276.542969c0-7.566406 6.136719-13.699218 13.703125-13.699218 7.566407 0 13.699219 6.132812 13.699219 13.699218v276.542969zm0 0" fill="#3d3d38"/><path d="m370.691406 272.695312h27.402344v59.183594h-27.402344zm0 0" fill="#ff4e61"/><path d="m435.722656 73.558594c-7.566406 0-13.699218 6.132812-13.699218 13.703125v82.683593c0 15.570313-10.007813 28.84375-23.929688 33.738282v-118.230469c0-7.566406-6.132812-13.699219-13.699219-13.699219-7.566406 0-13.703125 6.132813-13.703125 13.699219v118.230469c-13.917968-4.898438-23.925781-18.167969-23.925781-33.738282v-82.683593c0-7.570313-6.132813-13.703125-13.699219-13.703125s-13.703125 6.132812-13.703125 13.703125v82.683593c0 34.824219 28.332031 63.160157 63.15625 63.160157h3.746094c34.824219 0 63.15625-28.335938 63.15625-63.160157v-82.683593c0-7.570313-6.132813-13.703125-13.699219-13.703125zm0 0" fill="#5a5a52"/><g fill="#ff4e61"><path d="m398.09375 362.492188h-27.398438c-4.269531 0-7.726562-3.460938-7.726562-7.726563 0-4.269531 3.457031-7.726563 7.726562-7.726563h27.398438c4.269531 0 7.726562 3.457032 7.726562 7.726563 0 4.265625-3.457031 7.726563-7.726562 7.726563zm0 0"/><path d="m386.546875 512h-19.230469c-9.761718 0-17.675781-7.914062-17.675781-17.675781v-49.296875c0-9.761719 7.914063-17.675782 17.675781-17.675782h19.230469c15.664063 0 28.363281 12.699219 28.363281 28.363282v27.921875c0 15.664062-12.699218 28.363281-28.363281 28.363281zm0 0"/></g></svg>