<?xml version="1.0" encoding="iso-8859-1"?>
<!-- Generator: Adobe Illustrator 19.0.0, SVG Export Plug-In . SVG Version: 6.00 Build 0)  -->
<svg version="1.1" id="Layer_1" xmlns="http://www.w3.org/2000/svg" xmlns:xlink="http://www.w3.org/1999/xlink" x="0px" y="0px"
	 viewBox="0 0 512.001 512.001" style="enable-background:new 0 0 512.001 512.001;" xml:space="preserve">
<g>
	<path style="fill:#F3D55B;" d="M51.2,196.267c0,14.08,11.52,25.6,25.6,25.6h25.6h17.067H153.6c18.773,0,34.133,15.36,34.133,34.133
		s-15.36,34.133-34.133,34.133H128h-17.067H102.4c-14.08,0-25.6,11.52-25.6,25.6s11.52,25.6,25.6,25.6H128h68.267h221.867
		c47.13,0,85.333-38.204,85.333-85.333s-38.204-85.333-85.333-85.333H196.267h-76.8H76.8C62.72,170.667,51.2,182.187,51.2,196.267"
		/>
	<path style="fill:#D75A4A;" d="M418.133,204.8c28.279,0,51.2,22.921,51.2,51.2c0,28.279-22.921,51.2-51.2,51.2
		c-28.279,0-51.2-22.921-51.2-51.2C366.933,227.721,389.854,204.8,418.133,204.8"/>
	<g>
		<path style="fill:#E57E25;" d="M426.667,247.467c4.71,0,8.533,3.823,8.533,8.533c0,4.71-3.823,8.533-8.533,8.533
			s-8.533-3.823-8.533-8.533C418.133,251.29,421.956,247.467,426.667,247.467"/>
		<path style="fill:#E57E25;" d="M452.267,230.4c4.71,0,8.533,3.823,8.533,8.533c0,4.71-3.823,8.533-8.533,8.533
			s-8.533-3.823-8.533-8.533C443.733,234.223,447.556,230.4,452.267,230.4"/>
		<path style="fill:#E57E25;" d="M452.267,264.534c4.71,0,8.533,3.823,8.533,8.533c0,4.71-3.823,8.533-8.533,8.533
			s-8.533-3.823-8.533-8.533C443.733,268.357,447.556,264.534,452.267,264.534"/>
		<path style="fill:#E57E25;" d="M426.667,213.334c4.71,0,8.533,3.823,8.533,8.533c0,4.71-3.823,8.533-8.533,8.533
			s-8.533-3.823-8.533-8.533C418.133,217.157,421.956,213.334,426.667,213.334"/>
		<path style="fill:#E57E25;" d="M426.667,281.6c4.71,0,8.533,3.823,8.533,8.533c0,4.71-3.823,8.533-8.533,8.533
			s-8.533-3.823-8.533-8.533C418.133,285.423,421.956,281.6,426.667,281.6"/>
		<path style="fill:#E57E25;" d="M273.067,247.467c4.71,0,8.533,3.823,8.533,8.533c0,4.71-3.823,8.533-8.533,8.533
			s-8.533-3.823-8.533-8.533C264.533,251.29,268.356,247.467,273.067,247.467"/>
		<path style="fill:#E57E25;" d="M238.933,264.534h-17.067c-4.71,0-8.533-3.814-8.533-8.533c0-4.719,3.823-8.533,8.533-8.533h17.067
			c4.71,0,8.533,3.814,8.533,8.533C247.467,260.719,243.644,264.534,238.933,264.534"/>
		<path style="fill:#E57E25;" d="M332.8,264.534h-25.6c-4.71,0-8.533-3.814-8.533-8.533c0-4.719,3.823-8.533,8.533-8.533h25.6
			c4.71,0,8.533,3.814,8.533,8.533C341.333,260.719,337.51,264.534,332.8,264.534"/>
		<path style="fill:#E57E25;" d="M273.067,221.867H204.8c-4.71,0-8.533-3.814-8.533-8.533s3.823-8.533,8.533-8.533h68.267
			c4.71,0,8.533,3.814,8.533,8.533S277.777,221.867,273.067,221.867"/>
		<path style="fill:#E57E25;" d="M324.267,221.867H307.2c-4.71,0-8.533-3.814-8.533-8.533s3.823-8.533,8.533-8.533h17.067
			c4.71,0,8.533,3.814,8.533,8.533S328.977,221.867,324.267,221.867"/>
		<path style="fill:#E57E25;" d="M324.267,307.2H256c-4.71,0-8.533-3.814-8.533-8.533c0-4.719,3.823-8.533,8.533-8.533h68.267
			c4.71,0,8.533,3.814,8.533,8.533C332.8,303.386,328.977,307.2,324.267,307.2"/>
		<path style="fill:#E57E25;" d="M221.867,307.2H204.8c-4.71,0-8.533-3.814-8.533-8.533c0-4.719,3.823-8.533,8.533-8.533h17.067
			c4.71,0,8.533,3.814,8.533,8.533C230.4,303.386,226.577,307.2,221.867,307.2"/>
	</g>
	<g>
		<path style="fill:#F3D55B;" d="M443.733,51.2c0,4.71-3.823,8.533-8.533,8.533s-8.533-3.823-8.533-8.533s3.823-8.533,8.533-8.533
			S443.733,46.49,443.733,51.2"/>
		<path style="fill:#F3D55B;" d="M290.133,418.134c0,4.71-3.823,8.533-8.533,8.533s-8.533-3.823-8.533-8.533
			s3.823-8.533,8.533-8.533S290.133,413.423,290.133,418.134"/>
		<path style="fill:#F3D55B;" d="M179.2,102.4c0,4.71-3.823,8.533-8.533,8.533s-8.533-3.823-8.533-8.533s3.823-8.533,8.533-8.533
			S179.2,97.69,179.2,102.4"/>
		<path style="fill:#F3D55B;" d="M17.067,452.267c0,4.71-3.823,8.533-8.533,8.533S0,456.978,0,452.267s3.823-8.533,8.533-8.533
			S17.067,447.557,17.067,452.267"/>
		<path style="fill:#F3D55B;" d="M37.667,51.2l13.534,13.534L64.735,51.2L51.201,37.667L37.667,51.2z M51.201,88.867L13.535,51.2
			l37.666-37.666L88.867,51.2L51.201,88.867z"/>
		<path style="fill:#F3D55B;" d="M51.2,34.134c-4.71,0-8.533-3.814-8.533-8.533V8.534C42.667,3.815,46.49,0,51.2,0
			s8.533,3.814,8.533,8.533V25.6C59.733,30.319,55.91,34.134,51.2,34.134"/>
		<path style="fill:#F3D55B;" d="M93.867,59.734H76.8c-4.71,0-8.533-3.814-8.533-8.533s3.823-8.533,8.533-8.533h17.067
			c4.71,0,8.533,3.814,8.533,8.533S98.577,59.734,93.867,59.734"/>
		<path style="fill:#F3D55B;" d="M51.2,102.4c-4.71,0-8.533-3.814-8.533-8.533V76.8c0-4.719,3.823-8.533,8.533-8.533
			s8.533,3.814,8.533,8.533v17.067C59.733,98.586,55.91,102.4,51.2,102.4"/>
		<path style="fill:#F3D55B;" d="M25.6,59.734H8.533C3.823,59.734,0,55.919,0,51.2s3.823-8.533,8.533-8.533H25.6
			c4.71,0,8.533,3.814,8.533,8.533S30.31,59.734,25.6,59.734"/>
		<path style="fill:#F3D55B;" d="M460.775,469.334c3.234,2.432,6.127,5.316,8.559,8.559c2.432-3.243,5.316-6.127,8.559-8.559
			c-3.243-2.432-6.127-5.316-8.559-8.559C466.902,464.018,464.009,466.902,460.775,469.334 M469.334,512
			c-4.71,0-8.533-3.814-8.533-8.533c0-14.114-11.486-25.6-25.6-25.6c-4.71,0-8.533-3.814-8.533-8.533
			c0-4.719,3.823-8.533,8.533-8.533c14.114,0,25.6-11.486,25.6-25.6c0-4.719,3.823-8.533,8.533-8.533
			c4.71,0,8.533,3.814,8.533,8.533c0,14.114,11.486,25.6,25.6,25.6c4.71,0,8.533,3.814,8.533,8.533c0,4.719-3.823,8.533-8.533,8.533
			c-14.114,0-25.6,11.486-25.6,25.6C477.868,508.186,474.045,512,469.334,512"/>
	</g>
</g>
<g>
</g>
<g>
</g>
<g>
</g>
<g>
</g>
<g>
</g>
<g>
</g>
<g>
</g>
<g>
</g>
<g>
</g>
<g>
</g>
<g>
</g>
<g>
</g>
<g>
</g>
<g>
</g>
<g>
</g>
</svg>
