<svg id="Capa_1" enable-background="new 0 0 512 512" height="512" viewBox="0 0 512 512" width="512" xmlns="http://www.w3.org/2000/svg"><path d="m98.177 360.539h-43.143v-41.235h-30v41.235h-25.034v30h25.034v44.676h30v-44.676h43.143z" fill="#e6c897"/><path d="m512 360.539h-24.932v-41.235h-30v41.235h-41.068v30h41.068v44.676h30v-44.676h24.932z" fill="#bb997b"/><path d="m429.788 435.147h-347.576v-292.262l173.788-121.581 173.788 121.581z" fill="#fff5f5"/><path d="m18.992 228.983-18.853-23.336 255.861-205.647 255.295 203.053-18.615 23.527-236.68-188.17z" fill="#fc445f"/><path d="m429.788 435.147h-173.788v-396.736-17.107l173.788 121.581z" fill="#f2e3cb"/><path d="m256 0 255.295 203.053-18.615 23.527-236.68-188.17z" fill="#e1105a"/><path d="m256 182.348c-19.143 0-34.716-15.574-34.716-34.716s15.574-34.716 34.716-34.716 34.716 15.574 34.716 34.716-15.573 34.716-34.716 34.716z" fill="#e6c897"/><path d="m256 112.916c-.231 0-.46.003-.69.008l.148 69.417c.23.005.31.008.541.008 19.143 0 34.716-15.574 34.716-34.716s-15.572-34.717-34.715-34.717z" fill="#bb997b"/><path d="m156.859 249.023h198.228v186.124h-198.228z" fill="#56696e"/><path d="m256 249.023h99.087v186.124h-99.087z" fill="#3f4a4a"/><path d="m0 442.234h512v44.743h-512z" fill="#1fc979"/><path d="m256 442.234h256v44.743h-256z" fill="#108751"/><path d="m0 482h512v30h-512z" fill="#92e170"/><path d="m0 420.147h512v30h-512z" fill="#92e170"/><g fill="#1fc979"><path d="m256 482h256v30h-256z"/><path d="m256 420.147h256v30h-256z"/></g></svg>