<?xml version="1.0" encoding="iso-8859-1"?>
<!-- Generator: Adobe Illustrator 19.0.0, SVG Export Plug-In . SVG Version: 6.00 Build 0)  -->
<svg version="1.1" id="Layer_1" xmlns="http://www.w3.org/2000/svg" xmlns:xlink="http://www.w3.org/1999/xlink" x="0px" y="0px"
	 viewBox="0 0 512 512" style="enable-background:new 0 0 512 512;" xml:space="preserve">
<g>
	<path style="fill:#77797F;" d="M314.386,485.053v-71.86l53.895-26.947l17.965-62.877l-35.93-17.965l-8.982-53.895l-71.86-17.965
		l26.947-62.877l-26.947-53.895l46.17-65.958c-25.546-9.602-53.203-14.884-82.1-14.884C104.565,35.93,0,140.495,0,269.474
		s104.565,233.544,233.544,233.544c27.801,0,54.389-5.003,79.108-13.923L314.386,485.053z"/>
	<g>
		<path style="fill:#5E5F62;" d="M332.351,206.596c0,4.958-4.024,8.982-8.982,8.982c-4.958,0-8.982-4.024-8.982-8.982
			s4.024-8.982,8.982-8.982C328.327,197.614,332.351,201.638,332.351,206.596"/>
		<path style="fill:#5E5F62;" d="M449.123,17.965c0,4.958-4.024,8.982-8.982,8.982c-4.958,0-8.982-4.024-8.982-8.982
			s4.024-8.982,8.982-8.982C445.099,8.982,449.123,13.007,449.123,17.965"/>
		<path style="fill:#5E5F62;" d="M503.018,215.579c0,4.958-4.024,8.982-8.982,8.982c-4.958,0-8.982-4.024-8.982-8.982
			s4.024-8.982,8.982-8.982C498.993,206.596,503.018,210.621,503.018,215.579"/>
		<path style="fill:#5E5F62;" d="M26.947,62.877c0,4.958-4.024,8.982-8.982,8.982s-8.982-4.024-8.982-8.982s4.024-8.982,8.982-8.982
			S26.947,57.919,26.947,62.877"/>
		<polygon style="fill:#5E5F62;" points="368.281,35.93 332.351,98.807 332.351,143.719 404.211,80.842 		"/>
		<polygon style="fill:#5E5F62;" points="503.018,278.686 467.088,251.505 431.158,278.453 440.14,332.347 494.035,332.347 		"/>
		<polygon style="fill:#5E5F62;" points="377.263,179.649 377.263,224.561 512,170.918 458.105,99.059 		"/>
		<path style="fill:#5E5F62;" d="M242.526,287.439H107.789c-4.958,0-8.982-4.024-8.982-8.982s4.024-8.982,8.982-8.982h134.737
			c4.958,0,8.982,4.024,8.982,8.982S247.485,287.439,242.526,287.439"/>
		<path style="fill:#5E5F62;" d="M305.404,341.333H161.684c-4.958,0-8.982-4.024-8.982-8.982c0-4.958,4.024-8.982,8.982-8.982
			h143.719c4.958,0,8.982,4.024,8.982,8.982C314.386,337.309,310.362,341.333,305.404,341.333"/>
		<path style="fill:#5E5F62;" d="M278.456,395.228h-53.895c-4.958,0-8.982-4.024-8.982-8.982c0-4.958,4.024-8.982,8.982-8.982
			h53.895c4.958,0,8.982,4.024,8.982,8.982C287.439,391.204,283.414,395.228,278.456,395.228"/>
		<polygon style="fill:#5E5F62;" points="413.193,404.211 386.246,458.105 413.193,494.035 485.053,485.053 485.053,440.14 
			458.105,395.228 		"/>
		<path style="fill:#5E5F62;" d="M188.632,89.825c4.958,0,8.982-4.024,8.982-8.982c0-4.958-4.024-8.982-8.982-8.982h-79.495
			c-8.659,5.461-16.959,11.444-24.801,17.965H188.632z"/>
		<path style="fill:#5E5F62;" d="M273.965,125.754H143.719c-4.958,0-8.982,4.024-8.982,8.982s4.024,8.982,8.982,8.982h139.228
			L273.965,125.754z"/>
		<path style="fill:#5E5F62;" d="M277.173,215.579H179.65c-4.958,0-8.982,4.024-8.982,8.982s4.024,8.982,8.982,8.982h89.825
			L277.173,215.579z"/>
		<path style="fill:#5E5F62;" d="M78.482,125.754h-28.95c-4.518,5.776-8.767,11.767-12.737,17.965h41.688
			c4.958,0,8.982-4.024,8.982-8.982S83.441,125.754,78.482,125.754"/>
		<path style="fill:#5E5F62;" d="M185.583,170.667H21.923c-2.74,5.866-5.282,11.848-7.536,17.965h171.197
			c4.958,0,8.982-4.024,8.982-8.982S190.541,170.667,185.583,170.667"/>
		<path style="fill:#5E5F62;" d="M98.807,215.579H6.324c-1.401,5.91-2.632,11.893-3.566,17.965h96.049
			c4.958,0,8.982-4.024,8.982-8.982S103.765,215.579,98.807,215.579"/>
	</g>
	<g>
		<path style="fill:#77797F;" d="M42.553,287.439c4.958,0,8.982-4.024,8.982-8.982s-4.024-8.982-8.982-8.982H0.003
			c0,6.054,0.305,12.027,0.755,17.965H42.553z"/>
		<path style="fill:#77797F;" d="M42.553,323.368H6.317c1.437,6.081,3.099,12.072,4.994,17.965h31.241
			c4.958,0,8.982-4.024,8.982-8.982C51.535,327.393,47.511,323.368,42.553,323.368"/>
	</g>
	<g>
		<path style="fill:#5E5F62;" d="M170.154,377.263H26.381c3.207,6.153,6.683,12.144,10.411,17.965h133.363
			c4.958,0,8.982-4.024,8.982-8.982C179.136,381.287,175.112,377.263,170.154,377.263"/>
		<path style="fill:#5E5F62;" d="M251.509,431.158c0-4.958-4.024-8.982-8.982-8.982H56.922c5.443,6.288,11.201,12.288,17.273,17.965
			h168.331C247.485,440.14,251.509,436.116,251.509,431.158"/>
	</g>
</g>
<g>
</g>
<g>
</g>
<g>
</g>
<g>
</g>
<g>
</g>
<g>
</g>
<g>
</g>
<g>
</g>
<g>
</g>
<g>
</g>
<g>
</g>
<g>
</g>
<g>
</g>
<g>
</g>
<g>
</g>
</svg>
