<?xml version="1.0" encoding="iso-8859-1"?>
<!-- Generator: Adobe Illustrator 19.0.0, SVG Export Plug-In . SVG Version: 6.00 Build 0)  -->
<svg version="1.1" id="Layer_1" xmlns="http://www.w3.org/2000/svg" xmlns:xlink="http://www.w3.org/1999/xlink" x="0px" y="0px"
	 viewBox="0 0 512 512" style="enable-background:new 0 0 512 512;" xml:space="preserve">
<g>
	<polygon style="fill:#E8EDEE;" points="498.983,156.203 13.017,156.203 99.797,0 412.203,0 	"/>
	<polygon style="fill:#F3D55B;" points="455.593,78.102 412.203,0 290.712,0 290.712,78.102 	"/>
	<polygon style="fill:#B0B6BB;" points="13.017,312.407 498.983,312.407 498.983,156.203 13.017,156.203 	"/>
	<polygon style="fill:#E8EDEE;" points="134.508,381.831 13.017,381.831 47.729,312.407 99.797,312.407 	"/>
	<polygon style="fill:#B0B6BB;" points="13.017,416.542 134.508,416.542 134.508,381.831 13.017,381.831 	"/>
	<polygon style="fill:#E8EDEE;" points="498.983,381.831 377.492,381.831 412.203,312.407 464.271,312.407 	"/>
	<polygon style="fill:#B0B6BB;" points="377.492,416.542 498.983,416.542 498.983,381.831 377.492,381.831 	"/>
	<polygon style="fill:#E8EDEE;" points="316.746,381.831 195.254,381.831 229.966,312.407 282.034,312.407 	"/>
	<polygon style="fill:#B0B6BB;" points="195.254,416.542 316.746,416.542 316.746,381.831 195.254,381.831 	"/>
	<g>
		<path style="fill:#E57E25;" d="M264.678,503.322c0,4.79-3.888,8.678-8.678,8.678c-4.79,0-8.678-3.888-8.678-8.678
			s3.888-8.678,8.678-8.678C260.79,494.644,264.678,498.532,264.678,503.322"/>
		<path style="fill:#E57E25;" d="M256,477.288c-4.799,0-8.678-3.888-8.678-8.678v-17.356c0-4.79,3.879-8.678,8.678-8.678
			c4.799,0,8.678,3.888,8.678,8.678v17.356C264.678,473.4,260.799,477.288,256,477.288"/>
		<path style="fill:#E57E25;" d="M308.068,494.644c0,4.79,3.888,8.678,8.678,8.678s8.678-3.888,8.678-8.678
			s-3.888-8.678-8.678-8.678S308.068,489.854,308.068,494.644"/>
		<path style="fill:#E57E25;" d="M299.398,477.288c-3.185,0-6.248-1.753-7.775-4.799l-8.678-17.356
			c-2.143-4.287-0.399-9.494,3.888-11.646c4.287-2.143,9.494-0.399,11.646,3.888l8.678,17.356c2.143,4.287,0.399,9.494-3.888,11.646
			C302.028,476.993,300.7,477.288,299.398,477.288"/>
		<path style="fill:#E57E25;" d="M203.932,494.644c0,4.79-3.888,8.678-8.678,8.678s-8.678-3.888-8.678-8.678
			s3.888-8.678,8.678-8.678S203.932,489.854,203.932,494.644"/>
		<path style="fill:#E57E25;" d="M212.602,477.288c-1.302,0-2.629-0.295-3.87-0.911c-4.287-2.152-6.031-7.359-3.888-11.646
			l8.678-17.356c2.152-4.287,7.368-6.031,11.646-3.888c4.287,2.152,6.031,7.359,3.888,11.646l-8.678,17.356
			C218.85,475.535,215.786,477.288,212.602,477.288"/>
		<path style="fill:#E57E25;" d="M446.915,503.322c0,4.79-3.888,8.678-8.678,8.678c-4.79,0-8.678-3.888-8.678-8.678
			s3.888-8.678,8.678-8.678C443.027,494.644,446.915,498.532,446.915,503.322"/>
		<path style="fill:#E57E25;" d="M438.237,477.288c-4.799,0-8.678-3.888-8.678-8.678v-17.356c0-4.79,3.879-8.678,8.678-8.678
			c4.799,0,8.678,3.888,8.678,8.678v17.356C446.915,473.4,443.036,477.288,438.237,477.288"/>
		<path style="fill:#E57E25;" d="M490.305,494.644c0,4.79,3.888,8.678,8.678,8.678s8.678-3.888,8.678-8.678
			s-3.888-8.678-8.678-8.678S490.305,489.854,490.305,494.644"/>
		<path style="fill:#E57E25;" d="M481.636,477.288c-3.185,0-6.248-1.753-7.775-4.799l-8.678-17.356
			c-2.143-4.287-0.399-9.494,3.888-11.646c4.296-2.143,9.494-0.399,11.646,3.888l8.678,17.356c2.143,4.287,0.399,9.494-3.888,11.646
			C484.265,476.993,482.938,477.288,481.636,477.288"/>
		<path style="fill:#E57E25;" d="M386.169,494.644c0,4.79-3.888,8.678-8.678,8.678s-8.678-3.888-8.678-8.678
			s3.888-8.678,8.678-8.678S386.169,489.854,386.169,494.644"/>
		<path style="fill:#E57E25;" d="M394.839,477.288c-1.302,0-2.629-0.295-3.87-0.911c-4.287-2.152-6.031-7.359-3.888-11.646
			l8.678-17.356c2.152-4.287,7.359-6.031,11.646-3.888c4.287,2.152,6.031,7.359,3.888,11.646l-8.678,17.356
			C401.087,475.535,398.024,477.288,394.839,477.288"/>
		<path style="fill:#E57E25;" d="M82.441,503.322c0,4.79-3.888,8.678-8.678,8.678s-8.678-3.888-8.678-8.678s3.888-8.678,8.678-8.678
			S82.441,498.532,82.441,503.322"/>
		<path style="fill:#E57E25;" d="M73.763,477.288c-4.799,0-8.678-3.888-8.678-8.678v-17.356c0-4.79,3.879-8.678,8.678-8.678
			c4.799,0,8.678,3.888,8.678,8.678v17.356C82.441,473.4,78.562,477.288,73.763,477.288"/>
		<path style="fill:#E57E25;" d="M125.831,494.644c0,4.79,3.888,8.678,8.678,8.678s8.678-3.888,8.678-8.678
			s-3.888-8.678-8.678-8.678S125.831,489.854,125.831,494.644"/>
		<path style="fill:#E57E25;" d="M117.161,477.288c-3.185,0-6.248-1.753-7.775-4.799l-8.678-17.356
			c-2.143-4.287-0.399-9.494,3.888-11.646c4.287-2.143,9.494-0.399,11.646,3.888l8.678,17.356c2.143,4.287,0.399,9.494-3.888,11.646
			C119.791,476.993,118.463,477.288,117.161,477.288"/>
		<path style="fill:#E57E25;" d="M21.695,494.644c0,4.79-3.888,8.678-8.678,8.678s-8.678-3.888-8.678-8.678s3.888-8.678,8.678-8.678
			S21.695,489.854,21.695,494.644"/>
		<path style="fill:#E57E25;" d="M30.364,477.288c-1.302,0-2.629-0.295-3.87-0.911c-4.287-2.152-6.031-7.359-3.888-11.646
			l8.678-17.356c2.152-4.287,7.359-6.031,11.646-3.888c4.287,2.152,6.031,7.359,3.888,11.646l-8.678,17.356
			C36.612,475.535,33.549,477.288,30.364,477.288"/>
	</g>
	<polygon style="fill:#E8EDEE;" points="13.017,260.339 498.983,260.339 498.983,208.271 13.017,208.271 	"/>
	<g>
		<path style="fill:#B0B6BB;" d="M464.271,104.136c-4.79,0-8.678,3.888-8.678,8.678s3.888,8.678,8.678,8.678
			s8.678-3.888,8.678-8.678S469.061,104.136,464.271,104.136"/>
		<path style="fill:#B0B6BB;" d="M429.559,104.136c-4.79,0-8.678,3.888-8.678,8.678s3.888,8.678,8.678,8.678
			s8.678-3.888,8.678-8.678S434.35,104.136,429.559,104.136"/>
		<path style="fill:#B0B6BB;" d="M394.847,104.136c-4.79,0-8.678,3.888-8.678,8.678s3.888,8.678,8.678,8.678
			c4.79,0,8.678-3.888,8.678-8.678S399.638,104.136,394.847,104.136"/>
		<path style="fill:#B0B6BB;" d="M360.136,104.136c-4.79,0-8.678,3.888-8.678,8.678s3.888,8.678,8.678,8.678
			s8.678-3.888,8.678-8.678S364.926,104.136,360.136,104.136"/>
		<path style="fill:#B0B6BB;" d="M325.424,104.136c-4.79,0-8.678,3.888-8.678,8.678s3.888,8.678,8.678,8.678
			s8.678-3.888,8.678-8.678S330.214,104.136,325.424,104.136"/>
		<path style="fill:#B0B6BB;" d="M290.712,104.136c-4.79,0-8.678,3.888-8.678,8.678s3.888,8.678,8.678,8.678
			s8.678-3.888,8.678-8.678S295.502,104.136,290.712,104.136"/>
		<path style="fill:#B0B6BB;" d="M256,104.136c-4.79,0-8.678,3.888-8.678,8.678s3.888,8.678,8.678,8.678
			c4.79,0,8.678-3.888,8.678-8.678S260.79,104.136,256,104.136"/>
		<path style="fill:#B0B6BB;" d="M256,69.424c-4.79,0-8.678,3.888-8.678,8.678S251.21,86.78,256,86.78
			c4.79,0,8.678-3.888,8.678-8.678S260.79,69.424,256,69.424"/>
		<path style="fill:#B0B6BB;" d="M256,34.712c-4.79,0-8.678,3.888-8.678,8.678s3.888,8.678,8.678,8.678
			c4.79,0,8.678-3.888,8.678-8.678S260.79,34.712,256,34.712"/>
		<path style="fill:#B0B6BB;" d="M256,0c-4.79,0-8.678,3.888-8.678,8.678s3.888,8.678,8.678,8.678c4.79,0,8.678-3.888,8.678-8.678
			S260.79,0,256,0"/>
	</g>
	<polygon style="fill:#CBB292;" points="412.203,0 360.136,0 360.136,43.39 436.311,43.39 	"/>
</g>
<g>
</g>
<g>
</g>
<g>
</g>
<g>
</g>
<g>
</g>
<g>
</g>
<g>
</g>
<g>
</g>
<g>
</g>
<g>
</g>
<g>
</g>
<g>
</g>
<g>
</g>
<g>
</g>
<g>
</g>
</svg>
