<?xml version="1.0" encoding="iso-8859-1"?>
<!-- Generator: Adobe Illustrator 19.0.0, SVG Export Plug-In . SVG Version: 6.00 Build 0)  -->
<svg version="1.1" id="Layer_1" xmlns="http://www.w3.org/2000/svg" xmlns:xlink="http://www.w3.org/1999/xlink" x="0px" y="0px"
	 viewBox="0 0 512 512" style="enable-background:new 0 0 512 512;" xml:space="preserve">
<g>
	<path style="fill:#5E5F62;" d="M290.711,173.559h-60.746c-7.185,0-13.017-5.832-13.017-13.017V78.102h86.78v82.441
		C303.728,167.728,297.896,173.559,290.711,173.559"/>
	<g>
		<polygon style="fill:#77797F;" points="234.305,355.797 286.372,355.797 286.372,173.559 234.305,173.559 		"/>
		<path style="fill:#77797F;" d="M260.339,8.678c0,0-43.39,4.339-43.39,69.424h86.78C303.728,13.017,260.339,8.678,260.339,8.678"/>
	</g>
	<g>
		<path style="fill:#5E5F62;" d="M234.305,237.71c-2.864-4.139-5.771-8.209-8.678-12.08c-16.896,22.528-34.712,49.933-34.712,78.102
			v17.356h43.39v-17.356V237.71z"/>
		<path style="fill:#5E5F62;" d="M286.372,237.71c2.864-4.139,5.771-8.209,8.678-12.08c16.896,22.528,34.712,49.933,34.712,78.102
			v17.356h-43.39v-17.356V237.71z"/>
		<polygon style="fill:#5E5F62;" points="303.728,390.508 216.949,390.508 234.305,355.797 286.372,355.797 		"/>
	</g>
	<g>
		<polygon style="fill:#3D3F44;" points="329.762,321.085 286.372,321.085 286.372,338.441 286.372,355.797 347.118,355.797 		"/>
		<polygon style="fill:#3D3F44;" points="190.915,321.085 173.559,355.797 234.305,355.797 234.305,338.441 234.305,321.085 		"/>
	</g>
	<path style="fill:#77797F;" d="M260.339,147.525c-4.79,0-8.678-3.879-8.678-8.678v-26.034c0-4.799,3.888-8.678,8.678-8.678
		c4.79,0,8.678,3.879,8.678,8.678v26.034C269.017,143.646,265.129,147.525,260.339,147.525"/>
	<g>
		<path style="fill:#E57E25;" d="M95.457,381.831c-23.864,0-43.39,27.336-43.39,60.746h86.78
			C138.847,409.166,119.322,381.831,95.457,381.831"/>
		<path style="fill:#E57E25;" d="M425.22,381.831c-23.864,0-43.39,27.336-43.39,60.746h86.78
			C468.61,409.166,449.084,381.831,425.22,381.831"/>
	</g>
	<g>
		<path style="fill:#F3D55B;" d="M459.932,390.508c-28.637,0-52.068,23.431-52.068,52.068c0-19.092-4.877-43.39-34.712-43.39
			c-19.092,0-34.712,15.62-34.712,34.712c0,19.092-17.573,34.712-39.051,34.712c-21.478,0-39.051-15.62-39.051-34.712
			c0,19.092-17.573,34.712-39.051,34.712s-39.051-15.62-39.051-34.712c0-19.092-15.62-34.712-34.712-34.712
			c-25.218,0-34.712,24.298-34.712,43.39c0-28.637-23.431-52.068-52.068-52.068S8.678,413.939,8.678,442.576V512H512v-69.424
			C512,413.939,488.569,390.508,459.932,390.508"/>
		<path style="fill:#F3D55B;" d="M407.864,216.949c0,4.79-3.888,8.678-8.678,8.678s-8.678-3.888-8.678-8.678
			s3.888-8.678,8.678-8.678S407.864,212.159,407.864,216.949"/>
		<path style="fill:#F3D55B;" d="M503.322,86.78c0,4.79-3.888,8.678-8.678,8.678s-8.678-3.888-8.678-8.678s3.888-8.678,8.678-8.678
			S503.322,81.989,503.322,86.78"/>
		<path style="fill:#F3D55B;" d="M69.423,277.695c0,4.79-3.888,8.678-8.678,8.678s-8.678-3.888-8.678-8.678
			c0-4.79,3.888-8.678,8.678-8.678S69.423,272.905,69.423,277.695"/>
		<path style="fill:#F3D55B;" d="M121.491,138.847c0,4.79-3.888,8.678-8.678,8.678s-8.678-3.888-8.678-8.678
			s3.888-8.678,8.678-8.678S121.491,134.057,121.491,138.847"/>
		<path style="fill:#F3D55B;" d="M34.686,43.39c3.289,2.473,6.231,5.406,8.704,8.704c2.473-3.298,5.406-6.231,8.704-8.704
			c-3.298-2.473-6.231-5.406-8.704-8.704C40.917,37.983,37.975,40.917,34.686,43.39 M43.39,86.78c-4.79,0-8.678-3.879-8.678-8.678
			c0-14.353-11.681-26.034-26.034-26.034C3.888,52.068,0,48.189,0,43.39s3.888-8.678,8.678-8.678
			c14.353,0,26.034-11.681,26.034-26.034C34.712,3.879,38.6,0,43.39,0s8.678,3.879,8.678,8.678
			c0,14.353,11.681,26.034,26.034,26.034c4.79,0,8.678,3.879,8.678,8.678s-3.888,8.678-8.678,8.678
			c-14.353,0-26.034,11.681-26.034,26.034C52.068,82.901,48.181,86.78,43.39,86.78"/>
	</g>
</g>
<g>
</g>
<g>
</g>
<g>
</g>
<g>
</g>
<g>
</g>
<g>
</g>
<g>
</g>
<g>
</g>
<g>
</g>
<g>
</g>
<g>
</g>
<g>
</g>
<g>
</g>
<g>
</g>
<g>
</g>
</svg>
