<?xml version="1.0" encoding="iso-8859-1"?>
<!-- Generator: Adobe Illustrator 19.0.0, SVG Export Plug-In . SVG Version: 6.00 Build 0)  -->
<svg version="1.1" id="Layer_1" xmlns="http://www.w3.org/2000/svg" xmlns:xlink="http://www.w3.org/1999/xlink" x="0px" y="0px"
	 viewBox="0 0 512 512" style="enable-background:new 0 0 512 512;" xml:space="preserve">
<g>
	<path style="fill:#8697CB;" d="M472.949,512H334.102V186.576c0-7.185-5.832-13.017-13.017-13.017
		c-7.185,0-13.017-5.832-13.017-13.017V38.487C308.068,17.234,325.302,0,346.555,0h113.942c21.252,0,38.487,17.234,38.487,38.487
		v122.056c0,7.185-5.832,13.017-13.017,13.017c-7.185,0-13.017,5.832-13.017,13.017V512z"/>
	<g>
		<path style="fill:#E8EDEE;" d="M151.864,0L151.864,0C106.6,67.905,82.441,147.682,82.441,229.289v178.575h138.847V229.289
			C221.288,147.682,197.129,67.905,151.864,0L151.864,0z"/>
		<path style="fill:#E8EDEE;" d="M386.169,494.644h34.712V164.881h-34.712V494.644z M429.559,512h-52.068
			c-4.799,0-8.678-3.879-8.678-8.678V156.203c0-4.799,3.879-8.678,8.678-8.678h52.068c4.799,0,8.678,3.879,8.678,8.678v347.119
			C438.237,508.121,434.358,512,429.559,512L429.559,512z"/>
	</g>
	<path style="fill:#B0B6BB;" d="M189.077,69.424c4.773,11.377,9.008,22.962,12.739,34.712H308.07V69.424H189.077z"/>
	<g>
		<path style="fill:#E8EDEE;" d="M377.492,147.525h52.068V78.102c0-14.353-11.681-26.034-26.034-26.034
			c-14.353,0-26.034,11.681-26.034,26.034V147.525z M438.237,164.881h-69.424c-4.799,0-8.678-3.879-8.678-8.678V78.102
			c0-23.925,19.465-43.39,43.39-43.39c23.925,0,43.39,19.465,43.39,43.39v78.102C446.915,161.002,443.036,164.881,438.237,164.881
			L438.237,164.881z"/>
		<path style="fill:#E8EDEE;" d="M429.559,468.61h-52.068c-4.799,0-8.678-3.879-8.678-8.678c0-4.799,3.879-8.678,8.678-8.678h52.068
			c4.799,0,8.678,3.879,8.678,8.678C438.237,464.731,434.358,468.61,429.559,468.61"/>
		<path style="fill:#E8EDEE;" d="M429.559,425.22h-52.068c-4.799,0-8.678-3.879-8.678-8.678c0-4.799,3.879-8.678,8.678-8.678h52.068
			c4.799,0,8.678,3.879,8.678,8.678C438.237,421.341,434.358,425.22,429.559,425.22"/>
		<path style="fill:#E8EDEE;" d="M429.559,381.831h-52.068c-4.799,0-8.678-3.879-8.678-8.678c0-4.799,3.879-8.678,8.678-8.678
			h52.068c4.799,0,8.678,3.879,8.678,8.678C438.237,377.951,434.358,381.831,429.559,381.831"/>
		<path style="fill:#E8EDEE;" d="M429.559,338.441h-52.068c-4.799,0-8.678-3.879-8.678-8.678c0-4.799,3.879-8.678,8.678-8.678
			h52.068c4.799,0,8.678,3.879,8.678,8.678C438.237,334.562,434.358,338.441,429.559,338.441"/>
		<path style="fill:#E8EDEE;" d="M429.559,295.051h-52.068c-4.799,0-8.678-3.879-8.678-8.678c0-4.799,3.879-8.678,8.678-8.678
			h52.068c4.799,0,8.678,3.879,8.678,8.678C438.237,291.172,434.358,295.051,429.559,295.051"/>
		<path style="fill:#E8EDEE;" d="M429.559,251.661h-52.068c-4.799,0-8.678-3.879-8.678-8.678c0-4.799,3.879-8.678,8.678-8.678
			h52.068c4.799,0,8.678,3.879,8.678,8.678C438.237,247.782,434.358,251.661,429.559,251.661"/>
		<path style="fill:#E8EDEE;" d="M429.559,208.271h-52.068c-4.799,0-8.678-3.879-8.678-8.678c0-4.799,3.879-8.678,8.678-8.678
			h52.068c4.799,0,8.678,3.879,8.678,8.678C438.237,204.392,434.358,208.271,429.559,208.271"/>
	</g>
	<path style="fill:#B0B6BB;" d="M167.171,199.593h-30.616c-10.674,0-19.404-8.73-19.404-19.404v-4.582
		c0-10.674,8.73-19.404,19.404-19.404h30.616c10.674,0,19.404,8.73,19.404,19.404v4.582
		C186.575,190.863,177.845,199.593,167.171,199.593"/>
	<g>
		<path style="fill:#E57E25;" d="M65.085,494.644c0,4.79-3.888,8.678-8.678,8.678s-8.678-3.888-8.678-8.678s3.888-8.678,8.678-8.678
			S65.085,489.854,65.085,494.644"/>
		<path style="fill:#E57E25;" d="M30.373,459.932c0,4.79-3.888,8.678-8.678,8.678s-8.678-3.888-8.678-8.678
			c0-4.79,3.888-8.678,8.678-8.678S30.373,455.142,30.373,459.932"/>
		<path style="fill:#E57E25;" d="M82.441,459.932c0,4.79-3.888,8.678-8.678,8.678s-8.678-3.888-8.678-8.678
			c0-4.79,3.888-8.678,8.678-8.678S82.441,455.142,82.441,459.932"/>
		<path style="fill:#E57E25;" d="M238.644,494.644c0,4.79,3.888,8.678,8.678,8.678s8.678-3.888,8.678-8.678
			s-3.888-8.678-8.678-8.678S238.644,489.854,238.644,494.644"/>
		<path style="fill:#E57E25;" d="M273.356,459.932c0,4.79,3.888,8.678,8.678,8.678c4.79,0,8.678-3.888,8.678-8.678
			c0-4.79-3.888-8.678-8.678-8.678C277.244,451.254,273.356,455.142,273.356,459.932"/>
		<path style="fill:#E57E25;" d="M221.288,459.932c0,4.79,3.888,8.678,8.678,8.678s8.678-3.888,8.678-8.678
			c0-4.79-3.888-8.678-8.678-8.678S221.288,455.142,221.288,459.932"/>
	</g>
	<path style="fill:#F3D55B;" d="M135.593,407.864h-23.665c-5.606,13.347-4.304,29.054,4.183,41.784l35.753,53.673l35.753-53.534
		c8.496-12.739,9.797-28.533,4.174-41.923h-23.656H135.593z"/>
	<g>
		<path style="fill:#B0B6BB;" d="M125.831,381.831h-43.39c-4.799,0-8.678-3.879-8.678-8.678c0-4.799,3.879-8.678,8.678-8.678h43.39
			c4.799,0,8.678,3.879,8.678,8.678C134.508,377.951,130.629,381.831,125.831,381.831"/>
		<path style="fill:#B0B6BB;" d="M108.475,347.119H82.441c-4.799,0-8.678-3.879-8.678-8.678s3.879-8.678,8.678-8.678h26.034
			c4.799,0,8.678,3.879,8.678,8.678S113.273,347.119,108.475,347.119"/>
		<path style="fill:#B0B6BB;" d="M125.831,312.407h-43.39c-4.799,0-8.678-3.879-8.678-8.678s3.879-8.678,8.678-8.678h43.39
			c4.799,0,8.678,3.879,8.678,8.678S130.629,312.407,125.831,312.407"/>
		<path style="fill:#B0B6BB;" d="M108.475,277.695H82.441c-4.799,0-8.678-3.879-8.678-8.678c0-4.799,3.879-8.678,8.678-8.678h26.034
			c4.799,0,8.678,3.879,8.678,8.678C117.153,273.816,113.273,277.695,108.475,277.695"/>
		<path style="fill:#B0B6BB;" d="M221.288,381.831h-43.39c-4.799,0-8.678-3.879-8.678-8.678c0-4.799,3.879-8.678,8.678-8.678h43.39
			c4.799,0,8.678,3.879,8.678,8.678C229.966,377.951,226.087,381.831,221.288,381.831"/>
		<path style="fill:#B0B6BB;" d="M221.288,347.119h-26.034c-4.799,0-8.678-3.879-8.678-8.678s3.879-8.678,8.678-8.678h26.034
			c4.799,0,8.678,3.879,8.678,8.678S226.087,347.119,221.288,347.119"/>
		<path style="fill:#B0B6BB;" d="M221.288,312.407h-43.39c-4.799,0-8.678-3.879-8.678-8.678s3.879-8.678,8.678-8.678h43.39
			c4.799,0,8.678,3.879,8.678,8.678S226.087,312.407,221.288,312.407"/>
		<path style="fill:#B0B6BB;" d="M221.288,277.695h-26.034c-4.799,0-8.678-3.879-8.678-8.678c0-4.799,3.879-8.678,8.678-8.678
			h26.034c4.799,0,8.678,3.879,8.678,8.678C229.966,273.816,226.087,277.695,221.288,277.695"/>
		<path style="fill:#B0B6BB;" d="M82.441,399.186l-45.23-11.307c-12.418-3.107-18.762-16.905-13.043-28.351l58.273-116.545V399.186z
			"/>
		<path style="fill:#B0B6BB;" d="M221.288,399.186l46.063-11.516c11.984-2.994,18.12-16.323,12.592-27.379l-58.654-117.309V399.186z
			"/>
	</g>
</g>
<g>
</g>
<g>
</g>
<g>
</g>
<g>
</g>
<g>
</g>
<g>
</g>
<g>
</g>
<g>
</g>
<g>
</g>
<g>
</g>
<g>
</g>
<g>
</g>
<g>
</g>
<g>
</g>
<g>
</g>
</svg>
