<?xml version="1.0" encoding="iso-8859-1"?>
<!-- Generator: Adobe Illustrator 19.0.0, SVG Export Plug-In . SVG Version: 6.00 Build 0)  -->
<svg version="1.1" id="Layer_1" xmlns="http://www.w3.org/2000/svg" xmlns:xlink="http://www.w3.org/1999/xlink" x="0px" y="0px"
	 viewBox="0 0 512 512" style="enable-background:new 0 0 512 512;" xml:space="preserve">
<g>
	<g>
		<path style="fill:#E8EDEE;" d="M177.898,52.068c-4.799,0-8.678-3.879-8.678-8.678V8.678c0-4.799,3.879-8.678,8.678-8.678
			s8.678,3.879,8.678,8.678V43.39C186.576,48.189,182.697,52.068,177.898,52.068"/>
		<path style="fill:#E8EDEE;" d="M212.61,52.068c-4.799,0-8.678-3.879-8.678-8.678V26.034c0-4.799,3.879-8.678,8.678-8.678
			c4.799,0,8.678,3.879,8.678,8.678V43.39C221.288,48.189,217.409,52.068,212.61,52.068"/>
	</g>
	<polygon style="fill:#B0B6BB;" points="89.381,482.491 75.497,472.087 170.086,351.463 183.971,361.868 	"/>
	<g>
		<path style="fill:#E8EDEE;" d="M125.831,512h-86.78v-17.356c0-9.589,7.767-17.356,17.356-17.356h52.068
			c9.589,0,17.356,7.767,17.356,17.356V512z"/>
		<path style="fill:#E8EDEE;" d="M299.39,512h-86.78v-17.356c0-9.589,7.767-17.356,17.356-17.356h52.068
			c9.589,0,17.356,7.767,17.356,17.356V512z"/>
	</g>
	<polygon style="fill:#B0B6BB;" points="422.619,482.491 328.029,361.868 341.914,351.463 436.503,472.087 	"/>
	<path style="fill:#E8EDEE;" d="M386.169,512h86.78v-17.356c0-9.589-7.767-17.356-17.356-17.356h-52.068
		c-9.589,0-17.356,7.767-17.356,17.356V512z"/>
	<polygon style="fill:#B0B6BB;" points="247.322,477.175 264.678,477.175 264.678,373.153 247.322,373.153 	"/>
	<path style="fill:#E8EDEE;" d="M394.847,373.153H117.153c-23.96,0-43.39-19.43-43.39-43.39V121.492
		c0-23.96,19.43-43.39,43.39-43.39h277.695c23.96,0,43.39,19.43,43.39,43.39v208.271
		C438.237,353.723,418.807,373.153,394.847,373.153"/>
	<path style="fill:#B0B6BB;" d="M386.169,78.102H125.831V60.746c0-9.589,7.767-17.356,17.356-17.356h225.627
		c9.589,0,17.356,7.767,17.356,17.356V78.102z"/>
	<path style="fill:#8697CB;" d="M177.898,286.373H73.763V164.881h104.136c9.589,0,17.356,7.767,17.356,17.356v86.78
		C195.254,278.606,187.487,286.373,177.898,286.373"/>
	<g>
		<path style="fill:#B0B6BB;" d="M256,130.169h-60.746c-4.799,0-8.678-3.879-8.678-8.678s3.879-8.678,8.678-8.678H256
			c4.799,0,8.678,3.879,8.678,8.678S260.799,130.169,256,130.169"/>
		<path style="fill:#B0B6BB;" d="M334.102,130.169h-26.034c-4.799,0-8.678-3.879-8.678-8.678s3.879-8.678,8.678-8.678h26.034
			c4.799,0,8.678,3.879,8.678,8.678S338.901,130.169,334.102,130.169"/>
		<path style="fill:#B0B6BB;" d="M377.492,121.492c0-4.79-3.888-8.678-8.678-8.678s-8.678,3.888-8.678,8.678
			s3.888,8.678,8.678,8.678S377.492,126.282,377.492,121.492"/>
		<path style="fill:#B0B6BB;" d="M342.78,338.441h-60.746c-4.799,0-8.678-3.879-8.678-8.678c0-4.799,3.879-8.678,8.678-8.678h60.746
			c4.799,0,8.678,3.879,8.678,8.678C351.458,334.562,347.579,338.441,342.78,338.441"/>
		<path style="fill:#B0B6BB;" d="M238.644,338.441h-43.39c-4.799,0-8.678-3.879-8.678-8.678c0-4.799,3.879-8.678,8.678-8.678h43.39
			c4.799,0,8.678,3.879,8.678,8.678C247.322,334.562,243.443,338.441,238.644,338.441"/>
		<path style="fill:#B0B6BB;" d="M151.864,329.763c0,4.79,3.888,8.678,8.678,8.678s8.678-3.888,8.678-8.678
			s-3.888-8.678-8.678-8.678S151.864,324.973,151.864,329.763"/>
		<path style="fill:#B0B6BB;" d="M316.746,208.271h-52.068c-4.799,0-8.678-3.879-8.678-8.678c0-4.799,3.879-8.678,8.678-8.678
			h52.068c4.799,0,8.678,3.879,8.678,8.678C325.424,204.392,321.545,208.271,316.746,208.271"/>
		<path style="fill:#B0B6BB;" d="M437.363,112.814h-33.835c-4.799,0-8.678,3.879-8.678,8.678s3.879,8.678,8.678,8.678h34.712v-8.678
			C438.239,118.515,437.935,115.617,437.363,112.814"/>
		<path style="fill:#B0B6BB;" d="M386.169,190.915c-4.799,0-8.678,3.879-8.678,8.678c0,4.799,3.879,8.678,8.678,8.678h52.068
			v-17.356H386.169z"/>
		<path style="fill:#B0B6BB;" d="M386.169,329.763c0,4.799,3.879,8.678,8.678,8.678h42.513c0.573-2.803,0.876-5.701,0.876-8.678
			v-8.678h-43.39C390.049,321.085,386.169,324.964,386.169,329.763"/>
		<path style="fill:#B0B6BB;" d="M74.637,338.441h51.191c4.799,0,8.678-3.879,8.678-8.678c0-4.799-3.879-8.678-8.678-8.678H73.761
			v8.678C73.761,332.739,74.065,335.638,74.637,338.441"/>
		<path style="fill:#B0B6BB;" d="M143.186,112.814H74.639c-0.573,2.803-0.876,5.701-0.876,8.678v8.678h69.424
			c4.799,0,8.678-3.879,8.678-8.678S147.985,112.814,143.186,112.814"/>
	</g>
	<path style="fill:#8697CB;" d="M386.169,199.593c0-19.17-15.542-34.712-34.712-34.712c-19.17,0-34.712,15.542-34.712,34.712
		s15.542,34.712,34.712,34.712C370.627,234.305,386.169,218.763,386.169,199.593"/>
</g>
<g>
</g>
<g>
</g>
<g>
</g>
<g>
</g>
<g>
</g>
<g>
</g>
<g>
</g>
<g>
</g>
<g>
</g>
<g>
</g>
<g>
</g>
<g>
</g>
<g>
</g>
<g>
</g>
<g>
</g>
</svg>
