<?xml version="1.0" encoding="iso-8859-1"?>
<!-- Generator: Adobe Illustrator 19.0.0, SVG Export Plug-In . SVG Version: 6.00 Build 0)  -->
<svg version="1.1" id="Layer_1" xmlns="http://www.w3.org/2000/svg" xmlns:xlink="http://www.w3.org/1999/xlink" x="0px" y="0px"
	 viewBox="0 0 512.002 512.002" style="enable-background:new 0 0 512.002 512.002;" xml:space="preserve">
<g>
	<g>
		<path style="fill:#D75A4A;" d="M485.968,442.578c0,38.339-31.084,69.424-69.424,69.424s-69.424-31.085-69.424-69.424
			s31.084-69.424,69.424-69.424S485.968,404.239,485.968,442.578"/>
		<path style="fill:#D75A4A;" d="M242.985,468.612c0,23.96-19.43,43.39-43.39,43.39s-43.39-19.43-43.39-43.39
			s19.43-43.39,43.39-43.39S242.985,444.652,242.985,468.612"/>
	</g>
	<g>
		<path style="fill:#F3D55B;" d="M301.189,306.273c3.393,3.393,3.393,8.886,0,12.271c-3.393,3.393-8.886,3.393-12.271,0
			c-3.393-3.384-3.393-8.878,0-12.271C292.303,302.88,297.796,302.88,301.189,306.273"/>
		<path style="fill:#F3D55B;" d="M269.019,295.053c-2.222,0-4.443-0.85-6.135-2.543l-26.034-26.034
			c-3.393-3.393-3.393-8.878,0-12.271c3.393-3.393,8.878-3.393,12.271,0l26.034,26.034c3.393,3.393,3.393,8.878,0,12.271
			C273.462,294.203,271.24,295.053,269.019,295.053"/>
		<path style="fill:#F3D55B;" d="M347.12,373.155c-2.222,0-4.443-0.85-6.135-2.543l-26.034-26.034
			c-3.393-3.393-3.393-8.878,0-12.271c3.393-3.393,8.878-3.393,12.271,0l26.034,26.034c3.393,3.393,3.393,8.878,0,12.271
			C351.564,372.304,349.342,373.155,347.12,373.155"/>
		<path style="fill:#F3D55B;" d="M240.443,314.951c3.393,3.393,3.393,8.886,0,12.271c-3.393,3.393-8.886,3.393-12.271,0
			c-3.393-3.384-3.393-8.878,0-12.271C231.557,311.558,237.05,311.558,240.443,314.951"/>
		<path style="fill:#F3D55B;" d="M208.273,303.731c-2.222,0-4.443-0.85-6.135-2.543l-26.034-26.034
			c-3.393-3.393-3.393-8.878,0-12.271c3.393-3.393,8.878-3.393,12.271,0l26.034,26.034c3.393,3.393,3.393,8.878,0,12.271
			C212.716,302.881,210.494,303.731,208.273,303.731"/>
		<path style="fill:#F3D55B;" d="M286.375,381.833c-2.222,0-4.443-0.85-6.135-2.543l-26.034-26.034
			c-3.393-3.393-3.393-8.878,0-12.271c3.393-3.393,8.878-3.393,12.271,0l26.034,26.034c3.393,3.393,3.393,8.878,0,12.271
			C290.818,380.982,288.596,381.833,286.375,381.833"/>
		<path style="fill:#F3D55B;" d="M318.545,254.205c3.393,3.393,3.393,8.886,0,12.271c-3.393,3.393-8.886,3.393-12.271,0
			c-3.393-3.384-3.393-8.878,0-12.271C309.658,250.812,315.152,250.812,318.545,254.205"/>
		<path style="fill:#F3D55B;" d="M286.375,242.985c-2.222,0-4.443-0.85-6.135-2.543l-26.034-26.034
			c-3.393-3.393-3.393-8.878,0-12.271c3.393-3.393,8.878-3.393,12.271,0l26.034,26.034c3.393,3.393,3.393,8.878,0,12.271
			C290.818,242.135,288.596,242.985,286.375,242.985"/>
		<path style="fill:#F3D55B;" d="M364.476,321.087c-2.222,0-4.443-0.85-6.135-2.543l-26.034-26.034
			c-3.393-3.393-3.393-8.878,0-12.271c3.393-3.393,8.878-3.393,12.271,0l26.034,26.034c3.393,3.393,3.393,8.878,0,12.271
			C368.919,320.236,366.698,321.087,364.476,321.087"/>
		<path style="fill:#F3D55B;" d="M162.341,167.425c3.393,3.393,3.393,8.886,0,12.271c-3.393,3.393-8.886,3.393-12.271,0
			c-3.393-3.384-3.393-8.878,0-12.271C153.455,164.032,158.948,164.032,162.341,167.425"/>
		<path style="fill:#F3D55B;" d="M130.171,156.206c-2.222,0-4.443-0.85-6.135-2.543l-26.034-26.034
			c-3.393-3.393-3.393-8.878,0-12.271s8.878-3.393,12.271,0l26.034,26.034c3.393,3.393,3.393,8.878,0,12.271
			C134.614,155.355,132.393,156.206,130.171,156.206"/>
		<path style="fill:#F3D55B;" d="M208.273,234.307c-2.222,0-4.443-0.85-6.135-2.543l-26.034-26.034
			c-3.393-3.393-3.393-8.878,0-12.271s8.878-3.393,12.271,0l26.034,26.034c3.393,3.393,3.393,8.878,0,12.271
			C212.716,233.457,210.494,234.307,208.273,234.307"/>
		<path style="fill:#F3D55B;" d="M101.596,176.103c3.393,3.393,3.393,8.886,0,12.271c-3.393,3.393-8.886,3.393-12.271,0
			c-3.393-3.384-3.393-8.878,0-12.271C92.709,172.71,98.202,172.71,101.596,176.103"/>
		<path style="fill:#F3D55B;" d="M69.425,164.884c-2.222,0-4.443-0.85-6.135-2.543l-26.034-26.034
			c-3.393-3.393-3.393-8.878,0-12.271s8.878-3.393,12.271,0l26.034,26.034c3.393,3.393,3.393,8.878,0,12.271
			C73.869,164.033,71.647,164.884,69.425,164.884"/>
		<path style="fill:#F3D55B;" d="M147.527,242.985c-2.222,0-4.443-0.85-6.135-2.543l-26.034-26.034
			c-3.393-3.393-3.393-8.878,0-12.271s8.878-3.393,12.271,0l26.034,26.034c3.393,3.393,3.393,8.878,0,12.271
			C151.97,242.135,149.749,242.985,147.527,242.985"/>
		<path style="fill:#F3D55B;" d="M179.697,115.358c3.393,3.393,3.393,8.886,0,12.271c-3.393,3.393-8.886,3.393-12.271,0
			c-3.393-3.384-3.393-8.878,0-12.271C170.811,111.964,176.304,111.964,179.697,115.358"/>
		<path style="fill:#F3D55B;" d="M147.527,104.138c-2.222,0-4.443-0.85-6.135-2.543l-26.034-26.034
			c-3.393-3.393-3.393-8.878,0-12.271s8.878-3.393,12.271,0l26.034,26.034c3.393,3.393,3.393,8.878,0,12.271
			C151.97,103.287,149.749,104.138,147.527,104.138"/>
		<path style="fill:#F3D55B;" d="M225.629,182.239c-2.222,0-4.443-0.85-6.135-2.543l-26.034-26.034
			c-3.393-3.393-3.393-8.878,0-12.271c3.393-3.393,8.878-3.393,12.271,0l26.034,26.034c3.393,3.393,3.393,8.878,0,12.271
			C230.072,181.389,227.85,182.239,225.629,182.239"/>
		<path style="fill:#F3D55B;" d="M92.918,349.663c3.393,3.393,3.393,8.886,0,12.271c-3.393,3.393-8.886,3.393-12.271,0
			c-3.393-3.384-3.393-8.878,0-12.271C84.031,346.27,89.525,346.27,92.918,349.663"/>
		<path style="fill:#F3D55B;" d="M60.747,338.443c-2.222,0-4.443-0.85-6.135-2.543l-26.034-26.034
			c-3.393-3.393-3.393-8.878,0-12.271c3.393-3.393,8.878-3.393,12.271,0l26.034,26.034c3.393,3.393,3.393,8.878,0,12.271
			C65.191,337.592,62.969,338.443,60.747,338.443"/>
		<path style="fill:#F3D55B;" d="M138.849,416.545c-2.222,0-4.443-0.85-6.135-2.543l-26.034-26.034
			c-3.393-3.393-3.393-8.878,0-12.271s8.878-3.393,12.271,0l26.034,26.034c3.393,3.393,3.393,8.878,0,12.271
			C143.292,415.694,141.071,416.545,138.849,416.545"/>
		<path style="fill:#F3D55B;" d="M32.172,358.341c3.393,3.393,3.393,8.886,0,12.271c-3.393,3.393-8.886,3.393-12.271,0
			c-3.393-3.384-3.393-8.878,0-12.271C23.286,354.947,28.779,354.947,32.172,358.341"/>
		<path style="fill:#F3D55B;" d="M78.103,425.223c-2.222,0-4.443-0.85-6.135-2.543l-26.034-26.034
			c-3.393-3.393-3.393-8.878,0-12.271c3.393-3.393,8.878-3.393,12.271,0l26.034,26.034c3.393,3.393,3.393,8.878,0,12.271
			C82.547,424.372,80.325,425.223,78.103,425.223"/>
		<path style="fill:#F3D55B;" d="M110.274,297.595c3.393,3.393,3.393,8.886,0,12.271c-3.393,3.393-8.886,3.393-12.271,0
			c-3.393-3.384-3.393-8.878,0-12.271C101.387,294.202,106.88,294.202,110.274,297.595"/>
		<path style="fill:#F3D55B;" d="M78.103,286.375c-2.222,0-4.443-0.85-6.135-2.543l-26.034-26.034
			c-3.393-3.393-3.393-8.878,0-12.271c3.393-3.393,8.878-3.393,12.271,0l26.034,26.034c3.393,3.393,3.393,8.878,0,12.271
			C82.547,285.525,80.325,286.375,78.103,286.375"/>
		<path style="fill:#F3D55B;" d="M156.205,364.477c-2.222,0-4.443-0.85-6.135-2.543L124.036,335.9
			c-3.393-3.393-3.393-8.878,0-12.271c3.393-3.393,8.878-3.393,12.271,0l26.034,26.034c3.393,3.393,3.393,8.878,0,12.271
			C160.648,363.626,158.427,364.477,156.205,364.477"/>
	</g>
	<path style="fill:#D75A4A;" d="M494.646,225.629c0,23.96-19.43,43.39-43.39,43.39c-23.96,0-43.39-19.43-43.39-43.39
		s19.43-43.39,43.39-43.39C475.216,182.239,494.646,201.669,494.646,225.629"/>
	<g>
		<path style="fill:#F3D55B;" d="M344.579,106.68c3.393,3.393,3.393,8.886,0,12.271c-3.393,3.393-8.886,3.393-12.271,0
			c-3.393-3.384-3.393-8.878,0-12.271C335.692,103.286,341.186,103.286,344.579,106.68"/>
		<path style="fill:#F3D55B;" d="M312.409,95.46c-2.222,0-4.443-0.85-6.135-2.543l-26.034-26.034c-3.393-3.393-3.393-8.878,0-12.271
			c3.393-3.393,8.878-3.393,12.271,0l26.034,26.034c3.393,3.393,3.393,8.878,0,12.271C316.852,94.609,314.63,95.46,312.409,95.46"/>
		<path style="fill:#F3D55B;" d="M390.51,173.561c-2.222,0-4.443-0.85-6.135-2.543l-26.034-26.034
			c-3.393-3.393-3.393-8.878,0-12.271c3.393-3.393,8.878-3.393,12.271,0l26.034,26.034c3.393,3.393,3.393,8.878,0,12.271
			C394.953,172.711,392.732,173.561,390.51,173.561"/>
		<path style="fill:#F3D55B;" d="M283.833,115.358c3.393,3.393,3.393,8.886,0,12.271c-3.393,3.393-8.886,3.393-12.271,0
			c-3.393-3.384-3.393-8.878,0-12.271C274.947,111.964,280.44,111.964,283.833,115.358"/>
		<path style="fill:#F3D55B;" d="M329.764,182.239c-2.222,0-4.443-0.85-6.135-2.543l-26.034-26.034
			c-3.393-3.393-3.393-8.878,0-12.271c3.393-3.393,8.878-3.393,12.271,0l26.034,26.034c3.393,3.393,3.393,8.878,0,12.271
			C334.208,181.389,331.986,182.239,329.764,182.239"/>
		<path style="fill:#F3D55B;" d="M361.935,54.612c3.393,3.393,3.393,8.886,0,12.271c-3.393,3.393-8.886,3.393-12.271,0
			c-3.393-3.384-3.393-8.878,0-12.271C353.048,51.219,358.541,51.219,361.935,54.612"/>
		<path style="fill:#F3D55B;" d="M329.764,43.392c-2.222,0-4.443-0.85-6.135-2.543l-26.034-26.034
			c-3.393-3.393-3.393-8.878,0-12.271s8.878-3.393,12.271,0L335.9,28.579c3.393,3.393,3.393,8.878,0,12.271
			C334.208,42.542,331.986,43.392,329.764,43.392"/>
		<path style="fill:#F3D55B;" d="M407.866,121.494c-2.222,0-4.443-0.85-6.135-2.543l-26.034-26.034
			c-3.393-3.393-3.393-8.878,0-12.271c3.393-3.393,8.878-3.393,12.271,0l26.034,26.034c3.393,3.393,3.393,8.878,0,12.271
			C412.309,120.643,410.088,121.494,407.866,121.494"/>
	</g>
	<g>
		<path style="fill:#E57E25;" d="M425.222,442.578c0,4.79-3.888,8.678-8.678,8.678s-8.678-3.888-8.678-8.678
			s3.888-8.678,8.678-8.678S425.222,437.788,425.222,442.578"/>
		<path style="fill:#E57E25;" d="M451.256,468.612c0,4.79-3.888,8.678-8.678,8.678s-8.678-3.888-8.678-8.678
			s3.888-8.678,8.678-8.678S451.256,463.822,451.256,468.612"/>
		<path style="fill:#E57E25;" d="M407.866,468.612c0,4.79-3.888,8.678-8.678,8.678s-8.678-3.888-8.678-8.678
			s3.888-8.678,8.678-8.678S407.866,463.822,407.866,468.612"/>
		<path style="fill:#E57E25;" d="M451.256,425.223c0,4.79-3.888,8.678-8.678,8.678s-8.678-3.888-8.678-8.678
			s3.888-8.678,8.678-8.678S451.256,420.432,451.256,425.223"/>
		<path style="fill:#E57E25;" d="M477.29,442.578c0,4.79-3.888,8.678-8.678,8.678s-8.678-3.888-8.678-8.678s3.888-8.678,8.678-8.678
			S477.29,437.788,477.29,442.578"/>
		<path style="fill:#E57E25;" d="M425.222,494.646c0,4.79-3.888,8.678-8.678,8.678s-8.678-3.888-8.678-8.678
			s3.888-8.678,8.678-8.678S425.222,489.856,425.222,494.646"/>
		<path style="fill:#E57E25;" d="M234.307,468.612c0,4.79-3.888,8.678-8.678,8.678s-8.678-3.888-8.678-8.678
			s3.888-8.678,8.678-8.678S234.307,463.822,234.307,468.612"/>
		<path style="fill:#E57E25;" d="M208.273,468.612c0,4.79-3.888,8.678-8.678,8.678s-8.678-3.888-8.678-8.678
			s3.888-8.678,8.678-8.678S208.273,463.822,208.273,468.612"/>
		<path style="fill:#E57E25;" d="M208.273,494.646c0,4.79-3.888,8.678-8.678,8.678s-8.678-3.888-8.678-8.678
			s3.888-8.678,8.678-8.678S208.273,489.856,208.273,494.646"/>
		<path style="fill:#E57E25;" d="M485.968,225.629c0,4.79-3.888,8.678-8.678,8.678c-4.79,0-8.678-3.888-8.678-8.678
			s3.888-8.678,8.678-8.678C482.08,216.951,485.968,220.839,485.968,225.629"/>
		<path style="fill:#E57E25;" d="M459.934,225.629c0,4.79-3.888,8.678-8.678,8.678s-8.678-3.888-8.678-8.678
			s3.888-8.678,8.678-8.678S459.934,220.839,459.934,225.629"/>
		<path style="fill:#E57E25;" d="M459.934,251.663c0,4.79-3.888,8.678-8.678,8.678s-8.678-3.888-8.678-8.678
			s3.888-8.678,8.678-8.678S459.934,246.873,459.934,251.663"/>
	</g>
</g>
<g>
</g>
<g>
</g>
<g>
</g>
<g>
</g>
<g>
</g>
<g>
</g>
<g>
</g>
<g>
</g>
<g>
</g>
<g>
</g>
<g>
</g>
<g>
</g>
<g>
</g>
<g>
</g>
<g>
</g>
</svg>
