<?xml version="1.0" encoding="iso-8859-1"?>
<!-- Generator: Adobe Illustrator 19.0.0, SVG Export Plug-In . SVG Version: 6.00 Build 0)  -->
<svg version="1.1" id="Layer_1" xmlns="http://www.w3.org/2000/svg" xmlns:xlink="http://www.w3.org/1999/xlink" x="0px" y="0px"
	 viewBox="0 0 512.002 512.002" style="enable-background:new 0 0 512.002 512.002;" xml:space="preserve">
<g>
	<path style="fill:#2C344C;" d="M256,498.759H27.313C12.226,498.759,0,486.533,0,471.447v-183.72
		c0-15.086,12.226-27.313,27.313-27.313H256V498.759z"/>
	<g>
		<path style="fill:#8697CB;" d="M484.689,498.759H256.002V260.415h228.687c15.086,0,27.313,12.226,27.313,27.313v183.72
			C512.002,486.533,499.776,498.759,484.689,498.759"/>
		<path style="fill:#8697CB;" d="M167.724,445.794c0,4.873-3.955,8.828-8.828,8.828c-4.873,0-8.828-3.955-8.828-8.828
			s3.955-8.828,8.828-8.828C163.769,436.966,167.724,440.921,167.724,445.794"/>
		<path style="fill:#8697CB;" d="M203.034,445.794c0,4.873-3.955,8.828-8.828,8.828s-8.828-3.955-8.828-8.828
			s3.955-8.828,8.828-8.828S203.034,440.921,203.034,445.794"/>
		<path style="fill:#8697CB;" d="M97.103,445.794c0,4.873-3.955,8.828-8.828,8.828c-4.873,0-8.828-3.955-8.828-8.828
			s3.955-8.828,8.828-8.828C93.149,436.966,97.103,440.921,97.103,445.794"/>
		<path style="fill:#8697CB;" d="M132.414,445.794c0,4.873-3.955,8.828-8.828,8.828s-8.828-3.955-8.828-8.828
			s3.955-8.828,8.828-8.828S132.414,440.921,132.414,445.794"/>
		<path style="fill:#8697CB;" d="M167.724,313.38c0-4.873,3.955-8.828,8.828-8.828c4.873,0,8.828,3.955,8.828,8.828
			s-3.955,8.828-8.828,8.828C171.679,322.208,167.724,318.253,167.724,313.38"/>
		<path style="fill:#8697CB;" d="M61.793,445.794c0,4.873-3.955,8.828-8.828,8.828s-8.828-3.955-8.828-8.828
			s3.955-8.828,8.828-8.828S61.793,440.921,61.793,445.794"/>
		<path style="fill:#8697CB;" d="M203.034,313.38c0-4.873,3.955-8.828,8.828-8.828c4.873,0,8.828,3.955,8.828,8.828
			s-3.955,8.828-8.828,8.828C206.989,322.208,203.034,318.253,203.034,313.38"/>
		<path style="fill:#8697CB;" d="M185.379,419.311c0,4.873-3.955,8.828-8.828,8.828c-4.873,0-8.828-3.955-8.828-8.828
			s3.955-8.828,8.828-8.828C181.425,410.484,185.379,414.438,185.379,419.311"/>
		<path style="fill:#8697CB;" d="M220.69,419.311c0,4.873-3.955,8.828-8.828,8.828c-4.873,0-8.828-3.955-8.828-8.828
			s3.955-8.828,8.828-8.828C216.735,410.484,220.69,414.438,220.69,419.311"/>
		<path style="fill:#8697CB;" d="M114.759,419.311c0,4.873-3.955,8.828-8.828,8.828c-4.873,0-8.828-3.955-8.828-8.828
			s3.955-8.828,8.828-8.828C110.804,410.484,114.759,414.438,114.759,419.311"/>
		<path style="fill:#8697CB;" d="M150.069,419.311c0,4.873-3.955,8.828-8.828,8.828s-8.828-3.955-8.828-8.828
			s3.955-8.828,8.828-8.828S150.069,414.438,150.069,419.311"/>
		<path style="fill:#8697CB;" d="M79.448,419.311c0,4.873-3.955,8.828-8.828,8.828s-8.828-3.955-8.828-8.828
			s3.955-8.828,8.828-8.828S79.448,414.438,79.448,419.311"/>
		<path style="fill:#8697CB;" d="M185.379,339.863c0-4.873,3.955-8.828,8.828-8.828s8.828,3.955,8.828,8.828
			s-3.955,8.828-8.828,8.828S185.379,344.736,185.379,339.863"/>
		<path style="fill:#8697CB;" d="M211.862,384.001h-35.31c-4.882,0-8.828-3.955-8.828-8.828c0-4.873,3.946-8.828,8.828-8.828h35.31
			c4.882,0,8.828,3.955,8.828,8.828C220.69,380.046,216.744,384.001,211.862,384.001"/>
		<polygon style="fill:#8697CB;" points="44.138,375.173 132.414,375.173 132.414,313.38 44.138,313.38 		"/>
	</g>
	<polygon style="fill:#434C6D;" points="300.138,375.173 467.862,375.173 467.862,304.553 300.138,304.553 	"/>
	<path style="fill:#8697CB;" d="M423.724,348.691h-79.448c-4.882,0-8.828-3.955-8.828-8.828s3.946-8.828,8.828-8.828h79.448
		c4.882,0,8.828,3.955,8.828,8.828S428.606,348.691,423.724,348.691"/>
	<path style="fill:#434C6D;" d="M423.724,260.415H88.276V40.555c0-15.086,12.226-27.313,27.313-27.313h280.823
		c15.086,0,27.313,12.226,27.313,27.313V260.415z"/>
	<path style="fill:#8697CB;" d="M350.69,216.277H161.312c-15.96,0-28.902-12.941-28.902-28.893V86.273
		c0-15.951,12.941-28.893,28.902-28.893H350.69c15.96,0,28.893,12.941,28.893,28.893v101.111
		C379.583,203.335,366.65,216.277,350.69,216.277"/>
	<g>
		<path style="fill:#2C344C;" d="M361.931,445.794h-61.793c-4.882,0-8.828-3.955-8.828-8.828c0-4.873,3.946-8.828,8.828-8.828
			h61.793c4.882,0,8.828,3.955,8.828,8.828C370.759,441.839,366.813,445.794,361.931,445.794"/>
		<path style="fill:#2C344C;" d="M467.862,445.794h-52.966c-4.882,0-8.828-3.955-8.828-8.828c0-4.873,3.946-8.828,8.828-8.828
			h52.966c4.882,0,8.828,3.955,8.828,8.828C476.69,441.839,472.744,445.794,467.862,445.794"/>
		<path style="fill:#2C344C;" d="M167.724,136.828c-2.26,0-4.52-0.865-6.241-2.586c-3.452-3.452-3.452-9.031,0-12.482l35.31-35.31
			c3.452-3.452,9.031-3.452,12.482,0c3.452,3.452,3.452,9.031,0,12.482l-35.31,35.31
			C172.244,135.963,169.984,136.828,167.724,136.828"/>
		<path style="fill:#2C344C;" d="M167.724,180.966c-2.26,0-4.52-0.865-6.241-2.586c-3.452-3.452-3.452-9.031,0-12.482l17.655-17.655
			c3.452-3.452,9.031-3.452,12.482,0c3.452,3.452,3.452,9.031,0,12.482l-17.655,17.655
			C172.244,180.101,169.984,180.966,167.724,180.966"/>
		<path style="fill:#2C344C;" d="M220.69,128.001c-2.26,0-4.52-0.865-6.241-2.586c-3.452-3.452-3.452-9.031,0-12.482l26.483-26.483
			c3.452-3.452,9.031-3.452,12.482,0c3.452,3.452,3.452,9.031,0,12.482l-26.483,26.483
			C225.209,127.136,222.95,128.001,220.69,128.001"/>
		<path style="fill:#2C344C;" d="M211.862,136.716c0,4.873-3.955,8.828-8.828,8.828c-4.873,0-8.828-3.955-8.828-8.828
			c0-4.873,3.955-8.828,8.828-8.828C207.907,127.889,211.862,131.844,211.862,136.716"/>
	</g>
	<path style="fill:#434C6D;" d="M388.414,410.484c14.627,0,26.483,11.855,26.483,26.483s-11.855,26.483-26.483,26.483
		s-26.483-11.855-26.483-26.483S373.786,410.484,388.414,410.484"/>
</g>
<g>
</g>
<g>
</g>
<g>
</g>
<g>
</g>
<g>
</g>
<g>
</g>
<g>
</g>
<g>
</g>
<g>
</g>
<g>
</g>
<g>
</g>
<g>
</g>
<g>
</g>
<g>
</g>
<g>
</g>
</svg>
