<?xml version="1.0" encoding="iso-8859-1"?>
<!-- Generator: Adobe Illustrator 19.0.0, SVG Export Plug-In . SVG Version: 6.00 Build 0)  -->
<svg version="1.1" id="Layer_1" xmlns="http://www.w3.org/2000/svg" xmlns:xlink="http://www.w3.org/1999/xlink" x="0px" y="0px"
	 viewBox="0 0 512 512" style="enable-background:new 0 0 512 512;" xml:space="preserve">
<g>
	<path style="fill:#FFD199;" d="M247.322,347.119C138.83,347.119,48.371,415.77,13.017,512h468.61
		C446.273,415.779,355.805,347.119,247.322,347.119"/>
	<path style="fill:#E8EDEE;" d="M394.847,173.559H247.322V34.712h139.394c4.487,0,8.131,3.645,8.131,8.131V173.559z"/>
	<path style="fill:#B0B6BB;" d="M490.847,190.915h-87.864c-4.495,0-8.14-3.645-8.14-8.131V52.068h96.004
		c4.495,0,8.131,3.645,8.131,8.131v122.585C498.979,187.271,495.343,190.915,490.847,190.915"/>
	<polygon style="fill:#3B97D3;" points="247.322,104.136 316.746,104.136 316.746,34.712 247.322,34.712 	"/>
	<g>
		<polygon style="fill:#E64C3C;" points="316.746,112.814 394.847,112.814 394.847,95.458 316.746,95.458 		"/>
		<polygon style="fill:#E64C3C;" points="247.322,147.525 394.847,147.525 394.847,130.169 247.322,130.169 		"/>
	</g>
	<g>
		<polygon style="fill:#B7372C;" points="394.847,95.458 498.983,95.458 498.983,78.102 394.847,78.102 		"/>
		<polygon style="fill:#B7372C;" points="394.847,130.169 498.983,130.169 498.983,112.814 394.847,112.814 		"/>
		<polygon style="fill:#B7372C;" points="394.847,164.881 498.983,164.881 498.983,147.525 394.847,147.525 		"/>
	</g>
	<path style="fill:#434C6D;" d="M247.322,399.186c-4.79,0-8.678-3.888-8.678-8.678V8.678c0-4.79,3.888-8.678,8.678-8.678
		S256,3.888,256,8.678v381.831C256,395.299,252.112,399.186,247.322,399.186"/>
	<path style="fill:#E0A977;" d="M247.322,433.898c-23.925,0-43.39-19.465-43.39-43.39c0-4.79,3.888-8.678,8.678-8.678
		s8.678,3.888,8.678,8.678c0,14.353,11.681,26.034,26.034,26.034s26.034-11.681,26.034-26.034c0-4.79,3.888-8.678,8.678-8.678
		c4.79,0,8.678,3.888,8.678,8.678C290.712,414.434,271.247,433.898,247.322,433.898"/>
	<polygon style="fill:#E64C3C;" points="316.746,78.102 394.847,78.102 394.847,60.746 316.746,60.746 	"/>
	<g>
		<path style="fill:#E0A977;" d="M386.174,468.61c-19.144,0-34.712-15.568-34.712-34.712c0-4.79,3.888-8.678,8.678-8.678
			c4.79,0,8.678,3.888,8.678,8.678c0,9.572,7.784,17.356,17.356,17.356c4.79,0,8.678,3.888,8.678,8.678
			C394.852,464.722,390.964,468.61,386.174,468.61"/>
		<path style="fill:#E0A977;" d="M58.705,434.132c5.727,14.414,19.638,24.663,36.1,24.663c21.565,0,39.051-17.486,39.051-39.051
			c0-14.536-8.027-27.067-19.812-33.766C93.304,399.229,74.681,415.457,58.705,434.132"/>
		<path style="fill:#E0A977;" d="M299.39,477.288c0,4.79-3.888,8.678-8.678,8.678s-8.678-3.888-8.678-8.678s3.888-8.678,8.678-8.678
			S299.39,472.498,299.39,477.288"/>
		<path style="fill:#E0A977;" d="M186.576,442.576c0,4.79-3.888,8.678-8.678,8.678s-8.678-3.888-8.678-8.678
			s3.888-8.678,8.678-8.678S186.576,437.786,186.576,442.576"/>
	</g>
</g>
<g>
</g>
<g>
</g>
<g>
</g>
<g>
</g>
<g>
</g>
<g>
</g>
<g>
</g>
<g>
</g>
<g>
</g>
<g>
</g>
<g>
</g>
<g>
</g>
<g>
</g>
<g>
</g>
<g>
</g>
</svg>
