<?xml version="1.0" encoding="iso-8859-1"?>
<!-- Generator: Adobe Illustrator 19.0.0, SVG Export Plug-In . SVG Version: 6.00 Build 0)  -->
<svg version="1.1" id="Layer_1" xmlns="http://www.w3.org/2000/svg" xmlns:xlink="http://www.w3.org/1999/xlink" x="0px" y="0px"
	 viewBox="0 0 512 512" style="enable-background:new 0 0 512 512;" xml:space="preserve">
<g>
	<polygon style="fill:#848C91;" points="187.733,264.533 119.467,264.533 119.467,85.333 187.733,34.133 	"/>
	<g>
		<path style="fill:#E8EDEE;" d="M59.733,264.533h59.733V123.657C82.662,159.326,59.733,209.229,59.733,264.533"/>
		<path style="fill:#E8EDEE;" d="M256,68.267c-20.83,0-49.425,3.277-68.267,9.284v186.982h136.533V77.551
			C305.425,71.543,276.83,68.267,256,68.267"/>
		<path style="fill:#E8EDEE;" d="M392.533,123.655v140.877h59.733C452.267,209.227,429.338,159.324,392.533,123.655"/>
	</g>
	<polygon style="fill:#848C91;" points="324.267,264.533 392.533,264.533 392.533,85.333 324.267,34.133 	"/>
	<polygon style="fill:#E8EDEE;" points="25.6,503.467 486.4,503.467 486.4,298.667 25.6,298.667 	"/>
	<g>
		<polygon style="fill:#B0B6BB;" points="196.267,503.467 315.733,503.467 315.733,366.933 196.267,366.933 		"/>
		<path style="fill:#B0B6BB;" d="M435.2,477.867c-4.71,0-8.533-3.823-8.533-8.533V384c0-4.71,3.823-8.533,8.533-8.533
			s8.533,3.823,8.533,8.533v85.333C443.733,474.044,439.91,477.867,435.2,477.867"/>
		<path style="fill:#B0B6BB;" d="M153.6,230.4c-4.71,0-8.533-3.823-8.533-8.533V110.933c0-4.71,3.823-8.533,8.533-8.533
			s8.533,3.823,8.533,8.533v110.933C162.133,226.577,158.31,230.4,153.6,230.4"/>
		<path style="fill:#B0B6BB;" d="M358.4,230.4c-4.71,0-8.533-3.823-8.533-8.533V110.933c0-4.71,3.823-8.533,8.533-8.533
			s8.533,3.823,8.533,8.533v110.933C366.933,226.577,363.11,230.4,358.4,230.4"/>
		<polygon style="fill:#B0B6BB;" points="59.733,452.267 93.867,452.267 93.867,401.067 59.733,401.067 		"/>
		<polygon style="fill:#B0B6BB;" points="128,452.267 162.133,452.267 162.133,401.067 128,401.067 		"/>
	</g>
	<g>
		<polygon style="fill:#848C91;" points="247.467,503.467 264.533,503.467 264.533,366.933 247.467,366.933 		"/>
		<path style="fill:#848C91;" d="M76.8,332.8c-4.71,0-8.533-3.823-8.533-8.533v-25.6c0-4.71,3.823-8.533,8.533-8.533
			s8.533,3.823,8.533,8.533v25.6C85.333,328.977,81.51,332.8,76.8,332.8"/>
		<path style="fill:#848C91;" d="M128,332.8c-4.71,0-8.533-3.823-8.533-8.533v-25.6c0-4.71,3.823-8.533,8.533-8.533
			c4.71,0,8.533,3.823,8.533,8.533v25.6C136.533,328.977,132.71,332.8,128,332.8"/>
		<path style="fill:#848C91;" d="M179.2,332.8c-4.71,0-8.533-3.823-8.533-8.533v-25.6c0-4.71,3.823-8.533,8.533-8.533
			s8.533,3.823,8.533,8.533v25.6C187.733,328.977,183.91,332.8,179.2,332.8"/>
		<path style="fill:#848C91;" d="M230.4,332.8c-4.71,0-8.533-3.823-8.533-8.533v-25.6c0-4.71,3.823-8.533,8.533-8.533
			s8.533,3.823,8.533,8.533v25.6C238.933,328.977,235.11,332.8,230.4,332.8"/>
		<path style="fill:#848C91;" d="M281.6,332.8c-4.71,0-8.533-3.823-8.533-8.533v-25.6c0-4.71,3.823-8.533,8.533-8.533
			s8.533,3.823,8.533,8.533v25.6C290.133,328.977,286.31,332.8,281.6,332.8"/>
		<path style="fill:#848C91;" d="M332.8,332.8c-4.71,0-8.533-3.823-8.533-8.533v-25.6c0-4.71,3.823-8.533,8.533-8.533
			s8.533,3.823,8.533,8.533v25.6C341.333,328.977,337.51,332.8,332.8,332.8"/>
		<path style="fill:#848C91;" d="M384,332.8c-4.71,0-8.533-3.823-8.533-8.533v-25.6c0-4.71,3.823-8.533,8.533-8.533
			s8.533,3.823,8.533,8.533v25.6C392.533,328.977,388.71,332.8,384,332.8"/>
		<path style="fill:#848C91;" d="M435.2,332.8c-4.71,0-8.533-3.823-8.533-8.533v-25.6c0-4.71,3.823-8.533,8.533-8.533
			s8.533,3.823,8.533,8.533v25.6C443.733,328.977,439.91,332.8,435.2,332.8"/>
	</g>
	<g>
		<path style="fill:#B0B6BB;" d="M366.933,426.667c0,4.71-3.823,8.533-8.533,8.533s-8.533-3.823-8.533-8.533
			s3.823-8.533,8.533-8.533S366.933,421.956,366.933,426.667"/>
		<path style="fill:#B0B6BB;" d="M366.933,469.333c0,4.71-3.823,8.533-8.533,8.533s-8.533-3.823-8.533-8.533
			c0-4.71,3.823-8.533,8.533-8.533S366.933,464.623,366.933,469.333"/>
		<path style="fill:#B0B6BB;" d="M366.933,384c0,4.71-3.823,8.533-8.533,8.533s-8.533-3.823-8.533-8.533s3.823-8.533,8.533-8.533
			S366.933,379.29,366.933,384"/>
	</g>
	<path style="fill:#8697CB;" d="M230.4,221.867c0,4.71-3.823,8.533-8.533,8.533c-4.71,0-8.533-3.823-8.533-8.533
		c0-4.71,3.823-8.533,8.533-8.533C226.577,213.333,230.4,217.156,230.4,221.867"/>
	<g>
		<path style="fill:#F3D55B;" d="M76.8,59.733c0,4.71-3.823,8.533-8.533,8.533s-8.533-3.823-8.533-8.533s3.823-8.533,8.533-8.533
			S76.8,55.023,76.8,59.733"/>
		<path style="fill:#F3D55B;" d="M25.6,179.2c0,4.71-3.823,8.533-8.533,8.533s-8.533-3.823-8.533-8.533s3.823-8.533,8.533-8.533
			S25.6,174.49,25.6,179.2"/>
	</g>
	<g>
		<path style="fill:#8697CB;" d="M264.533,221.867c0,4.71-3.823,8.533-8.533,8.533c-4.71,0-8.533-3.823-8.533-8.533
			c0-4.71,3.823-8.533,8.533-8.533C260.71,213.333,264.533,217.156,264.533,221.867"/>
		<path style="fill:#8697CB;" d="M298.667,221.867c0,4.71-3.823,8.533-8.533,8.533c-4.71,0-8.533-3.823-8.533-8.533
			c0-4.71,3.823-8.533,8.533-8.533C294.844,213.333,298.667,217.156,298.667,221.867"/>
	</g>
	<polygon style="fill:#B0B6BB;" points="486.4,298.667 25.6,298.667 59.733,264.533 452.267,264.533 	"/>
	<g>
		<path style="fill:#8697CB;" d="M290.133,145.067c0,18.85-15.283,34.133-34.133,34.133c-18.85,0-34.133-15.283-34.133-34.133
			S237.15,110.933,256,110.933C274.85,110.933,290.133,126.217,290.133,145.067"/>
		<path style="fill:#8697CB;" d="M503.467,512H8.533C3.823,512,0,508.177,0,503.467c0-4.71,3.823-8.533,8.533-8.533h494.933
			c4.71,0,8.533,3.823,8.533,8.533C512,508.177,508.177,512,503.467,512"/>
	</g>
	<g>
		<path style="fill:#F3D55B;" d="M447.267,51.2l13.534,13.534L474.335,51.2l-13.534-13.534L447.267,51.2z M460.801,88.866
			L423.135,51.2l37.666-37.666L498.467,51.2L460.801,88.866z"/>
		<path style="fill:#F3D55B;" d="M460.8,34.133c-4.71,0-8.533-3.823-8.533-8.533V8.533c0-4.71,3.823-8.533,8.533-8.533
			s8.533,3.823,8.533,8.533V25.6C469.333,30.31,465.51,34.133,460.8,34.133"/>
		<path style="fill:#F3D55B;" d="M503.467,59.733H486.4c-4.71,0-8.533-3.823-8.533-8.533s3.823-8.533,8.533-8.533h17.067
			c4.71,0,8.533,3.823,8.533,8.533S508.177,59.733,503.467,59.733"/>
		<path style="fill:#F3D55B;" d="M460.8,102.4c-4.71,0-8.533-3.823-8.533-8.533V76.8c0-4.71,3.823-8.533,8.533-8.533
			s8.533,3.823,8.533,8.533v17.067C469.333,98.577,465.51,102.4,460.8,102.4"/>
		<path style="fill:#F3D55B;" d="M435.2,59.733h-17.067c-4.71,0-8.533-3.823-8.533-8.533s3.823-8.533,8.533-8.533H435.2
			c4.71,0,8.533,3.823,8.533,8.533S439.91,59.733,435.2,59.733"/>
	</g>
</g>
<g>
</g>
<g>
</g>
<g>
</g>
<g>
</g>
<g>
</g>
<g>
</g>
<g>
</g>
<g>
</g>
<g>
</g>
<g>
</g>
<g>
</g>
<g>
</g>
<g>
</g>
<g>
</g>
<g>
</g>
</svg>
