<?xml version="1.0" encoding="iso-8859-1"?>
<!-- Generator: Adobe Illustrator 19.0.0, SVG Export Plug-In . SVG Version: 6.00 Build 0)  -->
<svg version="1.1" id="Layer_1" xmlns="http://www.w3.org/2000/svg" xmlns:xlink="http://www.w3.org/1999/xlink" x="0px" y="0px"
	 viewBox="0 0 512 512" style="enable-background:new 0 0 512 512;" xml:space="preserve">
<g>
	<polygon style="fill:#8697CB;" points="0,512 512,512 512,476.69 0,476.69 	"/>
	<g>
		<polygon style="fill:#E8EDEE;" points="35.31,476.69 476.69,476.69 476.69,308.966 35.31,308.966 		"/>
		<path style="fill:#E8EDEE;" d="M494.345,264.828H17.655C7.901,264.828,0,256.927,0,247.172v-17.655
			c0-9.754,7.901-17.655,17.655-17.655h476.69c9.754,0,17.655,7.901,17.655,17.655v17.655
			C512,256.927,504.099,264.828,494.345,264.828"/>
	</g>
	<g>
		<polygon style="fill:#B0B6BB;" points="370.759,476.69 141.241,476.69 141.241,388.414 256,344.276 370.759,388.414 		"/>
		<path style="fill:#B0B6BB;" d="M97.103,211.862V44.341c-60.999,61.007-70.621,114.556-70.621,167.521l0,0H97.103z"/>
		<path style="fill:#B0B6BB;" d="M414.897,211.862V44.341c60.999,61.007,70.621,114.556,70.621,167.521l0,0H414.897z"/>
	</g>
	<g>
		<polygon style="fill:#848C91;" points="97.103,17.655 97.103,211.862 167.724,211.862 167.724,0 		"/>
		<polygon style="fill:#848C91;" points="414.897,17.655 414.897,211.862 344.276,211.862 344.276,0 		"/>
	</g>
	<polygon style="fill:#B0B6BB;" points="167.724,211.862 344.276,211.862 344.276,35.31 167.724,35.31 	"/>
	<path style="fill:#8697CB;" d="M317.793,123.586c0-34.127-27.666-61.793-61.793-61.793s-61.793,27.666-61.793,61.793
		s27.666,61.793,61.793,61.793S317.793,157.714,317.793,123.586"/>
	<path style="fill:#FFFFFF;" d="M229.517,132.414c-4.882,0-8.828-3.946-8.828-8.828c0-19.474,15.837-35.31,35.31-35.31
		c4.882,0,8.828,3.946,8.828,8.828s-3.946,8.828-8.828,8.828c-9.737,0-17.655,7.918-17.655,17.655
		C238.345,128.468,234.399,132.414,229.517,132.414"/>
	<path style="fill:#B0B6BB;" d="M476.69,308.966H35.31c-9.754,0-17.655-7.901-17.655-17.655v-26.483h476.69v26.483
		C494.345,301.065,486.444,308.966,476.69,308.966"/>
	<g>
		<polygon style="fill:#E8EDEE;" points="141.241,44.138 167.724,44.138 167.724,26.483 141.241,26.483 		"/>
		<polygon style="fill:#E8EDEE;" points="141.241,79.448 167.724,79.448 167.724,61.793 141.241,61.793 		"/>
		<polygon style="fill:#E8EDEE;" points="141.241,114.759 167.724,114.759 167.724,97.103 141.241,97.103 		"/>
		<polygon style="fill:#E8EDEE;" points="141.241,150.069 167.724,150.069 167.724,132.414 141.241,132.414 		"/>
		<polygon style="fill:#E8EDEE;" points="141.241,185.379 167.724,185.379 167.724,167.724 141.241,167.724 		"/>
		<polygon style="fill:#E8EDEE;" points="344.276,44.138 370.759,44.138 370.759,26.483 344.276,26.483 		"/>
		<polygon style="fill:#E8EDEE;" points="344.276,79.448 370.759,79.448 370.759,61.793 344.276,61.793 		"/>
		<polygon style="fill:#E8EDEE;" points="344.276,114.759 370.759,114.759 370.759,97.103 344.276,97.103 		"/>
		<polygon style="fill:#E8EDEE;" points="344.276,150.069 370.759,150.069 370.759,132.414 344.276,132.414 		"/>
		<polygon style="fill:#E8EDEE;" points="344.276,185.379 370.759,185.379 370.759,167.724 344.276,167.724 		"/>
	</g>
	<g>
		<path style="fill:#848C91;" d="M229.517,432.552h-17.655c-4.882,0-8.828-3.946-8.828-8.828c0-4.882,3.946-8.828,8.828-8.828
			h17.655c4.882,0,8.828,3.946,8.828,8.828C238.345,428.606,234.399,432.552,229.517,432.552"/>
		<path style="fill:#848C91;" d="M300.138,432.552h-17.655c-4.882,0-8.828-3.946-8.828-8.828c0-4.882,3.946-8.828,8.828-8.828
			h17.655c4.882,0,8.828,3.946,8.828,8.828C308.966,428.606,305.02,432.552,300.138,432.552"/>
		<polygon style="fill:#848C91;" points="256,344.276 247.172,347.674 247.172,476.69 264.828,476.69 264.828,347.674 		"/>
	</g>
	<g>
		<path style="fill:#B0B6BB;" d="M450.207,397.241c-4.882,0-8.828,3.946-8.828,8.828c0,4.882,3.946,8.828,8.828,8.828h26.483
			v-17.655H450.207z"/>
		<path style="fill:#B0B6BB;" d="M432.552,432.552c-4.882,0-8.828,3.946-8.828,8.828c0,4.882,3.946,8.828,8.828,8.828h44.138
			v-17.655H432.552z"/>
		<path style="fill:#B0B6BB;" d="M61.793,414.897c4.882,0,8.828-3.946,8.828-8.828c0-4.882-3.946-8.828-8.828-8.828H35.31v17.655
			H61.793z"/>
		<path style="fill:#B0B6BB;" d="M79.448,450.207c4.882,0,8.828-3.946,8.828-8.828c0-4.882-3.946-8.828-8.828-8.828H35.31v17.655
			H79.448z"/>
	</g>
</g>
<g>
</g>
<g>
</g>
<g>
</g>
<g>
</g>
<g>
</g>
<g>
</g>
<g>
</g>
<g>
</g>
<g>
</g>
<g>
</g>
<g>
</g>
<g>
</g>
<g>
</g>
<g>
</g>
<g>
</g>
</svg>
