<?xml version="1.0" encoding="iso-8859-1"?>
<!-- Generator: Adobe Illustrator 19.0.0, SVG Export Plug-In . SVG Version: 6.00 Build 0)  -->
<svg version="1.1" id="Layer_1" xmlns="http://www.w3.org/2000/svg" xmlns:xlink="http://www.w3.org/1999/xlink" x="0px" y="0px"
	 viewBox="0 0 511.834 511.834" style="enable-background:new 0 0 511.834 511.834;" xml:space="preserve">
<g>
	<path style="fill:#4482C3;" d="M321.175,346.953c0,86.268-69.936,156.203-156.203,156.203S8.768,433.22,8.768,346.953
		s69.936-156.203,156.203-156.203S321.175,260.685,321.175,346.953"/>
	<g>
		<path style="fill:#A4E869;" d="M164.971,190.749c-18.328,0-35.84,3.324-52.181,9.121c-1.345,6.916-4.643,12.453-8.018,17.72
			c-8.773,13.685,5.988,30.937,20.61,23.856c16.401-7.94,29.757-24.706,48.406-24.602c9.52,0.052,33.887-14.996,38.548-11.932
			c18.831,12.41-4.313,56.381-18.718,41.75c-13.85-13.859-22.459,6.005-15.976,12.939c7.125,7.628,4.556,22.997-5.311,26.529
			c-9.928,3.549-48.892-26.346-39.32-3.688c10.526,25.149-31.527,44.57,10.926,34.434c20.011-4.79,13.364,10.431,22.797,17.703
			c11.255,8.635,12.427,7.715,31.111-0.929c21.912-9.997,13.676,5.597,20.393,15.785c12.574,19.031,43.503,37.289,59.713,12.14
			c3.818-5.927,0.382-50.15,25.869-23.3h16.913C316.211,256.068,248.315,190.749,164.971,190.749"/>
		<path style="fill:#A4E869;" d="M191.005,407.698l-26.034-8.678h-26.034l-21.009-8.739l-13.703-8.617l-34.712,8.678l-17.356,8.678
			l-17.356,17.356l-6.76,5.719c26.563,48.31,77.911,81.061,136.93,81.061c15.074,0,29.601-2.248,43.39-6.239v-19.794l17.356-17.356
			l8.678-26.034h-43.39V407.698z"/>
	</g>
	<g>
		<path style="fill:#8697CB;" d="M467.573,190.749c-2.265,0-4.521-0.955-6.075-2.517c-0.876-0.781-1.475-1.736-1.909-2.864
			c-0.443-1.041-0.694-2.169-0.694-3.298s0.252-2.256,0.694-3.298c0.434-1.041,1.033-1.996,1.909-2.864
			c1.987-1.996,4.946-2.864,7.801-2.343c0.529,0.087,1.041,0.26,1.658,0.521c0.425,0.174,0.955,0.434,1.475,0.781
			c0.425,0.347,0.868,0.694,1.302,1.041c0.781,0.868,1.475,1.822,1.909,2.864c0.425,1.041,0.607,2.169,0.607,3.298
			s-0.182,2.256-0.607,3.298c-0.521,1.128-1.128,2.083-1.909,2.864c-0.434,0.347-0.876,0.781-1.302,1.041
			c-0.521,0.347-1.05,0.607-1.475,0.781c-0.616,0.26-1.128,0.434-1.658,0.521C468.701,190.662,468.172,190.749,467.573,190.749"/>
		<path style="fill:#8697CB;" d="M476.251,223.55h0.087c-1.658-4.513,0.694-9.459,5.198-11.108c4.434-1.562,9.459,0.694,11.03,5.207
			h0.087c1.553,4.513-0.781,9.546-5.302,11.108c-0.946,0.347-1.9,0.521-2.951,0.521C480.842,229.278,477.544,227.108,476.251,223.55
			L476.251,223.55z M487.619,262.861c-1.05-4.686,1.9-9.285,6.587-10.24c4.686-1.041,9.294,1.909,10.335,6.595
			c1.041,4.686-1.909,9.285-6.595,10.327c-0.607,0.174-1.302,0.174-1.918,0.174C492.036,269.717,488.487,266.94,487.619,262.861
			L487.619,262.861z M493.694,303.388h-0.087c-0.347-4.773,3.211-8.938,7.984-9.372c4.773-0.347,8.93,3.211,9.372,7.984
			c0.347,4.773-3.211,8.938-7.984,9.372h-0.694C497.85,311.371,494.041,307.9,493.694,303.388L493.694,303.388z M502.632,353.459
			c-4.868-0.26-8.504-4.339-8.244-9.112c0.26-4.773,4.252-8.504,9.112-8.244c4.764,0.26,8.409,4.339,8.157,9.112h0.087
			c-0.26,4.599-4.174,8.244-8.765,8.244H502.632z M496.557,395.114c-4.773-0.955-7.897-5.467-6.942-10.153
			c0.868-4.686,5.38-7.81,10.058-6.942c4.782,0.868,7.897,5.38,6.951,10.153c-0.781,4.165-4.434,7.029-8.504,7.029
			C497.599,395.2,497.069,395.2,496.557,395.114L496.557,395.114z M484.929,435.553c-4.599-1.475-7.038-6.422-5.563-10.934
			c1.475-4.599,6.43-7.029,10.943-5.554c4.591,1.475,7.029,6.422,5.554,10.934c-1.215,3.645-4.608,5.988-8.244,5.988
			C486.751,435.987,485.797,435.813,484.929,435.553L484.929,435.553z M468.172,474.17c-4.339-2.083-6.161-7.203-4.07-11.628
			c2.083-4.252,7.281-6.075,11.542-3.992c4.339,2.083,6.161,7.203,4.07,11.542c-1.475,3.124-4.591,4.946-7.802,4.946
			C470.688,475.038,469.395,474.777,468.172,474.17L468.172,474.17z"/>
		<path style="fill:#8697CB;" d="M451.344,511.834c-1.128,0-2.256-0.26-3.298-0.694c-1.041-0.434-1.996-1.041-2.864-1.822
			c-1.571-1.649-2.517-3.905-2.517-6.161s0.946-4.513,2.517-6.161c0.868-0.781,1.822-1.388,2.864-1.822
			c3.115-1.388,7.029-0.607,9.459,1.822c1.562,1.649,2.517,3.905,2.517,6.161s-0.955,4.513-2.517,6.161
			C455.857,510.879,453.601,511.834,451.344,511.834"/>
		<path style="fill:#8697CB;" d="M8.768,69.258c-0.607,0-1.128-0.087-1.736-0.174c-0.521-0.087-1.041-0.26-1.562-0.521
			C4.95,68.39,4.429,68.13,3.9,67.782c-0.425-0.26-0.859-0.694-1.293-1.041C1.036,65.092,0.09,62.836,0.09,60.58
			c0-0.521,0.087-1.128,0.174-1.736c0.087-0.521,0.26-1.041,0.521-1.562c0.174-0.521,0.434-1.041,0.781-1.562
			c0.26-0.434,0.694-0.868,1.041-1.302L3.9,53.377c0.529-0.347,1.05-0.607,1.571-0.781c0.521-0.26,1.041-0.434,1.562-0.521
			c2.864-0.521,5.814,0.347,7.897,2.343c0.347,0.434,0.694,0.868,1.041,1.302c0.347,0.521,0.599,1.041,0.781,1.562
			c0.26,0.521,0.434,1.041,0.512,1.562c0.095,0.607,0.182,1.215,0.182,1.736c0,2.256-0.955,4.513-2.517,6.161
			C13.281,68.303,11.024,69.258,8.768,69.258"/>
		<path style="fill:#8697CB;" d="M163.319,8.944c-0.174-4.773,3.558-8.765,8.426-8.938c4.773-0.174,8.756,3.558,8.93,8.418
			c0.182,4.773-3.558,8.765-8.418,8.938h-0.26C167.311,17.362,163.501,13.717,163.319,8.944L163.319,8.944z M214.441,18.837
			c-4.782-0.521-8.253-4.773-7.819-9.546c0.521-4.773,4.773-8.244,9.546-7.723c4.782,0.434,8.244,4.686,7.723,9.459
			c-0.425,4.513-4.165,7.81-8.591,7.81H214.441z M120.363,14.672c-0.868-4.773,2.343-9.199,7.029-10.066
			c4.773-0.781,9.199,2.343,10.075,7.029c0.859,4.773-2.352,9.285-7.038,10.066c-0.521,0.087-1.041,0.174-1.475,0.174
			C124.798,21.874,121.153,18.837,120.363,14.672L120.363,14.672z M255.913,25.866c-4.591-1.041-7.454-5.814-6.335-10.414
			c1.128-4.686,5.814-7.55,10.422-6.422h0.078c4.608,1.128,7.463,5.814,6.335,10.5c-0.946,3.992-4.513,6.595-8.418,6.595
			C257.302,26.126,256.607,26.04,255.913,25.866L255.913,25.866z M78.622,26.213c-1.475-4.599,1.041-9.459,5.554-10.934
			c4.599-1.475,9.468,1.041,10.943,5.641c1.475,4.513-1.041,9.459-5.563,10.934c-0.946,0.26-1.822,0.347-2.69,0.347
			C83.23,32.201,79.75,29.858,78.622,26.213L78.622,26.213z M296.188,38.536c-4.521-1.736-6.691-6.769-4.955-11.195
			c1.736-4.513,6.777-6.682,11.195-4.946c4.513,1.736,6.682,6.769,4.955,11.281c-1.31,3.384-4.608,5.467-8.079,5.467
			C298.262,39.143,297.229,38.97,296.188,38.536L296.188,38.536z M38.79,43.222c-2.083-4.339-0.26-9.459,4.079-11.542
			s9.554-0.174,11.542,4.079c2.083,4.339,0.26,9.546-4.079,11.628c-1.215,0.521-2.43,0.781-3.732,0.781
			C43.398,48.169,40.266,46.346,38.79,43.222L38.79,43.222z"/>
		<path style="fill:#8697CB;" d="M338.531,57.715c-2.256,0-4.521-0.955-6.075-2.517c-1.658-1.649-2.603-3.905-2.603-6.161
			c0-2.343,0.946-4.513,2.603-6.161c2.334-2.43,6.248-3.211,9.459-1.909c1.041,0.434,1.996,1.128,2.777,1.909
			c1.64,1.649,2.517,3.818,2.517,6.161c0,2.256-0.876,4.513-2.517,6.161c-0.781,0.781-1.736,1.388-2.777,1.822
			C340.787,57.455,339.746,57.715,338.531,57.715"/>
	</g>
	<path style="fill:#D75A4A;" d="M494.734,112.648c0,47.928-38.851,86.78-86.78,86.78s-86.78-38.851-86.78-86.78
		s38.851-86.78,86.78-86.78S494.734,64.719,494.734,112.648"/>
	<g>
		<path style="fill:#E57E25;" d="M490.749,86.614h-30.729c-4.799,0-8.678,3.888-8.678,8.678s3.879,8.678,8.678,8.678h34.278
			C493.7,97.982,492.494,92.176,490.749,86.614"/>
		<path style="fill:#E57E25;" d="M492.991,130.003h-59.001c-4.799,0-8.678,3.888-8.678,8.678s3.879,8.678,8.678,8.678h53.474
			C489.875,141.84,491.767,136.043,492.991,130.003"/>
		<path style="fill:#E57E25;" d="M407.955,156.037h-75.073c3.662,6.326,8.062,12.167,13.147,17.356h61.926
			c4.799,0,8.678-3.888,8.678-8.678S412.753,156.037,407.955,156.037"/>
		<path style="fill:#E57E25;" d="M373.243,103.97h-51.634c-0.278,2.855-0.434,5.745-0.434,8.678c0,2.933,0.156,5.823,0.434,8.678
			h51.634c4.799,0,8.678-3.888,8.678-8.678S378.042,103.97,373.243,103.97"/>
		<path style="fill:#E57E25;" d="M425.31,60.58h-86.658c-4.027,5.354-7.489,11.143-10.205,17.356h96.863
			c4.799,0,8.678-3.888,8.678-8.678S430.109,60.58,425.31,60.58"/>
	</g>
</g>
<g>
</g>
<g>
</g>
<g>
</g>
<g>
</g>
<g>
</g>
<g>
</g>
<g>
</g>
<g>
</g>
<g>
</g>
<g>
</g>
<g>
</g>
<g>
</g>
<g>
</g>
<g>
</g>
<g>
</g>
</svg>
