<?xml version="1.0" encoding="iso-8859-1"?>
<!-- Generator: Adobe Illustrator 19.0.0, SVG Export Plug-In . SVG Version: 6.00 Build 0)  -->
<svg version="1.1" id="Layer_1" xmlns="http://www.w3.org/2000/svg" xmlns:xlink="http://www.w3.org/1999/xlink" x="0px" y="0px"
	 viewBox="0 0 512 512" style="enable-background:new 0 0 512 512;" xml:space="preserve">
<g>
	<path style="fill:#3D3F44;" d="M281.6,469.333h-51.2v-128c0-27.699,8.986-54.647,25.6-76.8c16.614,22.153,25.6,49.101,25.6,76.8
		V469.333z"/>
	<path style="fill:#5E5F62;" d="M285.865,204.8h-59.733c-7.066,0-12.8-5.734-12.8-12.8V85.333h85.333V192
		C298.665,199.066,292.931,204.8,285.865,204.8"/>
	<g>
		<path style="fill:#77797F;" d="M230.4,204.8v136.533c0-27.699,8.986-54.647,25.6-76.8c16.614,22.153,25.6,49.101,25.6,76.8V204.8
			H230.4z"/>
		<path style="fill:#77797F;" d="M256,8.533c0,0-42.667,12.8-42.667,76.8h85.333C298.666,21.333,256,8.533,256,8.533"/>
	</g>
	<g>
		<path style="fill:#5E5F62;" d="M230.4,302.015c-2.816-4.07-5.675-8.073-8.533-11.878c-16.614,22.153-34.133,49.101-34.133,76.8
			v85.333H230.4v-85.333V302.015z"/>
		<path style="fill:#5E5F62;" d="M281.6,302.015c2.816-4.07,5.675-8.073,8.533-11.878c16.614,22.153,34.133,49.101,34.133,76.8
			v85.333H281.6v-85.333V302.015z"/>
		<polygon style="fill:#5E5F62;" points="298.666,503.467 213.333,503.467 230.4,469.333 281.6,469.333 		"/>
	</g>
	<g>
		<polygon style="fill:#77797F;" points="324.266,452.267 281.6,452.267 281.6,469.333 290.133,486.4 341.333,486.4 		"/>
		<polygon style="fill:#77797F;" points="187.733,452.267 170.666,486.4 221.866,486.4 230.4,469.333 230.4,452.267 		"/>
		<path style="fill:#77797F;" d="M256,179.2c-4.71,0-8.533-3.823-8.533-8.533v-51.2c0-4.71,3.823-8.533,8.533-8.533
			s8.533,3.823,8.533,8.533v51.2C264.533,175.377,260.71,179.2,256,179.2"/>
	</g>
	<g>
		<path style="fill:#F3D55B;" d="M401.066,213.333c0,4.71-3.823,8.533-8.533,8.533S384,218.044,384,213.333s3.823-8.533,8.533-8.533
			S401.066,208.623,401.066,213.333"/>
		<path style="fill:#F3D55B;" d="M494.933,85.333c0,4.71-3.823,8.533-8.533,8.533s-8.533-3.823-8.533-8.533
			c0-4.71,3.823-8.533,8.533-8.533S494.933,80.623,494.933,85.333"/>
		<path style="fill:#F3D55B;" d="M76.8,358.4c0,4.71-3.823,8.533-8.533,8.533s-8.533-3.823-8.533-8.533s3.823-8.533,8.533-8.533
			S76.8,353.69,76.8,358.4"/>
		<path style="fill:#F3D55B;" d="M119.466,136.533c0,4.71-3.823,8.533-8.533,8.533c-4.71,0-8.533-3.823-8.533-8.533
			s3.823-8.533,8.533-8.533C115.643,128,119.466,131.823,119.466,136.533"/>
		<path style="fill:#F3D55B;" d="M34.108,42.667c3.234,2.432,6.127,5.325,8.559,8.559c2.432-3.234,5.316-6.127,8.559-8.559
			c-3.243-2.432-6.127-5.325-8.559-8.559C40.235,37.342,37.342,40.235,34.108,42.667 M42.667,85.333
			c-4.71,0-8.533-3.823-8.533-8.533c0-14.114-11.486-25.6-25.6-25.6C3.823,51.2,0,47.377,0,42.667s3.823-8.533,8.533-8.533
			c14.114,0,25.6-11.486,25.6-25.6c0-4.71,3.823-8.533,8.533-8.533S51.2,3.823,51.2,8.533c0,14.114,11.486,25.6,25.6,25.6
			c4.71,0,8.533,3.823,8.533,8.533S81.511,51.2,76.8,51.2c-14.114,0-25.6,11.486-25.6,25.6C51.2,81.51,47.377,85.333,42.667,85.333"
			/>
		<path style="fill:#F3D55B;" d="M447.267,460.8l13.534,13.534l13.534-13.534L460.8,447.266L447.267,460.8z M460.8,498.466
			L423.134,460.8l37.666-37.666l37.666,37.666L460.8,498.466z"/>
		<path style="fill:#F3D55B;" d="M460.8,443.733c-4.71,0-8.533-3.823-8.533-8.533v-17.067c0-4.71,3.823-8.533,8.533-8.533
			s8.533,3.823,8.533,8.533V435.2C469.333,439.91,465.51,443.733,460.8,443.733"/>
		<path style="fill:#F3D55B;" d="M503.466,469.333H486.4c-4.71,0-8.533-3.823-8.533-8.533s3.823-8.533,8.533-8.533h17.067
			c4.71,0,8.533,3.823,8.533,8.533S508.177,469.333,503.466,469.333"/>
		<path style="fill:#F3D55B;" d="M460.8,512c-4.71,0-8.533-3.823-8.533-8.533V486.4c0-4.71,3.823-8.533,8.533-8.533
			s8.533,3.823,8.533,8.533v17.067C469.333,508.177,465.51,512,460.8,512"/>
		<path style="fill:#F3D55B;" d="M435.2,469.333h-17.067c-4.71,0-8.533-3.823-8.533-8.533s3.823-8.533,8.533-8.533H435.2
			c4.71,0,8.533,3.823,8.533,8.533S439.91,469.333,435.2,469.333"/>
	</g>
</g>
<g>
</g>
<g>
</g>
<g>
</g>
<g>
</g>
<g>
</g>
<g>
</g>
<g>
</g>
<g>
</g>
<g>
</g>
<g>
</g>
<g>
</g>
<g>
</g>
<g>
</g>
<g>
</g>
<g>
</g>
</svg>
