<?xml version="1.0" encoding="iso-8859-1"?>
<!-- Generator: Adobe Illustrator 19.0.0, SVG Export Plug-In . SVG Version: 6.00 Build 0)  -->
<svg version="1.1" id="Layer_1" xmlns="http://www.w3.org/2000/svg" xmlns:xlink="http://www.w3.org/1999/xlink" x="0px" y="0px"
	 viewBox="0 0 512 512" style="enable-background:new 0 0 512 512;" xml:space="preserve">
<g>
	<polygon style="fill:#E8EDEE;" points="151.864,364.475 360.136,364.475 360.136,121.492 151.864,121.492 	"/>
	<polygon style="fill:#B0B6BB;" points="360.136,121.492 151.864,121.492 256,0 	"/>
	<g>
		<path style="fill:#E57E25;" d="M264.678,503.322c0,4.79-3.888,8.678-8.678,8.678c-4.79,0-8.678-3.888-8.678-8.678
			s3.888-8.678,8.678-8.678C260.79,494.644,264.678,498.532,264.678,503.322"/>
		<path style="fill:#E57E25;" d="M256,477.288c-4.799,0-8.678-3.879-8.678-8.678v-17.356c0-4.799,3.879-8.678,8.678-8.678
			s8.678,3.879,8.678,8.678v17.356C264.678,473.409,260.799,477.288,256,477.288"/>
		<path style="fill:#E57E25;" d="M316.746,494.644c0,4.79,3.888,8.678,8.678,8.678c4.79,0,8.678-3.888,8.678-8.678
			s-3.888-8.678-8.678-8.678C320.633,485.966,316.746,489.854,316.746,494.644"/>
		<path style="fill:#E57E25;" d="M308.076,477.288c-3.185,0-6.248-1.753-7.775-4.799l-8.678-17.356
			c-2.143-4.287-0.399-9.494,3.888-11.646c4.278-2.126,9.494-0.399,11.646,3.888l8.678,17.356c2.143,4.287,0.399,9.494-3.888,11.646
			C310.706,476.993,309.378,477.288,308.076,477.288"/>
		<path style="fill:#E57E25;" d="M195.254,494.644c0,4.79-3.888,8.678-8.678,8.678s-8.678-3.888-8.678-8.678
			s3.888-8.678,8.678-8.678S195.254,489.854,195.254,494.644"/>
		<path style="fill:#E57E25;" d="M203.924,477.288c-1.302,0-2.629-0.295-3.87-0.911c-4.287-2.152-6.031-7.359-3.888-11.646
			l8.678-17.356c2.152-4.287,7.359-6.014,11.646-3.888c4.287,2.152,6.031,7.359,3.888,11.646l-8.678,17.356
			C210.172,475.535,207.108,477.288,203.924,477.288"/>
	</g>
	<polygon style="fill:#B0B6BB;" points="342.78,416.542 169.22,416.542 203.932,364.475 308.068,364.475 	"/>
	<path style="fill:#F3D55B;" d="M308.068,242.983c0,28.759-23.309,52.068-52.068,52.068s-52.068-23.309-52.068-52.068
		s23.309-52.068,52.068-52.068S308.068,214.224,308.068,242.983"/>
	<g>
		<path style="fill:#B0B6BB;" d="M360.136,147.525h-69.424c-4.799,0-8.678,3.879-8.678,8.678c0,4.799,3.879,8.678,8.678,8.678
			h69.424V147.525z"/>
		<path style="fill:#B0B6BB;" d="M360.136,321.085h-34.712c-4.799,0-8.678,3.879-8.678,8.678c0,4.799,3.879,8.678,8.678,8.678
			h34.712V321.085z"/>
		<path style="fill:#B0B6BB;" d="M229.966,147.525h-78.102v17.356h78.102c4.799,0,8.678-3.879,8.678-8.678
			C238.644,151.404,234.765,147.525,229.966,147.525"/>
		<path style="fill:#B0B6BB;" d="M195.254,321.085h-43.39v17.356h43.39c4.799,0,8.678-3.879,8.678-8.678
			C203.932,324.964,200.053,321.085,195.254,321.085"/>
	</g>
	<g>
		<path style="fill:#CBB292;" d="M256,190.915c-2.968,0-5.849,0.304-8.678,0.781v25.253c0,4.799,3.879,8.678,8.678,8.678
			s8.678-3.879,8.678-8.678v-25.253C261.849,191.219,258.968,190.915,256,190.915"/>
		<path style="fill:#CBB292;" d="M308.068,242.983c0-2.959-0.304-5.849-0.781-8.678h-25.253c-4.799,0-8.678,3.879-8.678,8.678
			c0,4.799,3.879,8.678,8.678,8.678h25.253C307.764,248.832,308.068,245.942,308.068,242.983"/>
		<path style="fill:#CBB292;" d="M256,260.339c-4.799,0-8.678,3.879-8.678,8.678v25.253c2.829,0.477,5.71,0.781,8.678,0.781
			s5.849-0.304,8.678-0.781v-25.253C264.678,264.218,260.799,260.339,256,260.339"/>
		<path style="fill:#CBB292;" d="M229.966,234.305h-25.253c-0.477,2.829-0.781,5.719-0.781,8.678s0.304,5.849,0.781,8.678h25.253
			c4.799,0,8.678-3.879,8.678-8.678C238.644,238.184,234.765,234.305,229.966,234.305"/>
	</g>
	<g>
		<path style="fill:#E8EDEE;" d="M290.712,390.508c-4.799,0-8.678,3.879-8.678,8.678v17.356h17.356v-17.356
			C299.39,394.388,295.511,390.508,290.712,390.508"/>
		<path style="fill:#E8EDEE;" d="M256,390.508c-4.799,0-8.678,3.879-8.678,8.678v17.356h17.356v-17.356
			C264.678,394.388,260.799,390.508,256,390.508"/>
		<path style="fill:#E8EDEE;" d="M221.288,390.508c-4.799,0-8.678,3.879-8.678,8.678v17.356h17.356v-17.356
			C229.966,394.388,226.087,390.508,221.288,390.508"/>
	</g>
</g>
<g>
</g>
<g>
</g>
<g>
</g>
<g>
</g>
<g>
</g>
<g>
</g>
<g>
</g>
<g>
</g>
<g>
</g>
<g>
</g>
<g>
</g>
<g>
</g>
<g>
</g>
<g>
</g>
<g>
</g>
</svg>
