<?xml version="1.0" encoding="iso-8859-1"?>
<!-- Generator: Adobe Illustrator 19.0.0, SVG Export Plug-In . SVG Version: 6.00 Build 0)  -->
<svg version="1.1" id="Layer_1" xmlns="http://www.w3.org/2000/svg" xmlns:xlink="http://www.w3.org/1999/xlink" x="0px" y="0px"
	 viewBox="0 0 512 512" style="enable-background:new 0 0 512 512;" xml:space="preserve">
<g>
	<g>
		<path style="fill:#F3D55B;" d="M37.667,51.2l13.534,13.534L64.735,51.2L51.201,37.666L37.667,51.2z M51.201,88.866L13.535,51.2
			l37.666-37.666L88.867,51.2L51.201,88.866z"/>
		<path style="fill:#F3D55B;" d="M51.2,34.133c-4.719,0-8.533-3.823-8.533-8.533V8.533C42.667,3.823,46.481,0,51.2,0
			s8.533,3.823,8.533,8.533V25.6C59.733,30.31,55.919,34.133,51.2,34.133"/>
		<path style="fill:#F3D55B;" d="M93.867,59.733H76.8c-4.719,0-8.533-3.823-8.533-8.533s3.814-8.533,8.533-8.533h17.067
			c4.719,0,8.533,3.823,8.533,8.533S98.586,59.733,93.867,59.733"/>
		<path style="fill:#F3D55B;" d="M51.2,102.4c-4.719,0-8.533-3.823-8.533-8.533V76.8c0-4.71,3.814-8.533,8.533-8.533
			s8.533,3.823,8.533,8.533v17.067C59.733,98.577,55.919,102.4,51.2,102.4"/>
		<path style="fill:#F3D55B;" d="M25.6,59.733H8.533C3.814,59.733,0,55.91,0,51.2s3.814-8.533,8.533-8.533H25.6
			c4.719,0,8.533,3.823,8.533,8.533S30.319,59.733,25.6,59.733"/>
	</g>
	<path style="fill:#B0B6BB;" d="M85.333,321.337c-2.185,0-4.369-0.836-6.033-2.5c-3.337-3.328-3.337-8.73,0-12.066l30.165-30.174
		c3.337-3.328,8.738-3.328,12.066,0c3.337,3.328,3.337,8.738,0,12.066l-30.165,30.174C89.702,320.501,87.518,321.337,85.333,321.337
		"/>
	<path style="fill:#434C6D;" d="M151.707,282.635c-10.001,10.001-26.206,10.001-36.207,0c-9.993-10.001-9.993-26.206,0-36.207
		c10.001-9.993,26.206-9.993,36.207,0C161.708,256.429,161.708,272.634,151.707,282.635"/>
	<g>
		<path style="fill:#F3D55B;" d="M102.4,136.533c0,4.71-3.823,8.533-8.533,8.533c-4.71,0-8.533-3.823-8.533-8.533
			S89.156,128,93.867,128C98.577,128,102.4,131.823,102.4,136.533"/>
		<path style="fill:#F3D55B;" d="M290.133,162.133c0,4.71-3.823,8.533-8.533,8.533s-8.533-3.823-8.533-8.533
			s3.823-8.533,8.533-8.533S290.133,157.423,290.133,162.133"/>
		<path style="fill:#F3D55B;" d="M221.867,51.2c0,4.71-3.823,8.533-8.533,8.533S204.8,55.91,204.8,51.2s3.823-8.533,8.533-8.533
			S221.867,46.49,221.867,51.2"/>
		<path style="fill:#F3D55B;" d="M486.4,25.6c0,4.71-3.823,8.533-8.533,8.533s-8.533-3.823-8.533-8.533s3.823-8.533,8.533-8.533
			S486.4,20.89,486.4,25.6"/>
		<path style="fill:#F3D55B;" d="M409.575,145.067c3.243,2.432,6.127,5.325,8.559,8.559c2.432-3.234,5.316-6.127,8.559-8.559
			c-3.243-2.432-6.127-5.325-8.559-8.559C415.702,139.742,412.818,142.635,409.575,145.067 M418.134,187.733
			c-4.719,0-8.533-3.823-8.533-8.533c0-14.114-11.486-25.6-25.6-25.6c-4.719,0-8.533-3.823-8.533-8.533
			c0-4.71,3.814-8.533,8.533-8.533c14.114,0,25.6-11.486,25.6-25.6c0-4.71,3.814-8.533,8.533-8.533s8.533,3.823,8.533,8.533
			c0,14.114,11.486,25.6,25.6,25.6c4.719,0,8.533,3.823,8.533,8.533c0,4.71-3.814,8.533-8.533,8.533
			c-14.114,0-25.6,11.486-25.6,25.6C426.668,183.91,422.853,187.733,418.134,187.733"/>
	</g>
	<path style="fill:#B0B6BB;" d="M76.8,503.467H25.6V366.933c0-14.14,11.46-25.6,25.6-25.6s25.6,11.46,25.6,25.6V503.467z"/>
	<g>
		<path style="fill:#E8EDEE;" d="M31.027,258.499c-28.254,28.254-29.867,73.037-4.89,103.202
			c2.415-11.622,12.715-20.369,25.062-20.369c14.14,0,25.6,11.46,25.6,25.6v22.153c22.391,2.492,45.67-4.804,62.839-21.973
			L31.027,258.499z"/>
		<path style="fill:#E8EDEE;" d="M59.733,392.533c0,4.71-3.823,8.533-8.533,8.533s-8.533-3.823-8.533-8.533S46.49,384,51.2,384
			S59.733,387.823,59.733,392.533"/>
		<path style="fill:#E8EDEE;" d="M59.733,426.667c0,4.71-3.823,8.533-8.533,8.533s-8.533-3.823-8.533-8.533s3.823-8.533,8.533-8.533
			S59.733,421.956,59.733,426.667"/>
		<path style="fill:#E8EDEE;" d="M59.733,460.8c0,4.71-3.823,8.533-8.533,8.533s-8.533-3.823-8.533-8.533s3.823-8.533,8.533-8.533
			S59.733,456.09,59.733,460.8"/>
	</g>
	<path style="fill:#B0B6BB;" d="M256,321.337c-2.185,0-4.369-0.836-6.033-2.5c-3.337-3.328-3.337-8.73,0-12.066l30.165-30.174
		c3.337-3.328,8.738-3.328,12.066,0c3.337,3.328,3.337,8.738,0,12.066l-30.165,30.174C260.369,320.501,258.185,321.337,256,321.337"
		/>
	<path style="fill:#434C6D;" d="M322.374,282.635c-10.001,10.001-26.206,10.001-36.207,0c-9.993-10.001-9.993-26.206,0-36.207
		c10.001-9.993,26.206-9.993,36.207,0C332.375,256.429,332.375,272.634,322.374,282.635"/>
	<path style="fill:#B0B6BB;" d="M247.467,503.467h-51.2V366.933c0-14.14,11.46-25.6,25.6-25.6c14.14,0,25.6,11.46,25.6,25.6V503.467
		z"/>
	<g>
		<path style="fill:#E8EDEE;" d="M201.694,258.499c-28.254,28.254-29.867,73.037-4.89,103.202
			c2.415-11.622,12.715-20.369,25.062-20.369c14.14,0,25.6,11.46,25.6,25.6v22.153c22.391,2.492,45.67-4.804,62.839-21.973
			L201.694,258.499z"/>
		<path style="fill:#E8EDEE;" d="M230.4,392.533c0,4.71-3.823,8.533-8.533,8.533c-4.71,0-8.533-3.823-8.533-8.533
			s3.823-8.533,8.533-8.533C226.577,384,230.4,387.823,230.4,392.533"/>
		<path style="fill:#E8EDEE;" d="M230.4,426.667c0,4.71-3.823,8.533-8.533,8.533c-4.71,0-8.533-3.823-8.533-8.533
			s3.823-8.533,8.533-8.533C226.577,418.133,230.4,421.956,230.4,426.667"/>
		<path style="fill:#E8EDEE;" d="M230.4,460.8c0,4.71-3.823,8.533-8.533,8.533c-4.71,0-8.533-3.823-8.533-8.533
			s3.823-8.533,8.533-8.533C226.577,452.267,230.4,456.09,230.4,460.8"/>
	</g>
	<path style="fill:#B0B6BB;" d="M426.667,321.337c-2.185,0-4.369-0.836-6.033-2.5c-3.337-3.328-3.337-8.73,0-12.066l30.165-30.174
		c3.337-3.328,8.738-3.328,12.066,0c3.337,3.328,3.337,8.738,0,12.066L432.7,318.837
		C431.036,320.501,428.851,321.337,426.667,321.337"/>
	<path style="fill:#434C6D;" d="M493.041,282.635c-10.001,10.001-26.206,10.001-36.207,0c-9.993-10.001-9.993-26.206,0-36.207
		c10.001-9.993,26.206-9.993,36.207,0C503.042,256.429,503.042,272.634,493.041,282.635"/>
	<path style="fill:#B0B6BB;" d="M418.133,503.467h-51.2V366.933c0-14.14,11.46-25.6,25.6-25.6s25.6,11.46,25.6,25.6V503.467z"/>
	<g>
		<path style="fill:#E8EDEE;" d="M372.361,258.499c-28.254,28.254-29.867,73.037-4.89,103.202
			c2.415-11.622,12.715-20.369,25.062-20.369c14.14,0,25.6,11.46,25.6,25.6v22.153c22.391,2.492,45.67-4.804,62.839-21.973
			L372.361,258.499z"/>
		<path style="fill:#E8EDEE;" d="M401.067,392.533c0,4.71-3.823,8.533-8.533,8.533S384,397.244,384,392.533s3.823-8.533,8.533-8.533
			S401.067,387.823,401.067,392.533"/>
		<path style="fill:#E8EDEE;" d="M401.067,426.667c0,4.71-3.823,8.533-8.533,8.533S384,431.377,384,426.667s3.823-8.533,8.533-8.533
			S401.067,421.956,401.067,426.667"/>
		<path style="fill:#E8EDEE;" d="M401.067,460.8c0,4.71-3.823,8.533-8.533,8.533S384,465.51,384,460.8s3.823-8.533,8.533-8.533
			S401.067,456.09,401.067,460.8"/>
	</g>
	<path style="fill:#434C6D;" d="M503.467,512H8.533C3.814,512,0,508.177,0,503.467c0-4.71,3.814-8.533,8.533-8.533h494.933
		c4.719,0,8.533,3.823,8.533,8.533C512,508.177,508.186,512,503.467,512"/>
</g>
<g>
</g>
<g>
</g>
<g>
</g>
<g>
</g>
<g>
</g>
<g>
</g>
<g>
</g>
<g>
</g>
<g>
</g>
<g>
</g>
<g>
</g>
<g>
</g>
<g>
</g>
<g>
</g>
<g>
</g>
</svg>
