<?xml version="1.0" encoding="iso-8859-1"?>
<!-- Generator: Adobe Illustrator 19.0.0, SVG Export Plug-In . SVG Version: 6.00 Build 0)  -->
<svg version="1.1" id="Layer_1" xmlns="http://www.w3.org/2000/svg" xmlns:xlink="http://www.w3.org/1999/xlink" x="0px" y="0px"
	 viewBox="0 0 511.999 511.999" style="enable-background:new 0 0 511.999 511.999;" xml:space="preserve">
<g>
	<path style="fill:#D75A4A;" d="M259.506,248.986c0,19.365-15.704,35.068-35.068,35.068s-35.068-15.704-35.068-35.068
		s15.704-35.068,35.068-35.068S259.506,229.621,259.506,248.986"/>
	<g>
		<path style="fill:#8697CB;" d="M191.52,159.575c-2.181,0-4.327-1.017-5.695-2.911c-2.265-3.142-1.557-7.526,1.592-9.798
			c1.431-1.024,2.735-2.237,3.886-3.598c2.336-2.742,6.354-3.282,9.321-1.248c1.943,1.333,3.893,2.7,5.849,4.089
			c3.156,2.251,3.886,6.628,1.641,9.784c-2.251,3.156-6.628,3.879-9.784,1.641l-0.926-0.659c-0.582,0.477-1.178,0.94-1.796,1.382
			C194.374,159.14,192.936,159.575,191.52,159.575"/>
		<path style="fill:#8697CB;" d="M166.122,163.274c-0.764,0-1.543-0.126-2.307-0.393c-4.215-1.466-8.066-3.703-11.446-6.635
			c-2.925-2.539-3.24-6.972-0.708-9.896c2.539-2.925,6.965-3.247,9.896-0.708c2.041,1.774,4.348,3.121,6.873,3.998
			c3.661,1.269,5.59,5.274,4.313,8.928C171.733,161.464,169.026,163.274,166.122,163.274"/>
		<path style="fill:#8697CB;" d="M147.441,134.089c-0.252,0-0.505-0.014-0.764-0.042c-3.851-0.414-6.635-3.879-6.221-7.722
			c0.077-0.687,0.175-1.375,0.288-2.062c-0.274-0.119-0.547-0.238-0.828-0.351c-3.577-1.494-5.26-5.604-3.759-9.181
			c1.494-3.57,5.597-5.26,9.174-3.766c2.181,0.919,4.398,1.887,6.642,2.911c3.317,1.522,4.917,5.337,3.668,8.767
			c-0.645,1.796-1.052,3.493-1.234,5.183C154.013,131.424,150.976,134.089,147.441,134.089"/>
		<path style="fill:#8697CB;" d="M93.722,114.835c-3.409,0-6.396-2.49-6.923-5.969c-0.582-3.822,2.055-7.399,5.884-7.975
			c4.86-0.75,10.282-0.807,16.146-0.175c3.851,0.414,6.642,3.865,6.228,7.722c-0.414,3.851-3.879,6.663-7.722,6.228
			c-4.58-0.498-8.865-0.463-12.555,0.084C94.43,114.807,94.073,114.835,93.722,114.835 M68.957,152.176
			c-3.591,0-6.656-2.742-6.979-6.396c-0.189-2.118-0.274-4.166-0.274-6.144c-0.007-3.556,0.295-6.958,0.898-10.107
			c0.722-3.801,4.412-6.284,8.192-5.583c3.808,0.722,6.305,4.398,5.583,8.199c-0.435,2.286-0.652,4.804-0.645,7.484
			c0,1.592,0.07,3.226,0.217,4.917c0.344,3.858-2.511,7.259-6.368,7.603C69.37,152.169,69.167,152.176,68.957,152.176
			 M242.041,190.267c-1.634,0-3.282-0.568-4.615-1.732c-3.612-3.156-7.217-6.235-10.822-9.223c-2.981-2.469-3.388-6.894-0.919-9.875
			c2.476-2.981,6.909-3.388,9.882-0.919c3.689,3.072,7.392,6.214,11.096,9.454c2.918,2.546,3.212,6.979,0.659,9.896
			C245.94,189.461,243.99,190.267,242.041,190.267 M84.169,199.904c-2.595,0-5.092-1.445-6.312-3.935
			c-2.23-4.566-4.285-9.118-6.088-13.536c-1.466-3.591,0.252-7.687,3.836-9.153c3.584-1.466,7.68,0.26,9.146,3.837
			c1.69,4.131,3.612,8.402,5.709,12.688c1.704,3.486,0.259,7.68-3.219,9.384C86.252,199.68,85.2,199.904,84.169,199.904
			 M278.47,225.027c-1.838,0-3.675-0.722-5.05-2.153c-2.595-2.686-5.225-5.365-7.904-8.052l-2.118-2.118
			c-2.735-2.742-2.721-7.182,0.021-9.917c2.749-2.742,7.182-2.721,9.924,0.028l2.097,2.097c2.742,2.742,5.436,5.485,8.087,8.241
			c2.686,2.784,2.602,7.224-0.189,9.91C281.977,224.375,280.223,225.027,278.47,225.027 M109.867,243.193
			c-2.23,0-4.419-1.066-5.779-3.037c-2.834-4.11-5.541-8.164-8.108-12.183c-2.09-3.268-1.136-7.603,2.125-9.693
			c3.254-2.083,7.596-1.129,9.686,2.132c2.49,3.879,5.106,7.813,7.848,11.783c2.195,3.184,1.396,7.561-1.796,9.756
			C112.631,242.786,111.242,243.193,109.867,243.193 M311.771,262.803c-2.055,0-4.089-0.898-5.471-2.623
			c-2.925-3.647-5.941-7.301-9.034-10.948c-2.511-2.953-2.153-7.385,0.8-9.889c2.967-2.497,7.378-2.139,9.889,0.807
			c3.184,3.752,6.277,7.505,9.279,11.25c2.427,3.016,1.943,7.435-1.08,9.861C314.864,262.291,313.314,262.803,311.771,262.803
			 M140.672,283.009c-1.978,0-3.942-0.842-5.33-2.455c-3.198-3.738-6.312-7.477-9.328-11.208c-2.441-3.009-1.978-7.427,1.031-9.868
			c3.009-2.434,7.428-1.971,9.868,1.038c2.939,3.626,5.969,7.273,9.09,10.913c2.518,2.946,2.174,7.378-0.771,9.889
			C143.905,282.448,142.285,283.009,140.672,283.009 M341.137,303.707c-2.329,0-4.601-1.157-5.941-3.268
			c-2.455-3.9-5.05-7.841-7.771-11.825c-2.181-3.198-1.361-7.561,1.838-9.742c3.198-2.195,7.568-1.368,9.749,1.824
			c2.82,4.131,5.499,8.213,8.052,12.253c2.069,3.275,1.087,7.603-2.188,9.672C343.711,303.356,342.414,303.707,341.137,303.707
			 M175.06,319.803c-1.781,0-3.563-0.673-4.924-2.02l-3.801-3.773c-2.181-2.181-4.334-4.363-6.46-6.551
			c-2.7-2.784-2.63-7.217,0.154-9.917c2.777-2.7,7.21-2.63,9.917,0.147c2.076,2.139,4.173,4.278,6.305,6.403l3.731,3.703
			c2.756,2.714,2.784,7.154,0.07,9.917C178.679,319.102,176.869,319.803,175.06,319.803 M364.381,348.307
			c-2.798,0-5.443-1.683-6.523-4.44c-1.627-4.117-3.493-8.402-5.562-12.744c-1.669-3.493-0.182-7.68,3.31-9.342
			c3.486-1.669,7.687-0.189,9.349,3.317c2.209,4.622,4.208,9.209,5.948,13.621c1.424,3.612-0.351,7.68-3.949,9.104
			C366.106,348.153,365.236,348.307,364.381,348.307 M212.471,353.504c-1.571,0-3.149-0.519-4.454-1.592
			c-3.703-3.051-7.421-6.179-11.138-9.412c-2.925-2.532-3.24-6.965-0.701-9.889c2.532-2.925,6.965-3.254,9.896-0.701
			c3.619,3.142,7.238,6.2,10.85,9.167c2.995,2.455,3.423,6.873,0.968,9.868C216.504,352.634,214.491,353.504,212.471,353.504
			 M252.961,383.41c-1.319,0-2.644-0.372-3.829-1.136c-3.998-2.609-8.038-5.358-12.113-8.227c-3.163-2.23-3.921-6.607-1.69-9.777
			c2.23-3.163,6.6-3.914,9.77-1.69c3.935,2.777,7.841,5.429,11.699,7.94c3.24,2.118,4.159,6.467,2.041,9.707
			C257.499,382.288,255.247,383.41,252.961,383.41 M371.787,397.375c-0.568,0-1.15-0.07-1.732-0.217
			c-3.752-0.954-6.018-4.776-5.064-8.529c0.701-2.749,1.059-5.899,1.059-9.342c0-0.933-0.028-1.88-0.077-2.841
			c-0.203-3.872,2.756-7.175,6.628-7.385c3.829-0.189,7.175,2.763,7.378,6.628c0.063,1.22,0.098,2.42,0.098,3.598
			c0,4.608-0.505,8.921-1.494,12.807C377.777,395.264,374.922,397.375,371.787,397.375 M297.063,407.636
			c-0.933,0-1.873-0.182-2.777-0.575c-4.355-1.887-8.837-3.977-13.41-6.291c-3.458-1.746-4.839-5.969-3.093-9.426
			c1.746-3.458,5.969-4.839,9.419-3.1c4.32,2.181,8.536,4.166,12.646,5.941c3.556,1.536,5.19,5.667,3.654,9.223
			C302.358,406.051,299.77,407.636,297.063,407.636 M340.709,418.654c-3.233,0-6.684-0.246-10.254-0.729
			c-3.829-0.526-6.516-4.068-5.997-7.904c0.526-3.844,4.033-6.481,7.904-6.004c4.643,0.638,8.893,0.786,12.716,0.407
			c3.858-0.344,7.287,2.448,7.659,6.305c0.372,3.851-2.448,7.287-6.305,7.652C344.595,418.563,342.687,418.654,340.709,418.654"/>
		<path style="fill:#8697CB;" d="M61.815,308.897l-7.848-3.479c-2.279-1.017-4.482-2.048-6.607-3.093
			c-3.472-1.718-4.903-5.92-3.191-9.391c1.592-3.226,5.337-4.699,8.655-3.5c0.035-0.07,0.07-0.147,0.105-0.217
			c1.746-3.451,5.969-4.853,9.426-3.079c3.458,1.746,4.839,5.962,3.086,9.426c-0.807,1.578-1.403,3.254-1.774,4.959L61.815,308.897z
			"/>
		<path style="fill:#8697CB;" d="M98.451,287.972c-1.22,0-2.462-0.323-3.591-0.996c-2.827-1.683-5.941-2.658-9.258-2.876
			c-3.865-0.26-6.789-3.598-6.53-7.463c0.26-3.865,3.556-6.719,7.47-6.537c5.464,0.372,10.829,2.041,15.514,4.839
			c3.324,1.985,4.412,6.284,2.42,9.616C103.164,286.752,100.836,287.972,98.451,287.972"/>
		<path style="fill:#8697CB;" d="M117.017,324.007c-0.449,0-0.912-0.042-1.368-0.14c-2.357-0.463-4.678-0.933-6.972-1.431
			l-8.143-1.753l3.107-7.715c0.68-1.683,1.136-3.402,1.375-5.113c0.526-3.844,4.089-6.551,7.904-5.983
			c3.836,0.526,6.523,4.061,5.997,7.904c-0.021,0.147-0.049,0.302-0.07,0.449c3.528,0.954,5.765,4.496,5.043,8.129
			C123.231,321.699,120.299,324.007,117.017,324.007"/>
		<path style="fill:#8697CB;" d="M176.117,194.767c-3.612,0-6.684-2.777-6.986-6.439c-0.316-3.858,2.553-7.245,6.411-7.568
			c4.79-0.393,9.637-0.729,14.539-0.996c3.921-0.365,7.182,2.749,7.392,6.621c0.21,3.858-2.749,7.168-6.614,7.378
			c-4.783,0.274-9.504,0.589-14.161,0.982C176.503,194.76,176.306,194.767,176.117,194.767 M287.845,194.43
			c-0.288,0-0.568-0.014-0.856-0.049c-4.629-0.561-9.335-1.066-14.119-1.522c-3.85-0.365-6.684-3.787-6.319-7.645
			c0.372-3.851,3.773-6.782,7.645-6.319c4.903,0.463,9.735,0.982,14.483,1.557c3.844,0.47,6.579,3.97,6.116,7.806
			C294.361,191.821,291.338,194.43,287.845,194.43 M126.242,201.338c-3.31,0-6.249-2.343-6.887-5.709
			c-0.722-3.808,1.781-7.477,5.583-8.199c4.699-0.891,9.511-1.704,14.42-2.455c3.801-0.568,7.406,2.034,7.996,5.863
			c0.589,3.829-2.041,7.413-5.87,7.996c-4.741,0.729-9.391,1.515-13.929,2.378C127.112,201.296,126.67,201.338,126.242,201.338
			 M334.774,205.722c-0.554,0-1.115-0.063-1.669-0.203c-4.461-1.087-9.055-2.118-13.775-3.079c-3.794-0.772-6.242-4.475-5.471-8.269
			c0.779-3.801,4.468-6.242,8.276-5.471c4.896,0.989,9.665,2.062,14.294,3.191c3.766,0.919,6.074,4.713,5.155,8.48
			C340.798,203.576,337.93,205.722,334.774,205.722 M71.893,214.005c-2.89,0-5.597-1.803-6.614-4.685
			c-1.284-3.654,0.638-7.659,4.292-8.942c4.475-1.578,9.153-3.086,14.034-4.517c3.717-1.115,7.61,1.038,8.704,4.748
			c1.094,3.717-1.038,7.617-4.755,8.704c-4.629,1.368-9.083,2.805-13.333,4.299C73.457,213.886,72.665,214.005,71.893,214.005
			 M382.313,221.938c-1.01,0-2.041-0.217-3.009-0.687c-3.963-1.88-8.241-3.717-12.716-5.436c-3.619-1.396-5.422-5.45-4.026-9.069
			c1.389-3.619,5.464-5.394,9.062-4.026c4.811,1.852,9.426,3.829,13.712,5.877c3.493,1.662,4.98,5.849,3.318,9.349
			C387.447,220.465,384.936,221.938,382.313,221.938 M27.791,237.599c-1.929,0-3.858-0.793-5.246-2.357
			c-2.567-2.897-2.308-7.322,0.589-9.903c3.577-3.17,7.785-6.27,12.512-9.209c3.289-2.062,7.61-1.052,9.658,2.244
			c2.041,3.289,1.038,7.617-2.251,9.658c-4.054,2.532-7.624,5.155-10.605,7.799C31.116,237.017,29.446,237.599,27.791,237.599
			 M419.261,254.278c-2.876,0-5.569-1.774-6.6-4.636c-1.164-3.233-3.24-6.509-6.158-9.756c-2.595-2.883-2.357-7.308,0.519-9.903
			c2.876-2.595,7.308-2.364,9.903,0.519c4.145,4.594,7.147,9.433,8.935,14.385c1.312,3.647-0.575,7.659-4.222,8.978
			C420.853,254.152,420.053,254.278,419.261,254.278 M21.317,281.666c-2.055,0-4.096-0.905-5.485-2.637
			c-3.935-4.924-6.586-10.1-7.883-15.367c-0.926-3.759,1.375-7.561,5.134-8.487c3.752-0.947,7.561,1.375,8.487,5.134
			c0.807,3.282,2.567,6.635,5.225,9.966c2.42,3.023,1.922,7.435-1.101,9.854C24.396,281.161,22.853,281.666,21.317,281.666
			 M397.96,295.357c-2.272,0-4.503-1.101-5.849-3.135c-2.139-3.233-1.255-7.589,1.971-9.721c3.963-2.63,7.406-5.358,10.226-8.101
			c2.777-2.707,7.21-2.637,9.917,0.133c2.7,2.777,2.644,7.217-0.133,9.917c-3.451,3.353-7.575,6.628-12.26,9.735
			C400.639,294.978,399.293,295.357,397.96,295.357 M302.995,326.659c-3.388,0-6.368-2.455-6.916-5.906
			c-0.617-3.822,1.992-7.427,5.814-8.038c4.741-0.757,9.384-1.578,13.915-2.469c3.822-0.764,7.484,1.732,8.234,5.534
			c0.743,3.801-1.732,7.484-5.534,8.234c-4.685,0.919-9.49,1.767-14.399,2.553C303.738,326.631,303.359,326.659,302.995,326.659
			 M161.591,340.161c-0.21,0-0.421-0.007-0.631-0.021c-4.903-0.442-9.728-0.933-14.49-1.487c-3.843-0.456-6.6-3.935-6.151-7.785
			c0.456-3.851,3.956-6.642,7.785-6.151c4.622,0.54,9.328,1.024,14.105,1.445c3.858,0.344,6.705,3.759,6.361,7.61
			C168.247,337.418,165.182,340.161,161.591,340.161 M238.455,334.22c-3.675,0-6.761-2.862-6.993-6.586
			c-0.231-3.865,2.714-7.196,6.579-7.428c4.783-0.295,9.497-0.645,14.154-1.045c3.949-0.4,7.259,2.518,7.596,6.375
			c0.337,3.865-2.518,7.259-6.375,7.596c-4.776,0.414-9.623,0.779-14.525,1.073C238.742,334.213,238.602,334.22,238.455,334.22"/>
	</g>
	<g>
		<path style="fill:#F3D55B;" d="M7.013,171.835c0,3.872,3.142,7.014,7.014,7.014s7.014-3.142,7.014-7.014s-3.142-7.014-7.014-7.014
			S7.013,167.964,7.013,171.835"/>
		<path style="fill:#F3D55B;" d="M168.328,403.287c0,3.872,3.142,7.014,7.014,7.014c3.872,0,7.014-3.142,7.014-7.014
			s-3.142-7.014-7.014-7.014C171.47,396.274,168.328,399.416,168.328,403.287"/>
		<path style="fill:#F3D55B;" d="M273.534,129.753c0,3.872,3.142,7.014,7.014,7.014s7.014-3.142,7.014-7.014
			c0-3.872-3.142-7.014-7.014-7.014S273.534,125.882,273.534,129.753"/>
		<path style="fill:#F3D55B;" d="M367.616,87.671l11.124,11.124l11.124-11.124L378.74,76.547L367.616,87.671z M378.74,118.629
			l-30.958-30.958l30.958-30.958l30.958,30.958L378.74,118.629z"/>
		<path style="fill:#F3D55B;" d="M378.739,73.643c-3.872,0-7.014-3.135-7.014-7.014V52.602c0-3.879,3.142-7.014,7.014-7.014
			s7.014,3.135,7.014,7.014V66.63C385.753,70.508,382.611,73.643,378.739,73.643"/>
		<path style="fill:#F3D55B;" d="M357.698,94.685h-14.027c-3.872,0-7.014-3.135-7.014-7.014c0-3.879,3.142-7.014,7.014-7.014h14.027
			c3.872,0,7.014,3.135,7.014,7.014C364.712,91.549,361.569,94.685,357.698,94.685"/>
		<path style="fill:#F3D55B;" d="M378.739,129.753c-3.872,0-7.014-3.135-7.014-7.014v-14.027c0-3.879,3.142-7.014,7.014-7.014
			s7.014,3.135,7.014,7.014v14.027C385.753,126.618,382.611,129.753,378.739,129.753"/>
		<path style="fill:#F3D55B;" d="M413.808,94.685H399.78c-3.872,0-7.014-3.135-7.014-7.014c0-3.879,3.142-7.014,7.014-7.014h14.027
			c3.872,0,7.014,3.135,7.014,7.014C420.821,91.549,417.679,94.685,413.808,94.685"/>
		<path style="fill:#F3D55B;" d="M28.034,431.342c2.658,1.999,5.036,4.37,7.035,7.035c1.999-2.665,4.37-5.036,7.035-7.035
			c-2.665-1.999-5.036-4.37-7.035-7.035C33.07,426.973,30.692,429.343,28.034,431.342 M35.068,466.411
			c-3.872,0-7.014-3.135-7.014-7.014c0-11.601-9.44-21.041-21.041-21.041c-3.872,0-7.014-3.135-7.014-7.014
			c0-3.879,3.142-7.014,7.014-7.014c11.601,0,21.041-9.44,21.041-21.041c0-3.879,3.142-7.014,7.014-7.014s7.014,3.135,7.014,7.014
			c0,11.601,9.44,21.041,21.041,21.041c3.872,0,7.014,3.135,7.014,7.014c0,3.879-3.142,7.014-7.014,7.014
			c-11.601,0-21.041,9.44-21.041,21.041C42.082,463.275,38.94,466.411,35.068,466.411"/>
		<path style="fill:#F3D55B;" d="M458.794,403.287l11.124,11.124l11.124-11.124l-11.124-11.124L458.794,403.287z M469.918,434.246
			l-30.958-30.958l30.958-30.958l30.958,30.958L469.918,434.246z"/>
		<path style="fill:#F3D55B;" d="M469.917,389.26c-3.879,0-7.014-3.135-7.014-7.014v-14.027c0-3.879,3.135-7.014,7.014-7.014
			c3.879,0,7.014,3.135,7.014,7.014v14.027C476.931,386.125,473.796,389.26,469.917,389.26"/>
		<path style="fill:#F3D55B;" d="M504.986,410.301h-14.027c-3.879,0-7.014-3.135-7.014-7.014c0-3.879,3.135-7.014,7.014-7.014
			h14.027c3.879,0,7.014,3.135,7.014,7.014C511.999,407.166,508.864,410.301,504.986,410.301"/>
		<path style="fill:#F3D55B;" d="M469.917,445.37c-3.879,0-7.014-3.135-7.014-7.014v-14.027c0-3.879,3.135-7.014,7.014-7.014
			c3.879,0,7.014,3.135,7.014,7.014v14.027C476.931,442.234,473.796,445.37,469.917,445.37"/>
		<path style="fill:#F3D55B;" d="M448.876,410.301h-14.027c-3.879,0-7.014-3.135-7.014-7.014c0-3.879,3.135-7.014,7.014-7.014
			h14.027c3.879,0,7.014,3.135,7.014,7.014C455.89,407.166,452.755,410.301,448.876,410.301"/>
	</g>
	<path style="fill:#4482C3;" d="M210.41,129.753c0,19.365-15.704,35.068-35.068,35.068s-35.068-15.704-35.068-35.068
		s15.704-35.068,35.068-35.068S210.41,110.388,210.41,129.753"/>
	<path style="fill:#E57E25;" d="M119.232,305.096c0,19.365-15.704,35.068-35.068,35.068s-35.068-15.704-35.068-35.068
		c0-19.365,15.704-35.069,35.068-35.069S119.232,285.731,119.232,305.096"/>
</g>
<g>
</g>
<g>
</g>
<g>
</g>
<g>
</g>
<g>
</g>
<g>
</g>
<g>
</g>
<g>
</g>
<g>
</g>
<g>
</g>
<g>
</g>
<g>
</g>
<g>
</g>
<g>
</g>
<g>
</g>
</svg>
