<?xml version="1.0" encoding="iso-8859-1"?>
<!-- Generator: Adobe Illustrator 19.0.0, SVG Export Plug-In . SVG Version: 6.00 Build 0)  -->
<svg version="1.1" id="Layer_1" xmlns="http://www.w3.org/2000/svg" xmlns:xlink="http://www.w3.org/1999/xlink" x="0px" y="0px"
	 viewBox="0 0 512 512" style="enable-background:new 0 0 512 512;" xml:space="preserve">
<g>
	<path style="fill:#4482C3;" d="M465.47,108.924l-6.815-6.506c-5.314,2.26-11.149,3.513-17.276,3.513
		c-24.382,0-44.138-19.756-44.138-44.138c0-5.385,1.103-10.487,2.869-15.263l-6.93-6.621C353.518,14.68,306.485,0,256,0
		C114.609,0,0,114.617,0,256s114.609,256,256,256c46.963,0,90.933-12.703,128.768-34.772c-3.222-5.332-5.182-11.511-5.182-18.194
		c0-19.5,15.81-35.31,35.31-35.31c9.737,0,18.556,3.946,24.947,10.328C484.476,387.981,512,325.217,512,256
		C512,201.242,494.751,150.546,465.47,108.924"/>
	<path style="fill:#8697CB;" d="M255.997,70.623c-71.353,0-133.191,40.369-164.175,99.452c13.374,5.023,22.934,17.832,22.934,32.962
		c0,19.5-15.81,35.31-35.31,35.31c-2.719,0-5.341-0.371-7.892-0.953c-0.609,6.118-0.936,12.323-0.936,18.609
		c0,102.382,82.997,185.379,185.379,185.379s185.379-82.997,185.379-185.379S358.38,70.623,255.997,70.623"/>
	<g>
		<path style="fill:#F3D55B;" d="M308.963,256.003c0,29.255-23.711,52.966-52.966,52.966s-52.966-23.711-52.966-52.966
			s23.711-52.966,52.966-52.966S308.963,226.748,308.963,256.003"/>
		<path style="fill:#F3D55B;" d="M255.997,211.865c-4.882,0-8.828-3.946-8.828-8.828v-44.138c0-4.882,3.946-8.828,8.828-8.828
			c4.882,0,8.828,3.946,8.828,8.828v44.138C264.825,207.919,260.879,211.865,255.997,211.865"/>
		<path style="fill:#F3D55B;" d="M255.997,361.934c-4.882,0-8.828-3.946-8.828-8.828v-44.138c0-4.882,3.946-8.828,8.828-8.828
			c4.882,0,8.828,3.946,8.828,8.828v44.138C264.825,357.988,260.879,361.934,255.997,361.934"/>
		<path style="fill:#F3D55B;" d="M353.101,264.83h-44.138c-4.882,0-8.828-3.946-8.828-8.828s3.946-8.828,8.828-8.828h44.138
			c4.882,0,8.828,3.946,8.828,8.828S357.982,264.83,353.101,264.83"/>
		<path style="fill:#F3D55B;" d="M203.032,264.83h-44.138c-4.882,0-8.828-3.946-8.828-8.828s3.946-8.828,8.828-8.828h44.138
			c4.882,0,8.828,3.946,8.828,8.828S207.913,264.83,203.032,264.83"/>
		<path style="fill:#F3D55B;" d="M218.549,227.382c-2.26,0-4.52-0.865-6.241-2.586l-33.174-33.174
			c-3.443-3.443-3.443-9.031,0-12.482c3.452-3.443,9.039-3.443,12.482,0l33.174,33.174c3.452,3.452,3.452,9.031,0,12.482
			C223.069,226.517,220.809,227.382,218.549,227.382"/>
		<path style="fill:#F3D55B;" d="M326.618,335.451c-2.26,0-4.52-0.865-6.241-2.586l-33.174-33.174
			c-3.443-3.443-3.443-9.031,0-12.482c3.452-3.443,9.039-3.443,12.482,0l33.174,33.174c3.452,3.452,3.452,9.031,0,12.482
			C331.138,334.586,328.878,335.451,326.618,335.451"/>
		<path style="fill:#F3D55B;" d="M293.446,227.382c-2.26,0-4.52-0.865-6.241-2.586c-3.452-3.452-3.452-9.031,0-12.482l33.174-33.174
			c3.443-3.443,9.031-3.443,12.482,0c3.443,3.452,3.443,9.039,0,12.482l-33.174,33.174
			C297.965,226.517,295.706,227.382,293.446,227.382"/>
		<path style="fill:#F3D55B;" d="M185.377,335.451c-2.26,0-4.52-0.865-6.241-2.586c-3.452-3.452-3.452-9.031,0-12.482l33.174-33.174
			c3.443-3.443,9.031-3.443,12.482,0c3.443,3.452,3.443,9.039,0,12.482l-33.174,33.174
			C189.896,334.586,187.637,335.451,185.377,335.451"/>
	</g>
	<path style="fill:#ADD7DB;" d="M485.515,61.796c0,24.373-19.765,44.138-44.138,44.138c-24.373,0-44.138-19.765-44.138-44.138
		s19.765-44.138,44.138-44.138C465.75,17.658,485.515,37.423,485.515,61.796"/>
	<path style="fill:#E57E25;" d="M450.204,459.037c0,19.5-15.81,35.31-35.31,35.31c-19.5,0-35.31-15.81-35.31-35.31
		s15.81-35.31,35.31-35.31C434.394,423.727,450.204,439.537,450.204,459.037"/>
	<path style="fill:#D75A4A;" d="M114.756,203.037c0,19.5-15.81,35.31-35.31,35.31s-35.31-15.81-35.31-35.31s15.81-35.31,35.31-35.31
		S114.756,183.537,114.756,203.037"/>
</g>
<g>
</g>
<g>
</g>
<g>
</g>
<g>
</g>
<g>
</g>
<g>
</g>
<g>
</g>
<g>
</g>
<g>
</g>
<g>
</g>
<g>
</g>
<g>
</g>
<g>
</g>
<g>
</g>
<g>
</g>
</svg>
