<?xml version="1.0" encoding="iso-8859-1"?>
<!-- Generator: Adobe Illustrator 19.0.0, SVG Export Plug-In . SVG Version: 6.00 Build 0)  -->
<svg version="1.1" id="Layer_1" xmlns="http://www.w3.org/2000/svg" xmlns:xlink="http://www.w3.org/1999/xlink" x="0px" y="0px"
	 viewBox="0 0 512 512" style="enable-background:new 0 0 512 512;" xml:space="preserve">
<g>
	<g>
		<polygon style="fill:#E8EDEE;" points="425.22,512 112.814,512 156.203,390.508 381.831,390.508 		"/>
		<polygon style="fill:#E8EDEE;" points="373.153,338.441 164.881,338.441 208.271,234.305 329.763,234.305 		"/>
	</g>
	<g>
		<polygon style="fill:#B0B6BB;" points="130.169,390.508 407.864,390.508 407.864,338.441 130.169,338.441 		"/>
		<polygon style="fill:#B0B6BB;" points="208.271,234.305 329.763,234.305 329.763,164.881 208.271,164.881 		"/>
	</g>
	<polygon style="fill:#E8EDEE;" points="329.763,164.881 208.271,164.881 225.627,78.102 312.407,78.102 	"/>
	<polygon style="fill:#434C6D;" points="286.373,52.068 251.661,52.068 242.983,43.39 242.983,8.678 251.661,0 286.373,0 
		295.051,8.678 295.051,43.39 	"/>
	<g>
		<path style="fill:#B0B6BB;" d="M242.983,286.373c0,4.79-3.888,8.678-8.678,8.678s-8.678-3.888-8.678-8.678
			s3.888-8.678,8.678-8.678S242.983,281.583,242.983,286.373"/>
		<path style="fill:#B0B6BB;" d="M277.695,286.373c0,4.79-3.888,8.678-8.678,8.678c-4.79,0-8.678-3.888-8.678-8.678
			s3.888-8.678,8.678-8.678C273.807,277.695,277.695,281.583,277.695,286.373"/>
		<path style="fill:#B0B6BB;" d="M312.407,286.373c0,4.79-3.888,8.678-8.678,8.678s-8.678-3.888-8.678-8.678
			s3.888-8.678,8.678-8.678S312.407,281.583,312.407,286.373"/>
	</g>
	<path style="fill:#434C6D;" d="M269.017,34.712c-4.799,0-8.678,3.879-8.678,8.678v34.712v43.39c0,4.799,3.879,8.678,8.678,8.678
		c4.799,0,8.678-3.879,8.678-8.678v-43.39V43.39C277.695,38.591,273.816,34.712,269.017,34.712"/>
	<g>
		<path style="fill:#F3D55B;" d="M43.39,485.966c0,4.79-3.888,8.678-8.678,8.678s-8.678-3.888-8.678-8.678s3.888-8.678,8.678-8.678
			S43.39,481.176,43.39,485.966"/>
		<path style="fill:#F3D55B;" d="M121.492,225.627c0,4.79-3.888,8.678-8.678,8.678s-8.678-3.888-8.678-8.678
			s3.888-8.678,8.678-8.678S121.492,220.837,121.492,225.627"/>
		<path style="fill:#F3D55B;" d="M512,433.898c0,4.79-3.888,8.678-8.678,8.678s-8.678-3.888-8.678-8.678s3.888-8.678,8.678-8.678
			S512,429.108,512,433.898"/>
		<path style="fill:#F3D55B;" d="M407.864,164.881c0,4.79-3.888,8.678-8.678,8.678s-8.678-3.888-8.678-8.678
			s3.888-8.678,8.678-8.678S407.864,160.091,407.864,164.881"/>
		<path style="fill:#F3D55B;" d="M38.305,52.068l13.763,13.763l13.763-13.763L52.069,38.305L38.305,52.068z M52.069,90.372
			L13.764,52.068l38.305-38.305l38.305,38.305L52.069,90.372z"/>
		<path style="fill:#F3D55B;" d="M52.068,34.712c-4.799,0-8.678-3.879-8.678-8.678V8.678C43.39,3.879,47.269,0,52.068,0
			s8.678,3.879,8.678,8.678v17.356C60.746,30.833,56.867,34.712,52.068,34.712"/>
		<path style="fill:#F3D55B;" d="M95.458,60.746H78.102c-4.799,0-8.678-3.879-8.678-8.678s3.879-8.678,8.678-8.678h17.356
			c4.799,0,8.678,3.879,8.678,8.678S100.257,60.746,95.458,60.746"/>
		<path style="fill:#F3D55B;" d="M52.068,104.136c-4.799,0-8.678-3.879-8.678-8.678V78.102c0-4.799,3.879-8.678,8.678-8.678
			s8.678,3.879,8.678,8.678v17.356C60.746,100.257,56.867,104.136,52.068,104.136"/>
		<path style="fill:#F3D55B;" d="M26.034,60.746H8.678C3.879,60.746,0,56.867,0,52.068s3.879-8.678,8.678-8.678h17.356
			c4.799,0,8.678,3.879,8.678,8.678S30.833,60.746,26.034,60.746"/>
	</g>
	<g>
		<path style="fill:#B0B6BB;" d="M355.797,442.576c-4.799,0-8.678,3.879-8.678,8.678V512h17.356v-60.746
			C364.475,446.455,360.596,442.576,355.797,442.576"/>
		<path style="fill:#B0B6BB;" d="M312.407,468.61c-4.799,0-8.678,3.879-8.678,8.678V512h17.356v-34.712
			C321.085,472.489,317.206,468.61,312.407,468.61"/>
		<path style="fill:#B0B6BB;" d="M269.017,442.576c-4.799,0-8.678,3.879-8.678,8.678V512h17.356v-60.746
			C277.695,446.455,273.816,442.576,269.017,442.576"/>
		<path style="fill:#B0B6BB;" d="M225.627,468.61c-4.799,0-8.678,3.879-8.678,8.678V512h17.356v-34.712
			C234.305,472.489,230.426,468.61,225.627,468.61"/>
		<path style="fill:#B0B6BB;" d="M182.237,442.576c-4.799,0-8.678,3.879-8.678,8.678V512h17.356v-60.746
			C190.915,446.455,187.036,442.576,182.237,442.576"/>
	</g>
</g>
<g>
</g>
<g>
</g>
<g>
</g>
<g>
</g>
<g>
</g>
<g>
</g>
<g>
</g>
<g>
</g>
<g>
</g>
<g>
</g>
<g>
</g>
<g>
</g>
<g>
</g>
<g>
</g>
<g>
</g>
</svg>
