<?xml version="1.0" encoding="iso-8859-1"?>
<!-- Generator: Adobe Illustrator 19.0.0, SVG Export Plug-In . SVG Version: 6.00 Build 0)  -->
<svg version="1.1" id="Layer_1" xmlns="http://www.w3.org/2000/svg" xmlns:xlink="http://www.w3.org/1999/xlink" x="0px" y="0px"
	 viewBox="0 0 512 512" style="enable-background:new 0 0 512 512;" xml:space="preserve">
<g>
	<path style="fill:#F3D55B;" d="M341.333,8.533c-18.773,0-34.133,15.36-34.133,34.133v17.067h-0.213
		c0.128,1.408,0.213,2.825,0.213,4.267v12.8c0,25.813-21.12,42.667-46.933,42.667s-46.933-16.853-46.933-42.667V64
		c0-1.442,0.085-2.859,0.213-4.267h-0.213V42.667c0-18.773-15.36-34.133-34.133-34.133s-34.133,15.36-34.133,34.133v17.067v8.533
		v320c0,63.625,51.575,115.2,115.2,115.2s115.2-51.575,115.2-115.2v-320v-8.533V42.667C375.466,23.893,360.106,8.533,341.333,8.533"
		/>
	<polygon style="fill:#B25E1F;" points="196.266,204.8 324.266,204.8 341.333,384 179.2,384 	"/>
	<g>
		<path style="fill:#E57E25;" d="M260.266,469.333L260.266,469.333c-44.774,0-81.067-36.292-81.067-81.067V384h162.133v4.267
			C341.333,433.041,305.041,469.333,260.266,469.333"/>
		<polygon style="fill:#E57E25;" points="230.4,349.867 290.133,349.867 290.133,238.933 230.4,238.933 		"/>
	</g>
	<polygon style="fill:#F3D55B;" points="230.4,298.667 290.133,298.667 290.133,281.6 230.4,281.6 	"/>
	<g>
		<polygon style="fill:#E57E25;" points="298.666,204.8 221.866,204.8 196.266,162.133 324.266,162.133 		"/>
		<path style="fill:#E57E25;" d="M349.866,128c0,4.71-3.823,8.533-8.533,8.533S332.8,132.71,332.8,128
			c0-4.71,3.823-8.533,8.533-8.533S349.866,123.29,349.866,128"/>
		<path style="fill:#E57E25;" d="M341.333,102.4c-4.71,0-8.533-3.814-8.533-8.533v-51.2c0-4.719,3.823-8.533,8.533-8.533
			s8.533,3.814,8.533,8.533v51.2C349.866,98.586,346.043,102.4,341.333,102.4"/>
		<path style="fill:#E57E25;" d="M170.666,42.667c0-4.71,3.823-8.533,8.533-8.533s8.533,3.823,8.533,8.533S183.91,51.2,179.2,51.2
			S170.666,47.377,170.666,42.667"/>
		<path style="fill:#E57E25;" d="M179.2,136.533c-4.71,0-8.533-3.814-8.533-8.533V76.8c0-4.719,3.823-8.533,8.533-8.533
			s8.533,3.814,8.533,8.533V128C187.733,132.719,183.91,136.533,179.2,136.533"/>
	</g>
	<g>
		<path style="fill:#F3D55B;" d="M452.266,290.133c0,4.71-3.823,8.533-8.533,8.533s-8.533-3.823-8.533-8.533
			c0-4.71,3.823-8.533,8.533-8.533S452.266,285.423,452.266,290.133"/>
		<path style="fill:#F3D55B;" d="M494.933,85.333c0,4.71-3.823,8.533-8.533,8.533s-8.533-3.823-8.533-8.533
			c0-4.71,3.823-8.533,8.533-8.533S494.933,80.623,494.933,85.333"/>
		<path style="fill:#F3D55B;" d="M34.133,418.133c0,4.71-3.823,8.533-8.533,8.533s-8.533-3.823-8.533-8.533s3.823-8.533,8.533-8.533
			S34.133,413.423,34.133,418.133"/>
		<path style="fill:#F3D55B;" d="M85.333,204.8c0,4.71-3.823,8.533-8.533,8.533c-4.71,0-8.533-3.823-8.533-8.533
			c0-4.71,3.823-8.533,8.533-8.533C81.51,196.267,85.333,200.09,85.333,204.8"/>
		<path style="fill:#F3D55B;" d="M34.108,42.667c3.234,2.432,6.127,5.316,8.559,8.559c2.432-3.243,5.316-6.127,8.559-8.559
			c-3.243-2.432-6.127-5.316-8.559-8.559C40.235,37.35,37.342,40.235,34.108,42.667 M42.667,85.333c-4.71,0-8.533-3.814-8.533-8.533
			c0-14.114-11.486-25.6-25.6-25.6C3.823,51.2,0,47.386,0,42.667s3.823-8.533,8.533-8.533c14.114,0,25.6-11.486,25.6-25.6
			C34.134,3.814,37.957,0,42.667,0S51.2,3.814,51.2,8.533c0,14.114,11.486,25.6,25.6,25.6c4.71,0,8.533,3.814,8.533,8.533
			S81.511,51.2,76.8,51.2c-14.114,0-25.6,11.486-25.6,25.6C51.2,81.519,47.377,85.333,42.667,85.333"/>
		<path style="fill:#F3D55B;" d="M447.267,460.8l13.534,13.534l13.534-13.534L460.8,447.266L447.267,460.8z M460.8,498.466
			L423.134,460.8l37.666-37.666l37.666,37.666L460.8,498.466z"/>
		<path style="fill:#F3D55B;" d="M460.8,443.733c-4.71,0-8.533-3.814-8.533-8.533v-17.067c0-4.719,3.823-8.533,8.533-8.533
			s8.533,3.814,8.533,8.533V435.2C469.333,439.919,465.51,443.733,460.8,443.733"/>
		<path style="fill:#F3D55B;" d="M503.466,469.333H486.4c-4.71,0-8.533-3.814-8.533-8.533c0-4.719,3.823-8.533,8.533-8.533h17.067
			c4.71,0,8.533,3.814,8.533,8.533C512,465.519,508.177,469.333,503.466,469.333"/>
		<path style="fill:#F3D55B;" d="M460.8,512c-4.71,0-8.533-3.814-8.533-8.533V486.4c0-4.719,3.823-8.533,8.533-8.533
			s8.533,3.814,8.533,8.533v17.067C469.333,508.186,465.51,512,460.8,512"/>
		<path style="fill:#F3D55B;" d="M435.2,469.333h-17.067c-4.71,0-8.533-3.814-8.533-8.533c0-4.719,3.823-8.533,8.533-8.533H435.2
			c4.71,0,8.533,3.814,8.533,8.533C443.733,465.519,439.91,469.333,435.2,469.333"/>
	</g>
</g>
<g>
</g>
<g>
</g>
<g>
</g>
<g>
</g>
<g>
</g>
<g>
</g>
<g>
</g>
<g>
</g>
<g>
</g>
<g>
</g>
<g>
</g>
<g>
</g>
<g>
</g>
<g>
</g>
<g>
</g>
</svg>
