<?xml version="1.0" encoding="iso-8859-1"?>
<!-- Generator: Adobe Illustrator 19.0.0, SVG Export Plug-In . SVG Version: 6.00 Build 0)  -->
<svg version="1.1" id="Layer_1" xmlns="http://www.w3.org/2000/svg" xmlns:xlink="http://www.w3.org/1999/xlink" x="0px" y="0px"
	 viewBox="0 0 512 512" style="enable-background:new 0 0 512 512;" xml:space="preserve">
<g>
	<path style="fill:#E8EDEE;" d="M386.169,52.068H256H125.831c0,0-121.492,186.03-121.492,269.017v28.056
		c0,4.027,2.43,7.654,6.153,9.19l139.55,57.466c1.206,0.495,2.491,0.746,3.792,0.746H256h102.166c1.302,0,2.586-0.252,3.792-0.746
		l139.55-57.466c3.723-1.536,6.153-5.163,6.153-9.19v-28.056C507.661,238.097,386.169,52.068,386.169,52.068"/>
	<path style="fill:#F3D55B;" d="M325.424,182.237c0,38.339-31.085,69.424-69.424,69.424s-69.424-31.084-69.424-69.424
		s31.084-69.424,69.424-69.424S325.424,143.898,325.424,182.237"/>
	<path style="fill:#CBB292;" d="M290.712,182.237c0,19.17-15.542,34.712-34.712,34.712s-34.712-15.542-34.712-34.712
		S236.83,147.525,256,147.525S290.712,163.068,290.712,182.237"/>
	<g>
		<path style="fill:#B0B6BB;" d="M386.169,52.068H125.831V28.472C125.831,12.748,138.578,0,154.303,0h203.394
			c15.724,0,28.472,12.748,28.472,28.472V52.068z"/>
		<path style="fill:#B0B6BB;" d="M4.339,321.085v28.056c0,4.027,2.43,7.654,6.153,9.19l141.373,58.212l0,0H256h104.136l0,0
			l141.373-58.212c3.723-1.536,6.153-5.163,6.153-9.19v-28.056c0-2.777-0.156-5.684-0.417-8.678H4.756
			C4.495,315.401,4.339,318.308,4.339,321.085"/>
	</g>
	<g>
		<path style="fill:#D75A4A;" d="M169.22,485.966c-4.79,0-8.678-3.888-8.678-8.678v-26.034c0-4.79,3.888-8.678,8.678-8.678
			s8.678,3.888,8.678,8.678v26.034C177.898,482.078,174.011,485.966,169.22,485.966"/>
		<path style="fill:#D75A4A;" d="M203.932,512c-4.79,0-8.678-3.888-8.678-8.678v-26.034c0-4.79,3.888-8.678,8.678-8.678
			s8.678,3.888,8.678,8.678v26.034C212.61,508.112,208.722,512,203.932,512"/>
		<path style="fill:#D75A4A;" d="M342.78,512c-4.79,0-8.678-3.888-8.678-8.678v-26.034c0-4.79,3.888-8.678,8.678-8.678
			s8.678,3.888,8.678,8.678v26.034C351.458,508.112,347.57,512,342.78,512"/>
		<path style="fill:#D75A4A;" d="M308.068,485.966c-4.79,0-8.678-3.888-8.678-8.678v-26.034c0-4.79,3.888-8.678,8.678-8.678
			s8.678,3.888,8.678,8.678v26.034C316.746,482.078,312.858,485.966,308.068,485.966"/>
		<path style="fill:#D75A4A;" d="M273.356,512c-4.79,0-8.678-3.888-8.678-8.678v-26.034c0-4.79,3.888-8.678,8.678-8.678
			c4.79,0,8.678,3.888,8.678,8.678v26.034C282.034,508.112,278.146,512,273.356,512"/>
		<path style="fill:#D75A4A;" d="M238.644,477.288c-4.79,0-8.678-3.888-8.678-8.678v-17.356c0-4.79,3.888-8.678,8.678-8.678
			s8.678,3.888,8.678,8.678v17.356C247.322,473.4,243.434,477.288,238.644,477.288"/>
	</g>
	<g>
		<path style="fill:#E8EDEE;" d="M177.898,364.475c0,4.79-3.888,8.678-8.678,8.678s-8.678-3.888-8.678-8.678
			s3.888-8.678,8.678-8.678S177.898,359.684,177.898,364.475"/>
		<path style="fill:#E8EDEE;" d="M221.288,364.475c0,4.79-3.888,8.678-8.678,8.678s-8.678-3.888-8.678-8.678
			s3.888-8.678,8.678-8.678S221.288,359.684,221.288,364.475"/>
		<path style="fill:#E8EDEE;" d="M264.678,364.475c0,4.79-3.888,8.678-8.678,8.678c-4.79,0-8.678-3.888-8.678-8.678
			s3.888-8.678,8.678-8.678C260.79,355.797,264.678,359.684,264.678,364.475"/>
		<path style="fill:#E8EDEE;" d="M308.068,364.475c0,4.79-3.888,8.678-8.678,8.678s-8.678-3.888-8.678-8.678
			s3.888-8.678,8.678-8.678S308.068,359.684,308.068,364.475"/>
		<path style="fill:#E8EDEE;" d="M351.458,364.475c0,4.79-3.888,8.678-8.678,8.678s-8.678-3.888-8.678-8.678
			s3.888-8.678,8.678-8.678S351.458,359.684,351.458,364.475"/>
	</g>
	<g>
		<path style="fill:#B0B6BB;" d="M423.164,112.814h-54.35c-4.79,0-8.678,3.888-8.678,8.678s3.888,8.678,8.678,8.678h64.234
			C429.681,124.156,426.375,118.359,423.164,112.814"/>
		<path style="fill:#B0B6BB;" d="M456.371,173.559h-52.849c-4.79,0-8.678,3.888-8.678,8.678s3.888,8.678,8.678,8.678h61.544
			C462.211,185.084,459.313,179.295,456.371,173.559"/>
		<path style="fill:#B0B6BB;" d="M484.745,234.305H377.494c-4.799,0-8.678,3.888-8.678,8.678s3.879,8.678,8.678,8.678h114.063
			C489.431,245.951,487.166,240.163,484.745,234.305"/>
		<path style="fill:#B0B6BB;" d="M143.186,112.814h-54.35c-3.211,5.545-6.517,11.342-9.884,17.356h64.234
			c4.79,0,8.678-3.888,8.678-8.678S147.977,112.814,143.186,112.814"/>
		<path style="fill:#B0B6BB;" d="M108.475,190.915c4.79,0,8.678-3.888,8.678-8.678s-3.888-8.678-8.678-8.678H55.626
			c-2.933,5.736-5.84,11.524-8.687,17.356H108.475z"/>
		<path style="fill:#B0B6BB;" d="M134.508,234.305H27.257c-2.421,5.858-4.686,11.646-6.812,17.356h114.063
			c4.79,0,8.678-3.888,8.678-8.678S139.299,234.305,134.508,234.305"/>
	</g>
</g>
<g>
</g>
<g>
</g>
<g>
</g>
<g>
</g>
<g>
</g>
<g>
</g>
<g>
</g>
<g>
</g>
<g>
</g>
<g>
</g>
<g>
</g>
<g>
</g>
<g>
</g>
<g>
</g>
<g>
</g>
</svg>
