<?xml version="1.0" encoding="iso-8859-1"?>
<!-- Generator: Adobe Illustrator 19.0.0, SVG Export Plug-In . SVG Version: 6.00 Build 0)  -->
<svg version="1.1" id="Layer_1" xmlns="http://www.w3.org/2000/svg" xmlns:xlink="http://www.w3.org/1999/xlink" x="0px" y="0px"
	 viewBox="0 0 512 512" style="enable-background:new 0 0 512 512;" xml:space="preserve">
<g>
	<g>
		<path style="fill:#B0B6BB;" d="M211.862,52.966h-52.966c-4.882,0-8.828-3.955-8.828-8.828s3.946-8.828,8.828-8.828h52.966
			c4.882,0,8.828,3.955,8.828,8.828S216.744,52.966,211.862,52.966"/>
		<path style="fill:#B0B6BB;" d="M353.103,52.966h-52.966c-4.882,0-8.828-3.955-8.828-8.828s3.946-8.828,8.828-8.828h52.966
			c4.882,0,8.828,3.955,8.828,8.828S357.985,52.966,353.103,52.966"/>
	</g>
	<g>
		<path style="fill:#E8EDEE;" d="M211.862,485.517h-52.966c-4.882,0-8.828-3.955-8.828-8.828c0-4.873,3.946-8.828,8.828-8.828
			h52.966c4.882,0,8.828,3.955,8.828,8.828C220.69,481.562,216.744,485.517,211.862,485.517"/>
		<path style="fill:#E8EDEE;" d="M353.103,485.517h-52.966c-4.882,0-8.828-3.955-8.828-8.828c0-4.873,3.946-8.828,8.828-8.828
			h52.966c4.882,0,8.828,3.955,8.828,8.828C361.931,481.562,357.985,485.517,353.103,485.517"/>
		<path style="fill:#E8EDEE;" d="M288.37,335.448h-64.742c-16.252,0-29.422-13.171-29.422-29.422V170.664
			c0-16.252,13.171-29.422,29.422-29.422h64.742c16.252,0,29.422,13.171,29.422,29.422v135.362
			C317.792,322.277,304.621,335.448,288.37,335.448"/>
	</g>
	<polygon style="fill:#B0B6BB;" points="229.517,300.138 282.483,300.138 282.483,176.552 229.517,176.552 	"/>
	<polygon style="fill:#FFFFFF;" points="229.517,247.172 282.483,247.172 282.483,229.517 229.517,229.517 	"/>
	<g>
		<polygon style="fill:#B0B6BB;" points="229.517,141.241 282.483,141.241 282.483,88.276 229.517,88.276 		"/>
		<polygon style="fill:#B0B6BB;" points="229.517,388.414 282.483,388.414 282.483,335.448 229.517,335.448 		"/>
	</g>
	<g>
		<polygon style="fill:#E8EDEE;" points="300.138,432.552 211.862,432.552 229.517,388.414 282.483,388.414 		"/>
		<polygon style="fill:#E8EDEE;" points="211.862,88.276 300.138,88.276 300.138,0 211.862,0 		"/>
	</g>
	<polygon style="fill:#B0B6BB;" points="211.862,512 300.138,512 300.138,432.552 211.862,432.552 	"/>
	<g>
		<polygon style="fill:#F3D55B;" points="0,79.448 158.897,79.448 158.897,8.828 0,8.828 		"/>
		<polygon style="fill:#F3D55B;" points="353.103,79.448 512,79.448 512,8.828 353.103,8.828 		"/>
		<polygon style="fill:#F3D55B;" points="0,512 158.897,512 158.897,441.379 0,441.379 		"/>
		<polygon style="fill:#F3D55B;" points="353.103,512 512,512 512,441.379 353.103,441.379 		"/>
	</g>
	<g>
		<polygon style="fill:#CBB292;" points="44.138,512 61.793,512 61.793,441.379 44.138,441.379 		"/>
		<polygon style="fill:#CBB292;" points="97.103,512 114.759,512 114.759,441.379 97.103,441.379 		"/>
		<polygon style="fill:#CBB292;" points="397.241,512 414.897,512 414.897,441.379 397.241,441.379 		"/>
		<polygon style="fill:#CBB292;" points="450.207,512 467.862,512 467.862,441.379 450.207,441.379 		"/>
		<polygon style="fill:#CBB292;" points="0,485.517 158.897,485.517 158.897,467.862 0,467.862 		"/>
		<polygon style="fill:#CBB292;" points="353.103,485.517 512,485.517 512,467.862 353.103,467.862 		"/>
		<polygon style="fill:#CBB292;" points="44.138,79.448 61.793,79.448 61.793,8.828 44.138,8.828 		"/>
		<polygon style="fill:#CBB292;" points="97.103,79.448 114.759,79.448 114.759,8.828 97.103,8.828 		"/>
		<polygon style="fill:#CBB292;" points="397.241,79.448 414.897,79.448 414.897,8.828 397.241,8.828 		"/>
		<polygon style="fill:#CBB292;" points="450.207,79.448 467.862,79.448 467.862,8.828 450.207,8.828 		"/>
		<polygon style="fill:#CBB292;" points="0,52.966 158.897,52.966 158.897,35.31 0,35.31 		"/>
		<polygon style="fill:#CBB292;" points="353.103,52.966 512,52.966 512,35.31 353.103,35.31 		"/>
	</g>
	<g>
		<path style="fill:#F3D55B;" d="M158.897,388.414c0,4.873-3.955,8.828-8.828,8.828c-4.873,0-8.828-3.955-8.828-8.828
			s3.955-8.828,8.828-8.828C154.942,379.586,158.897,383.541,158.897,388.414"/>
		<path style="fill:#F3D55B;" d="M35.31,273.655c0,4.873-3.955,8.828-8.828,8.828s-8.828-3.955-8.828-8.828
			c0-4.873,3.955-8.828,8.828-8.828S35.31,268.782,35.31,273.655"/>
		<path style="fill:#F3D55B;" d="M361.931,141.241c0-4.873,3.955-8.828,8.828-8.828c4.873,0,8.828,3.955,8.828,8.828
			s-3.955,8.828-8.828,8.828C365.886,150.069,361.931,146.114,361.931,141.241"/>
		<path style="fill:#F3D55B;" d="M467.862,247.172c0-4.873,3.955-8.828,8.828-8.828c4.873,0,8.828,3.955,8.828,8.828
			c0,4.873-3.955,8.828-8.828,8.828C471.817,256,467.862,252.045,467.862,247.172"/>
		<path style="fill:#F3D55B;" d="M70.595,167.724c3.354,2.516,6.338,5.508,8.854,8.854c2.516-3.346,5.5-6.338,8.854-8.854
			c-3.354-2.516-6.338-5.508-8.854-8.854C76.933,162.216,73.95,165.208,70.595,167.724 M79.449,211.862
			c-4.882,0-8.828-3.955-8.828-8.828c0-14.601-11.882-26.483-26.483-26.483c-4.882,0-8.828-3.955-8.828-8.828
			s3.946-8.828,8.828-8.828c14.601,0,26.483-11.882,26.483-26.483c0-4.873,3.946-8.828,8.828-8.828c4.882,0,8.828,3.955,8.828,8.828
			c0,14.601,11.882,26.483,26.483,26.483c4.882,0,8.828,3.955,8.828,8.828s-3.946,8.828-8.828,8.828
			c-14.601,0-26.483,11.882-26.483,26.483C88.277,207.907,84.331,211.862,79.449,211.862"/>
		<path style="fill:#F3D55B;" d="M409.724,344.276l14.001,14.001l14.001-14.001l-14.001-14.001L409.724,344.276z M423.725,383.241
			l-38.965-38.965l38.965-38.965l38.965,38.965L423.725,383.241z"/>
		<path style="fill:#F3D55B;" d="M423.724,326.621c-4.882,0-8.828-3.955-8.828-8.828v-17.655c0-4.873,3.946-8.828,8.828-8.828
			c4.882,0,8.828,3.955,8.828,8.828v17.655C432.552,322.666,428.606,326.621,423.724,326.621"/>
		<path style="fill:#F3D55B;" d="M467.862,353.103h-17.655c-4.882,0-8.828-3.955-8.828-8.828c0-4.873,3.946-8.828,8.828-8.828
			h17.655c4.882,0,8.828,3.955,8.828,8.828C476.69,349.149,472.744,353.103,467.862,353.103"/>
		<path style="fill:#F3D55B;" d="M423.724,397.241c-4.882,0-8.828-3.955-8.828-8.828v-17.655c0-4.873,3.946-8.828,8.828-8.828
			c4.882,0,8.828,3.955,8.828,8.828v17.655C432.552,393.287,428.606,397.241,423.724,397.241"/>
		<path style="fill:#F3D55B;" d="M397.241,353.103h-17.655c-4.882,0-8.828-3.955-8.828-8.828c0-4.873,3.946-8.828,8.828-8.828
			h17.655c4.882,0,8.828,3.955,8.828,8.828C406.069,349.149,402.123,353.103,397.241,353.103"/>
	</g>
	<path style="fill:#B0B6BB;" d="M256,52.966c4.882,0,8.828-3.955,8.828-8.828V0h-17.655v44.138
		C247.172,49.011,251.118,52.966,256,52.966"/>
	<path style="fill:#E8EDEE;" d="M256,459.034c-4.882,0-8.828,3.955-8.828,8.828V512h17.655v-44.138
		C264.828,462.989,260.882,459.034,256,459.034"/>
</g>
<g>
</g>
<g>
</g>
<g>
</g>
<g>
</g>
<g>
</g>
<g>
</g>
<g>
</g>
<g>
</g>
<g>
</g>
<g>
</g>
<g>
</g>
<g>
</g>
<g>
</g>
<g>
</g>
<g>
</g>
</svg>
