<?xml version="1.0" encoding="iso-8859-1"?>
<!-- Generator: Adobe Illustrator 19.0.0, SVG Export Plug-In . SVG Version: 6.00 Build 0)  -->
<svg version="1.1" id="Layer_1" xmlns="http://www.w3.org/2000/svg" xmlns:xlink="http://www.w3.org/1999/xlink" x="0px" y="0px"
	 viewBox="0 0 512 512" style="enable-background:new 0 0 512 512;" xml:space="preserve">
<g>
	<g>
		<path style="fill:#434C6D;" d="M255.991,335.448c-1.845,0-3.699-0.574-5.288-1.766L109.462,227.752
			c-3.902-2.922-4.696-8.457-1.766-12.359c2.922-3.902,8.466-4.687,12.359-1.766l141.241,105.931
			c3.902,2.922,4.696,8.457,1.766,12.359C261.323,334.23,258.684,335.448,255.991,335.448L255.991,335.448z"/>
		<path style="fill:#434C6D;" d="M256.009,335.448c-2.692,0-5.332-1.218-7.071-3.531c-2.931-3.902-2.136-9.437,1.766-12.359
			l141.241-105.931c3.893-2.931,9.437-2.136,12.359,1.766c2.931,3.902,2.136,9.437-1.766,12.359L261.297,333.683
			C259.708,334.874,257.854,335.448,256.009,335.448"/>
	</g>
	<polygon style="fill:#E8EDEE;" points="141.241,467.862 220.69,512 220.69,512 300.138,512 300.138,512 370.759,467.862 	"/>
	<polygon style="fill:#B0B6BB;" points="141.241,467.862 370.759,467.862 317.793,361.931 256,361.931 194.207,361.931 	"/>
	<path style="fill:#FFFFFF;" d="M282.483,414.897c0,14.627-11.855,26.483-26.483,26.483c-14.627,0-26.483-11.855-26.483-26.483
		s11.855-26.483,26.483-26.483C270.627,388.414,282.483,400.269,282.483,414.897"/>
	<path style="fill:#E8EDEE;" d="M317.793,361.931H194.207l0,0c0-19.5,15.81-35.31,35.31-35.31h52.966
		C301.983,326.621,317.793,342.431,317.793,361.931L317.793,361.931z"/>
	<path style="fill:#8697CB;" d="M79.448,185.379c0,19.5,15.81,35.31,35.31,35.31s35.31-15.81,35.31-35.31
		C150.069,115.827,191.17,0,256,0C153.618,0,79.448,82.997,79.448,185.379"/>
	<path style="fill:#434C6D;" d="M150.069,185.379c0,19.5,15.81,35.31,35.31,35.31s35.31-15.81,35.31-35.31
		C220.69,119.693,233.931,0,256,0C191.17,0,150.069,115.827,150.069,185.379"/>
	<path style="fill:#8697CB;" d="M256,0c-22.069,0-35.31,119.693-35.31,185.379c0,19.5,15.81,35.31,35.31,35.31
		s35.31-15.81,35.31-35.31C291.31,119.693,278.069,0,256,0"/>
	<path style="fill:#434C6D;" d="M256,0c22.069,0,35.31,119.693,35.31,185.379c0,19.5,15.81,35.31,35.31,35.31
		c19.5,0,35.31-15.81,35.31-35.31C361.931,115.827,320.83,0,256,0"/>
	<path style="fill:#8697CB;" d="M256,0c64.83,0,105.931,115.827,105.931,185.379c0,19.5,15.81,35.31,35.31,35.31
		c19.5,0,35.31-15.81,35.31-35.31C432.552,82.997,358.382,0,256,0"/>
	<g>
		<path style="fill:#E8EDEE;" d="M176.552,397.241h26.483c4.882,0,8.828-3.946,8.828-8.828c0-4.882-3.946-8.828-8.828-8.828h-17.655
			L176.552,397.241z"/>
		<path style="fill:#E8EDEE;" d="M194.207,423.724c4.882,0,8.828-3.946,8.828-8.828c0-4.882-3.946-8.828-8.828-8.828h-22.069
			l-8.828,17.655H194.207z"/>
		<path style="fill:#E8EDEE;" d="M194.207,450.207c4.882,0,8.828-3.946,8.828-8.828c0-4.882-3.946-8.828-8.828-8.828h-35.31
			l-8.828,17.655H194.207z"/>
		<path style="fill:#E8EDEE;" d="M353.103,432.552h-35.31c-4.882,0-8.828,3.946-8.828,8.828c0,4.882,3.946,8.828,8.828,8.828h44.138
			L353.103,432.552z"/>
		<path style="fill:#E8EDEE;" d="M339.862,406.069h-22.069c-4.882,0-8.828,3.946-8.828,8.828c0,4.882,3.946,8.828,8.828,8.828
			h30.897L339.862,406.069z"/>
		<path style="fill:#E8EDEE;" d="M326.621,379.586h-17.655c-4.882,0-8.828,3.946-8.828,8.828c0,4.882,3.946,8.828,8.828,8.828
			h26.483L326.621,379.586z"/>
	</g>
</g>
<g>
</g>
<g>
</g>
<g>
</g>
<g>
</g>
<g>
</g>
<g>
</g>
<g>
</g>
<g>
</g>
<g>
</g>
<g>
</g>
<g>
</g>
<g>
</g>
<g>
</g>
<g>
</g>
<g>
</g>
</svg>
