<?xml version="1.0" encoding="iso-8859-1"?>
<!-- Generator: Adobe Illustrator 19.0.0, SVG Export Plug-In . SVG Version: 6.00 Build 0)  -->
<svg version="1.1" id="Layer_1" xmlns="http://www.w3.org/2000/svg" xmlns:xlink="http://www.w3.org/1999/xlink" x="0px" y="0px"
	 viewBox="0 0 512 512" style="enable-background:new 0 0 512 512;" xml:space="preserve">
<g>
	<g>
		<path style="fill:#838A8E;" d="M211.862,476.69h-52.966c-4.873,0-8.828-3.955-8.828-8.828s3.955-8.828,8.828-8.828h52.966
			c4.873,0,8.828,3.955,8.828,8.828S216.735,476.69,211.862,476.69"/>
		<path style="fill:#838A8E;" d="M353.103,476.69h-52.966c-4.873,0-8.828-3.955-8.828-8.828s3.955-8.828,8.828-8.828h52.966
			c4.873,0,8.828,3.955,8.828,8.828S357.976,476.69,353.103,476.69"/>
		<path style="fill:#838A8E;" d="M194.207,264.828h-35.31c-4.873,0-8.828-3.955-8.828-8.828s3.955-8.828,8.828-8.828h35.31
			c4.873,0,8.828,3.955,8.828,8.828S199.08,264.828,194.207,264.828"/>
		<path style="fill:#838A8E;" d="M353.103,264.828h-35.31c-4.873,0-8.828-3.955-8.828-8.828s3.955-8.828,8.828-8.828h35.31
			c4.873,0,8.828,3.955,8.828,8.828S357.976,264.828,353.103,264.828"/>
		<path style="fill:#838A8E;" d="M256,432.552c-4.873,0-8.828-3.955-8.828-8.828v-26.483c0-4.873,3.955-8.828,8.828-8.828
			s8.828,3.955,8.828,8.828v26.483C264.828,428.597,260.873,432.552,256,432.552"/>
		<path style="fill:#838A8E;" d="M211.862,52.966h-52.966c-4.873,0-8.828-3.955-8.828-8.828s3.955-8.828,8.828-8.828h52.966
			c4.873,0,8.828,3.955,8.828,8.828S216.735,52.966,211.862,52.966"/>
		<path style="fill:#838A8E;" d="M353.103,52.966h-52.966c-4.873,0-8.828-3.955-8.828-8.828s3.955-8.828,8.828-8.828h52.966
			c4.873,0,8.828,3.955,8.828,8.828S357.976,52.966,353.103,52.966"/>
		<path style="fill:#838A8E;" d="M256,123.586c-4.873,0-8.828-3.955-8.828-8.828V88.276c0-4.873,3.955-8.828,8.828-8.828
			s8.828,3.955,8.828,8.828v26.483C264.828,119.631,260.873,123.586,256,123.586"/>
	</g>
	<path style="fill:#E8EDEE;" d="M288.369,353.103h-64.742c-16.252,0-29.422-13.171-29.422-29.422V188.319
		c0-16.252,13.171-29.422,29.422-29.422h64.742c16.252,0,29.422,13.171,29.422,29.422v135.362
		C317.791,339.933,304.621,353.103,288.369,353.103"/>
	<path style="fill:#B0B6BB;" d="M256,397.241L256,397.241c-14.627,0-26.483-11.855-26.483-26.483v-17.655h52.966v17.655
		C282.483,385.386,270.627,397.241,256,397.241"/>
	<g>
		<path style="fill:#E8EDEE;" d="M300.138,44.138c0,24.373-19.765,44.138-44.138,44.138s-44.138-19.765-44.138-44.138
			S231.627,0,256,0S300.138,19.765,300.138,44.138"/>
		<path style="fill:#E8EDEE;" d="M300.138,467.862C300.138,492.235,280.373,512,256,512s-44.138-19.765-44.138-44.138
			s19.765-44.138,44.138-44.138S300.138,443.489,300.138,467.862"/>
	</g>
	<g>
		<path style="fill:#B0B6BB;" d="M282.483,211.862h-52.966c-4.873,0-8.828-3.955-8.828-8.828c0-4.873,3.955-8.828,8.828-8.828
			h52.966c4.873,0,8.828,3.955,8.828,8.828C291.31,207.907,287.356,211.862,282.483,211.862"/>
		<path style="fill:#B0B6BB;" d="M282.483,247.172h-52.966c-4.873,0-8.828-3.955-8.828-8.828c0-4.873,3.955-8.828,8.828-8.828
			h52.966c4.873,0,8.828,3.955,8.828,8.828C291.31,243.218,287.356,247.172,282.483,247.172"/>
		<path style="fill:#B0B6BB;" d="M282.483,282.483h-52.966c-4.873,0-8.828-3.955-8.828-8.828c0-4.873,3.955-8.828,8.828-8.828
			h52.966c4.873,0,8.828,3.955,8.828,8.828C291.31,278.528,287.356,282.483,282.483,282.483"/>
		<path style="fill:#B0B6BB;" d="M282.483,317.793h-52.966c-4.873,0-8.828-3.955-8.828-8.828s3.955-8.828,8.828-8.828h52.966
			c4.873,0,8.828,3.955,8.828,8.828S287.356,317.793,282.483,317.793"/>
		<path style="fill:#B0B6BB;" d="M264.828,467.862c0,4.873-3.955,8.828-8.828,8.828s-8.828-3.955-8.828-8.828
			s3.955-8.828,8.828-8.828S264.828,462.989,264.828,467.862"/>
		<path style="fill:#B0B6BB;" d="M264.828,44.138c0,4.873-3.955,8.828-8.828,8.828s-8.828-3.955-8.828-8.828
			s3.955-8.828,8.828-8.828S264.828,39.265,264.828,44.138"/>
		<path style="fill:#B0B6BB;" d="M256,114.759L256,114.759c14.627,0,26.483,11.855,26.483,26.483v17.655h-52.966v-17.655
			C229.517,126.614,241.373,114.759,256,114.759"/>
	</g>
	<polygon style="fill:#F3D55B;" points="0,79.448 158.897,79.448 158.897,8.828 0,8.828 	"/>
	<g>
		<polygon style="fill:#CBB292;" points="44.138,79.448 61.793,79.448 61.793,8.828 44.138,8.828 		"/>
		<polygon style="fill:#CBB292;" points="97.103,79.448 114.759,79.448 114.759,8.828 97.103,8.828 		"/>
		<polygon style="fill:#CBB292;" points="0,52.966 158.897,52.966 158.897,35.31 0,35.31 		"/>
	</g>
	<polygon style="fill:#F3D55B;" points="353.103,79.448 512,79.448 512,8.828 353.103,8.828 	"/>
	<g>
		<polygon style="fill:#CBB292;" points="397.241,79.448 414.897,79.448 414.897,8.828 397.241,8.828 		"/>
		<polygon style="fill:#CBB292;" points="450.207,79.448 467.862,79.448 467.862,8.828 450.207,8.828 		"/>
		<polygon style="fill:#CBB292;" points="353.103,52.966 512,52.966 512,35.31 353.103,35.31 		"/>
	</g>
	<polygon style="fill:#F3D55B;" points="353.103,291.31 512,291.31 512,220.69 353.103,220.69 	"/>
	<g>
		<polygon style="fill:#CBB292;" points="397.241,291.31 414.897,291.31 414.897,220.69 397.241,220.69 		"/>
		<polygon style="fill:#CBB292;" points="450.207,291.31 467.862,291.31 467.862,220.69 450.207,220.69 		"/>
		<polygon style="fill:#CBB292;" points="353.103,264.828 512,264.828 512,247.172 353.103,247.172 		"/>
	</g>
	<polygon style="fill:#F3D55B;" points="0,291.31 158.897,291.31 158.897,220.69 0,220.69 	"/>
	<g>
		<polygon style="fill:#CBB292;" points="44.138,291.31 61.793,291.31 61.793,220.69 44.138,220.69 		"/>
		<polygon style="fill:#CBB292;" points="97.103,291.31 114.759,291.31 114.759,220.69 97.103,220.69 		"/>
		<polygon style="fill:#CBB292;" points="0,264.828 158.897,264.828 158.897,247.172 0,247.172 		"/>
	</g>
	<polygon style="fill:#F3D55B;" points="0,503.172 158.897,503.172 158.897,432.552 0,432.552 	"/>
	<g>
		<polygon style="fill:#CBB292;" points="44.138,503.172 61.793,503.172 61.793,432.552 44.138,432.552 		"/>
		<polygon style="fill:#CBB292;" points="97.103,503.172 114.759,503.172 114.759,432.552 97.103,432.552 		"/>
		<polygon style="fill:#CBB292;" points="0,476.69 158.897,476.69 158.897,459.034 0,459.034 		"/>
	</g>
	<polygon style="fill:#F3D55B;" points="353.103,503.172 512,503.172 512,432.552 353.103,432.552 	"/>
	<g>
		<polygon style="fill:#CBB292;" points="397.241,503.172 414.897,503.172 414.897,432.552 397.241,432.552 		"/>
		<polygon style="fill:#CBB292;" points="450.207,503.172 467.862,503.172 467.862,432.552 450.207,432.552 		"/>
		<polygon style="fill:#CBB292;" points="353.103,476.69 512,476.69 512,459.034 353.103,459.034 		"/>
	</g>
</g>
<g>
</g>
<g>
</g>
<g>
</g>
<g>
</g>
<g>
</g>
<g>
</g>
<g>
</g>
<g>
</g>
<g>
</g>
<g>
</g>
<g>
</g>
<g>
</g>
<g>
</g>
<g>
</g>
<g>
</g>
</svg>
