<?xml version="1.0" encoding="iso-8859-1"?>
<!-- Generator: Adobe Illustrator 19.0.0, SVG Export Plug-In . SVG Version: 6.00 Build 0)  -->
<svg version="1.1" id="Layer_1" xmlns="http://www.w3.org/2000/svg" xmlns:xlink="http://www.w3.org/1999/xlink" x="0px" y="0px"
	 viewBox="0 0 512 512" style="enable-background:new 0 0 512 512;" xml:space="preserve">
<g>
	<g>
		<polygon style="fill:#E8EDEE;" points="256,136.828 308.966,136.828 308.966,66.207 256,66.207 		"/>
		<polygon style="fill:#E8EDEE;" points="344.276,128 397.241,128 397.241,75.034 344.276,75.034 		"/>
	</g>
	<polygon style="fill:#B0B6BB;" points="397.241,163.31 467.862,163.31 467.862,39.724 397.241,39.724 	"/>
	<polygon style="fill:#838A8E;" points="220.69,154.483 256,154.483 256,48.552 220.69,48.552 	"/>
	<polygon style="fill:#E8EDEE;" points="88.276,136.828 61.793,136.828 35.31,110.345 0,66.207 88.276,66.207 	"/>
	<g>
		<polygon style="fill:#838A8E;" points="308.966,154.483 344.276,154.483 344.276,48.552 308.966,48.552 		"/>
		<path style="fill:#838A8E;" d="M185.379,136.828c0,14.627-11.855,26.483-26.483,26.483c-14.627,0-26.483-11.855-26.483-26.483
			s11.855-26.483,26.483-26.483C173.524,110.345,185.379,122.2,185.379,136.828"/>
	</g>
	<path style="fill:#E8EDEE;" d="M158.897,66.207v44.138c14.627,0,26.483,11.855,26.483,26.483h35.31V66.207H158.897z"/>
	<path style="fill:#B0B6BB;" d="M158.897,110.345V83.862H88.276v35.31h51.015C144.137,113.788,151.084,110.345,158.897,110.345"/>
	<path style="fill:#E8EDEE;" d="M467.862,57.379v88.276c24.373,0,44.138-19.765,44.138-44.138S492.235,57.379,467.862,57.379"/>
	<polygon style="fill:#B0B6BB;" points="26.483,66.207 61.793,66.207 61.793,30.897 26.483,30.897 	"/>
	<g>
		<polygon style="fill:#434C6D;" points="264.828,481.103 300.138,481.103 300.138,322.207 264.828,322.207 		"/>
		<polygon style="fill:#434C6D;" points="414.897,481.103 379.586,481.103 326.621,322.207 361.931,322.207 		"/>
		<polygon style="fill:#434C6D;" points="150.069,481.103 185.379,481.103 238.345,322.207 203.034,322.207 		"/>
	</g>
	<polygon style="fill:#8697CB;" points="176.552,322.207 388.414,322.207 388.414,286.897 176.552,286.897 	"/>
	<path style="fill:#E8EDEE;" d="M317.793,286.897h-70.621v-35.31c0-19.5,15.81-35.31,35.31-35.31s35.31,15.81,35.31,35.31V286.897z"
		/>
	<path style="fill:#434C6D;" d="M86.509,345.16l-14.124-10.593l26.483-35.31c1.668-2.225,4.281-3.531,7.062-3.531h70.621v17.655
		h-66.207L86.509,345.16z"/>
	<path style="fill:#8697CB;" d="M42.65,391.671L42.65,391.671c-7.91-5.694-9.71-16.728-4.008-24.647l20.63-28.654
		c5.703-7.91,16.737-9.702,24.647-4.008l0,0c7.91,5.703,9.71,16.737,4.008,24.647l-20.63,28.654
		C61.594,395.573,50.559,397.374,42.65,391.671"/>
	<g>
		<path style="fill:#B0B6BB;" d="M282.483,216.276c10.611,0,20.012,4.776,26.483,12.182v-91.63H256v91.63
			C262.471,221.052,271.872,216.276,282.483,216.276"/>
		<path style="fill:#B0B6BB;" d="M291.31,251.586c0,4.873-3.955,8.828-8.828,8.828c-4.873,0-8.828-3.955-8.828-8.828
			s3.955-8.828,8.828-8.828C287.356,242.759,291.31,246.713,291.31,251.586"/>
	</g>
</g>
<g>
</g>
<g>
</g>
<g>
</g>
<g>
</g>
<g>
</g>
<g>
</g>
<g>
</g>
<g>
</g>
<g>
</g>
<g>
</g>
<g>
</g>
<g>
</g>
<g>
</g>
<g>
</g>
<g>
</g>
</svg>
