<?xml version="1.0" encoding="iso-8859-1"?>
<!-- Generator: Adobe Illustrator 19.0.0, SVG Export Plug-In . SVG Version: 6.00 Build 0)  -->
<svg version="1.1" id="Layer_1" xmlns="http://www.w3.org/2000/svg" xmlns:xlink="http://www.w3.org/1999/xlink" x="0px" y="0px"
	 viewBox="0 0 512 512" style="enable-background:new 0 0 512 512;" xml:space="preserve">
<g>
	<path style="fill:#8697CB;" d="M460.8,298.667H51.2c-23.467,0-42.667-19.2-42.667-42.667s19.2-42.667,42.667-42.667h409.6
		c23.467,0,42.667,19.2,42.667,42.667S484.267,298.667,460.8,298.667"/>
	<g>
		<path style="fill:#434C6D;" d="M256,128c-98.97,0-179.2,38.204-179.2,85.333h358.4C435.2,166.204,354.97,128,256,128"/>
		<path style="fill:#434C6D;" d="M76.8,298.667C76.8,345.796,157.03,384,256,384s179.2-38.204,179.2-85.333H76.8z"/>
	</g>
	<g>
		<path style="fill:#F3D55B;" d="M68.267,256c0,4.71-3.823,8.533-8.533,8.533S51.2,260.71,51.2,256c0-4.71,3.823-8.533,8.533-8.533
			S68.267,251.29,68.267,256"/>
		<path style="fill:#F3D55B;" d="M110.933,256c0,4.71-3.823,8.533-8.533,8.533c-4.71,0-8.533-3.823-8.533-8.533
			c0-4.71,3.823-8.533,8.533-8.533C107.11,247.467,110.933,251.29,110.933,256"/>
		<path style="fill:#F3D55B;" d="M153.6,256c0,4.71-3.823,8.533-8.533,8.533c-4.71,0-8.533-3.823-8.533-8.533
			c0-4.71,3.823-8.533,8.533-8.533C149.777,247.467,153.6,251.29,153.6,256"/>
		<path style="fill:#F3D55B;" d="M196.267,256c0,4.71-3.823,8.533-8.533,8.533c-4.71,0-8.533-3.823-8.533-8.533
			c0-4.71,3.823-8.533,8.533-8.533C192.444,247.467,196.267,251.29,196.267,256"/>
		<path style="fill:#F3D55B;" d="M238.933,256c0,4.71-3.823,8.533-8.533,8.533s-8.533-3.823-8.533-8.533
			c0-4.71,3.823-8.533,8.533-8.533S238.933,251.29,238.933,256"/>
		<path style="fill:#F3D55B;" d="M281.6,256c0,4.71-3.823,8.533-8.533,8.533s-8.533-3.823-8.533-8.533
			c0-4.71,3.823-8.533,8.533-8.533S281.6,251.29,281.6,256"/>
		<path style="fill:#F3D55B;" d="M324.267,256c0,4.71-3.823,8.533-8.533,8.533c-4.71,0-8.533-3.823-8.533-8.533
			c0-4.71,3.823-8.533,8.533-8.533C320.444,247.467,324.267,251.29,324.267,256"/>
		<path style="fill:#F3D55B;" d="M366.933,256c0,4.71-3.823,8.533-8.533,8.533s-8.533-3.823-8.533-8.533
			c0-4.71,3.823-8.533,8.533-8.533S366.933,251.29,366.933,256"/>
		<path style="fill:#F3D55B;" d="M418.133,256c0,4.71-3.823,8.533-8.533,8.533c-4.71,0-8.533-3.823-8.533-8.533
			c0-4.71,3.823-8.533,8.533-8.533C414.31,247.467,418.133,251.29,418.133,256"/>
		<path style="fill:#F3D55B;" d="M460.8,256c0,4.71-3.823,8.533-8.533,8.533s-8.533-3.823-8.533-8.533
			c0-4.71,3.823-8.533,8.533-8.533S460.8,251.29,460.8,256"/>
	</g>
	<path style="fill:#434C6D;" d="M256,93.867c-4.719,0-8.533-3.814-8.533-8.533V42.667c0-4.719,3.814-8.533,8.533-8.533
		c4.719,0,8.533,3.814,8.533,8.533v42.667C264.533,90.052,260.719,93.867,256,93.867"/>
	<path style="fill:#8697CB;" d="M256,128c17.724,0,34.816,1.271,50.987,3.558c0.111-1.178,0.213-2.355,0.213-3.558
		c0-23.561-22.921-42.667-51.2-42.667c-28.279,0-51.2,19.106-51.2,42.667c0,1.203,0.102,2.381,0.213,3.558
		C221.184,129.271,238.276,128,256,128"/>
	<g>
		<path style="fill:#F3D55B;" d="M264.533,460.8c0,4.71-3.823,8.533-8.533,8.533c-4.71,0-8.533-3.823-8.533-8.533
			s3.823-8.533,8.533-8.533C260.71,452.267,264.533,456.09,264.533,460.8"/>
		<path style="fill:#F3D55B;" d="M256,435.2c-4.719,0-8.533-3.814-8.533-8.533v-8.533c0-4.719,3.814-8.533,8.533-8.533
			c4.719,0,8.533,3.814,8.533,8.533v8.533C264.533,431.386,260.719,435.2,256,435.2"/>
		<path style="fill:#F3D55B;" d="M256,512c-4.719,0-8.533-3.814-8.533-8.533v-8.533c0-4.719,3.814-8.533,8.533-8.533
			c4.719,0,8.533,3.814,8.533,8.533v8.533C264.533,508.186,260.719,512,256,512"/>
		<path style="fill:#F3D55B;" d="M307.2,435.2c-4.719,0-8.533-3.814-8.533-8.533v-8.533c0-4.719,3.814-8.533,8.533-8.533
			c4.719,0,8.533,3.814,8.533,8.533v8.533C315.733,431.386,311.919,435.2,307.2,435.2"/>
		<path style="fill:#F3D55B;" d="M307.2,494.933c-4.719,0-8.533-3.814-8.533-8.533v-25.6c0-4.719,3.814-8.533,8.533-8.533
			c4.719,0,8.533,3.814,8.533,8.533v25.6C315.733,491.119,311.919,494.933,307.2,494.933"/>
		<path style="fill:#F3D55B;" d="M204.8,503.467c-4.719,0-8.533-3.814-8.533-8.533v-25.6c0-4.719,3.814-8.533,8.533-8.533
			c4.719,0,8.533,3.814,8.533,8.533v25.6C213.333,499.652,209.519,503.467,204.8,503.467"/>
		<path style="fill:#F3D55B;" d="M204.8,443.733c-4.719,0-8.533-3.814-8.533-8.533v-17.067c0-4.719,3.814-8.533,8.533-8.533
			c4.719,0,8.533,3.814,8.533,8.533V435.2C213.333,439.919,209.519,443.733,204.8,443.733"/>
	</g>
	<polygon style="fill:#8697CB;" points="273.067,51.2 238.933,51.2 230.4,42.667 230.4,8.533 238.933,0 273.067,0 281.6,8.533 
		281.6,42.667 	"/>
</g>
<g>
</g>
<g>
</g>
<g>
</g>
<g>
</g>
<g>
</g>
<g>
</g>
<g>
</g>
<g>
</g>
<g>
</g>
<g>
</g>
<g>
</g>
<g>
</g>
<g>
</g>
<g>
</g>
<g>
</g>
</svg>
