<?xml version="1.0" encoding="iso-8859-1"?>
<!-- Generator: Adobe Illustrator 19.0.0, SVG Export Plug-In . SVG Version: 6.00 Build 0)  -->
<svg version="1.1" id="Layer_1" xmlns="http://www.w3.org/2000/svg" xmlns:xlink="http://www.w3.org/1999/xlink" x="0px" y="0px"
	 viewBox="0 0 512.119 512.119" style="enable-background:new 0 0 512.119 512.119;" xml:space="preserve">
<g>
	<polygon style="fill:#F3D55B;" points="353.103,357.577 264.828,357.577 176.552,357.577 123.586,498.818 264.828,498.818 
		406.069,498.818 	"/>
	<path style="fill:#38454F;" d="M397.241,216.335H264.828H132.414c-62.429,0-95.426,21.398-111.183,36.996
		c-6.859,6.78-3.69,18.458,5.579,21.107l105.604,30.173l44.138,52.966h88.276h88.276l44.138-52.966l105.604-30.173
		c9.269-2.648,12.438-14.327,5.579-21.107C492.668,237.733,459.67,216.335,397.241,216.335"/>
	<g>
		<polygon style="fill:#546A79;" points="176.552,357.577 264.828,357.577 353.103,357.577 397.241,304.611 132.414,304.611 		"/>
		<path style="fill:#546A79;" d="M388.414,216.335H141.241l22.06-55.137c7.998-20.012,27.383-33.139,48.94-33.139h105.172
			c21.557,0,40.942,13.127,48.94,33.139L388.414,216.335z"/>
	</g>
	<path style="fill:#38454F;" d="M264.828,136.887c-4.873,0-8.828-3.946-8.828-8.828V83.921c0-4.882,3.955-8.828,8.828-8.828
		s8.828,3.946,8.828,8.828v44.138C273.655,132.941,269.7,136.887,264.828,136.887"/>
	<g>
		<path style="fill:#E57E25;" d="M273.655,401.715c0,4.873-3.955,8.828-8.828,8.828S256,406.587,256,401.715
			c0-4.873,3.955-8.828,8.828-8.828S273.655,396.842,273.655,401.715"/>
		<path style="fill:#E57E25;" d="M264.828,463.508c-4.873,0-8.828-3.946-8.828-8.828v-17.655c0-4.882,3.955-8.828,8.828-8.828
			s8.828,3.946,8.828,8.828v17.655C273.655,459.562,269.7,463.508,264.828,463.508"/>
		<path style="fill:#E57E25;" d="M344.276,401.715c0,4.873-3.955,8.828-8.828,8.828s-8.828-3.955-8.828-8.828
			c0-4.873,3.955-8.828,8.828-8.828S344.276,396.842,344.276,401.715"/>
		<path style="fill:#E57E25;" d="M335.448,463.508c-4.873,0-8.828-3.946-8.828-8.828v-17.655c0-4.882,3.955-8.828,8.828-8.828
			s8.828,3.946,8.828,8.828v17.655C344.276,459.562,340.321,463.508,335.448,463.508"/>
		<path style="fill:#E57E25;" d="M203.034,401.715c0,4.873-3.955,8.828-8.828,8.828s-8.828-3.955-8.828-8.828
			c0-4.873,3.955-8.828,8.828-8.828S203.034,396.842,203.034,401.715"/>
		<path style="fill:#E57E25;" d="M158.897,260.473c0,4.873-3.955,8.828-8.828,8.828c-4.873,0-8.828-3.955-8.828-8.828
			c0-4.873,3.955-8.828,8.828-8.828C154.942,251.646,158.897,255.6,158.897,260.473"/>
		<path style="fill:#E57E25;" d="M203.034,260.473c0,4.873-3.955,8.828-8.828,8.828s-8.828-3.955-8.828-8.828
			c0-4.873,3.955-8.828,8.828-8.828S203.034,255.6,203.034,260.473"/>
		<path style="fill:#E57E25;" d="M247.172,260.473c0,4.873-3.955,8.828-8.828,8.828c-4.873,0-8.828-3.955-8.828-8.828
			c0-4.873,3.955-8.828,8.828-8.828C243.218,251.646,247.172,255.6,247.172,260.473"/>
		<path style="fill:#E57E25;" d="M291.31,260.473c0,4.873-3.955,8.828-8.828,8.828c-4.873,0-8.828-3.955-8.828-8.828
			c0-4.873,3.955-8.828,8.828-8.828C287.356,251.646,291.31,255.6,291.31,260.473"/>
		<path style="fill:#E57E25;" d="M335.448,260.473c0,4.873-3.955,8.828-8.828,8.828c-4.873,0-8.828-3.955-8.828-8.828
			c0-4.873,3.955-8.828,8.828-8.828C331.493,251.646,335.448,255.6,335.448,260.473"/>
		<path style="fill:#E57E25;" d="M379.586,260.473c0,4.873-3.955,8.828-8.828,8.828c-4.873,0-8.828-3.955-8.828-8.828
			c0-4.873,3.955-8.828,8.828-8.828C375.631,251.646,379.586,255.6,379.586,260.473"/>
		<path style="fill:#E57E25;" d="M194.207,463.508c-4.873,0-8.828-3.946-8.828-8.828v-17.655c0-4.882,3.955-8.828,8.828-8.828
			s8.828,3.946,8.828,8.828v17.655C203.034,459.562,199.08,463.508,194.207,463.508"/>
	</g>
	<polygon style="fill:#8697CB;" points="317.793,216.335 211.862,216.335 238.345,128.059 291.31,128.059 	"/>
	<g>
		<path style="fill:#F3D55B;" d="M459.034,66.266c0,4.873-3.955,8.828-8.828,8.828c-4.873,0-8.828-3.955-8.828-8.828
			s3.955-8.828,8.828-8.828C455.08,57.439,459.034,61.393,459.034,66.266"/>
		<path style="fill:#F3D55B;" d="M512,366.404c0,4.873-3.955,8.828-8.828,8.828c-4.873,0-8.828-3.955-8.828-8.828
			c0-4.873,3.955-8.828,8.828-8.828C508.045,357.577,512,361.531,512,366.404"/>
		<path style="fill:#F3D55B;" d="M17.655,463.508c0,4.873-3.955,8.828-8.828,8.828S0,468.38,0,463.508s3.955-8.828,8.828-8.828
			S17.655,458.635,17.655,463.508"/>
		<path style="fill:#F3D55B;" d="M38.966,66.266l14.001,14.001l14.001-14.001L52.966,52.266L38.966,66.266z M52.966,105.231
			L14.001,66.266l38.965-38.965l38.965,38.965L52.966,105.231z"/>
		<path style="fill:#F3D55B;" d="M52.966,48.611c-4.873,0-8.828-3.946-8.828-8.828V22.128c0-4.882,3.955-8.828,8.828-8.828
			s8.828,3.946,8.828,8.828v17.655C61.793,44.665,57.838,48.611,52.966,48.611"/>
		<path style="fill:#F3D55B;" d="M97.103,75.094H79.448c-4.873,0-8.828-3.946-8.828-8.828s3.955-8.828,8.828-8.828h17.655
			c4.873,0,8.828,3.946,8.828,8.828S101.976,75.094,97.103,75.094"/>
		<path style="fill:#F3D55B;" d="M52.966,119.232c-4.873,0-8.828-3.946-8.828-8.828V92.749c0-4.882,3.955-8.828,8.828-8.828
			s8.828,3.946,8.828,8.828v17.655C61.793,115.286,57.838,119.232,52.966,119.232"/>
		<path style="fill:#F3D55B;" d="M26.483,75.094H8.828C3.955,75.094,0,71.148,0,66.266s3.955-8.828,8.828-8.828h17.655
			c4.873,0,8.828,3.946,8.828,8.828S31.356,75.094,26.483,75.094"/>
	</g>
	<polygon style="fill:#546A79;" points="282.483,92.749 247.172,92.749 238.345,83.921 238.345,48.611 247.172,39.784 
		282.483,39.784 291.31,48.611 291.31,83.921 	"/>
</g>
<g>
</g>
<g>
</g>
<g>
</g>
<g>
</g>
<g>
</g>
<g>
</g>
<g>
</g>
<g>
</g>
<g>
</g>
<g>
</g>
<g>
</g>
<g>
</g>
<g>
</g>
<g>
</g>
<g>
</g>
</svg>
