<?xml version="1.0" encoding="iso-8859-1"?>
<!-- Generator: Adobe Illustrator 19.0.0, SVG Export Plug-In . SVG Version: 6.00 Build 0)  -->
<svg version="1.1" id="Layer_1" xmlns="http://www.w3.org/2000/svg" xmlns:xlink="http://www.w3.org/1999/xlink" x="0px" y="0px"
	 viewBox="0 0 512 512" style="enable-background:new 0 0 512 512;" xml:space="preserve">
<g>
	<path style="fill:#5E5F62;" d="M256,93.867c-4.719,0-8.533-3.814-8.533-8.533V42.667c0-4.719,3.814-8.533,8.533-8.533
		c4.719,0,8.533,3.814,8.533,8.533v42.667C264.533,90.052,260.719,93.867,256,93.867"/>
	<g>
		<path style="fill:#77797F;" d="M256,315.733c-75.52,0-143.087-9.344-188.484-24.055C91.213,345.003,166.596,384,256,384
			s164.787-38.997,188.484-92.322C399.087,306.389,331.52,315.733,256,315.733"/>
		<path style="fill:#77797F;" d="M384,204.8c0-70.69-57.31-119.467-128-119.467S128,134.11,128,204.8l31.36,10.453
			c62.729,20.907,130.551,20.907,193.28,0L384,204.8z"/>
	</g>
	<path style="fill:#5E5F62;" d="M382.882,188.877c0.393,3.098,0.623,6.263,0.785,9.455c0.213,1.57,0.333,3.447,0.333,6.468
		l-31.36,10.453c-62.729,20.907-130.551,20.907-193.28,0L128,204.8c0-3.021,0.119-4.898,0.333-6.468
		c0.162-3.191,0.393-6.357,0.785-9.455c-72.201,11.921-120.585,33.69-120.585,58.59c0,37.7,110.797,68.267,247.467,68.267
		s247.467-30.566,247.467-68.267C503.467,222.566,455.083,200.798,382.882,188.877"/>
	<g>
		<path style="fill:#F3D55B;" d="M264.533,460.8c0,4.71-3.823,8.533-8.533,8.533c-4.71,0-8.533-3.823-8.533-8.533
			s3.823-8.533,8.533-8.533C260.71,452.267,264.533,456.09,264.533,460.8"/>
		<path style="fill:#F3D55B;" d="M256,435.2c-4.719,0-8.533-3.814-8.533-8.533v-8.533c0-4.719,3.814-8.533,8.533-8.533
			c4.719,0,8.533,3.814,8.533,8.533v8.533C264.533,431.386,260.719,435.2,256,435.2"/>
		<path style="fill:#F3D55B;" d="M256,512c-4.719,0-8.533-3.814-8.533-8.533v-8.533c0-4.719,3.814-8.533,8.533-8.533
			c4.719,0,8.533,3.814,8.533,8.533v8.533C264.533,508.186,260.719,512,256,512"/>
		<path style="fill:#F3D55B;" d="M307.2,435.2c-4.719,0-8.533-3.814-8.533-8.533V409.6c0-4.719,3.814-8.533,8.533-8.533
			c4.719,0,8.533,3.814,8.533,8.533v17.067C315.733,431.386,311.919,435.2,307.2,435.2"/>
		<path style="fill:#F3D55B;" d="M307.2,494.933c-4.719,0-8.533-3.814-8.533-8.533v-25.6c0-4.719,3.814-8.533,8.533-8.533
			c4.719,0,8.533,3.814,8.533,8.533v25.6C315.733,491.119,311.919,494.933,307.2,494.933"/>
		<path style="fill:#F3D55B;" d="M204.8,503.467c-4.719,0-8.533-3.814-8.533-8.533v-25.6c0-4.719,3.814-8.533,8.533-8.533
			c4.719,0,8.533,3.814,8.533,8.533v25.6C213.333,499.652,209.519,503.467,204.8,503.467"/>
		<path style="fill:#F3D55B;" d="M204.8,443.733c-4.719,0-8.533-3.814-8.533-8.533v-25.6c0-4.719,3.814-8.533,8.533-8.533
			c4.719,0,8.533,3.814,8.533,8.533v25.6C213.333,439.919,209.519,443.733,204.8,443.733"/>
	</g>
	<path style="fill:#5E5F62;" d="M187.733,187.733c-4.719,0-8.533-3.814-8.533-8.533c0-32.93,26.803-59.733,59.733-59.733
		c4.719,0,8.533,3.814,8.533,8.533c0,4.719-3.814,8.533-8.533,8.533c-23.526,0-42.667,19.14-42.667,42.667
		C196.267,183.919,192.452,187.733,187.733,187.733"/>
	<g>
		<polygon style="fill:#77797F;" points="273.067,51.2 238.933,51.2 230.4,42.667 230.4,8.533 238.933,0 273.067,0 281.6,8.533 
			281.6,42.667 		"/>
		<path style="fill:#77797F;" d="M264.533,273.067c0,4.71-3.823,8.533-8.533,8.533c-4.71,0-8.533-3.823-8.533-8.533
			s3.823-8.533,8.533-8.533C260.71,264.533,264.533,268.356,264.533,273.067"/>
		<path style="fill:#77797F;" d="M341.333,264.533c0,4.71-3.823,8.533-8.533,8.533s-8.533-3.823-8.533-8.533
			c0-4.71,3.823-8.533,8.533-8.533S341.333,259.823,341.333,264.533"/>
		<path style="fill:#77797F;" d="M409.6,247.467c0,4.71-3.823,8.533-8.533,8.533s-8.533-3.823-8.533-8.533s3.823-8.533,8.533-8.533
			S409.6,242.756,409.6,247.467"/>
		<path style="fill:#77797F;" d="M119.467,247.467c0,4.71-3.823,8.533-8.533,8.533c-4.71,0-8.533-3.823-8.533-8.533
			s3.823-8.533,8.533-8.533C115.644,238.933,119.467,242.756,119.467,247.467"/>
		<path style="fill:#77797F;" d="M170.667,264.533c0,4.71,3.823,8.533,8.533,8.533s8.533-3.823,8.533-8.533
			c0-4.71-3.823-8.533-8.533-8.533S170.667,259.823,170.667,264.533"/>
	</g>
</g>
<g>
</g>
<g>
</g>
<g>
</g>
<g>
</g>
<g>
</g>
<g>
</g>
<g>
</g>
<g>
</g>
<g>
</g>
<g>
</g>
<g>
</g>
<g>
</g>
<g>
</g>
<g>
</g>
<g>
</g>
</svg>
