<?xml version="1.0" encoding="iso-8859-1"?>
<!-- Generator: Adobe Illustrator 19.0.0, SVG Export Plug-In . SVG Version: 6.00 Build 0)  -->
<svg version="1.1" id="Layer_1" xmlns="http://www.w3.org/2000/svg" xmlns:xlink="http://www.w3.org/1999/xlink" x="0px" y="0px"
	 viewBox="0 0 512 512" style="enable-background:new 0 0 512 512;" xml:space="preserve">
<g>
	<polygon style="fill:#F3D55B;" points="361.931,370.759 256,370.759 150.069,370.759 97.103,512 256,512 414.897,512 	"/>
	<path style="fill:#5C536B;" d="M406.069,194.207v-44.138C406.069,67.187,338.882,0,256,0S105.931,67.187,105.931,150.069v44.138"/>
	<g>
		<path style="fill:#8B8996;" d="M176.552,114.759c-4.873,0-8.828-3.946-8.828-8.828c0-34.066,27.719-61.793,61.793-61.793
			c4.873,0,8.828,3.946,8.828,8.828s-3.955,8.828-8.828,8.828c-24.338,0-44.138,19.8-44.138,44.138
			C185.379,110.813,181.425,114.759,176.552,114.759"/>
		<path style="fill:#8B8996;" d="M512,317.793H0l0,0c0-68.255,55.331-123.586,123.586-123.586h264.828
			C456.669,194.207,512,249.538,512,317.793L512,317.793z"/>
	</g>
	<path style="fill:#5C536B;" d="M353.103,370.759H158.897c-29.255,0-52.966-23.711-52.966-52.966h300.138
		C406.069,347.048,382.358,370.759,353.103,370.759"/>
	<g>
		<path style="fill:#E57E25;" d="M264.828,414.897c0,4.873-3.955,8.828-8.828,8.828s-8.828-3.955-8.828-8.828
			s3.955-8.828,8.828-8.828S264.828,410.024,264.828,414.897"/>
		<path style="fill:#E57E25;" d="M256,476.69c-4.873,0-8.828-3.946-8.828-8.828v-17.655c0-4.882,3.955-8.828,8.828-8.828
			s8.828,3.946,8.828,8.828v17.655C264.828,472.744,260.873,476.69,256,476.69"/>
		<path style="fill:#E57E25;" d="M335.448,414.897c0,4.873-3.955,8.828-8.828,8.828c-4.873,0-8.828-3.955-8.828-8.828
			s3.955-8.828,8.828-8.828C331.493,406.069,335.448,410.024,335.448,414.897"/>
		<path style="fill:#E57E25;" d="M326.621,476.69c-4.873,0-8.828-3.946-8.828-8.828v-17.655c0-4.882,3.955-8.828,8.828-8.828
			c4.873,0,8.828,3.946,8.828,8.828v17.655C335.448,472.744,331.493,476.69,326.621,476.69"/>
		<path style="fill:#E57E25;" d="M194.207,414.897c0,4.873-3.955,8.828-8.828,8.828c-4.873,0-8.828-3.955-8.828-8.828
			s3.955-8.828,8.828-8.828C190.252,406.069,194.207,410.024,194.207,414.897"/>
		<path style="fill:#E57E25;" d="M185.379,476.69c-4.873,0-8.828-3.946-8.828-8.828v-17.655c0-4.882,3.955-8.828,8.828-8.828
			c4.873,0,8.828,3.946,8.828,8.828v17.655C194.207,472.744,190.252,476.69,185.379,476.69"/>
	</g>
	<g>
		<path style="fill:#5C536B;" d="M150.069,256c0,14.627-11.855,26.483-26.483,26.483S97.103,270.627,97.103,256
			c0-14.627,11.855-26.483,26.483-26.483S150.069,241.373,150.069,256"/>
		<path style="fill:#5C536B;" d="M273.655,256c0,14.627-11.855,26.483-26.483,26.483S220.69,270.627,220.69,256
			c0-14.627,11.855-26.483,26.483-26.483S273.655,241.373,273.655,256"/>
		<path style="fill:#5C536B;" d="M397.241,256c0,14.627-11.855,26.483-26.483,26.483c-14.627,0-26.483-11.855-26.483-26.483
			c0-14.627,11.855-26.483,26.483-26.483C385.386,229.517,397.241,241.373,397.241,256"/>
	</g>
</g>
<g>
</g>
<g>
</g>
<g>
</g>
<g>
</g>
<g>
</g>
<g>
</g>
<g>
</g>
<g>
</g>
<g>
</g>
<g>
</g>
<g>
</g>
<g>
</g>
<g>
</g>
<g>
</g>
<g>
</g>
</svg>
