<?xml version="1.0" encoding="iso-8859-1"?>
<!-- Generator: Adobe Illustrator 19.0.0, SVG Export Plug-In . SVG Version: 6.00 Build 0)  -->
<svg version="1.1" id="Layer_1" xmlns="http://www.w3.org/2000/svg" xmlns:xlink="http://www.w3.org/1999/xlink" x="0px" y="0px"
	 viewBox="0 0 512.002 512.002" style="enable-background:new 0 0 512.002 512.002;" xml:space="preserve">
<g>
	<g>
		<path style="fill:#546A79;" d="M256.002,269.715c-141.385,0-256-24.558-256-54.857v36.571c0,30.299,114.615,54.857,256,54.857
			s256-24.558,256-54.857v-36.571C512.002,245.157,397.387,269.715,256.002,269.715"/>
		<path style="fill:#546A79;" d="M256.002,22.858c-95.936,0-173.714,77.778-173.714,173.714l44.608,11.739
			c84.626,22.272,173.586,22.272,258.213,0l44.608-11.739C429.716,100.636,351.938,22.858,256.002,22.858"/>
	</g>
	<path style="fill:#38454F;" d="M428.123,174.251c0.942,7.323,1.591,14.738,1.591,22.318l-44.608,11.739
		c-84.626,22.272-173.577,22.272-258.213,0l-44.608-11.739c0-7.579,0.649-14.994,1.591-22.318C32.347,184.29,0,198.763,0,214.854
		c0,30.299,114.615,54.857,256,54.857s256-24.558,256-54.857C512,198.763,479.653,184.29,428.123,174.251"/>
	<path style="fill:#F3D55B;" d="M256.002,306.287c-41.39,0-80.457-2.121-115.054-5.861l-26.761,163.017
		c-2.331,13.422,7.991,25.701,21.614,25.701h120.201h120.201c13.623,0,23.945-12.279,21.614-25.701l-26.761-163.017
		C336.459,304.165,297.392,306.287,256.002,306.287"/>
	<g>
		<path style="fill:#E57E25;" d="M265.145,397.715c0,5.047-4.096,9.143-9.143,9.143c-5.047,0-9.143-4.096-9.143-9.143
			s4.096-9.143,9.143-9.143C261.049,388.572,265.145,392.668,265.145,397.715"/>
		<path style="fill:#E57E25;" d="M256.002,370.287c-5.047,0-9.143-4.087-9.143-9.143v-18.286c0-5.056,4.096-9.143,9.143-9.143
			c5.047,0,9.143,4.087,9.143,9.143v18.286C265.145,366.2,261.049,370.287,256.002,370.287"/>
		<path style="fill:#E57E25;" d="M256.002,461.715c-5.047,0-9.143-4.087-9.143-9.143v-18.286c0-5.056,4.096-9.143,9.143-9.143
			c5.047,0,9.143,4.087,9.143,9.143v18.286C265.145,457.628,261.049,461.715,256.002,461.715"/>
		<path style="fill:#E57E25;" d="M338.288,397.715c0,5.047-4.096,9.143-9.143,9.143c-5.047,0-9.143-4.096-9.143-9.143
			s4.096-9.143,9.143-9.143C334.192,388.572,338.288,392.668,338.288,397.715"/>
		<path style="fill:#E57E25;" d="M329.145,370.287c-5.047,0-9.143-4.087-9.143-9.143v-18.286c0-5.056,4.096-9.143,9.143-9.143
			c5.047,0,9.143,4.087,9.143,9.143v18.286C338.288,366.2,334.192,370.287,329.145,370.287"/>
		<path style="fill:#E57E25;" d="M329.145,461.715c-5.047,0-9.143-4.087-9.143-9.143v-18.286c0-5.056,4.096-9.143,9.143-9.143
			c5.047,0,9.143,4.087,9.143,9.143v18.286C338.288,457.628,334.192,461.715,329.145,461.715"/>
		<path style="fill:#E57E25;" d="M192.002,397.715c0,5.047-4.096,9.143-9.143,9.143s-9.143-4.096-9.143-9.143
			s4.096-9.143,9.143-9.143S192.002,392.668,192.002,397.715"/>
		<path style="fill:#E57E25;" d="M182.859,370.287c-5.047,0-9.143-4.087-9.143-9.143v-18.286c0-5.056,4.096-9.143,9.143-9.143
			s9.143,4.087,9.143,9.143v18.286C192.002,366.2,187.906,370.287,182.859,370.287"/>
		<path style="fill:#E57E25;" d="M182.859,461.715c-5.047,0-9.143-4.087-9.143-9.143v-18.286c0-5.056,4.096-9.143,9.143-9.143
			s9.143,4.087,9.143,9.143v18.286C192.002,457.628,187.906,461.715,182.859,461.715"/>
	</g>
	<path style="fill:#38454F;" d="M164.573,160.001c-5.047,0-9.143-4.087-9.143-9.143c0-45.376,36.919-82.286,82.286-82.286
		c5.047,0,9.143,4.087,9.143,9.143s-4.096,9.143-9.143,9.143c-35.291,0-64,28.718-64,64
		C173.716,155.914,169.62,160.001,164.573,160.001"/>
</g>
<g>
</g>
<g>
</g>
<g>
</g>
<g>
</g>
<g>
</g>
<g>
</g>
<g>
</g>
<g>
</g>
<g>
</g>
<g>
</g>
<g>
</g>
<g>
</g>
<g>
</g>
<g>
</g>
<g>
</g>
</svg>
